<?xml version="1.0" encoding="utf-8" ?><!DOCTYPE svg PUBLIC "-//W3C//DTD SVG 1.1//EN" "http://www.w3.org/Graphics/SVG/1.1/DTD/svg11.dtd" 
[ <!ATTLIST svg 
  xmlns:dsy CDATA #FIXED "http://www.3ds.com/print"  
    dsy:text-version CDATA #IMPLIED > 

  <!ATTLIST text 
  xmlns:dsy CDATA #FIXED "http://www.3ds.com/print" 
    dsy:text-version CDATA #IMPLIED > 
]><svg xmlns="http://www.w3.org/2000/svg" xmlns:dsy="http://www.3ds.com/print" dsy:text-version="18000" width="420" height="297" viewBox="0 0 420 297" version="1.1"><g stroke="rgb(0, 0, 0)" stroke-width="0.13" stroke-linecap="butt" stroke-linejoin="miter" fill="none"><path d="M 39.4864 98.5785 L 39.4864 53.5228"/><path d="M 380.514 145.005 L 380.514 53.5228"/></g><g stroke="rgb(0, 0, 0)" stroke-width="0.35" stroke-linecap="butt" stroke-linejoin="miter" fill="none"><path d="M 110.632 165.785 L 110.532 165.758"/><path d="M 110.632 146.39 L 110.632 165.785"/><path d="M 310.918 172.867 L 310.918 193.024"/><path d="M 310.918 193.024 L 311.018 193.052"/><path d="M 305.018 192.235 L 305.018 172.867"/><path d="M 305.018 192.235 L 116.532 166.575"/><path d="M 305.018 172.867 L 310.918 172.867"/><path d="M 116.532 146.39 L 116.532 166.575"/><path d="M 335.771 196.422 L 311.018 193.052"/><path d="M 335.771 165.008 L 335.771 196.422"/><path d="M 380.514 171.099 L 335.771 165.008"/><path d="M 380.514 147.005 L 380.514 171.099"/><path d="M 380.514 147.005 L 39.4864 100.578"/><path d="M 39.4864 100.578 L 39.4864 127.843"/><path d="M 39.4864 127.843 L 89.2613 134.619"/><path d="M 89.2613 134.619 L 85.4863 162.348"/><path d="M 110.532 165.758 L 85.4863 162.348"/><path d="M 110.632 146.39 L 116.532 146.39"/><circle cx="370.61" cy="160.922" r="4.2"/><circle cx="50.258" cy="118.59" r="4.2"/></g><g stroke="rgb(0, 0, 0)" stroke-width="0.13" stroke-linecap="butt" stroke-linejoin="miter" fill="none"><path d="M 197.521 52.4234 L 197.521 52.4587 L 197.602 52.9428 L 197.839 53.3059 L 198.212 53.5379 L 198.706 53.6237 L 199.231 53.5379 L 199.624 53.316 L 199.876 52.963 L 199.967 52.5091 L 199.927 52.2116 L 199.816 51.9695 L 199.634 51.7829 L 199.392 51.6467 L 199.72 51.3744 L 199.836 50.9407 L 199.76 50.5473 L 199.543 50.2497 L 199.19 50.0631 L 198.706 49.9976 L 198.252 50.0783 L 197.904 50.3002 L 197.677 50.6532 L 197.602 51.1222 L 197.602 51.1575 L 198.051 51.1575 L 198.091 50.8348 L 198.222 50.6028 L 198.434 50.4616 L 198.731 50.4111 L 198.994 50.4515 L 199.185 50.5574 L 199.301 50.7289 L 199.347 50.9608 L 199.301 51.208 L 199.18 51.3744 L 198.968 51.4753 L 198.681 51.5055 L 198.484 51.5005 L 198.484 51.8989 L 198.731 51.8888 L 199.049 51.9342 L 199.286 52.0552 L 199.427 52.2519 L 199.478 52.5091 L 199.422 52.8016 L 199.276 53.0185 L 199.044 53.1546 L 198.736 53.2 L 198.419 53.1496 L 198.187 52.9983 L 198.04 52.7562 L 197.985 52.4234 L 197.521 52.4234 L 197.521 52.4234 z M 202.805 53.5228 L 203.259 53.5228 L 203.259 52.6554 L 203.758 52.6554 L 203.758 52.2519 L 203.259 52.2519 L 203.259 50.0984 L 202.8 50.0984 L 201.267 52.2116 L 201.267 52.6554 L 202.805 52.6554 L 202.805 53.5228 L 202.805 53.5228 z M 201.691 52.2519 L 202.805 50.6835 L 202.805 52.2519 L 201.691 52.2519 L 201.691 52.2519 z M 206.173 53.5228 L 206.632 53.5228 L 206.632 49.9976 L 206.289 49.9976 L 206.198 50.3052 L 206.017 50.512 L 205.739 50.633 L 205.356 50.6734 L 205.356 51.0314 L 206.173 51.0314 L 206.173 53.5228 L 206.173 53.5228 z M 209.652 53.5228 L 210.348 53.5228 L 210.348 52.7714 L 209.652 52.7714 L 209.652 53.5228 L 209.652 53.5228 z M 212.521 51.8131 L 212.596 52.6049 L 212.833 53.1698 L 213.212 53.5127 L 213.736 53.6237 L 214.255 53.5127 L 214.634 53.1698 L 214.866 52.6049 L 214.946 51.8131 L 214.866 51.0264 L 214.77 50.7137 L 214.634 50.4565 L 214.255 50.1136 L 213.736 49.9976 L 213.212 50.1136 L 212.833 50.4616 L 212.596 51.0264 L 212.521 51.8131 L 212.521 51.8131 z M 213.005 51.8131 L 213.045 51.2029 L 213.171 50.7642 L 213.398 50.5069 L 213.736 50.4162 L 214.069 50.5069 L 214.296 50.7642 L 214.422 51.2029 L 214.462 51.8131 L 214.422 52.4284 L 214.296 52.8672 L 214.069 53.1244 L 213.736 53.2101 L 213.398 53.1244 L 213.171 52.8672 L 213.045 52.4284 L 213.005 51.8131 L 213.005 51.8131 z M 216.242 53.5228 L 218.647 53.5228 L 218.647 53.0891 L 216.746 53.0891 L 216.852 52.8521 L 217.033 52.6554 L 217.593 52.2973 L 217.891 52.146 L 218.223 51.9291 L 218.461 51.677 L 218.597 51.3794 L 218.647 51.0415 L 218.561 50.6179 L 218.324 50.285 L 217.961 50.0732 L 217.492 49.9976 L 217.008 50.0833 L 216.64 50.3203 L 216.403 50.6986 L 216.322 51.1979 L 216.322 51.2685 L 216.781 51.2685 L 216.781 51.2281 L 216.827 50.8852 L 216.963 50.633 L 217.18 50.4716 L 217.467 50.4162 L 217.76 50.4666 L 217.976 50.5927 L 218.118 50.7894 L 218.168 51.0365 L 218.133 51.2685 L 218.037 51.4652 L 217.876 51.6366 L 217.654 51.7879 L 217.356 51.9493 L 216.862 52.262 L 216.514 52.5948 L 216.307 52.9983 L 216.242 53.5077 L 216.242 53.5228 L 216.242 53.5228 z M 220.507 53.5228 L 221.016 53.5228 L 221.183 52.6907 L 221.475 51.914 L 221.889 51.1928 L 222.429 50.517 L 222.429 50.0984 L 220.028 50.0984 L 220.028 50.5574 L 221.944 50.5574 L 221.39 51.2382 L 220.971 51.9493 L 220.679 52.7058 L 220.507 53.5228 L 220.507 53.5228 z" stroke="none" fill-rule="evenodd" fill="rgb(0, 0, 0)"/><path d="M 378.582 56.0404 L 380.514 55.5228 L 378.582 55.0052"/><path d="M 41.4182 55.0052 L 39.4864 55.5228 L 41.4182 56.0404"/><path d="M 39.4864 55.5228 L 380.514 55.5228"/></g><g stroke="rgb(0, 0, 0)" stroke-width="0.13" stroke-linecap="butt" stroke-linejoin="miter" fill="none"><path d="M 212.396 204.773 L 211.518 207.754 L 210.615 204.773 L 210.136 204.773 L 211.266 208.278 L 211.77 208.278 L 212.875 204.773 L 212.396 204.773 L 212.396 204.773 z M 215.598 205.57 L 215.154 205.57 L 215.154 207.133 L 215.104 207.496 L 214.957 207.759 L 214.731 207.92 L 214.433 207.971 L 214.196 207.93 L 214.045 207.809 L 213.959 207.602 L 213.939 207.31 L 213.939 205.57 L 213.495 205.57 L 213.495 207.35 L 213.51 207.708 L 213.606 208.006 L 213.898 208.278 L 214.367 208.374 L 214.62 208.339 L 214.836 208.248 L 215.023 208.092 L 215.174 207.865 L 215.174 208.278 L 215.598 208.278 L 215.598 205.57 L 215.598 205.57 z M 216.934 207.053 L 218.71 207.053 L 218.715 206.846 L 218.634 206.266 L 218.412 205.832 L 218.059 205.57 L 217.59 205.474 L 217.131 205.575 L 216.778 205.857 L 216.551 206.316 L 216.47 206.922 L 216.546 207.542 L 216.773 207.996 L 217.121 208.278 L 217.575 208.374 L 217.968 208.308 L 218.291 208.137 L 218.528 207.865 L 218.664 207.502 L 218.226 207.502 L 218.135 207.703 L 218.004 207.855 L 217.63 207.976 L 217.343 207.92 L 217.126 207.744 L 216.985 207.456 L 216.934 207.068 L 216.934 207.053 L 216.934 207.053 z M 216.934 206.679 L 216.99 206.331 L 217.126 206.074 L 217.333 205.918 L 217.605 205.862 L 217.872 205.918 L 218.079 206.074 L 218.205 206.331 L 218.251 206.679 L 216.934 206.679 L 216.934 206.679 z M 224.282 207.86 L 224.282 208.278 L 224.726 208.278 L 224.726 204.657 L 224.287 204.657 L 224.287 205.984 L 223.95 205.6 L 223.743 205.509 L 223.506 205.474 L 223.077 205.575 L 222.744 205.857 L 222.527 206.311 L 222.452 206.922 L 222.527 207.532 L 222.744 207.991 L 223.077 208.278 L 223.506 208.374 L 223.743 208.339 L 223.955 208.248 L 224.282 207.86 L 224.282 207.86 z M 223.581 205.873 L 223.874 205.943 L 224.096 206.14 L 224.227 206.468 L 224.277 206.922 L 224.227 207.38 L 224.096 207.708 L 223.874 207.91 L 223.581 207.976 L 223.304 207.91 L 223.092 207.708 L 222.951 207.375 L 222.906 206.922 L 222.951 206.473 L 223.092 206.145 L 223.304 205.943 L 223.581 205.873 L 223.581 205.873 z M 226.043 207.053 L 227.818 207.053 L 227.823 206.846 L 227.742 206.266 L 227.52 205.832 L 227.167 205.57 L 226.698 205.474 L 226.239 205.575 L 225.886 205.857 L 225.659 206.316 L 225.579 206.922 L 225.654 207.542 L 225.881 207.996 L 226.229 208.278 L 226.683 208.374 L 227.076 208.308 L 227.399 208.137 L 227.636 207.865 L 227.772 207.502 L 227.334 207.502 L 227.243 207.703 L 227.112 207.855 L 226.738 207.976 L 226.451 207.92 L 226.234 207.744 L 226.093 207.456 L 226.043 207.068 L 226.043 207.053 L 226.043 207.053 z M 226.043 206.679 L 226.098 206.331 L 226.234 206.074 L 226.441 205.918 L 226.713 205.862 L 226.981 205.918 L 227.187 206.074 L 227.313 206.331 L 227.359 206.679 L 226.043 206.679 L 226.043 206.679 z M 232.342 206.039 L 232.342 208.278 L 232.785 208.278 L 232.785 206.039 L 233.794 206.039 L 233.794 205.661 L 232.785 205.661 L 232.785 205.494 L 232.821 205.293 L 232.937 205.156 L 233.133 205.076 L 233.416 205.045 L 233.794 205.066 L 233.794 204.682 L 233.315 204.657 L 232.881 204.703 L 232.579 204.839 L 232.397 205.076 L 232.342 205.414 L 232.342 205.661 L 231.53 205.661 L 231.53 206.039 L 232.342 206.039 L 232.342 206.039 z M 236.371 207.925 L 236.371 207.94 L 236.396 208.112 L 236.472 208.233 L 236.79 208.329 L 237.037 208.288 L 237.037 207.945 L 236.931 207.96 L 236.79 207.895 L 236.764 207.693 L 236.764 206.291 L 236.704 205.933 L 236.527 205.681 L 236.22 205.53 L 235.786 205.474 L 235.362 205.535 L 235.05 205.706 L 234.853 205.973 L 234.787 206.326 L 234.787 206.357 L 235.186 206.357 L 235.221 206.145 L 235.332 205.994 L 235.514 205.903 L 235.771 205.868 L 236.018 205.893 L 236.195 205.968 L 236.3 206.1 L 236.336 206.281 L 236.316 206.493 L 236.235 206.599 L 236.033 206.649 L 235.655 206.69 L 235.221 206.78 L 234.914 206.942 L 234.732 207.194 L 234.677 207.567 L 234.727 207.9 L 234.883 208.147 L 235.135 208.303 L 235.483 208.359 L 235.952 208.253 L 236.371 207.925 L 236.371 207.925 z M 236.321 207.33 L 236.26 207.592 L 236.099 207.794 L 235.857 207.925 L 235.559 207.971 L 235.367 207.945 L 235.231 207.865 L 235.146 207.723 L 235.12 207.527 L 235.141 207.35 L 235.221 207.224 L 235.544 207.083 L 235.952 207.022 L 236.321 206.901 L 236.321 207.33 L 236.321 207.33 z M 239.523 206.468 L 239.962 206.468 L 239.871 206.064 L 239.654 205.746 L 239.316 205.55 L 238.878 205.474 L 238.393 205.575 L 238.025 205.857 L 237.793 206.316 L 237.713 206.932 L 237.788 207.542 L 238.015 207.996 L 238.373 208.278 L 238.862 208.374 L 239.296 208.298 L 239.634 208.087 L 239.866 207.754 L 239.967 207.31 L 239.543 207.31 L 239.468 207.592 L 239.326 207.804 L 239.125 207.935 L 238.878 207.976 L 238.57 207.91 L 238.348 207.708 L 238.212 207.38 L 238.166 206.917 L 238.212 206.463 L 238.353 206.135 L 238.58 205.933 L 238.878 205.862 L 239.14 205.908 L 239.336 206.024 L 239.468 206.215 L 239.523 206.468 L 239.523 206.468 z M 241.223 207.053 L 242.998 207.053 L 243.003 206.846 L 242.922 206.266 L 242.7 205.832 L 242.347 205.57 L 241.878 205.474 L 241.419 205.575 L 241.066 205.857 L 240.839 206.316 L 240.759 206.922 L 240.834 207.542 L 241.061 207.996 L 241.409 208.278 L 241.863 208.374 L 242.257 208.308 L 242.579 208.137 L 242.816 207.865 L 242.952 207.502 L 242.514 207.502 L 242.423 207.703 L 242.292 207.855 L 241.919 207.976 L 241.631 207.92 L 241.414 207.744 L 241.273 207.456 L 241.223 207.068 L 241.223 207.053 L 241.223 207.053 z M 241.223 206.679 L 241.278 206.331 L 241.414 206.074 L 241.621 205.918 L 241.893 205.862 L 242.161 205.918 L 242.367 206.074 L 242.494 206.331 L 242.539 206.679 L 241.223 206.679 L 241.223 206.679 z" stroke="none" fill-rule="evenodd" fill="rgb(0, 0, 0)"/></g><g stroke="rgb(0, 0, 0)" stroke-width="0.13" stroke-linecap="butt" stroke-linejoin="miter" fill="none"><path d="M 210.459 214.325 L 212.678 214.325 L 212.678 213.901 L 210.923 213.901 L 210.923 212.716 L 212.486 212.716 L 212.486 212.298 L 210.923 212.298 L 210.923 211.249 L 212.638 211.249 L 212.638 210.825 L 210.459 210.825 L 210.459 214.325 L 210.459 214.325 z M 215.235 212.514 L 215.674 212.514 L 215.583 212.111 L 215.366 211.793 L 215.028 211.597 L 214.589 211.521 L 214.105 211.622 L 213.737 211.904 L 213.505 212.363 L 213.424 212.978 L 213.5 213.589 L 213.727 214.043 L 214.085 214.325 L 214.574 214.421 L 215.008 214.345 L 215.346 214.133 L 215.578 213.801 L 215.679 213.357 L 215.255 213.357 L 215.179 213.639 L 215.038 213.851 L 214.836 213.982 L 214.589 214.022 L 214.282 213.957 L 214.06 213.755 L 213.924 213.427 L 213.878 212.963 L 213.924 212.509 L 214.065 212.182 L 214.292 211.98 L 214.589 211.909 L 214.852 211.955 L 215.048 212.071 L 215.179 212.262 L 215.235 212.514 L 215.235 212.514 z M 216.546 214.325 L 216.99 214.325 L 216.99 212.762 L 217.035 212.404 L 217.182 212.141 L 217.409 211.98 L 217.711 211.919 L 217.953 211.97 L 218.104 212.106 L 218.18 212.333 L 218.205 212.636 L 218.205 214.325 L 218.649 214.325 L 218.649 212.545 L 218.629 212.187 L 218.538 211.889 L 218.241 211.617 L 217.777 211.521 L 217.525 211.556 L 217.308 211.652 L 217.126 211.803 L 216.99 212.01 L 216.99 210.704 L 216.546 210.704 L 216.546 214.325 L 216.546 214.325 z M 219.97 213.1 L 221.746 213.1 L 221.751 212.893 L 221.67 212.313 L 221.448 211.879 L 221.095 211.617 L 220.626 211.521 L 220.167 211.622 L 219.814 211.904 L 219.587 212.363 L 219.507 212.968 L 219.582 213.589 L 219.809 214.043 L 220.157 214.325 L 220.611 214.421 L 221.004 214.355 L 221.327 214.184 L 221.564 213.911 L 221.7 213.548 L 221.262 213.548 L 221.171 213.75 L 221.04 213.901 L 220.666 214.022 L 220.379 213.967 L 220.162 213.79 L 220.021 213.503 L 219.97 213.115 L 219.97 213.1 L 219.97 213.1 z M 219.97 212.726 L 220.026 212.378 L 220.162 212.121 L 220.369 211.965 L 220.641 211.909 L 220.909 211.965 L 221.115 212.121 L 221.241 212.378 L 221.287 212.726 L 219.97 212.726 L 219.97 212.726 z M 223.501 211.077 L 223.501 213.952 L 222.588 213.952 L 222.588 214.325 L 224.852 214.325 L 224.852 213.952 L 223.945 213.952 L 223.945 210.704 L 222.805 210.704 L 222.805 211.077 L 223.501 211.077 L 223.501 211.077 z M 226.537 211.077 L 226.537 213.952 L 225.624 213.952 L 225.624 214.325 L 227.888 214.325 L 227.888 213.952 L 226.981 213.952 L 226.981 210.704 L 225.841 210.704 L 225.841 211.077 L 226.537 211.077 L 226.537 211.077 z M 229.079 213.1 L 230.854 213.1 L 230.859 212.893 L 230.778 212.313 L 230.556 211.879 L 230.203 211.617 L 229.734 211.521 L 229.275 211.622 L 228.922 211.904 L 228.695 212.363 L 228.615 212.968 L 228.69 213.589 L 228.917 214.043 L 229.265 214.325 L 229.719 214.421 L 230.112 214.355 L 230.435 214.184 L 230.672 213.911 L 230.808 213.548 L 230.37 213.548 L 230.279 213.75 L 230.148 213.901 L 229.775 214.022 L 229.487 213.967 L 229.27 213.79 L 229.129 213.503 L 229.079 213.115 L 229.079 213.1 L 229.079 213.1 z M 229.079 212.726 L 229.134 212.378 L 229.27 212.121 L 229.477 211.965 L 229.749 211.909 L 230.017 211.965 L 230.223 212.121 L 230.349 212.378 L 230.395 212.726 L 229.079 212.726 L 229.079 212.726 z M 235.458 214.325 L 236.154 214.325 L 236.154 213.574 L 235.458 213.574 L 235.458 214.325 L 235.458 214.325 z M 235.458 212.368 L 236.154 212.368 L 236.154 211.617 L 235.458 211.617 L 235.458 212.368 L 235.458 212.368 z" stroke="none" fill-rule="evenodd" fill="rgb(0, 0, 0)"/></g><g stroke="rgb(0, 0, 0)" stroke-width="0.13" stroke-linecap="butt" stroke-linejoin="miter" fill="none"><path d="M 244.823 214.325 L 245.282 214.325 L 245.282 210.8 L 244.939 210.8 L 244.849 211.107 L 244.667 211.314 L 244.39 211.435 L 244.006 211.476 L 244.006 211.834 L 244.823 211.834 L 244.823 214.325 L 244.823 214.325 z M 247.602 214.325 L 248.298 214.325 L 248.298 213.574 L 247.602 213.574 L 247.602 214.325 L 247.602 214.325 z M 247.602 212.368 L 248.298 212.368 L 248.298 211.617 L 247.602 211.617 L 247.602 212.368 L 247.602 212.368 z M 250.896 214.325 L 251.354 214.325 L 251.354 210.8 L 251.012 210.8 L 250.921 211.107 L 250.739 211.314 L 250.462 211.435 L 250.079 211.476 L 250.079 211.834 L 250.896 211.834 L 250.896 214.325 L 250.896 214.325 z" stroke="none" fill-rule="evenodd" fill="rgb(0, 0, 0)"/></g></svg>