<?xml version="1.0" encoding="utf-8" ?><!DOCTYPE svg PUBLIC "-//W3C//DTD SVG 1.1//EN" "http://www.w3.org/Graphics/SVG/1.1/DTD/svg11.dtd" 
[ <!ATTLIST svg 
  xmlns:dsy CDATA #FIXED "http://www.3ds.com/print"  
    dsy:text-version CDATA #IMPLIED > 

  <!ATTLIST text 
  xmlns:dsy CDATA #FIXED "http://www.3ds.com/print" 
    dsy:text-version CDATA #IMPLIED > 
]><svg xmlns="http://www.w3.org/2000/svg" xmlns:dsy="http://www.3ds.com/print" dsy:text-version="18000" width="420" height="297" viewBox="0 0 420 297" version="1.1"><g stroke="rgb(0, 0, 0)" stroke-width="0.13" stroke-linecap="butt" stroke-linejoin="miter" fill="none"><path d="M 49.7426 133.449 L 49.7426 51.7588"/><path d="M 370.257 89.8145 L 370.257 51.7588"/></g><g stroke="rgb(0, 0, 0)" stroke-width="0.35" stroke-linecap="butt" stroke-linejoin="miter" fill="none"><path d="M 71.7047 188.875 L 61.7961 190.224"/><path d="M 109.843 167.622 L 109.743 167.649"/><path d="M 109.843 147.465 L 109.843 167.622"/><path d="M 109.743 167.649 L 94.3314 169.748"/><path d="M 310.129 120.988 L 310.129 140.383"/><path d="M 310.129 140.383 L 310.229 140.356"/><path d="M 325.64 138.258 L 310.229 140.356"/><path d="M 336.898 146.817 A 10 10 0 0 0 325.64 138.258"/><path d="M 339.731 167.625 L 336.898 146.817"/><path d="M 364.502 164.253 L 339.731 167.625"/><path d="M 362.479 149.39 L 364.502 164.253"/><path d="M 352.57 150.739 L 362.479 149.39"/><path d="M 351.761 144.794 L 352.57 150.739"/><path d="M 351.761 144.794 L 361.669 143.445"/><path d="M 361.669 143.445 L 360.321 133.536"/><path d="M 370.257 122.187 A 10 10 0 0 0 360.321 133.536"/><path d="M 370.257 91.8145 L 370.257 122.187"/><path d="M 49.7426 135.449 L 370.257 91.8145"/><path d="M 49.7426 165.818 L 49.7426 135.449"/><path d="M 59.6512 174.469 A 10 10 0 0 0 49.7426 165.818"/><path d="M 59.6513 174.469 L 61.0002 184.377"/><path d="M 61.0002 184.377 L 70.9088 183.029"/><path d="M 70.9088 183.029 L 71.7047 188.875"/><path d="M 88.6045 201.813 L 85.7717 181.005"/><path d="M 94.3314 169.748 A 10 10 0 0 0 85.7717 181.005"/><path d="M 109.843 147.465 L 115.743 147.465"/><path d="M 115.743 147.465 L 115.743 166.833"/><path d="M 304.229 141.172 L 115.743 166.833"/><path d="M 304.229 141.172 L 304.229 120.988"/><path d="M 304.229 120.988 L 310.129 120.988"/><path d="M 61.7961 190.224 L 63.833 205.186"/><path d="M 63.833 205.186 L 88.6045 201.813"/></g><g stroke="rgb(0, 0, 0)" stroke-width="0.13" stroke-linecap="butt" stroke-linejoin="miter" fill="none"><path d="M 197.521 50.6593 L 197.521 50.6947 L 197.602 51.1788 L 197.839 51.5419 L 198.212 51.7739 L 198.706 51.8596 L 199.231 51.7739 L 199.624 51.552 L 199.876 51.199 L 199.967 50.7451 L 199.927 50.4475 L 199.816 50.2055 L 199.634 50.0189 L 199.392 49.8827 L 199.72 49.6104 L 199.836 49.1766 L 199.76 48.7833 L 199.543 48.4857 L 199.19 48.2991 L 198.706 48.2336 L 198.252 48.3142 L 197.904 48.5361 L 197.677 48.8892 L 197.602 49.3582 L 197.602 49.3935 L 198.051 49.3935 L 198.091 49.0707 L 198.222 48.8387 L 198.434 48.6975 L 198.731 48.6471 L 198.994 48.6874 L 199.185 48.7934 L 199.301 48.9648 L 199.347 49.1968 L 199.301 49.4439 L 199.18 49.6104 L 198.968 49.7112 L 198.681 49.7415 L 198.484 49.7364 L 198.484 50.1349 L 198.731 50.1248 L 199.049 50.1702 L 199.286 50.2912 L 199.427 50.4879 L 199.478 50.7451 L 199.422 51.0376 L 199.276 51.2545 L 199.044 51.3906 L 198.736 51.436 L 198.419 51.3856 L 198.187 51.2343 L 198.04 50.9922 L 197.985 50.6593 L 197.521 50.6593 L 197.521 50.6593 z M 201.297 51.7588 L 203.703 51.7588 L 203.703 51.3251 L 201.802 51.3251 L 201.908 51.088 L 202.089 50.8913 L 202.649 50.5333 L 202.947 50.382 L 203.279 50.1651 L 203.516 49.9129 L 203.653 49.6154 L 203.703 49.2775 L 203.617 48.8539 L 203.38 48.521 L 203.017 48.3092 L 202.548 48.2336 L 202.064 48.3193 L 201.696 48.5563 L 201.459 48.9346 L 201.378 49.4338 L 201.378 49.5044 L 201.837 49.5044 L 201.837 49.4641 L 201.882 49.1212 L 202.019 48.869 L 202.235 48.7076 L 202.523 48.6521 L 202.815 48.7026 L 203.032 48.8287 L 203.173 49.0253 L 203.224 49.2725 L 203.189 49.5044 L 203.093 49.7011 L 202.931 49.8726 L 202.709 50.0239 L 202.412 50.1853 L 201.918 50.498 L 201.57 50.8308 L 201.363 51.2343 L 201.297 51.7436 L 201.297 51.7588 L 201.297 51.7588 z M 205.049 50.0491 L 205.124 50.8409 L 205.361 51.4057 L 205.739 51.7487 L 206.264 51.8596 L 206.783 51.7487 L 207.162 51.4057 L 207.394 50.8409 L 207.474 50.0491 L 207.394 49.2624 L 207.298 48.9497 L 207.162 48.6925 L 206.783 48.3495 L 206.264 48.2336 L 205.739 48.3495 L 205.361 48.6975 L 205.124 49.2624 L 205.049 50.0491 L 205.049 50.0491 z M 205.533 50.0491 L 205.573 49.4389 L 205.699 49.0001 L 205.926 48.7429 L 206.264 48.6521 L 206.597 48.7429 L 206.824 49.0001 L 206.95 49.4389 L 206.99 50.0491 L 206.95 50.6644 L 206.824 51.1031 L 206.597 51.3604 L 206.264 51.4461 L 205.926 51.3604 L 205.699 51.1031 L 205.573 50.6644 L 205.533 50.0491 L 205.533 50.0491 z M 209.652 51.7588 L 210.348 51.7588 L 210.348 51.0073 L 209.652 51.0073 L 209.652 51.7588 L 209.652 51.7588 z M 212.485 50.8459 L 212.596 51.2595 L 212.843 51.5823 L 213.206 51.784 L 213.67 51.8596 L 214.18 51.7689 L 214.578 51.5217 L 214.83 51.1284 L 214.926 50.624 L 214.84 50.155 L 214.598 49.7869 L 214.22 49.5498 L 213.731 49.4641 L 213.353 49.5246 L 213.06 49.691 L 213.201 48.748 L 214.735 48.748 L 214.735 48.3344 L 212.864 48.3344 L 212.586 50.1903 L 212.99 50.1903 L 213.282 49.9533 L 213.655 49.8676 L 213.978 49.923 L 214.225 50.0844 L 214.382 50.3315 L 214.437 50.6493 L 214.382 50.967 L 214.22 51.2141 L 213.973 51.3704 L 213.655 51.4259 L 213.388 51.3906 L 213.181 51.2746 L 213.03 51.0931 L 212.954 50.8459 L 212.485 50.8459 L 212.485 50.8459 z M 217.381 51.7588 L 217.84 51.7588 L 217.84 48.2336 L 217.497 48.2336 L 217.407 48.5412 L 217.225 48.748 L 216.948 48.869 L 216.564 48.9093 L 216.564 49.2674 L 217.381 49.2674 L 217.381 51.7588 L 217.381 51.7588 z M 219.957 50.8459 L 220.068 51.2595 L 220.315 51.5823 L 220.679 51.784 L 221.143 51.8596 L 221.652 51.7689 L 222.05 51.5217 L 222.302 51.1284 L 222.398 50.624 L 222.313 50.155 L 222.07 49.7869 L 221.692 49.5498 L 221.203 49.4641 L 220.825 49.5246 L 220.532 49.691 L 220.674 48.748 L 222.207 48.748 L 222.207 48.3344 L 220.336 48.3344 L 220.058 50.1903 L 220.462 50.1903 L 220.754 49.9533 L 221.127 49.8676 L 221.45 49.923 L 221.697 50.0844 L 221.854 50.3315 L 221.909 50.6493 L 221.854 50.967 L 221.692 51.2141 L 221.445 51.3704 L 221.127 51.4259 L 220.86 51.3906 L 220.653 51.2746 L 220.502 51.0931 L 220.426 50.8459 L 219.957 50.8459 L 219.957 50.8459 z" stroke="none" fill-rule="evenodd" fill="rgb(0, 0, 0)"/><path d="M 368.325 54.2764 L 370.257 53.7588 L 368.325 53.2411"/><path d="M 51.6745 53.2411 L 49.7426 53.7588 L 51.6745 54.2764"/><path d="M 49.7426 53.7588 L 370.257 53.7588"/></g><g stroke="rgb(0, 0, 0)" stroke-width="0.13" stroke-linecap="butt" stroke-linejoin="miter" fill="none"><path d="M 212.396 213.537 L 211.518 216.518 L 210.615 213.537 L 210.136 213.537 L 211.266 217.042 L 211.77 217.042 L 212.875 213.537 L 212.396 213.537 L 212.396 213.537 z M 215.598 214.334 L 215.154 214.334 L 215.154 215.897 L 215.104 216.26 L 214.957 216.523 L 214.731 216.684 L 214.433 216.734 L 214.196 216.694 L 214.045 216.573 L 213.959 216.366 L 213.939 216.074 L 213.939 214.334 L 213.495 214.334 L 213.495 216.114 L 213.51 216.472 L 213.606 216.77 L 213.898 217.042 L 214.367 217.138 L 214.62 217.103 L 214.836 217.012 L 215.023 216.856 L 215.174 216.629 L 215.174 217.042 L 215.598 217.042 L 215.598 214.334 L 215.598 214.334 z M 216.934 215.817 L 218.71 215.817 L 218.715 215.61 L 218.634 215.03 L 218.412 214.596 L 218.059 214.334 L 217.59 214.238 L 217.131 214.339 L 216.778 214.621 L 216.551 215.08 L 216.47 215.686 L 216.546 216.306 L 216.773 216.76 L 217.121 217.042 L 217.575 217.138 L 217.968 217.072 L 218.291 216.901 L 218.528 216.629 L 218.664 216.265 L 218.225 216.265 L 218.135 216.467 L 218.004 216.619 L 217.63 216.74 L 217.343 216.684 L 217.126 216.508 L 216.985 216.22 L 216.934 215.832 L 216.934 215.817 L 216.934 215.817 z M 216.934 215.443 L 216.99 215.095 L 217.126 214.838 L 217.333 214.682 L 217.605 214.626 L 217.872 214.682 L 218.079 214.838 L 218.205 215.095 L 218.251 215.443 L 216.934 215.443 L 216.934 215.443 z M 224.282 216.624 L 224.282 217.042 L 224.726 217.042 L 224.726 213.421 L 224.287 213.421 L 224.287 214.747 L 223.95 214.364 L 223.743 214.273 L 223.506 214.238 L 223.077 214.339 L 222.744 214.621 L 222.527 215.075 L 222.452 215.686 L 222.527 216.296 L 222.744 216.755 L 223.077 217.042 L 223.506 217.138 L 223.743 217.103 L 223.955 217.012 L 224.282 216.624 L 224.282 216.624 z M 223.581 214.637 L 223.874 214.707 L 224.096 214.904 L 224.227 215.232 L 224.277 215.686 L 224.227 216.144 L 224.096 216.472 L 223.874 216.674 L 223.581 216.74 L 223.304 216.674 L 223.092 216.472 L 222.951 216.139 L 222.906 215.686 L 222.951 215.237 L 223.092 214.909 L 223.304 214.707 L 223.581 214.637 L 223.581 214.637 z M 226.042 215.817 L 227.818 215.817 L 227.823 215.61 L 227.742 215.03 L 227.52 214.596 L 227.167 214.334 L 226.698 214.238 L 226.239 214.339 L 225.886 214.621 L 225.659 215.08 L 225.579 215.686 L 225.654 216.306 L 225.881 216.76 L 226.229 217.042 L 226.683 217.138 L 227.076 217.072 L 227.399 216.901 L 227.636 216.629 L 227.772 216.265 L 227.334 216.265 L 227.243 216.467 L 227.112 216.619 L 226.738 216.74 L 226.451 216.684 L 226.234 216.508 L 226.093 216.22 L 226.042 215.832 L 226.042 215.817 L 226.042 215.817 z M 226.042 215.443 L 226.098 215.095 L 226.234 214.838 L 226.441 214.682 L 226.713 214.626 L 226.981 214.682 L 227.187 214.838 L 227.313 215.095 L 227.359 215.443 L 226.042 215.443 L 226.042 215.443 z M 232.341 214.803 L 232.341 217.042 L 232.785 217.042 L 232.785 214.803 L 233.794 214.803 L 233.794 214.425 L 232.785 214.425 L 232.785 214.258 L 232.821 214.057 L 232.937 213.92 L 233.133 213.84 L 233.416 213.809 L 233.794 213.83 L 233.794 213.446 L 233.315 213.421 L 232.881 213.466 L 232.579 213.603 L 232.397 213.84 L 232.341 214.178 L 232.341 214.425 L 231.53 214.425 L 231.53 214.803 L 232.341 214.803 L 232.341 214.803 z M 236.371 216.689 L 236.371 216.704 L 236.396 216.876 L 236.472 216.997 L 236.79 217.093 L 237.037 217.052 L 237.037 216.709 L 236.931 216.724 L 236.79 216.659 L 236.764 216.457 L 236.764 215.055 L 236.704 214.697 L 236.527 214.445 L 236.22 214.294 L 235.786 214.238 L 235.362 214.299 L 235.05 214.47 L 234.853 214.737 L 234.787 215.09 L 234.787 215.121 L 235.186 215.121 L 235.221 214.909 L 235.332 214.758 L 235.514 214.667 L 235.771 214.631 L 236.018 214.657 L 236.195 214.732 L 236.3 214.863 L 236.336 215.045 L 236.316 215.257 L 236.235 215.363 L 236.033 215.413 L 235.655 215.454 L 235.221 215.544 L 234.914 215.706 L 234.732 215.958 L 234.676 216.331 L 234.727 216.664 L 234.883 216.911 L 235.135 217.067 L 235.483 217.123 L 235.952 217.017 L 236.371 216.689 L 236.371 216.689 z M 236.321 216.094 L 236.26 216.356 L 236.099 216.558 L 235.857 216.689 L 235.559 216.734 L 235.367 216.709 L 235.231 216.629 L 235.146 216.487 L 235.12 216.291 L 235.14 216.114 L 235.221 215.988 L 235.544 215.847 L 235.952 215.786 L 236.321 215.665 L 236.321 216.094 L 236.321 216.094 z M 239.523 215.232 L 239.962 215.232 L 239.871 214.828 L 239.654 214.51 L 239.316 214.314 L 238.878 214.238 L 238.393 214.339 L 238.025 214.621 L 237.793 215.08 L 237.713 215.696 L 237.788 216.306 L 238.015 216.76 L 238.373 217.042 L 238.862 217.138 L 239.296 217.062 L 239.634 216.85 L 239.866 216.518 L 239.967 216.074 L 239.543 216.074 L 239.468 216.356 L 239.326 216.568 L 239.125 216.699 L 238.878 216.74 L 238.57 216.674 L 238.348 216.472 L 238.212 216.144 L 238.166 215.68 L 238.212 215.227 L 238.353 214.899 L 238.58 214.697 L 238.878 214.626 L 239.14 214.672 L 239.336 214.788 L 239.468 214.979 L 239.523 215.232 L 239.523 215.232 z M 241.223 215.817 L 242.998 215.817 L 243.003 215.61 L 242.922 215.03 L 242.7 214.596 L 242.347 214.334 L 241.878 214.238 L 241.419 214.339 L 241.066 214.621 L 240.839 215.08 L 240.759 215.686 L 240.834 216.306 L 241.061 216.76 L 241.409 217.042 L 241.863 217.138 L 242.256 217.072 L 242.579 216.901 L 242.816 216.629 L 242.952 216.265 L 242.514 216.265 L 242.423 216.467 L 242.292 216.619 L 241.919 216.74 L 241.631 216.684 L 241.414 216.508 L 241.273 216.22 L 241.223 215.832 L 241.223 215.817 L 241.223 215.817 z M 241.223 215.443 L 241.278 215.095 L 241.414 214.838 L 241.621 214.682 L 241.893 214.626 L 242.161 214.682 L 242.367 214.838 L 242.494 215.095 L 242.539 215.443 L 241.223 215.443 L 241.223 215.443 z" stroke="none" fill-rule="evenodd" fill="rgb(0, 0, 0)"/></g><g stroke="rgb(0, 0, 0)" stroke-width="0.13" stroke-linecap="butt" stroke-linejoin="miter" fill="none"><path d="M 210.459 223.089 L 212.678 223.089 L 212.678 222.665 L 210.923 222.665 L 210.923 221.48 L 212.486 221.48 L 212.486 221.062 L 210.923 221.062 L 210.923 220.013 L 212.638 220.013 L 212.638 219.589 L 210.459 219.589 L 210.459 223.089 L 210.459 223.089 z M 215.235 221.278 L 215.674 221.278 L 215.583 220.875 L 215.366 220.557 L 215.028 220.361 L 214.589 220.285 L 214.105 220.386 L 213.737 220.668 L 213.505 221.127 L 213.424 221.742 L 213.5 222.353 L 213.727 222.807 L 214.085 223.089 L 214.574 223.185 L 215.008 223.109 L 215.346 222.897 L 215.578 222.564 L 215.679 222.121 L 215.255 222.121 L 215.179 222.403 L 215.038 222.615 L 214.836 222.746 L 214.589 222.786 L 214.282 222.721 L 214.06 222.519 L 213.924 222.191 L 213.878 221.727 L 213.924 221.273 L 214.065 220.946 L 214.292 220.744 L 214.589 220.673 L 214.852 220.719 L 215.048 220.835 L 215.179 221.026 L 215.235 221.278 L 215.235 221.278 z M 216.546 223.089 L 216.99 223.089 L 216.99 221.526 L 217.035 221.167 L 217.182 220.905 L 217.408 220.744 L 217.711 220.683 L 217.953 220.734 L 218.104 220.87 L 218.18 221.097 L 218.205 221.399 L 218.205 223.089 L 218.649 223.089 L 218.649 221.309 L 218.629 220.951 L 218.538 220.653 L 218.241 220.381 L 217.777 220.285 L 217.524 220.32 L 217.308 220.416 L 217.126 220.567 L 216.99 220.774 L 216.99 219.468 L 216.546 219.468 L 216.546 223.089 L 216.546 223.089 z M 219.97 221.863 L 221.746 221.863 L 221.751 221.657 L 221.67 221.077 L 221.448 220.643 L 221.095 220.381 L 220.626 220.285 L 220.167 220.386 L 219.814 220.668 L 219.587 221.127 L 219.506 221.732 L 219.582 222.353 L 219.809 222.807 L 220.157 223.089 L 220.611 223.185 L 221.004 223.119 L 221.327 222.948 L 221.564 222.675 L 221.7 222.312 L 221.262 222.312 L 221.171 222.514 L 221.04 222.665 L 220.666 222.786 L 220.379 222.731 L 220.162 222.554 L 220.021 222.267 L 219.97 221.879 L 219.97 221.863 L 219.97 221.863 z M 219.97 221.49 L 220.026 221.142 L 220.162 220.885 L 220.369 220.729 L 220.641 220.673 L 220.908 220.729 L 221.115 220.885 L 221.241 221.142 L 221.287 221.49 L 219.97 221.49 L 219.97 221.49 z M 223.501 219.841 L 223.501 222.716 L 222.588 222.716 L 222.588 223.089 L 224.852 223.089 L 224.852 222.716 L 223.945 222.716 L 223.945 219.468 L 222.805 219.468 L 222.805 219.841 L 223.501 219.841 L 223.501 219.841 z M 226.537 219.841 L 226.537 222.716 L 225.624 222.716 L 225.624 223.089 L 227.888 223.089 L 227.888 222.716 L 226.981 222.716 L 226.981 219.468 L 225.841 219.468 L 225.841 219.841 L 226.537 219.841 L 226.537 219.841 z M 229.079 221.863 L 230.854 221.863 L 230.859 221.657 L 230.778 221.077 L 230.556 220.643 L 230.203 220.381 L 229.734 220.285 L 229.275 220.386 L 228.922 220.668 L 228.695 221.127 L 228.615 221.732 L 228.69 222.353 L 228.917 222.807 L 229.265 223.089 L 229.719 223.185 L 230.112 223.119 L 230.435 222.948 L 230.672 222.675 L 230.808 222.312 L 230.37 222.312 L 230.279 222.514 L 230.148 222.665 L 229.774 222.786 L 229.487 222.731 L 229.27 222.554 L 229.129 222.267 L 229.079 221.879 L 229.079 221.863 L 229.079 221.863 z M 229.079 221.49 L 229.134 221.142 L 229.27 220.885 L 229.477 220.729 L 229.749 220.673 L 230.017 220.729 L 230.223 220.885 L 230.349 221.142 L 230.395 221.49 L 229.079 221.49 L 229.079 221.49 z M 235.458 223.089 L 236.154 223.089 L 236.154 222.338 L 235.458 222.338 L 235.458 223.089 L 235.458 223.089 z M 235.458 221.132 L 236.154 221.132 L 236.154 220.381 L 235.458 220.381 L 235.458 221.132 L 235.458 221.132 z" stroke="none" fill-rule="evenodd" fill="rgb(0, 0, 0)"/></g><g stroke="rgb(0, 0, 0)" stroke-width="0.13" stroke-linecap="butt" stroke-linejoin="miter" fill="none"><path d="M 244.823 223.089 L 245.282 223.089 L 245.282 219.564 L 244.939 219.564 L 244.849 219.871 L 244.667 220.078 L 244.39 220.199 L 244.006 220.24 L 244.006 220.598 L 244.823 220.598 L 244.823 223.089 L 244.823 223.089 z M 247.602 223.089 L 248.298 223.089 L 248.298 222.338 L 247.602 222.338 L 247.602 223.089 L 247.602 223.089 z M 247.602 221.132 L 248.298 221.132 L 248.298 220.381 L 247.602 220.381 L 247.602 221.132 L 247.602 221.132 z M 250.896 223.089 L 251.354 223.089 L 251.354 219.564 L 251.012 219.564 L 250.921 219.871 L 250.739 220.078 L 250.462 220.199 L 250.079 220.24 L 250.079 220.598 L 250.896 220.598 L 250.896 223.089 L 250.896 223.089 z" stroke="none" fill-rule="evenodd" fill="rgb(0, 0, 0)"/></g></svg>