<?xml version="1.0" encoding="utf-8" ?><!DOCTYPE svg PUBLIC "-//W3C//DTD SVG 1.1//EN" "http://www.w3.org/Graphics/SVG/1.1/DTD/svg11.dtd" 
[ <!ATTLIST svg 
  xmlns:dsy CDATA #FIXED "http://www.3ds.com/print"  
    dsy:text-version CDATA #IMPLIED > 

  <!ATTLIST text 
  xmlns:dsy CDATA #FIXED "http://www.3ds.com/print" 
    dsy:text-version CDATA #IMPLIED > 
]><svg xmlns="http://www.w3.org/2000/svg" xmlns:dsy="http://www.3ds.com/print" dsy:text-version="18000" width="420" height="297" viewBox="0 0 420 297" version="1.1"><g stroke="rgb(0, 0, 0)" stroke-width="0.13" stroke-linecap="butt" stroke-linejoin="miter" fill="none"><path d="M 113.498 170.502 L 113.498 235.677"/><path d="M 306.498 170.502 L 306.498 235.677"/></g><g stroke="rgb(0, 0, 0)" stroke-width="0.35" stroke-linecap="butt" stroke-linejoin="miter" fill="none"><path d="M 306.502 128.498 L 291.502 128.498"/><path d="M 306.498 128.502 L 291.498 128.502"/><path d="M 291.498 128.502 L 291.498 143.502"/><path d="M 291.502 143.498 L 285.502 143.498"/><path d="M 291.498 143.502 L 285.498 143.502"/><path d="M 285.502 143.498 L 285.502 128.498"/><path d="M 285.498 143.502 L 285.498 128.502"/><path d="M 285.502 128.498 L 250.502 128.498"/><path d="M 285.498 128.502 L 250.498 128.502"/><path d="M 250.498 128.502 L 250.498 143.502"/><path d="M 250.502 143.498 L 244.502 143.498"/><path d="M 250.498 143.502 L 244.498 143.502"/><path d="M 244.502 143.498 L 244.502 128.498"/><path d="M 244.498 143.502 L 244.498 128.502"/><path d="M 244.502 128.498 L 175.502 128.498"/><path d="M 244.498 128.502 L 175.498 128.502"/><path d="M 175.498 128.502 L 175.498 143.502"/><path d="M 175.502 143.498 L 169.502 143.498"/><path d="M 175.498 143.502 L 169.498 143.502"/><path d="M 169.502 143.498 L 169.502 128.498"/><path d="M 169.498 143.502 L 169.498 128.502"/><path d="M 169.502 128.498 L 134.502 128.498"/><path d="M 169.498 128.502 L 134.498 128.502"/><path d="M 134.498 128.502 L 134.498 143.502"/><path d="M 134.502 143.498 L 128.502 143.498"/><path d="M 134.498 143.502 L 128.498 143.502"/><path d="M 128.502 143.498 L 128.502 128.498"/><path d="M 128.498 143.502 L 128.498 128.502"/><path d="M 128.502 128.498 L 113.502 128.498"/><path d="M 128.498 128.502 L 113.498 128.502"/><path d="M 113.498 128.502 L 113.498 168.502"/><path d="M 306.498 168.502 L 113.498 168.502"/><path d="M 306.502 128.498 L 306.502 168.498"/><path d="M 306.498 128.502 L 306.498 168.502"/></g><g stroke="rgb(0, 0, 0)" stroke-width="0.13" stroke-linecap="butt" stroke-linejoin="miter" fill="none"><path d="M 206.171 231.677 L 206.63 231.677 L 206.63 228.152 L 206.287 228.152 L 206.197 228.459 L 206.015 228.666 L 205.738 228.787 L 205.354 228.827 L 205.354 229.185 L 206.171 229.185 L 206.171 231.677 L 206.171 231.677 z M 208.788 230.809 L 208.864 231.208 L 209.08 231.515 L 209.423 231.707 L 209.877 231.778 L 210.175 231.742 L 210.442 231.652 L 210.669 231.495 L 210.861 231.273 L 211.012 230.996 L 211.123 230.653 L 211.188 230.26 L 211.214 229.806 L 211.128 229.095 L 210.881 228.575 L 210.487 228.262 L 209.948 228.152 L 209.454 228.242 L 209.08 228.484 L 208.838 228.858 L 208.758 229.327 L 208.838 229.811 L 209.075 230.179 L 209.428 230.411 L 209.877 230.487 L 210.351 230.391 L 210.709 230.098 L 210.629 230.658 L 210.467 231.056 L 210.22 231.293 L 209.882 231.369 L 209.62 231.334 L 209.428 231.223 L 209.302 231.046 L 209.252 230.809 L 208.788 230.809 L 208.788 230.809 z M 209.247 229.322 L 209.297 229.009 L 209.438 228.762 L 209.66 228.605 L 209.948 228.55 L 210.245 228.605 L 210.472 228.762 L 210.614 229.004 L 210.669 229.317 L 210.614 229.634 L 210.472 229.871 L 210.24 230.018 L 209.933 230.068 L 209.655 230.018 L 209.438 229.871 L 209.297 229.639 L 209.247 229.322 L 209.247 229.322 z M 212.463 230.577 L 212.463 230.613 L 212.544 231.097 L 212.781 231.46 L 213.154 231.692 L 213.649 231.778 L 214.173 231.692 L 214.566 231.47 L 214.819 231.117 L 214.909 230.663 L 214.869 230.365 L 214.758 230.123 L 214.576 229.937 L 214.334 229.801 L 214.662 229.528 L 214.778 229.095 L 214.703 228.701 L 214.486 228.404 L 214.133 228.217 L 213.649 228.152 L 213.195 228.232 L 212.847 228.454 L 212.62 228.807 L 212.544 229.276 L 212.544 229.311 L 212.993 229.311 L 213.033 228.989 L 213.164 228.757 L 213.376 228.615 L 213.674 228.565 L 213.936 228.605 L 214.128 228.711 L 214.244 228.883 L 214.289 229.115 L 214.244 229.362 L 214.123 229.528 L 213.911 229.629 L 213.623 229.659 L 213.427 229.654 L 213.427 230.053 L 213.674 230.043 L 213.991 230.088 L 214.229 230.209 L 214.37 230.406 L 214.42 230.663 L 214.365 230.956 L 214.218 231.172 L 213.986 231.309 L 213.679 231.354 L 213.361 231.304 L 213.129 231.152 L 212.983 230.91 L 212.927 230.577 L 212.463 230.577 L 212.463 230.577 z" stroke="none" fill-rule="evenodd" fill="rgb(0, 0, 0)"/><path d="M 304.566 234.194 L 306.498 233.677 L 304.566 233.159"/><path d="M 115.43 233.159 L 113.498 233.677 L 115.43 234.194"/><path d="M 113.498 233.677 L 306.498 233.677"/></g><g stroke="rgb(0, 0, 0)" stroke-width="0.13" stroke-linecap="butt" stroke-linejoin="miter" fill="none"><path d="M 212.396 176.854 L 211.518 179.834 L 210.615 176.854 L 210.136 176.854 L 211.266 180.359 L 211.77 180.359 L 212.875 176.854 L 212.396 176.854 L 212.396 176.854 z M 215.598 177.65 L 215.154 177.65 L 215.154 179.214 L 215.104 179.577 L 214.957 179.839 L 214.731 180 L 214.433 180.051 L 214.196 180.011 L 214.045 179.89 L 213.959 179.683 L 213.939 179.39 L 213.939 177.65 L 213.495 177.65 L 213.495 179.431 L 213.51 179.789 L 213.606 180.086 L 213.898 180.359 L 214.367 180.454 L 214.62 180.419 L 214.836 180.328 L 215.023 180.172 L 215.174 179.945 L 215.174 180.359 L 215.598 180.359 L 215.598 177.65 L 215.598 177.65 z M 216.934 179.133 L 218.71 179.133 L 218.715 178.926 L 218.634 178.346 L 218.412 177.913 L 218.059 177.65 L 217.59 177.555 L 217.131 177.655 L 216.778 177.938 L 216.551 178.397 L 216.47 179.002 L 216.546 179.622 L 216.773 180.076 L 217.121 180.359 L 217.575 180.454 L 217.968 180.389 L 218.291 180.217 L 218.528 179.945 L 218.664 179.582 L 218.226 179.582 L 218.135 179.784 L 218.004 179.935 L 217.63 180.056 L 217.343 180 L 217.126 179.824 L 216.985 179.537 L 216.934 179.148 L 216.934 179.133 L 216.934 179.133 z M 216.934 178.76 L 216.99 178.412 L 217.126 178.155 L 217.333 177.998 L 217.605 177.943 L 217.872 177.998 L 218.079 178.155 L 218.205 178.412 L 218.251 178.76 L 216.934 178.76 L 216.934 178.76 z M 224.282 179.94 L 224.282 180.359 L 224.726 180.359 L 224.726 176.738 L 224.287 176.738 L 224.287 178.064 L 223.95 177.681 L 223.743 177.59 L 223.506 177.555 L 223.077 177.655 L 222.744 177.938 L 222.527 178.392 L 222.452 179.002 L 222.527 179.612 L 222.744 180.071 L 223.077 180.359 L 223.506 180.454 L 223.743 180.419 L 223.955 180.328 L 224.282 179.94 L 224.282 179.94 z M 223.581 177.953 L 223.874 178.024 L 224.096 178.22 L 224.227 178.548 L 224.277 179.002 L 224.227 179.461 L 224.096 179.789 L 223.874 179.99 L 223.581 180.056 L 223.304 179.99 L 223.092 179.789 L 222.951 179.456 L 222.906 179.002 L 222.951 178.553 L 223.092 178.225 L 223.304 178.024 L 223.581 177.953 L 223.581 177.953 z M 226.043 179.133 L 227.818 179.133 L 227.823 178.926 L 227.742 178.346 L 227.52 177.913 L 227.167 177.65 L 226.698 177.555 L 226.239 177.655 L 225.886 177.938 L 225.659 178.397 L 225.579 179.002 L 225.654 179.622 L 225.881 180.076 L 226.229 180.359 L 226.683 180.454 L 227.076 180.389 L 227.399 180.217 L 227.636 179.945 L 227.772 179.582 L 227.334 179.582 L 227.243 179.784 L 227.112 179.935 L 226.738 180.056 L 226.451 180 L 226.234 179.824 L 226.093 179.537 L 226.043 179.148 L 226.043 179.133 L 226.043 179.133 z M 226.043 178.76 L 226.098 178.412 L 226.234 178.155 L 226.441 177.998 L 226.713 177.943 L 226.981 177.998 L 227.187 178.155 L 227.313 178.412 L 227.359 178.76 L 226.043 178.76 L 226.043 178.76 z M 232.342 178.119 L 232.342 180.359 L 232.785 180.359 L 232.785 178.119 L 233.794 178.119 L 233.794 177.741 L 232.785 177.741 L 232.785 177.575 L 232.821 177.373 L 232.937 177.237 L 233.133 177.156 L 233.416 177.126 L 233.794 177.146 L 233.794 176.763 L 233.315 176.738 L 232.881 176.783 L 232.579 176.919 L 232.397 177.156 L 232.342 177.494 L 232.342 177.741 L 231.53 177.741 L 231.53 178.119 L 232.342 178.119 L 232.342 178.119 z M 236.371 180.006 L 236.371 180.021 L 236.396 180.192 L 236.472 180.313 L 236.79 180.409 L 237.037 180.369 L 237.037 180.026 L 236.931 180.041 L 236.79 179.975 L 236.764 179.774 L 236.764 178.372 L 236.704 178.013 L 236.527 177.761 L 236.22 177.61 L 235.786 177.555 L 235.362 177.615 L 235.05 177.787 L 234.853 178.054 L 234.787 178.407 L 234.787 178.437 L 235.186 178.437 L 235.221 178.225 L 235.332 178.074 L 235.514 177.983 L 235.771 177.948 L 236.018 177.973 L 236.195 178.049 L 236.3 178.18 L 236.336 178.361 L 236.316 178.573 L 236.235 178.679 L 236.033 178.73 L 235.655 178.77 L 235.221 178.861 L 234.914 179.022 L 234.732 179.274 L 234.677 179.647 L 234.727 179.98 L 234.883 180.227 L 235.135 180.384 L 235.483 180.439 L 235.952 180.333 L 236.371 180.006 L 236.371 180.006 z M 236.321 179.41 L 236.26 179.673 L 236.099 179.874 L 235.857 180.006 L 235.559 180.051 L 235.367 180.026 L 235.231 179.945 L 235.146 179.804 L 235.12 179.607 L 235.141 179.431 L 235.221 179.305 L 235.544 179.163 L 235.952 179.103 L 236.321 178.982 L 236.321 179.41 L 236.321 179.41 z M 239.523 178.548 L 239.962 178.548 L 239.871 178.145 L 239.654 177.827 L 239.316 177.63 L 238.878 177.555 L 238.393 177.655 L 238.025 177.938 L 237.793 178.397 L 237.713 179.012 L 237.788 179.622 L 238.015 180.076 L 238.373 180.359 L 238.862 180.454 L 239.296 180.379 L 239.634 180.167 L 239.866 179.834 L 239.967 179.39 L 239.543 179.39 L 239.468 179.673 L 239.326 179.884 L 239.125 180.016 L 238.878 180.056 L 238.57 179.99 L 238.348 179.789 L 238.212 179.461 L 238.166 178.997 L 238.212 178.543 L 238.353 178.215 L 238.58 178.013 L 238.878 177.943 L 239.14 177.988 L 239.336 178.104 L 239.468 178.296 L 239.523 178.548 L 239.523 178.548 z M 241.223 179.133 L 242.998 179.133 L 243.003 178.926 L 242.922 178.346 L 242.7 177.913 L 242.347 177.65 L 241.878 177.555 L 241.419 177.655 L 241.066 177.938 L 240.839 178.397 L 240.759 179.002 L 240.834 179.622 L 241.061 180.076 L 241.409 180.359 L 241.863 180.454 L 242.257 180.389 L 242.579 180.217 L 242.816 179.945 L 242.952 179.582 L 242.514 179.582 L 242.423 179.784 L 242.292 179.935 L 241.919 180.056 L 241.631 180 L 241.414 179.824 L 241.273 179.537 L 241.223 179.148 L 241.223 179.133 L 241.223 179.133 z M 241.223 178.76 L 241.278 178.412 L 241.414 178.155 L 241.621 177.998 L 241.893 177.943 L 242.161 177.998 L 242.367 178.155 L 242.494 178.412 L 242.539 178.76 L 241.223 178.76 L 241.223 178.76 z" stroke="none" fill-rule="evenodd" fill="rgb(0, 0, 0)"/></g><g stroke="rgb(0, 0, 0)" stroke-width="0.13" stroke-linecap="butt" stroke-linejoin="miter" fill="none"><path d="M 210.459 186.405 L 212.678 186.405 L 212.678 185.982 L 210.923 185.982 L 210.923 184.797 L 212.486 184.797 L 212.486 184.378 L 210.923 184.378 L 210.923 183.329 L 212.638 183.329 L 212.638 182.905 L 210.459 182.905 L 210.459 186.405 L 210.459 186.405 z M 215.235 184.595 L 215.674 184.595 L 215.583 184.191 L 215.366 183.874 L 215.028 183.677 L 214.589 183.601 L 214.105 183.702 L 213.737 183.985 L 213.505 184.444 L 213.424 185.059 L 213.5 185.669 L 213.727 186.123 L 214.085 186.405 L 214.574 186.501 L 215.008 186.426 L 215.346 186.214 L 215.578 185.881 L 215.679 185.437 L 215.255 185.437 L 215.179 185.72 L 215.038 185.931 L 214.836 186.062 L 214.589 186.103 L 214.282 186.037 L 214.06 185.836 L 213.924 185.508 L 213.878 185.044 L 213.924 184.59 L 214.065 184.262 L 214.292 184.06 L 214.589 183.99 L 214.852 184.035 L 215.048 184.151 L 215.179 184.343 L 215.235 184.595 L 215.235 184.595 z M 216.546 186.405 L 216.99 186.405 L 216.99 184.842 L 217.035 184.484 L 217.182 184.222 L 217.409 184.06 L 217.711 184 L 217.953 184.05 L 218.104 184.186 L 218.18 184.413 L 218.205 184.716 L 218.205 186.405 L 218.649 186.405 L 218.649 184.625 L 218.629 184.267 L 218.538 183.97 L 218.241 183.697 L 217.777 183.601 L 217.525 183.637 L 217.308 183.732 L 217.126 183.884 L 216.99 184.091 L 216.99 182.784 L 216.546 182.784 L 216.546 186.405 L 216.546 186.405 z M 219.97 185.18 L 221.746 185.18 L 221.751 184.973 L 221.67 184.393 L 221.448 183.959 L 221.095 183.697 L 220.626 183.601 L 220.167 183.702 L 219.814 183.985 L 219.587 184.444 L 219.507 185.049 L 219.582 185.669 L 219.809 186.123 L 220.157 186.405 L 220.611 186.501 L 221.004 186.436 L 221.327 186.264 L 221.564 185.992 L 221.7 185.629 L 221.262 185.629 L 221.171 185.83 L 221.04 185.982 L 220.666 186.103 L 220.379 186.047 L 220.162 185.871 L 220.021 185.583 L 219.97 185.195 L 219.97 185.18 L 219.97 185.18 z M 219.97 184.807 L 220.026 184.459 L 220.162 184.201 L 220.369 184.045 L 220.641 183.99 L 220.909 184.045 L 221.115 184.201 L 221.241 184.459 L 221.287 184.807 L 219.97 184.807 L 219.97 184.807 z M 223.501 183.158 L 223.501 186.032 L 222.588 186.032 L 222.588 186.405 L 224.852 186.405 L 224.852 186.032 L 223.945 186.032 L 223.945 182.784 L 222.805 182.784 L 222.805 183.158 L 223.501 183.158 L 223.501 183.158 z M 226.537 183.158 L 226.537 186.032 L 225.624 186.032 L 225.624 186.405 L 227.888 186.405 L 227.888 186.032 L 226.981 186.032 L 226.981 182.784 L 225.841 182.784 L 225.841 183.158 L 226.537 183.158 L 226.537 183.158 z M 229.079 185.18 L 230.854 185.18 L 230.859 184.973 L 230.778 184.393 L 230.556 183.959 L 230.203 183.697 L 229.734 183.601 L 229.275 183.702 L 228.922 183.985 L 228.695 184.444 L 228.615 185.049 L 228.69 185.669 L 228.917 186.123 L 229.265 186.405 L 229.719 186.501 L 230.112 186.436 L 230.435 186.264 L 230.672 185.992 L 230.808 185.629 L 230.37 185.629 L 230.279 185.83 L 230.148 185.982 L 229.775 186.103 L 229.487 186.047 L 229.27 185.871 L 229.129 185.583 L 229.079 185.195 L 229.079 185.18 L 229.079 185.18 z M 229.079 184.807 L 229.134 184.459 L 229.27 184.201 L 229.477 184.045 L 229.749 183.99 L 230.017 184.045 L 230.223 184.201 L 230.349 184.459 L 230.395 184.807 L 229.079 184.807 L 229.079 184.807 z M 235.458 186.405 L 236.154 186.405 L 236.154 185.654 L 235.458 185.654 L 235.458 186.405 L 235.458 186.405 z M 235.458 184.449 L 236.154 184.449 L 236.154 183.697 L 235.458 183.697 L 235.458 184.449 L 235.458 184.449 z" stroke="none" fill-rule="evenodd" fill="rgb(0, 0, 0)"/></g><g stroke="rgb(0, 0, 0)" stroke-width="0.13" stroke-linecap="butt" stroke-linejoin="miter" fill="none"><path d="M 244.823 186.405 L 245.282 186.405 L 245.282 182.88 L 244.939 182.88 L 244.849 183.188 L 244.667 183.395 L 244.39 183.516 L 244.006 183.556 L 244.006 183.914 L 244.823 183.914 L 244.823 186.405 L 244.823 186.405 z M 247.602 186.405 L 248.298 186.405 L 248.298 185.654 L 247.602 185.654 L 247.602 186.405 L 247.602 186.405 z M 247.602 184.449 L 248.298 184.449 L 248.298 183.697 L 247.602 183.697 L 247.602 184.449 L 247.602 184.449 z M 250.896 186.405 L 251.354 186.405 L 251.354 182.88 L 251.012 182.88 L 250.921 183.188 L 250.739 183.395 L 250.462 183.516 L 250.079 183.556 L 250.079 183.914 L 250.896 183.914 L 250.896 186.405 L 250.896 186.405 z" stroke="none" fill-rule="evenodd" fill="rgb(0, 0, 0)"/></g></svg>