<?xml version="1.0" encoding="utf-8" ?><!DOCTYPE svg PUBLIC "-//W3C//DTD SVG 1.1//EN" "http://www.w3.org/Graphics/SVG/1.1/DTD/svg11.dtd" 
[ <!ATTLIST svg 
  xmlns:dsy CDATA #FIXED "http://www.3ds.com/print"  
    dsy:text-version CDATA #IMPLIED > 

  <!ATTLIST text 
  xmlns:dsy CDATA #FIXED "http://www.3ds.com/print" 
    dsy:text-version CDATA #IMPLIED > 
]><svg xmlns="http://www.w3.org/2000/svg" xmlns:dsy="http://www.3ds.com/print" dsy:text-version="18000" width="420" height="297" viewBox="0 0 420 297" version="1.1"><g stroke="rgb(0, 0, 0)" stroke-width="0.13" stroke-linecap="butt" stroke-linejoin="miter" fill="none"><path d="M 41.5497 228.874 L 38.9782 250.51"/><path d="M 364.974 223.373 L 357.253 288.339"/></g><g stroke="rgb(0, 0, 0)" stroke-width="0.35" stroke-linecap="butt" stroke-linejoin="miter" fill="none"><path d="M 144.822 15.6379 A 8.00003 8.00003 0 0 0 131.805 11.6987"/><path d="M 334.452 150.9 L 359.449 150.475"/><path d="M 334.81 171.897 L 334.452 150.9"/><path d="M 359.449 150.475 L 359.706 165.573"/><path d="M 324.981 182.066 A 10.0009 10.0009 0 0 0 334.81 171.897"/><path d="M 309.43 182.33 L 324.981 182.066"/><path d="M 309.327 182.346 L 309.43 182.33"/><path d="M 306.948 202.362 L 309.327 182.346"/><path d="M 301.09 201.666 L 306.948 202.362"/><path d="M 303.375 182.433 L 301.09 201.666"/><path d="M 110.796 205.712 L 113.178 185.668"/><path d="M 104.937 205.015 L 110.796 205.712"/><path d="M 107.226 185.756 L 104.937 205.015"/><path d="M 107.123 185.771 L 107.226 185.756"/><path d="M 91.5722 186.036 L 107.123 185.771"/><path d="M 81.4033 176.207 A 10.0009 10.0009 0 0 0 91.5721 186.036"/><path d="M 66.3037 170.463 L 56.3051 170.633"/><path d="M 66.4057 176.462 L 66.3037 170.463"/><path d="M 56.4071 176.633 L 66.4057 176.462"/><path d="M 56.5772 186.631 L 56.4071 176.633"/><path d="M 45.3704 196.728 A 10.0012 10.0012 0 0 0 56.5776 186.631"/><path d="M 41.7857 226.888 L 45.3704 196.728"/><path d="M 365.21 221.387 L 41.7857 226.888"/><path d="M 368.794 191.231 L 365.21 221.387"/><path d="M 359.976 181.471 A 10.0006 10.0006 0 0 0 368.794 191.231"/><path d="M 359.806 171.472 L 359.976 181.471"/><path d="M 349.807 171.642 L 359.806 171.472"/><path d="M 349.707 165.743 L 349.807 171.642"/><path d="M 359.706 165.573 L 349.707 165.743"/><path d="M 81.0464 155.21 L 81.4035 176.207"/><path d="M 81.0464 155.21 L 79.9491 90.6982"/><path d="M 58.2232 76.5204 L 131.805 11.6988"/><path d="M 56.05 155.636 L 54.8349 84.194"/><path d="M 56.3051 170.633 L 56.05 155.636"/><path d="M 58.2231 76.5203 A 10 10 0 0 0 54.8349 84.194"/><path d="M 79.9491 90.6982 L 115.636 59.2596"/><path d="M 131.908 64.1835 A 10 10 0 0 0 115.636 59.2595"/><path d="M 187.856 176.812 L 144.822 15.6379"/><path d="M 197.688 184.231 L 303.375 182.433"/><path d="M 187.856 176.812 A 10 10 0 0 0 197.688 184.231"/><path d="M 160.814 172.441 L 131.908 64.1835"/><path d="M 113.178 185.668 L 151.322 185.02"/><path d="M 151.322 185.02 A 10 10 0 0 0 160.814 172.441"/></g><g stroke="rgb(0, 0, 0)" stroke-width="0.13" stroke-linecap="butt" stroke-linejoin="miter" fill="none"><path d="M 93.361 277.517 L 92.4834 280.498 L 91.5807 277.517 L 91.1016 277.517 L 92.2313 281.022 L 92.7356 281.022 L 93.8401 277.517 L 93.361 277.517 L 93.361 277.517 z M 96.5634 278.314 L 96.1196 278.314 L 96.1196 279.877 L 96.0692 280.241 L 95.9229 280.503 L 95.696 280.664 L 95.3984 280.715 L 95.1614 280.674 L 95.0101 280.553 L 94.9244 280.346 L 94.9042 280.054 L 94.9042 278.314 L 94.4604 278.314 L 94.4604 280.094 L 94.4755 280.452 L 94.5713 280.75 L 94.8638 281.022 L 95.3329 281.118 L 95.585 281.083 L 95.8019 280.992 L 95.9885 280.836 L 96.1398 280.609 L 96.1398 281.022 L 96.5634 281.022 L 96.5634 278.314 L 96.5634 278.314 z M 97.8999 279.797 L 99.6751 279.797 L 99.6801 279.59 L 99.5994 279.01 L 99.3775 278.576 L 99.0245 278.314 L 98.5555 278.218 L 98.0966 278.319 L 97.7435 278.601 L 97.5166 279.06 L 97.4359 279.666 L 97.5115 280.286 L 97.7385 280.74 L 98.0865 281.022 L 98.5404 281.118 L 98.9337 281.052 L 99.2565 280.881 L 99.4935 280.609 L 99.6297 280.246 L 99.1909 280.246 L 99.1002 280.447 L 98.969 280.599 L 98.5958 280.72 L 98.3084 280.664 L 98.0915 280.488 L 97.9503 280.2 L 97.8999 279.812 L 97.8999 279.797 L 97.8999 279.797 z M 97.8999 279.424 L 97.9554 279.076 L 98.0915 278.818 L 98.2983 278.662 L 98.5706 278.607 L 98.8379 278.662 L 99.0447 278.818 L 99.1708 279.076 L 99.2162 279.424 L 97.8999 279.424 L 97.8999 279.424 z M 105.248 280.604 L 105.248 281.022 L 105.692 281.022 L 105.692 277.401 L 105.253 277.401 L 105.253 278.728 L 104.915 278.344 L 104.708 278.254 L 104.471 278.218 L 104.043 278.319 L 103.71 278.601 L 103.493 279.055 L 103.417 279.666 L 103.493 280.276 L 103.71 280.735 L 104.043 281.022 L 104.471 281.118 L 104.708 281.083 L 104.92 280.992 L 105.248 280.604 L 105.248 280.604 z M 104.547 278.617 L 104.839 278.687 L 105.061 278.884 L 105.192 279.212 L 105.243 279.666 L 105.192 280.125 L 105.061 280.452 L 104.839 280.654 L 104.547 280.72 L 104.269 280.654 L 104.058 280.452 L 103.916 280.12 L 103.871 279.666 L 103.916 279.217 L 104.058 278.889 L 104.269 278.687 L 104.547 278.617 L 104.547 278.617 z M 107.008 279.797 L 108.783 279.797 L 108.788 279.59 L 108.708 279.01 L 108.486 278.576 L 108.133 278.314 L 107.664 278.218 L 107.205 278.319 L 106.852 278.601 L 106.625 279.06 L 106.544 279.666 L 106.62 280.286 L 106.847 280.74 L 107.195 281.022 L 107.648 281.118 L 108.042 281.052 L 108.365 280.881 L 108.602 280.609 L 108.738 280.246 L 108.299 280.246 L 108.208 280.447 L 108.077 280.599 L 107.704 280.72 L 107.416 280.664 L 107.2 280.488 L 107.058 280.2 L 107.008 279.812 L 107.008 279.797 L 107.008 279.797 z M 107.008 279.424 L 107.063 279.076 L 107.2 278.818 L 107.406 278.662 L 107.679 278.607 L 107.946 278.662 L 108.153 278.818 L 108.279 279.076 L 108.324 279.424 L 107.008 279.424 L 107.008 279.424 z M 113.307 278.783 L 113.307 281.022 L 113.751 281.022 L 113.751 278.783 L 114.759 278.783 L 114.759 278.405 L 113.751 278.405 L 113.751 278.238 L 113.786 278.037 L 113.902 277.9 L 114.099 277.82 L 114.381 277.79 L 114.759 277.81 L 114.759 277.426 L 114.28 277.401 L 113.847 277.447 L 113.544 277.583 L 113.362 277.82 L 113.307 278.158 L 113.307 278.405 L 112.495 278.405 L 112.495 278.783 L 113.307 278.783 L 113.307 278.783 z M 117.336 280.669 L 117.336 280.684 L 117.362 280.856 L 117.437 280.977 L 117.755 281.073 L 118.002 281.032 L 118.002 280.689 L 117.896 280.705 L 117.755 280.639 L 117.73 280.437 L 117.73 279.035 L 117.669 278.677 L 117.493 278.425 L 117.185 278.274 L 116.751 278.218 L 116.328 278.279 L 116.015 278.45 L 115.818 278.717 L 115.753 279.071 L 115.753 279.101 L 116.151 279.101 L 116.187 278.889 L 116.298 278.738 L 116.479 278.647 L 116.736 278.612 L 116.983 278.637 L 117.16 278.712 L 117.266 278.844 L 117.301 279.025 L 117.281 279.237 L 117.2 279.343 L 116.999 279.393 L 116.62 279.434 L 116.187 279.524 L 115.879 279.686 L 115.697 279.938 L 115.642 280.311 L 115.692 280.644 L 115.849 280.891 L 116.101 281.047 L 116.449 281.103 L 116.918 280.997 L 117.336 280.669 L 117.336 280.669 z M 117.286 280.074 L 117.226 280.336 L 117.064 280.538 L 116.822 280.669 L 116.525 280.715 L 116.333 280.689 L 116.197 280.609 L 116.111 280.467 L 116.086 280.271 L 116.106 280.094 L 116.187 279.968 L 116.509 279.827 L 116.918 279.766 L 117.286 279.645 L 117.286 280.074 L 117.286 280.074 z M 120.489 279.212 L 120.927 279.212 L 120.836 278.808 L 120.62 278.491 L 120.282 278.294 L 119.843 278.218 L 119.359 278.319 L 118.991 278.601 L 118.759 279.06 L 118.678 279.676 L 118.754 280.286 L 118.981 280.74 L 119.339 281.022 L 119.828 281.118 L 120.262 281.042 L 120.599 280.831 L 120.831 280.498 L 120.932 280.054 L 120.509 280.054 L 120.433 280.336 L 120.292 280.548 L 120.09 280.679 L 119.843 280.72 L 119.535 280.654 L 119.313 280.452 L 119.177 280.125 L 119.132 279.661 L 119.177 279.207 L 119.318 278.879 L 119.545 278.677 L 119.843 278.607 L 120.105 278.652 L 120.302 278.768 L 120.433 278.96 L 120.489 279.212 L 120.489 279.212 z M 122.188 279.797 L 123.963 279.797 L 123.968 279.59 L 123.888 279.01 L 123.666 278.576 L 123.313 278.314 L 122.844 278.218 L 122.385 278.319 L 122.032 278.601 L 121.805 279.06 L 121.724 279.666 L 121.8 280.286 L 122.027 280.74 L 122.375 281.022 L 122.829 281.118 L 123.222 281.052 L 123.545 280.881 L 123.782 280.609 L 123.918 280.246 L 123.479 280.246 L 123.388 280.447 L 123.257 280.599 L 122.884 280.72 L 122.597 280.664 L 122.38 280.488 L 122.239 280.2 L 122.188 279.812 L 122.188 279.797 L 122.188 279.797 z M 122.188 279.424 L 122.244 279.076 L 122.38 278.818 L 122.586 278.662 L 122.859 278.607 L 123.126 278.662 L 123.333 278.818 L 123.459 279.076 L 123.504 279.424 L 122.188 279.424 L 122.188 279.424 z" stroke="none" fill-rule="evenodd" fill="rgb(0, 0, 0)"/></g><g stroke="rgb(0, 0, 0)" stroke-width="0.13" stroke-linecap="butt" stroke-linejoin="miter" fill="none"><path d="M 91.4244 287.069 L 93.6434 287.069 L 93.6434 286.645 L 91.8883 286.645 L 91.8883 285.46 L 93.4517 285.46 L 93.4517 285.042 L 91.8883 285.042 L 91.8883 283.993 L 93.603 283.993 L 93.603 283.569 L 91.4244 283.569 L 91.4244 287.069 L 91.4244 287.069 z M 96.2003 285.259 L 96.6391 285.259 L 96.5483 284.855 L 96.3314 284.537 L 95.9935 284.341 L 95.5548 284.265 L 95.0706 284.366 L 94.7025 284.648 L 94.4705 285.107 L 94.3898 285.723 L 94.4654 286.333 L 94.6924 286.787 L 95.0504 287.069 L 95.5396 287.165 L 95.9734 287.089 L 96.3113 286.877 L 96.5432 286.545 L 96.6441 286.101 L 96.2205 286.101 L 96.1448 286.383 L 96.0036 286.595 L 95.8019 286.726 L 95.5548 286.766 L 95.2471 286.701 L 95.0252 286.499 L 94.8891 286.171 L 94.8437 285.707 L 94.8891 285.254 L 95.0303 284.926 L 95.2572 284.724 L 95.5548 284.653 L 95.817 284.699 L 96.0137 284.815 L 96.1448 285.006 L 96.2003 285.259 L 96.2003 285.259 z M 97.5115 287.069 L 97.9554 287.069 L 97.9554 285.506 L 98.0007 285.148 L 98.147 284.885 L 98.3739 284.724 L 98.6765 284.663 L 98.9186 284.714 L 99.0699 284.85 L 99.1456 285.077 L 99.1708 285.38 L 99.1708 287.069 L 99.6146 287.069 L 99.6146 285.289 L 99.5944 284.931 L 99.5036 284.633 L 99.2061 284.361 L 98.7421 284.265 L 98.4899 284.3 L 98.2731 284.396 L 98.0915 284.547 L 97.9554 284.754 L 97.9554 283.448 L 97.5115 283.448 L 97.5115 287.069 L 97.5115 287.069 z M 100.936 285.844 L 102.711 285.844 L 102.716 285.637 L 102.635 285.057 L 102.414 284.623 L 102.061 284.361 L 101.592 284.265 L 101.133 284.366 L 100.78 284.648 L 100.553 285.107 L 100.472 285.712 L 100.548 286.333 L 100.775 286.787 L 101.122 287.069 L 101.576 287.165 L 101.97 287.099 L 102.293 286.928 L 102.53 286.656 L 102.666 286.292 L 102.227 286.292 L 102.136 286.494 L 102.005 286.645 L 101.632 286.766 L 101.344 286.711 L 101.128 286.534 L 100.986 286.247 L 100.936 285.859 L 100.936 285.844 L 100.936 285.844 z M 100.936 285.47 L 100.991 285.122 L 101.128 284.865 L 101.334 284.709 L 101.607 284.653 L 101.874 284.709 L 102.081 284.865 L 102.207 285.122 L 102.252 285.47 L 100.936 285.47 L 100.936 285.47 z M 104.466 283.821 L 104.466 286.696 L 103.553 286.696 L 103.553 287.069 L 105.818 287.069 L 105.818 286.696 L 104.91 286.696 L 104.91 283.448 L 103.77 283.448 L 103.77 283.821 L 104.466 283.821 L 104.466 283.821 z M 107.502 283.821 L 107.502 286.696 L 106.589 286.696 L 106.589 287.069 L 108.854 287.069 L 108.854 286.696 L 107.946 286.696 L 107.946 283.448 L 106.806 283.448 L 106.806 283.821 L 107.502 283.821 L 107.502 283.821 z M 110.044 285.844 L 111.819 285.844 L 111.824 285.637 L 111.744 285.057 L 111.522 284.623 L 111.169 284.361 L 110.7 284.265 L 110.241 284.366 L 109.888 284.648 L 109.661 285.107 L 109.58 285.712 L 109.656 286.333 L 109.883 286.787 L 110.231 287.069 L 110.684 287.165 L 111.078 287.099 L 111.401 286.928 L 111.638 286.656 L 111.774 286.292 L 111.335 286.292 L 111.244 286.494 L 111.113 286.645 L 110.74 286.766 L 110.452 286.711 L 110.236 286.534 L 110.094 286.247 L 110.044 285.859 L 110.044 285.844 L 110.044 285.844 z M 110.044 285.47 L 110.099 285.122 L 110.236 284.865 L 110.442 284.709 L 110.715 284.653 L 110.982 284.709 L 111.189 284.865 L 111.315 285.122 L 111.36 285.47 L 110.044 285.47 L 110.044 285.47 z M 116.424 287.069 L 117.12 287.069 L 117.12 286.318 L 116.424 286.318 L 116.424 287.069 L 116.424 287.069 z M 116.424 285.112 L 117.12 285.112 L 117.12 284.361 L 116.424 284.361 L 116.424 285.112 L 116.424 285.112 z" stroke="none" fill-rule="evenodd" fill="rgb(0, 0, 0)"/></g><g stroke="rgb(0, 0, 0)" stroke-width="0.13" stroke-linecap="butt" stroke-linejoin="miter" fill="none"><path d="M 125.789 287.069 L 126.248 287.069 L 126.248 283.544 L 125.905 283.544 L 125.814 283.851 L 125.633 284.058 L 125.355 284.179 L 124.972 284.22 L 124.972 284.578 L 125.789 284.578 L 125.789 287.069 L 125.789 287.069 z M 128.568 287.069 L 129.264 287.069 L 129.264 286.318 L 128.568 286.318 L 128.568 287.069 L 128.568 287.069 z M 128.568 285.112 L 129.264 285.112 L 129.264 284.361 L 128.568 284.361 L 128.568 285.112 L 128.568 285.112 z M 131.861 287.069 L 132.32 287.069 L 132.32 283.544 L 131.977 283.544 L 131.886 283.851 L 131.705 284.058 L 131.427 284.179 L 131.044 284.22 L 131.044 284.578 L 131.861 284.578 L 131.861 287.069 L 131.861 287.069 z" stroke="none" fill-rule="evenodd" fill="rgb(0, 0, 0)"/></g><g stroke="rgb(0, 0, 0)" stroke-width="0.13" stroke-linecap="butt" stroke-linejoin="miter" fill="none"><path d="M 188.18 263.108 L 188.176 263.143 L 188.199 263.634 L 188.392 264.022 L 188.735 264.297 L 189.216 264.44 L 189.747 264.417 L 190.163 264.243 L 190.455 263.922 L 190.599 263.482 L 190.594 263.182 L 190.513 262.928 L 190.354 262.722 L 190.13 262.558 L 190.488 262.326 L 190.654 261.909 L 190.625 261.51 L 190.445 261.188 L 190.117 260.962 L 189.644 260.839 L 189.183 260.866 L 188.812 261.045 L 188.545 261.369 L 188.414 261.826 L 188.41 261.861 L 188.856 261.914 L 188.934 261.598 L 189.091 261.383 L 189.318 261.268 L 189.62 261.253 L 189.876 261.324 L 190.053 261.452 L 190.148 261.636 L 190.166 261.871 L 190.092 262.111 L 189.952 262.262 L 189.73 262.338 L 189.441 262.334 L 189.246 262.305 L 189.199 262.701 L 189.445 262.72 L 189.756 262.803 L 189.977 262.951 L 190.094 263.163 L 190.113 263.424 L 190.024 263.708 L 189.853 263.906 L 189.607 264.014 L 189.296 264.023 L 188.986 263.935 L 188.774 263.758 L 188.657 263.5 L 188.641 263.163 L 188.18 263.108 L 188.18 263.108 z M 191.801 264.646 L 194.189 264.93 L 194.241 264.499 L 192.353 264.275 L 192.486 264.052 L 192.689 263.878 L 193.287 263.588 L 193.601 263.473 L 193.957 263.297 L 194.222 263.075 L 194.392 262.795 L 194.482 262.466 L 194.447 262.035 L 194.251 261.676 L 193.916 261.423 L 193.459 261.293 L 192.968 261.321 L 192.574 261.513 L 192.294 261.86 L 192.155 262.347 L 192.147 262.417 L 192.603 262.471 L 192.607 262.431 L 192.693 262.096 L 192.858 261.861 L 193.092 261.727 L 193.384 261.705 L 193.669 261.79 L 193.869 261.941 L 193.986 262.153 L 194.007 262.404 L 193.945 262.63 L 193.826 262.814 L 193.646 262.966 L 193.408 263.09 L 193.093 263.215 L 192.565 263.467 L 192.181 263.756 L 191.928 264.133 L 191.802 264.631 L 191.801 264.646 L 191.801 264.646 z M 195.727 263.391 L 195.709 264.186 L 195.878 264.775 L 196.213 265.16 L 196.721 265.332 L 197.25 265.283 L 197.666 264.987 L 197.963 264.454 L 198.136 263.677 L 198.149 262.886 L 198.091 262.564 L 197.986 262.293 L 197.651 261.908 L 197.149 261.731 L 196.614 261.785 L 196.197 262.085 L 195.895 262.618 L 195.727 263.391 L 195.727 263.391 z M 196.208 263.448 L 196.32 262.847 L 196.497 262.426 L 196.753 262.197 L 197.099 262.147 L 197.419 262.276 L 197.614 262.559 L 197.687 263.009 L 197.655 263.62 L 197.543 264.226 L 197.366 264.647 L 197.11 264.876 L 196.769 264.921 L 196.444 264.796 L 196.249 264.514 L 196.176 264.064 L 196.208 263.448 L 196.208 263.448 z M 200.097 265.632 L 200.788 265.714 L 200.877 264.968 L 200.186 264.886 L 200.097 265.632 L 200.097 265.632 z M 203.018 265.06 L 203.079 265.483 L 203.287 265.833 L 203.624 266.076 L 204.075 266.206 L 204.592 266.176 L 205.017 265.978 L 205.313 265.617 L 205.468 265.127 L 205.438 264.652 L 205.241 264.257 L 204.894 263.977 L 204.418 263.835 L 204.035 263.85 L 203.725 263.981 L 203.977 263.061 L 205.499 263.242 L 205.548 262.831 L 203.69 262.61 L 203.196 264.421 L 203.596 264.468 L 203.915 264.267 L 204.295 264.226 L 204.609 264.319 L 204.836 264.509 L 204.962 264.773 L 204.979 265.095 L 204.887 265.404 L 204.697 265.63 L 204.434 265.756 L 204.112 265.774 L 203.85 265.707 L 203.659 265.568 L 203.53 265.369 L 203.484 265.115 L 203.018 265.06 L 203.018 265.06 z M 207.772 266.544 L 208.228 266.598 L 208.644 263.098 L 208.303 263.057 L 208.177 263.352 L 207.972 263.536 L 207.682 263.623 L 207.297 263.618 L 207.255 263.974 L 208.066 264.07 L 207.772 266.544 L 207.772 266.544 z" stroke="none" fill-rule="evenodd" fill="rgb(0, 0, 0)"/><path d="M 355.509 286.639 L 357.489 286.353 L 355.631 285.61"/><path d="M 41.1936 248.238 L 39.2142 248.524 L 41.0714 249.266"/><path d="M 39.2142 248.524 L 357.489 286.353"/></g></svg>