<?xml version="1.0" encoding="utf-8" ?><!DOCTYPE svg PUBLIC "-//W3C//DTD SVG 1.1//EN" "http://www.w3.org/Graphics/SVG/1.1/DTD/svg11.dtd" 
[ <!ATTLIST svg 
  xmlns:dsy CDATA #FIXED "http://www.3ds.com/print"  
    dsy:text-version CDATA #IMPLIED > 

  <!ATTLIST text 
  xmlns:dsy CDATA #FIXED "http://www.3ds.com/print" 
    dsy:text-version CDATA #IMPLIED > 
]><svg xmlns="http://www.w3.org/2000/svg" xmlns:dsy="http://www.3ds.com/print" dsy:text-version="18000" width="420" height="297" viewBox="0 0 420 297" version="1.1"><g stroke="rgb(0, 0, 0)" stroke-width="0.13" stroke-linecap="butt" stroke-linejoin="miter" fill="none"><path d="M 224.5 199 L 309.111 199"/><path d="M 224.5 98 L 309.111 98"/></g><g stroke="rgb(0, 0, 0)" stroke-width="0.35" stroke-linecap="butt" stroke-linejoin="miter" fill="none"><path d="M 197.5 199 L 197.5 98"/><path d="M 197.5 199 L 222.5 199"/><path d="M 222.5 199 L 222.5 98"/><path d="M 197.5 98 L 222.5 98"/></g><g stroke="rgb(0, 0, 0)" stroke-width="0.13" stroke-linecap="butt" stroke-linejoin="miter" fill="none"><path d="M 305.111 152.327 L 305.111 151.868 L 301.585 151.868 L 301.585 152.211 L 301.893 152.302 L 302.1 152.483 L 302.221 152.761 L 302.261 153.144 L 302.619 153.144 L 302.619 152.327 L 305.111 152.327 L 305.111 152.327 z M 303.401 149.715 L 304.193 149.64 L 304.758 149.403 L 305.101 149.025 L 305.212 148.5 L 305.101 147.981 L 304.758 147.602 L 304.193 147.37 L 303.401 147.29 L 302.614 147.37 L 302.302 147.466 L 302.044 147.602 L 301.701 147.981 L 301.585 148.5 L 301.701 149.025 L 302.049 149.403 L 302.614 149.64 L 303.401 149.715 L 303.401 149.715 z M 303.401 149.231 L 302.791 149.191 L 302.352 149.065 L 302.095 148.838 L 302.004 148.5 L 302.095 148.167 L 302.352 147.94 L 302.791 147.814 L 303.401 147.774 L 304.016 147.814 L 304.455 147.94 L 304.712 148.167 L 304.798 148.5 L 304.712 148.838 L 304.455 149.065 L 304.016 149.191 L 303.401 149.231 L 303.401 149.231 z M 305.111 144.855 L 305.111 144.396 L 301.585 144.396 L 301.585 144.739 L 301.893 144.83 L 302.1 145.011 L 302.221 145.288 L 302.261 145.672 L 302.619 145.672 L 302.619 144.855 L 305.111 144.855 L 305.111 144.855 z" stroke="none" fill-rule="evenodd" fill="rgb(0, 0, 0)"/><path d="M 306.593 197.068 L 307.111 199 L 307.628 197.068"/><path d="M 307.628 99.9319 L 307.111 98 L 306.593 99.9319"/><path d="M 307.111 199 L 307.111 98"/></g><g stroke="rgb(0, 0, 0)" stroke-width="0.13" stroke-linecap="butt" stroke-linejoin="miter" fill="none"><path d="M 212.396 207.352 L 211.518 210.332 L 210.615 207.352 L 210.136 207.352 L 211.266 210.857 L 211.77 210.857 L 212.875 207.352 L 212.396 207.352 L 212.396 207.352 z M 215.598 208.148 L 215.154 208.148 L 215.154 209.712 L 215.104 210.075 L 214.957 210.337 L 214.731 210.499 L 214.433 210.549 L 214.196 210.509 L 214.045 210.388 L 213.959 210.181 L 213.939 209.888 L 213.939 208.148 L 213.495 208.148 L 213.495 209.929 L 213.51 210.287 L 213.606 210.584 L 213.898 210.857 L 214.367 210.952 L 214.62 210.917 L 214.836 210.826 L 215.023 210.67 L 215.174 210.443 L 215.174 210.857 L 215.598 210.857 L 215.598 208.148 L 215.598 208.148 z M 216.934 209.631 L 218.71 209.631 L 218.715 209.424 L 218.634 208.844 L 218.412 208.411 L 218.059 208.148 L 217.59 208.053 L 217.131 208.153 L 216.778 208.436 L 216.551 208.895 L 216.47 209.5 L 216.546 210.12 L 216.773 210.574 L 217.121 210.857 L 217.575 210.952 L 217.968 210.887 L 218.291 210.715 L 218.528 210.443 L 218.664 210.08 L 218.226 210.08 L 218.135 210.282 L 218.004 210.433 L 217.63 210.554 L 217.343 210.499 L 217.126 210.322 L 216.985 210.035 L 216.934 209.646 L 216.934 209.631 L 216.934 209.631 z M 216.934 209.258 L 216.99 208.91 L 217.126 208.653 L 217.333 208.496 L 217.605 208.441 L 217.872 208.496 L 218.079 208.653 L 218.205 208.91 L 218.251 209.258 L 216.934 209.258 L 216.934 209.258 z M 224.282 210.438 L 224.282 210.857 L 224.726 210.857 L 224.726 207.236 L 224.287 207.236 L 224.287 208.562 L 223.95 208.179 L 223.743 208.088 L 223.506 208.053 L 223.077 208.153 L 222.744 208.436 L 222.527 208.89 L 222.452 209.5 L 222.527 210.11 L 222.744 210.569 L 223.077 210.857 L 223.506 210.952 L 223.743 210.917 L 223.955 210.826 L 224.282 210.438 L 224.282 210.438 z M 223.581 208.451 L 223.874 208.522 L 224.096 208.718 L 224.227 209.046 L 224.277 209.5 L 224.227 209.959 L 224.096 210.287 L 223.874 210.488 L 223.581 210.554 L 223.304 210.488 L 223.092 210.287 L 222.951 209.954 L 222.906 209.5 L 222.951 209.051 L 223.092 208.723 L 223.304 208.522 L 223.581 208.451 L 223.581 208.451 z M 226.043 209.631 L 227.818 209.631 L 227.823 209.424 L 227.742 208.844 L 227.52 208.411 L 227.167 208.148 L 226.698 208.053 L 226.239 208.153 L 225.886 208.436 L 225.659 208.895 L 225.579 209.5 L 225.654 210.12 L 225.881 210.574 L 226.229 210.857 L 226.683 210.952 L 227.076 210.887 L 227.399 210.715 L 227.636 210.443 L 227.772 210.08 L 227.334 210.08 L 227.243 210.282 L 227.112 210.433 L 226.738 210.554 L 226.451 210.499 L 226.234 210.322 L 226.093 210.035 L 226.043 209.646 L 226.043 209.631 L 226.043 209.631 z M 226.043 209.258 L 226.098 208.91 L 226.234 208.653 L 226.441 208.496 L 226.713 208.441 L 226.981 208.496 L 227.187 208.653 L 227.313 208.91 L 227.359 209.258 L 226.043 209.258 L 226.043 209.258 z M 232.342 208.617 L 232.342 210.857 L 232.785 210.857 L 232.785 208.617 L 233.794 208.617 L 233.794 208.239 L 232.785 208.239 L 232.785 208.073 L 232.821 207.871 L 232.937 207.735 L 233.133 207.654 L 233.416 207.624 L 233.794 207.644 L 233.794 207.261 L 233.315 207.236 L 232.881 207.281 L 232.579 207.417 L 232.397 207.654 L 232.342 207.992 L 232.342 208.239 L 231.53 208.239 L 231.53 208.617 L 232.342 208.617 L 232.342 208.617 z M 236.371 210.504 L 236.371 210.519 L 236.396 210.69 L 236.472 210.811 L 236.79 210.907 L 237.037 210.867 L 237.037 210.524 L 236.931 210.539 L 236.79 210.473 L 236.764 210.272 L 236.764 208.87 L 236.704 208.512 L 236.527 208.259 L 236.22 208.108 L 235.786 208.053 L 235.362 208.113 L 235.05 208.285 L 234.853 208.552 L 234.787 208.905 L 234.787 208.935 L 235.186 208.935 L 235.221 208.723 L 235.332 208.572 L 235.514 208.481 L 235.771 208.446 L 236.018 208.471 L 236.195 208.547 L 236.3 208.678 L 236.336 208.86 L 236.316 209.071 L 236.235 209.177 L 236.033 209.228 L 235.655 209.268 L 235.221 209.359 L 234.914 209.52 L 234.732 209.772 L 234.677 210.146 L 234.727 210.478 L 234.883 210.725 L 235.135 210.882 L 235.483 210.937 L 235.952 210.831 L 236.371 210.504 L 236.371 210.504 z M 236.321 209.908 L 236.26 210.171 L 236.099 210.372 L 235.857 210.504 L 235.559 210.549 L 235.367 210.524 L 235.231 210.443 L 235.146 210.302 L 235.12 210.105 L 235.141 209.929 L 235.221 209.803 L 235.544 209.661 L 235.952 209.601 L 236.321 209.48 L 236.321 209.908 L 236.321 209.908 z M 239.523 209.046 L 239.962 209.046 L 239.871 208.643 L 239.654 208.325 L 239.316 208.128 L 238.878 208.053 L 238.393 208.153 L 238.025 208.436 L 237.793 208.895 L 237.713 209.51 L 237.788 210.12 L 238.015 210.574 L 238.373 210.857 L 238.862 210.952 L 239.296 210.877 L 239.634 210.665 L 239.866 210.332 L 239.967 209.888 L 239.543 209.888 L 239.468 210.171 L 239.326 210.383 L 239.125 210.514 L 238.878 210.554 L 238.57 210.488 L 238.348 210.287 L 238.212 209.959 L 238.166 209.495 L 238.212 209.041 L 238.353 208.713 L 238.58 208.512 L 238.878 208.441 L 239.14 208.486 L 239.336 208.602 L 239.468 208.794 L 239.523 209.046 L 239.523 209.046 z M 241.223 209.631 L 242.998 209.631 L 243.003 209.424 L 242.922 208.844 L 242.7 208.411 L 242.347 208.148 L 241.878 208.053 L 241.419 208.153 L 241.066 208.436 L 240.839 208.895 L 240.759 209.5 L 240.834 210.12 L 241.061 210.574 L 241.409 210.857 L 241.863 210.952 L 242.257 210.887 L 242.579 210.715 L 242.816 210.443 L 242.952 210.08 L 242.514 210.08 L 242.423 210.282 L 242.292 210.433 L 241.919 210.554 L 241.631 210.499 L 241.414 210.322 L 241.273 210.035 L 241.223 209.646 L 241.223 209.631 L 241.223 209.631 z M 241.223 209.258 L 241.278 208.91 L 241.414 208.653 L 241.621 208.496 L 241.893 208.441 L 242.161 208.496 L 242.367 208.653 L 242.494 208.91 L 242.539 209.258 L 241.223 209.258 L 241.223 209.258 z" stroke="none" fill-rule="evenodd" fill="rgb(0, 0, 0)"/></g><g stroke="rgb(0, 0, 0)" stroke-width="0.13" stroke-linecap="butt" stroke-linejoin="miter" fill="none"><path d="M 210.459 216.903 L 212.678 216.903 L 212.678 216.48 L 210.923 216.48 L 210.923 215.295 L 212.486 215.295 L 212.486 214.876 L 210.923 214.876 L 210.923 213.827 L 212.638 213.827 L 212.638 213.403 L 210.459 213.403 L 210.459 216.903 L 210.459 216.903 z M 215.235 215.093 L 215.674 215.093 L 215.583 214.689 L 215.366 214.372 L 215.028 214.175 L 214.589 214.099 L 214.105 214.2 L 213.737 214.483 L 213.505 214.942 L 213.424 215.557 L 213.5 216.167 L 213.727 216.621 L 214.085 216.903 L 214.574 216.999 L 215.008 216.924 L 215.346 216.712 L 215.578 216.379 L 215.679 215.935 L 215.255 215.935 L 215.179 216.218 L 215.038 216.429 L 214.836 216.561 L 214.589 216.601 L 214.282 216.535 L 214.06 216.334 L 213.924 216.006 L 213.878 215.542 L 213.924 215.088 L 214.065 214.76 L 214.292 214.558 L 214.589 214.488 L 214.852 214.533 L 215.048 214.649 L 215.179 214.841 L 215.235 215.093 L 215.235 215.093 z M 216.546 216.903 L 216.99 216.903 L 216.99 215.34 L 217.035 214.982 L 217.182 214.72 L 217.409 214.558 L 217.711 214.498 L 217.953 214.548 L 218.104 214.684 L 218.18 214.911 L 218.205 215.214 L 218.205 216.903 L 218.649 216.903 L 218.649 215.123 L 218.629 214.765 L 218.538 214.468 L 218.241 214.195 L 217.777 214.099 L 217.525 214.135 L 217.308 214.231 L 217.126 214.382 L 216.99 214.589 L 216.99 213.282 L 216.546 213.282 L 216.546 216.903 L 216.546 216.903 z M 219.97 215.678 L 221.746 215.678 L 221.751 215.471 L 221.67 214.891 L 221.448 214.457 L 221.095 214.195 L 220.626 214.099 L 220.167 214.2 L 219.814 214.483 L 219.587 214.942 L 219.507 215.547 L 219.582 216.167 L 219.809 216.621 L 220.157 216.903 L 220.611 216.999 L 221.004 216.934 L 221.327 216.762 L 221.564 216.49 L 221.7 216.127 L 221.262 216.127 L 221.171 216.329 L 221.04 216.48 L 220.666 216.601 L 220.379 216.545 L 220.162 216.369 L 220.021 216.081 L 219.97 215.693 L 219.97 215.678 L 219.97 215.678 z M 219.97 215.305 L 220.026 214.957 L 220.162 214.7 L 220.369 214.543 L 220.641 214.488 L 220.909 214.543 L 221.115 214.7 L 221.241 214.957 L 221.287 215.305 L 219.97 215.305 L 219.97 215.305 z M 223.501 213.656 L 223.501 216.53 L 222.588 216.53 L 222.588 216.903 L 224.852 216.903 L 224.852 216.53 L 223.945 216.53 L 223.945 213.282 L 222.805 213.282 L 222.805 213.656 L 223.501 213.656 L 223.501 213.656 z M 226.537 213.656 L 226.537 216.53 L 225.624 216.53 L 225.624 216.903 L 227.888 216.903 L 227.888 216.53 L 226.981 216.53 L 226.981 213.282 L 225.841 213.282 L 225.841 213.656 L 226.537 213.656 L 226.537 213.656 z M 229.079 215.678 L 230.854 215.678 L 230.859 215.471 L 230.778 214.891 L 230.556 214.457 L 230.203 214.195 L 229.734 214.099 L 229.275 214.2 L 228.922 214.483 L 228.695 214.942 L 228.615 215.547 L 228.69 216.167 L 228.917 216.621 L 229.265 216.903 L 229.719 216.999 L 230.112 216.934 L 230.435 216.762 L 230.672 216.49 L 230.808 216.127 L 230.37 216.127 L 230.279 216.329 L 230.148 216.48 L 229.775 216.601 L 229.487 216.545 L 229.27 216.369 L 229.129 216.081 L 229.079 215.693 L 229.079 215.678 L 229.079 215.678 z M 229.079 215.305 L 229.134 214.957 L 229.27 214.7 L 229.477 214.543 L 229.749 214.488 L 230.017 214.543 L 230.223 214.7 L 230.349 214.957 L 230.395 215.305 L 229.079 215.305 L 229.079 215.305 z M 235.458 216.903 L 236.154 216.903 L 236.154 216.152 L 235.458 216.152 L 235.458 216.903 L 235.458 216.903 z M 235.458 214.947 L 236.154 214.947 L 236.154 214.195 L 235.458 214.195 L 235.458 214.947 L 235.458 214.947 z" stroke="none" fill-rule="evenodd" fill="rgb(0, 0, 0)"/></g><g stroke="rgb(0, 0, 0)" stroke-width="0.13" stroke-linecap="butt" stroke-linejoin="miter" fill="none"><path d="M 244.823 216.903 L 245.282 216.903 L 245.282 213.378 L 244.939 213.378 L 244.849 213.686 L 244.667 213.893 L 244.39 214.014 L 244.006 214.054 L 244.006 214.412 L 244.823 214.412 L 244.823 216.903 L 244.823 216.903 z M 247.602 216.903 L 248.298 216.903 L 248.298 216.152 L 247.602 216.152 L 247.602 216.903 L 247.602 216.903 z M 247.602 214.947 L 248.298 214.947 L 248.298 214.195 L 247.602 214.195 L 247.602 214.947 L 247.602 214.947 z M 250.896 216.903 L 251.354 216.903 L 251.354 213.378 L 251.012 213.378 L 250.921 213.686 L 250.739 213.893 L 250.462 214.014 L 250.079 214.054 L 250.079 214.412 L 250.896 214.412 L 250.896 216.903 L 250.896 216.903 z" stroke="none" fill-rule="evenodd" fill="rgb(0, 0, 0)"/></g></svg>