<?xml version="1.0" encoding="utf-8"?>
<!-- Generator: Adobe Illustrator 22.0.1, SVG Export Plug-In . SVG Version: 6.00 Build 0)  -->
<svg version="1.1" id="Calque_1" dsy:text-version="18000" xmlns:dsy="http://www.3ds.com/print"
	 xmlns="http://www.w3.org/2000/svg" xmlns:xlink="http://www.w3.org/1999/xlink" x="0px" y="0px" viewBox="0 0 1343.3 992"
	 style="enable-background:new 0 0 1343.3 992;" xml:space="preserve">
<style type="text/css">
	.st0{fill:none;stroke:#FF0000;stroke-width:2.834646e-02;}
</style>
<g>
	<path class="st0" d="M409.1,294.7c-3.2-12.1-15.7-19.3-27.8-16.1c-3.4,0.9-6.5,2.6-9.1,4.9"/>
	<path class="st0" d="M946.6,678.1l70.9-1.2"/>
	<path class="st0" d="M947.7,737.6l-1-59.5"/>
	<path class="st0" d="M1017.5,676.9l0.7,42.8"/>
	<path class="st0" d="M919.8,766.4c15.7-0.3,28.1-13.2,27.9-28.8"/>
	<path class="st0" d="M875.7,767.2l44.1-0.7"/>
	<path class="st0" d="M875.4,767.2l0.3,0"/>
	<path class="st0" d="M868.7,824l6.7-56.7"/>
	<path class="st0" d="M852.1,822l16.6,2"/>
	<path class="st0" d="M858.6,767.5l-6.5,54.5"/>
	<path class="st0" d="M312.7,833.5l6.8-56.8"/>
	<path class="st0" d="M296.1,831.5l16.6,2"/>
	<path class="st0" d="M302.5,776.9l-6.5,54.6"/>
	<path class="st0" d="M302.2,776.9l0.3,0"/>
	<path class="st0" d="M258.2,777.7l44.1-0.8"/>
	<path class="st0" d="M229.3,749.8c0.3,15.7,13.2,28.1,28.8,27.9"/>
	<path class="st0" d="M186.5,733.5l-28.3,0.5"/>
	<path class="st0" d="M186.8,750.6l-0.3-17"/>
	<path class="st0" d="M158.5,751l28.3-0.5"/>
	<path class="st0" d="M159,779.4l-0.5-28.3"/>
	<path class="st0" d="M127.2,808c15.5,1.9,29.7-9.2,31.6-24.7c0.2-1.3,0.2-2.6,0.2-3.9"/>
	<path class="st0" d="M117,893.5l10.2-85.5"/>
	<path class="st0" d="M1033.8,877.9L117,893.5"/>
	<path class="st0" d="M1044,792.4l-10.2,85.5"/>
	<path class="st0" d="M1019,764.8c0.2,14.2,10.9,26,25,27.7"/>
	<path class="st0" d="M1018.5,736.4l0.5,28.3"/>
	<path class="st0" d="M990.2,736.9l28.3-0.5"/>
	<path class="st0" d="M989.9,720.2l0.3,16.7"/>
	<path class="st0" d="M1018.2,719.7l-28.3,0.5"/>
	<path class="st0" d="M228.3,690.3l1,59.5"/>
	<path class="st0" d="M228.3,690.3l-3.1-182.9"/>
	<path class="st0" d="M163.6,467.3l208.6-183.7"/>
	<path class="st0" d="M157.5,691.5L154,489"/>
	<path class="st0" d="M158.2,734l-0.7-42.5"/>
	<path class="st0" d="M163.6,467.3c-6.2,5.5-9.7,13.4-9.6,21.8"/>
	<path class="st0" d="M225.2,507.4l101.2-89.1"/>
	<path class="st0" d="M372.5,432.3c-4-15.1-19.6-24.1-34.7-20.1c-4.2,1.1-8.1,3.2-11.4,6.1"/>
	<path class="st0" d="M531.1,751.5l-122-456.9"/>
	<path class="st0" d="M559,772.6l299.6-5.1"/>
	<path class="st0" d="M531.1,751.5c3.4,12.6,14.9,21.3,27.9,21"/>
	<path class="st0" d="M454.4,739.2l-81.9-306.9"/>
	<path class="st0" d="M319.4,776.6l108.1-1.8"/>
	<path class="st0" d="M427.5,774.8c15.7-0.3,28.1-13.2,27.9-28.8c0-2.3-0.4-4.6-1-6.8"/>
</g>
<g>
	<path class="st0" d="M661.5,760.1l0.2-42.5"/>
	<path class="st0" d="M661.5,760.1l0.2-42.5"/>
	<path class="st0" d="M661.7,717.6l-42.5-0.2"/>
	<path class="st0" d="M619.2,717.4l0.1-17"/>
	<path class="st0" d="M619.2,717.4l0.1-17"/>
	<path class="st0" d="M619.2,700.4l42.5,0.2"/>
	<path class="st0" d="M619.2,700.4l42.5,0.2"/>
	<path class="st0" d="M661.8,700.6l0.3-75.1"/>
	<path class="st0" d="M661.7,700.5l0.3-75.1"/>
	<path class="st0" d="M619.5,625.2l42.5,0.2"/>
	<path class="st0" d="M619.5,625.2l0.1-17"/>
	<path class="st0" d="M619.5,625.2l0.1-17"/>
	<path class="st0" d="M619.6,608.2l42.5,0.2"/>
	<path class="st0" d="M619.6,608.2l42.5,0.2"/>
	<path class="st0" d="M662.1,608.4l0.9-219.7"/>
	<path class="st0" d="M662.1,608.4l0.9-219.7"/>
	<path class="st0" d="M663,388.7l-42.5-0.2"/>
	<path class="st0" d="M620.5,388.6l0.1-17"/>
	<path class="st0" d="M620.5,388.6l0.1-17"/>
	<path class="st0" d="M620.5,371.6l42.5,0.2"/>
	<path class="st0" d="M620.5,371.6l42.5,0.2"/>
	<path class="st0" d="M663.1,371.7l0.4-99.2"/>
	<path class="st0" d="M663.1,371.7l0.4-99.2"/>
	<path class="st0" d="M663.4,272.5l-42.5-0.2"/>
	<path class="st0" d="M620.9,272.4l0.1-17"/>
	<path class="st0" d="M620.9,272.4l0.1-17"/>
	<path class="st0" d="M621,255.4l42.5,0.2"/>
	<path class="st0" d="M621,255.3l42.5,0.2"/>
	<path class="st0" d="M663.5,255.5l0.2-42.5"/>
	<path class="st0" d="M663.5,255.5l0.2-42.5"/>
	<path class="st0" d="M663.7,213l-113.4-0.5"/>
	<path class="st0" d="M548.1,759.6l2.2-547.1"/>
	<path class="st0" d="M661.5,760.1l-113.4-0.5"/>
	<path class="st0" d="M661.5,760.1l-113.4-0.5"/>
</g>
<g>
	<path class="st0" d="M687.4,220.4v42.5"/>
	<path class="st0" d="M687.4,220.4v42.5"/>
	<path class="st0" d="M687.4,262.9h42.5"/>
	<path class="st0" d="M729.9,262.9v17"/>
	<path class="st0" d="M729.9,262.9v17"/>
	<path class="st0" d="M729.9,279.9h-42.5"/>
	<path class="st0" d="M729.9,279.9h-42.5"/>
	<path class="st0" d="M687.4,279.9V355"/>
	<path class="st0" d="M687.4,279.9V355"/>
	<path class="st0" d="M729.9,355h-42.5"/>
	<path class="st0" d="M729.9,355v17"/>
	<path class="st0" d="M729.9,355v17"/>
	<path class="st0" d="M729.9,372h-42.5"/>
	<path class="st0" d="M729.9,372h-42.5"/>
	<path class="st0" d="M687.4,372v219.7"/>
	<path class="st0" d="M687.4,372v219.7"/>
	<path class="st0" d="M687.4,591.7h42.5"/>
	<path class="st0" d="M729.9,591.7v17"/>
	<path class="st0" d="M729.9,591.7v17"/>
	<path class="st0" d="M729.9,608.7h-42.5"/>
	<path class="st0" d="M729.9,608.7h-42.5"/>
	<path class="st0" d="M687.4,608.7v99.2"/>
	<path class="st0" d="M687.4,608.7v99.2"/>
	<path class="st0" d="M687.4,707.9h42.5"/>
	<path class="st0" d="M729.9,707.9v17"/>
	<path class="st0" d="M729.9,707.9v17"/>
	<path class="st0" d="M729.9,724.9h-42.5"/>
	<path class="st0" d="M729.9,724.9h-42.5"/>
	<path class="st0" d="M687.4,724.9v42.5"/>
	<path class="st0" d="M687.4,724.9v42.5"/>
	<path class="st0" d="M687.4,767.4h113.4"/>
	<path class="st0" d="M800.8,220.4v547.1"/>
	<path class="st0" d="M687.4,220.4h113.4"/>
	<path class="st0" d="M687.4,220.4h113.4"/>
</g>
</svg>
