<?xml version="1.0" encoding="utf-8" ?><!DOCTYPE svg PUBLIC "-//W3C//DTD SVG 1.1//EN" "http://www.w3.org/Graphics/SVG/1.1/DTD/svg11.dtd" 
[ <!ATTLIST svg 
  xmlns:dsy CDATA #FIXED "http://www.3ds.com/print"  
    dsy:text-version CDATA #IMPLIED > 

  <!ATTLIST text 
  xmlns:dsy CDATA #FIXED "http://www.3ds.com/print" 
    dsy:text-version CDATA #IMPLIED > 
]><svg xmlns="http://www.w3.org/2000/svg" xmlns:dsy="http://www.3ds.com/print" dsy:text-version="18000" width="420" height="297" viewBox="0 0 420 297" version="1.1"><g stroke="rgb(0, 0, 0)" stroke-width="0.13" stroke-linecap="butt" stroke-linejoin="miter" fill="none"><path d="M 205.789 214.626 L 290.4 214.626"/><path d="M 205.789 109.626 L 290.4 109.626"/></g><g stroke="rgb(0, 0, 0)" stroke-width="0.35" stroke-linecap="butt" stroke-linejoin="miter" fill="none"><path d="M 178.789 214.626 L 178.789 109.626"/><path d="M 178.789 214.626 L 203.789 214.626"/><path d="M 203.789 214.626 L 203.789 109.626"/><path d="M 178.789 109.626 L 203.789 109.626"/></g><g stroke="rgb(0, 0, 0)" stroke-width="0.13" stroke-linecap="butt" stroke-linejoin="miter" fill="none"><path d="M 193.685 222.978 L 192.807 225.959 L 191.904 222.978 L 191.425 222.978 L 192.555 226.483 L 193.059 226.483 L 194.164 222.978 L 193.685 222.978 L 193.685 222.978 z M 196.887 223.775 L 196.443 223.775 L 196.443 225.338 L 196.393 225.701 L 196.246 225.964 L 196.02 226.125 L 195.722 226.175 L 195.485 226.135 L 195.334 226.014 L 195.248 225.807 L 195.228 225.515 L 195.228 223.775 L 194.784 223.775 L 194.784 225.555 L 194.799 225.913 L 194.895 226.211 L 195.187 226.483 L 195.656 226.579 L 195.909 226.544 L 196.125 226.453 L 196.312 226.297 L 196.463 226.07 L 196.463 226.483 L 196.887 226.483 L 196.887 223.775 L 196.887 223.775 z M 198.223 225.258 L 199.999 225.258 L 200.004 225.051 L 199.923 224.471 L 199.701 224.037 L 199.348 223.775 L 198.879 223.679 L 198.42 223.78 L 198.067 224.062 L 197.84 224.521 L 197.759 225.126 L 197.835 225.747 L 198.062 226.201 L 198.41 226.483 L 198.864 226.579 L 199.257 226.513 L 199.58 226.342 L 199.817 226.07 L 199.953 225.706 L 199.515 225.706 L 199.424 225.908 L 199.293 226.059 L 198.919 226.181 L 198.632 226.125 L 198.415 225.949 L 198.274 225.661 L 198.223 225.273 L 198.223 225.258 L 198.223 225.258 z M 198.223 224.884 L 198.279 224.536 L 198.415 224.279 L 198.622 224.123 L 198.894 224.067 L 199.161 224.123 L 199.368 224.279 L 199.494 224.536 L 199.54 224.884 L 198.223 224.884 L 198.223 224.884 z M 205.571 226.065 L 205.571 226.483 L 206.015 226.483 L 206.015 222.862 L 205.576 222.862 L 205.576 224.188 L 205.239 223.805 L 205.032 223.714 L 204.795 223.679 L 204.366 223.78 L 204.033 224.062 L 203.816 224.516 L 203.741 225.126 L 203.816 225.737 L 204.033 226.196 L 204.366 226.483 L 204.795 226.579 L 205.032 226.544 L 205.244 226.453 L 205.571 226.065 L 205.571 226.065 z M 204.87 224.077 L 205.163 224.148 L 205.385 224.345 L 205.516 224.673 L 205.566 225.126 L 205.516 225.585 L 205.385 225.913 L 205.163 226.115 L 204.87 226.181 L 204.593 226.115 L 204.381 225.913 L 204.24 225.58 L 204.195 225.126 L 204.24 224.678 L 204.381 224.35 L 204.593 224.148 L 204.87 224.077 L 204.87 224.077 z M 207.332 225.258 L 209.107 225.258 L 209.112 225.051 L 209.031 224.471 L 208.809 224.037 L 208.456 223.775 L 207.987 223.679 L 207.528 223.78 L 207.175 224.062 L 206.948 224.521 L 206.868 225.126 L 206.943 225.747 L 207.17 226.201 L 207.518 226.483 L 207.972 226.579 L 208.365 226.513 L 208.688 226.342 L 208.925 226.07 L 209.061 225.706 L 208.623 225.706 L 208.532 225.908 L 208.401 226.059 L 208.027 226.181 L 207.74 226.125 L 207.523 225.949 L 207.382 225.661 L 207.332 225.273 L 207.332 225.258 L 207.332 225.258 z M 207.332 224.884 L 207.387 224.536 L 207.523 224.279 L 207.73 224.123 L 208.002 224.067 L 208.27 224.123 L 208.476 224.279 L 208.602 224.536 L 208.648 224.884 L 207.332 224.884 L 207.332 224.884 z M 213.631 224.244 L 213.631 226.483 L 214.074 226.483 L 214.074 224.244 L 215.083 224.244 L 215.083 223.866 L 214.074 223.866 L 214.074 223.699 L 214.11 223.498 L 214.226 223.361 L 214.422 223.281 L 214.705 223.25 L 215.083 223.271 L 215.083 222.887 L 214.604 222.862 L 214.17 222.907 L 213.868 223.044 L 213.686 223.281 L 213.631 223.619 L 213.631 223.866 L 212.819 223.866 L 212.819 224.244 L 213.631 224.244 L 213.631 224.244 z M 217.66 226.13 L 217.66 226.145 L 217.685 226.317 L 217.761 226.438 L 218.079 226.534 L 218.326 226.493 L 218.326 226.15 L 218.22 226.165 L 218.079 226.1 L 218.053 225.898 L 218.053 224.496 L 217.993 224.138 L 217.816 223.886 L 217.509 223.735 L 217.075 223.679 L 216.651 223.74 L 216.339 223.911 L 216.142 224.178 L 216.076 224.531 L 216.076 224.562 L 216.475 224.562 L 216.51 224.35 L 216.621 224.199 L 216.803 224.108 L 217.06 224.072 L 217.307 224.098 L 217.484 224.173 L 217.589 224.304 L 217.625 224.486 L 217.605 224.698 L 217.524 224.804 L 217.322 224.854 L 216.944 224.894 L 216.51 224.985 L 216.203 225.147 L 216.021 225.399 L 215.966 225.772 L 216.016 226.105 L 216.172 226.352 L 216.424 226.508 L 216.772 226.564 L 217.241 226.458 L 217.66 226.13 L 217.66 226.13 z M 217.61 225.535 L 217.549 225.797 L 217.388 225.999 L 217.146 226.13 L 216.848 226.175 L 216.656 226.15 L 216.52 226.07 L 216.435 225.928 L 216.409 225.732 L 216.43 225.555 L 216.51 225.429 L 216.833 225.288 L 217.241 225.227 L 217.61 225.106 L 217.61 225.535 L 217.61 225.535 z M 220.812 224.673 L 221.251 224.673 L 221.16 224.269 L 220.943 223.951 L 220.605 223.755 L 220.167 223.679 L 219.682 223.78 L 219.314 224.062 L 219.082 224.521 L 219.002 225.137 L 219.077 225.747 L 219.304 226.201 L 219.662 226.483 L 220.151 226.579 L 220.585 226.503 L 220.923 226.291 L 221.155 225.959 L 221.256 225.515 L 220.832 225.515 L 220.757 225.797 L 220.615 226.009 L 220.414 226.14 L 220.167 226.181 L 219.859 226.115 L 219.637 225.913 L 219.501 225.585 L 219.455 225.121 L 219.501 224.668 L 219.642 224.34 L 219.869 224.138 L 220.167 224.067 L 220.429 224.113 L 220.625 224.229 L 220.757 224.42 L 220.812 224.673 L 220.812 224.673 z M 222.512 225.258 L 224.287 225.258 L 224.292 225.051 L 224.211 224.471 L 223.989 224.037 L 223.636 223.775 L 223.167 223.679 L 222.708 223.78 L 222.355 224.062 L 222.128 224.521 L 222.048 225.126 L 222.123 225.747 L 222.35 226.201 L 222.698 226.483 L 223.152 226.579 L 223.546 226.513 L 223.868 226.342 L 224.105 226.07 L 224.241 225.706 L 223.803 225.706 L 223.712 225.908 L 223.581 226.059 L 223.208 226.181 L 222.92 226.125 L 222.703 225.949 L 222.562 225.661 L 222.512 225.273 L 222.512 225.258 L 222.512 225.258 z M 222.512 224.884 L 222.567 224.536 L 222.703 224.279 L 222.91 224.123 L 223.182 224.067 L 223.45 224.123 L 223.656 224.279 L 223.783 224.536 L 223.828 224.884 L 222.512 224.884 L 222.512 224.884 z" stroke="none" fill-rule="evenodd" fill="rgb(0, 0, 0)"/></g><g stroke="rgb(0, 0, 0)" stroke-width="0.13" stroke-linecap="butt" stroke-linejoin="miter" fill="none"><path d="M 191.748 232.53 L 193.967 232.53 L 193.967 232.106 L 192.212 232.106 L 192.212 230.921 L 193.775 230.921 L 193.775 230.503 L 192.212 230.503 L 192.212 229.454 L 193.927 229.454 L 193.927 229.03 L 191.748 229.03 L 191.748 232.53 L 191.748 232.53 z M 196.524 230.719 L 196.963 230.719 L 196.872 230.316 L 196.655 229.998 L 196.317 229.802 L 195.878 229.726 L 195.394 229.827 L 195.026 230.109 L 194.794 230.568 L 194.713 231.183 L 194.789 231.794 L 195.016 232.248 L 195.374 232.53 L 195.863 232.626 L 196.297 232.55 L 196.635 232.338 L 196.867 232.005 L 196.968 231.562 L 196.544 231.562 L 196.468 231.844 L 196.327 232.056 L 196.125 232.187 L 195.878 232.227 L 195.571 232.162 L 195.349 231.96 L 195.213 231.632 L 195.167 231.168 L 195.213 230.714 L 195.354 230.387 L 195.581 230.185 L 195.878 230.114 L 196.141 230.16 L 196.337 230.276 L 196.468 230.467 L 196.524 230.719 L 196.524 230.719 z M 197.835 232.53 L 198.279 232.53 L 198.279 230.967 L 198.324 230.608 L 198.471 230.346 L 198.698 230.185 L 199 230.124 L 199.242 230.175 L 199.393 230.311 L 199.469 230.538 L 199.494 230.84 L 199.494 232.53 L 199.938 232.53 L 199.938 230.75 L 199.918 230.392 L 199.827 230.094 L 199.53 229.822 L 199.066 229.726 L 198.814 229.761 L 198.597 229.857 L 198.415 230.008 L 198.279 230.215 L 198.279 228.909 L 197.835 228.909 L 197.835 232.53 L 197.835 232.53 z M 201.259 231.304 L 203.035 231.304 L 203.04 231.098 L 202.959 230.518 L 202.737 230.084 L 202.384 229.822 L 201.915 229.726 L 201.456 229.827 L 201.103 230.109 L 200.876 230.568 L 200.796 231.173 L 200.871 231.794 L 201.098 232.248 L 201.446 232.53 L 201.9 232.626 L 202.293 232.56 L 202.616 232.389 L 202.853 232.116 L 202.989 231.753 L 202.551 231.753 L 202.46 231.955 L 202.329 232.106 L 201.955 232.227 L 201.668 232.172 L 201.451 231.995 L 201.31 231.708 L 201.259 231.32 L 201.259 231.304 L 201.259 231.304 z M 201.259 230.931 L 201.315 230.583 L 201.451 230.326 L 201.658 230.17 L 201.93 230.114 L 202.198 230.17 L 202.404 230.326 L 202.53 230.583 L 202.576 230.931 L 201.259 230.931 L 201.259 230.931 z M 204.79 229.282 L 204.79 232.157 L 203.877 232.157 L 203.877 232.53 L 206.141 232.53 L 206.141 232.157 L 205.234 232.157 L 205.234 228.909 L 204.094 228.909 L 204.094 229.282 L 204.79 229.282 L 204.79 229.282 z M 207.826 229.282 L 207.826 232.157 L 206.913 232.157 L 206.913 232.53 L 209.177 232.53 L 209.177 232.157 L 208.27 232.157 L 208.27 228.909 L 207.13 228.909 L 207.13 229.282 L 207.826 229.282 L 207.826 229.282 z M 210.368 231.304 L 212.143 231.304 L 212.148 231.098 L 212.067 230.518 L 211.845 230.084 L 211.492 229.822 L 211.023 229.726 L 210.564 229.827 L 210.211 230.109 L 209.984 230.568 L 209.904 231.173 L 209.979 231.794 L 210.206 232.248 L 210.554 232.53 L 211.008 232.626 L 211.401 232.56 L 211.724 232.389 L 211.961 232.116 L 212.097 231.753 L 211.659 231.753 L 211.568 231.955 L 211.437 232.106 L 211.064 232.227 L 210.776 232.172 L 210.559 231.995 L 210.418 231.708 L 210.368 231.32 L 210.368 231.304 L 210.368 231.304 z M 210.368 230.931 L 210.423 230.583 L 210.559 230.326 L 210.766 230.17 L 211.038 230.114 L 211.306 230.17 L 211.512 230.326 L 211.638 230.583 L 211.684 230.931 L 210.368 230.931 L 210.368 230.931 z M 216.747 232.53 L 217.443 232.53 L 217.443 231.778 L 216.747 231.778 L 216.747 232.53 L 216.747 232.53 z M 216.747 230.573 L 217.443 230.573 L 217.443 229.822 L 216.747 229.822 L 216.747 230.573 L 216.747 230.573 z" stroke="none" fill-rule="evenodd" fill="rgb(0, 0, 0)"/></g><g stroke="rgb(0, 0, 0)" stroke-width="0.13" stroke-linecap="butt" stroke-linejoin="miter" fill="none"><path d="M 226.112 232.53 L 226.571 232.53 L 226.571 229.005 L 226.228 229.005 L 226.138 229.312 L 225.956 229.519 L 225.679 229.64 L 225.295 229.681 L 225.295 230.039 L 226.112 230.039 L 226.112 232.53 L 226.112 232.53 z M 228.891 232.53 L 229.587 232.53 L 229.587 231.778 L 228.891 231.778 L 228.891 232.53 L 228.891 232.53 z M 228.891 230.573 L 229.587 230.573 L 229.587 229.822 L 228.891 229.822 L 228.891 230.573 L 228.891 230.573 z M 232.185 232.53 L 232.643 232.53 L 232.643 229.005 L 232.301 229.005 L 232.21 229.312 L 232.028 229.519 L 231.751 229.64 L 231.368 229.681 L 231.368 230.039 L 232.185 230.039 L 232.185 232.53 L 232.185 232.53 z" stroke="none" fill-rule="evenodd" fill="rgb(0, 0, 0)"/></g><g stroke="rgb(0, 0, 0)" stroke-width="0.13" stroke-linecap="butt" stroke-linejoin="miter" fill="none"><path d="M 286.4 165.953 L 286.4 165.494 L 282.874 165.494 L 282.874 165.837 L 283.182 165.928 L 283.389 166.11 L 283.51 166.387 L 283.55 166.77 L 283.908 166.77 L 283.908 165.953 L 286.4 165.953 L 286.4 165.953 z M 284.69 163.342 L 285.482 163.266 L 286.047 163.029 L 286.39 162.651 L 286.501 162.126 L 286.39 161.607 L 286.047 161.229 L 285.482 160.997 L 284.69 160.916 L 283.903 160.997 L 283.591 161.093 L 283.333 161.229 L 282.99 161.607 L 282.874 162.126 L 282.99 162.651 L 283.338 163.029 L 283.903 163.266 L 284.69 163.342 L 284.69 163.342 z M 284.69 162.858 L 284.08 162.817 L 283.641 162.691 L 283.384 162.464 L 283.293 162.126 L 283.384 161.794 L 283.641 161.567 L 284.08 161.441 L 284.69 161.4 L 285.305 161.441 L 285.744 161.567 L 286.001 161.794 L 286.087 162.126 L 286.001 162.464 L 285.744 162.691 L 285.305 162.817 L 284.69 162.858 L 284.69 162.858 z M 285.487 159.641 L 285.9 159.53 L 286.223 159.283 L 286.425 158.92 L 286.501 158.456 L 286.41 157.947 L 286.163 157.548 L 285.769 157.296 L 285.265 157.2 L 284.796 157.286 L 284.428 157.528 L 284.191 157.906 L 284.105 158.395 L 284.165 158.774 L 284.332 159.066 L 283.389 158.925 L 283.389 157.392 L 282.975 157.392 L 282.975 159.263 L 284.831 159.54 L 284.831 159.137 L 284.594 158.844 L 284.508 158.471 L 284.564 158.148 L 284.725 157.901 L 284.972 157.745 L 285.29 157.689 L 285.608 157.745 L 285.855 157.906 L 286.011 158.153 L 286.067 158.471 L 286.031 158.738 L 285.915 158.945 L 285.734 159.096 L 285.487 159.172 L 285.487 159.641 L 285.487 159.641 z" stroke="none" fill-rule="evenodd" fill="rgb(0, 0, 0)"/><path d="M 287.882 212.695 L 288.4 214.626 L 288.917 212.695"/><path d="M 288.917 111.558 L 288.4 109.626 L 287.882 111.558"/><path d="M 288.4 214.626 L 288.4 109.626"/></g></svg>