<?xml version="1.0" encoding="utf-8" ?><!DOCTYPE svg PUBLIC "-//W3C//DTD SVG 1.1//EN" "http://www.w3.org/Graphics/SVG/1.1/DTD/svg11.dtd" 
[ <!ATTLIST svg 
  xmlns:dsy CDATA #FIXED "http://www.3ds.com/print"  
    dsy:text-version CDATA #IMPLIED > 

  <!ATTLIST text 
  xmlns:dsy CDATA #FIXED "http://www.3ds.com/print" 
    dsy:text-version CDATA #IMPLIED > 
]><svg xmlns="http://www.w3.org/2000/svg" xmlns:dsy="http://www.3ds.com/print" dsy:text-version="18000" width="420" height="297" viewBox="0 0 420 297" version="1.1"><g stroke="rgb(0, 0, 0)" stroke-width="0.13" stroke-linecap="butt" stroke-linejoin="miter" fill="none"><path d="M 41.6346 209.951 L 41.6346 189.21"/><path d="M 366.635 209.951 L 366.635 189.21"/></g><g stroke="rgb(0, 0, 0)" stroke-width="0.35" stroke-linecap="butt" stroke-linejoin="miter" fill="none"><path d="M 375.778 20.8956 L 375.778 159.466"/><path d="M 375.778 159.466 L 351.03 159.466"/><path d="M 351.03 159.466 L 351.03 142.027"/><path d="M 351.03 142.027 A 10 10 0 0 0 341.03 132.027"/><path d="M 341.03 132.027 L 335.778 132.027"/><path d="M 335.778 95.9229 L 335.778 132.027"/><path d="M 355.778 95.9229 L 335.778 95.9229"/><path d="M 355.778 90.2229 L 355.778 95.9229"/><path d="M 335.778 90.2229 L 355.778 90.2229"/><path d="M 335.778 20.8956 L 335.778 90.2229"/><path d="M 375.778 20.8956 L 335.778 20.8956"/><path d="M 299.693 21.2999 L 299.693 159.87"/><path d="M 299.693 159.87 L 274.945 159.87"/><path d="M 274.945 159.87 L 274.945 142.431"/><path d="M 274.945 142.431 A 10 10 0 0 0 264.945 132.431"/><path d="M 264.945 132.431 L 259.693 132.431"/><path d="M 259.693 96.3272 L 259.693 132.431"/><path d="M 279.693 96.3272 L 259.693 96.3272"/><path d="M 279.693 90.6272 L 279.693 96.3272"/><path d="M 259.693 90.6272 L 279.693 90.6272"/><path d="M 259.693 21.2999 L 259.693 90.6272"/><path d="M 299.693 21.2999 L 259.693 21.2999"/><path d="M 41.6346 211.951 L 41.6346 234.2"/><path d="M 41.6346 234.2 L 51.6346 234.2"/><path d="M 64.1346 246.7 A 12.5 12.5 0 0 0 51.6346 234.2"/><path d="M 64.1346 246.7 L 64.1346 251.951"/><path d="M 64.1346 251.951 L 344.135 251.951"/><path d="M 344.135 251.951 L 344.135 246.7"/><path d="M 356.635 234.2 A 12.5 12.5 0 0 0 344.135 246.7"/><path d="M 366.635 234.2 L 356.635 234.2"/><path d="M 366.635 211.951 L 366.635 234.2"/><path d="M 266.635 211.951 L 366.635 211.951"/><path d="M 266.635 231.951 L 266.635 211.951"/><path d="M 260.635 231.951 L 266.635 231.951"/><path d="M 260.635 211.951 L 260.635 231.951"/><path d="M 147.635 211.951 L 260.635 211.951"/><path d="M 147.635 231.951 L 147.635 211.951"/><path d="M 141.635 231.951 L 147.635 231.951"/><path d="M 141.635 211.951 L 141.635 231.951"/><path d="M 41.6346 211.951 L 141.635 211.951"/></g><g stroke="rgb(0, 0, 0)" stroke-width="0.13" stroke-linecap="butt" stroke-linejoin="miter" fill="none"><path d="M 206.53 260.303 L 205.653 263.283 L 204.75 260.303 L 204.271 260.303 L 205.4 263.808 L 205.905 263.808 L 207.009 260.303 L 206.53 260.303 L 206.53 260.303 z M 209.733 261.1 L 209.289 261.1 L 209.289 262.663 L 209.238 263.026 L 209.092 263.288 L 208.865 263.45 L 208.568 263.5 L 208.331 263.46 L 208.179 263.339 L 208.094 263.132 L 208.073 262.84 L 208.073 261.1 L 207.63 261.1 L 207.63 262.88 L 207.645 263.238 L 207.741 263.536 L 208.033 263.808 L 208.502 263.904 L 208.754 263.868 L 208.971 263.778 L 209.158 263.621 L 209.309 263.394 L 209.309 263.808 L 209.733 263.808 L 209.733 261.1 L 209.733 261.1 z M 211.069 262.582 L 212.844 262.582 L 212.849 262.376 L 212.769 261.796 L 212.547 261.362 L 212.194 261.1 L 211.725 261.004 L 211.266 261.105 L 210.913 261.387 L 210.686 261.846 L 210.605 262.451 L 210.681 263.072 L 210.908 263.526 L 211.256 263.808 L 211.71 263.904 L 212.103 263.838 L 212.426 263.667 L 212.663 263.394 L 212.799 263.031 L 212.36 263.031 L 212.269 263.233 L 212.138 263.384 L 211.765 263.505 L 211.478 263.45 L 211.261 263.273 L 211.12 262.986 L 211.069 262.598 L 211.069 262.582 L 211.069 262.582 z M 211.069 262.209 L 211.125 261.861 L 211.261 261.604 L 211.467 261.448 L 211.74 261.392 L 212.007 261.448 L 212.214 261.604 L 212.34 261.861 L 212.385 262.209 L 211.069 262.209 L 211.069 262.209 z M 218.417 263.389 L 218.417 263.808 L 218.861 263.808 L 218.861 260.187 L 218.422 260.187 L 218.422 261.513 L 218.084 261.13 L 217.877 261.039 L 217.64 261.004 L 217.212 261.105 L 216.879 261.387 L 216.662 261.841 L 216.586 262.451 L 216.662 263.062 L 216.879 263.52 L 217.212 263.808 L 217.64 263.904 L 217.877 263.868 L 218.089 263.778 L 218.417 263.389 L 218.417 263.389 z M 217.716 261.402 L 218.009 261.473 L 218.23 261.67 L 218.362 261.997 L 218.412 262.451 L 218.362 262.91 L 218.23 263.238 L 218.009 263.44 L 217.716 263.505 L 217.439 263.44 L 217.227 263.238 L 217.086 262.905 L 217.04 262.451 L 217.086 262.002 L 217.227 261.675 L 217.439 261.473 L 217.716 261.402 L 217.716 261.402 z M 220.177 262.582 L 221.952 262.582 L 221.957 262.376 L 221.877 261.796 L 221.655 261.362 L 221.302 261.1 L 220.833 261.004 L 220.374 261.105 L 220.021 261.387 L 219.794 261.846 L 219.713 262.451 L 219.789 263.072 L 220.016 263.526 L 220.364 263.808 L 220.818 263.904 L 221.211 263.838 L 221.534 263.667 L 221.771 263.394 L 221.907 263.031 L 221.468 263.031 L 221.377 263.233 L 221.246 263.384 L 220.873 263.505 L 220.586 263.45 L 220.369 263.273 L 220.228 262.986 L 220.177 262.598 L 220.177 262.582 L 220.177 262.582 z M 220.177 262.209 L 220.233 261.861 L 220.369 261.604 L 220.576 261.448 L 220.848 261.392 L 221.115 261.448 L 221.322 261.604 L 221.448 261.861 L 221.493 262.209 L 220.177 262.209 L 220.177 262.209 z M 226.476 261.569 L 226.476 263.808 L 226.92 263.808 L 226.92 261.569 L 227.929 261.569 L 227.929 261.19 L 226.92 261.19 L 226.92 261.024 L 226.955 260.822 L 227.071 260.686 L 227.268 260.605 L 227.55 260.575 L 227.929 260.595 L 227.929 260.212 L 227.449 260.187 L 227.016 260.232 L 226.713 260.368 L 226.532 260.605 L 226.476 260.943 L 226.476 261.19 L 225.664 261.19 L 225.664 261.569 L 226.476 261.569 L 226.476 261.569 z M 230.506 263.455 L 230.506 263.47 L 230.531 263.642 L 230.607 263.763 L 230.924 263.858 L 231.171 263.818 L 231.171 263.475 L 231.065 263.49 L 230.924 263.425 L 230.899 263.223 L 230.899 261.821 L 230.839 261.463 L 230.662 261.211 L 230.354 261.059 L 229.921 261.004 L 229.497 261.064 L 229.184 261.236 L 228.988 261.503 L 228.922 261.856 L 228.922 261.886 L 229.321 261.886 L 229.356 261.675 L 229.467 261.523 L 229.648 261.433 L 229.906 261.397 L 230.153 261.422 L 230.329 261.498 L 230.435 261.629 L 230.47 261.811 L 230.45 262.023 L 230.37 262.129 L 230.168 262.179 L 229.79 262.219 L 229.356 262.31 L 229.048 262.471 L 228.867 262.724 L 228.811 263.097 L 228.862 263.43 L 229.018 263.677 L 229.27 263.833 L 229.618 263.889 L 230.087 263.783 L 230.506 263.455 L 230.506 263.455 z M 230.455 262.86 L 230.395 263.122 L 230.233 263.324 L 229.991 263.455 L 229.694 263.5 L 229.502 263.475 L 229.366 263.394 L 229.28 263.253 L 229.255 263.056 L 229.275 262.88 L 229.356 262.754 L 229.679 262.613 L 230.087 262.552 L 230.455 262.431 L 230.455 262.86 L 230.455 262.86 z M 233.658 261.997 L 234.096 261.997 L 234.006 261.594 L 233.789 261.276 L 233.451 261.08 L 233.012 261.004 L 232.528 261.105 L 232.16 261.387 L 231.928 261.846 L 231.847 262.461 L 231.923 263.072 L 232.15 263.526 L 232.508 263.808 L 232.997 263.904 L 233.431 263.828 L 233.769 263.616 L 234.001 263.283 L 234.102 262.84 L 233.678 262.84 L 233.602 263.122 L 233.461 263.334 L 233.259 263.465 L 233.012 263.505 L 232.705 263.44 L 232.483 263.238 L 232.346 262.91 L 232.301 262.446 L 232.346 261.992 L 232.488 261.665 L 232.715 261.463 L 233.012 261.392 L 233.274 261.438 L 233.471 261.554 L 233.602 261.745 L 233.658 261.997 L 233.658 261.997 z M 235.357 262.582 L 237.133 262.582 L 237.138 262.376 L 237.057 261.796 L 236.835 261.362 L 236.482 261.1 L 236.013 261.004 L 235.554 261.105 L 235.201 261.387 L 234.974 261.846 L 234.893 262.451 L 234.969 263.072 L 235.196 263.526 L 235.544 263.808 L 235.998 263.904 L 236.391 263.838 L 236.714 263.667 L 236.951 263.394 L 237.087 263.031 L 236.648 263.031 L 236.558 263.233 L 236.426 263.384 L 236.053 263.505 L 235.766 263.45 L 235.549 263.273 L 235.408 262.986 L 235.357 262.598 L 235.357 262.582 L 235.357 262.582 z M 235.357 262.209 L 235.413 261.861 L 235.549 261.604 L 235.756 261.448 L 236.028 261.392 L 236.295 261.448 L 236.502 261.604 L 236.628 261.861 L 236.674 262.209 L 235.357 262.209 L 235.357 262.209 z" stroke="none" fill-rule="evenodd" fill="rgb(0, 0, 0)"/></g><g stroke="rgb(0, 0, 0)" stroke-width="0.13" stroke-linecap="butt" stroke-linejoin="miter" fill="none"><path d="M 204.594 269.855 L 206.813 269.855 L 206.813 269.431 L 205.058 269.431 L 205.058 268.246 L 206.621 268.246 L 206.621 267.827 L 205.058 267.827 L 205.058 266.778 L 206.772 266.778 L 206.772 266.355 L 204.594 266.355 L 204.594 269.855 L 204.594 269.855 z M 209.37 268.044 L 209.808 268.044 L 209.717 267.641 L 209.501 267.323 L 209.163 267.126 L 208.724 267.051 L 208.24 267.152 L 207.872 267.434 L 207.64 267.893 L 207.559 268.508 L 207.635 269.118 L 207.862 269.572 L 208.22 269.855 L 208.709 269.951 L 209.143 269.875 L 209.48 269.663 L 209.712 269.33 L 209.813 268.886 L 209.39 268.886 L 209.314 269.169 L 209.173 269.381 L 208.971 269.512 L 208.724 269.552 L 208.416 269.487 L 208.194 269.285 L 208.058 268.957 L 208.013 268.493 L 208.058 268.039 L 208.199 267.711 L 208.426 267.51 L 208.724 267.439 L 208.986 267.484 L 209.183 267.6 L 209.314 267.792 L 209.37 268.044 L 209.37 268.044 z M 210.681 269.855 L 211.125 269.855 L 211.125 268.291 L 211.17 267.933 L 211.316 267.671 L 211.543 267.51 L 211.846 267.449 L 212.088 267.5 L 212.239 267.636 L 212.315 267.863 L 212.34 268.165 L 212.34 269.855 L 212.784 269.855 L 212.784 268.074 L 212.764 267.716 L 212.673 267.419 L 212.375 267.147 L 211.911 267.051 L 211.659 267.086 L 211.442 267.182 L 211.261 267.333 L 211.125 267.54 L 211.125 266.234 L 210.681 266.234 L 210.681 269.855 L 210.681 269.855 z M 214.105 268.629 L 215.88 268.629 L 215.885 268.422 L 215.805 267.843 L 215.583 267.409 L 215.23 267.147 L 214.761 267.051 L 214.302 267.152 L 213.949 267.434 L 213.722 267.893 L 213.641 268.498 L 213.717 269.118 L 213.944 269.572 L 214.292 269.855 L 214.746 269.951 L 215.139 269.885 L 215.462 269.714 L 215.699 269.441 L 215.835 269.078 L 215.396 269.078 L 215.305 269.28 L 215.174 269.431 L 214.801 269.552 L 214.514 269.497 L 214.297 269.32 L 214.156 269.033 L 214.105 268.644 L 214.105 268.629 L 214.105 268.629 z M 214.105 268.256 L 214.161 267.908 L 214.297 267.651 L 214.504 267.495 L 214.776 267.439 L 215.043 267.495 L 215.25 267.651 L 215.376 267.908 L 215.421 268.256 L 214.105 268.256 L 214.105 268.256 z M 217.635 266.607 L 217.635 269.482 L 216.723 269.482 L 216.723 269.855 L 218.987 269.855 L 218.987 269.482 L 218.079 269.482 L 218.079 266.234 L 216.939 266.234 L 216.939 266.607 L 217.635 266.607 L 217.635 266.607 z M 220.671 266.607 L 220.671 269.482 L 219.759 269.482 L 219.759 269.855 L 222.023 269.855 L 222.023 269.482 L 221.115 269.482 L 221.115 266.234 L 219.975 266.234 L 219.975 266.607 L 220.671 266.607 L 220.671 266.607 z M 223.213 268.629 L 224.988 268.629 L 224.993 268.422 L 224.913 267.843 L 224.691 267.409 L 224.338 267.147 L 223.869 267.051 L 223.41 267.152 L 223.057 267.434 L 222.83 267.893 L 222.749 268.498 L 222.825 269.118 L 223.052 269.572 L 223.4 269.855 L 223.854 269.951 L 224.247 269.885 L 224.57 269.714 L 224.807 269.441 L 224.943 269.078 L 224.504 269.078 L 224.413 269.28 L 224.282 269.431 L 223.909 269.552 L 223.622 269.497 L 223.405 269.32 L 223.264 269.033 L 223.213 268.644 L 223.213 268.629 L 223.213 268.629 z M 223.213 268.256 L 223.269 267.908 L 223.405 267.651 L 223.612 267.495 L 223.884 267.439 L 224.151 267.495 L 224.358 267.651 L 224.484 267.908 L 224.529 268.256 L 223.213 268.256 L 223.213 268.256 z M 229.593 269.855 L 230.289 269.855 L 230.289 269.103 L 229.593 269.103 L 229.593 269.855 L 229.593 269.855 z M 229.593 267.898 L 230.289 267.898 L 230.289 267.147 L 229.593 267.147 L 229.593 267.898 L 229.593 267.898 z" stroke="none" fill-rule="evenodd" fill="rgb(0, 0, 0)"/></g><g stroke="rgb(0, 0, 0)" stroke-width="0.13" stroke-linecap="butt" stroke-linejoin="miter" fill="none"><path d="M 238.958 269.855 L 239.417 269.855 L 239.417 266.33 L 239.074 266.33 L 238.983 266.637 L 238.802 266.844 L 238.524 266.965 L 238.141 267.005 L 238.141 267.363 L 238.958 267.363 L 238.958 269.855 L 238.958 269.855 z M 241.737 269.855 L 242.433 269.855 L 242.433 269.103 L 241.737 269.103 L 241.737 269.855 L 241.737 269.855 z M 241.737 267.898 L 242.433 267.898 L 242.433 267.147 L 241.737 267.147 L 241.737 267.898 L 241.737 267.898 z M 245.03 269.855 L 245.489 269.855 L 245.489 266.33 L 245.146 266.33 L 245.055 266.637 L 244.874 266.844 L 244.596 266.965 L 244.213 267.005 L 244.213 267.363 L 245.03 267.363 L 245.03 269.855 L 245.03 269.855 z" stroke="none" fill-rule="evenodd" fill="rgb(0, 0, 0)"/></g><g stroke="rgb(0, 0, 0)" stroke-width="0.13" stroke-linecap="butt" stroke-linejoin="miter" fill="none"><path d="M 199.128 188.111 L 199.128 188.146 L 199.208 188.63 L 199.445 188.993 L 199.819 189.225 L 200.313 189.311 L 200.837 189.225 L 201.231 189.003 L 201.483 188.65 L 201.574 188.196 L 201.533 187.899 L 201.422 187.657 L 201.241 187.47 L 200.999 187.334 L 201.327 187.062 L 201.443 186.628 L 201.367 186.234 L 201.15 185.937 L 200.797 185.75 L 200.313 185.685 L 199.859 185.765 L 199.511 185.987 L 199.284 186.34 L 199.208 186.809 L 199.208 186.845 L 199.657 186.845 L 199.698 186.522 L 199.829 186.29 L 200.041 186.149 L 200.338 186.098 L 200.6 186.139 L 200.792 186.245 L 200.908 186.416 L 200.953 186.648 L 200.908 186.895 L 200.787 187.062 L 200.575 187.162 L 200.288 187.193 L 200.091 187.188 L 200.091 187.586 L 200.338 187.576 L 200.656 187.621 L 200.893 187.742 L 201.034 187.939 L 201.084 188.196 L 201.029 188.489 L 200.883 188.706 L 200.651 188.842 L 200.343 188.887 L 200.025 188.837 L 199.793 188.685 L 199.647 188.443 L 199.592 188.111 L 199.128 188.111 L 199.128 188.111 z M 202.904 189.21 L 205.31 189.21 L 205.31 188.776 L 203.408 188.776 L 203.514 188.539 L 203.696 188.343 L 204.256 187.984 L 204.553 187.833 L 204.886 187.616 L 205.123 187.364 L 205.259 187.067 L 205.31 186.729 L 205.224 186.305 L 204.987 185.972 L 204.624 185.76 L 204.155 185.685 L 203.671 185.77 L 203.303 186.008 L 203.065 186.386 L 202.985 186.885 L 202.985 186.956 L 203.444 186.956 L 203.444 186.915 L 203.489 186.572 L 203.625 186.32 L 203.842 186.159 L 204.13 186.103 L 204.422 186.154 L 204.639 186.28 L 204.78 186.477 L 204.831 186.724 L 204.795 186.956 L 204.699 187.152 L 204.538 187.324 L 204.316 187.475 L 204.019 187.636 L 203.524 187.949 L 203.176 188.282 L 202.97 188.685 L 202.904 189.195 L 202.904 189.21 L 202.904 189.21 z M 206.62 188.297 L 206.731 188.711 L 206.978 189.033 L 207.341 189.235 L 207.805 189.311 L 208.314 189.22 L 208.713 188.973 L 208.965 188.58 L 209.061 188.075 L 208.975 187.606 L 208.733 187.238 L 208.355 187.001 L 207.866 186.915 L 207.487 186.976 L 207.195 187.142 L 207.336 186.199 L 208.869 186.199 L 208.869 185.786 L 206.998 185.786 L 206.721 187.642 L 207.124 187.642 L 207.417 187.405 L 207.79 187.319 L 208.113 187.374 L 208.36 187.536 L 208.516 187.783 L 208.572 188.1 L 208.516 188.418 L 208.355 188.665 L 208.108 188.822 L 207.79 188.877 L 207.523 188.842 L 207.316 188.726 L 207.165 188.544 L 207.089 188.297 L 206.62 188.297 L 206.62 188.297 z" stroke="none" fill-rule="evenodd" fill="rgb(0, 0, 0)"/><path d="M 43.5665 190.692 L 41.6346 191.21 L 43.5665 191.728"/><path d="M 364.703 191.728 L 366.635 191.21 L 364.703 190.692"/><path d="M 41.6346 191.21 L 366.635 191.21"/></g></svg>