<?xml version="1.0" encoding="utf-8" ?><!DOCTYPE svg PUBLIC "-//W3C//DTD SVG 1.1//EN" "http://www.w3.org/Graphics/SVG/1.1/DTD/svg11.dtd" 
[ <!ATTLIST svg 
  xmlns:dsy CDATA #FIXED "http://www.3ds.com/print"  
    dsy:text-version CDATA #IMPLIED > 

  <!ATTLIST text 
  xmlns:dsy CDATA #FIXED "http://www.3ds.com/print" 
    dsy:text-version CDATA #IMPLIED > 
]><svg xmlns="http://www.w3.org/2000/svg" xmlns:dsy="http://www.3ds.com/print" dsy:text-version="18000" width="420" height="297" viewBox="0 0 420 297" version="1.1"><g stroke="rgb(0, 0, 0)" stroke-width="0.13" stroke-linecap="butt" stroke-linejoin="miter" fill="none"><path d="M 53.0664 234.646 L 53.0664 284.799"/><path d="M 378.066 234.646 L 378.066 284.799"/></g><g stroke="rgb(0, 0, 0)" stroke-width="0.35" stroke-linecap="butt" stroke-linejoin="miter" fill="none"><path d="M 53.0664 210.398 L 53.0664 232.646"/><path d="M 53.0664 232.646 L 63.0664 232.646"/><path d="M 75.5664 245.146 A 12.5 12.5 0 0 0 63.0664 232.646"/><path d="M 75.5664 245.146 L 75.5664 250.398"/><path d="M 75.5664 250.398 L 355.566 250.398"/><path d="M 355.566 250.398 L 355.566 245.146"/><path d="M 368.066 232.646 A 12.5 12.5 0 0 0 355.566 245.146"/><path d="M 378.066 232.646 L 368.066 232.646"/><path d="M 378.066 210.398 L 378.066 232.646"/><path d="M 278.066 210.398 L 378.066 210.398"/><path d="M 278.066 230.398 L 278.066 210.398"/><path d="M 272.066 230.398 L 278.066 230.398"/><path d="M 272.066 210.398 L 272.066 230.398"/><path d="M 159.066 210.398 L 272.066 210.398"/><path d="M 159.066 230.398 L 159.066 210.398"/><path d="M 153.066 230.398 L 159.066 230.398"/><path d="M 153.066 210.398 L 153.066 230.398"/><path d="M 53.0664 210.398 L 153.066 210.398"/><circle cx="348.838" cy="226.757" r="2.1"/><circle cx="82.7277" cy="226.757" r="2.1"/><path d="M 54.0141 154.104 L 54.0141 176.352"/><path d="M 54.0141 176.352 L 64.0141 176.352"/><path d="M 76.5141 188.852 A 12.5 12.5 0 0 0 64.0141 176.352"/><path d="M 76.5141 188.852 L 76.5141 194.104"/><path d="M 76.5141 194.104 L 356.514 194.104"/><path d="M 356.514 194.104 L 356.514 188.852"/><path d="M 369.014 176.352 A 12.5 12.5 0 0 0 356.514 188.852"/><path d="M 379.014 176.352 L 369.014 176.352"/><path d="M 379.014 154.104 L 379.014 176.352"/><path d="M 279.014 154.104 L 379.014 154.104"/><path d="M 279.014 174.104 L 279.014 154.104"/><path d="M 273.014 174.104 L 279.014 174.104"/><path d="M 273.014 154.104 L 273.014 174.104"/><path d="M 160.014 154.104 L 273.014 154.104"/><path d="M 160.014 174.104 L 160.014 154.104"/><path d="M 154.014 174.104 L 160.014 174.104"/><path d="M 154.014 154.104 L 154.014 174.104"/><path d="M 54.0141 154.104 L 154.014 154.104"/><circle cx="349.786" cy="170.463" r="2.09999"/><circle cx="83.6755" cy="170.463" r="2.09999"/><path d="M 237.486 36.2685 L 380.426 36.2685"/><path d="M 380.426 36.2685 L 380.426 60.6563"/><path d="M 380.426 60.6563 L 367.853 60.6563"/><path d="M 367.853 60.6563 A 10 10 0 0 0 357.853 70.6563"/><path d="M 357.853 70.6563 L 357.853 76.2685"/><path d="M 321.749 76.2685 L 357.853 76.2685"/><path d="M 321.749 56.2685 L 321.749 76.2685"/><path d="M 316.049 56.2685 L 321.749 56.2685"/><path d="M 316.049 76.2685 L 316.049 56.2685"/><path d="M 316.049 76.2685 L 251.749 76.2685"/><path d="M 251.749 76.2685 L 251.749 56.2685"/><path d="M 251.749 56.2685 L 246.049 56.2685"/><path d="M 246.049 56.2685 L 246.049 76.2685"/><path d="M 246.049 76.2685 L 237.486 76.2685"/><path d="M 237.486 36.2685 L 237.486 76.2685"/><path d="M 236.941 89.0951 L 379.881 89.0951"/><path d="M 379.881 89.0951 L 379.881 113.483"/><path d="M 379.881 113.483 L 367.308 113.483"/><path d="M 367.308 113.483 A 10 10 0 0 0 357.308 123.483"/><path d="M 357.308 123.483 L 357.308 129.095"/><path d="M 321.204 129.095 L 357.308 129.095"/><path d="M 321.204 109.095 L 321.204 129.095"/><path d="M 315.504 109.095 L 321.204 109.095"/><path d="M 315.504 129.095 L 315.504 109.095"/><path d="M 315.504 129.095 L 251.204 129.095"/><path d="M 251.204 129.095 L 251.204 109.095"/><path d="M 251.204 109.095 L 245.504 109.095"/><path d="M 245.504 109.095 L 245.504 129.095"/><path d="M 245.504 129.095 L 236.941 129.095"/><path d="M 236.941 89.0951 L 236.941 129.095"/></g><g stroke="rgb(0, 0, 0)" stroke-width="0.13" stroke-linecap="butt" stroke-linejoin="miter" fill="none"><path d="M 217.962 258.749 L 217.084 261.73 L 216.182 258.749 L 215.703 258.749 L 216.832 262.254 L 217.337 262.254 L 218.441 258.749 L 217.962 258.749 L 217.962 258.749 z M 221.164 259.546 L 220.721 259.546 L 220.721 261.11 L 220.67 261.473 L 220.524 261.735 L 220.297 261.896 L 219.999 261.947 L 219.762 261.907 L 219.611 261.785 L 219.525 261.579 L 219.505 261.286 L 219.505 259.546 L 219.061 259.546 L 219.061 261.327 L 219.076 261.685 L 219.172 261.982 L 219.465 262.254 L 219.934 262.35 L 220.186 262.315 L 220.403 262.224 L 220.589 262.068 L 220.741 261.841 L 220.741 262.254 L 221.164 262.254 L 221.164 259.546 L 221.164 259.546 z M 222.501 261.029 L 224.276 261.029 L 224.281 260.822 L 224.2 260.242 L 223.978 259.809 L 223.625 259.546 L 223.156 259.45 L 222.697 259.551 L 222.344 259.834 L 222.118 260.293 L 222.037 260.898 L 222.112 261.518 L 222.339 261.972 L 222.687 262.254 L 223.141 262.35 L 223.535 262.285 L 223.857 262.113 L 224.094 261.841 L 224.231 261.478 L 223.792 261.478 L 223.701 261.68 L 223.57 261.831 L 223.197 261.952 L 222.909 261.896 L 222.692 261.72 L 222.551 261.432 L 222.501 261.044 L 222.501 261.029 L 222.501 261.029 z M 222.501 260.656 L 222.556 260.308 L 222.692 260.051 L 222.899 259.894 L 223.172 259.839 L 223.439 259.894 L 223.646 260.051 L 223.772 260.308 L 223.817 260.656 L 222.501 260.656 L 222.501 260.656 z M 229.849 261.836 L 229.849 262.254 L 230.293 262.254 L 230.293 258.633 L 229.854 258.633 L 229.854 259.96 L 229.516 259.577 L 229.309 259.486 L 229.072 259.45 L 228.643 259.551 L 228.311 259.834 L 228.094 260.288 L 228.018 260.898 L 228.094 261.508 L 228.311 261.967 L 228.643 262.254 L 229.072 262.35 L 229.309 262.315 L 229.521 262.224 L 229.849 261.836 L 229.849 261.836 z M 229.148 259.849 L 229.44 259.919 L 229.662 260.116 L 229.793 260.444 L 229.844 260.898 L 229.793 261.357 L 229.662 261.685 L 229.44 261.886 L 229.148 261.952 L 228.87 261.886 L 228.659 261.685 L 228.517 261.352 L 228.472 260.898 L 228.517 260.449 L 228.659 260.121 L 228.87 259.919 L 229.148 259.849 L 229.148 259.849 z M 231.609 261.029 L 233.384 261.029 L 233.389 260.822 L 233.308 260.242 L 233.087 259.809 L 232.734 259.546 L 232.264 259.45 L 231.806 259.551 L 231.453 259.834 L 231.226 260.293 L 231.145 260.898 L 231.221 261.518 L 231.447 261.972 L 231.795 262.254 L 232.249 262.35 L 232.643 262.285 L 232.966 262.113 L 233.203 261.841 L 233.339 261.478 L 232.9 261.478 L 232.809 261.68 L 232.678 261.831 L 232.305 261.952 L 232.017 261.896 L 231.801 261.72 L 231.659 261.432 L 231.609 261.044 L 231.609 261.029 L 231.609 261.029 z M 231.609 260.656 L 231.664 260.308 L 231.801 260.051 L 232.007 259.894 L 232.28 259.839 L 232.547 259.894 L 232.754 260.051 L 232.88 260.308 L 232.925 260.656 L 231.609 260.656 L 231.609 260.656 z M 237.908 260.015 L 237.908 262.254 L 238.352 262.254 L 238.352 260.015 L 239.36 260.015 L 239.36 259.637 L 238.352 259.637 L 238.352 259.471 L 238.387 259.269 L 238.503 259.133 L 238.7 259.052 L 238.982 259.022 L 239.36 259.042 L 239.36 258.659 L 238.881 258.633 L 238.448 258.679 L 238.145 258.815 L 237.963 259.052 L 237.908 259.39 L 237.908 259.637 L 237.096 259.637 L 237.096 260.015 L 237.908 260.015 L 237.908 260.015 z M 241.937 261.901 L 241.937 261.917 L 241.963 262.088 L 242.038 262.209 L 242.356 262.305 L 242.603 262.265 L 242.603 261.922 L 242.497 261.937 L 242.356 261.871 L 242.331 261.669 L 242.331 260.267 L 242.27 259.909 L 242.094 259.657 L 241.786 259.506 L 241.352 259.45 L 240.929 259.511 L 240.616 259.682 L 240.419 259.95 L 240.354 260.303 L 240.354 260.333 L 240.752 260.333 L 240.788 260.121 L 240.899 259.97 L 241.08 259.879 L 241.337 259.844 L 241.584 259.869 L 241.761 259.945 L 241.867 260.076 L 241.902 260.257 L 241.882 260.469 L 241.801 260.575 L 241.6 260.626 L 241.221 260.666 L 240.788 260.757 L 240.48 260.918 L 240.298 261.17 L 240.243 261.543 L 240.293 261.876 L 240.45 262.123 L 240.702 262.28 L 241.05 262.335 L 241.519 262.229 L 241.937 261.901 L 241.937 261.901 z M 241.887 261.306 L 241.826 261.569 L 241.665 261.77 L 241.423 261.901 L 241.125 261.947 L 240.934 261.922 L 240.798 261.841 L 240.712 261.7 L 240.687 261.503 L 240.707 261.327 L 240.788 261.2 L 241.11 261.059 L 241.519 260.999 L 241.887 260.878 L 241.887 261.306 L 241.887 261.306 z M 245.089 260.444 L 245.528 260.444 L 245.437 260.041 L 245.221 259.723 L 244.883 259.526 L 244.444 259.45 L 243.96 259.551 L 243.592 259.834 L 243.36 260.293 L 243.279 260.908 L 243.355 261.518 L 243.582 261.972 L 243.94 262.254 L 244.429 262.35 L 244.863 262.275 L 245.2 262.063 L 245.432 261.73 L 245.533 261.286 L 245.11 261.286 L 245.034 261.569 L 244.893 261.78 L 244.691 261.912 L 244.444 261.952 L 244.136 261.886 L 243.914 261.685 L 243.778 261.357 L 243.733 260.893 L 243.778 260.439 L 243.919 260.111 L 244.146 259.909 L 244.444 259.839 L 244.706 259.884 L 244.903 260 L 245.034 260.192 L 245.089 260.444 L 245.089 260.444 z M 246.789 261.029 L 248.564 261.029 L 248.569 260.822 L 248.489 260.242 L 248.267 259.809 L 247.914 259.546 L 247.445 259.45 L 246.986 259.551 L 246.633 259.834 L 246.406 260.293 L 246.325 260.898 L 246.401 261.518 L 246.628 261.972 L 246.976 262.254 L 247.43 262.35 L 247.823 262.285 L 248.146 262.113 L 248.383 261.841 L 248.519 261.478 L 248.08 261.478 L 247.989 261.68 L 247.858 261.831 L 247.485 261.952 L 247.198 261.896 L 246.981 261.72 L 246.839 261.432 L 246.789 261.044 L 246.789 261.029 L 246.789 261.029 z M 246.789 260.656 L 246.844 260.308 L 246.981 260.051 L 247.187 259.894 L 247.46 259.839 L 247.727 259.894 L 247.934 260.051 L 248.06 260.308 L 248.105 260.656 L 246.789 260.656 L 246.789 260.656 z" stroke="none" fill-rule="evenodd" fill="rgb(0, 0, 0)"/></g><g stroke="rgb(0, 0, 0)" stroke-width="0.13" stroke-linecap="butt" stroke-linejoin="miter" fill="none"><path d="M 216.025 268.301 L 218.244 268.301 L 218.244 267.878 L 216.489 267.878 L 216.489 266.693 L 218.053 266.693 L 218.053 266.274 L 216.489 266.274 L 216.489 265.225 L 218.204 265.225 L 218.204 264.801 L 216.025 264.801 L 216.025 268.301 L 216.025 268.301 z M 220.801 266.491 L 221.24 266.491 L 221.149 266.087 L 220.932 265.77 L 220.594 265.573 L 220.156 265.497 L 219.672 265.598 L 219.303 265.881 L 219.071 266.34 L 218.991 266.955 L 219.066 267.565 L 219.293 268.019 L 219.651 268.301 L 220.141 268.397 L 220.574 268.321 L 220.912 268.11 L 221.144 267.777 L 221.245 267.333 L 220.821 267.333 L 220.746 267.615 L 220.605 267.827 L 220.403 267.958 L 220.156 267.999 L 219.848 267.933 L 219.626 267.731 L 219.49 267.404 L 219.445 266.94 L 219.49 266.486 L 219.631 266.158 L 219.858 265.956 L 220.156 265.886 L 220.418 265.931 L 220.615 266.047 L 220.746 266.239 L 220.801 266.491 L 220.801 266.491 z M 222.112 268.301 L 222.556 268.301 L 222.556 266.738 L 222.602 266.38 L 222.748 266.118 L 222.975 265.956 L 223.277 265.896 L 223.52 265.946 L 223.671 266.082 L 223.746 266.309 L 223.772 266.612 L 223.772 268.301 L 224.215 268.301 L 224.215 266.521 L 224.195 266.163 L 224.105 265.865 L 223.807 265.593 L 223.343 265.497 L 223.091 265.533 L 222.874 265.628 L 222.692 265.78 L 222.556 265.986 L 222.556 264.68 L 222.112 264.68 L 222.112 268.301 L 222.112 268.301 z M 225.537 267.076 L 227.312 267.076 L 227.317 266.869 L 227.236 266.289 L 227.014 265.855 L 226.661 265.593 L 226.192 265.497 L 225.734 265.598 L 225.38 265.881 L 225.154 266.34 L 225.073 266.945 L 225.148 267.565 L 225.375 268.019 L 225.723 268.301 L 226.177 268.397 L 226.571 268.332 L 226.893 268.16 L 227.13 267.888 L 227.267 267.525 L 226.828 267.525 L 226.737 267.726 L 226.606 267.878 L 226.233 267.999 L 225.945 267.943 L 225.728 267.767 L 225.587 267.479 L 225.537 267.091 L 225.537 267.076 L 225.537 267.076 z M 225.537 266.703 L 225.592 266.355 L 225.728 266.097 L 225.935 265.941 L 226.208 265.886 L 226.475 265.941 L 226.682 266.097 L 226.808 266.355 L 226.853 266.703 L 225.537 266.703 L 225.537 266.703 z M 229.067 265.053 L 229.067 267.928 L 228.154 267.928 L 228.154 268.301 L 230.419 268.301 L 230.419 267.928 L 229.511 267.928 L 229.511 264.68 L 228.371 264.68 L 228.371 265.053 L 229.067 265.053 L 229.067 265.053 z M 232.103 265.053 L 232.103 267.928 L 231.19 267.928 L 231.19 268.301 L 233.455 268.301 L 233.455 267.928 L 232.547 267.928 L 232.547 264.68 L 231.407 264.68 L 231.407 265.053 L 232.103 265.053 L 232.103 265.053 z M 234.645 267.076 L 236.42 267.076 L 236.425 266.869 L 236.344 266.289 L 236.123 265.855 L 235.77 265.593 L 235.301 265.497 L 234.842 265.598 L 234.489 265.881 L 234.262 266.34 L 234.181 266.945 L 234.257 267.565 L 234.484 268.019 L 234.832 268.301 L 235.285 268.397 L 235.679 268.332 L 236.002 268.16 L 236.239 267.888 L 236.375 267.525 L 235.936 267.525 L 235.845 267.726 L 235.714 267.878 L 235.341 267.999 L 235.053 267.943 L 234.837 267.767 L 234.695 267.479 L 234.645 267.091 L 234.645 267.076 L 234.645 267.076 z M 234.645 266.703 L 234.7 266.355 L 234.837 266.097 L 235.043 265.941 L 235.316 265.886 L 235.583 265.941 L 235.79 266.097 L 235.916 266.355 L 235.961 266.703 L 234.645 266.703 L 234.645 266.703 z M 241.025 268.301 L 241.721 268.301 L 241.721 267.55 L 241.025 267.55 L 241.025 268.301 L 241.025 268.301 z M 241.025 266.345 L 241.721 266.345 L 241.721 265.593 L 241.025 265.593 L 241.025 266.345 L 241.025 266.345 z" stroke="none" fill-rule="evenodd" fill="rgb(0, 0, 0)"/></g><g stroke="rgb(0, 0, 0)" stroke-width="0.13" stroke-linecap="butt" stroke-linejoin="miter" fill="none"><path d="M 250.39 268.301 L 250.849 268.301 L 250.849 264.776 L 250.506 264.776 L 250.415 265.084 L 250.234 265.291 L 249.956 265.412 L 249.573 265.452 L 249.573 265.81 L 250.39 265.81 L 250.39 268.301 L 250.39 268.301 z M 253.169 268.301 L 253.865 268.301 L 253.865 267.55 L 253.169 267.55 L 253.169 268.301 L 253.169 268.301 z M 253.169 266.345 L 253.865 266.345 L 253.865 265.593 L 253.169 265.593 L 253.169 266.345 L 253.169 266.345 z M 256.462 268.301 L 256.921 268.301 L 256.921 264.776 L 256.578 264.776 L 256.487 265.084 L 256.306 265.291 L 256.028 265.412 L 255.645 265.452 L 255.645 265.81 L 256.462 265.81 L 256.462 268.301 L 256.462 268.301 z" stroke="none" fill-rule="evenodd" fill="rgb(0, 0, 0)"/></g><g stroke="rgb(0, 0, 0)" stroke-width="0.13" stroke-linecap="butt" stroke-linejoin="miter" fill="none"><path d="M 210.559 279.699 L 210.559 279.735 L 210.64 280.219 L 210.877 280.582 L 211.25 280.814 L 211.745 280.9 L 212.269 280.814 L 212.662 280.592 L 212.915 280.239 L 213.005 279.785 L 212.965 279.488 L 212.854 279.245 L 212.673 279.059 L 212.43 278.923 L 212.758 278.65 L 212.874 278.217 L 212.799 277.823 L 212.582 277.526 L 212.229 277.339 L 211.745 277.274 L 211.291 277.354 L 210.943 277.576 L 210.716 277.929 L 210.64 278.398 L 210.64 278.433 L 211.089 278.433 L 211.129 278.111 L 211.26 277.879 L 211.472 277.738 L 211.77 277.687 L 212.032 277.727 L 212.224 277.833 L 212.34 278.005 L 212.385 278.237 L 212.34 278.484 L 212.219 278.65 L 212.007 278.751 L 211.719 278.781 L 211.523 278.776 L 211.523 279.175 L 211.77 279.165 L 212.088 279.21 L 212.325 279.331 L 212.466 279.528 L 212.516 279.785 L 212.461 280.078 L 212.314 280.294 L 212.083 280.431 L 211.775 280.476 L 211.457 280.426 L 211.225 280.274 L 211.079 280.032 L 211.023 279.699 L 210.559 279.699 L 210.559 279.699 z M 214.336 280.799 L 216.741 280.799 L 216.741 280.365 L 214.84 280.365 L 214.946 280.128 L 215.128 279.931 L 215.687 279.573 L 215.985 279.422 L 216.318 279.205 L 216.555 278.953 L 216.691 278.655 L 216.741 278.317 L 216.656 277.894 L 216.419 277.561 L 216.056 277.349 L 215.587 277.274 L 215.102 277.359 L 214.734 277.596 L 214.497 277.975 L 214.417 278.474 L 214.417 278.544 L 214.875 278.544 L 214.875 278.504 L 214.921 278.161 L 215.057 277.909 L 215.274 277.748 L 215.561 277.692 L 215.854 277.743 L 216.071 277.869 L 216.212 278.065 L 216.262 278.312 L 216.227 278.544 L 216.131 278.741 L 215.97 278.913 L 215.748 279.064 L 215.45 279.225 L 214.956 279.538 L 214.608 279.871 L 214.401 280.274 L 214.336 280.784 L 214.336 280.799 L 214.336 280.799 z M 218.052 279.886 L 218.163 280.299 L 218.41 280.622 L 218.773 280.824 L 219.237 280.9 L 219.746 280.809 L 220.145 280.562 L 220.397 280.168 L 220.493 279.664 L 220.407 279.195 L 220.165 278.827 L 219.787 278.59 L 219.297 278.504 L 218.919 278.565 L 218.627 278.731 L 218.768 277.788 L 220.301 277.788 L 220.301 277.374 L 218.43 277.374 L 218.153 279.23 L 218.556 279.23 L 218.848 278.993 L 219.222 278.908 L 219.544 278.963 L 219.792 279.124 L 219.948 279.372 L 220.003 279.689 L 219.948 280.007 L 219.787 280.254 L 219.539 280.41 L 219.222 280.466 L 218.954 280.431 L 218.748 280.315 L 218.596 280.133 L 218.521 279.886 L 218.052 279.886 L 218.052 279.886 z" stroke="none" fill-rule="evenodd" fill="rgb(0, 0, 0)"/><path d="M 376.134 283.316 L 378.066 282.799 L 376.134 282.281"/><path d="M 54.9982 282.281 L 53.0664 282.799 L 54.9982 283.316"/><path d="M 53.0664 282.799 L 378.066 282.799"/></g></svg>