<?xml version="1.0" encoding="utf-8" ?><!DOCTYPE svg PUBLIC "-//W3C//DTD SVG 1.1//EN" "http://www.w3.org/Graphics/SVG/1.1/DTD/svg11.dtd" 
[ <!ATTLIST svg 
  xmlns:dsy CDATA #FIXED "http://www.3ds.com/print"  
    dsy:text-version CDATA #IMPLIED > 

  <!ATTLIST text 
  xmlns:dsy CDATA #FIXED "http://www.3ds.com/print" 
    dsy:text-version CDATA #IMPLIED > 
]><svg xmlns="http://www.w3.org/2000/svg" xmlns:dsy="http://www.3ds.com/print" dsy:text-version="18000" width="420" height="297" viewBox="0 0 420 297" version="1.1"><g stroke="rgb(0, 0, 0)" stroke-width="0.13" stroke-linecap="butt" stroke-linejoin="miter" fill="none"><path d="M 20.6803 170.648 L 20.6803 191.382"/><path d="M 154.669 170.648 L 154.669 191.382"/></g><g stroke="rgb(0, 0, 0)" stroke-width="0.35" stroke-linecap="butt" stroke-linejoin="miter" fill="none"><path d="M 127.359 13.0105 L 90.3586 13.0105"/><path d="M 60.3586 13.0105 A 15 15 0 1 0 90.3586 13.0105"/><path d="M 23.3586 13.0105 L 60.3586 13.0105"/><path d="M 23.3586 13.0105 L 23.3586 53.0105"/><path d="M 23.3586 53.0105 L 30.3586 53.0105"/><path d="M 30.3586 53.0105 L 30.3586 33.0105"/><path d="M 30.3586 33.0105 L 36.3586 33.0105"/><path d="M 36.3586 33.0105 L 36.3586 53.0105"/><path d="M 36.3586 53.0105 L 114.359 53.0105"/><path d="M 114.359 53.0105 L 114.359 33.0105"/><path d="M 114.359 33.0105 L 120.359 33.0105"/><path d="M 120.359 33.0105 L 120.359 53.0105"/><path d="M 120.359 53.0105 L 127.359 53.0105"/><path d="M 127.359 53.0105 L 127.359 13.0105"/><path d="M 258.655 12.9697 L 221.655 12.9697"/><path d="M 191.655 12.9697 A 15 15 0 1 0 221.655 12.9697"/><path d="M 154.655 12.9697 L 191.655 12.9697"/><path d="M 154.655 12.9697 L 154.655 52.9697"/><path d="M 154.655 52.9697 L 161.655 52.9697"/><path d="M 161.655 52.9697 L 161.655 32.9697"/><path d="M 161.655 32.9697 L 167.655 32.9697"/><path d="M 167.655 32.9697 L 167.655 52.9697"/><path d="M 167.655 52.9697 L 245.655 52.9697"/><path d="M 245.655 52.9697 L 245.655 32.9697"/><path d="M 245.655 32.9697 L 251.655 32.9697"/><path d="M 251.655 32.9697 L 251.655 52.9697"/><path d="M 251.655 52.9697 L 258.655 52.9697"/><path d="M 258.655 52.9697 L 258.655 12.9697"/><path d="M 284.092 54.7826 L 291.092 54.7826"/><path d="M 291.092 54.7826 L 291.092 34.7826"/><path d="M 291.092 34.7826 L 297.092 34.7826"/><path d="M 297.092 34.7826 L 297.092 54.7826"/><path d="M 297.092 54.7826 L 375.092 54.7826"/><path d="M 375.092 54.7826 L 375.092 34.7826"/><path d="M 375.092 34.7826 L 381.092 34.7826"/><path d="M 381.092 34.7826 L 381.092 54.7826"/><path d="M 381.092 54.7826 L 388.092 54.7826"/><path d="M 388.092 54.7826 L 388.092 14.6782"/><path d="M 388.092 14.6782 L 348.592 14.6782"/><path d="M 323.592 14.6782 A 12.5 12.5 0 1 0 348.592 14.6782"/><path d="M 284.092 14.6782 L 323.592 14.6782"/><path d="M 284.092 54.7826 L 284.092 14.6782"/><path d="M 186.192 72.3959 L 290.192 72.3959"/><path d="M 290.192 72.3959 L 290.192 139.033"/><path d="M 290.192 139.033 L 283.192 139.033"/><path d="M 283.192 139.033 L 283.192 119.033"/><path d="M 283.192 119.033 L 277.192 119.033"/><path d="M 277.192 119.033 L 277.192 139.033"/><path d="M 277.192 139.033 L 199.192 139.033"/><path d="M 199.192 139.033 L 199.192 119.033"/><path d="M 199.192 119.033 L 193.192 119.033"/><path d="M 193.192 119.033 L 193.192 139.033"/><path d="M 193.192 139.033 L 186.192 139.033"/><path d="M 186.192 139.033 L 186.192 72.3959"/><circle cx="216.541" cy="86.5286" r="3"/><circle cx="238.192" cy="124.029" r="3"/><circle cx="259.842" cy="86.5286" r="3"/><path d="M 34.709 91.7411 L 34.709 71.7411"/><path d="M 34.709 71.7411 L 95.709 71.7411"/><path d="M 95.709 71.7411 L 95.709 91.7411"/><path d="M 95.709 91.7411 L 101.409 91.7411"/><path d="M 101.409 91.7411 L 101.409 71.7411"/><path d="M 124.009 71.7411 L 101.409 71.7411"/><path d="M 124.009 91.7411 L 124.009 71.7411"/><path d="M 129.709 91.7411 L 124.009 91.7411"/><path d="M 129.709 71.7411 L 129.709 91.7411"/><path d="M 129.709 71.7411 L 143.298 71.7411"/><path d="M 143.298 71.7411 L 143.298 91.7411"/><path d="M 143.298 91.7411 L 148.998 91.7411"/><path d="M 148.998 91.7411 L 148.998 71.7411"/><path d="M 148.998 71.7411 L 155.998 71.7411"/><path d="M 155.998 71.7411 L 155.998 111.741"/><path d="M 155.998 111.741 L 139.567 111.741"/><path d="M 139.567 111.741 L 37.5666 111.741"/><path d="M 22.009 111.741 L 37.5666 111.741"/><path d="M 22.009 71.7411 L 22.009 111.741"/><path d="M 29.009 71.7411 L 22.009 71.7411"/><path d="M 29.009 91.7411 L 29.009 71.7411"/><path d="M 34.709 91.7411 L 29.009 91.7411"/><path d="M 33.3803 148.648 L 33.3803 128.648"/><path d="M 33.3803 128.648 L 94.3803 128.648"/><path d="M 94.3803 128.648 L 94.3803 148.648"/><path d="M 94.3803 148.648 L 100.08 148.648"/><path d="M 100.08 148.648 L 100.08 128.648"/><path d="M 122.68 128.648 L 100.08 128.648"/><path d="M 122.68 148.648 L 122.68 128.648"/><path d="M 128.38 148.648 L 122.68 148.648"/><path d="M 128.38 128.648 L 128.38 148.648"/><path d="M 128.38 128.648 L 141.969 128.648"/><path d="M 141.969 128.648 L 141.969 148.648"/><path d="M 141.969 148.648 L 147.669 148.648"/><path d="M 147.669 148.648 L 147.669 128.648"/><path d="M 147.669 128.648 L 154.669 128.648"/><path d="M 154.669 128.648 L 154.669 168.648"/><path d="M 154.669 168.648 L 138.238 168.648"/><path d="M 138.238 168.648 L 36.2379 168.648"/><path d="M 20.6803 168.648 L 36.2379 168.648"/><path d="M 20.6803 128.648 L 20.6803 168.648"/><path d="M 27.6803 128.648 L 20.6803 128.648"/><path d="M 27.6803 148.648 L 27.6803 128.648"/><path d="M 33.3803 148.648 L 27.6803 148.648"/></g><g stroke="rgb(0, 0, 0)" stroke-width="0.13" stroke-linecap="butt" stroke-linejoin="miter" fill="none"><path d="M 78.2439 187.382 L 78.7029 187.382 L 78.7029 183.856 L 78.3599 183.856 L 78.2692 184.164 L 78.0876 184.371 L 77.8102 184.492 L 77.4269 184.532 L 77.4269 184.89 L 78.2439 184.89 L 78.2439 187.382 L 78.2439 187.382 z M 80.7999 186.282 L 80.7999 186.317 L 80.8806 186.802 L 81.1176 187.165 L 81.4908 187.397 L 81.985 187.482 L 82.5095 187.397 L 82.9029 187.175 L 83.155 186.822 L 83.2458 186.368 L 83.2055 186.07 L 83.0945 185.828 L 82.913 185.642 L 82.6709 185.505 L 82.9987 185.233 L 83.1147 184.799 L 83.0391 184.406 L 82.8222 184.109 L 82.4692 183.922 L 81.985 183.856 L 81.5311 183.937 L 81.1831 184.159 L 80.9562 184.512 L 80.8806 184.981 L 80.8806 185.016 L 81.3294 185.016 L 81.3697 184.694 L 81.5009 184.462 L 81.7127 184.32 L 82.0102 184.27 L 82.2725 184.31 L 82.4641 184.416 L 82.5801 184.588 L 82.6255 184.82 L 82.5801 185.067 L 82.4591 185.233 L 82.2473 185.334 L 81.9598 185.364 L 81.7631 185.359 L 81.7631 185.758 L 82.0102 185.748 L 82.328 185.793 L 82.565 185.914 L 82.7062 186.111 L 82.7566 186.368 L 82.7012 186.66 L 82.5549 186.877 L 82.3229 187.013 L 82.0153 187.059 L 81.6976 187.008 L 81.4656 186.857 L 81.3193 186.615 L 81.2638 186.282 L 80.7999 186.282 L 80.7999 186.282 z M 84.5359 186.282 L 84.5359 186.317 L 84.6166 186.802 L 84.8536 187.165 L 85.2268 187.397 L 85.721 187.482 L 86.2455 187.397 L 86.6389 187.175 L 86.8911 186.822 L 86.9818 186.368 L 86.9415 186.07 L 86.8306 185.828 L 86.649 185.642 L 86.4069 185.505 L 86.7347 185.233 L 86.8507 184.799 L 86.7751 184.406 L 86.5582 184.109 L 86.2052 183.922 L 85.721 183.856 L 85.2672 183.937 L 84.9192 184.159 L 84.6922 184.512 L 84.6166 184.981 L 84.6166 185.016 L 85.0654 185.016 L 85.1058 184.694 L 85.2369 184.462 L 85.4487 184.32 L 85.7463 184.27 L 86.0085 184.31 L 86.2001 184.416 L 86.3161 184.588 L 86.3615 184.82 L 86.3161 185.067 L 86.1951 185.233 L 85.9833 185.334 L 85.6958 185.364 L 85.4991 185.359 L 85.4991 185.758 L 85.7463 185.748 L 86.064 185.793 L 86.301 185.914 L 86.4422 186.111 L 86.4927 186.368 L 86.4372 186.66 L 86.2909 186.877 L 86.0589 187.013 L 85.7513 187.059 L 85.4336 187.008 L 85.2016 186.857 L 85.0553 186.615 L 84.9999 186.282 L 84.5359 186.282 L 84.5359 186.282 z M 89.1948 187.382 L 89.8908 187.382 L 89.8908 186.63 L 89.1948 186.63 L 89.1948 187.382 L 89.1948 187.382 z M 92.0685 186.514 L 92.1441 186.913 L 92.361 187.22 L 92.7039 187.412 L 93.1578 187.482 L 93.4553 187.447 L 93.7226 187.356 L 93.9496 187.2 L 94.1412 186.978 L 94.2925 186.701 L 94.4035 186.358 L 94.469 185.964 L 94.4942 185.511 L 94.4085 184.799 L 94.1614 184.28 L 93.768 183.967 L 93.2284 183.856 L 92.7342 183.947 L 92.361 184.189 L 92.1189 184.562 L 92.0382 185.031 L 92.1189 185.516 L 92.3559 185.884 L 92.7089 186.116 L 93.1578 186.191 L 93.6319 186.096 L 93.9899 185.803 L 93.9092 186.363 L 93.7478 186.761 L 93.5007 186.998 L 93.1628 187.074 L 92.9006 187.039 L 92.7089 186.928 L 92.5829 186.751 L 92.5324 186.514 L 92.0685 186.514 L 92.0685 186.514 z M 92.5274 185.026 L 92.5778 184.714 L 92.719 184.467 L 92.9409 184.31 L 93.2284 184.255 L 93.5259 184.31 L 93.7529 184.467 L 93.8941 184.709 L 93.9496 185.021 L 93.8941 185.339 L 93.7529 185.576 L 93.5209 185.722 L 93.2133 185.773 L 92.9359 185.722 L 92.719 185.576 L 92.5778 185.344 L 92.5274 185.026 L 92.5274 185.026 z M 95.8045 186.514 L 95.8801 186.913 L 96.097 187.22 L 96.4399 187.412 L 96.8938 187.482 L 97.1914 187.447 L 97.4586 187.356 L 97.6856 187.2 L 97.8772 186.978 L 98.0285 186.701 L 98.1395 186.358 L 98.205 185.964 L 98.2303 185.511 L 98.1445 184.799 L 97.8974 184.28 L 97.504 183.967 L 96.9644 183.856 L 96.4702 183.947 L 96.097 184.189 L 95.8549 184.562 L 95.7742 185.031 L 95.8549 185.516 L 96.0919 185.884 L 96.445 186.116 L 96.8938 186.191 L 97.3679 186.096 L 97.7259 185.803 L 97.6452 186.363 L 97.4839 186.761 L 97.2367 186.998 L 96.8988 187.074 L 96.6366 187.039 L 96.445 186.928 L 96.3189 186.751 L 96.2684 186.514 L 95.8045 186.514 L 95.8045 186.514 z M 96.2634 185.026 L 96.3138 184.714 L 96.455 184.467 L 96.6769 184.31 L 96.9644 184.255 L 97.262 184.31 L 97.4889 184.467 L 97.6301 184.709 L 97.6856 185.021 L 97.6301 185.339 L 97.4889 185.576 L 97.2569 185.722 L 96.9493 185.773 L 96.6719 185.722 L 96.455 185.576 L 96.3138 185.344 L 96.2634 185.026 L 96.2634 185.026 z" stroke="none" fill-rule="evenodd" fill="rgb(0, 0, 0)"/><path d="M 22.6122 188.864 L 20.6803 189.382 L 22.6122 189.899"/><path d="M 152.737 189.899 L 154.669 189.382 L 152.737 188.864"/><path d="M 20.6803 189.382 L 154.669 189.382"/></g></svg>