<?xml version="1.0" encoding="utf-8" ?><!DOCTYPE svg PUBLIC "-//W3C//DTD SVG 1.1//EN" "http://www.w3.org/Graphics/SVG/1.1/DTD/svg11.dtd" 
[ <!ATTLIST svg 
  xmlns:dsy CDATA #FIXED "http://www.3ds.com/print"  
    dsy:text-version CDATA #IMPLIED > 

  <!ATTLIST text 
  xmlns:dsy CDATA #FIXED "http://www.3ds.com/print" 
    dsy:text-version CDATA #IMPLIED > 
]><svg xmlns="http://www.w3.org/2000/svg" xmlns:dsy="http://www.3ds.com/print" dsy:text-version="18000" width="420" height="297" viewBox="0 0 420 297" version="1.1"><g stroke="rgb(0, 0, 0)" stroke-width="0.13" stroke-linecap="butt" stroke-linejoin="miter" fill="none"><path d="M 34.885 137.155 L 34.885 93.6868"/><path d="M 384.885 137.155 L 384.885 93.6868"/></g><g stroke="rgb(0, 0, 0)" stroke-width="0.35" stroke-linecap="butt" stroke-linejoin="miter" fill="none"><path d="M 34.885 139.155 L 34.885 155.155"/><path d="M 384.885 155.155 L 34.885 155.155"/><path d="M 384.885 155.155 L 384.885 139.155"/><path d="M 34.885 139.155 L 384.885 139.155"/><circle cx="374.885" cy="147.155" r="3.2"/><circle cx="44.885" cy="147.155" r="3.2"/></g><g stroke="rgb(0, 0, 0)" stroke-width="0.13" stroke-linecap="butt" stroke-linejoin="miter" fill="none"><path d="M 212.281 163.507 L 211.403 166.487 L 210.5 163.507 L 210.021 163.507 L 211.151 167.012 L 211.655 167.012 L 212.76 163.507 L 212.281 163.507 L 212.281 163.507 z M 215.483 164.303 L 215.039 164.303 L 215.039 165.867 L 214.989 166.23 L 214.842 166.492 L 214.616 166.654 L 214.318 166.704 L 214.081 166.664 L 213.93 166.543 L 213.844 166.336 L 213.824 166.043 L 213.824 164.303 L 213.38 164.303 L 213.38 166.084 L 213.395 166.442 L 213.491 166.739 L 213.783 167.012 L 214.252 167.107 L 214.505 167.072 L 214.721 166.981 L 214.908 166.825 L 215.059 166.598 L 215.059 167.012 L 215.483 167.012 L 215.483 164.303 L 215.483 164.303 z M 216.819 165.786 L 218.595 165.786 L 218.6 165.579 L 218.519 164.999 L 218.297 164.566 L 217.944 164.303 L 217.475 164.208 L 217.016 164.309 L 216.663 164.591 L 216.436 165.05 L 216.355 165.655 L 216.431 166.275 L 216.658 166.729 L 217.006 167.012 L 217.46 167.107 L 217.853 167.042 L 218.176 166.87 L 218.413 166.598 L 218.549 166.235 L 218.11 166.235 L 218.02 166.437 L 217.889 166.588 L 217.515 166.709 L 217.228 166.654 L 217.011 166.477 L 216.87 166.19 L 216.819 165.801 L 216.819 165.786 L 216.819 165.786 z M 216.819 165.413 L 216.875 165.065 L 217.011 164.808 L 217.218 164.651 L 217.49 164.596 L 217.757 164.651 L 217.964 164.808 L 218.09 165.065 L 218.136 165.413 L 216.819 165.413 L 216.819 165.413 z M 224.167 166.593 L 224.167 167.012 L 224.611 167.012 L 224.611 163.391 L 224.172 163.391 L 224.172 164.717 L 223.835 164.334 L 223.628 164.243 L 223.391 164.208 L 222.962 164.309 L 222.629 164.591 L 222.412 165.045 L 222.337 165.655 L 222.412 166.265 L 222.629 166.724 L 222.962 167.012 L 223.391 167.107 L 223.628 167.072 L 223.84 166.981 L 224.167 166.593 L 224.167 166.593 z M 223.466 164.606 L 223.759 164.677 L 223.981 164.873 L 224.112 165.201 L 224.162 165.655 L 224.112 166.114 L 223.981 166.442 L 223.759 166.644 L 223.466 166.709 L 223.189 166.644 L 222.977 166.442 L 222.836 166.109 L 222.791 165.655 L 222.836 165.206 L 222.977 164.878 L 223.189 164.677 L 223.466 164.606 L 223.466 164.606 z M 225.927 165.786 L 227.703 165.786 L 227.708 165.579 L 227.627 164.999 L 227.405 164.566 L 227.052 164.303 L 226.583 164.208 L 226.124 164.309 L 225.771 164.591 L 225.544 165.05 L 225.464 165.655 L 225.539 166.275 L 225.766 166.729 L 226.114 167.012 L 226.568 167.107 L 226.961 167.042 L 227.284 166.87 L 227.521 166.598 L 227.657 166.235 L 227.219 166.235 L 227.128 166.437 L 226.997 166.588 L 226.623 166.709 L 226.336 166.654 L 226.119 166.477 L 225.978 166.19 L 225.927 165.801 L 225.927 165.786 L 225.927 165.786 z M 225.927 165.413 L 225.983 165.065 L 226.119 164.808 L 226.326 164.651 L 226.598 164.596 L 226.866 164.651 L 227.072 164.808 L 227.198 165.065 L 227.244 165.413 L 225.927 165.413 L 225.927 165.413 z M 232.226 164.772 L 232.226 167.012 L 232.67 167.012 L 232.67 164.772 L 233.679 164.772 L 233.679 164.394 L 232.67 164.394 L 232.67 164.228 L 232.706 164.026 L 232.822 163.89 L 233.018 163.809 L 233.301 163.779 L 233.679 163.799 L 233.679 163.416 L 233.2 163.391 L 232.766 163.436 L 232.464 163.572 L 232.282 163.809 L 232.226 164.147 L 232.226 164.394 L 231.415 164.394 L 231.415 164.772 L 232.226 164.772 L 232.226 164.772 z M 236.256 166.659 L 236.256 166.674 L 236.281 166.845 L 236.357 166.966 L 236.675 167.062 L 236.922 167.022 L 236.922 166.679 L 236.816 166.694 L 236.675 166.628 L 236.649 166.427 L 236.649 165.025 L 236.589 164.667 L 236.412 164.414 L 236.105 164.263 L 235.671 164.208 L 235.247 164.268 L 234.935 164.44 L 234.738 164.707 L 234.672 165.06 L 234.672 165.09 L 235.071 165.09 L 235.106 164.878 L 235.217 164.727 L 235.399 164.636 L 235.656 164.601 L 235.903 164.626 L 236.08 164.702 L 236.185 164.833 L 236.221 165.015 L 236.201 165.226 L 236.12 165.332 L 235.918 165.383 L 235.54 165.423 L 235.106 165.514 L 234.799 165.675 L 234.617 165.927 L 234.561 166.301 L 234.612 166.633 L 234.768 166.881 L 235.02 167.037 L 235.368 167.092 L 235.837 166.986 L 236.256 166.659 L 236.256 166.659 z M 236.206 166.064 L 236.145 166.326 L 235.984 166.528 L 235.742 166.659 L 235.444 166.704 L 235.252 166.679 L 235.116 166.598 L 235.031 166.457 L 235.005 166.26 L 235.025 166.084 L 235.106 165.958 L 235.429 165.816 L 235.837 165.756 L 236.206 165.635 L 236.206 166.064 L 236.206 166.064 z M 239.408 165.201 L 239.847 165.201 L 239.756 164.798 L 239.539 164.48 L 239.201 164.283 L 238.763 164.208 L 238.278 164.309 L 237.91 164.591 L 237.678 165.05 L 237.598 165.665 L 237.673 166.275 L 237.9 166.729 L 238.258 167.012 L 238.747 167.107 L 239.181 167.032 L 239.519 166.82 L 239.751 166.487 L 239.852 166.043 L 239.428 166.043 L 239.353 166.326 L 239.211 166.538 L 239.01 166.669 L 238.763 166.709 L 238.455 166.644 L 238.233 166.442 L 238.097 166.114 L 238.051 165.65 L 238.097 165.196 L 238.238 164.868 L 238.465 164.667 L 238.763 164.596 L 239.025 164.641 L 239.221 164.757 L 239.353 164.949 L 239.408 165.201 L 239.408 165.201 z M 241.108 165.786 L 242.883 165.786 L 242.888 165.579 L 242.807 164.999 L 242.585 164.566 L 242.232 164.303 L 241.763 164.208 L 241.304 164.309 L 240.951 164.591 L 240.724 165.05 L 240.644 165.655 L 240.719 166.275 L 240.946 166.729 L 241.294 167.012 L 241.748 167.107 L 242.141 167.042 L 242.464 166.87 L 242.701 166.598 L 242.837 166.235 L 242.399 166.235 L 242.308 166.437 L 242.177 166.588 L 241.804 166.709 L 241.516 166.654 L 241.299 166.477 L 241.158 166.19 L 241.108 165.801 L 241.108 165.786 L 241.108 165.786 z M 241.108 165.413 L 241.163 165.065 L 241.299 164.808 L 241.506 164.651 L 241.778 164.596 L 242.046 164.651 L 242.252 164.808 L 242.379 165.065 L 242.424 165.413 L 241.108 165.413 L 241.108 165.413 z" stroke="none" fill-rule="evenodd" fill="rgb(0, 0, 0)"/></g><g stroke="rgb(0, 0, 0)" stroke-width="0.13" stroke-linecap="butt" stroke-linejoin="miter" fill="none"><path d="M 210.344 173.059 L 212.563 173.059 L 212.563 172.635 L 210.808 172.635 L 210.808 171.45 L 212.371 171.45 L 212.371 171.031 L 210.808 171.031 L 210.808 169.982 L 212.523 169.982 L 212.523 169.559 L 210.344 169.559 L 210.344 173.059 L 210.344 173.059 z M 215.12 171.248 L 215.559 171.248 L 215.468 170.845 L 215.251 170.527 L 214.913 170.33 L 214.474 170.254 L 213.99 170.355 L 213.622 170.638 L 213.39 171.097 L 213.309 171.712 L 213.385 172.322 L 213.612 172.776 L 213.97 173.059 L 214.459 173.154 L 214.893 173.079 L 215.231 172.867 L 215.463 172.534 L 215.564 172.09 L 215.14 172.09 L 215.064 172.373 L 214.923 172.584 L 214.721 172.716 L 214.474 172.756 L 214.167 172.69 L 213.945 172.489 L 213.809 172.161 L 213.763 171.697 L 213.809 171.243 L 213.95 170.915 L 214.177 170.713 L 214.474 170.643 L 214.737 170.688 L 214.933 170.804 L 215.064 170.996 L 215.12 171.248 L 215.12 171.248 z M 216.431 173.059 L 216.875 173.059 L 216.875 171.495 L 216.92 171.137 L 217.067 170.875 L 217.293 170.713 L 217.596 170.653 L 217.838 170.703 L 217.989 170.84 L 218.065 171.066 L 218.09 171.369 L 218.09 173.059 L 218.534 173.059 L 218.534 171.278 L 218.514 170.92 L 218.423 170.623 L 218.126 170.35 L 217.662 170.254 L 217.409 170.29 L 217.193 170.386 L 217.011 170.537 L 216.875 170.744 L 216.875 169.437 L 216.431 169.437 L 216.431 173.059 L 216.431 173.059 z M 219.855 171.833 L 221.631 171.833 L 221.636 171.626 L 221.555 171.046 L 221.333 170.613 L 220.98 170.35 L 220.511 170.254 L 220.052 170.355 L 219.699 170.638 L 219.472 171.097 L 219.391 171.702 L 219.467 172.322 L 219.694 172.776 L 220.042 173.059 L 220.496 173.154 L 220.889 173.089 L 221.212 172.917 L 221.449 172.645 L 221.585 172.282 L 221.146 172.282 L 221.056 172.484 L 220.925 172.635 L 220.551 172.756 L 220.264 172.7 L 220.047 172.524 L 219.906 172.236 L 219.855 171.848 L 219.855 171.833 L 219.855 171.833 z M 219.855 171.46 L 219.911 171.112 L 220.047 170.855 L 220.254 170.698 L 220.526 170.643 L 220.793 170.698 L 221 170.855 L 221.126 171.112 L 221.172 171.46 L 219.855 171.46 L 219.855 171.46 z M 223.386 169.811 L 223.386 172.685 L 222.473 172.685 L 222.473 173.059 L 224.737 173.059 L 224.737 172.685 L 223.829 172.685 L 223.829 169.437 L 222.69 169.437 L 222.69 169.811 L 223.386 169.811 L 223.386 169.811 z M 226.422 169.811 L 226.422 172.685 L 225.509 172.685 L 225.509 173.059 L 227.773 173.059 L 227.773 172.685 L 226.866 172.685 L 226.866 169.437 L 225.726 169.437 L 225.726 169.811 L 226.422 169.811 L 226.422 169.811 z M 228.964 171.833 L 230.739 171.833 L 230.744 171.626 L 230.663 171.046 L 230.441 170.613 L 230.088 170.35 L 229.619 170.254 L 229.16 170.355 L 228.807 170.638 L 228.58 171.097 L 228.5 171.702 L 228.575 172.322 L 228.802 172.776 L 229.15 173.059 L 229.604 173.154 L 229.997 173.089 L 230.32 172.917 L 230.557 172.645 L 230.693 172.282 L 230.255 172.282 L 230.164 172.484 L 230.033 172.635 L 229.659 172.756 L 229.372 172.7 L 229.155 172.524 L 229.014 172.236 L 228.964 171.848 L 228.964 171.833 L 228.964 171.833 z M 228.964 171.46 L 229.019 171.112 L 229.155 170.855 L 229.362 170.698 L 229.634 170.643 L 229.902 170.698 L 230.108 170.855 L 230.234 171.112 L 230.28 171.46 L 228.964 171.46 L 228.964 171.46 z M 235.343 173.059 L 236.039 173.059 L 236.039 172.307 L 235.343 172.307 L 235.343 173.059 L 235.343 173.059 z M 235.343 171.102 L 236.039 171.102 L 236.039 170.35 L 235.343 170.35 L 235.343 171.102 L 235.343 171.102 z" stroke="none" fill-rule="evenodd" fill="rgb(0, 0, 0)"/></g><g stroke="rgb(0, 0, 0)" stroke-width="0.13" stroke-linecap="butt" stroke-linejoin="miter" fill="none"><path d="M 244.708 173.059 L 245.167 173.059 L 245.167 169.533 L 244.824 169.533 L 244.734 169.841 L 244.552 170.048 L 244.275 170.169 L 243.891 170.209 L 243.891 170.567 L 244.708 170.567 L 244.708 173.059 L 244.708 173.059 z M 247.487 173.059 L 248.183 173.059 L 248.183 172.307 L 247.487 172.307 L 247.487 173.059 L 247.487 173.059 z M 247.487 171.102 L 248.183 171.102 L 248.183 170.35 L 247.487 170.35 L 247.487 171.102 L 247.487 171.102 z M 250.781 173.059 L 251.239 173.059 L 251.239 169.533 L 250.896 169.533 L 250.806 169.841 L 250.624 170.048 L 250.347 170.169 L 249.964 170.209 L 249.964 170.567 L 250.781 170.567 L 250.781 173.059 L 250.781 173.059 z" stroke="none" fill-rule="evenodd" fill="rgb(0, 0, 0)"/></g><g stroke="rgb(0, 0, 0)" stroke-width="0.13" stroke-linecap="butt" stroke-linejoin="miter" fill="none"><path d="M 204.878 92.5874 L 204.878 92.6227 L 204.959 93.1069 L 205.196 93.47 L 205.569 93.702 L 206.063 93.7877 L 206.588 93.702 L 206.981 93.4801 L 207.233 93.127 L 207.324 92.6731 L 207.284 92.3756 L 207.173 92.1335 L 206.991 91.9469 L 206.749 91.8107 L 207.077 91.5384 L 207.193 91.1047 L 207.117 90.7113 L 206.9 90.4138 L 206.547 90.2272 L 206.063 90.1616 L 205.609 90.2423 L 205.261 90.4642 L 205.034 90.8172 L 204.959 91.2863 L 204.959 91.3215 L 205.408 91.3215 L 205.448 90.9988 L 205.579 90.7668 L 205.791 90.6256 L 206.088 90.5752 L 206.351 90.6155 L 206.542 90.7214 L 206.658 90.8929 L 206.704 91.1249 L 206.658 91.372 L 206.537 91.5384 L 206.325 91.6393 L 206.038 91.6695 L 205.841 91.6645 L 205.841 92.0629 L 206.088 92.0528 L 206.406 92.0982 L 206.643 92.2193 L 206.784 92.4159 L 206.835 92.6731 L 206.779 92.9657 L 206.633 93.1825 L 206.401 93.3187 L 206.093 93.3641 L 205.776 93.3136 L 205.544 93.1623 L 205.398 92.9203 L 205.342 92.5874 L 204.878 92.5874 L 204.878 92.5874 z M 208.634 92.774 L 208.745 93.1875 L 208.992 93.5103 L 209.355 93.7121 L 209.819 93.7877 L 210.329 93.6969 L 210.727 93.4498 L 210.979 93.0564 L 211.075 92.5521 L 210.989 92.0831 L 210.747 91.7149 L 210.369 91.4779 L 209.88 91.3922 L 209.502 91.4527 L 209.209 91.6191 L 209.35 90.676 L 210.884 90.676 L 210.884 90.2625 L 209.012 90.2625 L 208.735 92.1184 L 209.139 92.1184 L 209.431 91.8813 L 209.804 91.7956 L 210.127 91.8511 L 210.374 92.0125 L 210.531 92.2596 L 210.586 92.5773 L 210.531 92.895 L 210.369 93.1422 L 210.122 93.2985 L 209.804 93.354 L 209.537 93.3187 L 209.33 93.2027 L 209.179 93.0211 L 209.103 92.774 L 208.634 92.774 L 208.634 92.774 z M 212.406 91.9772 L 212.481 92.769 L 212.718 93.3338 L 213.096 93.6767 L 213.621 93.7877 L 214.14 93.6767 L 214.519 93.3338 L 214.751 92.769 L 214.831 91.9772 L 214.751 91.1904 L 214.655 90.8777 L 214.519 90.6205 L 214.14 90.2776 L 213.621 90.1616 L 213.096 90.2776 L 212.718 90.6256 L 212.481 91.1904 L 212.406 91.9772 L 212.406 91.9772 z M 212.89 91.9772 L 212.93 91.3669 L 213.056 90.9282 L 213.283 90.671 L 213.621 90.5802 L 213.954 90.671 L 214.181 90.9282 L 214.307 91.3669 L 214.347 91.9772 L 214.307 92.5925 L 214.181 93.0312 L 213.954 93.2884 L 213.621 93.3741 L 213.283 93.2884 L 213.056 93.0312 L 212.93 92.5925 L 212.89 91.9772 L 212.89 91.9772 z" stroke="none" fill-rule="evenodd" fill="rgb(0, 0, 0)"/><path d="M 382.953 96.2045 L 384.885 95.6868 L 382.953 95.1692"/><path d="M 36.8168 95.1692 L 34.885 95.6868 L 36.8168 96.2045"/><path d="M 34.885 95.6868 L 384.885 95.6868"/></g></svg>