<?xml version="1.0" encoding="utf-8" ?><!DOCTYPE svg PUBLIC "-//W3C//DTD SVG 1.1//EN" "http://www.w3.org/Graphics/SVG/1.1/DTD/svg11.dtd" 
[ <!ATTLIST svg 
  xmlns:dsy CDATA #FIXED "http://www.3ds.com/print"  
    dsy:text-version CDATA #IMPLIED > 

  <!ATTLIST text 
  xmlns:dsy CDATA #FIXED "http://www.3ds.com/print" 
    dsy:text-version CDATA #IMPLIED > 
]><svg xmlns="http://www.w3.org/2000/svg" xmlns:dsy="http://www.3ds.com/print" dsy:text-version="18000" width="297" height="210" viewBox="0 0 297 210" version="1.1"><g stroke="rgb(128, 128, 128)" stroke-width="0.13" stroke-linecap="butt" stroke-linejoin="miter" fill="none"><path d="M 130.158 120.382 L 66.8268 120.382"/><path d="M 114.458 40.3815 L 66.8268 40.3815"/></g><g stroke="rgb(0, 0, 0)" stroke-width="0.35" stroke-linecap="butt" stroke-linejoin="miter" fill="none"><path d="M 160.158 80.3815 L 165.858 80.3815"/><path d="M 165.858 80.3815 L 165.858 100.382"/><path d="M 124.458 80.3815 L 124.458 100.382"/><path d="M 130.158 80.3815 L 124.458 80.3815"/><circle cx="168.341" cy="48.3814" r="3.2"/><circle cx="121.975" cy="48.3814" r="3.2"/><path d="M 116.458 40.3815 L 145.158 40.3815"/><path d="M 116.458 40.3815 A 2 2 0 0 0 114.458 42.3815"/><path d="M 124.458 100.382 L 116.458 100.382"/><path d="M 114.458 98.3815 L 114.458 42.3815"/><path d="M 114.458 98.3815 A 2 2 0 0 0 116.458 100.382"/><path d="M 130.158 118.382 L 130.158 80.3815"/><path d="M 145.158 120.382 L 132.158 120.382"/><path d="M 130.158 118.382 A 2 2 0 0 0 132.158 120.382"/><path d="M 145.158 120.382 L 158.158 120.382"/><path d="M 160.158 118.382 L 160.158 80.3815"/><path d="M 158.158 120.382 A 2 2 0 0 0 160.158 118.382"/><path d="M 165.858 100.382 L 173.858 100.382"/><path d="M 173.858 100.382 A 2 2 0 0 0 175.858 98.3815"/><path d="M 173.858 40.3815 L 145.158 40.3815"/><path d="M 175.858 98.3815 L 175.858 42.3815"/><path d="M 175.858 42.3815 A 2 2 0 0 0 173.858 40.3815"/></g><g stroke="rgb(0, 0, 0)" stroke-width="0.13" stroke-linecap="butt" stroke-linejoin="miter" fill="none"><path d="M 127.554 141.733 L 126.676 144.714 L 125.773 141.733 L 125.294 141.733 L 126.424 145.238 L 126.928 145.238 L 128.033 141.733 L 127.554 141.733 L 127.554 141.733 z M 130.756 142.53 L 130.312 142.53 L 130.312 144.093 L 130.262 144.456 L 130.116 144.719 L 129.889 144.88 L 129.591 144.931 L 129.354 144.89 L 129.203 144.769 L 129.117 144.562 L 129.097 144.27 L 129.097 142.53 L 128.653 142.53 L 128.653 144.31 L 128.668 144.668 L 128.764 144.966 L 129.057 145.238 L 129.526 145.334 L 129.778 145.299 L 129.995 145.208 L 130.181 145.052 L 130.333 144.825 L 130.333 145.238 L 130.756 145.238 L 130.756 142.53 L 130.756 142.53 z M 132.093 144.013 L 133.868 144.013 L 133.873 143.806 L 133.792 143.226 L 133.57 142.792 L 133.217 142.53 L 132.748 142.434 L 132.289 142.535 L 131.936 142.817 L 131.709 143.276 L 131.629 143.882 L 131.704 144.502 L 131.931 144.956 L 132.279 145.238 L 132.733 145.334 L 133.126 145.268 L 133.449 145.097 L 133.686 144.825 L 133.822 144.462 L 133.384 144.462 L 133.293 144.663 L 133.162 144.815 L 132.789 144.936 L 132.501 144.88 L 132.284 144.704 L 132.143 144.416 L 132.093 144.028 L 132.093 144.013 L 132.093 144.013 z M 132.093 143.639 L 132.148 143.291 L 132.284 143.034 L 132.491 142.878 L 132.763 142.822 L 133.031 142.878 L 133.237 143.034 L 133.364 143.291 L 133.409 143.639 L 132.093 143.639 L 132.093 143.639 z M 139.441 144.82 L 139.441 145.238 L 139.884 145.238 L 139.884 141.617 L 139.446 141.617 L 139.446 142.943 L 139.108 142.56 L 138.901 142.469 L 138.664 142.434 L 138.235 142.535 L 137.902 142.817 L 137.686 143.271 L 137.61 143.882 L 137.686 144.492 L 137.902 144.951 L 138.235 145.238 L 138.664 145.334 L 138.901 145.299 L 139.113 145.208 L 139.441 144.82 L 139.441 144.82 z M 138.74 142.833 L 139.032 142.903 L 139.254 143.1 L 139.385 143.428 L 139.436 143.882 L 139.385 144.34 L 139.254 144.668 L 139.032 144.87 L 138.74 144.936 L 138.462 144.87 L 138.25 144.668 L 138.109 144.335 L 138.064 143.882 L 138.109 143.433 L 138.25 143.105 L 138.462 142.903 L 138.74 142.833 L 138.74 142.833 z M 141.201 144.013 L 142.976 144.013 L 142.981 143.806 L 142.9 143.226 L 142.678 142.792 L 142.325 142.53 L 141.856 142.434 L 141.397 142.535 L 141.044 142.817 L 140.817 143.276 L 140.737 143.882 L 140.812 144.502 L 141.039 144.956 L 141.387 145.238 L 141.841 145.334 L 142.235 145.268 L 142.557 145.097 L 142.794 144.825 L 142.931 144.462 L 142.492 144.462 L 142.401 144.663 L 142.27 144.815 L 141.897 144.936 L 141.609 144.88 L 141.392 144.704 L 141.251 144.416 L 141.201 144.028 L 141.201 144.013 L 141.201 144.013 z M 141.201 143.639 L 141.256 143.291 L 141.392 143.034 L 141.599 142.878 L 141.871 142.822 L 142.139 142.878 L 142.346 143.034 L 142.472 143.291 L 142.517 143.639 L 141.201 143.639 L 141.201 143.639 z M 147.5 142.999 L 147.5 145.238 L 147.944 145.238 L 147.944 142.999 L 148.952 142.999 L 148.952 142.621 L 147.944 142.621 L 147.944 142.454 L 147.979 142.253 L 148.095 142.116 L 148.291 142.036 L 148.574 142.005 L 148.952 142.026 L 148.952 141.642 L 148.473 141.617 L 148.039 141.663 L 147.737 141.799 L 147.555 142.036 L 147.5 142.374 L 147.5 142.621 L 146.688 142.621 L 146.688 142.999 L 147.5 142.999 L 147.5 142.999 z M 151.529 144.885 L 151.529 144.9 L 151.554 145.072 L 151.63 145.193 L 151.948 145.289 L 152.195 145.248 L 152.195 144.905 L 152.089 144.92 L 151.948 144.855 L 151.923 144.653 L 151.923 143.251 L 151.862 142.893 L 151.686 142.641 L 151.378 142.49 L 150.944 142.434 L 150.521 142.495 L 150.208 142.666 L 150.011 142.933 L 149.946 143.286 L 149.946 143.317 L 150.344 143.317 L 150.379 143.105 L 150.49 142.954 L 150.672 142.863 L 150.929 142.827 L 151.176 142.853 L 151.353 142.928 L 151.459 143.059 L 151.494 143.241 L 151.474 143.453 L 151.393 143.559 L 151.191 143.609 L 150.813 143.65 L 150.379 143.74 L 150.072 143.902 L 149.89 144.154 L 149.835 144.527 L 149.885 144.86 L 150.042 145.107 L 150.294 145.263 L 150.642 145.319 L 151.111 145.213 L 151.529 144.885 L 151.529 144.885 z M 151.479 144.29 L 151.418 144.552 L 151.257 144.754 L 151.015 144.885 L 150.717 144.931 L 150.526 144.905 L 150.389 144.825 L 150.304 144.683 L 150.279 144.487 L 150.299 144.31 L 150.379 144.184 L 150.702 144.043 L 151.111 143.982 L 151.479 143.861 L 151.479 144.29 L 151.479 144.29 z M 154.681 143.428 L 155.12 143.428 L 155.029 143.024 L 154.812 142.706 L 154.475 142.51 L 154.036 142.434 L 153.552 142.535 L 153.183 142.817 L 152.951 143.276 L 152.871 143.892 L 152.946 144.502 L 153.173 144.956 L 153.531 145.238 L 154.021 145.334 L 154.454 145.258 L 154.792 145.047 L 155.024 144.714 L 155.125 144.27 L 154.701 144.27 L 154.626 144.552 L 154.485 144.764 L 154.283 144.895 L 154.036 144.936 L 153.728 144.87 L 153.506 144.668 L 153.37 144.34 L 153.325 143.876 L 153.37 143.423 L 153.511 143.095 L 153.738 142.893 L 154.036 142.822 L 154.298 142.868 L 154.495 142.984 L 154.626 143.175 L 154.681 143.428 L 154.681 143.428 z M 156.381 144.013 L 158.156 144.013 L 158.161 143.806 L 158.08 143.226 L 157.859 142.792 L 157.505 142.53 L 157.036 142.434 L 156.578 142.535 L 156.225 142.817 L 155.998 143.276 L 155.917 143.882 L 155.993 144.502 L 156.219 144.956 L 156.567 145.238 L 157.021 145.334 L 157.415 145.268 L 157.737 145.097 L 157.975 144.825 L 158.111 144.462 L 157.672 144.462 L 157.581 144.663 L 157.45 144.815 L 157.077 144.936 L 156.789 144.88 L 156.572 144.704 L 156.431 144.416 L 156.381 144.028 L 156.381 144.013 L 156.381 144.013 z M 156.381 143.639 L 156.436 143.291 L 156.572 143.034 L 156.779 142.878 L 157.052 142.822 L 157.319 142.878 L 157.526 143.034 L 157.652 143.291 L 157.697 143.639 L 156.381 143.639 L 156.381 143.639 z" stroke="none" fill-rule="evenodd" fill="rgb(0, 0, 0)"/></g><g stroke="rgb(0, 0, 0)" stroke-width="0.13" stroke-linecap="butt" stroke-linejoin="miter" fill="none"><path d="M 125.617 151.285 L 127.836 151.285 L 127.836 150.861 L 126.081 150.861 L 126.081 149.676 L 127.645 149.676 L 127.645 149.258 L 126.081 149.258 L 126.081 148.209 L 127.796 148.209 L 127.796 147.785 L 125.617 147.785 L 125.617 151.285 L 125.617 151.285 z M 130.393 149.474 L 130.832 149.474 L 130.741 149.071 L 130.524 148.753 L 130.186 148.557 L 129.748 148.481 L 129.263 148.582 L 128.895 148.864 L 128.663 149.323 L 128.583 149.938 L 128.658 150.549 L 128.885 151.003 L 129.243 151.285 L 129.732 151.381 L 130.166 151.305 L 130.504 151.093 L 130.736 150.76 L 130.837 150.317 L 130.413 150.317 L 130.338 150.599 L 130.196 150.811 L 129.995 150.942 L 129.748 150.982 L 129.44 150.917 L 129.218 150.715 L 129.082 150.387 L 129.036 149.923 L 129.082 149.469 L 129.223 149.142 L 129.45 148.94 L 129.748 148.869 L 130.01 148.915 L 130.206 149.031 L 130.338 149.222 L 130.393 149.474 L 130.393 149.474 z M 131.704 151.285 L 132.148 151.285 L 132.148 149.722 L 132.193 149.364 L 132.34 149.101 L 132.567 148.94 L 132.869 148.879 L 133.111 148.93 L 133.263 149.066 L 133.338 149.293 L 133.364 149.596 L 133.364 151.285 L 133.807 151.285 L 133.807 149.505 L 133.787 149.147 L 133.696 148.849 L 133.399 148.577 L 132.935 148.481 L 132.683 148.516 L 132.466 148.612 L 132.284 148.763 L 132.148 148.97 L 132.148 147.664 L 131.704 147.664 L 131.704 151.285 L 131.704 151.285 z M 135.129 150.059 L 136.904 150.059 L 136.909 149.853 L 136.828 149.273 L 136.606 148.839 L 136.253 148.577 L 135.784 148.481 L 135.325 148.582 L 134.972 148.864 L 134.745 149.323 L 134.665 149.928 L 134.74 150.549 L 134.967 151.003 L 135.315 151.285 L 135.769 151.381 L 136.163 151.315 L 136.485 151.144 L 136.722 150.871 L 136.858 150.508 L 136.42 150.508 L 136.329 150.71 L 136.198 150.861 L 135.825 150.982 L 135.537 150.927 L 135.32 150.75 L 135.179 150.463 L 135.129 150.075 L 135.129 150.059 L 135.129 150.059 z M 135.129 149.686 L 135.184 149.338 L 135.32 149.081 L 135.527 148.925 L 135.799 148.869 L 136.067 148.925 L 136.273 149.081 L 136.4 149.338 L 136.445 149.686 L 135.129 149.686 L 135.129 149.686 z M 138.659 148.037 L 138.659 150.912 L 137.746 150.912 L 137.746 151.285 L 140.01 151.285 L 140.01 150.912 L 139.103 150.912 L 139.103 147.664 L 137.963 147.664 L 137.963 148.037 L 138.659 148.037 L 138.659 148.037 z M 141.695 148.037 L 141.695 150.912 L 140.782 150.912 L 140.782 151.285 L 143.047 151.285 L 143.047 150.912 L 142.139 150.912 L 142.139 147.664 L 140.999 147.664 L 140.999 148.037 L 141.695 148.037 L 141.695 148.037 z M 144.237 150.059 L 146.012 150.059 L 146.017 149.853 L 145.936 149.273 L 145.714 148.839 L 145.361 148.577 L 144.892 148.481 L 144.433 148.582 L 144.08 148.864 L 143.853 149.323 L 143.773 149.928 L 143.848 150.549 L 144.075 151.003 L 144.423 151.285 L 144.877 151.381 L 145.271 151.315 L 145.593 151.144 L 145.83 150.871 L 145.967 150.508 L 145.528 150.508 L 145.437 150.71 L 145.306 150.861 L 144.933 150.982 L 144.645 150.927 L 144.428 150.75 L 144.287 150.463 L 144.237 150.075 L 144.237 150.059 L 144.237 150.059 z M 144.237 149.686 L 144.292 149.338 L 144.428 149.081 L 144.635 148.925 L 144.907 148.869 L 145.175 148.925 L 145.382 149.081 L 145.508 149.338 L 145.553 149.686 L 144.237 149.686 L 144.237 149.686 z M 150.616 151.285 L 151.312 151.285 L 151.312 150.534 L 150.616 150.534 L 150.616 151.285 L 150.616 151.285 z M 150.616 149.328 L 151.312 149.328 L 151.312 148.577 L 150.616 148.577 L 150.616 149.328 L 150.616 149.328 z" stroke="none" fill-rule="evenodd" fill="rgb(0, 0, 0)"/></g><g stroke="rgb(0, 0, 0)" stroke-width="0.13" stroke-linecap="butt" stroke-linejoin="miter" fill="none"><path d="M 159.982 151.285 L 160.441 151.285 L 160.441 147.76 L 160.098 147.76 L 160.007 148.067 L 159.825 148.274 L 159.548 148.395 L 159.165 148.436 L 159.165 148.794 L 159.982 148.794 L 159.982 151.285 L 159.982 151.285 z M 162.76 151.285 L 163.456 151.285 L 163.456 150.534 L 162.76 150.534 L 162.76 151.285 L 162.76 151.285 z M 162.76 149.328 L 163.456 149.328 L 163.456 148.577 L 162.76 148.577 L 162.76 149.328 L 162.76 149.328 z M 166.054 151.285 L 166.513 151.285 L 166.513 147.76 L 166.17 147.76 L 166.079 148.067 L 165.897 148.274 L 165.62 148.395 L 165.237 148.436 L 165.237 148.794 L 166.054 148.794 L 166.054 151.285 L 166.054 151.285 z" stroke="none" fill-rule="evenodd" fill="rgb(0, 0, 0)"/></g><g stroke="rgb(0, 0, 0)" stroke-width="0.13" stroke-linecap="butt" stroke-linejoin="miter" fill="none"><path d="M 127.458 135.021 L 127.841 135.42 L 128.108 135.152 L 127.695 134.729 L 127.907 134.154 L 127.972 133.488 L 127.876 132.706 L 127.766 132.389 L 127.619 132.126 L 127.206 131.768 L 126.954 131.678 L 126.676 131.642 L 126.142 131.768 L 125.733 132.121 L 125.471 132.701 L 125.38 133.488 L 125.471 134.275 L 125.728 134.855 L 126.137 135.213 L 126.676 135.334 L 127.115 135.253 L 127.458 135.021 L 127.458 135.021 z M 127.14 134.699 L 126.923 134.86 L 126.676 134.91 L 126.348 134.82 L 126.091 134.547 L 125.92 134.103 L 125.864 133.488 L 125.92 132.878 L 126.086 132.429 L 126.343 132.157 L 126.676 132.061 L 127.004 132.157 L 127.261 132.434 L 127.428 132.883 L 127.488 133.488 L 127.443 134.013 L 127.347 134.371 L 127.019 134.028 L 126.747 134.285 L 127.14 134.699 L 127.14 134.699 z M 130.756 132.53 L 130.312 132.53 L 130.312 134.093 L 130.262 134.456 L 130.116 134.719 L 129.889 134.88 L 129.591 134.931 L 129.354 134.89 L 129.203 134.769 L 129.117 134.562 L 129.097 134.27 L 129.097 132.53 L 128.653 132.53 L 128.653 134.31 L 128.668 134.668 L 128.764 134.966 L 129.057 135.238 L 129.526 135.334 L 129.778 135.299 L 129.995 135.208 L 130.181 135.052 L 130.333 134.825 L 130.333 135.238 L 130.756 135.238 L 130.756 132.53 L 130.756 132.53 z M 133.313 134.885 L 133.313 134.9 L 133.338 135.072 L 133.414 135.193 L 133.732 135.289 L 133.979 135.248 L 133.979 134.905 L 133.873 134.92 L 133.732 134.855 L 133.706 134.653 L 133.706 133.251 L 133.646 132.893 L 133.469 132.641 L 133.162 132.49 L 132.728 132.434 L 132.304 132.495 L 131.992 132.666 L 131.795 132.933 L 131.73 133.286 L 131.73 133.317 L 132.128 133.317 L 132.163 133.105 L 132.274 132.954 L 132.456 132.863 L 132.713 132.827 L 132.96 132.853 L 133.137 132.928 L 133.242 133.059 L 133.278 133.241 L 133.258 133.453 L 133.177 133.559 L 132.975 133.609 L 132.597 133.65 L 132.163 133.74 L 131.856 133.902 L 131.674 134.154 L 131.619 134.527 L 131.669 134.86 L 131.825 135.107 L 132.077 135.263 L 132.425 135.319 L 132.895 135.213 L 133.313 134.885 L 133.313 134.885 z M 133.263 134.29 L 133.202 134.552 L 133.041 134.754 L 132.799 134.885 L 132.501 134.931 L 132.309 134.905 L 132.173 134.825 L 132.088 134.683 L 132.062 134.487 L 132.083 134.31 L 132.163 134.184 L 132.486 134.043 L 132.895 133.982 L 133.263 133.861 L 133.263 134.29 L 133.263 134.29 z M 134.74 135.238 L 135.184 135.238 L 135.184 133.675 L 135.23 133.317 L 135.376 133.054 L 135.603 132.893 L 135.905 132.833 L 136.147 132.883 L 136.299 133.019 L 136.374 133.246 L 136.4 133.549 L 136.4 135.238 L 136.843 135.238 L 136.843 133.458 L 136.823 133.1 L 136.732 132.802 L 136.435 132.53 L 135.971 132.434 L 135.714 132.469 L 135.497 132.565 L 135.31 132.727 L 135.164 132.943 L 135.164 132.53 L 134.74 132.53 L 134.74 135.238 L 134.74 135.238 z M 138.371 132.999 L 138.371 134.356 L 138.402 134.794 L 138.543 135.097 L 138.825 135.273 L 139.304 135.334 L 139.829 135.309 L 139.829 134.925 L 139.446 134.956 L 139.098 134.915 L 138.911 134.789 L 138.83 134.577 L 138.815 134.28 L 138.815 132.999 L 139.829 132.999 L 139.829 132.621 L 138.815 132.621 L 138.815 131.829 L 138.371 131.829 L 138.371 132.621 L 137.605 132.621 L 137.605 132.999 L 138.371 132.999 L 138.371 132.999 z M 142.169 134.865 L 142.169 132.621 L 141.029 132.621 L 141.029 132.999 L 141.725 132.999 L 141.725 134.865 L 140.817 134.865 L 140.817 135.238 L 143.087 135.238 L 143.087 134.865 L 142.169 134.865 L 142.169 134.865 z M 142.184 131.617 L 141.715 131.617 L 141.715 132.121 L 142.184 132.121 L 142.184 131.617 L 142.184 131.617 z M 144.444 132.999 L 144.444 134.356 L 144.474 134.794 L 144.615 135.097 L 144.897 135.273 L 145.377 135.334 L 145.901 135.309 L 145.901 134.925 L 145.518 134.956 L 145.17 134.915 L 144.983 134.789 L 144.902 134.577 L 144.887 134.28 L 144.887 132.999 L 145.901 132.999 L 145.901 132.621 L 144.887 132.621 L 144.887 131.829 L 144.444 131.829 L 144.444 132.621 L 143.677 132.621 L 143.677 132.999 L 144.444 132.999 L 144.444 132.999 z M 147.58 132.162 L 147.878 132.162 L 148.579 131.304 L 148.085 131.304 L 147.58 132.162 L 147.58 132.162 z M 147.273 134.013 L 149.048 134.013 L 149.053 133.806 L 148.972 133.226 L 148.75 132.792 L 148.397 132.53 L 147.928 132.434 L 147.469 132.535 L 147.116 132.817 L 146.889 133.276 L 146.809 133.882 L 146.884 134.502 L 147.111 134.956 L 147.459 135.238 L 147.913 135.334 L 148.307 135.268 L 148.629 135.097 L 148.866 134.825 L 149.003 134.462 L 148.564 134.462 L 148.473 134.663 L 148.342 134.815 L 147.969 134.936 L 147.681 134.88 L 147.464 134.704 L 147.323 134.416 L 147.273 134.028 L 147.273 134.013 L 147.273 134.013 z M 147.273 133.639 L 147.328 133.291 L 147.464 133.034 L 147.671 132.878 L 147.944 132.822 L 148.211 132.878 L 148.418 133.034 L 148.544 133.291 L 148.589 133.639 L 147.273 133.639 L 147.273 133.639 z M 152.73 134.139 L 152.73 134.174 L 152.81 134.658 L 153.047 135.021 L 153.42 135.253 L 153.915 135.339 L 154.439 135.253 L 154.833 135.031 L 155.085 134.678 L 155.176 134.224 L 155.135 133.927 L 155.024 133.685 L 154.843 133.498 L 154.601 133.362 L 154.928 133.09 L 155.044 132.656 L 154.969 132.263 L 154.752 131.965 L 154.399 131.779 L 153.915 131.713 L 153.461 131.794 L 153.113 132.016 L 152.886 132.369 L 152.81 132.838 L 152.81 132.873 L 153.259 132.873 L 153.299 132.55 L 153.431 132.318 L 153.642 132.177 L 153.94 132.126 L 154.202 132.167 L 154.394 132.273 L 154.51 132.444 L 154.555 132.676 L 154.51 132.923 L 154.389 133.09 L 154.177 133.191 L 153.889 133.221 L 153.693 133.216 L 153.693 133.614 L 153.94 133.604 L 154.258 133.65 L 154.495 133.771 L 154.636 133.967 L 154.686 134.224 L 154.631 134.517 L 154.485 134.734 L 154.253 134.87 L 153.945 134.915 L 153.627 134.865 L 153.395 134.714 L 153.249 134.472 L 153.194 134.139 L 152.73 134.139 L 152.73 134.139 z" stroke="none" fill-rule="evenodd" fill="rgb(0, 0, 0)"/></g><g stroke="rgb(128, 128, 128)" stroke-width="0.13" stroke-linecap="butt" stroke-linejoin="miter" fill="none"><path d="M 64.9406 82.8749 L 65.0818 83.1321 L 65.2785 83.3086 L 65.5256 83.4196 L 65.8232 83.4549 L 66.272 83.3742 L 66.62 83.1422 L 66.8419 82.764 L 66.9277 82.2495 L 66.8419 81.7402 L 66.62 81.3619 L 66.272 81.1299 L 65.8232 81.0442 L 65.5256 81.0846 L 65.2785 81.1905 L 65.0818 81.372 L 64.9406 81.6242 L 64.8196 81.4225 L 64.6532 81.2813 L 64.4514 81.1955 L 64.2043 81.1653 L 63.8462 81.2459 L 63.5588 81.4578 L 63.3722 81.8007 L 63.3016 82.2495 L 63.3722 82.7034 L 63.5588 83.0464 L 63.8462 83.2632 L 64.2043 83.3389 L 64.4514 83.3137 L 64.6532 83.2279 L 64.9406 82.8749 L 64.9406 82.8749 z M 65.8131 82.9707 L 65.5458 82.9253 L 65.3441 82.7791 L 65.213 82.5521 L 65.1676 82.2495 L 65.213 81.952 L 65.3441 81.7251 L 65.5458 81.5788 L 65.8131 81.5284 L 66.1006 81.5788 L 66.3174 81.7251 L 66.4586 81.952 L 66.504 82.2495 L 66.4586 82.5521 L 66.3174 82.7791 L 66.1006 82.9253 L 65.8131 82.9707 L 65.8131 82.9707 z M 64.2447 82.8598 L 64.0228 82.8194 L 63.8513 82.6984 L 63.7454 82.5068 L 63.705 82.2495 L 63.7454 81.9974 L 63.8513 81.8057 L 64.0228 81.6847 L 64.2447 81.6393 L 64.4716 81.6847 L 64.6481 81.8057 L 64.7641 81.9974 L 64.7994 82.2495 L 64.7591 82.5068 L 64.6481 82.6984 L 64.4716 82.8194 L 64.2447 82.8598 L 64.2447 82.8598 z M 65.1171 79.7289 L 65.9089 79.6533 L 66.4738 79.4163 L 66.8167 79.038 L 66.9277 78.5135 L 66.8167 77.9941 L 66.4738 77.6158 L 65.9089 77.3839 L 65.1171 77.3032 L 64.3304 77.3839 L 64.0177 77.4797 L 63.7605 77.6158 L 63.4176 77.9941 L 63.3016 78.5135 L 63.4176 79.038 L 63.7656 79.4163 L 64.3304 79.6533 L 65.1171 79.7289 L 65.1171 79.7289 z M 65.1171 79.2448 L 64.5069 79.2045 L 64.0682 79.0784 L 63.8109 78.8514 L 63.7202 78.5135 L 63.8109 78.1807 L 64.0682 77.9537 L 64.5069 77.8277 L 65.1171 77.7873 L 65.7324 77.8277 L 66.1712 77.9537 L 66.4284 78.1807 L 66.5141 78.5135 L 66.4284 78.8514 L 66.1712 79.0784 L 65.7324 79.2045 L 65.1171 79.2448 L 65.1171 79.2448 z" stroke="none" fill-rule="evenodd" fill="rgb(128, 128, 128)"/><path d="M 68.3092 118.45 L 68.8268 120.382 L 69.3444 118.45"/><path d="M 69.3444 42.3134 L 68.8268 40.3815 L 68.3092 42.3134"/><path d="M 68.8268 120.382 L 68.8268 40.3815"/></g></svg>