<?xml version="1.0" encoding="utf-8" ?><!DOCTYPE svg PUBLIC "-//W3C//DTD SVG 1.1//EN" "http://www.w3.org/Graphics/SVG/1.1/DTD/svg11.dtd" 
[ <!ATTLIST svg 
  xmlns:dsy CDATA #FIXED "http://www.3ds.com/print"  
    dsy:text-version CDATA #IMPLIED > 

  <!ATTLIST text 
  xmlns:dsy CDATA #FIXED "http://www.3ds.com/print" 
    dsy:text-version CDATA #IMPLIED > 
]><svg xmlns="http://www.w3.org/2000/svg" xmlns:dsy="http://www.3ds.com/print" dsy:text-version="18000" width="420" height="297" viewBox="0 0 420 297" version="1.1"><g stroke="rgb(0, 0, 0)" stroke-width="0.13" stroke-linecap="butt" stroke-linejoin="miter" fill="none"><path d="M 374.501 213.334 L 161.478 213.334"/><path d="M 214.501 7.09418 L 161.478 7.09418"/><path d="M 57.4302 105.631 L 22.6198 105.631"/><path d="M 41.5302 25.6309 L 22.6198 25.6309"/><path d="M 61.5829 242.87 L 32.2473 242.87"/><path d="M 59.5829 175.87 L 32.2473 175.87"/></g><g stroke="rgb(0, 0, 0)" stroke-width="0.35" stroke-linecap="butt" stroke-linejoin="miter" fill="none"><path d="M 210.501 17.0942 L 210.501 7.09418"/><path d="M 216.501 17.0942 L 210.501 17.0942"/><path d="M 216.501 7.09418 L 216.501 17.0942"/><path d="M 401.501 87.3338 L 411.501 87.3338"/><path d="M 401.501 93.3338 L 401.501 87.3338"/><path d="M 411.501 93.3338 L 401.501 93.3338"/><path d="M 371.501 193.334 L 381.501 193.334"/><path d="M 381.501 193.334 L 381.501 187.334"/><path d="M 381.501 187.334 L 371.501 187.334"/><path d="M 315.501 103.334 L 315.501 73.3338"/><path d="M 315.501 73.3338 A 15.5 15.5 0 1 0 284.501 73.3338"/><path d="M 284.501 73.3338 L 284.501 103.334"/><path d="M 237.401 23.3338 L 231.501 23.3338"/><path d="M 231.501 29.1338 L 231.501 23.3338"/><path d="M 231.501 29.1338 L 237.401 29.1338"/><path d="M 237.401 23.3338 L 237.401 29.1338"/><path d="M 237.401 54.1338 L 231.501 54.1338"/><path d="M 231.501 59.9338 L 231.501 54.1338"/><path d="M 231.501 59.9338 L 237.401 59.9338"/><path d="M 237.401 54.1338 L 237.401 59.9338"/><path d="M 195.501 59.9338 L 195.501 54.1338"/><path d="M 189.601 54.1338 L 195.501 54.1338"/><path d="M 189.601 54.1338 L 189.601 59.9338"/><path d="M 195.501 59.9338 L 189.601 59.9338"/><path d="M 195.501 29.1338 L 189.601 29.1338"/><path d="M 195.501 29.1338 L 195.501 23.3338"/><path d="M 189.601 23.3338 L 195.501 23.3338"/><path d="M 189.601 23.3338 L 189.601 29.1338"/><path d="M 371.501 187.334 L 371.501 108.334"/><path d="M 366.501 103.334 L 315.501 103.334"/><path d="M 371.501 108.334 A 5 5 0 0 0 366.501 103.334"/><path d="M 371.501 208.334 L 371.501 193.334"/><path d="M 371.501 208.334 A 5 5 0 0 0 376.501 213.334"/><path d="M 411.501 208.334 L 411.501 93.3338"/><path d="M 406.501 213.334 L 376.501 213.334"/><path d="M 406.501 213.334 A 5 5 0 0 0 411.501 208.334"/><path d="M 284.501 103.334 L 179.501 103.334"/><path d="M 174.501 98.3338 L 174.501 83.04"/><path d="M 174.501 98.3338 A 5 5 0 0 0 179.501 103.334"/><path d="M 174.501 83.04 L 174.501 12.0942"/><path d="M 210.501 7.09418 L 179.501 7.09418"/><path d="M 179.501 7.09418 A 5 5 0 0 0 174.501 12.0942"/><path d="M 259.294 7.09418 L 216.501 7.09418"/><path d="M 261.261 7.49734 A 5 5 0 0 0 259.294 7.09418"/><path d="M 411.501 87.3338 L 411.501 75.0861"/><path d="M 408.468 70.4892 L 261.261 7.49738"/><path d="M 411.501 75.0861 A 5 5 0 0 0 408.468 70.4892"/><path d="M 57.4302 65.6309 L 51.5302 65.6309"/><path d="M 51.5302 65.6309 L 51.5302 75.6309"/><path d="M 93.3302 65.6309 L 93.3302 75.6309"/><path d="M 87.4302 65.6309 L 93.3302 65.6309"/><circle cx="49.2469" cy="33.6307" r="3.2"/><circle cx="95.6135" cy="33.6307" r="3.2"/><path d="M 101.33 25.6309 L 72.4302 25.6309"/><path d="M 103.33 27.6309 A 2 2 0 0 0 101.33 25.6309"/><path d="M 93.3302 75.6309 L 101.33 75.6309"/><path d="M 103.33 73.6309 L 103.33 27.6309"/><path d="M 101.33 75.6309 A 2 2 0 0 0 103.33 73.6309"/><path d="M 87.4302 103.631 L 87.4302 65.6309"/><path d="M 72.4302 105.631 L 85.4302 105.631"/><path d="M 85.4302 105.631 A 2 2 0 0 0 87.4302 103.631"/><path d="M 72.4302 105.631 L 59.4302 105.631"/><path d="M 57.4302 103.631 L 57.4302 65.6309"/><path d="M 57.4302 103.631 A 2 2 0 0 0 59.4302 105.631"/><path d="M 51.5302 75.6309 L 43.5302 75.6309"/><path d="M 41.5302 73.6309 A 2 2 0 0 0 43.5302 75.6309"/><path d="M 43.5302 25.6309 L 72.4302 25.6309"/><path d="M 41.5302 73.6309 L 41.5302 27.6309"/><path d="M 43.5302 25.6309 A 2 2 0 0 0 41.5302 27.6309"/><path d="M 96.5829 196.454 A 15 15 0 0 0 96.5829 226.454"/><path d="M 61.5829 190.87 L 61.5829 175.87"/><path d="M 53.5829 190.87 L 61.5829 190.87"/><path d="M 53.5829 196.87 L 53.5829 190.87"/><path d="M 61.5829 196.87 L 53.5829 196.87"/><path d="M 61.5829 221.87 L 61.5829 196.87"/><path d="M 53.5829 221.87 L 61.5829 221.87"/><path d="M 53.5829 227.87 L 53.5829 221.87"/><path d="M 61.5829 227.87 L 53.5829 227.87"/><path d="M 96.5829 177.87 L 96.5829 196.454"/><path d="M 61.5829 175.87 L 94.5829 175.87"/><path d="M 96.5829 177.87 A 2 2 0 0 0 94.5829 175.87"/><path d="M 96.5829 226.454 L 96.5829 240.87"/><path d="M 94.5829 242.87 A 2 2 0 0 0 96.5829 240.87"/><path d="M 61.5829 240.87 L 61.5829 227.87"/><path d="M 94.5829 242.87 L 63.5829 242.87"/><path d="M 61.5829 240.87 A 2 2 0 0 0 63.5829 242.87"/></g><g stroke="rgb(0, 0, 0)" stroke-width="0.13" stroke-linecap="butt" stroke-linejoin="miter" fill="none"><path d="M 295.397 221.685 L 294.519 224.666 L 293.616 221.685 L 293.137 221.685 L 294.267 225.19 L 294.771 225.19 L 295.876 221.685 L 295.397 221.685 L 295.397 221.685 z M 298.599 222.482 L 298.155 222.482 L 298.155 224.046 L 298.105 224.409 L 297.959 224.671 L 297.732 224.832 L 297.434 224.883 L 297.197 224.842 L 297.046 224.721 L 296.96 224.515 L 296.94 224.222 L 296.94 222.482 L 296.496 222.482 L 296.496 224.262 L 296.511 224.621 L 296.607 224.918 L 296.9 225.19 L 297.369 225.286 L 297.621 225.251 L 297.838 225.16 L 298.024 225.004 L 298.175 224.777 L 298.175 225.19 L 298.599 225.19 L 298.599 222.482 L 298.599 222.482 z M 299.936 223.965 L 301.711 223.965 L 301.716 223.758 L 301.635 223.178 L 301.413 222.744 L 301.06 222.482 L 300.591 222.386 L 300.132 222.487 L 299.779 222.77 L 299.552 223.229 L 299.472 223.834 L 299.547 224.454 L 299.774 224.908 L 300.122 225.19 L 300.576 225.286 L 300.969 225.221 L 301.292 225.049 L 301.529 224.777 L 301.665 224.414 L 301.227 224.414 L 301.136 224.616 L 301.005 224.767 L 300.632 224.888 L 300.344 224.832 L 300.127 224.656 L 299.986 224.368 L 299.936 223.98 L 299.936 223.965 L 299.936 223.965 z M 299.936 223.592 L 299.991 223.244 L 300.127 222.987 L 300.334 222.83 L 300.606 222.775 L 300.874 222.83 L 301.08 222.987 L 301.206 223.244 L 301.252 223.592 L 299.936 223.592 L 299.936 223.592 z M 307.284 224.772 L 307.284 225.19 L 307.727 225.19 L 307.727 221.569 L 307.289 221.569 L 307.289 222.896 L 306.951 222.512 L 306.744 222.422 L 306.507 222.386 L 306.078 222.487 L 305.745 222.77 L 305.529 223.224 L 305.453 223.834 L 305.529 224.444 L 305.745 224.903 L 306.078 225.19 L 306.507 225.286 L 306.744 225.251 L 306.956 225.16 L 307.284 224.772 L 307.284 224.772 z M 306.583 222.785 L 306.875 222.855 L 307.097 223.052 L 307.228 223.38 L 307.279 223.834 L 307.228 224.293 L 307.097 224.621 L 306.875 224.822 L 306.583 224.888 L 306.305 224.822 L 306.093 224.621 L 305.952 224.288 L 305.907 223.834 L 305.952 223.385 L 306.093 223.057 L 306.305 222.855 L 306.583 222.785 L 306.583 222.785 z M 309.044 223.965 L 310.819 223.965 L 310.824 223.758 L 310.743 223.178 L 310.521 222.744 L 310.168 222.482 L 309.699 222.386 L 309.24 222.487 L 308.887 222.77 L 308.66 223.229 L 308.58 223.834 L 308.655 224.454 L 308.882 224.908 L 309.23 225.19 L 309.684 225.286 L 310.078 225.221 L 310.4 225.049 L 310.637 224.777 L 310.773 224.414 L 310.335 224.414 L 310.244 224.616 L 310.113 224.767 L 309.74 224.888 L 309.452 224.832 L 309.235 224.656 L 309.094 224.368 L 309.044 223.98 L 309.044 223.965 L 309.044 223.965 z M 309.044 223.592 L 309.099 223.244 L 309.235 222.987 L 309.442 222.83 L 309.714 222.775 L 309.982 222.83 L 310.188 222.987 L 310.315 223.244 L 310.36 223.592 L 309.044 223.592 L 309.044 223.592 z M 315.343 222.951 L 315.343 225.19 L 315.786 225.19 L 315.786 222.951 L 316.795 222.951 L 316.795 222.573 L 315.786 222.573 L 315.786 222.407 L 315.822 222.205 L 315.938 222.069 L 316.134 221.988 L 316.417 221.958 L 316.795 221.978 L 316.795 221.595 L 316.316 221.569 L 315.882 221.615 L 315.58 221.751 L 315.398 221.988 L 315.343 222.326 L 315.343 222.573 L 314.531 222.573 L 314.531 222.951 L 315.343 222.951 L 315.343 222.951 z M 319.372 224.837 L 319.372 224.853 L 319.397 225.024 L 319.473 225.145 L 319.791 225.241 L 320.038 225.201 L 320.038 224.858 L 319.932 224.873 L 319.791 224.807 L 319.766 224.605 L 319.766 223.203 L 319.705 222.845 L 319.529 222.593 L 319.221 222.442 L 318.787 222.386 L 318.364 222.447 L 318.051 222.618 L 317.854 222.886 L 317.789 223.239 L 317.789 223.269 L 318.187 223.269 L 318.222 223.057 L 318.333 222.906 L 318.515 222.815 L 318.772 222.78 L 319.019 222.805 L 319.196 222.881 L 319.302 223.012 L 319.337 223.193 L 319.317 223.405 L 319.236 223.511 L 319.034 223.561 L 318.656 223.602 L 318.222 223.693 L 317.915 223.854 L 317.733 224.106 L 317.678 224.479 L 317.728 224.812 L 317.884 225.059 L 318.137 225.216 L 318.485 225.271 L 318.954 225.165 L 319.372 224.837 L 319.372 224.837 z M 319.322 224.242 L 319.261 224.505 L 319.1 224.706 L 318.858 224.837 L 318.56 224.883 L 318.369 224.858 L 318.232 224.777 L 318.147 224.636 L 318.122 224.439 L 318.142 224.262 L 318.222 224.136 L 318.545 223.995 L 318.954 223.935 L 319.322 223.814 L 319.322 224.242 L 319.322 224.242 z M 322.524 223.38 L 322.963 223.38 L 322.872 222.976 L 322.655 222.659 L 322.318 222.462 L 321.879 222.386 L 321.395 222.487 L 321.026 222.77 L 320.794 223.229 L 320.714 223.844 L 320.789 224.454 L 321.016 224.908 L 321.374 225.19 L 321.864 225.286 L 322.297 225.211 L 322.635 224.999 L 322.867 224.666 L 322.968 224.222 L 322.544 224.222 L 322.469 224.505 L 322.328 224.716 L 322.126 224.847 L 321.879 224.888 L 321.571 224.822 L 321.349 224.621 L 321.213 224.293 L 321.168 223.829 L 321.213 223.375 L 321.354 223.047 L 321.581 222.845 L 321.879 222.775 L 322.141 222.82 L 322.338 222.936 L 322.469 223.128 L 322.524 223.38 L 322.524 223.38 z M 324.224 223.965 L 325.999 223.965 L 326.004 223.758 L 325.923 223.178 L 325.702 222.744 L 325.349 222.482 L 324.879 222.386 L 324.421 222.487 L 324.068 222.77 L 323.841 223.229 L 323.76 223.834 L 323.836 224.454 L 324.063 224.908 L 324.41 225.19 L 324.864 225.286 L 325.258 225.221 L 325.581 225.049 L 325.818 224.777 L 325.954 224.414 L 325.515 224.414 L 325.424 224.616 L 325.293 224.767 L 324.92 224.888 L 324.632 224.832 L 324.416 224.656 L 324.274 224.368 L 324.224 223.98 L 324.224 223.965 L 324.224 223.965 z M 324.224 223.592 L 324.279 223.244 L 324.416 222.987 L 324.622 222.83 L 324.895 222.775 L 325.162 222.83 L 325.369 222.987 L 325.495 223.244 L 325.54 223.592 L 324.224 223.592 L 324.224 223.592 z" stroke="none" fill-rule="evenodd" fill="rgb(0, 0, 0)"/></g><g stroke="rgb(0, 0, 0)" stroke-width="0.13" stroke-linecap="butt" stroke-linejoin="miter" fill="none"><path d="M 293.46 231.237 L 295.679 231.237 L 295.679 230.814 L 293.924 230.814 L 293.924 229.628 L 295.487 229.628 L 295.487 229.21 L 293.924 229.21 L 293.924 228.161 L 295.639 228.161 L 295.639 227.737 L 293.46 227.737 L 293.46 231.237 L 293.46 231.237 z M 298.236 229.427 L 298.675 229.427 L 298.584 229.023 L 298.367 228.706 L 298.029 228.509 L 297.59 228.433 L 297.106 228.534 L 296.738 228.817 L 296.506 229.275 L 296.425 229.891 L 296.501 230.501 L 296.728 230.955 L 297.086 231.237 L 297.575 231.333 L 298.009 231.257 L 298.347 231.046 L 298.579 230.713 L 298.68 230.269 L 298.256 230.269 L 298.18 230.551 L 298.039 230.763 L 297.838 230.894 L 297.59 230.935 L 297.283 230.869 L 297.061 230.667 L 296.925 230.34 L 296.879 229.876 L 296.925 229.422 L 297.066 229.094 L 297.293 228.892 L 297.59 228.822 L 297.853 228.867 L 298.049 228.983 L 298.18 229.175 L 298.236 229.427 L 298.236 229.427 z M 299.547 231.237 L 299.991 231.237 L 299.991 229.674 L 300.036 229.316 L 300.183 229.054 L 300.41 228.892 L 300.712 228.832 L 300.954 228.882 L 301.106 229.018 L 301.181 229.245 L 301.206 229.548 L 301.206 231.237 L 301.65 231.237 L 301.65 229.457 L 301.63 229.099 L 301.539 228.801 L 301.242 228.529 L 300.778 228.433 L 300.526 228.469 L 300.309 228.564 L 300.127 228.716 L 299.991 228.922 L 299.991 227.616 L 299.547 227.616 L 299.547 231.237 L 299.547 231.237 z M 302.972 230.012 L 304.747 230.012 L 304.752 229.805 L 304.671 229.225 L 304.449 228.791 L 304.096 228.529 L 303.627 228.433 L 303.168 228.534 L 302.815 228.817 L 302.588 229.275 L 302.508 229.881 L 302.583 230.501 L 302.81 230.955 L 303.158 231.237 L 303.612 231.333 L 304.005 231.268 L 304.328 231.096 L 304.565 230.824 L 304.701 230.461 L 304.263 230.461 L 304.172 230.662 L 304.041 230.814 L 303.668 230.935 L 303.38 230.879 L 303.163 230.703 L 303.022 230.415 L 302.972 230.027 L 302.972 230.012 L 302.972 230.012 z M 302.972 229.639 L 303.027 229.291 L 303.163 229.033 L 303.37 228.877 L 303.642 228.822 L 303.91 228.877 L 304.116 229.033 L 304.242 229.291 L 304.288 229.639 L 302.972 229.639 L 302.972 229.639 z M 306.502 227.989 L 306.502 230.864 L 305.589 230.864 L 305.589 231.237 L 307.853 231.237 L 307.853 230.864 L 306.946 230.864 L 306.946 227.616 L 305.806 227.616 L 305.806 227.989 L 306.502 227.989 L 306.502 227.989 z M 309.538 227.989 L 309.538 230.864 L 308.625 230.864 L 308.625 231.237 L 310.889 231.237 L 310.889 230.864 L 309.982 230.864 L 309.982 227.616 L 308.842 227.616 L 308.842 227.989 L 309.538 227.989 L 309.538 227.989 z M 312.08 230.012 L 313.855 230.012 L 313.86 229.805 L 313.779 229.225 L 313.557 228.791 L 313.204 228.529 L 312.735 228.433 L 312.276 228.534 L 311.923 228.817 L 311.696 229.275 L 311.616 229.881 L 311.691 230.501 L 311.918 230.955 L 312.266 231.237 L 312.72 231.333 L 313.114 231.268 L 313.436 231.096 L 313.673 230.824 L 313.81 230.461 L 313.371 230.461 L 313.28 230.662 L 313.149 230.814 L 312.776 230.935 L 312.488 230.879 L 312.271 230.703 L 312.13 230.415 L 312.08 230.027 L 312.08 230.012 L 312.08 230.012 z M 312.08 229.639 L 312.135 229.291 L 312.271 229.033 L 312.478 228.877 L 312.75 228.822 L 313.018 228.877 L 313.225 229.033 L 313.351 229.291 L 313.396 229.639 L 312.08 229.639 L 312.08 229.639 z M 318.459 231.237 L 319.155 231.237 L 319.155 230.486 L 318.459 230.486 L 318.459 231.237 L 318.459 231.237 z M 318.459 229.28 L 319.155 229.28 L 319.155 228.529 L 318.459 228.529 L 318.459 229.28 L 318.459 229.28 z" stroke="none" fill-rule="evenodd" fill="rgb(0, 0, 0)"/></g><g stroke="rgb(0, 0, 0)" stroke-width="0.13" stroke-linecap="butt" stroke-linejoin="miter" fill="none"><path d="M 327.825 231.237 L 328.284 231.237 L 328.284 227.712 L 327.941 227.712 L 327.85 228.02 L 327.668 228.226 L 327.391 228.347 L 327.008 228.388 L 327.008 228.746 L 327.825 228.746 L 327.825 231.237 L 327.825 231.237 z M 330.603 231.237 L 331.299 231.237 L 331.299 230.486 L 330.603 230.486 L 330.603 231.237 L 330.603 231.237 z M 330.603 229.28 L 331.299 229.28 L 331.299 228.529 L 330.603 228.529 L 330.603 229.28 L 330.603 229.28 z M 333.897 231.237 L 334.356 231.237 L 334.356 227.712 L 334.013 227.712 L 333.922 228.02 L 333.74 228.226 L 333.463 228.347 L 333.08 228.388 L 333.08 228.746 L 333.897 228.746 L 333.897 231.237 L 333.897 231.237 z" stroke="none" fill-rule="evenodd" fill="rgb(0, 0, 0)"/></g><g stroke="rgb(0, 0, 0)" stroke-width="0.13" stroke-linecap="butt" stroke-linejoin="miter" fill="none"><path d="M 161.478 120.785 L 161.478 118.379 L 161.044 118.379 L 161.044 120.28 L 160.807 120.174 L 160.61 119.993 L 160.252 119.433 L 160.101 119.135 L 159.884 118.803 L 159.632 118.566 L 159.334 118.429 L 158.997 118.379 L 158.573 118.465 L 158.24 118.702 L 158.028 119.065 L 157.953 119.534 L 158.038 120.018 L 158.275 120.386 L 158.654 120.623 L 159.153 120.704 L 159.224 120.704 L 159.224 120.245 L 159.183 120.245 L 158.84 120.2 L 158.588 120.063 L 158.427 119.847 L 158.371 119.559 L 158.422 119.267 L 158.548 119.05 L 158.744 118.909 L 158.992 118.858 L 159.224 118.893 L 159.42 118.989 L 159.592 119.151 L 159.743 119.373 L 159.904 119.67 L 160.217 120.164 L 160.55 120.512 L 160.953 120.719 L 161.463 120.785 L 161.478 120.785 L 161.478 120.785 z M 159.768 117.033 L 160.56 116.958 L 161.125 116.721 L 161.468 116.343 L 161.579 115.818 L 161.468 115.299 L 161.125 114.92 L 160.56 114.688 L 159.768 114.608 L 158.981 114.688 L 158.669 114.784 L 158.412 114.92 L 158.069 115.299 L 157.953 115.818 L 158.069 116.343 L 158.417 116.721 L 158.981 116.958 L 159.768 117.033 L 159.768 117.033 z M 159.768 116.549 L 159.158 116.509 L 158.719 116.383 L 158.462 116.156 L 158.371 115.818 L 158.462 115.485 L 158.719 115.258 L 159.158 115.132 L 159.768 115.092 L 160.383 115.132 L 160.822 115.258 L 161.079 115.485 L 161.165 115.818 L 161.079 116.156 L 160.822 116.383 L 160.383 116.509 L 159.768 116.549 L 159.768 116.549 z M 158.921 110.872 L 158.512 110.967 L 158.21 111.189 L 158.018 111.532 L 157.953 111.976 L 157.988 112.274 L 158.084 112.531 L 158.24 112.758 L 158.462 112.949 L 158.739 113.101 L 159.077 113.212 L 159.476 113.282 L 159.925 113.302 L 160.641 113.222 L 161.16 112.975 L 161.473 112.576 L 161.579 112.032 L 161.488 111.542 L 161.251 111.169 L 160.878 110.927 L 160.404 110.841 L 159.925 110.927 L 159.556 111.159 L 159.324 111.517 L 159.244 111.961 L 159.345 112.44 L 159.632 112.798 L 159.077 112.722 L 158.679 112.561 L 158.442 112.314 L 158.361 111.971 L 158.401 111.719 L 158.507 111.527 L 158.684 111.401 L 158.921 111.336 L 158.921 110.872 L 158.921 110.872 z M 160.409 111.331 L 160.726 111.386 L 160.968 111.527 L 161.13 111.754 L 161.18 112.037 L 161.13 112.334 L 160.974 112.561 L 160.731 112.707 L 160.414 112.753 L 160.101 112.702 L 159.864 112.561 L 159.713 112.329 L 159.657 112.016 L 159.713 111.744 L 159.859 111.527 L 160.096 111.386 L 160.409 111.331 L 160.409 111.331 z M 161.478 108.694 L 161.478 107.998 L 160.726 107.998 L 160.726 108.694 L 161.478 108.694 L 161.478 108.694 z M 161.478 105.84 L 161.478 103.435 L 161.044 103.435 L 161.044 105.336 L 160.807 105.23 L 160.61 105.049 L 160.252 104.489 L 160.101 104.191 L 159.884 103.858 L 159.632 103.621 L 159.334 103.485 L 158.997 103.435 L 158.573 103.521 L 158.24 103.758 L 158.028 104.121 L 157.953 104.59 L 158.038 105.074 L 158.275 105.442 L 158.654 105.679 L 159.153 105.76 L 159.224 105.76 L 159.224 105.301 L 159.183 105.301 L 158.84 105.255 L 158.588 105.119 L 158.427 104.902 L 158.371 104.615 L 158.422 104.322 L 158.548 104.106 L 158.744 103.964 L 158.992 103.914 L 159.224 103.949 L 159.42 104.045 L 159.592 104.206 L 159.743 104.428 L 159.904 104.726 L 160.217 105.22 L 160.55 105.568 L 160.953 105.775 L 161.463 105.84 L 161.478 105.84 L 161.478 105.84 z M 161.478 100.596 L 161.478 100.143 L 160.61 100.143 L 160.61 99.6433 L 160.207 99.6433 L 160.207 100.143 L 158.053 100.143 L 158.053 100.602 L 160.167 102.135 L 160.61 102.135 L 160.61 100.596 L 161.478 100.596 L 161.478 100.596 z M 160.207 101.711 L 158.639 100.596 L 160.207 100.596 L 160.207 101.711 L 160.207 101.711 z" stroke="none" fill-rule="evenodd" fill="rgb(0, 0, 0)"/><path d="M 163.995 9.02603 L 163.478 7.09418 L 162.96 9.02603"/><path d="M 162.96 211.402 L 163.478 213.334 L 163.995 211.402"/><path d="M 163.478 213.334 L 163.478 7.09418"/></g><g stroke="rgb(0, 0, 0)" stroke-width="0.13" stroke-linecap="butt" stroke-linejoin="miter" fill="none"><path d="M 74.8257 113.983 L 73.9482 116.963 L 73.0455 113.983 L 72.5664 113.983 L 73.696 117.488 L 74.2004 117.488 L 75.3048 113.983 L 74.8257 113.983 L 74.8257 113.983 z M 78.0282 114.779 L 77.5844 114.779 L 77.5844 116.343 L 77.534 116.706 L 77.3877 116.968 L 77.1608 117.129 L 76.8632 117.18 L 76.6262 117.14 L 76.4749 117.019 L 76.3891 116.812 L 76.369 116.519 L 76.369 114.779 L 75.9252 114.779 L 75.9252 116.56 L 75.9403 116.918 L 76.0361 117.215 L 76.3286 117.488 L 76.7976 117.583 L 77.0498 117.548 L 77.2667 117.457 L 77.4533 117.301 L 77.6046 117.074 L 77.6046 117.488 L 78.0282 117.488 L 78.0282 114.779 L 78.0282 114.779 z M 79.3646 116.262 L 81.1399 116.262 L 81.1449 116.055 L 81.0642 115.475 L 80.8423 115.042 L 80.4893 114.779 L 80.0203 114.684 L 79.5613 114.784 L 79.2083 115.067 L 78.9814 115.526 L 78.9007 116.131 L 78.9763 116.751 L 79.2033 117.205 L 79.5512 117.488 L 80.0051 117.583 L 80.3985 117.518 L 80.7213 117.346 L 80.9583 117.074 L 81.0945 116.711 L 80.6557 116.711 L 80.5649 116.913 L 80.4338 117.064 L 80.0606 117.185 L 79.7731 117.129 L 79.5563 116.953 L 79.4151 116.665 L 79.3646 116.277 L 79.3646 116.262 L 79.3646 116.262 z M 79.3646 115.889 L 79.4201 115.541 L 79.5563 115.284 L 79.7631 115.127 L 80.0354 115.072 L 80.3027 115.127 L 80.5095 115.284 L 80.6355 115.541 L 80.6809 115.889 L 79.3646 115.889 L 79.3646 115.889 z M 86.7126 117.069 L 86.7126 117.488 L 87.1564 117.488 L 87.1564 113.867 L 86.7177 113.867 L 86.7177 115.193 L 86.3798 114.81 L 86.173 114.719 L 85.936 114.684 L 85.5073 114.784 L 85.1744 115.067 L 84.9576 115.521 L 84.8819 116.131 L 84.9576 116.741 L 85.1744 117.2 L 85.5073 117.488 L 85.936 117.583 L 86.173 117.548 L 86.3848 117.457 L 86.7126 117.069 L 86.7126 117.069 z M 86.0116 115.082 L 86.3041 115.153 L 86.526 115.349 L 86.6572 115.677 L 86.7076 116.131 L 86.6572 116.59 L 86.526 116.918 L 86.3041 117.119 L 86.0116 117.185 L 85.7342 117.119 L 85.5224 116.918 L 85.3812 116.585 L 85.3358 116.131 L 85.3812 115.682 L 85.5224 115.354 L 85.7342 115.153 L 86.0116 115.082 L 86.0116 115.082 z M 88.4727 116.262 L 90.2479 116.262 L 90.253 116.055 L 90.1723 115.475 L 89.9504 115.042 L 89.5974 114.779 L 89.1283 114.684 L 88.6694 114.784 L 88.3164 115.067 L 88.0894 115.526 L 88.0087 116.131 L 88.0844 116.751 L 88.3113 117.205 L 88.6593 117.488 L 89.1132 117.583 L 89.5066 117.518 L 89.8293 117.346 L 90.0664 117.074 L 90.2025 116.711 L 89.7638 116.711 L 89.673 116.913 L 89.5419 117.064 L 89.1687 117.185 L 88.8812 117.129 L 88.6644 116.953 L 88.5232 116.665 L 88.4727 116.277 L 88.4727 116.262 L 88.4727 116.262 z M 88.4727 115.889 L 88.5282 115.541 L 88.6644 115.284 L 88.8711 115.127 L 89.1435 115.072 L 89.4108 115.127 L 89.6175 115.284 L 89.7436 115.541 L 89.789 115.889 L 88.4727 115.889 L 88.4727 115.889 z M 94.7717 115.248 L 94.7717 117.488 L 95.2155 117.488 L 95.2155 115.248 L 96.2242 115.248 L 96.2242 114.87 L 95.2155 114.87 L 95.2155 114.704 L 95.2508 114.502 L 95.3668 114.366 L 95.5635 114.285 L 95.8459 114.255 L 96.2242 114.275 L 96.2242 113.892 L 95.7451 113.867 L 95.3113 113.912 L 95.0088 114.048 L 94.8272 114.285 L 94.7717 114.623 L 94.7717 114.87 L 93.9598 114.87 L 93.9598 115.248 L 94.7717 115.248 L 94.7717 115.248 z M 98.8013 117.135 L 98.8013 117.15 L 98.8265 117.321 L 98.9021 117.442 L 99.2198 117.538 L 99.467 117.498 L 99.467 117.155 L 99.3611 117.17 L 99.2198 117.104 L 99.1946 116.903 L 99.1946 115.501 L 99.1341 115.142 L 98.9576 114.89 L 98.65 114.739 L 98.2162 114.684 L 97.7926 114.744 L 97.4799 114.915 L 97.2832 115.183 L 97.2177 115.536 L 97.2177 115.566 L 97.6161 115.566 L 97.6514 115.354 L 97.7624 115.203 L 97.9439 115.112 L 98.2011 115.077 L 98.4482 115.102 L 98.6247 115.178 L 98.7307 115.309 L 98.766 115.49 L 98.7458 115.702 L 98.6651 115.808 L 98.4634 115.859 L 98.0851 115.899 L 97.6514 115.99 L 97.3438 116.151 L 97.1622 116.403 L 97.1067 116.776 L 97.1572 117.109 L 97.3135 117.356 L 97.5657 117.513 L 97.9137 117.568 L 98.3827 117.462 L 98.8013 117.135 L 98.8013 117.135 z M 98.7508 116.539 L 98.6903 116.802 L 98.5289 117.003 L 98.2868 117.135 L 97.9893 117.18 L 97.7977 117.155 L 97.6615 117.074 L 97.5758 116.933 L 97.5505 116.736 L 97.5707 116.56 L 97.6514 116.434 L 97.9742 116.292 L 98.3827 116.232 L 98.7508 116.111 L 98.7508 116.539 L 98.7508 116.539 z M 101.953 115.677 L 102.392 115.677 L 102.301 115.274 L 102.084 114.956 L 101.747 114.759 L 101.308 114.684 L 100.824 114.784 L 100.455 115.067 L 100.223 115.526 L 100.143 116.141 L 100.218 116.751 L 100.445 117.205 L 100.803 117.488 L 101.293 117.583 L 101.726 117.508 L 102.064 117.296 L 102.296 116.963 L 102.397 116.519 L 101.973 116.519 L 101.898 116.802 L 101.757 117.013 L 101.555 117.145 L 101.308 117.185 L 101 117.119 L 100.778 116.918 L 100.642 116.59 L 100.597 116.126 L 100.642 115.672 L 100.783 115.344 L 101.01 115.142 L 101.308 115.072 L 101.57 115.117 L 101.767 115.233 L 101.898 115.425 L 101.953 115.677 L 101.953 115.677 z M 103.653 116.262 L 105.428 116.262 L 105.433 116.055 L 105.352 115.475 L 105.131 115.042 L 104.777 114.779 L 104.308 114.684 L 103.85 114.784 L 103.497 115.067 L 103.27 115.526 L 103.189 116.131 L 103.265 116.751 L 103.491 117.205 L 103.839 117.488 L 104.293 117.583 L 104.687 117.518 L 105.009 117.346 L 105.247 117.074 L 105.383 116.711 L 104.944 116.711 L 104.853 116.913 L 104.722 117.064 L 104.349 117.185 L 104.061 117.129 L 103.844 116.953 L 103.703 116.665 L 103.653 116.277 L 103.653 116.262 L 103.653 116.262 z M 103.653 115.889 L 103.708 115.541 L 103.844 115.284 L 104.051 115.127 L 104.324 115.072 L 104.591 115.127 L 104.798 115.284 L 104.924 115.541 L 104.969 115.889 L 103.653 115.889 L 103.653 115.889 z" stroke="none" fill-rule="evenodd" fill="rgb(0, 0, 0)"/></g><g stroke="rgb(0, 0, 0)" stroke-width="0.13" stroke-linecap="butt" stroke-linejoin="miter" fill="none"><path d="M 72.8891 123.534 L 75.1082 123.534 L 75.1082 123.111 L 73.3531 123.111 L 73.3531 121.926 L 74.9165 121.926 L 74.9165 121.507 L 73.3531 121.507 L 73.3531 120.458 L 75.0678 120.458 L 75.0678 120.034 L 72.8891 120.034 L 72.8891 123.534 L 72.8891 123.534 z M 77.6651 121.724 L 78.1038 121.724 L 78.0131 121.32 L 77.7962 121.003 L 77.4583 120.806 L 77.0195 120.73 L 76.5354 120.831 L 76.1672 121.114 L 75.9352 121.573 L 75.8546 122.188 L 75.9302 122.798 L 76.1572 123.252 L 76.5152 123.534 L 77.0044 123.63 L 77.4381 123.555 L 77.776 123.343 L 78.008 123.01 L 78.1089 122.566 L 77.6852 122.566 L 77.6096 122.848 L 77.4684 123.06 L 77.2667 123.191 L 77.0195 123.232 L 76.7119 123.166 L 76.49 122.964 L 76.3538 122.637 L 76.3084 122.173 L 76.3538 121.719 L 76.495 121.391 L 76.722 121.189 L 77.0195 121.119 L 77.2818 121.164 L 77.4785 121.28 L 77.6096 121.472 L 77.6651 121.724 L 77.6651 121.724 z M 78.9763 123.534 L 79.4201 123.534 L 79.4201 121.971 L 79.4655 121.613 L 79.6118 121.351 L 79.8387 121.189 L 80.1413 121.129 L 80.3834 121.179 L 80.5347 121.315 L 80.6103 121.542 L 80.6355 121.845 L 80.6355 123.534 L 81.0793 123.534 L 81.0793 121.754 L 81.0592 121.396 L 80.9684 121.098 L 80.6708 120.826 L 80.2069 120.73 L 79.9547 120.766 L 79.7378 120.861 L 79.5563 121.013 L 79.4201 121.22 L 79.4201 119.913 L 78.9763 119.913 L 78.9763 123.534 L 78.9763 123.534 z M 82.4007 122.309 L 84.1759 122.309 L 84.1809 122.102 L 84.1002 121.522 L 83.8783 121.088 L 83.5253 120.826 L 83.0563 120.73 L 82.5974 120.831 L 82.2443 121.114 L 82.0174 121.573 L 81.9367 122.178 L 82.0123 122.798 L 82.2393 123.252 L 82.5873 123.534 L 83.0412 123.63 L 83.4345 123.565 L 83.7573 123.393 L 83.9943 123.121 L 84.1305 122.758 L 83.6917 122.758 L 83.601 122.959 L 83.4698 123.111 L 83.0966 123.232 L 82.8092 123.176 L 82.5923 123 L 82.4511 122.712 L 82.4007 122.324 L 82.4007 122.309 L 82.4007 122.309 z M 82.4007 121.936 L 82.4561 121.588 L 82.5923 121.33 L 82.7991 121.174 L 83.0714 121.119 L 83.3387 121.174 L 83.5455 121.33 L 83.6716 121.588 L 83.7169 121.936 L 82.4007 121.936 L 82.4007 121.936 z M 85.9309 120.287 L 85.9309 123.161 L 85.0181 123.161 L 85.0181 123.534 L 87.2825 123.534 L 87.2825 123.161 L 86.3747 123.161 L 86.3747 119.913 L 85.235 119.913 L 85.235 120.287 L 85.9309 120.287 L 85.9309 120.287 z M 88.967 120.287 L 88.967 123.161 L 88.0541 123.161 L 88.0541 123.534 L 90.3185 123.534 L 90.3185 123.161 L 89.4108 123.161 L 89.4108 119.913 L 88.271 119.913 L 88.271 120.287 L 88.967 120.287 L 88.967 120.287 z M 91.5087 122.309 L 93.284 122.309 L 93.289 122.102 L 93.2083 121.522 L 92.9864 121.088 L 92.6334 120.826 L 92.1644 120.73 L 91.7054 120.831 L 91.3524 121.114 L 91.1255 121.573 L 91.0448 122.178 L 91.1204 122.798 L 91.3474 123.252 L 91.6953 123.534 L 92.1492 123.63 L 92.5426 123.565 L 92.8654 123.393 L 93.1024 123.121 L 93.2386 122.758 L 92.7998 122.758 L 92.709 122.959 L 92.5779 123.111 L 92.2047 123.232 L 91.9173 123.176 L 91.7004 123 L 91.5592 122.712 L 91.5087 122.324 L 91.5087 122.309 L 91.5087 122.309 z M 91.5087 121.936 L 91.5642 121.588 L 91.7004 121.33 L 91.9072 121.174 L 92.1795 121.119 L 92.4468 121.174 L 92.6536 121.33 L 92.7796 121.588 L 92.825 121.936 L 91.5087 121.936 L 91.5087 121.936 z M 97.8884 123.534 L 98.5844 123.534 L 98.5844 122.783 L 97.8884 122.783 L 97.8884 123.534 L 97.8884 123.534 z M 97.8884 121.578 L 98.5844 121.578 L 98.5844 120.826 L 97.8884 120.826 L 97.8884 121.578 L 97.8884 121.578 z" stroke="none" fill-rule="evenodd" fill="rgb(0, 0, 0)"/></g><g stroke="rgb(0, 0, 0)" stroke-width="0.13" stroke-linecap="butt" stroke-linejoin="miter" fill="none"><path d="M 107.254 123.534 L 107.713 123.534 L 107.713 120.009 L 107.37 120.009 L 107.279 120.317 L 107.097 120.524 L 106.82 120.645 L 106.437 120.685 L 106.437 121.043 L 107.254 121.043 L 107.254 123.534 L 107.254 123.534 z M 110.033 123.534 L 110.728 123.534 L 110.728 122.783 L 110.033 122.783 L 110.033 123.534 L 110.033 123.534 z M 110.033 121.578 L 110.728 121.578 L 110.728 120.826 L 110.033 120.826 L 110.033 121.578 L 110.033 121.578 z M 113.326 123.534 L 113.785 123.534 L 113.785 120.009 L 113.442 120.009 L 113.351 120.317 L 113.169 120.524 L 112.892 120.645 L 112.509 120.685 L 112.509 121.043 L 113.326 121.043 L 113.326 123.534 L 113.326 123.534 z" stroke="none" fill-rule="evenodd" fill="rgb(0, 0, 0)"/></g><g stroke="rgb(0, 0, 0)" stroke-width="0.13" stroke-linecap="butt" stroke-linejoin="miter" fill="none"><path d="M 20.7336 68.1243 L 20.8748 68.3815 L 21.0715 68.558 L 21.3186 68.669 L 21.6162 68.7043 L 22.065 68.6236 L 22.413 68.3916 L 22.6349 68.0133 L 22.7206 67.4989 L 22.6349 66.9896 L 22.413 66.6113 L 22.065 66.3793 L 21.6162 66.2936 L 21.3186 66.3339 L 21.0715 66.4398 L 20.8748 66.6214 L 20.7336 66.8736 L 20.6126 66.6718 L 20.4461 66.5306 L 20.2444 66.4449 L 19.9973 66.4146 L 19.6392 66.4953 L 19.3518 66.7071 L 19.1652 67.0501 L 19.0945 67.4989 L 19.1652 67.9528 L 19.3518 68.2958 L 19.6392 68.5126 L 19.9973 68.5883 L 20.2444 68.563 L 20.4461 68.4773 L 20.7336 68.1243 L 20.7336 68.1243 z M 21.6061 68.2201 L 21.3388 68.1747 L 21.1371 68.0285 L 21.0059 67.8015 L 20.9605 67.4989 L 21.0059 67.2014 L 21.1371 66.9744 L 21.3388 66.8282 L 21.6061 66.7777 L 21.8935 66.8282 L 22.1104 66.9744 L 22.2516 67.2014 L 22.297 67.4989 L 22.2516 67.8015 L 22.1104 68.0285 L 21.8935 68.1747 L 21.6061 68.2201 L 21.6061 68.2201 z M 20.0376 68.1092 L 19.8157 68.0688 L 19.6443 67.9478 L 19.5384 67.7561 L 19.498 67.4989 L 19.5384 67.2468 L 19.6443 67.0551 L 19.8157 66.9341 L 20.0376 66.8887 L 20.2646 66.9341 L 20.4411 67.0551 L 20.5571 67.2468 L 20.5924 67.4989 L 20.552 67.7561 L 20.4411 67.9478 L 20.2646 68.0688 L 20.0376 68.1092 L 20.0376 68.1092 z M 20.9101 64.9783 L 21.7019 64.9027 L 22.2667 64.6656 L 22.6097 64.2874 L 22.7206 63.7629 L 22.6097 63.2435 L 22.2667 62.8652 L 21.7019 62.6332 L 20.9101 62.5525 L 20.1234 62.6332 L 19.8107 62.729 L 19.5535 62.8652 L 19.2105 63.2435 L 19.0945 63.7629 L 19.2105 64.2874 L 19.5585 64.6656 L 20.1234 64.9027 L 20.9101 64.9783 L 20.9101 64.9783 z M 20.9101 64.4942 L 20.2999 64.4538 L 19.8611 64.3277 L 19.6039 64.1008 L 19.5131 63.7629 L 19.6039 63.4301 L 19.8611 63.2031 L 20.2999 63.077 L 20.9101 63.0367 L 21.5254 63.077 L 21.9641 63.2031 L 22.2213 63.4301 L 22.3071 63.7629 L 22.2213 64.1008 L 21.9641 64.3277 L 21.5254 64.4538 L 20.9101 64.4942 L 20.9101 64.4942 z" stroke="none" fill-rule="evenodd" fill="rgb(0, 0, 0)"/><path d="M 24.1021 103.699 L 24.6198 105.631 L 25.1374 103.699"/><path d="M 25.1374 27.5628 L 24.6198 25.6309 L 24.1021 27.5628"/><path d="M 24.6198 105.631 L 24.6198 25.6309"/></g><g stroke="rgb(0, 0, 0)" stroke-width="0.13" stroke-linecap="butt" stroke-linejoin="miter" fill="none"><path d="M 29.6904 210.028 L 29.2819 210.124 L 28.9793 210.346 L 28.7877 210.689 L 28.7221 211.132 L 28.7574 211.43 L 28.8532 211.687 L 29.0096 211.914 L 29.2315 212.106 L 29.5089 212.257 L 29.8468 212.368 L 30.2452 212.439 L 30.694 212.459 L 31.4102 212.378 L 31.9296 212.131 L 32.2423 211.733 L 32.3482 211.188 L 32.2574 210.699 L 32.0204 210.325 L 31.6472 210.083 L 31.1731 209.998 L 30.694 210.083 L 30.3259 210.315 L 30.0939 210.673 L 30.0132 211.117 L 30.114 211.596 L 30.4015 211.954 L 29.8468 211.879 L 29.4483 211.717 L 29.2113 211.47 L 29.1306 211.127 L 29.171 210.875 L 29.2769 210.684 L 29.4534 210.557 L 29.6904 210.492 L 29.6904 210.028 L 29.6904 210.028 z M 31.1782 210.487 L 31.4959 210.542 L 31.738 210.684 L 31.8993 210.91 L 31.9498 211.193 L 31.8993 211.49 L 31.743 211.717 L 31.5009 211.864 L 31.1832 211.909 L 30.8705 211.859 L 30.6335 211.717 L 30.4822 211.485 L 30.4267 211.173 L 30.4822 210.9 L 30.6285 210.684 L 30.8655 210.542 L 31.1782 210.487 L 31.1782 210.487 z M 32.2473 208.203 L 32.2473 207.694 L 31.4152 207.527 L 30.6385 207.235 L 29.9174 206.821 L 29.2416 206.282 L 28.823 206.282 L 28.823 208.682 L 29.2819 208.682 L 29.2819 206.766 L 29.9627 207.321 L 30.6738 207.739 L 31.4303 208.032 L 32.2473 208.203 L 32.2473 208.203 z" stroke="none" fill-rule="evenodd" fill="rgb(0, 0, 0)"/><path d="M 34.765 177.802 L 34.2473 175.87 L 33.7297 177.802"/><path d="M 33.7297 240.938 L 34.2473 242.87 L 34.765 240.938"/><path d="M 34.2473 242.87 L 34.2473 175.87"/></g><g stroke="rgb(0, 0, 0)" stroke-width="0.13" stroke-linecap="butt" stroke-linejoin="miter" fill="none"><path d="M 77.4785 251.222 L 76.6009 254.202 L 75.6982 251.222 L 75.2191 251.222 L 76.3488 254.727 L 76.8531 254.727 L 77.9576 251.222 L 77.4785 251.222 L 77.4785 251.222 z M 80.6809 252.019 L 80.2371 252.019 L 80.2371 253.582 L 80.1867 253.945 L 80.0404 254.207 L 79.8135 254.369 L 79.5159 254.419 L 79.2789 254.379 L 79.1276 254.258 L 79.0419 254.051 L 79.0217 253.759 L 79.0217 252.019 L 78.5779 252.019 L 78.5779 253.799 L 78.593 254.157 L 78.6888 254.455 L 78.9813 254.727 L 79.4504 254.823 L 79.7025 254.787 L 79.9194 254.697 L 80.106 254.54 L 80.2573 254.313 L 80.2573 254.727 L 80.6809 254.727 L 80.6809 252.019 L 80.6809 252.019 z M 82.0174 253.501 L 83.7926 253.501 L 83.7976 253.295 L 83.7169 252.715 L 83.495 252.281 L 83.142 252.019 L 82.673 251.923 L 82.2141 252.024 L 81.861 252.306 L 81.6341 252.765 L 81.5534 253.37 L 81.629 253.991 L 81.856 254.444 L 82.204 254.727 L 82.6579 254.823 L 83.0512 254.757 L 83.374 254.586 L 83.611 254.313 L 83.7472 253.95 L 83.3084 253.95 L 83.2177 254.152 L 83.0865 254.303 L 82.7133 254.424 L 82.4259 254.369 L 82.209 254.192 L 82.0678 253.905 L 82.0174 253.517 L 82.0174 253.501 L 82.0174 253.501 z M 82.0174 253.128 L 82.0729 252.78 L 82.209 252.523 L 82.4158 252.367 L 82.6881 252.311 L 82.9554 252.367 L 83.1622 252.523 L 83.2883 252.78 L 83.3337 253.128 L 82.0174 253.128 L 82.0174 253.128 z M 89.3654 254.308 L 89.3654 254.727 L 89.8092 254.727 L 89.8092 251.106 L 89.3704 251.106 L 89.3704 252.432 L 89.0325 252.049 L 88.8257 251.958 L 88.5887 251.923 L 88.16 252.024 L 87.8272 252.306 L 87.6103 252.76 L 87.5347 253.37 L 87.6103 253.981 L 87.8272 254.439 L 88.16 254.727 L 88.5887 254.823 L 88.8257 254.787 L 89.0376 254.697 L 89.3654 254.308 L 89.3654 254.308 z M 88.6644 252.321 L 88.9569 252.392 L 89.1788 252.589 L 89.3099 252.916 L 89.3603 253.37 L 89.3099 253.829 L 89.1788 254.157 L 88.9569 254.359 L 88.6644 254.424 L 88.387 254.359 L 88.1752 254.157 L 88.034 253.824 L 87.9886 253.37 L 88.034 252.921 L 88.1752 252.594 L 88.387 252.392 L 88.6644 252.321 L 88.6644 252.321 z M 91.1255 253.501 L 92.9007 253.501 L 92.9057 253.295 L 92.825 252.715 L 92.6031 252.281 L 92.2501 252.019 L 91.7811 251.923 L 91.3221 252.024 L 90.9691 252.306 L 90.7422 252.765 L 90.6615 253.37 L 90.7371 253.991 L 90.9641 254.444 L 91.312 254.727 L 91.7659 254.823 L 92.1593 254.757 L 92.4821 254.586 L 92.7191 254.313 L 92.8553 253.95 L 92.4165 253.95 L 92.3257 254.152 L 92.1946 254.303 L 91.8214 254.424 L 91.534 254.369 L 91.3171 254.192 L 91.1759 253.905 L 91.1255 253.517 L 91.1255 253.501 L 91.1255 253.501 z M 91.1255 253.128 L 91.1809 252.78 L 91.3171 252.523 L 91.5239 252.367 L 91.7962 252.311 L 92.0635 252.367 L 92.2703 252.523 L 92.3963 252.78 L 92.4417 253.128 L 91.1255 253.128 L 91.1255 253.128 z M 97.4245 252.488 L 97.4245 254.727 L 97.8683 254.727 L 97.8683 252.488 L 98.8769 252.488 L 98.8769 252.109 L 97.8683 252.109 L 97.8683 251.943 L 97.9036 251.741 L 98.0196 251.605 L 98.2162 251.524 L 98.4987 251.494 L 98.8769 251.514 L 98.8769 251.131 L 98.3978 251.106 L 97.9641 251.151 L 97.6615 251.287 L 97.4799 251.524 L 97.4245 251.862 L 97.4245 252.109 L 96.6125 252.109 L 96.6125 252.488 L 97.4245 252.488 L 97.4245 252.488 z M 101.454 254.374 L 101.454 254.389 L 101.479 254.56 L 101.555 254.682 L 101.873 254.777 L 102.12 254.737 L 102.12 254.394 L 102.014 254.409 L 101.873 254.344 L 101.847 254.142 L 101.847 252.74 L 101.787 252.382 L 101.61 252.13 L 101.303 251.978 L 100.869 251.923 L 100.445 251.983 L 100.133 252.155 L 99.936 252.422 L 99.8704 252.775 L 99.8704 252.805 L 100.269 252.805 L 100.304 252.594 L 100.415 252.442 L 100.597 252.352 L 100.854 252.316 L 101.101 252.341 L 101.277 252.417 L 101.383 252.548 L 101.419 252.73 L 101.399 252.942 L 101.318 253.048 L 101.116 253.098 L 100.738 253.138 L 100.304 253.229 L 99.9965 253.39 L 99.8149 253.643 L 99.7595 254.016 L 99.8099 254.349 L 99.9662 254.596 L 100.218 254.752 L 100.566 254.808 L 101.035 254.702 L 101.454 254.374 L 101.454 254.374 z M 101.404 253.779 L 101.343 254.041 L 101.182 254.243 L 100.94 254.374 L 100.642 254.419 L 100.45 254.394 L 100.314 254.313 L 100.228 254.172 L 100.203 253.975 L 100.223 253.799 L 100.304 253.673 L 100.627 253.532 L 101.035 253.471 L 101.404 253.35 L 101.404 253.779 L 101.404 253.779 z M 104.606 252.916 L 105.045 252.916 L 104.954 252.513 L 104.737 252.195 L 104.399 251.999 L 103.96 251.923 L 103.476 252.024 L 103.108 252.306 L 102.876 252.765 L 102.795 253.38 L 102.871 253.991 L 103.098 254.444 L 103.456 254.727 L 103.945 254.823 L 104.379 254.747 L 104.717 254.535 L 104.949 254.202 L 105.05 253.759 L 104.626 253.759 L 104.551 254.041 L 104.409 254.253 L 104.208 254.384 L 103.96 254.424 L 103.653 254.359 L 103.431 254.157 L 103.295 253.829 L 103.249 253.365 L 103.295 252.911 L 103.436 252.584 L 103.663 252.382 L 103.96 252.311 L 104.223 252.357 L 104.419 252.473 L 104.551 252.664 L 104.606 252.916 L 104.606 252.916 z M 106.306 253.501 L 108.081 253.501 L 108.086 253.295 L 108.005 252.715 L 107.783 252.281 L 107.43 252.019 L 106.961 251.923 L 106.502 252.024 L 106.149 252.306 L 105.922 252.765 L 105.842 253.37 L 105.917 253.991 L 106.144 254.444 L 106.492 254.727 L 106.946 254.823 L 107.339 254.757 L 107.662 254.586 L 107.899 254.313 L 108.035 253.95 L 107.597 253.95 L 107.506 254.152 L 107.375 254.303 L 107.002 254.424 L 106.714 254.369 L 106.497 254.192 L 106.356 253.905 L 106.306 253.517 L 106.306 253.501 L 106.306 253.501 z M 106.306 253.128 L 106.361 252.78 L 106.497 252.523 L 106.704 252.367 L 106.976 252.311 L 107.244 252.367 L 107.45 252.523 L 107.576 252.78 L 107.622 253.128 L 106.306 253.128 L 106.306 253.128 z" stroke="none" fill-rule="evenodd" fill="rgb(0, 0, 0)"/></g><g stroke="rgb(0, 0, 0)" stroke-width="0.13" stroke-linecap="butt" stroke-linejoin="miter" fill="none"><path d="M 75.5419 260.774 L 77.7609 260.774 L 77.7609 260.35 L 76.0058 260.35 L 76.0058 259.165 L 77.5692 259.165 L 77.5692 258.746 L 76.0058 258.746 L 76.0058 257.697 L 77.7205 257.697 L 77.7205 257.274 L 75.5419 257.274 L 75.5419 260.774 L 75.5419 260.774 z M 80.3178 258.963 L 80.7566 258.963 L 80.6658 258.56 L 80.4489 258.242 L 80.111 258.045 L 79.6723 257.97 L 79.1881 258.071 L 78.82 258.353 L 78.588 258.812 L 78.5073 259.427 L 78.5829 260.037 L 78.8099 260.491 L 79.1679 260.774 L 79.6571 260.87 L 80.0909 260.794 L 80.4288 260.582 L 80.6607 260.249 L 80.7616 259.805 L 80.338 259.805 L 80.2623 260.088 L 80.1211 260.3 L 79.9194 260.431 L 79.6723 260.471 L 79.3646 260.406 L 79.1427 260.204 L 79.0066 259.876 L 78.9612 259.412 L 79.0066 258.958 L 79.1478 258.63 L 79.3747 258.429 L 79.6723 258.358 L 79.9345 258.403 L 80.1312 258.519 L 80.2623 258.711 L 80.3178 258.963 L 80.3178 258.963 z M 81.629 260.774 L 82.0729 260.774 L 82.0729 259.21 L 82.1182 258.852 L 82.2645 258.59 L 82.4914 258.429 L 82.794 258.368 L 83.0361 258.419 L 83.1874 258.555 L 83.2631 258.782 L 83.2883 259.084 L 83.2883 260.774 L 83.7321 260.774 L 83.7321 258.993 L 83.7119 258.635 L 83.6211 258.338 L 83.3236 258.066 L 82.8596 257.97 L 82.6074 258.005 L 82.3906 258.101 L 82.209 258.252 L 82.0729 258.459 L 82.0729 257.153 L 81.629 257.153 L 81.629 260.774 L 81.629 260.774 z M 85.0534 259.548 L 86.8286 259.548 L 86.8337 259.341 L 86.753 258.761 L 86.5311 258.328 L 86.178 258.066 L 85.709 257.97 L 85.2501 258.071 L 84.8971 258.353 L 84.6701 258.812 L 84.5894 259.417 L 84.6651 260.037 L 84.892 260.491 L 85.24 260.774 L 85.6939 260.87 L 86.0873 260.804 L 86.41 260.633 L 86.6471 260.36 L 86.7832 259.997 L 86.3445 259.997 L 86.2537 260.199 L 86.1226 260.35 L 85.7494 260.471 L 85.4619 260.416 L 85.245 260.239 L 85.1038 259.952 L 85.0534 259.563 L 85.0534 259.548 L 85.0534 259.548 z M 85.0534 259.175 L 85.1089 258.827 L 85.245 258.57 L 85.4518 258.413 L 85.7242 258.358 L 85.9914 258.413 L 86.1982 258.57 L 86.3243 258.827 L 86.3697 259.175 L 85.0534 259.175 L 85.0534 259.175 z M 88.5837 257.526 L 88.5837 260.401 L 87.6708 260.401 L 87.6708 260.774 L 89.9352 260.774 L 89.9352 260.401 L 89.0275 260.401 L 89.0275 257.153 L 87.8877 257.153 L 87.8877 257.526 L 88.5837 257.526 L 88.5837 257.526 z M 91.6197 257.526 L 91.6197 260.401 L 90.7069 260.401 L 90.7069 260.774 L 92.9713 260.774 L 92.9713 260.401 L 92.0635 260.401 L 92.0635 257.153 L 90.9237 257.153 L 90.9237 257.526 L 91.6197 257.526 L 91.6197 257.526 z M 94.1615 259.548 L 95.9367 259.548 L 95.9417 259.341 L 95.861 258.761 L 95.6391 258.328 L 95.2861 258.066 L 94.8171 257.97 L 94.3582 258.071 L 94.0051 258.353 L 93.7782 258.812 L 93.6975 259.417 L 93.7731 260.037 L 94.0001 260.491 L 94.3481 260.774 L 94.802 260.87 L 95.1953 260.804 L 95.5181 260.633 L 95.7551 260.36 L 95.8913 259.997 L 95.4525 259.997 L 95.3618 260.199 L 95.2306 260.35 L 94.8574 260.471 L 94.57 260.416 L 94.3531 260.239 L 94.2119 259.952 L 94.1615 259.563 L 94.1615 259.548 L 94.1615 259.548 z M 94.1615 259.175 L 94.217 258.827 L 94.3531 258.57 L 94.5599 258.413 L 94.8322 258.358 L 95.0995 258.413 L 95.3063 258.57 L 95.4324 258.827 L 95.4778 259.175 L 94.1615 259.175 L 94.1615 259.175 z M 100.541 260.774 L 101.237 260.774 L 101.237 260.022 L 100.541 260.022 L 100.541 260.774 L 100.541 260.774 z M 100.541 258.817 L 101.237 258.817 L 101.237 258.066 L 100.541 258.066 L 100.541 258.817 L 100.541 258.817 z" stroke="none" fill-rule="evenodd" fill="rgb(0, 0, 0)"/></g><g stroke="rgb(0, 0, 0)" stroke-width="0.13" stroke-linecap="butt" stroke-linejoin="miter" fill="none"><path d="M 109.906 260.774 L 110.365 260.774 L 110.365 257.249 L 110.022 257.249 L 109.932 257.556 L 109.75 257.763 L 109.473 257.884 L 109.089 257.924 L 109.089 258.282 L 109.906 258.282 L 109.906 260.774 L 109.906 260.774 z M 112.685 260.774 L 113.381 260.774 L 113.381 260.022 L 112.685 260.022 L 112.685 260.774 L 112.685 260.774 z M 112.685 258.817 L 113.381 258.817 L 113.381 258.066 L 112.685 258.066 L 112.685 258.817 L 112.685 258.817 z M 115.978 260.774 L 116.437 260.774 L 116.437 257.249 L 116.094 257.249 L 116.004 257.556 L 115.822 257.763 L 115.545 257.884 L 115.161 257.924 L 115.161 258.282 L 115.978 258.282 L 115.978 260.774 L 115.978 260.774 z" stroke="none" fill-rule="evenodd" fill="rgb(0, 0, 0)"/></g><g stroke="rgb(0, 0, 0)" stroke-width="0.13" stroke-linecap="butt" stroke-linejoin="miter" fill="none"><path d="M 213.883 127.51 L 214.266 127.908 L 214.533 127.641 L 214.12 127.218 L 214.331 126.643 L 214.397 125.977 L 214.301 125.195 L 214.19 124.877 L 214.044 124.615 L 213.63 124.257 L 213.378 124.166 L 213.101 124.131 L 212.566 124.257 L 212.158 124.61 L 211.896 125.19 L 211.805 125.977 L 211.896 126.764 L 212.153 127.344 L 212.561 127.702 L 213.101 127.823 L 213.54 127.742 L 213.883 127.51 L 213.883 127.51 z M 213.565 127.187 L 213.348 127.349 L 213.101 127.399 L 212.773 127.308 L 212.516 127.036 L 212.344 126.592 L 212.289 125.977 L 212.344 125.367 L 212.511 124.918 L 212.768 124.645 L 213.101 124.55 L 213.429 124.645 L 213.686 124.923 L 213.852 125.372 L 213.913 125.977 L 213.868 126.501 L 213.772 126.859 L 213.444 126.517 L 213.172 126.774 L 213.565 127.187 L 213.565 127.187 z M 217.181 125.019 L 216.737 125.019 L 216.737 126.582 L 216.687 126.945 L 216.54 127.207 L 216.313 127.369 L 216.016 127.419 L 215.779 127.379 L 215.628 127.258 L 215.542 127.051 L 215.522 126.759 L 215.522 125.019 L 215.078 125.019 L 215.078 126.799 L 215.093 127.157 L 215.189 127.455 L 215.481 127.727 L 215.95 127.823 L 216.203 127.787 L 216.419 127.697 L 216.606 127.54 L 216.757 127.313 L 216.757 127.727 L 217.181 127.727 L 217.181 125.019 L 217.181 125.019 z M 219.738 127.374 L 219.738 127.389 L 219.763 127.56 L 219.839 127.682 L 220.156 127.777 L 220.404 127.737 L 220.404 127.394 L 220.298 127.409 L 220.156 127.344 L 220.131 127.142 L 220.131 125.74 L 220.071 125.382 L 219.894 125.13 L 219.587 124.978 L 219.153 124.923 L 218.729 124.983 L 218.417 125.155 L 218.22 125.422 L 218.154 125.775 L 218.154 125.805 L 218.553 125.805 L 218.588 125.594 L 218.699 125.442 L 218.88 125.352 L 219.138 125.316 L 219.385 125.341 L 219.561 125.417 L 219.667 125.548 L 219.703 125.73 L 219.682 125.942 L 219.602 126.048 L 219.4 126.098 L 219.022 126.138 L 218.588 126.229 L 218.28 126.39 L 218.099 126.643 L 218.043 127.016 L 218.094 127.349 L 218.25 127.596 L 218.502 127.752 L 218.85 127.808 L 219.319 127.702 L 219.738 127.374 L 219.738 127.374 z M 219.687 126.779 L 219.627 127.041 L 219.465 127.243 L 219.223 127.374 L 218.926 127.419 L 218.734 127.394 L 218.598 127.313 L 218.512 127.172 L 218.487 126.975 L 218.507 126.799 L 218.588 126.673 L 218.911 126.532 L 219.319 126.471 L 219.687 126.35 L 219.687 126.779 L 219.687 126.779 z M 221.165 127.727 L 221.609 127.727 L 221.609 126.163 L 221.654 125.805 L 221.801 125.543 L 222.027 125.382 L 222.33 125.321 L 222.572 125.372 L 222.723 125.508 L 222.799 125.735 L 222.824 126.037 L 222.824 127.727 L 223.268 127.727 L 223.268 125.947 L 223.248 125.589 L 223.157 125.291 L 222.86 125.019 L 222.396 124.923 L 222.138 124.958 L 221.922 125.054 L 221.735 125.215 L 221.589 125.432 L 221.589 125.019 L 221.165 125.019 L 221.165 127.727 L 221.165 127.727 z M 224.796 125.488 L 224.796 126.844 L 224.826 127.283 L 224.968 127.586 L 225.25 127.762 L 225.729 127.823 L 226.254 127.798 L 226.254 127.414 L 225.87 127.444 L 225.522 127.404 L 225.336 127.278 L 225.255 127.066 L 225.24 126.769 L 225.24 125.488 L 226.254 125.488 L 226.254 125.109 L 225.24 125.109 L 225.24 124.318 L 224.796 124.318 L 224.796 125.109 L 224.03 125.109 L 224.03 125.488 L 224.796 125.488 L 224.796 125.488 z M 228.594 127.354 L 228.594 125.109 L 227.454 125.109 L 227.454 125.488 L 228.15 125.488 L 228.15 127.354 L 227.242 127.354 L 227.242 127.727 L 229.512 127.727 L 229.512 127.354 L 228.594 127.354 L 228.594 127.354 z M 228.609 124.106 L 228.14 124.106 L 228.14 124.61 L 228.609 124.61 L 228.609 124.106 L 228.609 124.106 z M 230.868 125.488 L 230.868 126.844 L 230.899 127.283 L 231.04 127.586 L 231.322 127.762 L 231.801 127.823 L 232.326 127.798 L 232.326 127.414 L 231.942 127.444 L 231.594 127.404 L 231.408 127.278 L 231.327 127.066 L 231.312 126.769 L 231.312 125.488 L 232.326 125.488 L 232.326 125.109 L 231.312 125.109 L 231.312 124.318 L 230.868 124.318 L 230.868 125.109 L 230.102 125.109 L 230.102 125.488 L 230.868 125.488 L 230.868 125.488 z M 234.005 124.651 L 234.303 124.651 L 235.004 123.793 L 234.509 123.793 L 234.005 124.651 L 234.005 124.651 z M 233.698 126.501 L 235.473 126.501 L 235.478 126.295 L 235.397 125.715 L 235.175 125.281 L 234.822 125.019 L 234.353 124.923 L 233.894 125.024 L 233.541 125.306 L 233.314 125.765 L 233.234 126.37 L 233.309 126.991 L 233.536 127.444 L 233.884 127.727 L 234.338 127.823 L 234.731 127.757 L 235.054 127.586 L 235.291 127.313 L 235.427 126.95 L 234.989 126.95 L 234.898 127.152 L 234.767 127.303 L 234.393 127.424 L 234.106 127.369 L 233.889 127.192 L 233.748 126.905 L 233.698 126.517 L 233.698 126.501 L 233.698 126.501 z M 233.698 126.128 L 233.753 125.78 L 233.889 125.523 L 234.096 125.367 L 234.368 125.311 L 234.636 125.367 L 234.842 125.523 L 234.968 125.78 L 235.014 126.128 L 233.698 126.128 L 233.698 126.128 z M 239.195 127.727 L 241.6 127.727 L 241.6 127.293 L 239.699 127.293 L 239.805 127.056 L 239.986 126.859 L 240.546 126.501 L 240.844 126.35 L 241.177 126.133 L 241.414 125.881 L 241.55 125.584 L 241.6 125.246 L 241.515 124.822 L 241.277 124.489 L 240.914 124.277 L 240.445 124.202 L 239.961 124.287 L 239.593 124.524 L 239.356 124.903 L 239.275 125.402 L 239.275 125.473 L 239.734 125.473 L 239.734 125.432 L 239.78 125.089 L 239.916 124.837 L 240.133 124.676 L 240.42 124.62 L 240.713 124.671 L 240.93 124.797 L 241.071 124.993 L 241.121 125.241 L 241.086 125.473 L 240.99 125.669 L 240.829 125.841 L 240.607 125.992 L 240.309 126.153 L 239.815 126.466 L 239.467 126.799 L 239.26 127.202 L 239.195 127.712 L 239.195 127.727 L 239.195 127.727 z" stroke="none" fill-rule="evenodd" fill="rgb(0, 0, 0)"/></g><g stroke="rgb(0, 0, 0)" stroke-width="0.13" stroke-linecap="butt" stroke-linejoin="miter" fill="none"><path d="M 23.8827 267.51 L 24.2659 267.908 L 24.5332 267.641 L 24.1197 267.218 L 24.3315 266.643 L 24.3971 265.977 L 24.3012 265.195 L 24.1903 264.877 L 24.044 264.615 L 23.6305 264.257 L 23.3783 264.166 L 23.101 264.131 L 22.5664 264.257 L 22.1579 264.61 L 21.8956 265.19 L 21.8048 265.977 L 21.8956 266.764 L 22.1528 267.344 L 22.5613 267.702 L 23.101 267.823 L 23.5397 267.742 L 23.8827 267.51 L 23.8827 267.51 z M 23.5649 267.187 L 23.3481 267.349 L 23.101 267.399 L 22.7731 267.308 L 22.5159 267.036 L 22.3445 266.592 L 22.289 265.977 L 22.3445 265.367 L 22.5109 264.918 L 22.7681 264.645 L 23.101 264.55 L 23.4288 264.645 L 23.686 264.923 L 23.8524 265.372 L 23.9129 265.977 L 23.8675 266.501 L 23.7717 266.859 L 23.4439 266.517 L 23.1716 266.774 L 23.5649 267.187 L 23.5649 267.187 z M 27.1809 265.019 L 26.7371 265.019 L 26.7371 266.582 L 26.6867 266.945 L 26.5404 267.207 L 26.3135 267.369 L 26.0159 267.419 L 25.7789 267.379 L 25.6276 267.258 L 25.5419 267.051 L 25.5217 266.759 L 25.5217 265.019 L 25.0779 265.019 L 25.0779 266.799 L 25.093 267.157 L 25.1889 267.455 L 25.4814 267.727 L 25.9504 267.823 L 26.2025 267.787 L 26.4194 267.697 L 26.606 267.54 L 26.7573 267.313 L 26.7573 267.727 L 27.1809 267.727 L 27.1809 265.019 L 27.1809 265.019 z M 29.7378 267.374 L 29.7378 267.389 L 29.7631 267.56 L 29.8387 267.682 L 30.1564 267.777 L 30.4036 267.737 L 30.4036 267.394 L 30.2976 267.409 L 30.1564 267.344 L 30.1312 267.142 L 30.1312 265.74 L 30.0707 265.382 L 29.8942 265.13 L 29.5865 264.978 L 29.1528 264.923 L 28.7292 264.983 L 28.4165 265.155 L 28.2198 265.422 L 28.1543 265.775 L 28.1543 265.805 L 28.5527 265.805 L 28.588 265.594 L 28.6989 265.442 L 28.8805 265.352 L 29.1377 265.316 L 29.3848 265.341 L 29.5613 265.417 L 29.6672 265.548 L 29.7025 265.73 L 29.6824 265.942 L 29.6017 266.048 L 29.3999 266.098 L 29.0217 266.138 L 28.588 266.229 L 28.2804 266.39 L 28.0988 266.643 L 28.0433 267.016 L 28.0938 267.349 L 28.2501 267.596 L 28.5023 267.752 L 28.8502 267.808 L 29.3193 267.702 L 29.7378 267.374 L 29.7378 267.374 z M 29.6874 266.779 L 29.6269 267.041 L 29.4655 267.243 L 29.2234 267.374 L 28.9259 267.419 L 28.7342 267.394 L 28.5981 267.313 L 28.5123 267.172 L 28.4871 266.975 L 28.5073 266.799 L 28.588 266.673 L 28.9108 266.532 L 29.3193 266.471 L 29.6874 266.35 L 29.6874 266.779 L 29.6874 266.779 z M 31.1651 267.727 L 31.6089 267.727 L 31.6089 266.164 L 31.6543 265.805 L 31.8005 265.543 L 32.0275 265.382 L 32.3301 265.321 L 32.5721 265.372 L 32.7234 265.508 L 32.7991 265.735 L 32.8243 266.037 L 32.8243 267.727 L 33.2681 267.727 L 33.2681 265.947 L 33.2479 265.589 L 33.1572 265.291 L 32.8596 265.019 L 32.3956 264.923 L 32.1384 264.958 L 31.9216 265.054 L 31.735 265.215 L 31.5887 265.432 L 31.5887 265.019 L 31.1651 265.019 L 31.1651 267.727 L 31.1651 267.727 z M 34.7962 265.488 L 34.7962 266.844 L 34.8265 267.283 L 34.9677 267.586 L 35.2501 267.762 L 35.7292 267.823 L 36.2537 267.798 L 36.2537 267.414 L 35.8704 267.444 L 35.5224 267.404 L 35.3358 267.278 L 35.2551 267.066 L 35.24 266.769 L 35.24 265.488 L 36.2537 265.488 L 36.2537 265.109 L 35.24 265.109 L 35.24 264.318 L 34.7962 264.318 L 34.7962 265.109 L 34.0296 265.109 L 34.0296 265.488 L 34.7962 265.488 L 34.7962 265.488 z M 38.5938 267.354 L 38.5938 265.109 L 37.454 265.109 L 37.454 265.488 L 38.1499 265.488 L 38.1499 267.354 L 37.2422 267.354 L 37.2422 267.727 L 39.5116 267.727 L 39.5116 267.354 L 38.5938 267.354 L 38.5938 267.354 z M 38.6089 264.106 L 38.1399 264.106 L 38.1399 264.61 L 38.6089 264.61 L 38.6089 264.106 L 38.6089 264.106 z M 40.8682 265.488 L 40.8682 266.844 L 40.8985 267.283 L 41.0397 267.586 L 41.3221 267.762 L 41.8012 267.823 L 42.3257 267.798 L 42.3257 267.414 L 41.9425 267.444 L 41.5945 267.404 L 41.4079 267.278 L 41.3272 267.066 L 41.3121 266.769 L 41.3121 265.488 L 42.3257 265.488 L 42.3257 265.109 L 41.3121 265.109 L 41.3121 264.318 L 40.8682 264.318 L 40.8682 265.109 L 40.1017 265.109 L 40.1017 265.488 L 40.8682 265.488 L 40.8682 265.488 z M 44.0051 264.651 L 44.3027 264.651 L 45.0037 263.793 L 44.5095 263.793 L 44.0051 264.651 L 44.0051 264.651 z M 43.6975 266.501 L 45.4727 266.501 L 45.4778 266.295 L 45.3971 265.715 L 45.1752 265.281 L 44.8221 265.019 L 44.3531 264.923 L 43.8942 265.024 L 43.5412 265.306 L 43.3142 265.765 L 43.2335 266.37 L 43.3092 266.991 L 43.5361 267.444 L 43.8841 267.727 L 44.338 267.823 L 44.7314 267.757 L 45.0541 267.586 L 45.2912 267.313 L 45.4273 266.95 L 44.9886 266.95 L 44.8978 267.152 L 44.7667 267.303 L 44.3935 267.424 L 44.106 267.369 L 43.8891 267.192 L 43.7479 266.905 L 43.6975 266.517 L 43.6975 266.501 L 43.6975 266.501 z M 43.6975 266.128 L 43.753 265.78 L 43.8891 265.523 L 44.0959 265.367 L 44.3682 265.311 L 44.6355 265.367 L 44.8423 265.523 L 44.9684 265.78 L 45.0138 266.128 L 43.6975 266.128 L 43.6975 266.128 z M 49.1946 267.727 L 51.6002 267.727 L 51.6002 267.293 L 49.6989 267.293 L 49.8048 267.056 L 49.9864 266.859 L 50.5462 266.501 L 50.8438 266.35 L 51.1766 266.133 L 51.4136 265.881 L 51.5498 265.584 L 51.6002 265.246 L 51.5145 264.822 L 51.2775 264.489 L 50.9144 264.277 L 50.4453 264.202 L 49.9612 264.287 L 49.593 264.524 L 49.356 264.903 L 49.2753 265.402 L 49.2753 265.473 L 49.7342 265.473 L 49.7342 265.432 L 49.7796 265.089 L 49.9158 264.837 L 50.1327 264.676 L 50.4201 264.62 L 50.7126 264.671 L 50.9295 264.797 L 51.0707 264.993 L 51.1211 265.241 L 51.0858 265.473 L 50.99 265.669 L 50.8286 265.841 L 50.6067 265.992 L 50.3092 266.153 L 49.8149 266.466 L 49.4669 266.799 L 49.2602 267.202 L 49.1946 267.712 L 49.1946 267.727 L 49.1946 267.727 z" stroke="none" fill-rule="evenodd" fill="rgb(0, 0, 0)"/></g><g stroke="rgb(0, 0, 0)" stroke-width="0.13" stroke-linecap="butt" stroke-linejoin="miter" fill="none"><path d="M 23.8827 137.51 L 24.2659 137.908 L 24.5332 137.641 L 24.1197 137.218 L 24.3315 136.643 L 24.3971 135.977 L 24.3012 135.195 L 24.1903 134.877 L 24.044 134.615 L 23.6305 134.257 L 23.3783 134.166 L 23.101 134.131 L 22.5664 134.257 L 22.1579 134.61 L 21.8956 135.19 L 21.8048 135.977 L 21.8956 136.764 L 22.1528 137.344 L 22.5613 137.702 L 23.101 137.823 L 23.5397 137.742 L 23.8827 137.51 L 23.8827 137.51 z M 23.5649 137.187 L 23.3481 137.349 L 23.101 137.399 L 22.7731 137.308 L 22.5159 137.036 L 22.3445 136.592 L 22.289 135.977 L 22.3445 135.367 L 22.5109 134.918 L 22.7681 134.645 L 23.101 134.55 L 23.4288 134.645 L 23.686 134.923 L 23.8524 135.372 L 23.9129 135.977 L 23.8675 136.501 L 23.7717 136.859 L 23.4439 136.517 L 23.1716 136.774 L 23.5649 137.187 L 23.5649 137.187 z M 27.1809 135.019 L 26.7371 135.019 L 26.7371 136.582 L 26.6867 136.945 L 26.5404 137.207 L 26.3135 137.369 L 26.0159 137.419 L 25.7789 137.379 L 25.6276 137.258 L 25.5419 137.051 L 25.5217 136.759 L 25.5217 135.019 L 25.0779 135.019 L 25.0779 136.799 L 25.093 137.157 L 25.1889 137.455 L 25.4814 137.727 L 25.9504 137.823 L 26.2025 137.787 L 26.4194 137.697 L 26.606 137.54 L 26.7573 137.313 L 26.7573 137.727 L 27.1809 137.727 L 27.1809 135.019 L 27.1809 135.019 z M 29.7378 137.374 L 29.7378 137.389 L 29.7631 137.56 L 29.8387 137.682 L 30.1564 137.777 L 30.4036 137.737 L 30.4036 137.394 L 30.2976 137.409 L 30.1564 137.344 L 30.1312 137.142 L 30.1312 135.74 L 30.0707 135.382 L 29.8942 135.13 L 29.5865 134.978 L 29.1528 134.923 L 28.7292 134.983 L 28.4165 135.155 L 28.2198 135.422 L 28.1543 135.775 L 28.1543 135.805 L 28.5527 135.805 L 28.588 135.594 L 28.6989 135.442 L 28.8805 135.352 L 29.1377 135.316 L 29.3848 135.341 L 29.5613 135.417 L 29.6672 135.548 L 29.7025 135.73 L 29.6824 135.942 L 29.6017 136.048 L 29.3999 136.098 L 29.0217 136.138 L 28.588 136.229 L 28.2804 136.39 L 28.0988 136.643 L 28.0433 137.016 L 28.0938 137.349 L 28.2501 137.596 L 28.5023 137.752 L 28.8502 137.808 L 29.3193 137.702 L 29.7378 137.374 L 29.7378 137.374 z M 29.6874 136.779 L 29.6269 137.041 L 29.4655 137.243 L 29.2234 137.374 L 28.9259 137.419 L 28.7342 137.394 L 28.5981 137.313 L 28.5123 137.172 L 28.4871 136.975 L 28.5073 136.799 L 28.588 136.673 L 28.9108 136.532 L 29.3193 136.471 L 29.6874 136.35 L 29.6874 136.779 L 29.6874 136.779 z M 31.1651 137.727 L 31.6089 137.727 L 31.6089 136.163 L 31.6543 135.805 L 31.8005 135.543 L 32.0275 135.382 L 32.3301 135.321 L 32.5721 135.372 L 32.7234 135.508 L 32.7991 135.735 L 32.8243 136.037 L 32.8243 137.727 L 33.2681 137.727 L 33.2681 135.947 L 33.2479 135.589 L 33.1572 135.291 L 32.8596 135.019 L 32.3956 134.923 L 32.1384 134.958 L 31.9216 135.054 L 31.735 135.215 L 31.5887 135.432 L 31.5887 135.019 L 31.1651 135.019 L 31.1651 137.727 L 31.1651 137.727 z M 34.7962 135.488 L 34.7962 136.844 L 34.8265 137.283 L 34.9677 137.586 L 35.2501 137.762 L 35.7292 137.823 L 36.2537 137.798 L 36.2537 137.414 L 35.8704 137.444 L 35.5224 137.404 L 35.3358 137.278 L 35.2551 137.066 L 35.24 136.769 L 35.24 135.488 L 36.2537 135.488 L 36.2537 135.109 L 35.24 135.109 L 35.24 134.318 L 34.7962 134.318 L 34.7962 135.109 L 34.0296 135.109 L 34.0296 135.488 L 34.7962 135.488 L 34.7962 135.488 z M 38.5938 137.354 L 38.5938 135.109 L 37.454 135.109 L 37.454 135.488 L 38.1499 135.488 L 38.1499 137.354 L 37.2422 137.354 L 37.2422 137.727 L 39.5116 137.727 L 39.5116 137.354 L 38.5938 137.354 L 38.5938 137.354 z M 38.6089 134.106 L 38.1399 134.106 L 38.1399 134.61 L 38.6089 134.61 L 38.6089 134.106 L 38.6089 134.106 z M 40.8682 135.488 L 40.8682 136.844 L 40.8985 137.283 L 41.0397 137.586 L 41.3221 137.762 L 41.8012 137.823 L 42.3257 137.798 L 42.3257 137.414 L 41.9425 137.444 L 41.5945 137.404 L 41.4079 137.278 L 41.3272 137.066 L 41.3121 136.769 L 41.3121 135.488 L 42.3257 135.488 L 42.3257 135.109 L 41.3121 135.109 L 41.3121 134.318 L 40.8682 134.318 L 40.8682 135.109 L 40.1017 135.109 L 40.1017 135.488 L 40.8682 135.488 L 40.8682 135.488 z M 44.0051 134.651 L 44.3027 134.651 L 45.0037 133.793 L 44.5095 133.793 L 44.0051 134.651 L 44.0051 134.651 z M 43.6975 136.501 L 45.4727 136.501 L 45.4778 136.295 L 45.3971 135.715 L 45.1752 135.281 L 44.8221 135.019 L 44.3531 134.923 L 43.8942 135.024 L 43.5412 135.306 L 43.3142 135.765 L 43.2335 136.37 L 43.3092 136.991 L 43.5361 137.444 L 43.8841 137.727 L 44.338 137.823 L 44.7314 137.757 L 45.0541 137.586 L 45.2912 137.313 L 45.4273 136.95 L 44.9886 136.95 L 44.8978 137.152 L 44.7667 137.303 L 44.3935 137.424 L 44.106 137.369 L 43.8891 137.192 L 43.7479 136.905 L 43.6975 136.517 L 43.6975 136.501 L 43.6975 136.501 z M 43.6975 136.128 L 43.753 135.78 L 43.8891 135.523 L 44.0959 135.367 L 44.3682 135.311 L 44.6355 135.367 L 44.8423 135.523 L 44.9684 135.78 L 45.0138 136.128 L 43.6975 136.128 L 43.6975 136.128 z M 49.1543 136.627 L 49.1543 136.663 L 49.235 137.147 L 49.472 137.51 L 49.8452 137.742 L 50.3394 137.828 L 50.8639 137.742 L 51.2573 137.52 L 51.5095 137.167 L 51.6002 136.713 L 51.5599 136.416 L 51.4489 136.174 L 51.2674 135.987 L 51.0253 135.851 L 51.3531 135.578 L 51.4691 135.145 L 51.3935 134.751 L 51.1766 134.454 L 50.8236 134.267 L 50.3394 134.202 L 49.8855 134.282 L 49.5376 134.504 L 49.3106 134.857 L 49.235 135.326 L 49.235 135.362 L 49.6838 135.362 L 49.7242 135.039 L 49.8553 134.807 L 50.0671 134.666 L 50.3646 134.615 L 50.6269 134.656 L 50.8185 134.761 L 50.9345 134.933 L 50.9799 135.165 L 50.9345 135.412 L 50.8135 135.578 L 50.6017 135.679 L 50.3142 135.71 L 50.1175 135.705 L 50.1175 136.103 L 50.3646 136.093 L 50.6824 136.138 L 50.9194 136.259 L 51.0606 136.456 L 51.111 136.713 L 51.0556 137.006 L 50.9093 137.223 L 50.6773 137.359 L 50.3697 137.404 L 50.052 137.354 L 49.82 137.202 L 49.6737 136.96 L 49.6182 136.627 L 49.1543 136.627 L 49.1543 136.627 z" stroke="none" fill-rule="evenodd" fill="rgb(0, 0, 0)"/></g></svg>