<?xml version="1.0" encoding="utf-8" ?><!DOCTYPE svg PUBLIC "-//W3C//DTD SVG 1.1//EN" "http://www.w3.org/Graphics/SVG/1.1/DTD/svg11.dtd" 
[ <!ATTLIST svg 
  xmlns:dsy CDATA #FIXED "http://www.3ds.com/print"  
    dsy:text-version CDATA #IMPLIED > 

  <!ATTLIST text 
  xmlns:dsy CDATA #FIXED "http://www.3ds.com/print" 
    dsy:text-version CDATA #IMPLIED > 
]><svg xmlns="http://www.w3.org/2000/svg" xmlns:dsy="http://www.3ds.com/print" dsy:text-version="18000" width="420" height="297" viewBox="0 0 420 297" version="1.1"><g stroke="rgb(0, 0, 0)" stroke-width="0.13" stroke-linecap="butt" stroke-linejoin="miter" fill="none"><path d="M 374.501 213.334 L 161.478 213.334"/><path d="M 214.501 7.09418 L 161.478 7.09418"/><path d="M 222.289 197.55 L 187.478 197.55"/><path d="M 206.389 117.55 L 187.478 117.55"/><path d="M 326.25 184.737 L 296.915 184.737"/><path d="M 324.25 117.737 L 296.915 117.737"/></g><g stroke="rgb(0, 0, 0)" stroke-width="0.35" stroke-linecap="butt" stroke-linejoin="miter" fill="none"><path d="M 210.501 17.0942 L 210.501 7.09418"/><path d="M 216.501 17.0942 L 210.501 17.0942"/><path d="M 216.501 7.09418 L 216.501 17.0942"/><path d="M 401.501 87.3338 L 411.501 87.3338"/><path d="M 401.501 93.3338 L 401.501 87.3338"/><path d="M 411.501 93.3338 L 401.501 93.3338"/><path d="M 371.501 193.334 L 381.501 193.334"/><path d="M 381.501 193.334 L 381.501 187.334"/><path d="M 381.501 187.334 L 371.501 187.334"/><path d="M 315.501 103.334 L 315.501 73.3338"/><path d="M 315.501 73.3338 A 15.5 15.5 0 1 0 284.501 73.3338"/><path d="M 284.501 73.3338 L 284.501 103.334"/><path d="M 237.401 23.3338 L 231.501 23.3338"/><path d="M 231.501 29.1338 L 231.501 23.3338"/><path d="M 231.501 29.1338 L 237.401 29.1338"/><path d="M 237.401 23.3338 L 237.401 29.1338"/><path d="M 237.401 54.1338 L 231.501 54.1338"/><path d="M 231.501 59.9338 L 231.501 54.1338"/><path d="M 231.501 59.9338 L 237.401 59.9338"/><path d="M 237.401 54.1338 L 237.401 59.9338"/><path d="M 195.501 59.9338 L 195.501 54.1338"/><path d="M 189.601 54.1338 L 195.501 54.1338"/><path d="M 189.601 54.1338 L 189.601 59.9338"/><path d="M 195.501 59.9338 L 189.601 59.9338"/><path d="M 195.501 29.1338 L 189.601 29.1338"/><path d="M 195.501 29.1338 L 195.501 23.3338"/><path d="M 189.601 23.3338 L 195.501 23.3338"/><path d="M 189.601 23.3338 L 189.601 29.1338"/><path d="M 371.501 187.334 L 371.501 108.334"/><path d="M 366.501 103.334 L 315.501 103.334"/><path d="M 371.501 108.334 A 5 5 0 0 0 366.501 103.334"/><path d="M 371.501 208.334 L 371.501 193.334"/><path d="M 371.501 208.334 A 5 5 0 0 0 376.501 213.334"/><path d="M 411.501 208.334 L 411.501 93.3338"/><path d="M 406.501 213.334 L 376.501 213.334"/><path d="M 406.501 213.334 A 5 5 0 0 0 411.501 208.334"/><path d="M 284.501 103.334 L 179.501 103.334"/><path d="M 174.501 98.3338 L 174.501 83.04"/><path d="M 174.501 98.3338 A 5 5 0 0 0 179.501 103.334"/><path d="M 174.501 83.04 L 174.501 12.0942"/><path d="M 210.501 7.09418 L 179.501 7.09418"/><path d="M 179.501 7.09418 A 5 5 0 0 0 174.501 12.0942"/><path d="M 259.294 7.09418 L 216.501 7.09418"/><path d="M 261.261 7.49734 A 5 5 0 0 0 259.294 7.09418"/><path d="M 411.501 87.3338 L 411.501 75.0861"/><path d="M 408.468 70.4892 L 261.261 7.49738"/><path d="M 411.501 75.0861 A 5 5 0 0 0 408.468 70.4892"/><path d="M 222.289 157.55 L 216.389 157.55"/><path d="M 216.389 157.55 L 216.389 167.55"/><path d="M 258.189 157.55 L 258.189 167.55"/><path d="M 252.289 157.55 L 258.189 157.55"/><circle cx="214.105" cy="125.55" r="3.20001"/><circle cx="260.472" cy="125.55" r="3.20001"/><path d="M 266.189 117.55 L 237.289 117.55"/><path d="M 268.189 119.55 A 2 2 0 0 0 266.189 117.55"/><path d="M 258.189 167.55 L 266.189 167.55"/><path d="M 268.189 165.55 L 268.189 119.55"/><path d="M 266.189 167.55 A 2 2 0 0 0 268.189 165.55"/><path d="M 252.289 195.55 L 252.289 157.55"/><path d="M 237.289 197.55 L 250.289 197.55"/><path d="M 250.289 197.55 A 2 2 0 0 0 252.289 195.55"/><path d="M 237.289 197.55 L 224.289 197.55"/><path d="M 222.289 195.55 L 222.289 157.55"/><path d="M 222.289 195.55 A 2 2 0 0 0 224.289 197.55"/><path d="M 216.389 167.55 L 208.389 167.55"/><path d="M 206.389 165.55 A 2 2 0 0 0 208.389 167.55"/><path d="M 208.389 117.55 L 237.289 117.55"/><path d="M 206.389 165.55 L 206.389 119.55"/><path d="M 208.389 117.55 A 2 2 0 0 0 206.389 119.55"/><path d="M 361.25 138.321 A 15 15 0 0 0 361.25 168.321"/><path d="M 326.25 132.737 L 326.25 117.737"/><path d="M 318.25 132.737 L 326.25 132.737"/><path d="M 318.25 138.737 L 318.25 132.737"/><path d="M 326.25 138.737 L 318.25 138.737"/><path d="M 326.25 163.737 L 326.25 138.737"/><path d="M 318.25 163.737 L 326.25 163.737"/><path d="M 318.25 169.737 L 318.25 163.737"/><path d="M 326.25 169.737 L 318.25 169.737"/><path d="M 361.25 119.737 L 361.25 138.321"/><path d="M 326.25 117.737 L 359.25 117.737"/><path d="M 361.25 119.737 A 2 2 0 0 0 359.25 117.737"/><path d="M 361.25 168.321 L 361.25 182.737"/><path d="M 359.25 184.737 A 2 2 0 0 0 361.25 182.737"/><path d="M 326.25 182.737 L 326.25 169.737"/><path d="M 359.25 184.737 L 328.25 184.737"/><path d="M 326.25 182.737 A 2 2 0 0 0 328.25 184.737"/></g><g stroke="rgb(0, 0, 0)" stroke-width="0.13" stroke-linecap="butt" stroke-linejoin="miter" fill="none"><path d="M 161.478 120.785 L 161.478 118.379 L 161.044 118.379 L 161.044 120.28 L 160.807 120.174 L 160.61 119.993 L 160.252 119.433 L 160.101 119.135 L 159.884 118.803 L 159.632 118.566 L 159.334 118.429 L 158.997 118.379 L 158.573 118.465 L 158.24 118.702 L 158.028 119.065 L 157.953 119.534 L 158.038 120.018 L 158.275 120.386 L 158.654 120.623 L 159.153 120.704 L 159.224 120.704 L 159.224 120.245 L 159.183 120.245 L 158.84 120.2 L 158.588 120.063 L 158.427 119.847 L 158.371 119.559 L 158.422 119.267 L 158.548 119.05 L 158.744 118.909 L 158.992 118.858 L 159.224 118.893 L 159.42 118.989 L 159.592 119.151 L 159.743 119.373 L 159.904 119.67 L 160.217 120.164 L 160.55 120.512 L 160.953 120.719 L 161.463 120.785 L 161.478 120.785 L 161.478 120.785 z M 159.768 117.033 L 160.56 116.958 L 161.125 116.721 L 161.468 116.343 L 161.579 115.818 L 161.468 115.299 L 161.125 114.92 L 160.56 114.688 L 159.768 114.608 L 158.981 114.688 L 158.669 114.784 L 158.412 114.92 L 158.069 115.299 L 157.953 115.818 L 158.069 116.343 L 158.417 116.721 L 158.981 116.958 L 159.768 117.033 L 159.768 117.033 z M 159.768 116.549 L 159.158 116.509 L 158.719 116.383 L 158.462 116.156 L 158.371 115.818 L 158.462 115.485 L 158.719 115.258 L 159.158 115.132 L 159.768 115.092 L 160.383 115.132 L 160.822 115.258 L 161.079 115.485 L 161.165 115.818 L 161.079 116.156 L 160.822 116.383 L 160.383 116.509 L 159.768 116.549 L 159.768 116.549 z M 158.921 110.872 L 158.512 110.967 L 158.21 111.189 L 158.018 111.532 L 157.953 111.976 L 157.988 112.274 L 158.084 112.531 L 158.24 112.758 L 158.462 112.949 L 158.739 113.101 L 159.077 113.212 L 159.476 113.282 L 159.925 113.302 L 160.641 113.222 L 161.16 112.975 L 161.473 112.576 L 161.579 112.032 L 161.488 111.542 L 161.251 111.169 L 160.878 110.927 L 160.404 110.841 L 159.925 110.927 L 159.556 111.159 L 159.324 111.517 L 159.244 111.961 L 159.345 112.44 L 159.632 112.798 L 159.077 112.722 L 158.679 112.561 L 158.442 112.314 L 158.361 111.971 L 158.401 111.719 L 158.507 111.527 L 158.684 111.401 L 158.921 111.336 L 158.921 110.872 L 158.921 110.872 z M 160.409 111.331 L 160.726 111.386 L 160.968 111.527 L 161.13 111.754 L 161.18 112.037 L 161.13 112.334 L 160.974 112.561 L 160.731 112.707 L 160.414 112.753 L 160.101 112.702 L 159.864 112.561 L 159.713 112.329 L 159.657 112.016 L 159.713 111.744 L 159.859 111.527 L 160.096 111.386 L 160.409 111.331 L 160.409 111.331 z M 161.478 108.694 L 161.478 107.998 L 160.726 107.998 L 160.726 108.694 L 161.478 108.694 L 161.478 108.694 z M 161.478 105.84 L 161.478 103.435 L 161.044 103.435 L 161.044 105.336 L 160.807 105.23 L 160.61 105.049 L 160.252 104.489 L 160.101 104.191 L 159.884 103.858 L 159.632 103.621 L 159.334 103.485 L 158.997 103.435 L 158.573 103.521 L 158.24 103.758 L 158.028 104.121 L 157.953 104.59 L 158.038 105.074 L 158.275 105.442 L 158.654 105.679 L 159.153 105.76 L 159.224 105.76 L 159.224 105.301 L 159.183 105.301 L 158.84 105.255 L 158.588 105.119 L 158.427 104.902 L 158.371 104.615 L 158.422 104.322 L 158.548 104.106 L 158.744 103.964 L 158.992 103.914 L 159.224 103.949 L 159.42 104.045 L 159.592 104.206 L 159.743 104.428 L 159.904 104.726 L 160.217 105.22 L 160.55 105.568 L 160.953 105.775 L 161.463 105.84 L 161.478 105.84 L 161.478 105.84 z M 161.478 100.596 L 161.478 100.143 L 160.61 100.143 L 160.61 99.6433 L 160.207 99.6433 L 160.207 100.143 L 158.053 100.143 L 158.053 100.602 L 160.167 102.135 L 160.61 102.135 L 160.61 100.596 L 161.478 100.596 L 161.478 100.596 z M 160.207 101.711 L 158.639 100.596 L 160.207 100.596 L 160.207 101.711 L 160.207 101.711 z" stroke="none" fill-rule="evenodd" fill="rgb(0, 0, 0)"/><path d="M 163.995 9.02603 L 163.478 7.09418 L 162.96 9.02603"/><path d="M 162.96 211.402 L 163.478 213.334 L 163.995 211.402"/><path d="M 163.478 213.334 L 163.478 7.09418"/></g><g stroke="rgb(0, 0, 0)" stroke-width="0.13" stroke-linecap="butt" stroke-linejoin="miter" fill="none"><path d="M 313.897 14.6854 L 313.019 17.6659 L 312.116 14.6854 L 311.637 14.6854 L 312.767 18.1904 L 313.271 18.1904 L 314.376 14.6854 L 313.897 14.6854 L 313.897 14.6854 z M 317.099 15.4822 L 316.655 15.4822 L 316.655 17.0456 L 316.605 17.4087 L 316.459 17.671 L 316.232 17.8324 L 315.934 17.8828 L 315.697 17.8424 L 315.546 17.7214 L 315.46 17.5146 L 315.44 17.2221 L 315.44 15.4822 L 314.996 15.4822 L 314.996 17.2625 L 315.011 17.6205 L 315.107 17.9181 L 315.4 18.1904 L 315.869 18.2863 L 316.121 18.2509 L 316.338 18.1602 L 316.524 18.0038 L 316.675 17.7769 L 316.675 18.1904 L 317.099 18.1904 L 317.099 15.4822 L 317.099 15.4822 z M 318.436 16.9649 L 320.211 16.9649 L 320.216 16.7581 L 320.135 16.1782 L 319.913 15.7444 L 319.56 15.4822 L 319.091 15.3864 L 318.632 15.4872 L 318.279 15.7697 L 318.052 16.2286 L 317.972 16.8338 L 318.047 17.4541 L 318.274 17.908 L 318.622 18.1904 L 319.076 18.2863 L 319.469 18.2207 L 319.792 18.0492 L 320.029 17.7769 L 320.165 17.4138 L 319.727 17.4138 L 319.636 17.6155 L 319.505 17.7668 L 319.132 17.8878 L 318.844 17.8324 L 318.627 17.6559 L 318.486 17.3684 L 318.436 16.98 L 318.436 16.9649 L 318.436 16.9649 z M 318.436 16.5917 L 318.491 16.2437 L 318.627 15.9865 L 318.834 15.8302 L 319.106 15.7747 L 319.374 15.8302 L 319.58 15.9865 L 319.706 16.2437 L 319.752 16.5917 L 318.436 16.5917 L 318.436 16.5917 z M 325.784 17.7719 L 325.784 18.1904 L 326.227 18.1904 L 326.227 14.5694 L 325.789 14.5694 L 325.789 15.8958 L 325.451 15.5125 L 325.244 15.4217 L 325.007 15.3864 L 324.578 15.4872 L 324.245 15.7697 L 324.029 16.2236 L 323.953 16.8338 L 324.029 17.444 L 324.245 17.903 L 324.578 18.1904 L 325.007 18.2863 L 325.244 18.2509 L 325.456 18.1602 L 325.784 17.7719 L 325.784 17.7719 z M 325.083 15.7848 L 325.375 15.8554 L 325.597 16.0521 L 325.728 16.3799 L 325.779 16.8338 L 325.728 17.2927 L 325.597 17.6205 L 325.375 17.8223 L 325.083 17.8878 L 324.805 17.8223 L 324.593 17.6205 L 324.452 17.2877 L 324.407 16.8338 L 324.452 16.3849 L 324.593 16.0571 L 324.805 15.8554 L 325.083 15.7848 L 325.083 15.7848 z M 327.544 16.9649 L 329.319 16.9649 L 329.324 16.7581 L 329.243 16.1782 L 329.021 15.7444 L 328.668 15.4822 L 328.199 15.3864 L 327.74 15.4872 L 327.387 15.7697 L 327.16 16.2286 L 327.08 16.8338 L 327.155 17.4541 L 327.382 17.908 L 327.73 18.1904 L 328.184 18.2863 L 328.578 18.2207 L 328.9 18.0492 L 329.137 17.7769 L 329.273 17.4138 L 328.835 17.4138 L 328.744 17.6155 L 328.613 17.7668 L 328.24 17.8878 L 327.952 17.8324 L 327.735 17.6559 L 327.594 17.3684 L 327.544 16.98 L 327.544 16.9649 L 327.544 16.9649 z M 327.544 16.5917 L 327.599 16.2437 L 327.735 15.9865 L 327.942 15.8302 L 328.214 15.7747 L 328.482 15.8302 L 328.688 15.9865 L 328.815 16.2437 L 328.86 16.5917 L 327.544 16.5917 L 327.544 16.5917 z M 333.843 15.9512 L 333.843 18.1904 L 334.286 18.1904 L 334.286 15.9512 L 335.295 15.9512 L 335.295 15.573 L 334.286 15.573 L 334.286 15.4066 L 334.322 15.2048 L 334.438 15.0687 L 334.634 14.988 L 334.917 14.9577 L 335.295 14.9779 L 335.295 14.5946 L 334.816 14.5694 L 334.382 14.6148 L 334.08 14.7509 L 333.898 14.988 L 333.843 15.3259 L 333.843 15.573 L 333.031 15.573 L 333.031 15.9512 L 333.843 15.9512 L 333.843 15.9512 z M 337.872 17.8374 L 337.872 17.8525 L 337.897 18.024 L 337.973 18.1451 L 338.291 18.2409 L 338.538 18.2005 L 338.538 17.8576 L 338.432 17.8727 L 338.291 17.8071 L 338.266 17.6054 L 338.266 16.2034 L 338.205 15.8453 L 338.029 15.5932 L 337.721 15.4419 L 337.287 15.3864 L 336.864 15.4469 L 336.551 15.6184 L 336.354 15.8857 L 336.289 16.2387 L 336.289 16.269 L 336.687 16.269 L 336.722 16.0571 L 336.833 15.9059 L 337.015 15.8151 L 337.272 15.7798 L 337.519 15.805 L 337.696 15.8806 L 337.802 16.0117 L 337.837 16.1933 L 337.817 16.4051 L 337.736 16.511 L 337.534 16.5615 L 337.156 16.6018 L 336.722 16.6926 L 336.415 16.854 L 336.233 17.1061 L 336.178 17.4793 L 336.228 17.8122 L 336.384 18.0593 L 336.637 18.2156 L 336.985 18.2711 L 337.454 18.1652 L 337.872 17.8374 L 337.872 17.8374 z M 337.822 17.2423 L 337.761 17.5045 L 337.6 17.7063 L 337.358 17.8374 L 337.06 17.8828 L 336.869 17.8576 L 336.732 17.7769 L 336.647 17.6357 L 336.622 17.439 L 336.642 17.2625 L 336.722 17.1364 L 337.045 16.9952 L 337.454 16.9347 L 337.822 16.8136 L 337.822 17.2423 L 337.822 17.2423 z M 341.024 16.3799 L 341.463 16.3799 L 341.372 15.9764 L 341.155 15.6587 L 340.818 15.462 L 340.379 15.3864 L 339.895 15.4872 L 339.526 15.7697 L 339.294 16.2286 L 339.214 16.8439 L 339.289 17.4541 L 339.516 17.908 L 339.874 18.1904 L 340.364 18.2863 L 340.797 18.2106 L 341.135 17.9988 L 341.367 17.6659 L 341.468 17.2221 L 341.044 17.2221 L 340.969 17.5045 L 340.828 17.7164 L 340.626 17.8475 L 340.379 17.8878 L 340.071 17.8223 L 339.849 17.6205 L 339.713 17.2927 L 339.668 16.8288 L 339.713 16.3749 L 339.854 16.0471 L 340.081 15.8453 L 340.379 15.7747 L 340.641 15.8201 L 340.838 15.9361 L 340.969 16.1277 L 341.024 16.3799 L 341.024 16.3799 z M 342.724 16.9649 L 344.499 16.9649 L 344.504 16.7581 L 344.423 16.1782 L 344.202 15.7444 L 343.849 15.4822 L 343.379 15.3864 L 342.921 15.4872 L 342.568 15.7697 L 342.341 16.2286 L 342.26 16.8338 L 342.336 17.4541 L 342.563 17.908 L 342.91 18.1904 L 343.364 18.2863 L 343.758 18.2207 L 344.081 18.0492 L 344.318 17.7769 L 344.454 17.4138 L 344.015 17.4138 L 343.924 17.6155 L 343.793 17.7668 L 343.42 17.8878 L 343.132 17.8324 L 342.916 17.6559 L 342.774 17.3684 L 342.724 16.98 L 342.724 16.9649 L 342.724 16.9649 z M 342.724 16.5917 L 342.779 16.2437 L 342.916 15.9865 L 343.122 15.8302 L 343.395 15.7747 L 343.662 15.8302 L 343.869 15.9865 L 343.995 16.2437 L 344.04 16.5917 L 342.724 16.5917 L 342.724 16.5917 z" stroke="none" fill-rule="evenodd" fill="rgb(0, 0, 0)"/></g><g stroke="rgb(0, 0, 0)" stroke-width="0.13" stroke-linecap="butt" stroke-linejoin="miter" fill="none"><path d="M 311.96 24.2373 L 314.179 24.2373 L 314.179 23.8136 L 312.424 23.8136 L 312.424 22.6285 L 313.987 22.6285 L 313.987 22.2099 L 312.424 22.2099 L 312.424 21.1609 L 314.139 21.1609 L 314.139 20.7373 L 311.96 20.7373 L 311.96 24.2373 L 311.96 24.2373 z M 316.736 22.4268 L 317.175 22.4268 L 317.084 22.0233 L 316.867 21.7056 L 316.529 21.5089 L 316.09 21.4332 L 315.606 21.5341 L 315.238 21.8165 L 315.006 22.2755 L 314.925 22.8907 L 315.001 23.5009 L 315.228 23.9549 L 315.586 24.2373 L 316.075 24.3331 L 316.509 24.2574 L 316.847 24.0456 L 317.079 23.7128 L 317.18 23.269 L 316.756 23.269 L 316.68 23.5514 L 316.539 23.7632 L 316.338 23.8943 L 316.09 23.9347 L 315.783 23.8691 L 315.561 23.6674 L 315.425 23.3396 L 315.379 22.8756 L 315.425 22.4217 L 315.566 22.0939 L 315.793 21.8922 L 316.09 21.8216 L 316.353 21.8669 L 316.549 21.9829 L 316.68 22.1746 L 316.736 22.4268 L 316.736 22.4268 z M 318.047 24.2373 L 318.491 24.2373 L 318.491 22.6739 L 318.536 22.3158 L 318.683 22.0536 L 318.91 21.8922 L 319.212 21.8316 L 319.454 21.8821 L 319.606 22.0182 L 319.681 22.2452 L 319.706 22.5478 L 319.706 24.2373 L 320.15 24.2373 L 320.15 22.457 L 320.13 22.0989 L 320.039 21.8014 L 319.742 21.5291 L 319.278 21.4332 L 319.026 21.4685 L 318.809 21.5644 L 318.627 21.7157 L 318.491 21.9224 L 318.491 20.6162 L 318.047 20.6162 L 318.047 24.2373 L 318.047 24.2373 z M 321.472 23.0118 L 323.247 23.0118 L 323.252 22.805 L 323.171 22.225 L 322.949 21.7913 L 322.596 21.5291 L 322.127 21.4332 L 321.668 21.5341 L 321.315 21.8165 L 321.088 22.2755 L 321.008 22.8806 L 321.083 23.5009 L 321.31 23.9549 L 321.658 24.2373 L 322.112 24.3331 L 322.505 24.2675 L 322.828 24.0961 L 323.065 23.8237 L 323.201 23.4606 L 322.763 23.4606 L 322.672 23.6624 L 322.541 23.8136 L 322.168 23.9347 L 321.88 23.8792 L 321.663 23.7027 L 321.522 23.4152 L 321.472 23.0269 L 321.472 23.0118 L 321.472 23.0118 z M 321.472 22.6386 L 321.527 22.2906 L 321.663 22.0334 L 321.87 21.877 L 322.142 21.8216 L 322.41 21.877 L 322.616 22.0334 L 322.742 22.2906 L 322.788 22.6386 L 321.472 22.6386 L 321.472 22.6386 z M 325.002 20.9894 L 325.002 23.8641 L 324.089 23.8641 L 324.089 24.2373 L 326.353 24.2373 L 326.353 23.8641 L 325.446 23.8641 L 325.446 20.6162 L 324.306 20.6162 L 324.306 20.9894 L 325.002 20.9894 L 325.002 20.9894 z M 328.038 20.9894 L 328.038 23.8641 L 327.125 23.8641 L 327.125 24.2373 L 329.389 24.2373 L 329.389 23.8641 L 328.482 23.8641 L 328.482 20.6162 L 327.342 20.6162 L 327.342 20.9894 L 328.038 20.9894 L 328.038 20.9894 z M 330.58 23.0118 L 332.355 23.0118 L 332.36 22.805 L 332.279 22.225 L 332.057 21.7913 L 331.704 21.5291 L 331.235 21.4332 L 330.776 21.5341 L 330.423 21.8165 L 330.196 22.2755 L 330.116 22.8806 L 330.191 23.5009 L 330.418 23.9549 L 330.766 24.2373 L 331.22 24.3331 L 331.614 24.2675 L 331.936 24.0961 L 332.173 23.8237 L 332.31 23.4606 L 331.871 23.4606 L 331.78 23.6624 L 331.649 23.8136 L 331.276 23.9347 L 330.988 23.8792 L 330.771 23.7027 L 330.63 23.4152 L 330.58 23.0269 L 330.58 23.0118 L 330.58 23.0118 z M 330.58 22.6386 L 330.635 22.2906 L 330.771 22.0334 L 330.978 21.877 L 331.25 21.8216 L 331.518 21.877 L 331.725 22.0334 L 331.851 22.2906 L 331.896 22.6386 L 330.58 22.6386 L 330.58 22.6386 z M 336.959 24.2373 L 337.655 24.2373 L 337.655 23.4858 L 336.959 23.4858 L 336.959 24.2373 L 336.959 24.2373 z M 336.959 22.2805 L 337.655 22.2805 L 337.655 21.5291 L 336.959 21.5291 L 336.959 22.2805 L 336.959 22.2805 z" stroke="none" fill-rule="evenodd" fill="rgb(0, 0, 0)"/></g><g stroke="rgb(0, 0, 0)" stroke-width="0.13" stroke-linecap="butt" stroke-linejoin="miter" fill="none"><path d="M 346.325 24.2373 L 346.784 24.2373 L 346.784 20.712 L 346.441 20.712 L 346.35 21.0197 L 346.168 21.2265 L 345.891 21.3475 L 345.508 21.3878 L 345.508 21.7459 L 346.325 21.7459 L 346.325 24.2373 L 346.325 24.2373 z M 349.103 24.2373 L 349.799 24.2373 L 349.799 23.4858 L 349.103 23.4858 L 349.103 24.2373 L 349.103 24.2373 z M 349.103 22.2805 L 349.799 22.2805 L 349.799 21.5291 L 349.103 21.5291 L 349.103 22.2805 L 349.103 22.2805 z M 352.397 24.2373 L 352.856 24.2373 L 352.856 20.712 L 352.513 20.712 L 352.422 21.0197 L 352.24 21.2265 L 351.963 21.3475 L 351.58 21.3878 L 351.58 21.7459 L 352.397 21.7459 L 352.397 24.2373 L 352.397 24.2373 z" stroke="none" fill-rule="evenodd" fill="rgb(0, 0, 0)"/></g><g stroke="rgb(0, 0, 0)" stroke-width="0.13" stroke-linecap="butt" stroke-linejoin="miter" fill="none"><path d="M 185.592 160.044 L 185.733 160.301 L 185.93 160.477 L 186.177 160.588 L 186.475 160.624 L 186.924 160.543 L 187.272 160.311 L 187.493 159.933 L 187.579 159.418 L 187.493 158.909 L 187.272 158.531 L 186.924 158.299 L 186.475 158.213 L 186.177 158.253 L 185.93 158.359 L 185.733 158.541 L 185.592 158.793 L 185.471 158.591 L 185.305 158.45 L 185.103 158.364 L 184.856 158.334 L 184.498 158.415 L 184.21 158.627 L 184.024 158.97 L 183.953 159.418 L 184.024 159.872 L 184.21 160.215 L 184.498 160.432 L 184.856 160.508 L 185.103 160.483 L 185.305 160.397 L 185.592 160.044 L 185.592 160.044 z M 186.465 160.14 L 186.197 160.094 L 185.996 159.948 L 185.865 159.721 L 185.819 159.418 L 185.865 159.121 L 185.996 158.894 L 186.197 158.748 L 186.465 158.697 L 186.752 158.748 L 186.969 158.894 L 187.11 159.121 L 187.156 159.418 L 187.11 159.721 L 186.969 159.948 L 186.752 160.094 L 186.465 160.14 L 186.465 160.14 z M 184.896 160.029 L 184.674 159.988 L 184.503 159.867 L 184.397 159.676 L 184.357 159.418 L 184.397 159.166 L 184.503 158.975 L 184.674 158.854 L 184.896 158.808 L 185.123 158.854 L 185.3 158.975 L 185.416 159.166 L 185.451 159.418 L 185.411 159.676 L 185.3 159.867 L 185.123 159.988 L 184.896 160.029 L 184.896 160.029 z M 185.769 156.898 L 186.561 156.822 L 187.125 156.585 L 187.468 156.207 L 187.579 155.682 L 187.468 155.163 L 187.125 154.785 L 186.561 154.553 L 185.769 154.472 L 184.982 154.553 L 184.669 154.648 L 184.412 154.785 L 184.069 155.163 L 183.953 155.682 L 184.069 156.207 L 184.417 156.585 L 184.982 156.822 L 185.769 156.898 L 185.769 156.898 z M 185.769 156.414 L 185.158 156.373 L 184.72 156.247 L 184.463 156.02 L 184.372 155.682 L 184.463 155.35 L 184.72 155.123 L 185.158 154.996 L 185.769 154.956 L 186.384 154.996 L 186.823 155.123 L 187.08 155.35 L 187.166 155.682 L 187.08 156.02 L 186.823 156.247 L 186.384 156.373 L 185.769 156.414 L 185.769 156.414 z" stroke="none" fill-rule="evenodd" fill="rgb(0, 0, 0)"/><path d="M 188.961 195.619 L 189.478 197.55 L 189.996 195.619"/><path d="M 189.996 119.482 L 189.478 117.55 L 188.961 119.482"/><path d="M 189.478 197.55 L 189.478 117.55"/></g><g stroke="rgb(0, 0, 0)" stroke-width="0.13" stroke-linecap="butt" stroke-linejoin="miter" fill="none"><path d="M 209.684 258.902 L 208.807 261.883 L 207.904 258.902 L 207.425 258.902 L 208.555 262.407 L 209.059 262.407 L 210.163 258.902 L 209.684 258.902 L 209.684 258.902 z M 212.887 259.699 L 212.443 259.699 L 212.443 261.262 L 212.393 261.625 L 212.246 261.888 L 212.019 262.049 L 211.722 262.099 L 211.485 262.059 L 211.333 261.938 L 211.248 261.731 L 211.228 261.439 L 211.228 259.699 L 210.784 259.699 L 210.784 261.479 L 210.799 261.837 L 210.895 262.135 L 211.187 262.407 L 211.656 262.503 L 211.908 262.468 L 212.125 262.377 L 212.312 262.22 L 212.463 261.993 L 212.463 262.407 L 212.887 262.407 L 212.887 259.699 L 212.887 259.699 z M 214.223 261.181 L 215.998 261.181 L 216.003 260.975 L 215.923 260.395 L 215.701 259.961 L 215.348 259.699 L 214.879 259.603 L 214.42 259.704 L 214.067 259.986 L 213.84 260.445 L 213.759 261.05 L 213.835 261.671 L 214.062 262.125 L 214.41 262.407 L 214.864 262.503 L 215.257 262.437 L 215.58 262.266 L 215.817 261.993 L 215.953 261.63 L 215.514 261.63 L 215.424 261.832 L 215.292 261.983 L 214.919 262.104 L 214.632 262.049 L 214.415 261.872 L 214.274 261.585 L 214.223 261.197 L 214.223 261.181 L 214.223 261.181 z M 214.223 260.808 L 214.279 260.46 L 214.415 260.203 L 214.622 260.047 L 214.894 259.991 L 215.161 260.047 L 215.368 260.203 L 215.494 260.46 L 215.54 260.808 L 214.223 260.808 L 214.223 260.808 z M 221.571 261.988 L 221.571 262.407 L 222.015 262.407 L 222.015 258.786 L 221.576 258.786 L 221.576 260.112 L 221.238 259.729 L 221.032 259.638 L 220.795 259.603 L 220.366 259.704 L 220.033 259.986 L 219.816 260.44 L 219.741 261.05 L 219.816 261.661 L 220.033 262.12 L 220.366 262.407 L 220.795 262.503 L 221.032 262.468 L 221.243 262.377 L 221.571 261.988 L 221.571 261.988 z M 220.87 260.001 L 221.163 260.072 L 221.385 260.269 L 221.516 260.596 L 221.566 261.05 L 221.516 261.509 L 221.385 261.837 L 221.163 262.039 L 220.87 262.104 L 220.593 262.039 L 220.381 261.837 L 220.24 261.504 L 220.194 261.05 L 220.24 260.602 L 220.381 260.274 L 220.593 260.072 L 220.87 260.001 L 220.87 260.001 z M 223.331 261.181 L 225.107 261.181 L 225.112 260.975 L 225.031 260.395 L 224.809 259.961 L 224.456 259.699 L 223.987 259.603 L 223.528 259.704 L 223.175 259.986 L 222.948 260.445 L 222.867 261.05 L 222.943 261.671 L 223.17 262.125 L 223.518 262.407 L 223.972 262.503 L 224.365 262.437 L 224.688 262.266 L 224.925 261.993 L 225.061 261.63 L 224.622 261.63 L 224.532 261.832 L 224.4 261.983 L 224.027 262.104 L 223.74 262.049 L 223.523 261.872 L 223.382 261.585 L 223.331 261.197 L 223.331 261.181 L 223.331 261.181 z M 223.331 260.808 L 223.387 260.46 L 223.523 260.203 L 223.73 260.047 L 224.002 259.991 L 224.269 260.047 L 224.476 260.203 L 224.602 260.46 L 224.648 260.808 L 223.331 260.808 L 223.331 260.808 z M 229.63 260.168 L 229.63 262.407 L 230.074 262.407 L 230.074 260.168 L 231.083 260.168 L 231.083 259.79 L 230.074 259.79 L 230.074 259.623 L 230.109 259.421 L 230.225 259.285 L 230.422 259.205 L 230.705 259.174 L 231.083 259.194 L 231.083 258.811 L 230.604 258.786 L 230.17 258.831 L 229.867 258.968 L 229.686 259.205 L 229.63 259.542 L 229.63 259.79 L 228.818 259.79 L 228.818 260.168 L 229.63 260.168 L 229.63 260.168 z M 233.66 262.054 L 233.66 262.069 L 233.685 262.241 L 233.761 262.362 L 234.078 262.457 L 234.326 262.417 L 234.326 262.074 L 234.22 262.089 L 234.078 262.024 L 234.053 261.822 L 234.053 260.42 L 233.993 260.062 L 233.816 259.81 L 233.509 259.658 L 233.075 259.603 L 232.651 259.663 L 232.339 259.835 L 232.142 260.102 L 232.076 260.455 L 232.076 260.486 L 232.475 260.486 L 232.51 260.274 L 232.621 260.122 L 232.803 260.032 L 233.06 259.996 L 233.307 260.022 L 233.483 260.097 L 233.589 260.228 L 233.625 260.41 L 233.604 260.622 L 233.524 260.728 L 233.322 260.778 L 232.944 260.818 L 232.51 260.909 L 232.202 261.071 L 232.021 261.323 L 231.965 261.696 L 232.016 262.029 L 232.172 262.276 L 232.424 262.432 L 232.772 262.488 L 233.241 262.382 L 233.66 262.054 L 233.66 262.054 z M 233.609 261.459 L 233.549 261.721 L 233.388 261.923 L 233.145 262.054 L 232.848 262.099 L 232.656 262.074 L 232.52 261.993 L 232.434 261.852 L 232.409 261.656 L 232.429 261.479 L 232.51 261.353 L 232.833 261.212 L 233.241 261.151 L 233.609 261.03 L 233.609 261.459 L 233.609 261.459 z M 236.812 260.596 L 237.251 260.596 L 237.16 260.193 L 236.943 259.875 L 236.605 259.679 L 236.166 259.603 L 235.682 259.704 L 235.314 259.986 L 235.082 260.445 L 235.001 261.06 L 235.077 261.671 L 235.304 262.125 L 235.662 262.407 L 236.151 262.503 L 236.585 262.427 L 236.923 262.215 L 237.155 261.883 L 237.256 261.439 L 236.832 261.439 L 236.756 261.721 L 236.615 261.933 L 236.413 262.064 L 236.166 262.104 L 235.859 262.039 L 235.637 261.837 L 235.501 261.509 L 235.455 261.045 L 235.501 260.591 L 235.642 260.264 L 235.869 260.062 L 236.166 259.991 L 236.429 260.037 L 236.625 260.153 L 236.756 260.344 L 236.812 260.596 L 236.812 260.596 z M 238.511 261.181 L 240.287 261.181 L 240.292 260.975 L 240.211 260.395 L 239.989 259.961 L 239.636 259.699 L 239.167 259.603 L 238.708 259.704 L 238.355 259.986 L 238.128 260.445 L 238.047 261.05 L 238.123 261.671 L 238.35 262.125 L 238.698 262.407 L 239.152 262.503 L 239.545 262.437 L 239.868 262.266 L 240.105 261.993 L 240.241 261.63 L 239.803 261.63 L 239.712 261.832 L 239.581 261.983 L 239.207 262.104 L 238.92 262.049 L 238.703 261.872 L 238.562 261.585 L 238.511 261.197 L 238.511 261.181 L 238.511 261.181 z M 238.511 260.808 L 238.567 260.46 L 238.703 260.203 L 238.91 260.047 L 239.182 259.991 L 239.449 260.047 L 239.656 260.203 L 239.782 260.46 L 239.828 260.808 L 238.511 260.808 L 238.511 260.808 z" stroke="none" fill-rule="evenodd" fill="rgb(0, 0, 0)"/></g><g stroke="rgb(0, 0, 0)" stroke-width="0.13" stroke-linecap="butt" stroke-linejoin="miter" fill="none"><path d="M 207.748 268.454 L 209.967 268.454 L 209.967 268.03 L 208.212 268.03 L 208.212 266.845 L 209.775 266.845 L 209.775 266.426 L 208.212 266.426 L 208.212 265.377 L 209.926 265.377 L 209.926 264.954 L 207.748 264.954 L 207.748 268.454 L 207.748 268.454 z M 212.524 266.643 L 212.962 266.643 L 212.872 266.24 L 212.655 265.922 L 212.317 265.725 L 211.878 265.65 L 211.394 265.751 L 211.026 266.033 L 210.794 266.492 L 210.713 267.107 L 210.789 267.718 L 211.016 268.171 L 211.374 268.454 L 211.863 268.55 L 212.297 268.474 L 212.635 268.262 L 212.867 267.929 L 212.967 267.486 L 212.544 267.486 L 212.468 267.768 L 212.327 267.98 L 212.125 268.111 L 211.878 268.151 L 211.57 268.086 L 211.349 267.884 L 211.212 267.556 L 211.167 267.092 L 211.212 266.638 L 211.354 266.31 L 211.581 266.109 L 211.878 266.038 L 212.14 266.084 L 212.337 266.2 L 212.468 266.391 L 212.524 266.643 L 212.524 266.643 z M 213.835 268.454 L 214.279 268.454 L 214.279 266.89 L 214.324 266.532 L 214.47 266.27 L 214.697 266.109 L 215 266.048 L 215.242 266.099 L 215.393 266.235 L 215.469 266.462 L 215.494 266.764 L 215.494 268.454 L 215.938 268.454 L 215.938 266.674 L 215.918 266.316 L 215.827 266.018 L 215.529 265.746 L 215.065 265.65 L 214.813 265.685 L 214.596 265.781 L 214.415 265.932 L 214.279 266.139 L 214.279 264.833 L 213.835 264.833 L 213.835 268.454 L 213.835 268.454 z M 217.259 267.228 L 219.034 267.228 L 219.04 267.022 L 218.959 266.442 L 218.737 266.008 L 218.384 265.746 L 217.915 265.65 L 217.456 265.751 L 217.103 266.033 L 216.876 266.492 L 216.795 267.097 L 216.871 267.718 L 217.098 268.171 L 217.446 268.454 L 217.9 268.55 L 218.293 268.484 L 218.616 268.313 L 218.853 268.04 L 218.989 267.677 L 218.55 267.677 L 218.46 267.879 L 218.328 268.03 L 217.955 268.151 L 217.668 268.096 L 217.451 267.919 L 217.31 267.632 L 217.259 267.243 L 217.259 267.228 L 217.259 267.228 z M 217.259 266.855 L 217.315 266.507 L 217.451 266.25 L 217.658 266.094 L 217.93 266.038 L 218.197 266.094 L 218.404 266.25 L 218.53 266.507 L 218.576 266.855 L 217.259 266.855 L 217.259 266.855 z M 220.79 265.206 L 220.79 268.081 L 219.877 268.081 L 219.877 268.454 L 222.141 268.454 L 222.141 268.081 L 221.233 268.081 L 221.233 264.833 L 220.094 264.833 L 220.094 265.206 L 220.79 265.206 L 220.79 265.206 z M 223.826 265.206 L 223.826 268.081 L 222.913 268.081 L 222.913 268.454 L 225.177 268.454 L 225.177 268.081 L 224.269 268.081 L 224.269 264.833 L 223.13 264.833 L 223.13 265.206 L 223.826 265.206 L 223.826 265.206 z M 226.367 267.228 L 228.143 267.228 L 228.148 267.022 L 228.067 266.442 L 227.845 266.008 L 227.492 265.746 L 227.023 265.65 L 226.564 265.751 L 226.211 266.033 L 225.984 266.492 L 225.903 267.097 L 225.979 267.718 L 226.206 268.171 L 226.554 268.454 L 227.008 268.55 L 227.401 268.484 L 227.724 268.313 L 227.961 268.04 L 228.097 267.677 L 227.658 267.677 L 227.568 267.879 L 227.436 268.03 L 227.063 268.151 L 226.776 268.096 L 226.559 267.919 L 226.418 267.632 L 226.367 267.243 L 226.367 267.228 L 226.367 267.228 z M 226.367 266.855 L 226.423 266.507 L 226.559 266.25 L 226.766 266.094 L 227.038 266.038 L 227.305 266.094 L 227.512 266.25 L 227.638 266.507 L 227.684 266.855 L 226.367 266.855 L 226.367 266.855 z M 232.747 268.454 L 233.443 268.454 L 233.443 267.702 L 232.747 267.702 L 232.747 268.454 L 232.747 268.454 z M 232.747 266.497 L 233.443 266.497 L 233.443 265.746 L 232.747 265.746 L 232.747 266.497 L 232.747 266.497 z" stroke="none" fill-rule="evenodd" fill="rgb(0, 0, 0)"/></g><g stroke="rgb(0, 0, 0)" stroke-width="0.13" stroke-linecap="butt" stroke-linejoin="miter" fill="none"><path d="M 242.112 268.454 L 242.571 268.454 L 242.571 264.929 L 242.228 264.929 L 242.138 265.236 L 241.956 265.443 L 241.679 265.564 L 241.295 265.604 L 241.295 265.962 L 242.112 265.962 L 242.112 268.454 L 242.112 268.454 z M 244.891 268.454 L 245.587 268.454 L 245.587 267.702 L 244.891 267.702 L 244.891 268.454 L 244.891 268.454 z M 244.891 266.497 L 245.587 266.497 L 245.587 265.746 L 244.891 265.746 L 244.891 266.497 L 244.891 266.497 z M 248.184 268.454 L 248.643 268.454 L 248.643 264.929 L 248.3 264.929 L 248.21 265.236 L 248.028 265.443 L 247.751 265.564 L 247.367 265.604 L 247.367 265.962 L 248.184 265.962 L 248.184 268.454 L 248.184 268.454 z" stroke="none" fill-rule="evenodd" fill="rgb(0, 0, 0)"/></g><g stroke="rgb(0, 0, 0)" stroke-width="0.13" stroke-linecap="butt" stroke-linejoin="miter" fill="none"><path d="M 199.589 212.19 L 199.972 212.589 L 200.239 212.321 L 199.826 211.898 L 200.037 211.323 L 200.103 210.657 L 200.007 209.875 L 199.896 209.558 L 199.75 209.295 L 199.336 208.937 L 199.084 208.846 L 198.807 208.811 L 198.272 208.937 L 197.864 209.29 L 197.601 209.87 L 197.511 210.657 L 197.601 211.444 L 197.859 212.024 L 198.267 212.382 L 198.807 212.503 L 199.246 212.422 L 199.589 212.19 L 199.589 212.19 z M 199.271 211.867 L 199.054 212.029 L 198.807 212.079 L 198.479 211.988 L 198.222 211.716 L 198.05 211.272 L 197.995 210.657 L 198.05 210.047 L 198.217 209.598 L 198.474 209.326 L 198.807 209.23 L 199.135 209.326 L 199.392 209.603 L 199.558 210.052 L 199.619 210.657 L 199.573 211.182 L 199.478 211.54 L 199.15 211.197 L 198.877 211.454 L 199.271 211.867 L 199.271 211.867 z M 202.887 209.699 L 202.443 209.699 L 202.443 211.262 L 202.393 211.625 L 202.246 211.888 L 202.019 212.049 L 201.722 212.099 L 201.485 212.059 L 201.333 211.938 L 201.248 211.731 L 201.228 211.439 L 201.228 209.699 L 200.784 209.699 L 200.784 211.479 L 200.799 211.837 L 200.895 212.135 L 201.187 212.407 L 201.656 212.503 L 201.908 212.468 L 202.125 212.377 L 202.312 212.22 L 202.463 211.993 L 202.463 212.407 L 202.887 212.407 L 202.887 209.699 L 202.887 209.699 z M 205.444 212.054 L 205.444 212.069 L 205.469 212.241 L 205.545 212.362 L 205.862 212.457 L 206.109 212.417 L 206.109 212.074 L 206.004 212.089 L 205.862 212.024 L 205.837 211.822 L 205.837 210.42 L 205.777 210.062 L 205.6 209.81 L 205.292 209.658 L 204.859 209.603 L 204.435 209.663 L 204.122 209.835 L 203.926 210.102 L 203.86 210.455 L 203.86 210.486 L 204.259 210.486 L 204.294 210.274 L 204.405 210.122 L 204.586 210.032 L 204.844 209.996 L 205.091 210.022 L 205.267 210.097 L 205.373 210.228 L 205.408 210.41 L 205.388 210.622 L 205.308 210.728 L 205.106 210.778 L 204.728 210.818 L 204.294 210.909 L 203.986 211.071 L 203.805 211.323 L 203.749 211.696 L 203.8 212.029 L 203.956 212.276 L 204.208 212.432 L 204.556 212.488 L 205.025 212.382 L 205.444 212.054 L 205.444 212.054 z M 205.393 211.459 L 205.333 211.721 L 205.171 211.923 L 204.929 212.054 L 204.632 212.099 L 204.44 212.074 L 204.304 211.993 L 204.218 211.852 L 204.193 211.656 L 204.213 211.479 L 204.294 211.353 L 204.617 211.212 L 205.025 211.151 L 205.393 211.03 L 205.393 211.459 L 205.393 211.459 z M 206.871 212.407 L 207.315 212.407 L 207.315 210.844 L 207.36 210.486 L 207.506 210.223 L 207.733 210.062 L 208.036 210.001 L 208.278 210.052 L 208.429 210.188 L 208.505 210.415 L 208.53 210.718 L 208.53 212.407 L 208.974 212.407 L 208.974 210.627 L 208.954 210.269 L 208.863 209.971 L 208.565 209.699 L 208.101 209.603 L 207.844 209.638 L 207.627 209.734 L 207.441 209.895 L 207.295 210.112 L 207.295 209.699 L 206.871 209.699 L 206.871 212.407 L 206.871 212.407 z M 210.502 210.168 L 210.502 211.524 L 210.532 211.963 L 210.674 212.266 L 210.956 212.442 L 211.435 212.503 L 211.96 212.478 L 211.96 212.094 L 211.576 212.125 L 211.228 212.084 L 211.042 211.958 L 210.961 211.746 L 210.946 211.449 L 210.946 210.168 L 211.96 210.168 L 211.96 209.79 L 210.946 209.79 L 210.946 208.998 L 210.502 208.998 L 210.502 209.79 L 209.736 209.79 L 209.736 210.168 L 210.502 210.168 L 210.502 210.168 z M 214.3 212.034 L 214.3 209.79 L 213.16 209.79 L 213.16 210.168 L 213.856 210.168 L 213.856 212.034 L 212.948 212.034 L 212.948 212.407 L 215.217 212.407 L 215.217 212.034 L 214.3 212.034 L 214.3 212.034 z M 214.315 208.786 L 213.846 208.786 L 213.846 209.29 L 214.315 209.29 L 214.315 208.786 L 214.315 208.786 z M 216.574 210.168 L 216.574 211.524 L 216.604 211.963 L 216.746 212.266 L 217.028 212.442 L 217.507 212.503 L 218.032 212.478 L 218.032 212.094 L 217.648 212.125 L 217.3 212.084 L 217.114 211.958 L 217.033 211.746 L 217.018 211.449 L 217.018 210.168 L 218.032 210.168 L 218.032 209.79 L 217.018 209.79 L 217.018 208.998 L 216.574 208.998 L 216.574 209.79 L 215.808 209.79 L 215.808 210.168 L 216.574 210.168 L 216.574 210.168 z M 219.711 209.331 L 220.009 209.331 L 220.71 208.473 L 220.215 208.473 L 219.711 209.331 L 219.711 209.331 z M 219.403 211.182 L 221.179 211.182 L 221.184 210.975 L 221.103 210.395 L 220.881 209.961 L 220.528 209.699 L 220.059 209.603 L 219.6 209.704 L 219.247 209.986 L 219.02 210.445 L 218.939 211.05 L 219.015 211.671 L 219.242 212.125 L 219.59 212.407 L 220.044 212.503 L 220.437 212.437 L 220.76 212.266 L 220.997 211.993 L 221.133 211.63 L 220.694 211.63 L 220.604 211.832 L 220.473 211.983 L 220.099 212.104 L 219.812 212.049 L 219.595 211.872 L 219.454 211.585 L 219.403 211.197 L 219.403 211.182 L 219.403 211.182 z M 219.403 210.808 L 219.459 210.46 L 219.595 210.203 L 219.802 210.047 L 220.074 209.991 L 220.341 210.047 L 220.548 210.203 L 220.674 210.46 L 220.72 210.808 L 219.403 210.808 L 219.403 210.808 z M 224.86 211.308 L 224.86 211.343 L 224.941 211.827 L 225.178 212.19 L 225.551 212.422 L 226.045 212.508 L 226.57 212.422 L 226.963 212.2 L 227.215 211.847 L 227.306 211.393 L 227.266 211.096 L 227.155 210.854 L 226.973 210.667 L 226.731 210.531 L 227.059 210.259 L 227.175 209.825 L 227.099 209.432 L 226.882 209.134 L 226.529 208.947 L 226.045 208.882 L 225.591 208.962 L 225.243 209.184 L 225.016 209.537 L 224.941 210.006 L 224.941 210.042 L 225.39 210.042 L 225.43 209.719 L 225.561 209.487 L 225.773 209.346 L 226.071 209.295 L 226.333 209.336 L 226.524 209.442 L 226.64 209.613 L 226.686 209.845 L 226.64 210.092 L 226.519 210.259 L 226.308 210.359 L 226.02 210.39 L 225.823 210.385 L 225.823 210.783 L 226.071 210.773 L 226.388 210.818 L 226.625 210.939 L 226.766 211.136 L 226.817 211.393 L 226.761 211.686 L 226.615 211.903 L 226.383 212.039 L 226.076 212.084 L 225.758 212.034 L 225.526 211.883 L 225.38 211.64 L 225.324 211.308 L 224.86 211.308 L 224.86 211.308 z" stroke="none" fill-rule="evenodd" fill="rgb(0, 0, 0)"/></g><g stroke="rgb(0, 0, 0)" stroke-width="0.13" stroke-linecap="butt" stroke-linejoin="miter" fill="none"><path d="M 294.358 151.895 L 293.949 151.991 L 293.647 152.213 L 293.455 152.556 L 293.39 153 L 293.425 153.297 L 293.521 153.554 L 293.677 153.781 L 293.899 153.973 L 294.176 154.124 L 294.514 154.235 L 294.913 154.306 L 295.362 154.326 L 296.078 154.245 L 296.597 153.998 L 296.91 153.6 L 297.016 153.055 L 296.925 152.566 L 296.688 152.193 L 296.315 151.951 L 295.841 151.865 L 295.362 151.951 L 294.993 152.182 L 294.761 152.541 L 294.681 152.984 L 294.782 153.463 L 295.069 153.822 L 294.514 153.746 L 294.116 153.585 L 293.879 153.337 L 293.798 152.994 L 293.839 152.742 L 293.944 152.551 L 294.121 152.425 L 294.358 152.359 L 294.358 151.895 L 294.358 151.895 z M 295.846 152.354 L 296.163 152.409 L 296.406 152.551 L 296.567 152.778 L 296.617 153.06 L 296.567 153.358 L 296.411 153.585 L 296.168 153.731 L 295.851 153.776 L 295.538 153.726 L 295.301 153.585 L 295.15 153.353 L 295.094 153.04 L 295.15 152.768 L 295.296 152.551 L 295.533 152.409 L 295.846 152.354 L 295.846 152.354 z M 296.915 150.07 L 296.915 149.561 L 296.083 149.395 L 295.306 149.102 L 294.585 148.689 L 293.909 148.149 L 293.491 148.149 L 293.491 150.549 L 293.949 150.549 L 293.949 148.633 L 294.63 149.188 L 295.341 149.606 L 296.098 149.899 L 296.915 150.07 L 296.915 150.07 z" stroke="none" fill-rule="evenodd" fill="rgb(0, 0, 0)"/><path d="M 299.433 119.669 L 298.915 117.737 L 298.397 119.669"/><path d="M 298.397 182.806 L 298.915 184.737 L 299.433 182.806"/><path d="M 298.915 184.737 L 298.915 117.737"/></g><g stroke="rgb(0, 0, 0)" stroke-width="0.13" stroke-linecap="butt" stroke-linejoin="miter" fill="none"><path d="M 368.646 256.089 L 367.768 259.07 L 366.866 256.089 L 366.387 256.089 L 367.516 259.594 L 368.021 259.594 L 369.125 256.089 L 368.646 256.089 L 368.646 256.089 z M 371.848 256.886 L 371.405 256.886 L 371.405 258.449 L 371.354 258.812 L 371.208 259.075 L 370.981 259.236 L 370.684 259.286 L 370.446 259.246 L 370.295 259.125 L 370.209 258.918 L 370.189 258.626 L 370.189 256.886 L 369.745 256.886 L 369.745 258.666 L 369.761 259.024 L 369.856 259.322 L 370.149 259.594 L 370.618 259.69 L 370.87 259.655 L 371.087 259.564 L 371.274 259.407 L 371.425 259.18 L 371.425 259.594 L 371.848 259.594 L 371.848 256.886 L 371.848 256.886 z M 373.185 258.369 L 374.96 258.369 L 374.965 258.162 L 374.885 257.582 L 374.663 257.148 L 374.31 256.886 L 373.841 256.79 L 373.382 256.891 L 373.029 257.173 L 372.802 257.632 L 372.721 258.237 L 372.797 258.858 L 373.024 259.312 L 373.372 259.594 L 373.825 259.69 L 374.219 259.624 L 374.542 259.453 L 374.779 259.18 L 374.915 258.817 L 374.476 258.817 L 374.385 259.019 L 374.254 259.17 L 373.881 259.291 L 373.593 259.236 L 373.377 259.059 L 373.235 258.772 L 373.185 258.384 L 373.185 258.369 L 373.185 258.369 z M 373.185 257.995 L 373.24 257.647 L 373.377 257.39 L 373.583 257.234 L 373.856 257.178 L 374.123 257.234 L 374.33 257.39 L 374.456 257.647 L 374.501 257.995 L 373.185 257.995 L 373.185 257.995 z M 380.533 259.175 L 380.533 259.594 L 380.977 259.594 L 380.977 255.973 L 380.538 255.973 L 380.538 257.299 L 380.2 256.916 L 379.993 256.825 L 379.756 256.79 L 379.328 256.891 L 378.995 257.173 L 378.778 257.627 L 378.702 258.237 L 378.778 258.848 L 378.995 259.307 L 379.328 259.594 L 379.756 259.69 L 379.993 259.655 L 380.205 259.564 L 380.533 259.175 L 380.533 259.175 z M 379.832 257.188 L 380.124 257.259 L 380.346 257.456 L 380.478 257.783 L 380.528 258.237 L 380.478 258.696 L 380.346 259.024 L 380.124 259.226 L 379.832 259.291 L 379.555 259.226 L 379.343 259.024 L 379.202 258.691 L 379.156 258.237 L 379.202 257.789 L 379.343 257.461 L 379.555 257.259 L 379.832 257.188 L 379.832 257.188 z M 382.293 258.369 L 384.068 258.369 L 384.073 258.162 L 383.993 257.582 L 383.771 257.148 L 383.418 256.886 L 382.949 256.79 L 382.49 256.891 L 382.137 257.173 L 381.91 257.632 L 381.829 258.237 L 381.905 258.858 L 382.132 259.312 L 382.48 259.594 L 382.934 259.69 L 383.327 259.624 L 383.65 259.453 L 383.887 259.18 L 384.023 258.817 L 383.584 258.817 L 383.493 259.019 L 383.362 259.17 L 382.989 259.291 L 382.702 259.236 L 382.485 259.059 L 382.344 258.772 L 382.293 258.384 L 382.293 258.369 L 382.293 258.369 z M 382.293 257.995 L 382.349 257.647 L 382.485 257.39 L 382.691 257.234 L 382.964 257.178 L 383.231 257.234 L 383.438 257.39 L 383.564 257.647 L 383.609 257.995 L 382.293 257.995 L 382.293 257.995 z M 388.592 257.355 L 388.592 259.594 L 389.036 259.594 L 389.036 257.355 L 390.045 257.355 L 390.045 256.977 L 389.036 256.977 L 389.036 256.81 L 389.071 256.608 L 389.187 256.472 L 389.384 256.392 L 389.666 256.361 L 390.045 256.381 L 390.045 255.998 L 389.565 255.973 L 389.132 256.018 L 388.829 256.155 L 388.648 256.392 L 388.592 256.729 L 388.592 256.977 L 387.78 256.977 L 387.78 257.355 L 388.592 257.355 L 388.592 257.355 z M 392.622 259.241 L 392.622 259.256 L 392.647 259.428 L 392.723 259.549 L 393.04 259.644 L 393.287 259.604 L 393.287 259.261 L 393.181 259.276 L 393.04 259.211 L 393.015 259.009 L 393.015 257.607 L 392.955 257.249 L 392.778 256.997 L 392.47 256.845 L 392.037 256.79 L 391.613 256.85 L 391.3 257.022 L 391.104 257.289 L 391.038 257.642 L 391.038 257.673 L 391.437 257.673 L 391.472 257.461 L 391.583 257.309 L 391.764 257.219 L 392.022 257.183 L 392.269 257.209 L 392.445 257.284 L 392.551 257.415 L 392.586 257.597 L 392.566 257.809 L 392.486 257.915 L 392.284 257.965 L 391.906 258.005 L 391.472 258.096 L 391.164 258.258 L 390.983 258.51 L 390.927 258.883 L 390.978 259.216 L 391.134 259.463 L 391.386 259.619 L 391.734 259.675 L 392.203 259.569 L 392.622 259.241 L 392.622 259.241 z M 392.571 258.646 L 392.511 258.908 L 392.349 259.11 L 392.107 259.241 L 391.81 259.286 L 391.618 259.261 L 391.482 259.18 L 391.396 259.039 L 391.371 258.843 L 391.391 258.666 L 391.472 258.54 L 391.795 258.399 L 392.203 258.338 L 392.571 258.217 L 392.571 258.646 L 392.571 258.646 z M 395.774 257.783 L 396.212 257.783 L 396.122 257.38 L 395.905 257.062 L 395.567 256.866 L 395.128 256.79 L 394.644 256.891 L 394.276 257.173 L 394.044 257.632 L 393.963 258.247 L 394.039 258.858 L 394.266 259.312 L 394.624 259.594 L 395.113 259.69 L 395.547 259.614 L 395.885 259.402 L 396.117 259.07 L 396.218 258.626 L 395.794 258.626 L 395.718 258.908 L 395.577 259.12 L 395.375 259.251 L 395.128 259.291 L 394.821 259.226 L 394.599 259.024 L 394.462 258.696 L 394.417 258.232 L 394.462 257.778 L 394.604 257.451 L 394.831 257.249 L 395.128 257.178 L 395.39 257.224 L 395.587 257.34 L 395.718 257.531 L 395.774 257.783 L 395.774 257.783 z M 397.473 258.369 L 399.249 258.369 L 399.254 258.162 L 399.173 257.582 L 398.951 257.148 L 398.598 256.886 L 398.129 256.79 L 397.67 256.891 L 397.317 257.173 L 397.09 257.632 L 397.009 258.237 L 397.085 258.858 L 397.312 259.312 L 397.66 259.594 L 398.114 259.69 L 398.507 259.624 L 398.83 259.453 L 399.067 259.18 L 399.203 258.817 L 398.764 258.817 L 398.674 259.019 L 398.542 259.17 L 398.169 259.291 L 397.882 259.236 L 397.665 259.059 L 397.524 258.772 L 397.473 258.384 L 397.473 258.369 L 397.473 258.369 z M 397.473 257.995 L 397.529 257.647 L 397.665 257.39 L 397.872 257.234 L 398.144 257.178 L 398.411 257.234 L 398.618 257.39 L 398.744 257.647 L 398.79 257.995 L 397.473 257.995 L 397.473 257.995 z" stroke="none" fill-rule="evenodd" fill="rgb(0, 0, 0)"/></g><g stroke="rgb(0, 0, 0)" stroke-width="0.13" stroke-linecap="butt" stroke-linejoin="miter" fill="none"><path d="M 366.709 265.641 L 368.928 265.641 L 368.928 265.217 L 367.173 265.217 L 367.173 264.032 L 368.737 264.032 L 368.737 263.613 L 367.173 263.613 L 367.173 262.564 L 368.888 262.564 L 368.888 262.141 L 366.709 262.141 L 366.709 265.641 L 366.709 265.641 z M 371.485 263.83 L 371.924 263.83 L 371.833 263.427 L 371.617 263.109 L 371.279 262.912 L 370.84 262.837 L 370.356 262.938 L 369.988 263.22 L 369.756 263.679 L 369.675 264.294 L 369.751 264.905 L 369.977 265.358 L 370.336 265.641 L 370.825 265.737 L 371.258 265.661 L 371.596 265.449 L 371.828 265.116 L 371.929 264.673 L 371.506 264.673 L 371.43 264.955 L 371.289 265.167 L 371.087 265.298 L 370.84 265.338 L 370.532 265.273 L 370.31 265.071 L 370.174 264.743 L 370.129 264.279 L 370.174 263.825 L 370.315 263.497 L 370.542 263.296 L 370.84 263.225 L 371.102 263.271 L 371.299 263.387 L 371.43 263.578 L 371.485 263.83 L 371.485 263.83 z M 372.797 265.641 L 373.24 265.641 L 373.24 264.077 L 373.286 263.719 L 373.432 263.457 L 373.659 263.296 L 373.962 263.235 L 374.204 263.286 L 374.355 263.422 L 374.431 263.649 L 374.456 263.951 L 374.456 265.641 L 374.9 265.641 L 374.9 263.861 L 374.879 263.503 L 374.789 263.205 L 374.491 262.933 L 374.027 262.837 L 373.775 262.872 L 373.558 262.968 L 373.377 263.119 L 373.24 263.326 L 373.24 262.02 L 372.797 262.02 L 372.797 265.641 L 372.797 265.641 z M 376.221 264.415 L 377.996 264.415 L 378.001 264.209 L 377.921 263.629 L 377.699 263.195 L 377.346 262.933 L 376.877 262.837 L 376.418 262.938 L 376.065 263.22 L 375.838 263.679 L 375.757 264.284 L 375.833 264.905 L 376.06 265.358 L 376.408 265.641 L 376.862 265.737 L 377.255 265.671 L 377.578 265.5 L 377.815 265.227 L 377.951 264.864 L 377.512 264.864 L 377.421 265.066 L 377.29 265.217 L 376.917 265.338 L 376.63 265.283 L 376.413 265.106 L 376.271 264.819 L 376.221 264.43 L 376.221 264.415 L 376.221 264.415 z M 376.221 264.042 L 376.276 263.694 L 376.413 263.437 L 376.619 263.281 L 376.892 263.225 L 377.159 263.281 L 377.366 263.437 L 377.492 263.694 L 377.537 264.042 L 376.221 264.042 L 376.221 264.042 z M 379.751 262.393 L 379.751 265.268 L 378.838 265.268 L 378.838 265.641 L 381.103 265.641 L 381.103 265.268 L 380.195 265.268 L 380.195 262.02 L 379.055 262.02 L 379.055 262.393 L 379.751 262.393 L 379.751 262.393 z M 382.787 262.393 L 382.787 265.268 L 381.875 265.268 L 381.875 265.641 L 384.139 265.641 L 384.139 265.268 L 383.231 265.268 L 383.231 262.02 L 382.091 262.02 L 382.091 262.393 L 382.787 262.393 L 382.787 262.393 z M 385.329 264.415 L 387.104 264.415 L 387.109 264.209 L 387.029 263.629 L 386.807 263.195 L 386.454 262.933 L 385.985 262.837 L 385.526 262.938 L 385.173 263.22 L 384.946 263.679 L 384.865 264.284 L 384.941 264.905 L 385.168 265.358 L 385.516 265.641 L 385.97 265.737 L 386.363 265.671 L 386.686 265.5 L 386.923 265.227 L 387.059 264.864 L 386.62 264.864 L 386.529 265.066 L 386.398 265.217 L 386.025 265.338 L 385.738 265.283 L 385.521 265.106 L 385.38 264.819 L 385.329 264.43 L 385.329 264.415 L 385.329 264.415 z M 385.329 264.042 L 385.385 263.694 L 385.521 263.437 L 385.728 263.281 L 386 263.225 L 386.267 263.281 L 386.474 263.437 L 386.6 263.694 L 386.645 264.042 L 385.329 264.042 L 385.329 264.042 z M 391.709 265.641 L 392.405 265.641 L 392.405 264.889 L 391.709 264.889 L 391.709 265.641 L 391.709 265.641 z M 391.709 263.684 L 392.405 263.684 L 392.405 262.933 L 391.709 262.933 L 391.709 263.684 L 391.709 263.684 z" stroke="none" fill-rule="evenodd" fill="rgb(0, 0, 0)"/></g><g stroke="rgb(0, 0, 0)" stroke-width="0.13" stroke-linecap="butt" stroke-linejoin="miter" fill="none"><path d="M 401.074 265.641 L 401.533 265.641 L 401.533 262.116 L 401.19 262.116 L 401.099 262.423 L 400.918 262.63 L 400.64 262.751 L 400.257 262.791 L 400.257 263.149 L 401.074 263.149 L 401.074 265.641 L 401.074 265.641 z M 403.853 265.641 L 404.549 265.641 L 404.549 264.889 L 403.853 264.889 L 403.853 265.641 L 403.853 265.641 z M 403.853 263.684 L 404.549 263.684 L 404.549 262.933 L 403.853 262.933 L 403.853 263.684 L 403.853 263.684 z M 407.146 265.641 L 407.605 265.641 L 407.605 262.116 L 407.262 262.116 L 407.171 262.423 L 406.99 262.63 L 406.712 262.751 L 406.329 262.791 L 406.329 263.149 L 407.146 263.149 L 407.146 265.641 L 407.146 265.641 z" stroke="none" fill-rule="evenodd" fill="rgb(0, 0, 0)"/></g><g stroke="rgb(0, 0, 0)" stroke-width="0.13" stroke-linecap="butt" stroke-linejoin="miter" fill="none"><path d="M 318.55 199.377 L 318.934 199.776 L 319.201 199.508 L 318.787 199.085 L 318.999 198.51 L 319.065 197.844 L 318.969 197.062 L 318.858 196.745 L 318.712 196.482 L 318.298 196.124 L 318.046 196.033 L 317.768 195.998 L 317.234 196.124 L 316.825 196.477 L 316.563 197.057 L 316.472 197.844 L 316.563 198.631 L 316.82 199.211 L 317.229 199.569 L 317.768 199.69 L 318.207 199.609 L 318.55 199.377 L 318.55 199.377 z M 318.232 199.054 L 318.016 199.216 L 317.768 199.266 L 317.441 199.175 L 317.184 198.903 L 317.012 198.459 L 316.957 197.844 L 317.012 197.234 L 317.178 196.785 L 317.436 196.513 L 317.768 196.417 L 318.096 196.513 L 318.354 196.79 L 318.52 197.239 L 318.58 197.844 L 318.535 198.369 L 318.439 198.727 L 318.111 198.384 L 317.839 198.641 L 318.232 199.054 L 318.232 199.054 z M 321.848 196.886 L 321.405 196.886 L 321.405 198.449 L 321.354 198.812 L 321.208 199.075 L 320.981 199.236 L 320.684 199.286 L 320.446 199.246 L 320.295 199.125 L 320.209 198.918 L 320.189 198.626 L 320.189 196.886 L 319.745 196.886 L 319.745 198.666 L 319.761 199.024 L 319.856 199.322 L 320.149 199.594 L 320.618 199.69 L 320.87 199.655 L 321.087 199.564 L 321.274 199.407 L 321.425 199.18 L 321.425 199.594 L 321.848 199.594 L 321.848 196.886 L 321.848 196.886 z M 324.405 199.241 L 324.405 199.256 L 324.431 199.428 L 324.506 199.549 L 324.824 199.644 L 325.071 199.604 L 325.071 199.261 L 324.965 199.276 L 324.824 199.211 L 324.799 199.009 L 324.799 197.607 L 324.738 197.249 L 324.562 196.997 L 324.254 196.845 L 323.82 196.79 L 323.397 196.85 L 323.084 197.022 L 322.887 197.289 L 322.822 197.642 L 322.822 197.673 L 323.22 197.673 L 323.256 197.461 L 323.367 197.309 L 323.548 197.219 L 323.805 197.183 L 324.052 197.209 L 324.229 197.284 L 324.335 197.415 L 324.37 197.597 L 324.35 197.809 L 324.269 197.915 L 324.068 197.965 L 323.689 198.005 L 323.256 198.096 L 322.948 198.258 L 322.766 198.51 L 322.711 198.883 L 322.761 199.216 L 322.918 199.463 L 323.17 199.619 L 323.518 199.675 L 323.987 199.569 L 324.405 199.241 L 324.405 199.241 z M 324.355 198.646 L 324.294 198.908 L 324.133 199.11 L 323.891 199.241 L 323.593 199.286 L 323.402 199.261 L 323.266 199.18 L 323.18 199.039 L 323.155 198.843 L 323.175 198.666 L 323.256 198.54 L 323.578 198.399 L 323.987 198.338 L 324.355 198.217 L 324.355 198.646 L 324.355 198.646 z M 325.833 199.594 L 326.276 199.594 L 326.276 198.031 L 326.322 197.673 L 326.468 197.41 L 326.695 197.249 L 326.998 197.188 L 327.24 197.239 L 327.391 197.375 L 327.467 197.602 L 327.492 197.905 L 327.492 199.594 L 327.936 199.594 L 327.936 197.814 L 327.916 197.456 L 327.825 197.158 L 327.527 196.886 L 327.063 196.79 L 326.806 196.825 L 326.589 196.921 L 326.403 197.082 L 326.256 197.299 L 326.256 196.886 L 325.833 196.886 L 325.833 199.594 L 325.833 199.594 z M 329.464 197.355 L 329.464 198.711 L 329.494 199.15 L 329.635 199.453 L 329.918 199.629 L 330.397 199.69 L 330.921 199.665 L 330.921 199.281 L 330.538 199.312 L 330.19 199.271 L 330.003 199.145 L 329.923 198.933 L 329.908 198.636 L 329.908 197.355 L 330.921 197.355 L 330.921 196.977 L 329.908 196.977 L 329.908 196.185 L 329.464 196.185 L 329.464 196.977 L 328.697 196.977 L 328.697 197.355 L 329.464 197.355 L 329.464 197.355 z M 333.261 199.221 L 333.261 196.977 L 332.122 196.977 L 332.122 197.355 L 332.818 197.355 L 332.818 199.221 L 331.91 199.221 L 331.91 199.594 L 334.179 199.594 L 334.179 199.221 L 333.261 199.221 L 333.261 199.221 z M 333.277 195.973 L 332.807 195.973 L 332.807 196.477 L 333.277 196.477 L 333.277 195.973 L 333.277 195.973 z M 335.536 197.355 L 335.536 198.711 L 335.566 199.15 L 335.707 199.453 L 335.99 199.629 L 336.469 199.69 L 336.993 199.665 L 336.993 199.281 L 336.61 199.312 L 336.262 199.271 L 336.076 199.145 L 335.995 198.933 L 335.98 198.636 L 335.98 197.355 L 336.993 197.355 L 336.993 196.977 L 335.98 196.977 L 335.98 196.185 L 335.536 196.185 L 335.536 196.977 L 334.769 196.977 L 334.769 197.355 L 335.536 197.355 L 335.536 197.355 z M 338.673 196.518 L 338.97 196.518 L 339.671 195.66 L 339.177 195.66 L 338.673 196.518 L 338.673 196.518 z M 338.365 198.369 L 340.14 198.369 L 340.145 198.162 L 340.065 197.582 L 339.843 197.148 L 339.49 196.886 L 339.021 196.79 L 338.562 196.891 L 338.209 197.173 L 337.982 197.632 L 337.901 198.237 L 337.977 198.858 L 338.204 199.312 L 338.552 199.594 L 339.006 199.69 L 339.399 199.624 L 339.722 199.453 L 339.959 199.18 L 340.095 198.817 L 339.656 198.817 L 339.565 199.019 L 339.434 199.17 L 339.061 199.291 L 338.774 199.236 L 338.557 199.059 L 338.416 198.772 L 338.365 198.384 L 338.365 198.369 L 338.365 198.369 z M 338.365 197.995 L 338.421 197.647 L 338.557 197.39 L 338.764 197.234 L 339.036 197.178 L 339.303 197.234 L 339.51 197.39 L 339.636 197.647 L 339.681 197.995 L 338.365 197.995 L 338.365 197.995 z M 343.862 199.594 L 346.268 199.594 L 346.268 199.16 L 344.367 199.16 L 344.473 198.923 L 344.654 198.727 L 345.214 198.369 L 345.511 198.217 L 345.844 198 L 346.081 197.748 L 346.218 197.451 L 346.268 197.113 L 346.182 196.689 L 345.945 196.356 L 345.582 196.144 L 345.113 196.069 L 344.629 196.155 L 344.261 196.392 L 344.024 196.77 L 343.943 197.269 L 343.943 197.34 L 344.402 197.34 L 344.402 197.299 L 344.447 196.956 L 344.583 196.704 L 344.8 196.543 L 345.088 196.487 L 345.38 196.538 L 345.597 196.664 L 345.738 196.861 L 345.789 197.108 L 345.754 197.34 L 345.658 197.536 L 345.496 197.708 L 345.274 197.859 L 344.977 198.021 L 344.483 198.333 L 344.135 198.666 L 343.928 199.07 L 343.862 199.579 L 343.862 199.594 L 343.862 199.594 z" stroke="none" fill-rule="evenodd" fill="rgb(0, 0, 0)"/></g><g stroke="rgb(0, 0, 0)" stroke-width="0.13" stroke-linecap="butt" stroke-linejoin="miter" fill="none"><path d="M 368.389 27.3044 L 368.232 27.0775 L 368.056 26.9161 L 367.849 26.8253 L 367.612 26.79 L 367.184 26.8908 L 366.851 27.1733 L 366.634 27.6272 L 366.558 28.2374 L 366.634 28.8527 L 366.851 29.3065 L 367.184 29.594 L 367.612 29.6898 L 367.849 29.6596 L 368.051 29.5739 L 368.227 29.4175 L 368.389 29.1805 L 368.389 30.643 L 368.833 30.643 L 368.833 26.8858 L 368.389 26.8858 L 368.389 27.3044 L 368.389 27.3044 z M 367.012 28.2374 L 367.057 27.7885 L 367.199 27.4607 L 367.41 27.259 L 367.688 27.1884 L 367.98 27.259 L 368.202 27.4557 L 368.333 27.7835 L 368.384 28.2374 L 368.333 28.6963 L 368.202 29.0241 L 367.98 29.2259 L 367.688 29.2914 L 367.41 29.2259 L 367.199 29.0241 L 367.057 28.6913 L 367.012 28.2374 L 367.012 28.2374 z M 371.848 26.8858 L 371.405 26.8858 L 371.405 28.4492 L 371.354 28.8123 L 371.208 29.0746 L 370.981 29.236 L 370.684 29.2864 L 370.446 29.246 L 370.295 29.125 L 370.209 28.9182 L 370.189 28.6257 L 370.189 26.8858 L 369.745 26.8858 L 369.745 28.6661 L 369.761 29.0241 L 369.856 29.3217 L 370.149 29.594 L 370.618 29.6898 L 370.87 29.6545 L 371.087 29.5638 L 371.274 29.4074 L 371.425 29.1805 L 371.425 29.594 L 371.848 29.594 L 371.848 26.8858 L 371.848 26.8858 z M 374.405 29.241 L 374.405 29.2561 L 374.431 29.4276 L 374.506 29.5486 L 374.824 29.6445 L 375.071 29.6041 L 375.071 29.2612 L 374.965 29.2763 L 374.824 29.2107 L 374.799 29.009 L 374.799 27.607 L 374.738 27.2489 L 374.562 26.9968 L 374.254 26.8455 L 373.82 26.79 L 373.397 26.8505 L 373.084 27.022 L 372.887 27.2893 L 372.822 27.6423 L 372.822 27.6725 L 373.22 27.6725 L 373.256 27.4607 L 373.367 27.3094 L 373.548 27.2187 L 373.805 27.1833 L 374.052 27.2086 L 374.229 27.2842 L 374.335 27.4153 L 374.37 27.5969 L 374.35 27.8087 L 374.269 27.9146 L 374.068 27.9651 L 373.689 28.0054 L 373.256 28.0962 L 372.948 28.2576 L 372.766 28.5097 L 372.711 28.8829 L 372.761 29.2158 L 372.918 29.4629 L 373.17 29.6192 L 373.518 29.6747 L 373.987 29.5688 L 374.405 29.241 L 374.405 29.241 z M 374.355 28.6459 L 374.294 28.9081 L 374.133 29.1099 L 373.891 29.241 L 373.593 29.2864 L 373.402 29.2612 L 373.266 29.1805 L 373.18 29.0393 L 373.155 28.8426 L 373.175 28.6661 L 373.256 28.54 L 373.578 28.3988 L 373.987 28.3383 L 374.355 28.2172 L 374.355 28.6459 L 374.355 28.6459 z M 375.833 29.594 L 376.276 29.594 L 376.276 28.0306 L 376.322 27.6725 L 376.468 27.4103 L 376.695 27.2489 L 376.998 27.1884 L 377.24 27.2388 L 377.391 27.375 L 377.467 27.602 L 377.492 27.9045 L 377.492 29.594 L 377.936 29.594 L 377.936 27.8138 L 377.916 27.4557 L 377.825 27.1581 L 377.527 26.8858 L 377.063 26.79 L 376.806 26.8253 L 376.589 26.9211 L 376.403 27.0825 L 376.256 27.2993 L 376.256 26.8858 L 375.833 26.8858 L 375.833 29.594 L 375.833 29.594 z M 379.464 27.3548 L 379.464 28.7115 L 379.494 29.1502 L 379.635 29.4528 L 379.918 29.6293 L 380.397 29.6898 L 380.921 29.6646 L 380.921 29.2813 L 380.538 29.3116 L 380.19 29.2713 L 380.003 29.1452 L 379.923 28.9333 L 379.908 28.6358 L 379.908 27.3548 L 380.921 27.3548 L 380.921 26.9766 L 379.908 26.9766 L 379.908 26.1848 L 379.464 26.1848 L 379.464 26.9766 L 378.697 26.9766 L 378.697 27.3548 L 379.464 27.3548 L 379.464 27.3548 z M 383.261 29.2208 L 383.261 26.9766 L 382.122 26.9766 L 382.122 27.3548 L 382.818 27.3548 L 382.818 29.2208 L 381.91 29.2208 L 381.91 29.594 L 384.179 29.594 L 384.179 29.2208 L 383.261 29.2208 L 383.261 29.2208 z M 383.277 25.973 L 382.807 25.973 L 382.807 26.4773 L 383.277 26.4773 L 383.277 25.973 L 383.277 25.973 z M 385.536 27.3548 L 385.536 28.7115 L 385.566 29.1502 L 385.707 29.4528 L 385.99 29.6293 L 386.469 29.6898 L 386.993 29.6646 L 386.993 29.2813 L 386.61 29.3116 L 386.262 29.2713 L 386.076 29.1452 L 385.995 28.9333 L 385.98 28.6358 L 385.98 27.3548 L 386.993 27.3548 L 386.993 26.9766 L 385.98 26.9766 L 385.98 26.1848 L 385.536 26.1848 L 385.536 26.9766 L 384.769 26.9766 L 384.769 27.3548 L 385.536 27.3548 L 385.536 27.3548 z M 388.673 26.5176 L 388.97 26.5176 L 389.671 25.6603 L 389.177 25.6603 L 388.673 26.5176 L 388.673 26.5176 z M 388.365 28.3685 L 390.14 28.3685 L 390.145 28.1617 L 390.065 27.5818 L 389.843 27.148 L 389.49 26.8858 L 389.021 26.79 L 388.562 26.8908 L 388.209 27.1733 L 387.982 27.6322 L 387.901 28.2374 L 387.977 28.8577 L 388.204 29.3116 L 388.552 29.594 L 389.006 29.6898 L 389.399 29.6243 L 389.722 29.4528 L 389.959 29.1805 L 390.095 28.8174 L 389.656 28.8174 L 389.565 29.0191 L 389.434 29.1704 L 389.061 29.2914 L 388.774 29.236 L 388.557 29.0594 L 388.416 28.772 L 388.365 28.3836 L 388.365 28.3685 L 388.365 28.3685 z M 388.365 27.9953 L 388.421 27.6473 L 388.557 27.3901 L 388.764 27.2338 L 389.036 27.1783 L 389.303 27.2338 L 389.51 27.3901 L 389.636 27.6473 L 389.681 27.9953 L 388.365 27.9953 L 388.365 27.9953 z M 393.862 29.594 L 396.268 29.594 L 396.268 29.1603 L 394.367 29.1603 L 394.473 28.9233 L 394.654 28.7266 L 395.214 28.3685 L 395.511 28.2172 L 395.844 28.0004 L 396.081 27.7482 L 396.218 27.4507 L 396.268 27.1128 L 396.182 26.6891 L 395.945 26.3563 L 395.582 26.1444 L 395.113 26.0688 L 394.629 26.1545 L 394.261 26.3916 L 394.024 26.7698 L 393.943 27.2691 L 393.943 27.3397 L 394.402 27.3397 L 394.402 27.2993 L 394.447 26.9564 L 394.583 26.7043 L 394.8 26.5429 L 395.088 26.4874 L 395.38 26.5378 L 395.597 26.6639 L 395.738 26.8606 L 395.789 27.1077 L 395.754 27.3397 L 395.658 27.5364 L 395.496 27.7079 L 395.274 27.8592 L 394.977 28.0205 L 394.483 28.3332 L 394.135 28.6661 L 393.928 29.0695 L 393.862 29.5789 L 393.862 29.594 L 393.862 29.594 z" stroke="none" fill-rule="evenodd" fill="rgb(0, 0, 0)"/></g></svg>