<?xml version="1.0" encoding="utf-8" ?><!DOCTYPE svg PUBLIC "-//W3C//DTD SVG 1.1//EN" "http://www.w3.org/Graphics/SVG/1.1/DTD/svg11.dtd" 
[ <!ATTLIST svg 
  xmlns:dsy CDATA #FIXED "http://www.3ds.com/print"  
    dsy:text-version CDATA #IMPLIED > 

  <!ATTLIST text 
  xmlns:dsy CDATA #FIXED "http://www.3ds.com/print" 
    dsy:text-version CDATA #IMPLIED > 
]><svg xmlns="http://www.w3.org/2000/svg" xmlns:dsy="http://www.3ds.com/print" dsy:text-version="18000" width="594" height="420" viewBox="0 0 594 420" version="1.1"><g stroke="rgb(0, 0, 0)" stroke-width="0.35" stroke-linecap="butt" stroke-linejoin="miter" fill="none"><path d="M 179.847 363.293 L 179.847 357.293"/><path d="M 179.847 363.293 L 173.847 363.293"/><path d="M 161.225 357.293 L 164.536 357.293"/><path d="M 164.536 363.293 L 164.536 357.293"/><path d="M 170.536 363.293 L 164.536 363.293"/><path d="M 170.536 363.293 L 170.536 357.293"/><path d="M 170.536 357.293 L 173.847 357.293"/><path d="M 173.847 363.293 L 173.847 357.293"/><path d="M 155.225 363.293 L 155.225 357.293"/><path d="M 161.225 363.293 L 155.225 363.293"/><path d="M 161.225 363.293 L 161.225 357.293"/><path d="M 179.847 346.293 L 179.847 340.293"/><path d="M 179.847 340.293 L 173.847 340.293"/><path d="M 155.225 346.293 L 155.225 340.293"/><path d="M 161.225 340.293 L 155.225 340.293"/><path d="M 161.225 346.293 L 161.225 340.293"/><path d="M 161.225 346.293 L 164.536 346.293"/><path d="M 164.536 346.293 L 164.536 340.293"/><path d="M 170.536 340.293 L 164.536 340.293"/><path d="M 170.536 346.293 L 170.536 340.293"/><path d="M 170.536 346.293 L 173.847 346.293"/><path d="M 173.847 346.293 L 173.847 340.293"/><path d="M 148.913 357.293 L 148.913 346.293"/><path d="M 188.286 357.293 L 188.286 346.293"/><path d="M 179.847 357.293 L 188.286 357.293"/><path d="M 179.847 346.293 L 188.286 346.293"/><path d="M 148.913 346.293 L 155.225 346.293"/><path d="M 148.913 357.293 L 155.225 357.293"/><path d="M 230.473 236.289 L 258.715 175.723"/><path d="M 225.473 223.97 L 225.473 229.97"/><path d="M 225.473 214.651 L 225.473 220.651"/><path d="M 225.473 205.331 L 225.473 211.331"/><path d="M 225.473 196.012 L 225.473 202.012"/><path d="M 137.973 114.289 A 76 76 0 0 0 169.23 175.723"/><path d="M 225.473 229.97 L 219.473 229.97"/><path d="M 219.473 223.97 L 219.473 229.97"/><path d="M 219.473 223.97 L 225.473 223.97"/><path d="M 225.473 220.651 L 219.473 220.651"/><path d="M 219.473 214.651 L 219.473 220.651"/><path d="M 219.473 214.651 L 225.473 214.651"/><path d="M 225.473 211.331 L 219.473 211.331"/><path d="M 219.473 205.331 L 219.473 211.331"/><path d="M 219.473 205.331 L 225.473 205.331"/><path d="M 225.473 202.012 L 219.473 202.012"/><path d="M 219.473 196.012 L 219.473 202.012"/><path d="M 219.473 196.012 L 225.473 196.012"/><path d="M 258.715 175.723 A 76 76 0 0 0 289.973 114.289"/><path d="M 289.973 14.289 L 289.973 114.289"/><path d="M 249.973 14.289 L 289.973 14.289"/><path d="M 249.973 114.289 L 249.973 14.289"/><path d="M 177.973 114.289 A 36 36 0 1 0 249.973 114.289"/><path d="M 177.973 14.289 L 177.973 114.289"/><path d="M 137.973 14.289 L 177.973 14.289"/><path d="M 137.973 114.289 L 137.973 14.289"/><path d="M 208.473 202.012 L 202.473 202.012"/><path d="M 202.473 196.012 L 202.473 202.012"/><path d="M 202.473 196.012 L 208.473 196.012"/><path d="M 208.473 196.012 L 208.473 202.012"/><path d="M 208.473 223.97 L 208.473 229.97"/><path d="M 208.473 229.97 L 202.473 229.97"/><path d="M 202.473 223.97 L 202.473 229.97"/><path d="M 202.473 223.97 L 208.473 223.97"/><path d="M 208.473 220.651 L 202.473 220.651"/><path d="M 202.473 214.651 L 202.473 220.651"/><path d="M 202.473 214.651 L 208.473 214.651"/><path d="M 208.473 214.651 L 208.473 220.651"/><path d="M 208.473 205.331 L 208.473 211.331"/><path d="M 208.473 211.331 L 202.473 211.331"/><path d="M 202.473 205.331 L 202.473 211.331"/><path d="M 202.473 205.331 L 208.473 205.331"/><path d="M 230.473 236.289 L 197.473 236.289"/><path d="M 197.473 236.289 L 169.23 175.723"/><path d="M 194.349 312.96 L 194.349 307.96"/><path d="M 200.349 312.96 L 194.349 312.96"/><path d="M 178.892 307.96 L 194.349 307.96"/><path d="M 114.523 307.96 L 129.979 307.96"/><path d="M 129.979 312.96 L 129.979 307.96"/><path d="M 135.979 312.96 L 129.979 312.96"/><path d="M 135.979 312.96 L 135.979 307.96"/><path d="M 135.979 307.96 L 151.436 307.96"/><path d="M 151.436 312.96 L 151.436 307.96"/><path d="M 157.436 312.96 L 151.436 312.96"/><path d="M 157.436 312.96 L 157.436 307.96"/><path d="M 157.436 307.96 L 172.892 307.96"/><path d="M 172.892 312.96 L 172.892 307.96"/><path d="M 178.892 312.96 L 172.892 312.96"/><path d="M 178.892 312.96 L 178.892 307.96"/><path d="M 200.349 312.96 L 200.349 307.96"/><path d="M 200.349 307.96 L 215.806 307.96"/><path d="M 215.806 312.96 L 215.806 307.96"/><path d="M 221.806 312.96 L 215.806 312.96"/><path d="M 221.806 312.96 L 221.806 307.96"/><path d="M 221.806 307.96 L 237.262 307.96"/><path d="M 237.262 312.96 L 237.262 307.96"/><path d="M 243.262 312.96 L 237.262 312.96"/><path d="M 243.262 312.96 L 243.262 307.96"/><path d="M 108.523 312.96 L 108.523 307.96"/><path d="M 114.523 312.96 L 108.523 312.96"/><path d="M 114.523 312.96 L 114.523 307.96"/><path d="M 194.349 296.96 L 194.349 291.96"/><path d="M 178.892 296.96 L 194.349 296.96"/><path d="M 200.349 291.96 L 194.349 291.96"/><path d="M 178.892 296.96 L 178.892 291.96"/><path d="M 221.806 296.96 L 237.262 296.96"/><path d="M 221.806 296.96 L 221.806 291.96"/><path d="M 221.806 291.96 L 215.806 291.96"/><path d="M 215.806 296.96 L 215.806 291.96"/><path d="M 200.349 296.96 L 215.806 296.96"/><path d="M 200.349 296.96 L 200.349 291.96"/><path d="M 178.892 291.96 L 172.892 291.96"/><path d="M 172.892 296.96 L 172.892 291.96"/><path d="M 157.436 296.96 L 172.892 296.96"/><path d="M 157.436 296.96 L 157.436 291.96"/><path d="M 157.436 291.96 L 151.436 291.96"/><path d="M 151.436 296.96 L 151.436 291.96"/><path d="M 135.979 296.96 L 151.436 296.96"/><path d="M 135.979 296.96 L 135.979 291.96"/><path d="M 135.979 291.96 L 129.979 291.96"/><path d="M 129.979 296.96 L 129.979 291.96"/><path d="M 114.523 296.96 L 129.979 296.96"/><path d="M 114.523 296.96 L 114.523 291.96"/><path d="M 114.523 291.96 L 108.523 291.96"/><path d="M 108.523 296.96 L 108.523 291.96"/><path d="M 243.262 296.96 L 243.262 291.96"/><path d="M 243.262 291.96 L 237.262 291.96"/><path d="M 237.262 296.96 L 237.262 291.96"/><path d="M 243.262 307.96 L 261.719 307.96"/><path d="M 261.719 307.96 L 261.719 296.96"/><path d="M 243.262 296.96 L 261.719 296.96"/><path d="M 90.066 296.96 L 108.523 296.96"/><path d="M 90.066 307.96 L 90.066 296.96"/><path d="M 90.066 307.96 L 108.523 307.96"/><path d="M 330.18 205.797 L 330.18 199.797"/><path d="M 336.18 205.797 L 330.18 205.797"/><path d="M 336.18 199.797 L 336.18 205.797"/><path d="M 309.816 191.358 L 309.816 207.869"/><path d="M 269.816 247.869 A 40 40 0 0 0 309.816 207.869"/><path d="M 269.816 247.869 L 156.816 247.869"/><path d="M 116.816 207.869 A 40 40 0 0 0 156.816 247.869"/><path d="M 116.816 207.869 L 116.816 193.485"/><path d="M 116.816 193.485 L 116.816 53.4853"/><path d="M 116.816 53.4853 L 86.8156 53.4853"/><path d="M 86.8156 53.4853 L 86.8156 193.485"/><path d="M 86.8156 193.485 L 86.8156 227.869"/><path d="M 86.8156 227.869 A 50 50 0 0 0 136.816 277.869"/><path d="M 136.816 277.869 L 296.544 277.869"/><path d="M 296.544 277.869 A 60 60 0 0 0 356.544 217.869"/><path d="M 356.544 217.869 L 356.544 191.358"/><path d="M 330.18 199.797 L 336.18 199.797"/><path d="M 153.846 265.869 L 147.846 265.869"/><path d="M 147.846 265.869 L 147.846 259.869"/><path d="M 153.846 259.869 L 153.846 265.869"/><path d="M 147.846 259.869 L 153.846 259.869"/><path d="M 336.18 215.108 L 330.18 215.108"/><path d="M 330.18 215.108 L 330.18 209.108"/><path d="M 336.18 209.108 L 336.18 215.108"/><path d="M 330.18 209.108 L 336.18 209.108"/><path d="M 336.18 224.419 L 330.18 224.419"/><path d="M 330.18 224.419 L 330.18 218.419"/><path d="M 336.18 218.419 L 336.18 224.419"/><path d="M 330.18 218.419 L 336.18 218.419"/><path d="M 175.302 265.869 L 169.302 265.869"/><path d="M 169.302 265.869 L 169.302 259.869"/><path d="M 175.302 259.869 L 175.302 265.869"/><path d="M 169.302 259.869 L 175.302 259.869"/><path d="M 196.759 265.869 L 190.759 265.869"/><path d="M 190.759 265.869 L 190.759 259.869"/><path d="M 196.759 259.869 L 196.759 265.869"/><path d="M 190.759 259.869 L 196.759 259.869"/><path d="M 218.216 265.869 L 212.216 265.869"/><path d="M 212.216 265.869 L 212.216 259.869"/><path d="M 218.216 259.869 L 218.216 265.869"/><path d="M 212.216 259.869 L 218.216 259.869"/><path d="M 239.672 265.869 L 233.672 265.869"/><path d="M 233.672 265.869 L 233.672 259.869"/><path d="M 239.672 259.869 L 239.672 265.869"/><path d="M 233.672 259.869 L 239.672 259.869"/><path d="M 261.129 265.869 L 255.129 265.869"/><path d="M 255.129 265.869 L 255.129 259.869"/><path d="M 261.129 259.869 L 261.129 265.869"/><path d="M 255.129 259.869 L 261.129 259.869"/><path d="M 282.585 265.869 L 276.585 265.869"/><path d="M 276.585 265.869 L 276.585 259.869"/><path d="M 282.585 259.869 L 282.585 265.869"/><path d="M 276.585 259.869 L 282.585 259.869"/><path d="M 316.135 191.358 L 309.816 191.358"/><path d="M 316.135 186.358 L 316.135 191.358"/><path d="M 316.135 186.358 L 322.135 186.358"/><path d="M 322.135 191.358 L 322.135 186.358"/><path d="M 325.454 191.358 L 322.135 191.358"/><path d="M 325.454 186.358 L 325.454 191.358"/><path d="M 325.454 186.358 L 331.454 186.358"/><path d="M 331.454 191.358 L 331.454 186.358"/><path d="M 334.773 191.358 L 331.454 191.358"/><path d="M 334.773 186.358 L 334.773 191.358"/><path d="M 334.773 186.358 L 340.773 186.358"/><path d="M 340.773 191.358 L 340.773 186.358"/><path d="M 344.092 191.358 L 340.773 191.358"/><path d="M 344.092 186.358 L 344.092 191.358"/><path d="M 344.092 186.358 L 350.092 186.358"/><path d="M 350.092 191.358 L 350.092 186.358"/><path d="M 356.544 191.358 L 350.092 191.358"/><path d="M 280.705 332.228 L 280.705 326.228"/><path d="M 286.705 332.228 L 280.705 332.228"/><path d="M 286.705 326.228 L 286.705 332.228"/><path d="M 260.34 317.789 L 260.34 334.301"/><path d="M 220.34 374.301 A 40 40 0 0 0 260.34 334.301"/><path d="M 220.34 374.301 L 107.34 374.301"/><path d="M 67.3403 334.301 A 40 40 0 0 0 107.34 374.301"/><path d="M 67.3402 334.301 L 67.3402 319.917"/><path d="M 67.3402 319.917 L 67.3402 179.917"/><path d="M 67.3402 179.917 L 37.3402 179.917"/><path d="M 37.3402 179.917 L 37.3402 319.917"/><path d="M 37.3402 319.917 L 37.3402 354.301"/><path d="M 37.3403 354.301 A 50 50 0 0 0 87.3402 404.301"/><path d="M 87.3402 404.301 L 247.069 404.301"/><path d="M 247.069 404.301 A 60 60 0 0 0 307.069 344.301"/><path d="M 307.069 344.301 L 307.069 317.789"/><path d="M 280.705 326.228 L 286.705 326.228"/><path d="M 104.37 392.301 L 98.3704 392.301"/><path d="M 98.3704 392.301 L 98.3704 386.301"/><path d="M 104.37 386.301 L 104.37 392.301"/><path d="M 98.3704 386.301 L 104.37 386.301"/><path d="M 286.705 341.54 L 280.705 341.54"/><path d="M 280.705 341.54 L 280.705 335.54"/><path d="M 286.705 335.54 L 286.705 341.54"/><path d="M 280.705 335.54 L 286.705 335.54"/><path d="M 286.705 350.851 L 280.705 350.851"/><path d="M 280.705 350.851 L 280.705 344.851"/><path d="M 286.705 344.851 L 286.705 350.851"/><path d="M 280.705 344.851 L 286.705 344.851"/><path d="M 125.827 392.301 L 119.827 392.301"/><path d="M 119.827 392.301 L 119.827 386.301"/><path d="M 125.827 386.301 L 125.827 392.301"/><path d="M 119.827 386.301 L 125.827 386.301"/><path d="M 147.284 392.301 L 141.284 392.301"/><path d="M 141.284 392.301 L 141.284 386.301"/><path d="M 147.284 386.301 L 147.284 392.301"/><path d="M 141.284 386.301 L 147.284 386.301"/><path d="M 168.74 392.301 L 162.74 392.301"/><path d="M 162.74 392.301 L 162.74 386.301"/><path d="M 168.74 386.301 L 168.74 392.301"/><path d="M 162.74 386.301 L 168.74 386.301"/><path d="M 190.197 392.301 L 184.197 392.301"/><path d="M 184.197 392.301 L 184.197 386.301"/><path d="M 190.197 386.301 L 190.197 392.301"/><path d="M 184.197 386.301 L 190.197 386.301"/><path d="M 211.653 392.301 L 205.653 392.301"/><path d="M 205.653 392.301 L 205.653 386.301"/><path d="M 211.653 386.301 L 211.653 392.301"/><path d="M 205.653 386.301 L 211.653 386.301"/><path d="M 233.11 392.301 L 227.11 392.301"/><path d="M 227.11 392.301 L 227.11 386.301"/><path d="M 233.11 386.301 L 233.11 392.301"/><path d="M 227.11 386.301 L 233.11 386.301"/><path d="M 266.659 317.789 L 260.34 317.789"/><path d="M 266.659 312.789 L 266.659 317.789"/><path d="M 266.659 312.789 L 272.659 312.789"/><path d="M 272.659 317.789 L 272.659 312.789"/><path d="M 275.979 317.789 L 272.659 317.789"/><path d="M 275.979 312.789 L 275.979 317.789"/><path d="M 275.979 312.789 L 281.979 312.789"/><path d="M 281.979 317.789 L 281.979 312.789"/><path d="M 285.298 317.789 L 281.979 317.789"/><path d="M 285.298 312.789 L 285.298 317.789"/><path d="M 285.298 312.789 L 291.298 312.789"/><path d="M 291.298 317.789 L 291.298 312.789"/><path d="M 294.617 317.789 L 291.298 317.789"/><path d="M 294.617 312.789 L 294.617 317.789"/><path d="M 294.617 312.789 L 300.617 312.789"/><path d="M 300.617 317.789 L 300.617 312.789"/><path d="M 307.069 317.789 L 300.617 317.789"/><path d="M 390.71 177.547 A 8 8 0 0 0 379.687 186.388"/><path d="M 390.71 177.547 A 42 42 0 0 0 430.84 173.767"/><path d="M 443.32 180.395 A 8 8 0 0 0 430.84 173.767"/><path d="M 443.32 180.395 L 443.32 230.886"/><path d="M 435.32 238.886 A 8 8 0 0 0 443.32 230.886"/><path d="M 396.287 238.886 L 435.32 238.886"/><path d="M 388.428 232.379 A 8 8 0 0 0 396.287 238.886"/><path d="M 379.687 186.388 L 388.428 232.379"/><path d="M 444.32 73.7579 A 16 16 0 0 0 428.32 57.7579"/><path d="M 428.32 57.7579 L 393.256 57.7579"/><path d="M 444.32 73.7579 L 444.32 98.2399"/><path d="M 431.68 104.757 A 8 8 0 0 0 444.32 98.2399"/><path d="M 431.68 104.757 A 42 42 0 0 0 386.783 102.334"/><path d="M 374.918 94.4947 A 8 8 0 0 0 386.783 102.334"/><path d="M 377.349 72.036 L 374.918 94.4947"/><path d="M 393.256 57.7579 A 16 16 0 0 0 377.349 72.036"/><path d="M 510.623 227.227 L 487.406 191.579"/><path d="M 487.406 191.579 A 8 8 0 0 0 472.838 194.479"/><path d="M 472.838 194.479 L 466.195 230.127"/><path d="M 466.195 230.127 A 8 8 0 0 0 474.06 239.593"/><path d="M 474.06 239.593 L 503.919 239.593"/><path d="M 503.919 239.593 A 8 8 0 0 0 510.623 227.227"/><path d="M 538.154 201.471 A 8 8 0 0 0 528.417 191.106"/><path d="M 509.759 192.112 A 42 42 0 0 0 528.417 191.106"/><path d="M 509.759 192.112 A 8 8 0 0 0 501.698 204.361"/><path d="M 515.808 226.026 L 501.698 204.361"/><path d="M 515.808 226.026 A 8 8 0 0 0 530.052 224.332"/><path d="M 530.052 224.332 L 538.154 201.471"/><path d="M 481.324 70.6227 A 8 8 0 0 0 473.366 79.4409"/><path d="M 473.366 79.4409 L 476.837 113.195"/><path d="M 476.837 113.195 A 8 8 0 0 0 489.93 118.512"/><path d="M 534.094 112.408 A 42 42 0 0 0 489.93 118.512"/><path d="M 534.094 112.408 A 8 8 0 0 0 545.254 103.739"/><path d="M 540.646 77.2516 L 545.254 103.739"/><path d="M 540.646 77.2516 A 8 8 0 0 0 532.764 70.6227"/><path d="M 481.324 70.6227 L 532.764 70.6227"/></g></svg>