<?xml version="1.0" encoding="utf-8" ?><!DOCTYPE svg PUBLIC "-//W3C//DTD SVG 1.1//EN" "http://www.w3.org/Graphics/SVG/1.1/DTD/svg11.dtd" 
[ <!ATTLIST svg 
  xmlns:dsy CDATA #FIXED "http://www.3ds.com/print"  
    dsy:text-version CDATA #IMPLIED > 

  <!ATTLIST text 
  xmlns:dsy CDATA #FIXED "http://www.3ds.com/print" 
    dsy:text-version CDATA #IMPLIED > 
]><svg xmlns="http://www.w3.org/2000/svg" xmlns:dsy="http://www.3ds.com/print" dsy:text-version="18000" width="420" height="297" viewBox="0 0 420 297" version="1.1"><g stroke="rgb(0, 0, 0)" stroke-width="0.13" stroke-linecap="butt" stroke-linejoin="miter" fill="none"><path d="M 220.078 130.148 L 230.782 130.148"/><path d="M 220.078 10.1481 L 230.782 10.1481"/></g><g stroke="rgb(0, 0, 0)" stroke-width="0.35" stroke-linecap="butt" stroke-linejoin="miter" fill="none"><path d="M 54.8594 239.3 L 4.29372 239.3"/><path d="M 4.29372 76.425 L 4.29372 239.3"/><path d="M 54.8594 74.0736 L 4.29372 76.425"/><path d="M 54.8594 74.0736 L 54.8594 124.3"/><path d="M 54.8594 124.3 L 54.8594 239.3"/><path d="M 32.7684 82.4176 L 27.8937 122.119"/><path d="M 29.7908 82.052 L 32.7684 82.4176"/><path d="M 24.916 121.754 L 29.7908 82.052"/><path d="M 27.8937 122.119 L 24.916 121.754"/><path d="M 25.4563 141.97 L 20.5815 181.672"/><path d="M 22.4786 141.605 L 25.4563 141.97"/><path d="M 17.6039 181.307 L 22.4786 141.605"/><path d="M 20.5815 181.672 L 17.6039 181.307"/><path d="M 40.7189 229.934 L 37.7189 229.934"/><path d="M 40.7189 229.934 L 40.7189 189.934"/><path d="M 37.7189 189.934 L 40.7189 189.934"/><path d="M 37.7189 189.934 L 37.7189 229.934"/><path d="M 37.7189 129.934 L 40.7189 129.934"/><path d="M 37.7189 129.934 L 37.7189 169.934"/><path d="M 40.7189 169.934 L 37.7189 169.934"/><path d="M 40.7189 169.934 L 40.7189 129.934"/><path d="M 196.408 217.087 L 136.615 280.138"/><path d="M 118.666 280.138 L 136.615 280.138"/><path d="M 18.6663 290.138 L 18.6663 263.057"/><path d="M 18.6663 290.138 L 58.6663 290.138"/><path d="M 58.6663 290.138 L 58.6663 280.138"/><path d="M 58.6663 280.138 L 78.6663 280.138"/><path d="M 78.6663 280.138 L 78.6663 290.138"/><path d="M 78.6663 290.138 L 118.666 290.138"/><path d="M 122.999 154.238 L 159.703 133.992"/><path d="M 108.232 225.101 L 122.999 154.238"/><path d="M 18.6663 263.057 L 108.232 225.101"/><path d="M 136.522 204.025 L 156.522 204.025"/><path d="M 136.522 207.025 L 136.522 204.025"/><path d="M 156.522 207.025 L 136.522 207.025"/><path d="M 156.522 204.025 L 156.522 207.025"/><path d="M 166.522 204.025 L 186.522 204.025"/><path d="M 166.522 207.025 L 166.522 204.025"/><path d="M 186.522 207.025 L 166.522 207.025"/><path d="M 186.522 204.025 L 186.522 207.025"/><path d="M 136.522 159.025 L 156.522 159.025"/><path d="M 136.522 162.025 L 136.522 159.025"/><path d="M 156.522 162.025 L 136.522 162.025"/><path d="M 156.522 159.025 L 156.522 162.025"/><path d="M 166.522 159.025 L 186.522 159.025"/><path d="M 166.522 162.025 L 166.522 159.025"/><path d="M 186.522 162.025 L 166.522 162.025"/><path d="M 186.522 159.025 L 186.522 162.025"/><path d="M 159.703 133.992 L 198.518 154.238"/><path d="M 118.666 290.138 L 118.666 280.138"/><path d="M 198.518 154.238 L 196.408 217.087"/><path d="M 57.3475 221.205 L 77.3475 221.205"/><path d="M 77.3475 221.205 L 77.3475 212.705"/><path d="M 77.3475 212.705 L 87.3475 212.705"/><path d="M 87.3475 212.705 L 87.3475 221.205"/><path d="M 87.3475 221.205 L 107.347 221.205"/><path d="M 107.347 221.205 L 107.347 161.205"/><path d="M 107.347 161.205 L 97.3475 161.205"/><path d="M 67.3475 161.205 A 15 15 0 1 0 97.3475 161.205"/><path d="M 67.3475 161.205 L 57.3475 161.205"/><path d="M 57.3475 161.205 L 57.3475 221.205"/><path d="M 6.44111 67.6097 L 26.4411 67.6097"/><path d="M 26.4411 67.6097 L 26.4411 59.1097"/><path d="M 26.4411 59.1097 L 36.4411 59.1097"/><path d="M 36.4411 59.1097 L 36.4411 67.6097"/><path d="M 36.4411 67.6097 L 56.4411 67.6097"/><path d="M 56.4411 67.6097 L 56.4411 7.60968"/><path d="M 56.4411 7.60968 L 46.4411 7.60968"/><path d="M 16.4411 7.60968 A 15 15 0 1 0 46.4411 7.60968"/><path d="M 16.4411 7.60968 L 6.44111 7.60968"/><path d="M 6.44111 7.60968 L 6.44111 67.6097"/><path d="M 101.454 115.643 L 99.8064 116.549"/><path d="M 99.8064 116.549 L 99.8064 130.186"/><path d="M 99.8064 110.186 L 99.8064 112.645"/><path d="M 99.8064 110.186 L 98.4547 110.186"/><path d="M 91.8194 98.1166 L 98.4547 110.186"/><path d="M 89.1905 99.5618 L 91.8194 98.1166"/><path d="M 96.8064 113.415 L 89.1905 99.5618"/><path d="M 96.8064 130.186 L 96.8064 113.415"/><path d="M 96.8064 130.186 L 99.8064 130.186"/><path d="M 99.8064 80.1862 L 99.8064 100.186"/><path d="M 99.8064 80.1862 L 96.8064 80.1862"/><path d="M 96.8064 100.186 L 96.8064 80.1862"/><path d="M 96.8064 100.186 L 99.8064 100.186"/><path d="M 84.3729 90.7988 L 74.7378 73.2726"/><path d="M 87.0018 89.3535 L 84.3729 90.7988"/><path d="M 77.3668 71.8274 L 87.0018 89.3535"/><path d="M 74.7378 73.2726 L 77.3668 71.8274"/><path d="M 118.005 150.186 L 164.014 18.1611"/><path d="M 64.0143 150.186 L 118.005 150.186"/><path d="M 64.0143 120.186 L 64.0143 150.186"/><path d="M 64.0143 120.186 A 15 15 0 0 0 64.0143 90.1862"/><path d="M 64.0143 19.1862 L 64.0143 90.1862"/><path d="M 64.0143 9.18622 L 64.0143 19.1862"/><path d="M 104.014 9.18622 L 64.0143 9.18622"/><path d="M 104.014 19.1862 L 104.014 9.18622"/><path d="M 124.014 19.1862 L 104.014 19.1862"/><path d="M 124.014 9.18622 L 124.014 19.1862"/><path d="M 164.014 9.18622 L 124.014 9.18622"/><path d="M 164.014 18.1611 L 164.014 9.18622"/><path d="M 99.8064 112.645 L 101.454 115.643"/><circle cx="227.792" cy="205.92" r="7.5"/><path d="M 250.984 286.52 L 230.984 286.52"/><path d="M 230.984 286.52 L 230.984 276.52"/><path d="M 230.984 276.52 L 220.984 276.52"/><path d="M 220.984 276.52 L 220.984 286.52"/><path d="M 220.984 286.52 L 200.984 286.52"/><path d="M 200.984 286.52 L 200.984 190.92"/><path d="M 200.984 190.92 L 250.984 190.92"/><path d="M 250.984 190.92 L 250.984 286.52"/><path d="M 218.078 130.148 L 198.078 130.148"/><path d="M 198.078 130.148 L 198.078 120.148"/><path d="M 198.078 120.148 L 188.078 120.148"/><path d="M 188.078 120.148 L 188.078 130.148"/><path d="M 188.078 130.148 L 168.078 130.148"/><path d="M 168.078 130.148 L 168.078 10.1481"/><path d="M 168.078 10.1481 L 218.078 10.1481"/><path d="M 218.078 10.1481 L 218.078 130.148"/><path d="M 185.578 17.1481 L 185.578 32.1481"/><path d="M 185.578 32.1481 L 200.578 32.1481"/><path d="M 200.578 32.1481 L 200.578 17.1481"/><path d="M 200.578 17.1481 L 185.578 17.1481"/></g><g stroke="rgb(0, 0, 0)" stroke-width="0.13" stroke-linecap="butt" stroke-linejoin="miter" fill="none"><path d="M 226.782 73.9749 L 226.782 73.5159 L 223.257 73.5159 L 223.257 73.8589 L 223.565 73.9496 L 223.771 74.1312 L 223.892 74.4086 L 223.933 74.7919 L 224.291 74.7919 L 224.291 73.9749 L 226.782 73.9749 L 226.782 73.9749 z M 226.782 71.3786 L 226.782 68.973 L 226.349 68.973 L 226.349 70.8743 L 226.112 70.7684 L 225.915 70.5868 L 225.557 70.027 L 225.405 69.7295 L 225.189 69.3966 L 224.936 69.1596 L 224.639 69.0234 L 224.301 68.973 L 223.877 69.0587 L 223.545 69.2958 L 223.333 69.6589 L 223.257 70.1279 L 223.343 70.612 L 223.58 70.9802 L 223.958 71.2172 L 224.457 71.2979 L 224.528 71.2979 L 224.528 70.839 L 224.488 70.839 L 224.145 70.7936 L 223.892 70.6574 L 223.731 70.4406 L 223.676 70.1531 L 223.726 69.8606 L 223.852 69.6437 L 224.049 69.5025 L 224.296 69.4521 L 224.528 69.4874 L 224.725 69.5832 L 224.896 69.7446 L 225.047 69.9665 L 225.209 70.2641 L 225.521 70.7583 L 225.854 71.1063 L 226.258 71.313 L 226.767 71.3786 L 226.782 71.3786 L 226.782 71.3786 z M 225.073 67.6275 L 225.864 67.5518 L 226.429 67.3148 L 226.772 66.9365 L 226.883 66.412 L 226.772 65.8926 L 226.429 65.5143 L 225.864 65.2824 L 225.073 65.2017 L 224.286 65.2824 L 223.973 65.3782 L 223.716 65.5143 L 223.373 65.8926 L 223.257 66.412 L 223.373 66.9365 L 223.721 67.3148 L 224.286 67.5518 L 225.073 67.6275 L 225.073 67.6275 z M 225.073 67.1433 L 224.462 67.103 L 224.024 66.9769 L 223.766 66.7499 L 223.676 66.412 L 223.766 66.0792 L 224.024 65.8522 L 224.462 65.7262 L 225.073 65.6858 L 225.688 65.7262 L 226.127 65.8522 L 226.384 66.0792 L 226.47 66.412 L 226.384 66.7499 L 226.127 66.9769 L 225.688 67.103 L 225.073 67.1433 L 225.073 67.1433 z" stroke="none" fill-rule="evenodd" fill="rgb(0, 0, 0)"/><path d="M 229.3 12.0799 L 228.782 10.1481 L 228.265 12.0799"/><path d="M 228.265 128.216 L 228.782 130.148 L 229.3 128.216"/><path d="M 228.782 130.148 L 228.782 10.1481"/></g></svg>