<?xml version="1.0" encoding="utf-8" ?><!DOCTYPE svg PUBLIC "-//W3C//DTD SVG 1.1//EN" "http://www.w3.org/Graphics/SVG/1.1/DTD/svg11.dtd" 
[ <!ATTLIST svg 
  xmlns:dsy CDATA #FIXED "http://www.3ds.com/print"  
    dsy:text-version CDATA #IMPLIED > 

  <!ATTLIST text 
  xmlns:dsy CDATA #FIXED "http://www.3ds.com/print" 
    dsy:text-version CDATA #IMPLIED > 
]><svg xmlns="http://www.w3.org/2000/svg" xmlns:dsy="http://www.3ds.com/print" dsy:text-version="18000" width="420" height="297" viewBox="0 0 420 297" version="1.1"><g stroke="rgb(0, 0, 0)" stroke-width="0.13" stroke-linecap="butt" stroke-linejoin="miter" fill="none"><path d="M 220.078 130.148 L 230.782 130.148"/><path d="M 220.078 10.1481 L 230.782 10.1481"/></g><g stroke="rgb(0, 0, 0)" stroke-width="0.35" stroke-linecap="butt" stroke-linejoin="miter" fill="none"><path d="M 54.8593 239.3 L 4.29371 239.3"/><path d="M 4.29371 76.425 L 4.29371 239.3"/><path d="M 54.8593 74.0736 L 4.29371 76.425"/><path d="M 54.8593 74.0736 L 54.8593 124.3"/><path d="M 54.8593 124.3 L 54.8593 239.3"/><path d="M 35.5476 82.7589 L 30.6728 122.461"/><path d="M 29.7908 82.052 L 35.5476 82.7589"/><path d="M 24.916 121.754 L 29.7908 82.052"/><path d="M 30.6728 122.461 L 24.916 121.754"/><path d="M 28.2354 142.312 L 23.3606 182.013"/><path d="M 22.4786 141.605 L 28.2354 142.312"/><path d="M 17.6039 181.307 L 22.4786 141.605"/><path d="M 23.3606 182.013 L 17.6039 181.307"/><path d="M 40.7188 229.934 L 34.9188 229.934"/><path d="M 40.7188 229.934 L 40.7188 189.934"/><path d="M 34.9188 189.934 L 40.7188 189.934"/><path d="M 34.9188 189.934 L 34.9188 229.934"/><path d="M 34.9188 129.934 L 40.7188 129.934"/><path d="M 34.9188 129.934 L 34.9188 169.934"/><path d="M 40.7188 169.934 L 34.9188 169.934"/><path d="M 40.7188 169.934 L 40.7188 129.934"/><path d="M 196.408 217.087 L 136.615 280.138"/><path d="M 118.666 280.138 L 136.615 280.138"/><path d="M 18.6662 290.138 L 18.6662 263.057"/><path d="M 18.6662 290.138 L 58.6662 290.138"/><path d="M 58.6662 290.138 L 58.6662 280.138"/><path d="M 58.6662 280.138 L 78.6662 280.138"/><path d="M 78.6662 280.138 L 78.6662 290.138"/><path d="M 78.6662 290.138 L 118.666 290.138"/><path d="M 122.998 154.238 L 159.703 133.992"/><path d="M 108.232 225.101 L 122.998 154.238"/><path d="M 18.6662 263.057 L 108.232 225.101"/><path d="M 136.522 204.025 L 156.522 204.025"/><path d="M 136.522 209.825 L 136.522 204.025"/><path d="M 156.522 209.825 L 136.522 209.825"/><path d="M 156.522 204.025 L 156.522 209.825"/><path d="M 166.522 204.025 L 186.522 204.025"/><path d="M 166.522 209.825 L 166.522 204.025"/><path d="M 186.522 209.825 L 166.522 209.825"/><path d="M 186.522 204.025 L 186.522 209.825"/><path d="M 136.522 159.025 L 156.522 159.025"/><path d="M 136.522 164.825 L 136.522 159.025"/><path d="M 156.522 164.825 L 136.522 164.825"/><path d="M 156.522 159.025 L 156.522 164.825"/><path d="M 166.522 159.025 L 186.522 159.025"/><path d="M 166.522 164.825 L 166.522 159.025"/><path d="M 186.522 164.825 L 166.522 164.825"/><path d="M 186.522 159.025 L 186.522 164.825"/><path d="M 159.703 133.992 L 198.518 154.238"/><path d="M 118.666 290.138 L 118.666 280.138"/><path d="M 198.518 154.238 L 196.408 217.087"/><path d="M 57.3474 221.205 L 77.3474 221.205"/><path d="M 77.3474 221.205 L 77.3474 212.705"/><path d="M 77.3474 212.705 L 87.3474 212.705"/><path d="M 87.3474 212.705 L 87.3474 221.205"/><path d="M 87.3474 221.205 L 107.347 221.205"/><path d="M 107.347 221.205 L 107.347 161.205"/><path d="M 107.347 161.205 L 97.3474 161.205"/><path d="M 67.3474 161.205 A 15 15 0 1 0 97.3474 161.205"/><path d="M 67.3474 161.205 L 57.3474 161.205"/><path d="M 57.3474 161.205 L 57.3474 221.205"/><path d="M 6.4411 67.6097 L 26.4411 67.6097"/><path d="M 26.4411 67.6097 L 26.4411 59.1097"/><path d="M 26.4411 59.1097 L 36.4411 59.1097"/><path d="M 36.4411 59.1097 L 36.4411 67.6097"/><path d="M 36.4411 67.6097 L 56.4411 67.6097"/><path d="M 56.4411 67.6097 L 56.4411 7.60968"/><path d="M 56.4411 7.60968 L 46.4411 7.60968"/><path d="M 16.4411 7.60968 A 15 15 0 1 0 46.4411 7.60968"/><path d="M 16.4411 7.60968 L 6.4411 7.60968"/><path d="M 6.4411 7.60968 L 6.4411 67.6097"/><path d="M 84.9345 100.715 L 90.1023 98.0816"/><path d="M 90.1023 98.0816 L 97.1361 111.886"/><path d="M 96.8064 117.112 L 94.0143 118.535"/><path d="M 96.8064 131.886 L 96.8064 117.112"/><path d="M 96.8064 131.886 L 102.606 131.886"/><path d="M 102.606 111.886 L 102.606 131.886"/><path d="M 102.606 111.886 L 97.1361 111.886"/><path d="M 102.606 81.8862 L 102.606 101.886"/><path d="M 102.606 81.8862 L 96.8064 81.8862"/><path d="M 96.8064 101.886 L 96.8064 81.8862"/><path d="M 96.8064 101.886 L 102.606 101.886"/><path d="M 80.3946 91.8047 L 71.3148 73.9846"/><path d="M 85.5624 89.1716 L 80.3946 91.8047"/><path d="M 76.4826 71.3514 L 85.5624 89.1716"/><path d="M 71.3148 73.9846 L 76.4826 71.3514"/><path d="M 118.005 148.686 L 164.014 19.6611"/><path d="M 64.0143 148.686 L 118.005 148.686"/><path d="M 64.0143 118.686 L 64.0143 148.686"/><path d="M 64.0143 118.686 A 15 15 0 0 0 64.0143 88.6862"/><path d="M 64.0143 20.6862 L 64.0143 88.6862"/><path d="M 64.0143 10.6862 L 64.0143 20.6862"/><path d="M 104.014 10.6862 L 64.0143 10.6862"/><path d="M 104.014 20.6862 L 104.014 10.6862"/><path d="M 124.014 20.6862 L 104.014 20.6862"/><path d="M 124.014 10.6862 L 124.014 20.6862"/><path d="M 164.014 10.6862 L 124.014 10.6862"/><path d="M 164.014 19.6611 L 164.014 10.6862"/><path d="M 94.0143 118.535 L 84.9345 100.715"/><circle cx="225.984" cy="205.92" r="7.5"/><path d="M 250.984 286.52 L 230.984 286.52"/><path d="M 230.984 286.52 L 230.984 276.52"/><path d="M 230.984 276.52 L 220.984 276.52"/><path d="M 220.984 276.52 L 220.984 286.52"/><path d="M 220.984 286.52 L 200.984 286.52"/><path d="M 200.984 286.52 L 200.984 190.92"/><path d="M 200.984 190.92 L 250.984 190.92"/><path d="M 250.984 190.92 L 250.984 286.52"/><path d="M 218.078 130.148 L 198.078 130.148"/><path d="M 198.078 130.148 L 198.078 120.148"/><path d="M 198.078 120.148 L 188.078 120.148"/><path d="M 188.078 120.148 L 188.078 130.148"/><path d="M 188.078 130.148 L 168.078 130.148"/><path d="M 168.078 130.148 L 168.078 10.1481"/><path d="M 168.078 10.1481 L 218.078 10.1481"/><path d="M 218.078 10.1481 L 218.078 130.148"/><path d="M 185.578 17.4481 L 185.578 32.4481"/><path d="M 185.578 32.4481 L 200.578 32.4481"/><path d="M 200.578 32.4481 L 200.578 17.4481"/><path d="M 200.578 17.4481 L 185.578 17.4481"/></g><g stroke="rgb(0, 0, 0)" stroke-width="0.13" stroke-linecap="butt" stroke-linejoin="miter" fill="none"><path d="M 226.782 73.9749 L 226.782 73.5159 L 223.257 73.5159 L 223.257 73.8589 L 223.565 73.9496 L 223.771 74.1312 L 223.892 74.4086 L 223.933 74.7919 L 224.291 74.7919 L 224.291 73.9749 L 226.782 73.9749 L 226.782 73.9749 z M 226.782 71.3786 L 226.782 68.973 L 226.349 68.973 L 226.349 70.8743 L 226.112 70.7684 L 225.915 70.5868 L 225.557 70.027 L 225.405 69.7295 L 225.189 69.3966 L 224.936 69.1596 L 224.639 69.0234 L 224.301 68.973 L 223.877 69.0587 L 223.545 69.2958 L 223.333 69.6589 L 223.257 70.1279 L 223.343 70.612 L 223.58 70.9802 L 223.958 71.2172 L 224.457 71.2979 L 224.528 71.2979 L 224.528 70.839 L 224.488 70.839 L 224.145 70.7936 L 223.892 70.6574 L 223.731 70.4406 L 223.676 70.1531 L 223.726 69.8606 L 223.852 69.6437 L 224.049 69.5025 L 224.296 69.4521 L 224.528 69.4874 L 224.725 69.5832 L 224.896 69.7446 L 225.047 69.9665 L 225.209 70.2641 L 225.521 70.7583 L 225.854 71.1063 L 226.258 71.313 L 226.767 71.3786 L 226.782 71.3786 L 226.782 71.3786 z M 225.073 67.6275 L 225.864 67.5518 L 226.429 67.3148 L 226.772 66.9365 L 226.883 66.412 L 226.772 65.8926 L 226.429 65.5143 L 225.864 65.2824 L 225.073 65.2017 L 224.286 65.2824 L 223.973 65.3782 L 223.716 65.5143 L 223.373 65.8926 L 223.257 66.412 L 223.373 66.9365 L 223.721 67.3148 L 224.286 67.5518 L 225.073 67.6275 L 225.073 67.6275 z M 225.073 67.1433 L 224.462 67.103 L 224.024 66.9769 L 223.766 66.7499 L 223.676 66.412 L 223.766 66.0792 L 224.024 65.8522 L 224.462 65.7262 L 225.073 65.6858 L 225.688 65.7262 L 226.127 65.8522 L 226.384 66.0792 L 226.47 66.412 L 226.384 66.7499 L 226.127 66.9769 L 225.688 67.103 L 225.073 67.1433 L 225.073 67.1433 z" stroke="none" fill-rule="evenodd" fill="rgb(0, 0, 0)"/><path d="M 229.3 12.0799 L 228.782 10.1481 L 228.265 12.0799"/><path d="M 228.265 128.216 L 228.782 130.148 L 229.3 128.216"/><path d="M 228.782 130.148 L 228.782 10.1481"/></g></svg>