solid CATIA STL
  facet normal  5.234310e-015  1.000000e+000 -1.566956e-014
    outer loop
      vertex -2.500000e+000  1.570293e-014  3.000000e+000
      vertex  5.000000e-001  0.000000e+000  3.000000e+000
      vertex -3.560660e+000  1.437049e-014  2.560660e+000
    endloop
  endfacet
  facet normal  1.798037e-016  1.000000e+000  3.104742e-014
    outer loop
      vertex -3.560660e+000  1.437049e-014  2.560660e+000
      vertex  5.000000e-001  0.000000e+000  3.000000e+000
      vertex  1.560660e+000  1.344966e-014  2.560660e+000
    endloop
  endfacet
  facet normal  1.798037e-016  1.000000e+000 -1.362311e-014
    outer loop
      vertex -3.560660e+000  1.437049e-014  2.560660e+000
      vertex  1.560660e+000  1.344966e-014  2.560660e+000
      vertex -4.000000e+000  0.000000e+000  1.500000e+000
    endloop
  endfacet
  facet normal  0.000000e+000  1.000000e+000 -1.268046e-014
    outer loop
      vertex -4.000000e+000  0.000000e+000  1.500000e+000
      vertex  1.560660e+000  1.344966e-014  2.560660e+000
      vertex  2.000000e+000  0.000000e+000  1.500000e+000
    endloop
  endfacet
  facet normal  0.000000e+000  1.000000e+000  0.000000e+000
    outer loop
      vertex -4.000000e+000  0.000000e+000  1.500000e+000
      vertex  2.000000e+000  0.000000e+000  1.500000e+000
      vertex -2.000000e+000  0.000000e+000  0.000000e+000
    endloop
  endfacet
  facet normal  0.000000e+000  1.000000e+000  0.000000e+000
    outer loop
      vertex -2.000000e+000  0.000000e+000  0.000000e+000
      vertex  2.000000e+000  0.000000e+000  1.500000e+000
      vertex  0.000000e+000  0.000000e+000  0.000000e+000
    endloop
  endfacet
  facet normal  0.000000e+000  1.000000e+000  0.000000e+000
    outer loop
      vertex  2.000000e+000  0.000000e+000 -5.000000e+000
      vertex -1.776357e-015  0.000000e+000 -5.000000e+000
      vertex  2.000000e+000  0.000000e+000  1.500000e+000
    endloop
  endfacet
  facet normal  0.000000e+000  1.000000e+000  0.000000e+000
    outer loop
      vertex  2.000000e+000  0.000000e+000  1.500000e+000
      vertex -1.776357e-015  0.000000e+000 -5.000000e+000
      vertex  0.000000e+000  0.000000e+000  0.000000e+000
    endloop
  endfacet
  facet normal  0.000000e+000  1.000000e+000  0.000000e+000
    outer loop
      vertex -2.000000e+000  0.000000e+000 -5.000000e+000
      vertex -4.000000e+000  0.000000e+000 -5.000000e+000
      vertex -2.000000e+000  0.000000e+000  0.000000e+000
    endloop
  endfacet
  facet normal  0.000000e+000  1.000000e+000  0.000000e+000
    outer loop
      vertex -2.000000e+000  0.000000e+000  0.000000e+000
      vertex -4.000000e+000  0.000000e+000 -5.000000e+000
      vertex -4.000000e+000  0.000000e+000  1.500000e+000
    endloop
  endfacet
  facet normal -1.000000e+000  0.000000e+000  0.000000e+000
    outer loop
      vertex -1.500000e+001 -1.143934e+001  2.560660e+000
      vertex -1.500000e+001 -1.550000e+001  3.000000e+000
      vertex -1.500000e+001 -1.250000e+001  3.000000e+000
    endloop
  endfacet
  facet normal -1.000000e+000  0.000000e+000  0.000000e+000
    outer loop
      vertex -1.500000e+001 -1.550000e+001  3.000000e+000
      vertex -1.500000e+001 -1.143934e+001  2.560660e+000
      vertex -1.500000e+001 -1.656066e+001  2.560660e+000
    endloop
  endfacet
  facet normal -1.000000e+000  0.000000e+000  0.000000e+000
    outer loop
      vertex -1.500000e+001 -1.656066e+001  2.560660e+000
      vertex -1.500000e+001 -1.143934e+001  2.560660e+000
      vertex -1.500000e+001 -1.100000e+001  1.500000e+000
    endloop
  endfacet
  facet normal -1.000000e+000  0.000000e+000  0.000000e+000
    outer loop
      vertex -1.500000e+001 -1.656066e+001  2.560660e+000
      vertex -1.500000e+001 -1.100000e+001  1.500000e+000
      vertex -1.500000e+001 -1.700000e+001  1.500000e+000
    endloop
  endfacet
  facet normal -1.000000e+000  0.000000e+000  0.000000e+000
    outer loop
      vertex -1.500000e+001 -1.700000e+001  1.500000e+000
      vertex -1.500000e+001 -1.100000e+001  1.500000e+000
      vertex -1.500000e+001 -1.300000e+001  0.000000e+000
    endloop
  endfacet
  facet normal -1.000000e+000  0.000000e+000  0.000000e+000
    outer loop
      vertex -1.500000e+001 -1.700000e+001  1.500000e+000
      vertex -1.500000e+001 -1.300000e+001  0.000000e+000
      vertex -1.500000e+001 -1.500000e+001  0.000000e+000
    endloop
  endfacet
  facet normal -1.000000e+000  0.000000e+000  0.000000e+000
    outer loop
      vertex -1.500000e+001 -1.700000e+001 -5.000000e+000
      vertex -1.500000e+001 -1.700000e+001  1.500000e+000
      vertex -1.500000e+001 -1.500000e+001 -5.000000e+000
    endloop
  endfacet
  facet normal -1.000000e+000  0.000000e+000  0.000000e+000
    outer loop
      vertex -1.500000e+001 -1.500000e+001 -5.000000e+000
      vertex -1.500000e+001 -1.700000e+001  1.500000e+000
      vertex -1.500000e+001 -1.500000e+001  0.000000e+000
    endloop
  endfacet
  facet normal -1.000000e+000  0.000000e+000  0.000000e+000
    outer loop
      vertex -1.500000e+001 -1.300000e+001 -5.000000e+000
      vertex -1.500000e+001 -1.300000e+001  0.000000e+000
      vertex -1.500000e+001 -1.100000e+001 -5.000000e+000
    endloop
  endfacet
  facet normal -1.000000e+000  0.000000e+000  0.000000e+000
    outer loop
      vertex -1.500000e+001 -1.100000e+001 -5.000000e+000
      vertex -1.500000e+001 -1.300000e+001  0.000000e+000
      vertex -1.500000e+001 -1.100000e+001  1.500000e+000
    endloop
  endfacet
  facet normal  5.031738e-002 -3.821990e-001  9.227092e-001
    outer loop
      vertex -1.500000e+001 -1.550000e+001  3.000000e+000
      vertex -1.500000e+001 -1.656066e+001  2.560660e+000
      vertex -1.071379e+001 -1.599637e+001  2.560660e+000
    endloop
  endfacet
  facet normal  5.537521e-002 -3.496253e-001  9.352517e-001
    outer loop
      vertex -1.500000e+001 -1.550000e+001  3.000000e+000
      vertex -1.071379e+001 -1.599637e+001  2.560660e+000
      vertex -1.021024e+001 -1.474138e+001  3.000000e+000
    endloop
  endfacet
  facet normal  3.496254e-001 -5.537521e-002  9.352517e-001
    outer loop
      vertex  5.000000e-001  0.000000e+000  3.000000e+000
      vertex -2.586240e-001 -4.789763e+000  3.000000e+000
      vertex  9.963694e-001 -4.286214e+000  2.560660e+000
    endloop
  endfacet
  facet normal  3.821988e-001 -5.031741e-002  9.227092e-001
    outer loop
      vertex  5.000000e-001  0.000000e+000  3.000000e+000
      vertex  9.963694e-001 -4.286214e+000  2.560660e+000
      vertex  1.560660e+000  1.344966e-014  2.560660e+000
    endloop
  endfacet
  facet normal  1.528430e-001 -2.999713e-001  9.416243e-001
    outer loop
      vertex -6.719670e+000 -1.434195e+001  2.560660e+000
      vertex -5.889328e+000 -1.253976e+001  3.000000e+000
      vertex -1.021024e+001 -1.474138e+001  3.000000e+000
    endloop
  endfacet
  facet normal  1.583263e-001 -3.822336e-001  9.104011e-001
    outer loop
      vertex -6.719670e+000 -1.434195e+001  2.560660e+000
      vertex -1.021024e+001 -1.474138e+001  3.000000e+000
      vertex -1.071379e+001 -1.599637e+001  2.560660e+000
    endloop
  endfacet
  facet normal  2.342189e-001 -2.342189e-001  9.435481e-001
    outer loop
      vertex -3.289845e+000 -1.171016e+001  2.560660e+000
      vertex -2.460237e+000 -9.110671e+000  3.000000e+000
      vertex -5.889328e+000 -1.253976e+001  3.000000e+000
    endloop
  endfacet
  facet normal  2.613392e-001 -3.405839e-001  9.031636e-001
    outer loop
      vertex -3.289845e+000 -1.171016e+001  2.560660e+000
      vertex -5.889328e+000 -1.253976e+001  3.000000e+000
      vertex -6.719670e+000 -1.434195e+001  2.560660e+000
    endloop
  endfacet
  facet normal  2.999713e-001 -1.528430e-001  9.416242e-001
    outer loop
      vertex -6.580476e-001 -8.280330e+000  2.560660e+000
      vertex -2.586240e-001 -4.789763e+000  3.000000e+000
      vertex -2.460237e+000 -9.110671e+000  3.000000e+000
    endloop
  endfacet
  facet normal  3.405839e-001 -2.613392e-001  9.031637e-001
    outer loop
      vertex -6.580476e-001 -8.280330e+000  2.560660e+000
      vertex -2.460237e+000 -9.110671e+000  3.000000e+000
      vertex -3.289845e+000 -1.171016e+001  2.560660e+000
    endloop
  endfacet
  facet normal  3.822336e-001 -1.583264e-001  9.104010e-001
    outer loop
      vertex  9.963694e-001 -4.286214e+000  2.560660e+000
      vertex -2.586240e-001 -4.789763e+000  3.000000e+000
      vertex -6.580476e-001 -8.280330e+000  2.560660e+000
    endloop
  endfacet
  facet normal  1.207410e-001 -9.171203e-001  3.798844e-001
    outer loop
      vertex -1.500000e+001 -1.656066e+001  2.560660e+000
      vertex -1.500000e+001 -1.700000e+001  1.500000e+000
      vertex -1.071379e+001 -1.599637e+001  2.560660e+000
    endloop
  endfacet
  facet normal  1.207414e-001 -9.171208e-001  3.798831e-001
    outer loop
      vertex -1.071379e+001 -1.599637e+001  2.560660e+000
      vertex -1.500000e+001 -1.700000e+001  1.500000e+000
      vertex -1.060008e+001 -1.642074e+001  1.500000e+000
    endloop
  endfacet
  facet normal  3.539953e-001 -8.546204e-001  3.798831e-001
    outer loop
      vertex -1.071379e+001 -1.599637e+001  2.560660e+000
      vertex -1.060008e+001 -1.642074e+001  1.500000e+000
      vertex -6.719670e+000 -1.434195e+001  2.560660e+000
    endloop
  endfacet
  facet normal  3.539950e-001 -8.546202e-001  3.798839e-001
    outer loop
      vertex -6.719670e+000 -1.434195e+001  2.560660e+000
      vertex -1.060008e+001 -1.642074e+001  1.500000e+000
      vertex -6.500000e+000 -1.472243e+001  1.500000e+000
    endloop
  endfacet
  facet normal  5.631251e-001 -7.338790e-001  3.798839e-001
    outer loop
      vertex -6.719670e+000 -1.434195e+001  2.560660e+000
      vertex -6.500000e+000 -1.472243e+001  1.500000e+000
      vertex -3.289845e+000 -1.171016e+001  2.560660e+000
    endloop
  endfacet
  facet normal  5.631253e-001 -7.338790e-001  3.798834e-001
    outer loop
      vertex -3.289845e+000 -1.171016e+001  2.560660e+000
      vertex -6.500000e+000 -1.472243e+001  1.500000e+000
      vertex -2.979185e+000 -1.202081e+001  1.500000e+000
    endloop
  endfacet
  facet normal  7.338791e-001 -5.631251e-001  3.798835e-001
    outer loop
      vertex -3.289845e+000 -1.171016e+001  2.560660e+000
      vertex -2.979185e+000 -1.202081e+001  1.500000e+000
      vertex -6.580476e-001 -8.280330e+000  2.560660e+000
    endloop
  endfacet
  facet normal  7.338790e-001 -5.631252e-001  3.798839e-001
    outer loop
      vertex -6.580476e-001 -8.280330e+000  2.560660e+000
      vertex -2.979185e+000 -1.202081e+001  1.500000e+000
      vertex -2.775681e-001 -8.500000e+000  1.500000e+000
    endloop
  endfacet
  facet normal  8.546201e-001 -3.539953e-001  3.798839e-001
    outer loop
      vertex -6.580476e-001 -8.280330e+000  2.560660e+000
      vertex -2.775681e-001 -8.500000e+000  1.500000e+000
      vertex  9.963694e-001 -4.286214e+000  2.560660e+000
    endloop
  endfacet
  facet normal  8.546203e-001 -3.539953e-001  3.798837e-001
    outer loop
      vertex  9.963694e-001 -4.286214e+000  2.560660e+000
      vertex -2.775681e-001 -8.500000e+000  1.500000e+000
      vertex  1.420739e+000 -4.399924e+000  1.500000e+000
    endloop
  endfacet
  facet normal  9.171205e-001 -1.207412e-001  3.798838e-001
    outer loop
      vertex  9.963694e-001 -4.286214e+000  2.560660e+000
      vertex  1.420739e+000 -4.399924e+000  1.500000e+000
      vertex  1.560660e+000  1.344966e-014  2.560660e+000
    endloop
  endfacet
  facet normal  9.171205e-001 -1.207412e-001  3.798838e-001
    outer loop
      vertex  1.560660e+000  1.344966e-014  2.560660e+000
      vertex  1.420739e+000 -4.399924e+000  1.500000e+000
      vertex  2.000000e+000  0.000000e+000  1.500000e+000
    endloop
  endfacet
  facet normal  0.000000e+000  0.000000e+000  9.999999e-001
    outer loop
      vertex -2.586240e-001 -4.789763e+000  3.000000e+000
      vertex  5.000000e-001  0.000000e+000  3.000000e+000
      vertex -2.460237e+000 -9.110671e+000  3.000000e+000
    endloop
  endfacet
  facet normal  0.000000e+000  -0.000000e+000  1.000000e+000
    outer loop
      vertex -2.460237e+000 -9.110671e+000  3.000000e+000
      vertex  5.000000e-001  0.000000e+000  3.000000e+000
      vertex -2.500000e+000  1.570293e-014  3.000000e+000
    endloop
  endfacet
  facet normal  0.000000e+000  0.000000e+000  1.000000e+000
    outer loop
      vertex -2.460237e+000 -9.110671e+000  3.000000e+000
      vertex -2.500000e+000  1.570293e-014  3.000000e+000
      vertex -3.111794e+000 -3.862712e+000  3.000000e+000
    endloop
  endfacet
  facet normal  0.000000e+000  0.000000e+000  1.000000e+000
    outer loop
      vertex -2.460237e+000 -9.110671e+000  3.000000e+000
      vertex -3.111794e+000 -3.862712e+000  3.000000e+000
      vertex -5.889328e+000 -1.253976e+001  3.000000e+000
    endloop
  endfacet
  facet normal  0.000000e+000  0.000000e+000  1.000000e+000
    outer loop
      vertex -5.889328e+000 -1.253976e+001  3.000000e+000
      vertex -3.111794e+000 -3.862712e+000  3.000000e+000
      vertex -4.887288e+000 -7.347316e+000  3.000000e+000
    endloop
  endfacet
  facet normal  0.000000e+000  0.000000e+000  1.000000e+000
    outer loop
      vertex -5.889328e+000 -1.253976e+001  3.000000e+000
      vertex -4.887288e+000 -7.347316e+000  3.000000e+000
      vertex -1.021024e+001 -1.474138e+001  3.000000e+000
    endloop
  endfacet
  facet normal  0.000000e+000  0.000000e+000  1.000000e+000
    outer loop
      vertex -1.021024e+001 -1.474138e+001  3.000000e+000
      vertex -4.887288e+000 -7.347316e+000  3.000000e+000
      vertex -7.652684e+000 -1.011271e+001  3.000000e+000
    endloop
  endfacet
  facet normal  0.000000e+000  0.000000e+000  1.000000e+000
    outer loop
      vertex -1.021024e+001 -1.474138e+001  3.000000e+000
      vertex -7.652684e+000 -1.011271e+001  3.000000e+000
      vertex -1.113729e+001 -1.188821e+001  3.000000e+000
    endloop
  endfacet
  facet normal  -0.000000e+000  0.000000e+000  1.000000e+000
    outer loop
      vertex -1.113729e+001 -1.188821e+001  3.000000e+000
      vertex -1.500000e+001 -1.250000e+001  3.000000e+000
      vertex -1.021024e+001 -1.474138e+001  3.000000e+000
    endloop
  endfacet
  facet normal  0.000000e+000  0.000000e+000  9.999999e-001
    outer loop
      vertex -1.021024e+001 -1.474138e+001  3.000000e+000
      vertex -1.500000e+001 -1.250000e+001  3.000000e+000
      vertex -1.500000e+001 -1.550000e+001  3.000000e+000
    endloop
  endfacet
  facet normal -9.141446e-001  1.447863e-001  3.786511e-001
    outer loop
      vertex -4.000000e+000  0.000000e+000  1.500000e+000
      vertex -4.538378e+000 -3.399187e+000  1.500000e+000
      vertex -3.560660e+000  1.437049e-014  2.560660e+000
    endloop
  endfacet
  facet normal -9.141445e-001  1.447862e-001  3.786512e-001
    outer loop
      vertex -3.560660e+000  1.437049e-014  2.560660e+000
      vertex -4.538378e+000 -3.399187e+000  1.500000e+000
      vertex -4.120541e+000 -3.534950e+000  2.560660e+000
    endloop
  endfacet
  facet normal -3.819825e-001  6.050006e-002  9.221871e-001
    outer loop
      vertex -3.560660e+000  1.437049e-014  2.560660e+000
      vertex -4.120541e+000 -3.534950e+000  2.560660e+000
      vertex -2.500000e+000  1.570293e-014  3.000000e+000
    endloop
  endfacet
  facet normal -3.819825e-001  6.050009e-002  9.221871e-001
    outer loop
      vertex -2.500000e+000  1.570293e-014  3.000000e+000
      vertex -4.120541e+000 -3.534950e+000  2.560660e+000
      vertex -3.111794e+000 -3.862712e+000  3.000000e+000
    endloop
  endfacet
  facet normal -1.447864e-001  9.141445e-001  3.786512e-001
    outer loop
      vertex -1.160081e+001 -1.046162e+001  1.500000e+000
      vertex -1.500000e+001 -1.100000e+001  1.500000e+000
      vertex -1.146505e+001 -1.087946e+001  2.560660e+000
    endloop
  endfacet
  facet normal -1.447863e-001  9.141446e-001  3.786509e-001
    outer loop
      vertex -1.146505e+001 -1.087946e+001  2.560660e+000
      vertex -1.500000e+001 -1.100000e+001  1.500000e+000
      vertex -1.500000e+001 -1.143934e+001  2.560660e+000
    endloop
  endfacet
  facet normal -6.050007e-002  3.819824e-001  9.221872e-001
    outer loop
      vertex -1.146505e+001 -1.087946e+001  2.560660e+000
      vertex -1.500000e+001 -1.143934e+001  2.560660e+000
      vertex -1.113729e+001 -1.188821e+001  3.000000e+000
    endloop
  endfacet
  facet normal -6.050006e-002  3.819824e-001  9.221872e-001
    outer loop
      vertex -1.113729e+001 -1.188821e+001  3.000000e+000
      vertex -1.500000e+001 -1.143934e+001  2.560660e+000
      vertex -1.500000e+001 -1.250000e+001  3.000000e+000
    endloop
  endfacet
  facet normal -4.201860e-001  8.246618e-001  3.786509e-001
    outer loop
      vertex -8.534362e+000 -8.899187e+000  1.500000e+000
      vertex -1.160081e+001 -1.046162e+001  1.500000e+000
      vertex -8.276125e+000 -9.254621e+000  2.560660e+000
    endloop
  endfacet
  facet normal -4.201860e-001  8.246619e-001  3.786511e-001
    outer loop
      vertex -8.276125e+000 -9.254621e+000  2.560660e+000
      vertex -1.160081e+001 -1.046162e+001  1.500000e+000
      vertex -1.146505e+001 -1.087946e+001  2.560660e+000
    endloop
  endfacet
  facet normal -1.755780e-001  3.445913e-001  9.221873e-001
    outer loop
      vertex -8.276125e+000 -9.254621e+000  2.560660e+000
      vertex -1.146505e+001 -1.087946e+001  2.560660e+000
      vertex -7.652684e+000 -1.011271e+001  3.000000e+000
    endloop
  endfacet
  facet normal -1.755780e-001  3.445912e-001  9.221872e-001
    outer loop
      vertex -7.652684e+000 -1.011271e+001  3.000000e+000
      vertex -1.146505e+001 -1.087946e+001  2.560660e+000
      vertex -1.113729e+001 -1.188821e+001  3.000000e+000
    endloop
  endfacet
  facet normal -6.544553e-001  6.544552e-001  3.786511e-001
    outer loop
      vertex -6.100813e+000 -6.465638e+000  1.500000e+000
      vertex -8.534362e+000 -8.899187e+000  1.500000e+000
      vertex -5.745379e+000 -6.723875e+000  2.560660e+000
    endloop
  endfacet
  facet normal -6.544554e-001  6.544554e-001  3.786508e-001
    outer loop
      vertex -5.745379e+000 -6.723875e+000  2.560660e+000
      vertex -8.534362e+000 -8.899187e+000  1.500000e+000
      vertex -8.276125e+000 -9.254621e+000  2.560660e+000
    endloop
  endfacet
  facet normal -2.734692e-001  2.734692e-001  9.221871e-001
    outer loop
      vertex -5.745379e+000 -6.723875e+000  2.560660e+000
      vertex -8.276125e+000 -9.254621e+000  2.560660e+000
      vertex -4.887288e+000 -7.347316e+000  3.000000e+000
    endloop
  endfacet
  facet normal -2.734692e-001  2.734692e-001  9.221872e-001
    outer loop
      vertex -4.887288e+000 -7.347316e+000  3.000000e+000
      vertex -8.276125e+000 -9.254621e+000  2.560660e+000
      vertex -7.652684e+000 -1.011271e+001  3.000000e+000
    endloop
  endfacet
  facet normal -8.246617e-001  4.201861e-001  3.786512e-001
    outer loop
      vertex -4.538378e+000 -3.399187e+000  1.500000e+000
      vertex -6.100813e+000 -6.465638e+000  1.500000e+000
      vertex -4.120541e+000 -3.534950e+000  2.560660e+000
    endloop
  endfacet
  facet normal -8.246618e-001  4.201862e-001  3.786511e-001
    outer loop
      vertex -4.120541e+000 -3.534950e+000  2.560660e+000
      vertex -6.100813e+000 -6.465638e+000  1.500000e+000
      vertex -5.745379e+000 -6.723875e+000  2.560660e+000
    endloop
  endfacet
  facet normal -3.445914e-001  1.755781e-001  9.221871e-001
    outer loop
      vertex -4.120541e+000 -3.534950e+000  2.560660e+000
      vertex -5.745379e+000 -6.723875e+000  2.560660e+000
      vertex -3.111794e+000 -3.862712e+000  3.000000e+000
    endloop
  endfacet
  facet normal -3.445914e-001  1.755781e-001  9.221871e-001
    outer loop
      vertex -3.111794e+000 -3.862712e+000  3.000000e+000
      vertex -5.745379e+000 -6.723875e+000  2.560660e+000
      vertex -4.887288e+000 -7.347316e+000  3.000000e+000
    endloop
  endfacet
  facet normal -8.910065e-001  4.539905e-001  0.000000e+000
    outer loop
      vertex -6.100813e+000 -6.465638e+000 -5.000000e+000
      vertex -4.538378e+000 -3.399187e+000  1.500000e+000
      vertex -4.538378e+000 -3.399187e+000 -5.000000e+000
    endloop
  endfacet
  facet normal -9.876884e-001  1.564344e-001  0.000000e+000
    outer loop
      vertex -4.538378e+000 -3.399187e+000 -5.000000e+000
      vertex -4.538378e+000 -3.399187e+000  1.500000e+000
      vertex -4.000000e+000  0.000000e+000  1.500000e+000
    endloop
  endfacet
  facet normal -9.876884e-001  1.564344e-001  0.000000e+000
    outer loop
      vertex -4.538378e+000 -3.399187e+000 -5.000000e+000
      vertex -4.000000e+000  0.000000e+000  1.500000e+000
      vertex -4.000000e+000  0.000000e+000 -5.000000e+000
    endloop
  endfacet
  facet normal -8.910065e-001  4.539905e-001  0.000000e+000
    outer loop
      vertex -4.538378e+000 -3.399187e+000  1.500000e+000
      vertex -6.100813e+000 -6.465638e+000 -5.000000e+000
      vertex -6.100813e+000 -6.465638e+000  1.500000e+000
    endloop
  endfacet
  facet normal -7.071069e-001  7.071067e-001  0.000000e+000
    outer loop
      vertex -6.100813e+000 -6.465638e+000  1.500000e+000
      vertex -6.100813e+000 -6.465638e+000 -5.000000e+000
      vertex -8.534362e+000 -8.899187e+000 -5.000000e+000
    endloop
  endfacet
  facet normal -7.071069e-001  7.071067e-001  0.000000e+000
    outer loop
      vertex -6.100813e+000 -6.465638e+000  1.500000e+000
      vertex -8.534362e+000 -8.899187e+000 -5.000000e+000
      vertex -8.534362e+000 -8.899187e+000  1.500000e+000
    endloop
  endfacet
  facet normal -4.539904e-001  8.910066e-001  0.000000e+000
    outer loop
      vertex -8.534362e+000 -8.899187e+000  1.500000e+000
      vertex -8.534362e+000 -8.899187e+000 -5.000000e+000
      vertex -1.160081e+001 -1.046162e+001 -5.000000e+000
    endloop
  endfacet
  facet normal -4.539904e-001  8.910066e-001  0.000000e+000
    outer loop
      vertex -8.534362e+000 -8.899187e+000  1.500000e+000
      vertex -1.160081e+001 -1.046162e+001 -5.000000e+000
      vertex -1.160081e+001 -1.046162e+001  1.500000e+000
    endloop
  endfacet
  facet normal -1.564346e-001  9.876884e-001  0.000000e+000
    outer loop
      vertex -1.160081e+001 -1.046162e+001  1.500000e+000
      vertex -1.160081e+001 -1.046162e+001 -5.000000e+000
      vertex -1.500000e+001 -1.100000e+001 -5.000000e+000
    endloop
  endfacet
  facet normal -1.564346e-001  9.876884e-001  0.000000e+000
    outer loop
      vertex -1.160081e+001 -1.046162e+001  1.500000e+000
      vertex -1.500000e+001 -1.100000e+001 -5.000000e+000
      vertex -1.500000e+001 -1.100000e+001  1.500000e+000
    endloop
  endfacet
  facet normal  0.000000e+000  0.000000e+000 -1.000000e+000
    outer loop
      vertex -4.538378e+000 -3.399187e+000 -5.000000e+000
      vertex -4.000000e+000  0.000000e+000 -5.000000e+000
      vertex -4.482779e+000 -7.641208e+000 -5.000000e+000
    endloop
  endfacet
  facet normal  0.000000e+000  0.000000e+000 -1.000000e+000
    outer loop
      vertex -4.482779e+000 -7.641208e+000 -5.000000e+000
      vertex -4.000000e+000  0.000000e+000 -5.000000e+000
      vertex -2.000000e+000  0.000000e+000 -5.000000e+000
    endloop
  endfacet
  facet normal  0.000000e+000  0.000000e+000 -1.000000e+000
    outer loop
      vertex -4.482779e+000 -7.641208e+000 -5.000000e+000
      vertex -2.000000e+000  0.000000e+000 -5.000000e+000
      vertex -2.636265e+000 -4.017221e+000 -5.000000e+000
    endloop
  endfacet
  facet normal  0.000000e+000  0.000000e+000 -1.000000e+000
    outer loop
      vertex -8.534362e+000 -8.899187e+000 -5.000000e+000
      vertex -6.100813e+000 -6.465638e+000 -5.000000e+000
      vertex -7.358792e+000 -1.051722e+001 -5.000000e+000
    endloop
  endfacet
  facet normal  0.000000e+000  0.000000e+000 -1.000000e+000
    outer loop
      vertex -7.358792e+000 -1.051722e+001 -5.000000e+000
      vertex -6.100813e+000 -6.465638e+000 -5.000000e+000
      vertex -4.538378e+000 -3.399187e+000 -5.000000e+000
    endloop
  endfacet
  facet normal  0.000000e+000  -0.000000e+000 -1.000000e+000
    outer loop
      vertex -7.358792e+000 -1.051722e+001 -5.000000e+000
      vertex -4.538378e+000 -3.399187e+000 -5.000000e+000
      vertex -4.482779e+000 -7.641208e+000 -5.000000e+000
    endloop
  endfacet
  facet normal  0.000000e+000  0.000000e+000 -1.000000e+000
    outer loop
      vertex -7.358792e+000 -1.051722e+001 -5.000000e+000
      vertex -1.098278e+001 -1.236373e+001 -5.000000e+000
      vertex -8.534362e+000 -8.899187e+000 -5.000000e+000
    endloop
  endfacet
  facet normal  0.000000e+000  0.000000e+000 -1.000000e+000
    outer loop
      vertex -8.534362e+000 -8.899187e+000 -5.000000e+000
      vertex -1.098278e+001 -1.236373e+001 -5.000000e+000
      vertex -1.160081e+001 -1.046162e+001 -5.000000e+000
    endloop
  endfacet
  facet normal  0.000000e+000  0.000000e+000 -1.000000e+000
    outer loop
      vertex -1.098278e+001 -1.236373e+001 -5.000000e+000
      vertex -1.500000e+001 -1.300000e+001 -5.000000e+000
      vertex -1.160081e+001 -1.046162e+001 -5.000000e+000
    endloop
  endfacet
  facet normal  0.000000e+000  0.000000e+000 -1.000000e+000
    outer loop
      vertex -1.160081e+001 -1.046162e+001 -5.000000e+000
      vertex -1.500000e+001 -1.300000e+001 -5.000000e+000
      vertex -1.500000e+001 -1.100000e+001 -5.000000e+000
    endloop
  endfacet
  facet normal  9.876883e-001 -1.564344e-001  0.000000e+000
    outer loop
      vertex -2.000000e+000  0.000000e+000 -5.000000e+000
      vertex -2.000000e+000  0.000000e+000  0.000000e+000
      vertex -2.636265e+000 -4.017221e+000 -5.000000e+000
    endloop
  endfacet
  facet normal  9.876883e-001 -1.564344e-001  0.000000e+000
    outer loop
      vertex -2.636265e+000 -4.017221e+000 -5.000000e+000
      vertex -2.000000e+000  0.000000e+000  0.000000e+000
      vertex -2.636265e+000 -4.017221e+000  8.881784e-016
    endloop
  endfacet
  facet normal  8.910066e-001 -4.539905e-001  0.000000e+000
    outer loop
      vertex -2.636265e+000 -4.017221e+000 -5.000000e+000
      vertex -2.636265e+000 -4.017221e+000  8.881784e-016
      vertex -4.482779e+000 -7.641208e+000 -5.000000e+000
    endloop
  endfacet
  facet normal  8.910066e-001 -4.539905e-001  0.000000e+000
    outer loop
      vertex -4.482779e+000 -7.641208e+000 -5.000000e+000
      vertex -2.636265e+000 -4.017221e+000  8.881784e-016
      vertex -4.482779e+000 -7.641208e+000  8.881784e-016
    endloop
  endfacet
  facet normal  7.071068e-001 -7.071069e-001  0.000000e+000
    outer loop
      vertex -4.482779e+000 -7.641208e+000 -5.000000e+000
      vertex -4.482779e+000 -7.641208e+000  8.881784e-016
      vertex -7.358792e+000 -1.051722e+001 -5.000000e+000
    endloop
  endfacet
  facet normal  7.071068e-001 -7.071069e-001  0.000000e+000
    outer loop
      vertex -7.358792e+000 -1.051722e+001 -5.000000e+000
      vertex -4.482779e+000 -7.641208e+000  8.881784e-016
      vertex -7.358792e+000 -1.051722e+001  8.881784e-016
    endloop
  endfacet
  facet normal  4.539905e-001 -8.910065e-001  0.000000e+000
    outer loop
      vertex -7.358792e+000 -1.051722e+001 -5.000000e+000
      vertex -7.358792e+000 -1.051722e+001  8.881784e-016
      vertex -1.098278e+001 -1.236373e+001 -5.000000e+000
    endloop
  endfacet
  facet normal  4.539905e-001 -8.910065e-001  0.000000e+000
    outer loop
      vertex -1.098278e+001 -1.236373e+001 -5.000000e+000
      vertex -7.358792e+000 -1.051722e+001  8.881784e-016
      vertex -1.098278e+001 -1.236373e+001  8.881784e-016
    endloop
  endfacet
  facet normal  1.564346e-001 -9.876884e-001  0.000000e+000
    outer loop
      vertex -1.098278e+001 -1.236373e+001 -5.000000e+000
      vertex -1.098278e+001 -1.236373e+001  8.881784e-016
      vertex -1.500000e+001 -1.300000e+001 -5.000000e+000
    endloop
  endfacet
  facet normal  1.564346e-001 -9.876884e-001  0.000000e+000
    outer loop
      vertex -1.500000e+001 -1.300000e+001 -5.000000e+000
      vertex -1.098278e+001 -1.236373e+001  8.881784e-016
      vertex -1.500000e+001 -1.300000e+001  0.000000e+000
    endloop
  endfacet
  facet normal -3.666245e-015  3.595834e-016 -9.999999e-001
    outer loop
      vertex -2.636265e+000 -4.017221e+000  8.881784e-016
      vertex -2.000000e+000  0.000000e+000  0.000000e+000
      vertex -2.864745e+000 -8.816779e+000  0.000000e+000
    endloop
  endfacet
  facet normal  0.000000e+000  0.000000e+000 -1.000000e+000
    outer loop
      vertex -2.864745e+000 -8.816779e+000  0.000000e+000
      vertex -2.000000e+000  0.000000e+000  0.000000e+000
      vertex  0.000000e+000  0.000000e+000  0.000000e+000
    endloop
  endfacet
  facet normal  0.000000e+000  0.000000e+000 -9.999999e-001
    outer loop
      vertex -2.864745e+000 -8.816779e+000  0.000000e+000
      vertex  0.000000e+000  0.000000e+000  0.000000e+000
      vertex -7.341523e-001 -4.635255e+000  0.000000e+000
    endloop
  endfacet
  facet normal -3.179327e-016  3.179328e-016 -1.000000e+000
    outer loop
      vertex -7.358792e+000 -1.051722e+001  8.881784e-016
      vertex -4.482779e+000 -7.641208e+000  8.881784e-016
      vertex -6.183221e+000 -1.213525e+001  0.000000e+000
    endloop
  endfacet
  facet normal -1.506949e-015  7.678286e-016 -1.000000e+000
    outer loop
      vertex -6.183221e+000 -1.213525e+001  0.000000e+000
      vertex -4.482779e+000 -7.641208e+000  8.881784e-016
      vertex -2.636265e+000 -4.017221e+000  8.881784e-016
    endloop
  endfacet
  facet normal -1.943039e-016  1.943039e-016 -1.000000e+000
    outer loop
      vertex -6.183221e+000 -1.213525e+001  0.000000e+000
      vertex -2.636265e+000 -4.017221e+000  8.881784e-016
      vertex -2.864745e+000 -8.816779e+000  0.000000e+000
    endloop
  endfacet
  facet normal -2.041254e-016  4.006186e-016 -1.000000e+000
    outer loop
      vertex -6.183221e+000 -1.213525e+001  0.000000e+000
      vertex -1.036475e+001 -1.426585e+001  0.000000e+000
      vertex -7.358792e+000 -1.051722e+001  8.881784e-016
    endloop
  endfacet
  facet normal -2.041253e-016  4.006185e-016 -1.000000e+000
    outer loop
      vertex -7.358792e+000 -1.051722e+001  8.881784e-016
      vertex -1.036475e+001 -1.426585e+001  0.000000e+000
      vertex -1.098278e+001 -1.236373e+001  8.881784e-016
    endloop
  endfacet
  facet normal -7.033675e-017  4.440890e-016 -1.000000e+000
    outer loop
      vertex -1.036475e+001 -1.426585e+001  0.000000e+000
      vertex -1.500000e+001 -1.500000e+001  0.000000e+000
      vertex -1.098278e+001 -1.236373e+001  8.881784e-016
    endloop
  endfacet
  facet normal  2.210928e-016  0.000000e+000 -1.000000e+000
    outer loop
      vertex -1.098278e+001 -1.236373e+001  8.881784e-016
      vertex -1.500000e+001 -1.500000e+001  0.000000e+000
      vertex -1.500000e+001 -1.300000e+001  0.000000e+000
    endloop
  endfacet
  facet normal -8.910066e-001  4.539905e-001  0.000000e+000
    outer loop
      vertex -2.864745e+000 -8.816779e+000 -5.000000e+000
      vertex -7.341523e-001 -4.635255e+000  0.000000e+000
      vertex -7.341523e-001 -4.635255e+000 -5.000000e+000
    endloop
  endfacet
  facet normal -9.876883e-001  1.564345e-001  0.000000e+000
    outer loop
      vertex -7.341523e-001 -4.635255e+000 -5.000000e+000
      vertex -7.341523e-001 -4.635255e+000  0.000000e+000
      vertex  0.000000e+000  0.000000e+000  0.000000e+000
    endloop
  endfacet
  facet normal -9.876883e-001  1.564345e-001  3.508974e-016
    outer loop
      vertex -7.341523e-001 -4.635255e+000 -5.000000e+000
      vertex  0.000000e+000  0.000000e+000  0.000000e+000
      vertex -1.776357e-015  0.000000e+000 -5.000000e+000
    endloop
  endfacet
  facet normal -8.910066e-001  4.539905e-001  0.000000e+000
    outer loop
      vertex -7.341523e-001 -4.635255e+000  0.000000e+000
      vertex -2.864745e+000 -8.816779e+000 -5.000000e+000
      vertex -2.864745e+000 -8.816779e+000  0.000000e+000
    endloop
  endfacet
  facet normal -7.071067e-001  7.071068e-001  0.000000e+000
    outer loop
      vertex -2.864745e+000 -8.816779e+000  0.000000e+000
      vertex -2.864745e+000 -8.816779e+000 -5.000000e+000
      vertex -6.183221e+000 -1.213525e+001 -5.000000e+000
    endloop
  endfacet
  facet normal -7.071067e-001  7.071068e-001  0.000000e+000
    outer loop
      vertex -2.864745e+000 -8.816779e+000  0.000000e+000
      vertex -6.183221e+000 -1.213525e+001 -5.000000e+000
      vertex -6.183221e+000 -1.213525e+001  0.000000e+000
    endloop
  endfacet
  facet normal -4.539906e-001  8.910065e-001  0.000000e+000
    outer loop
      vertex -6.183221e+000 -1.213525e+001  0.000000e+000
      vertex -6.183221e+000 -1.213525e+001 -5.000000e+000
      vertex -1.036475e+001 -1.426585e+001 -5.000000e+000
    endloop
  endfacet
  facet normal -4.539906e-001  8.910065e-001  0.000000e+000
    outer loop
      vertex -6.183221e+000 -1.213525e+001  0.000000e+000
      vertex -1.036475e+001 -1.426585e+001 -5.000000e+000
      vertex -1.036475e+001 -1.426585e+001  0.000000e+000
    endloop
  endfacet
  facet normal -1.564344e-001  9.876883e-001  0.000000e+000
    outer loop
      vertex -1.036475e+001 -1.426585e+001  0.000000e+000
      vertex -1.036475e+001 -1.426585e+001 -5.000000e+000
      vertex -1.500000e+001 -1.500000e+001 -5.000000e+000
    endloop
  endfacet
  facet normal -1.564344e-001  9.876883e-001  0.000000e+000
    outer loop
      vertex -1.036475e+001 -1.426585e+001  0.000000e+000
      vertex -1.500000e+001 -1.500000e+001 -5.000000e+000
      vertex -1.500000e+001 -1.500000e+001  0.000000e+000
    endloop
  endfacet
  facet normal  0.000000e+000  0.000000e+000 -1.000000e+000
    outer loop
      vertex -7.341523e-001 -4.635255e+000 -5.000000e+000
      vertex -1.776357e-015  0.000000e+000 -5.000000e+000
      vertex -2.775681e-001 -8.500000e+000 -5.000000e+000
    endloop
  endfacet
  facet normal  0.000000e+000  0.000000e+000 -1.000000e+000
    outer loop
      vertex -2.775681e-001 -8.500000e+000 -5.000000e+000
      vertex -1.776357e-015  0.000000e+000 -5.000000e+000
      vertex  2.000000e+000  0.000000e+000 -5.000000e+000
    endloop
  endfacet
  facet normal  0.000000e+000  0.000000e+000 -1.000000e+000
    outer loop
      vertex -2.775681e-001 -8.500000e+000 -5.000000e+000
      vertex  2.000000e+000  0.000000e+000 -5.000000e+000
      vertex  1.420739e+000 -4.399924e+000 -5.000000e+000
    endloop
  endfacet
  facet normal  0.000000e+000  0.000000e+000 -1.000000e+000
    outer loop
      vertex -6.500000e+000 -1.472243e+001 -5.000000e+000
      vertex -2.864745e+000 -8.816779e+000 -5.000000e+000
      vertex -2.979185e+000 -1.202081e+001 -5.000000e+000
    endloop
  endfacet
  facet normal  0.000000e+000  0.000000e+000 -1.000000e+000
    outer loop
      vertex -2.979185e+000 -1.202081e+001 -5.000000e+000
      vertex -2.864745e+000 -8.816779e+000 -5.000000e+000
      vertex -7.341523e-001 -4.635255e+000 -5.000000e+000
    endloop
  endfacet
  facet normal  0.000000e+000  -0.000000e+000 -1.000000e+000
    outer loop
      vertex -2.979185e+000 -1.202081e+001 -5.000000e+000
      vertex -7.341523e-001 -4.635255e+000 -5.000000e+000
      vertex -2.775681e-001 -8.500000e+000 -5.000000e+000
    endloop
  endfacet
  facet normal  0.000000e+000  0.000000e+000 -1.000000e+000
    outer loop
      vertex -2.864745e+000 -8.816779e+000 -5.000000e+000
      vertex -6.500000e+000 -1.472243e+001 -5.000000e+000
      vertex -6.183221e+000 -1.213525e+001 -5.000000e+000
    endloop
  endfacet
  facet normal  0.000000e+000  0.000000e+000 -1.000000e+000
    outer loop
      vertex -6.183221e+000 -1.213525e+001 -5.000000e+000
      vertex -6.500000e+000 -1.472243e+001 -5.000000e+000
      vertex -1.060008e+001 -1.642074e+001 -5.000000e+000
    endloop
  endfacet
  facet normal  0.000000e+000  0.000000e+000 -1.000000e+000
    outer loop
      vertex -6.183221e+000 -1.213525e+001 -5.000000e+000
      vertex -1.060008e+001 -1.642074e+001 -5.000000e+000
      vertex -1.036475e+001 -1.426585e+001 -5.000000e+000
    endloop
  endfacet
  facet normal  0.000000e+000  0.000000e+000 -9.999999e-001
    outer loop
      vertex -1.036475e+001 -1.426585e+001 -5.000000e+000
      vertex -1.060008e+001 -1.642074e+001 -5.000000e+000
      vertex -1.500000e+001 -1.700000e+001 -5.000000e+000
    endloop
  endfacet
  facet normal  0.000000e+000  0.000000e+000 -1.000000e+000
    outer loop
      vertex -1.036475e+001 -1.426585e+001 -5.000000e+000
      vertex -1.500000e+001 -1.700000e+001 -5.000000e+000
      vertex -1.500000e+001 -1.500000e+001 -5.000000e+000
    endloop
  endfacet
  facet normal  9.914449e-001 -1.305262e-001  0.000000e+000
    outer loop
      vertex  2.000000e+000  0.000000e+000 -5.000000e+000
      vertex  2.000000e+000  0.000000e+000  1.500000e+000
      vertex  1.420739e+000 -4.399924e+000 -5.000000e+000
    endloop
  endfacet
  facet normal  9.914449e-001 -1.305262e-001  0.000000e+000
    outer loop
      vertex  1.420739e+000 -4.399924e+000 -5.000000e+000
      vertex  2.000000e+000  0.000000e+000  1.500000e+000
      vertex  1.420739e+000 -4.399924e+000  1.500000e+000
    endloop
  endfacet
  facet normal  9.238795e-001 -3.826834e-001  0.000000e+000
    outer loop
      vertex  1.420739e+000 -4.399924e+000 -5.000000e+000
      vertex  1.420739e+000 -4.399924e+000  1.500000e+000
      vertex -2.775681e-001 -8.500000e+000 -5.000000e+000
    endloop
  endfacet
  facet normal  9.238795e-001 -3.826834e-001  0.000000e+000
    outer loop
      vertex -2.775681e-001 -8.500000e+000 -5.000000e+000
      vertex  1.420739e+000 -4.399924e+000  1.500000e+000
      vertex -2.775681e-001 -8.500000e+000  1.500000e+000
    endloop
  endfacet
  facet normal  7.933533e-001 -6.087614e-001  0.000000e+000
    outer loop
      vertex -2.775681e-001 -8.500000e+000 -5.000000e+000
      vertex -2.775681e-001 -8.500000e+000  1.500000e+000
      vertex -2.979185e+000 -1.202081e+001 -5.000000e+000
    endloop
  endfacet
  facet normal  7.933533e-001 -6.087614e-001  0.000000e+000
    outer loop
      vertex -2.979185e+000 -1.202081e+001 -5.000000e+000
      vertex -2.775681e-001 -8.500000e+000  1.500000e+000
      vertex -2.979185e+000 -1.202081e+001  1.500000e+000
    endloop
  endfacet
  facet normal  6.087615e-001 -7.933533e-001  0.000000e+000
    outer loop
      vertex -2.979185e+000 -1.202081e+001 -5.000000e+000
      vertex -2.979185e+000 -1.202081e+001  1.500000e+000
      vertex -6.500000e+000 -1.472243e+001 -5.000000e+000
    endloop
  endfacet
  facet normal  6.087615e-001 -7.933533e-001  0.000000e+000
    outer loop
      vertex -6.500000e+000 -1.472243e+001 -5.000000e+000
      vertex -2.979185e+000 -1.202081e+001  1.500000e+000
      vertex -6.500000e+000 -1.472243e+001  1.500000e+000
    endloop
  endfacet
  facet normal  3.826832e-001 -9.238796e-001  0.000000e+000
    outer loop
      vertex -6.500000e+000 -1.472243e+001 -5.000000e+000
      vertex -6.500000e+000 -1.472243e+001  1.500000e+000
      vertex -1.060008e+001 -1.642074e+001 -5.000000e+000
    endloop
  endfacet
  facet normal  3.826832e-001 -9.238796e-001  0.000000e+000
    outer loop
      vertex -1.060008e+001 -1.642074e+001 -5.000000e+000
      vertex -6.500000e+000 -1.472243e+001  1.500000e+000
      vertex -1.060008e+001 -1.642074e+001  1.500000e+000
    endloop
  endfacet
  facet normal  1.305264e-001 -9.914449e-001  0.000000e+000
    outer loop
      vertex -1.060008e+001 -1.642074e+001 -5.000000e+000
      vertex -1.060008e+001 -1.642074e+001  1.500000e+000
      vertex -1.500000e+001 -1.700000e+001 -5.000000e+000
    endloop
  endfacet
  facet normal  1.305264e-001 -9.914449e-001  0.000000e+000
    outer loop
      vertex -1.500000e+001 -1.700000e+001 -5.000000e+000
      vertex -1.060008e+001 -1.642074e+001  1.500000e+000
      vertex -1.500000e+001 -1.700000e+001  1.500000e+000
    endloop
  endfacet
endsolid CATIA STL
