solid CATIA STL
  facet normal  4.544612e-015  1.000000e+000 -1.400448e-014
    outer loop
      vertex -2.700000e+000  1.545168e-014  3.000000e+000
      vertex  7.000000e-001  0.000000e+000  3.000000e+000
      vertex -3.760660e+000  1.411924e-014  2.560660e+000
    endloop
  endfacet
  facet normal  9.185410e-017  1.000000e+000  3.120481e-014
    outer loop
      vertex -3.760660e+000  1.411924e-014  2.560660e+000
      vertex  7.000000e-001  0.000000e+000  3.000000e+000
      vertex  1.760660e+000  1.361209e-014  2.560660e+000
    endloop
  endfacet
  facet normal  9.185410e-017  9.999999e-001 -1.334980e-014
    outer loop
      vertex -3.760660e+000  1.411924e-014  2.560660e+000
      vertex  1.760660e+000  1.361209e-014  2.560660e+000
      vertex -4.200000e+000  0.000000e+000  1.500000e+000
    endloop
  endfacet
  facet normal  0.000000e+000  1.000000e+000 -1.283360e-014
    outer loop
      vertex -4.200000e+000  0.000000e+000  1.500000e+000
      vertex  1.760660e+000  1.361209e-014  2.560660e+000
      vertex  2.200000e+000  0.000000e+000  1.500000e+000
    endloop
  endfacet
  facet normal  0.000000e+000  1.000000e+000  0.000000e+000
    outer loop
      vertex -4.200000e+000  0.000000e+000  1.500000e+000
      vertex  2.200000e+000  0.000000e+000  1.500000e+000
      vertex -2.200000e+000  0.000000e+000  0.000000e+000
    endloop
  endfacet
  facet normal  0.000000e+000  1.000000e+000  0.000000e+000
    outer loop
      vertex -2.200000e+000  0.000000e+000  0.000000e+000
      vertex  2.200000e+000  0.000000e+000  1.500000e+000
      vertex  2.000000e-001  0.000000e+000  0.000000e+000
    endloop
  endfacet
  facet normal  0.000000e+000  1.000000e+000  0.000000e+000
    outer loop
      vertex  2.200000e+000  0.000000e+000 -5.000000e+000
      vertex  2.000000e-001  0.000000e+000 -5.000000e+000
      vertex  2.200000e+000  0.000000e+000  1.500000e+000
    endloop
  endfacet
  facet normal  0.000000e+000  1.000000e+000  0.000000e+000
    outer loop
      vertex  2.200000e+000  0.000000e+000  1.500000e+000
      vertex  2.000000e-001  0.000000e+000 -5.000000e+000
      vertex  2.000000e-001  0.000000e+000  0.000000e+000
    endloop
  endfacet
  facet normal  0.000000e+000  1.000000e+000  0.000000e+000
    outer loop
      vertex -2.200000e+000  0.000000e+000 -5.000000e+000
      vertex -4.200000e+000  0.000000e+000 -5.000000e+000
      vertex -2.200000e+000  0.000000e+000  0.000000e+000
    endloop
  endfacet
  facet normal  0.000000e+000  1.000000e+000  0.000000e+000
    outer loop
      vertex -2.200000e+000  0.000000e+000  0.000000e+000
      vertex -4.200000e+000  0.000000e+000 -5.000000e+000
      vertex -4.200000e+000  0.000000e+000  1.500000e+000
    endloop
  endfacet
  facet normal -1.000000e+000  0.000000e+000  0.000000e+000
    outer loop
      vertex -1.500000e+001 -1.123934e+001  2.560660e+000
      vertex -1.500000e+001 -1.570000e+001  3.000000e+000
      vertex -1.500000e+001 -1.230000e+001  3.000000e+000
    endloop
  endfacet
  facet normal -1.000000e+000  0.000000e+000  0.000000e+000
    outer loop
      vertex -1.500000e+001 -1.570000e+001  3.000000e+000
      vertex -1.500000e+001 -1.123934e+001  2.560660e+000
      vertex -1.500000e+001 -1.676066e+001  2.560660e+000
    endloop
  endfacet
  facet normal -9.999999e-001  0.000000e+000  0.000000e+000
    outer loop
      vertex -1.500000e+001 -1.676066e+001  2.560660e+000
      vertex -1.500000e+001 -1.123934e+001  2.560660e+000
      vertex -1.500000e+001 -1.080000e+001  1.500000e+000
    endloop
  endfacet
  facet normal -1.000000e+000  0.000000e+000  0.000000e+000
    outer loop
      vertex -1.500000e+001 -1.676066e+001  2.560660e+000
      vertex -1.500000e+001 -1.080000e+001  1.500000e+000
      vertex -1.500000e+001 -1.720000e+001  1.500000e+000
    endloop
  endfacet
  facet normal -1.000000e+000  0.000000e+000  0.000000e+000
    outer loop
      vertex -1.500000e+001 -1.720000e+001  1.500000e+000
      vertex -1.500000e+001 -1.080000e+001  1.500000e+000
      vertex -1.500000e+001 -1.280000e+001  0.000000e+000
    endloop
  endfacet
  facet normal -1.000000e+000  0.000000e+000  0.000000e+000
    outer loop
      vertex -1.500000e+001 -1.720000e+001  1.500000e+000
      vertex -1.500000e+001 -1.280000e+001  0.000000e+000
      vertex -1.500000e+001 -1.520000e+001  0.000000e+000
    endloop
  endfacet
  facet normal -1.000000e+000  0.000000e+000  0.000000e+000
    outer loop
      vertex -1.500000e+001 -1.720000e+001 -5.000000e+000
      vertex -1.500000e+001 -1.720000e+001  1.500000e+000
      vertex -1.500000e+001 -1.520000e+001 -5.000000e+000
    endloop
  endfacet
  facet normal -9.999999e-001  0.000000e+000  0.000000e+000
    outer loop
      vertex -1.500000e+001 -1.520000e+001 -5.000000e+000
      vertex -1.500000e+001 -1.720000e+001  1.500000e+000
      vertex -1.500000e+001 -1.520000e+001  0.000000e+000
    endloop
  endfacet
  facet normal -1.000000e+000  0.000000e+000  0.000000e+000
    outer loop
      vertex -1.500000e+001 -1.280000e+001 -5.000000e+000
      vertex -1.500000e+001 -1.280000e+001  0.000000e+000
      vertex -1.500000e+001 -1.080000e+001 -5.000000e+000
    endloop
  endfacet
  facet normal -1.000000e+000  0.000000e+000  0.000000e+000
    outer loop
      vertex -1.500000e+001 -1.080000e+001 -5.000000e+000
      vertex -1.500000e+001 -1.280000e+001  0.000000e+000
      vertex -1.500000e+001 -1.080000e+001  1.500000e+000
    endloop
  endfacet
  facet normal  5.031743e-002 -3.821986e-001  9.227092e-001
    outer loop
      vertex -1.500000e+001 -1.570000e+001  3.000000e+000
      vertex -1.500000e+001 -1.676066e+001  2.560660e+000
      vertex -1.066202e+001 -1.618955e+001  2.560660e+000
    endloop
  endfacet
  facet normal  5.531824e-002 -3.492657e-001  9.353894e-001
    outer loop
      vertex -1.500000e+001 -1.570000e+001  3.000000e+000
      vertex -1.066202e+001 -1.618955e+001  2.560660e+000
      vertex -1.014843e+001 -1.493159e+001  3.000000e+000
    endloop
  endfacet
  facet normal  3.492656e-001 -5.531824e-002  9.353894e-001
    outer loop
      vertex  7.000000e-001  0.000000e+000  3.000000e+000
      vertex -6.841269e-002 -4.851567e+000  3.000000e+000
      vertex  1.189555e+000 -4.337978e+000  2.560660e+000
    endloop
  endfacet
  facet normal  3.821987e-001 -5.031741e-002  9.227092e-001
    outer loop
      vertex  7.000000e-001  0.000000e+000  3.000000e+000
      vertex  1.189555e+000 -4.337978e+000  2.560660e+000
      vertex  1.760660e+000  1.361209e-014  2.560660e+000
    endloop
  endfacet
  facet normal  1.526020e-001 -2.994983e-001  9.418139e-001
    outer loop
      vertex -6.619670e+000 -1.451516e+001  2.560660e+000
      vertex -5.771771e+000 -1.270157e+001  3.000000e+000
      vertex -1.014843e+001 -1.493159e+001  3.000000e+000
    endloop
  endfacet
  facet normal  1.584750e-001 -3.825926e-001  9.102244e-001
    outer loop
      vertex -6.619670e+000 -1.451516e+001  2.560660e+000
      vertex -1.014843e+001 -1.493159e+001  3.000000e+000
      vertex -1.066202e+001 -1.618955e+001  2.560660e+000
    endloop
  endfacet
  facet normal  2.338093e-001 -2.338093e-001  9.437512e-001
    outer loop
      vertex -3.148423e+000 -1.185158e+001  2.560660e+000
      vertex -2.298433e+000 -9.228229e+000  3.000000e+000
      vertex -5.771771e+000 -1.270157e+001  3.000000e+000
    endloop
  endfacet
  facet normal  2.617184e-001 -3.410781e-001  9.028672e-001
    outer loop
      vertex -3.148423e+000 -1.185158e+001  2.560660e+000
      vertex -5.771771e+000 -1.270157e+001  3.000000e+000
      vertex -6.619670e+000 -1.451516e+001  2.560660e+000
    endloop
  endfacet
  facet normal  2.994983e-001 -1.526020e-001  9.418139e-001
    outer loop
      vertex -4.848425e-001 -8.380330e+000  2.560660e+000
      vertex -6.841269e-002 -4.851567e+000  3.000000e+000
      vertex -2.298433e+000 -9.228229e+000  3.000000e+000
    endloop
  endfacet
  facet normal  3.410781e-001 -2.617184e-001  9.028671e-001
    outer loop
      vertex -4.848425e-001 -8.380330e+000  2.560660e+000
      vertex -2.298433e+000 -9.228229e+000  3.000000e+000
      vertex -3.148423e+000 -1.185158e+001  2.560660e+000
    endloop
  endfacet
  facet normal  3.825926e-001 -1.584750e-001  9.102244e-001
    outer loop
      vertex  1.189555e+000 -4.337978e+000  2.560660e+000
      vertex -6.841269e-002 -4.851567e+000  3.000000e+000
      vertex -4.848425e-001 -8.380330e+000  2.560660e+000
    endloop
  endfacet
  facet normal  1.207412e-001 -9.171202e-001  3.798843e-001
    outer loop
      vertex -1.500000e+001 -1.676066e+001  2.560660e+000
      vertex -1.500000e+001 -1.720000e+001  1.500000e+000
      vertex -1.066202e+001 -1.618955e+001  2.560660e+000
    endloop
  endfacet
  facet normal  1.207414e-001 -9.171203e-001  3.798838e-001
    outer loop
      vertex -1.066202e+001 -1.618955e+001  2.560660e+000
      vertex -1.500000e+001 -1.720000e+001  1.500000e+000
      vertex -1.054831e+001 -1.661392e+001  1.500000e+000
    endloop
  endfacet
  facet normal  3.539952e-001 -8.546202e-001  3.798838e-001
    outer loop
      vertex -1.066202e+001 -1.618955e+001  2.560660e+000
      vertex -1.054831e+001 -1.661392e+001  1.500000e+000
      vertex -6.619670e+000 -1.451516e+001  2.560660e+000
    endloop
  endfacet
  facet normal  3.539954e-001 -8.546203e-001  3.798833e-001
    outer loop
      vertex -6.619670e+000 -1.451516e+001  2.560660e+000
      vertex -1.054831e+001 -1.661392e+001  1.500000e+000
      vertex -6.400000e+000 -1.489564e+001  1.500000e+000
    endloop
  endfacet
  facet normal  5.631253e-001 -7.338791e-001  3.798833e-001
    outer loop
      vertex -6.619670e+000 -1.451516e+001  2.560660e+000
      vertex -6.400000e+000 -1.489564e+001  1.500000e+000
      vertex -3.148423e+000 -1.185158e+001  2.560660e+000
    endloop
  endfacet
  facet normal  5.631253e-001 -7.338791e-001  3.798833e-001
    outer loop
      vertex -3.148423e+000 -1.185158e+001  2.560660e+000
      vertex -6.400000e+000 -1.489564e+001  1.500000e+000
      vertex -2.837763e+000 -1.216224e+001  1.500000e+000
    endloop
  endfacet
  facet normal  7.338791e-001 -5.631252e-001  3.798833e-001
    outer loop
      vertex -3.148423e+000 -1.185158e+001  2.560660e+000
      vertex -2.837763e+000 -1.216224e+001  1.500000e+000
      vertex -4.848425e-001 -8.380330e+000  2.560660e+000
    endloop
  endfacet
  facet normal  7.338789e-001 -5.631252e-001  3.798839e-001
    outer loop
      vertex -4.848425e-001 -8.380330e+000  2.560660e+000
      vertex -2.837763e+000 -1.216224e+001  1.500000e+000
      vertex -1.043631e-001 -8.600000e+000  1.500000e+000
    endloop
  endfacet
  facet normal  8.546202e-001 -3.539953e-001  3.798839e-001
    outer loop
      vertex -4.848425e-001 -8.380330e+000  2.560660e+000
      vertex -1.043631e-001 -8.600000e+000  1.500000e+000
      vertex  1.189555e+000 -4.337978e+000  2.560660e+000
    endloop
  endfacet
  facet normal  8.546202e-001 -3.539953e-001  3.798839e-001
    outer loop
      vertex  1.189555e+000 -4.337978e+000  2.560660e+000
      vertex -1.043631e-001 -8.600000e+000  1.500000e+000
      vertex  1.613924e+000 -4.451688e+000  1.500000e+000
    endloop
  endfacet
  facet normal  9.171204e-001 -1.207412e-001  3.798838e-001
    outer loop
      vertex  1.189555e+000 -4.337978e+000  2.560660e+000
      vertex  1.613924e+000 -4.451688e+000  1.500000e+000
      vertex  1.760660e+000  1.361209e-014  2.560660e+000
    endloop
  endfacet
  facet normal  9.171203e-001 -1.207412e-001  3.798837e-001
    outer loop
      vertex  1.760660e+000  1.361209e-014  2.560660e+000
      vertex  1.613924e+000 -4.451688e+000  1.500000e+000
      vertex  2.200000e+000  0.000000e+000  1.500000e+000
    endloop
  endfacet
  facet normal  0.000000e+000  0.000000e+000  1.000000e+000
    outer loop
      vertex -6.841269e-002 -4.851567e+000  3.000000e+000
      vertex  7.000000e-001  0.000000e+000  3.000000e+000
      vertex -2.298433e+000 -9.228229e+000  3.000000e+000
    endloop
  endfacet
  facet normal  0.000000e+000  -0.000000e+000  1.000000e+000
    outer loop
      vertex -2.298433e+000 -9.228229e+000  3.000000e+000
      vertex  7.000000e-001  0.000000e+000  3.000000e+000
      vertex -2.700000e+000  1.545168e-014  3.000000e+000
    endloop
  endfacet
  facet normal  0.000000e+000  0.000000e+000  1.000000e+000
    outer loop
      vertex -2.298433e+000 -9.228229e+000  3.000000e+000
      vertex -2.700000e+000  1.545168e-014  3.000000e+000
      vertex -3.302005e+000 -3.800909e+000  3.000000e+000
    endloop
  endfacet
  facet normal  0.000000e+000  0.000000e+000  1.000000e+000
    outer loop
      vertex -2.298433e+000 -9.228229e+000  3.000000e+000
      vertex -3.302005e+000 -3.800909e+000  3.000000e+000
      vertex -5.771771e+000 -1.270157e+001  3.000000e+000
    endloop
  endfacet
  facet normal  0.000000e+000  0.000000e+000  1.000000e+000
    outer loop
      vertex -5.771771e+000 -1.270157e+001  3.000000e+000
      vertex -3.302005e+000 -3.800909e+000  3.000000e+000
      vertex -5.049091e+000 -7.229759e+000  3.000000e+000
    endloop
  endfacet
  facet normal  0.000000e+000  0.000000e+000  1.000000e+000
    outer loop
      vertex -5.771771e+000 -1.270157e+001  3.000000e+000
      vertex -5.049091e+000 -7.229759e+000  3.000000e+000
      vertex -1.014843e+001 -1.493159e+001  3.000000e+000
    endloop
  endfacet
  facet normal  0.000000e+000  0.000000e+000  1.000000e+000
    outer loop
      vertex -1.014843e+001 -1.493159e+001  3.000000e+000
      vertex -5.049091e+000 -7.229759e+000  3.000000e+000
      vertex -7.770241e+000 -9.950909e+000  3.000000e+000
    endloop
  endfacet
  facet normal  0.000000e+000  0.000000e+000  1.000000e+000
    outer loop
      vertex -1.014843e+001 -1.493159e+001  3.000000e+000
      vertex -7.770241e+000 -9.950909e+000  3.000000e+000
      vertex -1.119909e+001 -1.169800e+001  3.000000e+000
    endloop
  endfacet
  facet normal  -0.000000e+000  0.000000e+000  9.999999e-001
    outer loop
      vertex -1.119909e+001 -1.169800e+001  3.000000e+000
      vertex -1.500000e+001 -1.230000e+001  3.000000e+000
      vertex -1.014843e+001 -1.493159e+001  3.000000e+000
    endloop
  endfacet
  facet normal  0.000000e+000  0.000000e+000  1.000000e+000
    outer loop
      vertex -1.014843e+001 -1.493159e+001  3.000000e+000
      vertex -1.500000e+001 -1.230000e+001  3.000000e+000
      vertex -1.500000e+001 -1.570000e+001  3.000000e+000
    endloop
  endfacet
  facet normal -9.141446e-001  1.447863e-001  3.786509e-001
    outer loop
      vertex -4.200000e+000  0.000000e+000  1.500000e+000
      vertex -4.728590e+000 -3.337384e+000  1.500000e+000
      vertex -3.760660e+000  1.411924e-014  2.560660e+000
    endloop
  endfacet
  facet normal -9.141446e-001  1.447862e-001  3.786512e-001
    outer loop
      vertex -3.760660e+000  1.411924e-014  2.560660e+000
      vertex -4.728590e+000 -3.337384e+000  1.500000e+000
      vertex -4.310752e+000 -3.473147e+000  2.560660e+000
    endloop
  endfacet
  facet normal -3.819825e-001  6.050006e-002  9.221871e-001
    outer loop
      vertex -3.760660e+000  1.411924e-014  2.560660e+000
      vertex -4.310752e+000 -3.473147e+000  2.560660e+000
      vertex -2.700000e+000  1.545168e-014  3.000000e+000
    endloop
  endfacet
  facet normal -3.819825e-001  6.050008e-002  9.221871e-001
    outer loop
      vertex -2.700000e+000  1.545168e-014  3.000000e+000
      vertex -4.310752e+000 -3.473147e+000  2.560660e+000
      vertex -3.302005e+000 -3.800909e+000  3.000000e+000
    endloop
  endfacet
  facet normal -1.447864e-001  9.141445e-001  3.786513e-001
    outer loop
      vertex -1.166262e+001 -1.027141e+001  1.500000e+000
      vertex -1.500000e+001 -1.080000e+001  1.500000e+000
      vertex -1.152685e+001 -1.068925e+001  2.560660e+000
    endloop
  endfacet
  facet normal -1.447863e-001  9.141446e-001  3.786509e-001
    outer loop
      vertex -1.152685e+001 -1.068925e+001  2.560660e+000
      vertex -1.500000e+001 -1.080000e+001  1.500000e+000
      vertex -1.500000e+001 -1.123934e+001  2.560660e+000
    endloop
  endfacet
  facet normal -6.050008e-002  3.819824e-001  9.221871e-001
    outer loop
      vertex -1.152685e+001 -1.068925e+001  2.560660e+000
      vertex -1.500000e+001 -1.123934e+001  2.560660e+000
      vertex -1.119909e+001 -1.169800e+001  3.000000e+000
    endloop
  endfacet
  facet normal -6.050008e-002  3.819824e-001  9.221872e-001
    outer loop
      vertex -1.119909e+001 -1.169800e+001  3.000000e+000
      vertex -1.500000e+001 -1.123934e+001  2.560660e+000
      vertex -1.500000e+001 -1.230000e+001  3.000000e+000
    endloop
  endfacet
  facet normal -4.201859e-001  8.246618e-001  3.786513e-001
    outer loop
      vertex -8.651919e+000 -8.737384e+000  1.500000e+000
      vertex -1.166262e+001 -1.027141e+001  1.500000e+000
      vertex -8.393682e+000 -9.092817e+000  2.560660e+000
    endloop
  endfacet
  facet normal -4.201860e-001  8.246616e-001  3.786514e-001
    outer loop
      vertex -8.393682e+000 -9.092817e+000  2.560660e+000
      vertex -1.166262e+001 -1.027141e+001  1.500000e+000
      vertex -1.152685e+001 -1.068925e+001  2.560660e+000
    endloop
  endfacet
  facet normal -1.755781e-001  3.445916e-001  9.221870e-001
    outer loop
      vertex -8.393682e+000 -9.092817e+000  2.560660e+000
      vertex -1.152685e+001 -1.068925e+001  2.560660e+000
      vertex -7.770241e+000 -9.950909e+000  3.000000e+000
    endloop
  endfacet
  facet normal -1.755781e-001  3.445913e-001  9.221872e-001
    outer loop
      vertex -7.770241e+000 -9.950909e+000  3.000000e+000
      vertex -1.152685e+001 -1.068925e+001  2.560660e+000
      vertex -1.119909e+001 -1.169800e+001  3.000000e+000
    endloop
  endfacet
  facet normal -6.544553e-001  6.544552e-001  3.786511e-001
    outer loop
      vertex -6.262617e+000 -6.348081e+000  1.500000e+000
      vertex -8.651919e+000 -8.737384e+000  1.500000e+000
      vertex -5.907183e+000 -6.606318e+000  2.560660e+000
    endloop
  endfacet
  facet normal -6.544553e-001  6.544550e-001  3.786513e-001
    outer loop
      vertex -5.907183e+000 -6.606318e+000  2.560660e+000
      vertex -8.651919e+000 -8.737384e+000  1.500000e+000
      vertex -8.393682e+000 -9.092817e+000  2.560660e+000
    endloop
  endfacet
  facet normal -2.734692e-001  2.734691e-001  9.221871e-001
    outer loop
      vertex -5.907183e+000 -6.606318e+000  2.560660e+000
      vertex -8.393682e+000 -9.092817e+000  2.560660e+000
      vertex -5.049091e+000 -7.229759e+000  3.000000e+000
    endloop
  endfacet
  facet normal -2.734693e-001  2.734694e-001  9.221870e-001
    outer loop
      vertex -5.049091e+000 -7.229759e+000  3.000000e+000
      vertex -8.393682e+000 -9.092817e+000  2.560660e+000
      vertex -7.770241e+000 -9.950909e+000  3.000000e+000
    endloop
  endfacet
  facet normal -8.246617e-001  4.201862e-001  3.786512e-001
    outer loop
      vertex -4.728590e+000 -3.337384e+000  1.500000e+000
      vertex -6.262617e+000 -6.348081e+000  1.500000e+000
      vertex -4.310752e+000 -3.473147e+000  2.560660e+000
    endloop
  endfacet
  facet normal -8.246617e-001  4.201862e-001  3.786511e-001
    outer loop
      vertex -4.310752e+000 -3.473147e+000  2.560660e+000
      vertex -6.262617e+000 -6.348081e+000  1.500000e+000
      vertex -5.907183e+000 -6.606318e+000  2.560660e+000
    endloop
  endfacet
  facet normal -3.445914e-001  1.755781e-001  9.221871e-001
    outer loop
      vertex -4.310752e+000 -3.473147e+000  2.560660e+000
      vertex -5.907183e+000 -6.606318e+000  2.560660e+000
      vertex -3.302005e+000 -3.800909e+000  3.000000e+000
    endloop
  endfacet
  facet normal -3.445913e-001  1.755780e-001  9.221871e-001
    outer loop
      vertex -3.302005e+000 -3.800909e+000  3.000000e+000
      vertex -5.907183e+000 -6.606318e+000  2.560660e+000
      vertex -5.049091e+000 -7.229759e+000  3.000000e+000
    endloop
  endfacet
  facet normal -8.910065e-001  4.539906e-001  0.000000e+000
    outer loop
      vertex -6.262617e+000 -6.348081e+000 -5.000000e+000
      vertex -4.728590e+000 -3.337384e+000  1.500000e+000
      vertex -4.728590e+000 -3.337384e+000 -5.000000e+000
    endloop
  endfacet
  facet normal -9.876884e-001  1.564345e-001  0.000000e+000
    outer loop
      vertex -4.728590e+000 -3.337384e+000 -5.000000e+000
      vertex -4.728590e+000 -3.337384e+000  1.500000e+000
      vertex -4.200000e+000  0.000000e+000  1.500000e+000
    endloop
  endfacet
  facet normal -9.876884e-001  1.564345e-001  0.000000e+000
    outer loop
      vertex -4.728590e+000 -3.337384e+000 -5.000000e+000
      vertex -4.200000e+000  0.000000e+000  1.500000e+000
      vertex -4.200000e+000  0.000000e+000 -5.000000e+000
    endloop
  endfacet
  facet normal -8.910065e-001  4.539906e-001  0.000000e+000
    outer loop
      vertex -4.728590e+000 -3.337384e+000  1.500000e+000
      vertex -6.262617e+000 -6.348081e+000 -5.000000e+000
      vertex -6.262617e+000 -6.348081e+000  1.500000e+000
    endloop
  endfacet
  facet normal -7.071069e-001  7.071068e-001  0.000000e+000
    outer loop
      vertex -6.262617e+000 -6.348081e+000  1.500000e+000
      vertex -6.262617e+000 -6.348081e+000 -5.000000e+000
      vertex -8.651919e+000 -8.737384e+000 -5.000000e+000
    endloop
  endfacet
  facet normal -7.071069e-001  7.071068e-001  0.000000e+000
    outer loop
      vertex -6.262617e+000 -6.348081e+000  1.500000e+000
      vertex -8.651919e+000 -8.737384e+000 -5.000000e+000
      vertex -8.651919e+000 -8.737384e+000  1.500000e+000
    endloop
  endfacet
  facet normal -4.539903e-001  8.910066e-001  0.000000e+000
    outer loop
      vertex -8.651919e+000 -8.737384e+000  1.500000e+000
      vertex -8.651919e+000 -8.737384e+000 -5.000000e+000
      vertex -1.166262e+001 -1.027141e+001 -5.000000e+000
    endloop
  endfacet
  facet normal -4.539903e-001  8.910066e-001  0.000000e+000
    outer loop
      vertex -8.651919e+000 -8.737384e+000  1.500000e+000
      vertex -1.166262e+001 -1.027141e+001 -5.000000e+000
      vertex -1.166262e+001 -1.027141e+001  1.500000e+000
    endloop
  endfacet
  facet normal -1.564346e-001  9.876883e-001  0.000000e+000
    outer loop
      vertex -1.166262e+001 -1.027141e+001  1.500000e+000
      vertex -1.166262e+001 -1.027141e+001 -5.000000e+000
      vertex -1.500000e+001 -1.080000e+001 -5.000000e+000
    endloop
  endfacet
  facet normal -1.564346e-001  9.876883e-001  0.000000e+000
    outer loop
      vertex -1.166262e+001 -1.027141e+001  1.500000e+000
      vertex -1.500000e+001 -1.080000e+001 -5.000000e+000
      vertex -1.500000e+001 -1.080000e+001  1.500000e+000
    endloop
  endfacet
  facet normal  0.000000e+000  0.000000e+000 -9.999999e-001
    outer loop
      vertex -4.728590e+000 -3.337384e+000 -5.000000e+000
      vertex -4.200000e+000  0.000000e+000 -5.000000e+000
      vertex -4.644582e+000 -7.523651e+000 -5.000000e+000
    endloop
  endfacet
  facet normal  0.000000e+000  0.000000e+000 -9.999999e-001
    outer loop
      vertex -4.644582e+000 -7.523651e+000 -5.000000e+000
      vertex -4.200000e+000  0.000000e+000 -5.000000e+000
      vertex -2.200000e+000  0.000000e+000 -5.000000e+000
    endloop
  endfacet
  facet normal  0.000000e+000  0.000000e+000 -1.000000e+000
    outer loop
      vertex -4.644582e+000 -7.523651e+000 -5.000000e+000
      vertex -2.200000e+000  0.000000e+000 -5.000000e+000
      vertex -2.826477e+000 -3.955418e+000 -5.000000e+000
    endloop
  endfacet
  facet normal  0.000000e+000  0.000000e+000 -1.000000e+000
    outer loop
      vertex -8.651919e+000 -8.737384e+000 -5.000000e+000
      vertex -6.262617e+000 -6.348081e+000 -5.000000e+000
      vertex -7.476349e+000 -1.035542e+001 -5.000000e+000
    endloop
  endfacet
  facet normal  0.000000e+000  0.000000e+000 -9.999999e-001
    outer loop
      vertex -7.476349e+000 -1.035542e+001 -5.000000e+000
      vertex -6.262617e+000 -6.348081e+000 -5.000000e+000
      vertex -4.728590e+000 -3.337384e+000 -5.000000e+000
    endloop
  endfacet
  facet normal  0.000000e+000  -0.000000e+000 -1.000000e+000
    outer loop
      vertex -7.476349e+000 -1.035542e+001 -5.000000e+000
      vertex -4.728590e+000 -3.337384e+000 -5.000000e+000
      vertex -4.644582e+000 -7.523651e+000 -5.000000e+000
    endloop
  endfacet
  facet normal  0.000000e+000  0.000000e+000 -1.000000e+000
    outer loop
      vertex -7.476349e+000 -1.035542e+001 -5.000000e+000
      vertex -1.104458e+001 -1.217352e+001 -5.000000e+000
      vertex -8.651919e+000 -8.737384e+000 -5.000000e+000
    endloop
  endfacet
  facet normal  0.000000e+000  0.000000e+000 -1.000000e+000
    outer loop
      vertex -8.651919e+000 -8.737384e+000 -5.000000e+000
      vertex -1.104458e+001 -1.217352e+001 -5.000000e+000
      vertex -1.166262e+001 -1.027141e+001 -5.000000e+000
    endloop
  endfacet
  facet normal  0.000000e+000  0.000000e+000 -9.999999e-001
    outer loop
      vertex -1.104458e+001 -1.217352e+001 -5.000000e+000
      vertex -1.500000e+001 -1.280000e+001 -5.000000e+000
      vertex -1.166262e+001 -1.027141e+001 -5.000000e+000
    endloop
  endfacet
  facet normal  0.000000e+000  0.000000e+000 -1.000000e+000
    outer loop
      vertex -1.166262e+001 -1.027141e+001 -5.000000e+000
      vertex -1.500000e+001 -1.280000e+001 -5.000000e+000
      vertex -1.500000e+001 -1.080000e+001 -5.000000e+000
    endloop
  endfacet
  facet normal  9.876884e-001 -1.564344e-001  0.000000e+000
    outer loop
      vertex -2.200000e+000  0.000000e+000 -5.000000e+000
      vertex -2.200000e+000  0.000000e+000  0.000000e+000
      vertex -2.826477e+000 -3.955418e+000 -5.000000e+000
    endloop
  endfacet
  facet normal  9.876884e-001 -1.564344e-001  0.000000e+000
    outer loop
      vertex -2.826477e+000 -3.955418e+000 -5.000000e+000
      vertex -2.200000e+000  0.000000e+000  0.000000e+000
      vertex -2.826477e+000 -3.955418e+000  0.000000e+000
    endloop
  endfacet
  facet normal  8.910065e-001 -4.539905e-001  0.000000e+000
    outer loop
      vertex -2.826477e+000 -3.955418e+000 -5.000000e+000
      vertex -2.826477e+000 -3.955418e+000  0.000000e+000
      vertex -4.644582e+000 -7.523651e+000 -5.000000e+000
    endloop
  endfacet
  facet normal  8.910065e-001 -4.539905e-001  0.000000e+000
    outer loop
      vertex -4.644582e+000 -7.523651e+000 -5.000000e+000
      vertex -2.826477e+000 -3.955418e+000  0.000000e+000
      vertex -4.644582e+000 -7.523651e+000  0.000000e+000
    endloop
  endfacet
  facet normal  7.071067e-001 -7.071068e-001  0.000000e+000
    outer loop
      vertex -4.644582e+000 -7.523651e+000 -5.000000e+000
      vertex -4.644582e+000 -7.523651e+000  0.000000e+000
      vertex -7.476349e+000 -1.035542e+001 -5.000000e+000
    endloop
  endfacet
  facet normal  7.071067e-001 -7.071068e-001  0.000000e+000
    outer loop
      vertex -7.476349e+000 -1.035542e+001 -5.000000e+000
      vertex -4.644582e+000 -7.523651e+000  0.000000e+000
      vertex -7.476349e+000 -1.035542e+001  0.000000e+000
    endloop
  endfacet
  facet normal  4.539905e-001 -8.910065e-001  0.000000e+000
    outer loop
      vertex -7.476349e+000 -1.035542e+001 -5.000000e+000
      vertex -7.476349e+000 -1.035542e+001  0.000000e+000
      vertex -1.104458e+001 -1.217352e+001 -5.000000e+000
    endloop
  endfacet
  facet normal  4.539905e-001 -8.910065e-001  0.000000e+000
    outer loop
      vertex -1.104458e+001 -1.217352e+001 -5.000000e+000
      vertex -7.476349e+000 -1.035542e+001  0.000000e+000
      vertex -1.104458e+001 -1.217352e+001  0.000000e+000
    endloop
  endfacet
  facet normal  1.564346e-001 -9.876883e-001  0.000000e+000
    outer loop
      vertex -1.104458e+001 -1.217352e+001 -5.000000e+000
      vertex -1.104458e+001 -1.217352e+001  0.000000e+000
      vertex -1.500000e+001 -1.280000e+001 -5.000000e+000
    endloop
  endfacet
  facet normal  1.564346e-001 -9.876883e-001  0.000000e+000
    outer loop
      vertex -1.500000e+001 -1.280000e+001 -5.000000e+000
      vertex -1.104458e+001 -1.217352e+001  0.000000e+000
      vertex -1.500000e+001 -1.280000e+001  0.000000e+000
    endloop
  endfacet
  facet normal  0.000000e+000  0.000000e+000 -9.999999e-001
    outer loop
      vertex -2.826477e+000 -3.955418e+000  0.000000e+000
      vertex -2.200000e+000  0.000000e+000  0.000000e+000
      vertex -2.702942e+000 -8.934336e+000  0.000000e+000
    endloop
  endfacet
  facet normal  0.000000e+000  0.000000e+000 -1.000000e+000
    outer loop
      vertex -2.702942e+000 -8.934336e+000  0.000000e+000
      vertex -2.200000e+000  0.000000e+000  0.000000e+000
      vertex  2.000000e-001  0.000000e+000  0.000000e+000
    endloop
  endfacet
  facet normal  0.000000e+000  0.000000e+000 -1.000000e+000
    outer loop
      vertex -2.702942e+000 -8.934336e+000  0.000000e+000
      vertex  2.000000e-001  0.000000e+000  0.000000e+000
      vertex -5.439410e-001 -4.697058e+000  0.000000e+000
    endloop
  endfacet
  facet normal  0.000000e+000  0.000000e+000 -1.000000e+000
    outer loop
      vertex -7.476349e+000 -1.035542e+001  0.000000e+000
      vertex -4.644582e+000 -7.523651e+000  0.000000e+000
      vertex -6.065664e+000 -1.229706e+001  0.000000e+000
    endloop
  endfacet
  facet normal  0.000000e+000  0.000000e+000 -1.000000e+000
    outer loop
      vertex -6.065664e+000 -1.229706e+001  0.000000e+000
      vertex -4.644582e+000 -7.523651e+000  0.000000e+000
      vertex -2.826477e+000 -3.955418e+000  0.000000e+000
    endloop
  endfacet
  facet normal  0.000000e+000  -0.000000e+000 -1.000000e+000
    outer loop
      vertex -6.065664e+000 -1.229706e+001  0.000000e+000
      vertex -2.826477e+000 -3.955418e+000  0.000000e+000
      vertex -2.702942e+000 -8.934336e+000  0.000000e+000
    endloop
  endfacet
  facet normal  0.000000e+000  0.000000e+000 -1.000000e+000
    outer loop
      vertex -6.065664e+000 -1.229706e+001  0.000000e+000
      vertex -1.030294e+001 -1.445606e+001  0.000000e+000
      vertex -7.476349e+000 -1.035542e+001  0.000000e+000
    endloop
  endfacet
  facet normal  0.000000e+000  0.000000e+000 -1.000000e+000
    outer loop
      vertex -7.476349e+000 -1.035542e+001  0.000000e+000
      vertex -1.030294e+001 -1.445606e+001  0.000000e+000
      vertex -1.104458e+001 -1.217352e+001  0.000000e+000
    endloop
  endfacet
  facet normal  0.000000e+000  0.000000e+000 -1.000000e+000
    outer loop
      vertex -1.030294e+001 -1.445606e+001  0.000000e+000
      vertex -1.500000e+001 -1.520000e+001  0.000000e+000
      vertex -1.104458e+001 -1.217352e+001  0.000000e+000
    endloop
  endfacet
  facet normal  0.000000e+000  0.000000e+000 -1.000000e+000
    outer loop
      vertex -1.104458e+001 -1.217352e+001  0.000000e+000
      vertex -1.500000e+001 -1.520000e+001  0.000000e+000
      vertex -1.500000e+001 -1.280000e+001  0.000000e+000
    endloop
  endfacet
  facet normal -8.910065e-001  4.539904e-001  0.000000e+000
    outer loop
      vertex -2.702942e+000 -8.934336e+000 -5.000000e+000
      vertex -5.439410e-001 -4.697058e+000  0.000000e+000
      vertex -5.439410e-001 -4.697058e+000 -5.000000e+000
    endloop
  endfacet
  facet normal -9.876883e-001  1.564345e-001  0.000000e+000
    outer loop
      vertex -5.439410e-001 -4.697058e+000 -5.000000e+000
      vertex -5.439410e-001 -4.697058e+000  0.000000e+000
      vertex  2.000000e-001  0.000000e+000  0.000000e+000
    endloop
  endfacet
  facet normal -9.876883e-001  1.564345e-001  0.000000e+000
    outer loop
      vertex -5.439410e-001 -4.697058e+000 -5.000000e+000
      vertex  2.000000e-001  0.000000e+000  0.000000e+000
      vertex  2.000000e-001  0.000000e+000 -5.000000e+000
    endloop
  endfacet
  facet normal -8.910065e-001  4.539904e-001  0.000000e+000
    outer loop
      vertex -5.439410e-001 -4.697058e+000  0.000000e+000
      vertex -2.702942e+000 -8.934336e+000 -5.000000e+000
      vertex -2.702942e+000 -8.934336e+000  0.000000e+000
    endloop
  endfacet
  facet normal -7.071067e-001  7.071068e-001  0.000000e+000
    outer loop
      vertex -2.702942e+000 -8.934336e+000  0.000000e+000
      vertex -2.702942e+000 -8.934336e+000 -5.000000e+000
      vertex -6.065664e+000 -1.229706e+001 -5.000000e+000
    endloop
  endfacet
  facet normal -7.071067e-001  7.071068e-001  0.000000e+000
    outer loop
      vertex -2.702942e+000 -8.934336e+000  0.000000e+000
      vertex -6.065664e+000 -1.229706e+001 -5.000000e+000
      vertex -6.065664e+000 -1.229706e+001  0.000000e+000
    endloop
  endfacet
  facet normal -4.539906e-001  8.910064e-001  0.000000e+000
    outer loop
      vertex -6.065664e+000 -1.229706e+001  0.000000e+000
      vertex -6.065664e+000 -1.229706e+001 -5.000000e+000
      vertex -1.030294e+001 -1.445606e+001 -5.000000e+000
    endloop
  endfacet
  facet normal -4.539906e-001  8.910064e-001  0.000000e+000
    outer loop
      vertex -6.065664e+000 -1.229706e+001  0.000000e+000
      vertex -1.030294e+001 -1.445606e+001 -5.000000e+000
      vertex -1.030294e+001 -1.445606e+001  0.000000e+000
    endloop
  endfacet
  facet normal -1.564343e-001  9.876884e-001  0.000000e+000
    outer loop
      vertex -1.030294e+001 -1.445606e+001  0.000000e+000
      vertex -1.030294e+001 -1.445606e+001 -5.000000e+000
      vertex -1.500000e+001 -1.520000e+001 -5.000000e+000
    endloop
  endfacet
  facet normal -1.564343e-001  9.876884e-001  0.000000e+000
    outer loop
      vertex -1.030294e+001 -1.445606e+001  0.000000e+000
      vertex -1.500000e+001 -1.520000e+001 -5.000000e+000
      vertex -1.500000e+001 -1.520000e+001  0.000000e+000
    endloop
  endfacet
  facet normal  0.000000e+000  0.000000e+000 -1.000000e+000
    outer loop
      vertex -5.439410e-001 -4.697058e+000 -5.000000e+000
      vertex  2.000000e-001  0.000000e+000 -5.000000e+000
      vertex -1.043631e-001 -8.600000e+000 -5.000000e+000
    endloop
  endfacet
  facet normal  0.000000e+000  0.000000e+000 -1.000000e+000
    outer loop
      vertex -1.043631e-001 -8.600000e+000 -5.000000e+000
      vertex  2.000000e-001  0.000000e+000 -5.000000e+000
      vertex  2.200000e+000  0.000000e+000 -5.000000e+000
    endloop
  endfacet
  facet normal  0.000000e+000  0.000000e+000 -1.000000e+000
    outer loop
      vertex -1.043631e-001 -8.600000e+000 -5.000000e+000
      vertex  2.200000e+000  0.000000e+000 -5.000000e+000
      vertex  1.613924e+000 -4.451688e+000 -5.000000e+000
    endloop
  endfacet
  facet normal  0.000000e+000  0.000000e+000 -1.000000e+000
    outer loop
      vertex -6.400000e+000 -1.489564e+001 -5.000000e+000
      vertex -2.702942e+000 -8.934336e+000 -5.000000e+000
      vertex -2.837763e+000 -1.216224e+001 -5.000000e+000
    endloop
  endfacet
  facet normal  0.000000e+000  0.000000e+000 -1.000000e+000
    outer loop
      vertex -2.837763e+000 -1.216224e+001 -5.000000e+000
      vertex -2.702942e+000 -8.934336e+000 -5.000000e+000
      vertex -5.439410e-001 -4.697058e+000 -5.000000e+000
    endloop
  endfacet
  facet normal  0.000000e+000  -0.000000e+000 -1.000000e+000
    outer loop
      vertex -2.837763e+000 -1.216224e+001 -5.000000e+000
      vertex -5.439410e-001 -4.697058e+000 -5.000000e+000
      vertex -1.043631e-001 -8.600000e+000 -5.000000e+000
    endloop
  endfacet
  facet normal  0.000000e+000  0.000000e+000 -1.000000e+000
    outer loop
      vertex -2.702942e+000 -8.934336e+000 -5.000000e+000
      vertex -6.400000e+000 -1.489564e+001 -5.000000e+000
      vertex -6.065664e+000 -1.229706e+001 -5.000000e+000
    endloop
  endfacet
  facet normal  0.000000e+000  0.000000e+000 -1.000000e+000
    outer loop
      vertex -6.065664e+000 -1.229706e+001 -5.000000e+000
      vertex -6.400000e+000 -1.489564e+001 -5.000000e+000
      vertex -1.054831e+001 -1.661392e+001 -5.000000e+000
    endloop
  endfacet
  facet normal  0.000000e+000  0.000000e+000 -1.000000e+000
    outer loop
      vertex -6.065664e+000 -1.229706e+001 -5.000000e+000
      vertex -1.054831e+001 -1.661392e+001 -5.000000e+000
      vertex -1.030294e+001 -1.445606e+001 -5.000000e+000
    endloop
  endfacet
  facet normal  0.000000e+000  0.000000e+000 -1.000000e+000
    outer loop
      vertex -1.030294e+001 -1.445606e+001 -5.000000e+000
      vertex -1.054831e+001 -1.661392e+001 -5.000000e+000
      vertex -1.500000e+001 -1.720000e+001 -5.000000e+000
    endloop
  endfacet
  facet normal  0.000000e+000  0.000000e+000 -1.000000e+000
    outer loop
      vertex -1.030294e+001 -1.445606e+001 -5.000000e+000
      vertex -1.500000e+001 -1.720000e+001 -5.000000e+000
      vertex -1.500000e+001 -1.520000e+001 -5.000000e+000
    endloop
  endfacet
  facet normal  9.914449e-001 -1.305262e-001  0.000000e+000
    outer loop
      vertex  2.200000e+000  0.000000e+000 -5.000000e+000
      vertex  2.200000e+000  0.000000e+000  1.500000e+000
      vertex  1.613924e+000 -4.451688e+000 -5.000000e+000
    endloop
  endfacet
  facet normal  9.914449e-001 -1.305262e-001  0.000000e+000
    outer loop
      vertex  1.613924e+000 -4.451688e+000 -5.000000e+000
      vertex  2.200000e+000  0.000000e+000  1.500000e+000
      vertex  1.613924e+000 -4.451688e+000  1.500000e+000
    endloop
  endfacet
  facet normal  9.238796e-001 -3.826835e-001  0.000000e+000
    outer loop
      vertex  1.613924e+000 -4.451688e+000 -5.000000e+000
      vertex  1.613924e+000 -4.451688e+000  1.500000e+000
      vertex -1.043631e-001 -8.600000e+000 -5.000000e+000
    endloop
  endfacet
  facet normal  9.238796e-001 -3.826835e-001  0.000000e+000
    outer loop
      vertex -1.043631e-001 -8.600000e+000 -5.000000e+000
      vertex  1.613924e+000 -4.451688e+000  1.500000e+000
      vertex -1.043631e-001 -8.600000e+000  1.500000e+000
    endloop
  endfacet
  facet normal  7.933534e-001 -6.087615e-001  0.000000e+000
    outer loop
      vertex -1.043631e-001 -8.600000e+000 -5.000000e+000
      vertex -1.043631e-001 -8.600000e+000  1.500000e+000
      vertex -2.837763e+000 -1.216224e+001 -5.000000e+000
    endloop
  endfacet
  facet normal  7.933534e-001 -6.087615e-001  0.000000e+000
    outer loop
      vertex -2.837763e+000 -1.216224e+001 -5.000000e+000
      vertex -1.043631e-001 -8.600000e+000  1.500000e+000
      vertex -2.837763e+000 -1.216224e+001  1.500000e+000
    endloop
  endfacet
  facet normal  6.087614e-001 -7.933534e-001  0.000000e+000
    outer loop
      vertex -2.837763e+000 -1.216224e+001 -5.000000e+000
      vertex -2.837763e+000 -1.216224e+001  1.500000e+000
      vertex -6.400000e+000 -1.489564e+001 -5.000000e+000
    endloop
  endfacet
  facet normal  6.087614e-001 -7.933534e-001  0.000000e+000
    outer loop
      vertex -6.400000e+000 -1.489564e+001 -5.000000e+000
      vertex -2.837763e+000 -1.216224e+001  1.500000e+000
      vertex -6.400000e+000 -1.489564e+001  1.500000e+000
    endloop
  endfacet
  facet normal  3.826835e-001 -9.238795e-001  0.000000e+000
    outer loop
      vertex -6.400000e+000 -1.489564e+001 -5.000000e+000
      vertex -6.400000e+000 -1.489564e+001  1.500000e+000
      vertex -1.054831e+001 -1.661392e+001 -5.000000e+000
    endloop
  endfacet
  facet normal  3.826835e-001 -9.238795e-001  0.000000e+000
    outer loop
      vertex -1.054831e+001 -1.661392e+001 -5.000000e+000
      vertex -6.400000e+000 -1.489564e+001  1.500000e+000
      vertex -1.054831e+001 -1.661392e+001  1.500000e+000
    endloop
  endfacet
  facet normal  1.305264e-001 -9.914448e-001  0.000000e+000
    outer loop
      vertex -1.054831e+001 -1.661392e+001 -5.000000e+000
      vertex -1.054831e+001 -1.661392e+001  1.500000e+000
      vertex -1.500000e+001 -1.720000e+001 -5.000000e+000
    endloop
  endfacet
  facet normal  1.305264e-001 -9.914448e-001  0.000000e+000
    outer loop
      vertex -1.500000e+001 -1.720000e+001 -5.000000e+000
      vertex -1.054831e+001 -1.661392e+001  1.500000e+000
      vertex -1.500000e+001 -1.720000e+001  1.500000e+000
    endloop
  endfacet
endsolid CATIA STL
