<?xml version="1.0" encoding="utf-8" ?><!DOCTYPE svg PUBLIC "-//W3C//DTD SVG 1.1//EN" "http://www.w3.org/Graphics/SVG/1.1/DTD/svg11.dtd" 
[ <!ATTLIST svg 
  xmlns:dsy CDATA #FIXED "http://www.3ds.com/print"  
    dsy:text-version CDATA #IMPLIED > 

  <!ATTLIST text 
  xmlns:dsy CDATA #FIXED "http://www.3ds.com/print" 
    dsy:text-version CDATA #IMPLIED > 
]><svg xmlns="http://www.w3.org/2000/svg" xmlns:dsy="http://www.3ds.com/print" dsy:text-version="18000" width="297" height="210" viewBox="0 0 297 210" version="1.1"><title>Sheet.1</title><g stroke="rgb(0, 0, 0)" stroke-width="0.13" stroke-linecap="butt" stroke-linejoin="miter" fill="none"><path d="M 21.5 205 L 7.61182 205"/><path d="M 21.5 5 L 7.61182 5"/></g><g stroke="rgb(0, 0, 0)" stroke-width="0.35" stroke-linecap="butt" stroke-linejoin="miter" fill="none"><path d="M 273.5 5 L 23.5 5"/><path d="M 23.5 205 L 23.5 5"/><path d="M 23.5 205 L 273.5 205"/><path d="M 273.5 5 L 273.5 205"/></g><g stroke="rgb(0, 0, 0)" stroke-width="0.13" stroke-linecap="butt" stroke-linejoin="miter" fill="none"><path d="M 7.61182 109.967 L 7.61182 107.561 L 7.17811 107.561 L 7.17811 109.462 L 6.94107 109.356 L 6.74439 109.175 L 6.38632 108.615 L 6.23502 108.317 L 6.01816 107.985 L 5.766 107.748 L 5.46845 107.611 L 5.13056 107.561 L 4.70692 107.647 L 4.37407 107.884 L 4.16226 108.247 L 4.08661 108.716 L 4.17234 109.2 L 4.40937 109.568 L 4.78762 109.805 L 5.2869 109.886 L 5.3575 109.886 L 5.3575 109.427 L 5.31716 109.427 L 4.97422 109.382 L 4.72205 109.245 L 4.56067 109.029 L 4.5052 108.741 L 4.55563 108.449 L 4.68171 108.232 L 4.87839 108.09 L 5.12551 108.04 L 5.3575 108.075 L 5.55419 108.171 L 5.72566 108.333 L 5.87695 108.554 L 6.03834 108.852 L 6.35102 109.346 L 6.68387 109.694 L 7.08733 109.901 L 7.59669 109.967 L 7.61182 109.967 L 7.61182 109.967 z M 5.90217 106.215 L 6.69396 106.14 L 7.2588 105.903 L 7.60174 105.524 L 7.71269 105 L 7.60174 104.481 L 7.2588 104.102 L 6.69396 103.87 L 5.90217 103.79 L 5.11543 103.87 L 4.80275 103.966 L 4.54554 104.102 L 4.2026 104.481 L 4.08661 105 L 4.2026 105.524 L 4.55058 105.903 L 5.11543 106.14 L 5.90217 106.215 L 5.90217 106.215 z M 5.90217 105.731 L 5.29194 105.691 L 4.85318 105.565 L 4.59597 105.338 L 4.5052 105 L 4.59597 104.667 L 4.85318 104.44 L 5.29194 104.314 L 5.90217 104.274 L 6.51744 104.314 L 6.9562 104.44 L 7.21341 104.667 L 7.29914 105 L 7.21341 105.338 L 6.9562 105.565 L 6.51744 105.691 L 5.90217 105.731 L 5.90217 105.731 z M 5.90217 102.479 L 6.69396 102.404 L 7.2588 102.167 L 7.60174 101.788 L 7.71269 101.264 L 7.60174 100.745 L 7.2588 100.366 L 6.69396 100.134 L 5.90217 100.054 L 5.11543 100.134 L 4.80275 100.23 L 4.54554 100.366 L 4.2026 100.745 L 4.08661 101.264 L 4.2026 101.788 L 4.55058 102.167 L 5.11543 102.404 L 5.90217 102.479 L 5.90217 102.479 z M 5.90217 101.995 L 5.29194 101.955 L 4.85318 101.829 L 4.59597 101.602 L 4.5052 101.264 L 4.59597 100.931 L 4.85318 100.704 L 5.29194 100.578 L 5.90217 100.538 L 6.51744 100.578 L 6.9562 100.704 L 7.21341 100.931 L 7.29914 101.264 L 7.21341 101.602 L 6.9562 101.829 L 6.51744 101.955 L 5.90217 101.995 L 5.90217 101.995 z" stroke="none" fill-rule="evenodd" fill="rgb(0, 0, 0)"/><path d="M 10.1295 6.93185 L 9.61182 5 L 9.09418 6.93185"/><path d="M 9.09418 203.068 L 9.61182 205 L 10.1295 203.068"/><path d="M 9.61182 205 L 9.61182 5"/></g></svg>