<?xml version="1.0" encoding="utf-8" ?><!DOCTYPE svg PUBLIC "-//W3C//DTD SVG 1.1//EN" "http://www.w3.org/Graphics/SVG/1.1/DTD/svg11.dtd" 
[ <!ATTLIST svg 
  xmlns:dsy CDATA #FIXED "http://www.3ds.com/print"  
    dsy:text-version CDATA #IMPLIED > 

  <!ATTLIST text 
  xmlns:dsy CDATA #FIXED "http://www.3ds.com/print" 
    dsy:text-version CDATA #IMPLIED > 
]><svg xmlns="http://www.w3.org/2000/svg" xmlns:dsy="http://www.3ds.com/print" dsy:text-version="18000" width="297" height="210" viewBox="0 0 297 210" version="1.1"><g stroke="rgb(0, 0, 0)" stroke-width="0.13" stroke-linecap="butt" stroke-linejoin="miter" fill="none"><path d="M 231.44 120.044 L 116.875 120.044"/><path d="M 231.44 6.84409 L 116.875 6.84409"/></g><g stroke="rgb(0, 0, 0)" stroke-width="0.35" stroke-linecap="butt" stroke-linejoin="miter" fill="none"><circle cx="195.988" cy="26.6023" r="2"/><path d="M 194.574 12.6026 L 194.594 14.258"/><path d="M 197.352 12.6026 L 194.574 12.6026"/><path d="M 197.338 14.2748 L 197.352 12.6026"/><path d="M 199.822 14.2748 L 197.338 14.2748"/><path d="M 199.822 29.9911 L 199.822 14.2748"/><path d="M 192.211 29.9911 L 199.822 29.9911"/><path d="M 192.211 14.258 L 192.211 29.9911"/><path d="M 194.594 14.258 L 192.211 14.258"/><circle cx="196.307" cy="49.079" r="2"/><path d="M 192.407 40.4835 L 194.729 40.4835"/><path d="M 192.407 40.4835 L 192.407 52.6268"/><path d="M 192.407 52.6268 L 199.953 52.6268"/><path d="M 199.953 52.6268 L 199.953 40.4835"/><path d="M 199.953 40.4835 L 197.204 40.4835"/><path d="M 197.204 38.9314 L 197.204 40.4835"/><path d="M 197.204 38.9314 L 194.729 38.9314"/><path d="M 194.729 38.9314 L 194.729 40.4835"/><circle cx="196.81" cy="75.5238" r="2"/><path d="M 191.705 63.2839 L 195.689 63.2839"/><path d="M 191.705 63.2839 L 191.705 77.9885"/><path d="M 191.705 77.9885 L 201.166 77.9885"/><path d="M 201.166 63.2839 L 201.166 77.9885"/><path d="M 198.055 63.2839 L 201.166 63.2839"/><path d="M 198.055 63.2839 L 198.055 61.7051"/><path d="M 198.055 61.7051 L 195.706 61.7051"/><path d="M 195.706 61.7051 L 195.689 63.2839"/><circle cx="197.163" cy="102.736" r="2"/><path d="M 202.028 89.7168 L 202.028 105.884"/><path d="M 202.028 89.7168 L 198.825 89.7168"/><path d="M 198.825 89.7168 L 198.825 88.1826"/><path d="M 198.825 88.1826 L 195.623 88.1826"/><path d="M 195.623 88.1826 L 195.623 89.7168"/><path d="M 195.623 89.7168 L 191.929 89.7168"/><path d="M 191.929 105.884 L 191.929 89.7168"/><path d="M 191.929 105.884 L 202.028 105.884"/><path d="M 274.604 115.935 L 274.604 117.285"/><path d="M 281.147 120.044 L 233.44 120.044"/><path d="M 233.44 120.044 L 233.44 6.84409"/><path d="M 233.44 6.84409 L 281.147 6.84409"/><path d="M 281.147 6.84409 L 281.147 120.044"/><path d="M 274.604 115.935 L 271.292 115.935"/><path d="M 271.292 115.935 L 271.292 117.285"/><path d="M 271.292 117.285 L 274.604 117.285"/><path d="M 239.934 80.8543 L 241.359 80.8543"/><path d="M 241.359 80.8543 L 241.359 78.5043"/><path d="M 241.359 78.5043 L 239.934 78.5043"/><path d="M 239.934 80.8543 L 239.934 78.5043"/><path d="M 241.355 18.6956 L 239.93 18.6956"/><path d="M 239.93 18.6956 L 239.93 21.1956"/><path d="M 239.93 21.1956 L 241.355 21.1956"/><path d="M 241.355 21.1956 L 241.355 18.6956"/><path d="M 264.073 11.2841 L 261.323 11.2841"/><path d="M 261.323 11.2841 L 261.323 12.7091"/><path d="M 261.323 12.7091 L 264.073 12.7091"/><path d="M 264.073 11.2841 L 264.073 12.7091"/></g><g stroke="rgb(0, 0, 0)" stroke-width="0.13" stroke-linecap="butt" stroke-linejoin="miter" fill="none"><path d="M 152.125 18.4736 L 152.024 18.8972 L 151.858 19.1998 L 151.626 19.3864 L 151.353 19.447 L 151.025 19.3562 L 150.768 19.0838 L 150.597 18.64 L 150.541 18.0248 L 150.597 17.4145 L 150.763 16.9657 L 151.02 16.6934 L 151.353 16.5975 L 151.595 16.648 L 151.802 16.7892 L 151.964 17.0161 L 152.074 17.3288 L 152.554 17.3288 L 152.402 16.8497 L 152.14 16.4866 L 151.782 16.2596 L 151.353 16.1789 L 150.819 16.305 L 150.41 16.6581 L 150.148 17.238 L 150.057 18.0248 L 150.148 18.8115 L 150.41 19.3915 L 150.819 19.7495 L 151.353 19.8706 L 151.822 19.7748 L 152.201 19.5075 L 152.468 19.0687 L 152.609 18.4736 L 152.125 18.4736 L 152.125 18.4736 z M 153.3 19.7748 L 153.744 19.7748 L 153.744 18.2114 L 153.789 17.8533 L 153.935 17.591 L 154.162 17.4297 L 154.465 17.3691 L 154.707 17.4196 L 154.858 17.5557 L 154.934 17.7827 L 154.959 18.0853 L 154.959 19.7748 L 155.403 19.7748 L 155.403 17.9945 L 155.383 17.6364 L 155.292 17.3389 L 154.995 17.0666 L 154.531 16.9707 L 154.278 17.006 L 154.062 17.1019 L 153.88 17.2532 L 153.744 17.4599 L 153.744 16.1537 L 153.3 16.1537 L 153.3 19.7748 L 153.3 19.7748 z M 157.945 19.4217 L 157.945 19.4369 L 157.97 19.6083 L 158.046 19.7294 L 158.363 19.8252 L 158.611 19.7849 L 158.611 19.4419 L 158.505 19.457 L 158.363 19.3915 L 158.338 19.1898 L 158.338 17.7877 L 158.278 17.4297 L 158.101 17.1775 L 157.794 17.0262 L 157.36 16.9707 L 156.936 17.0313 L 156.623 17.2027 L 156.427 17.47 L 156.361 17.823 L 156.361 17.8533 L 156.76 17.8533 L 156.795 17.6415 L 156.906 17.4902 L 157.087 17.3994 L 157.345 17.3641 L 157.592 17.3893 L 157.768 17.465 L 157.874 17.5961 L 157.91 17.7776 L 157.889 17.9895 L 157.809 18.0954 L 157.607 18.1458 L 157.229 18.1861 L 156.795 18.2769 L 156.487 18.4383 L 156.306 18.6905 L 156.25 19.0637 L 156.301 19.3965 L 156.457 19.6436 L 156.709 19.8 L 157.057 19.8555 L 157.526 19.7495 L 157.945 19.4217 L 157.945 19.4217 z M 157.894 18.8266 L 157.834 19.0889 L 157.672 19.2906 L 157.43 19.4217 L 157.133 19.4671 L 156.941 19.4419 L 156.805 19.3612 L 156.719 19.22 L 156.694 19.0233 L 156.714 18.8468 L 156.795 18.7207 L 157.118 18.5795 L 157.526 18.519 L 157.894 18.398 L 157.894 18.8266 L 157.894 18.8266 z M 159.791 17.4851 L 159.791 17.0666 L 159.347 17.0666 L 159.347 20.8238 L 159.791 20.8238 L 159.791 19.3612 L 159.947 19.5983 L 160.123 19.7546 L 160.567 19.8706 L 160.991 19.7748 L 161.324 19.4873 L 161.541 19.0334 L 161.621 18.4181 L 161.541 17.8079 L 161.324 17.354 L 160.991 17.0716 L 160.567 16.9707 L 160.325 17.001 L 160.118 17.0968 L 159.942 17.2582 L 159.791 17.4851 L 159.791 17.4851 z M 160.492 19.4722 L 160.194 19.4066 L 159.977 19.2049 L 159.841 18.8771 L 159.796 18.4181 L 159.841 17.9642 L 159.977 17.6364 L 160.194 17.4398 L 160.492 17.3691 L 160.764 17.4398 L 160.981 17.6415 L 161.117 17.9693 L 161.167 18.4181 L 161.117 18.872 L 160.981 19.2049 L 160.764 19.4066 L 160.492 19.4722 L 160.492 19.4722 z M 162.796 18.5493 L 164.572 18.5493 L 164.577 18.3425 L 164.496 17.7625 L 164.274 17.3288 L 163.921 17.0666 L 163.452 16.9707 L 162.993 17.0716 L 162.64 17.354 L 162.413 17.8129 L 162.332 18.4181 L 162.408 19.0385 L 162.635 19.4923 L 162.983 19.7748 L 163.437 19.8706 L 163.83 19.805 L 164.153 19.6336 L 164.39 19.3612 L 164.526 18.9981 L 164.087 18.9981 L 163.997 19.1998 L 163.866 19.3511 L 163.492 19.4722 L 163.205 19.4167 L 162.988 19.2402 L 162.847 18.9527 L 162.796 18.5644 L 162.796 18.5493 L 162.796 18.5493 z M 162.796 18.1761 L 162.852 17.8281 L 162.988 17.5709 L 163.195 17.4145 L 163.467 17.3591 L 163.734 17.4145 L 163.941 17.5709 L 164.067 17.8281 L 164.113 18.1761 L 162.796 18.1761 L 162.796 18.1761 z M 170.588 19.6537 L 170.588 17.0666 L 170.165 17.0666 L 170.165 17.5053 L 169.817 17.1069 L 169.605 17.006 L 169.368 16.9707 L 168.939 17.0716 L 168.606 17.354 L 168.389 17.8079 L 168.314 18.4181 L 168.389 19.0334 L 168.606 19.4873 L 168.939 19.7748 L 169.368 19.8706 L 169.61 19.8353 L 169.812 19.7445 L 170.165 19.3612 L 170.165 19.7445 L 170.124 20.0471 L 170.013 20.264 L 169.801 20.39 L 169.484 20.4354 L 169.206 20.4052 L 169.01 20.3295 L 168.894 20.1984 L 168.858 20.0219 L 168.43 20.0219 L 168.43 20.0421 L 168.495 20.3648 L 168.697 20.6069 L 169.02 20.7632 L 169.459 20.8187 L 169.983 20.7431 L 170.331 20.5313 L 170.528 20.1631 L 170.588 19.6537 L 170.588 19.6537 z M 168.773 18.4181 L 168.818 17.9693 L 168.954 17.6364 L 169.166 17.4398 L 169.448 17.3691 L 169.746 17.4398 L 169.968 17.6364 L 170.104 17.9693 L 170.154 18.4181 L 170.104 18.8771 L 169.968 19.2049 L 169.746 19.4066 L 169.448 19.4722 L 169.166 19.4066 L 168.954 19.2049 L 168.818 18.872 L 168.773 18.4181 L 168.773 18.4181 z M 173.125 19.4217 L 173.125 19.4369 L 173.15 19.6083 L 173.226 19.7294 L 173.544 19.8252 L 173.791 19.7849 L 173.791 19.4419 L 173.685 19.457 L 173.544 19.3915 L 173.518 19.1898 L 173.518 17.7877 L 173.458 17.4297 L 173.281 17.1775 L 172.974 17.0262 L 172.54 16.9707 L 172.116 17.0313 L 171.804 17.2027 L 171.607 17.47 L 171.541 17.823 L 171.541 17.8533 L 171.94 17.8533 L 171.975 17.6415 L 172.086 17.4902 L 172.268 17.3994 L 172.525 17.3641 L 172.772 17.3893 L 172.948 17.465 L 173.054 17.5961 L 173.09 17.7776 L 173.069 17.9895 L 172.989 18.0954 L 172.787 18.1458 L 172.409 18.1861 L 171.975 18.2769 L 171.667 18.4383 L 171.486 18.6905 L 171.43 19.0637 L 171.481 19.3965 L 171.637 19.6436 L 171.889 19.8 L 172.237 19.8555 L 172.706 19.7495 L 173.125 19.4217 L 173.125 19.4217 z M 173.075 18.8266 L 173.014 19.0889 L 172.853 19.2906 L 172.611 19.4217 L 172.313 19.4671 L 172.121 19.4419 L 171.985 19.3612 L 171.899 19.22 L 171.874 19.0233 L 171.894 18.8468 L 171.975 18.7207 L 172.298 18.5795 L 172.706 18.519 L 173.075 18.398 L 173.075 18.8266 L 173.075 18.8266 z M 176.64 17.0666 L 176.196 17.0666 L 176.196 18.63 L 176.146 18.9931 L 176 19.2553 L 175.773 19.4167 L 175.475 19.4671 L 175.238 19.4268 L 175.087 19.3057 L 175.001 19.099 L 174.981 18.8065 L 174.981 17.0666 L 174.537 17.0666 L 174.537 18.8468 L 174.552 19.2049 L 174.648 19.5024 L 174.941 19.7748 L 175.41 19.8706 L 175.662 19.8353 L 175.879 19.7445 L 176.065 19.5882 L 176.216 19.3612 L 176.216 19.7748 L 176.64 19.7748 L 176.64 17.0666 L 176.64 17.0666 z M 179.313 17.9642 L 179.752 17.9642 L 179.661 17.5608 L 179.444 17.2431 L 179.106 17.0464 L 178.667 16.9707 L 178.183 17.0716 L 177.815 17.354 L 177.583 17.8129 L 177.502 18.4282 L 177.578 19.0385 L 177.805 19.4923 L 178.163 19.7748 L 178.652 19.8706 L 179.086 19.7949 L 179.424 19.5831 L 179.656 19.2503 L 179.757 18.8065 L 179.333 18.8065 L 179.258 19.0889 L 179.116 19.3007 L 178.915 19.4318 L 178.667 19.4722 L 178.36 19.4066 L 178.138 19.2049 L 178.002 18.8771 L 177.956 18.4131 L 178.002 17.9592 L 178.143 17.6314 L 178.37 17.4297 L 178.667 17.3591 L 178.93 17.4044 L 179.126 17.5204 L 179.258 17.7121 L 179.313 17.9642 L 179.313 17.9642 z M 180.624 19.7748 L 181.068 19.7748 L 181.068 18.2114 L 181.113 17.8533 L 181.26 17.591 L 181.487 17.4297 L 181.789 17.3691 L 182.031 17.4196 L 182.183 17.5557 L 182.258 17.7827 L 182.283 18.0853 L 182.283 19.7748 L 182.727 19.7748 L 182.727 17.9945 L 182.707 17.6364 L 182.616 17.3389 L 182.319 17.0666 L 181.855 16.9707 L 181.603 17.006 L 181.386 17.1019 L 181.204 17.2532 L 181.068 17.4599 L 181.068 16.1537 L 180.624 16.1537 L 180.624 19.7748 L 180.624 19.7748 z M 184.049 18.5493 L 185.824 18.5493 L 185.829 18.3425 L 185.748 17.7625 L 185.526 17.3288 L 185.173 17.0666 L 184.704 16.9707 L 184.245 17.0716 L 183.892 17.354 L 183.665 17.8129 L 183.585 18.4181 L 183.66 19.0385 L 183.887 19.4923 L 184.235 19.7748 L 184.689 19.8706 L 185.082 19.805 L 185.405 19.6336 L 185.642 19.3612 L 185.778 18.9981 L 185.34 18.9981 L 185.249 19.1998 L 185.118 19.3511 L 184.745 19.4722 L 184.457 19.4167 L 184.24 19.2402 L 184.099 18.9527 L 184.049 18.5644 L 184.049 18.5493 L 184.049 18.5493 z M 184.049 18.1761 L 184.104 17.8281 L 184.24 17.5709 L 184.447 17.4145 L 184.719 17.3591 L 184.987 17.4145 L 185.193 17.5709 L 185.319 17.8281 L 185.365 18.1761 L 184.049 18.1761 L 184.049 18.1761 z" stroke="none" fill-rule="evenodd" fill="rgb(0, 0, 0)"/></g><g stroke="rgb(0, 0, 0)" stroke-width="0.13" stroke-linecap="butt" stroke-linejoin="miter" fill="none"><path d="M 150.511 24.6667 L 150.052 24.6667 L 150.153 25.2013 L 150.405 25.5947 L 150.794 25.8317 L 151.318 25.9174 L 151.837 25.8367 L 152.226 25.6148 L 152.473 25.2668 L 152.564 24.8079 L 152.488 24.3944 L 152.276 24.1271 L 151.933 23.9506 L 151.474 23.8194 L 151.081 23.7236 L 150.824 23.6127 L 150.678 23.4513 L 150.632 23.1991 L 150.678 22.9722 L 150.809 22.8007 L 151.01 22.6847 L 151.288 22.6444 L 151.57 22.6948 L 151.792 22.831 L 151.938 23.0579 L 152.009 23.3655 L 152.468 23.3655 L 152.468 23.3555 L 152.387 22.8814 L 152.15 22.5284 L 151.777 22.3065 L 151.273 22.2308 L 150.819 22.3065 L 150.466 22.5183 L 150.239 22.8461 L 150.158 23.2697 L 150.224 23.648 L 150.415 23.9052 L 150.718 24.0766 L 151.131 24.2078 L 151.54 24.3238 L 151.848 24.4347 L 152.034 24.5961 L 152.1 24.8583 L 152.039 25.1256 L 151.883 25.3274 L 151.646 25.4534 L 151.338 25.4938 L 150.995 25.4383 L 150.733 25.2769 L 150.567 25.0147 L 150.511 24.6667 L 150.511 24.6667 z M 155.025 24.0111 L 155.464 24.0111 L 155.373 23.6076 L 155.156 23.2899 L 154.818 23.0932 L 154.379 23.0176 L 153.895 23.1184 L 153.527 23.4008 L 153.295 23.8598 L 153.214 24.4751 L 153.29 25.0853 L 153.517 25.5392 L 153.875 25.8216 L 154.364 25.9174 L 154.798 25.8418 L 155.136 25.63 L 155.368 25.2971 L 155.469 24.8533 L 155.045 24.8533 L 154.969 25.1357 L 154.828 25.3475 L 154.626 25.4787 L 154.379 25.519 L 154.072 25.4534 L 153.85 25.2517 L 153.714 24.9239 L 153.668 24.4599 L 153.714 24.006 L 153.855 23.6782 L 154.082 23.4765 L 154.379 23.4059 L 154.641 23.4513 L 154.838 23.5673 L 154.969 23.7589 L 155.025 24.0111 L 155.025 24.0111 z M 157.945 25.4686 L 157.945 25.4837 L 157.97 25.6552 L 158.046 25.7762 L 158.363 25.872 L 158.611 25.8317 L 158.611 25.4887 L 158.505 25.5039 L 158.363 25.4383 L 158.338 25.2366 L 158.338 23.8346 L 158.278 23.4765 L 158.101 23.2243 L 157.794 23.073 L 157.36 23.0176 L 156.936 23.0781 L 156.623 23.2495 L 156.427 23.5168 L 156.361 23.8699 L 156.361 23.9001 L 156.76 23.9001 L 156.795 23.6883 L 156.906 23.537 L 157.087 23.4462 L 157.345 23.4109 L 157.592 23.4361 L 157.768 23.5118 L 157.874 23.6429 L 157.91 23.8245 L 157.889 24.0363 L 157.809 24.1422 L 157.607 24.1926 L 157.229 24.233 L 156.795 24.3238 L 156.487 24.4851 L 156.306 24.7373 L 156.25 25.1105 L 156.301 25.4434 L 156.457 25.6905 L 156.709 25.8468 L 157.057 25.9023 L 157.526 25.7964 L 157.945 25.4686 L 157.945 25.4686 z M 157.894 24.8735 L 157.834 25.1357 L 157.672 25.3374 L 157.43 25.4686 L 157.133 25.514 L 156.941 25.4887 L 156.805 25.4081 L 156.719 25.2668 L 156.694 25.0702 L 156.714 24.8936 L 156.795 24.7676 L 157.118 24.6263 L 157.526 24.5658 L 157.894 24.4448 L 157.894 24.8735 L 157.894 24.8735 z M 160.255 22.5738 L 160.255 25.4484 L 159.342 25.4484 L 159.342 25.8216 L 161.606 25.8216 L 161.606 25.4484 L 160.698 25.4484 L 160.698 22.2006 L 159.559 22.2006 L 159.559 22.5738 L 160.255 22.5738 L 160.255 22.5738 z M 162.796 24.5961 L 164.572 24.5961 L 164.577 24.3893 L 164.496 23.8093 L 164.274 23.3756 L 163.921 23.1134 L 163.452 23.0176 L 162.993 23.1184 L 162.64 23.4008 L 162.413 23.8598 L 162.332 24.465 L 162.408 25.0853 L 162.635 25.5392 L 162.983 25.8216 L 163.437 25.9174 L 163.83 25.8519 L 164.153 25.6804 L 164.39 25.4081 L 164.526 25.0449 L 164.087 25.0449 L 163.997 25.2467 L 163.866 25.398 L 163.492 25.519 L 163.205 25.4635 L 162.988 25.287 L 162.847 24.9995 L 162.796 24.6112 L 162.796 24.5961 L 162.796 24.5961 z M 162.796 24.2229 L 162.852 23.8749 L 162.988 23.6177 L 163.195 23.4614 L 163.467 23.4059 L 163.734 23.4614 L 163.941 23.6177 L 164.067 23.8749 L 164.113 24.2229 L 162.796 24.2229 L 162.796 24.2229 z M 166.14 25.8216 L 166.836 25.8216 L 166.836 25.0702 L 166.14 25.0702 L 166.14 25.8216 L 166.14 25.8216 z M 166.14 23.8648 L 166.836 23.8648 L 166.836 23.1134 L 166.14 23.1134 L 166.14 23.8648 L 166.14 23.8648 z" stroke="none" fill-rule="evenodd" fill="rgb(0, 0, 0)"/></g><g stroke="rgb(0, 0, 0)" stroke-width="0.13" stroke-linecap="butt" stroke-linejoin="miter" fill="none"><path d="M 175.505 25.8216 L 175.964 25.8216 L 175.964 22.2964 L 175.621 22.2964 L 175.531 22.604 L 175.349 22.8108 L 175.072 22.9318 L 174.688 22.9722 L 174.688 23.3302 L 175.505 23.3302 L 175.505 25.8216 L 175.505 25.8216 z M 178.284 25.8216 L 178.98 25.8216 L 178.98 25.0702 L 178.284 25.0702 L 178.284 25.8216 L 178.284 25.8216 z M 178.284 23.8648 L 178.98 23.8648 L 178.98 23.1134 L 178.284 23.1134 L 178.284 23.8648 L 178.284 23.8648 z M 181.946 25.8216 L 182.399 25.8216 L 182.399 24.9542 L 182.899 24.9542 L 182.899 24.5507 L 182.399 24.5507 L 182.399 22.3972 L 181.94 22.3972 L 180.407 24.5104 L 180.407 24.9542 L 181.946 24.9542 L 181.946 25.8216 L 181.946 25.8216 z M 180.831 24.5507 L 181.946 22.9823 L 181.946 24.5507 L 180.831 24.5507 L 180.831 24.5507 z" stroke="none" fill-rule="evenodd" fill="rgb(0, 0, 0)"/></g><g stroke="rgb(0, 0, 0)" stroke-width="0.13" stroke-linecap="butt" stroke-linejoin="miter" fill="none"><path d="M 147.069 42.7302 L 146.968 43.1539 L 146.802 43.4565 L 146.57 43.6431 L 146.297 43.7036 L 145.97 43.6128 L 145.712 43.3405 L 145.541 42.8967 L 145.485 42.2814 L 145.541 41.6711 L 145.707 41.2223 L 145.964 40.95 L 146.297 40.8541 L 146.539 40.9046 L 146.746 41.0458 L 146.908 41.2727 L 147.019 41.5854 L 147.498 41.5854 L 147.346 41.1063 L 147.084 40.7432 L 146.726 40.5163 L 146.297 40.4355 L 145.763 40.5616 L 145.354 40.9147 L 145.092 41.4946 L 145.001 42.2814 L 145.092 43.0681 L 145.354 43.6481 L 145.763 44.0061 L 146.297 44.1272 L 146.766 44.0314 L 147.145 43.7641 L 147.412 43.3253 L 147.553 42.7302 L 147.069 42.7302 L 147.069 42.7302 z M 148.244 44.0314 L 148.688 44.0314 L 148.688 42.468 L 148.733 42.1099 L 148.879 41.8477 L 149.106 41.6863 L 149.409 41.6257 L 149.651 41.6762 L 149.802 41.8123 L 149.878 42.0393 L 149.903 42.3419 L 149.903 44.0314 L 150.347 44.0314 L 150.347 42.2511 L 150.327 41.8931 L 150.236 41.5955 L 149.939 41.3232 L 149.475 41.2273 L 149.222 41.2626 L 149.006 41.3585 L 148.824 41.5098 L 148.688 41.7165 L 148.688 40.4103 L 148.244 40.4103 L 148.244 44.0314 L 148.244 44.0314 z M 152.889 43.6783 L 152.889 43.6935 L 152.914 43.8649 L 152.99 43.986 L 153.307 44.0818 L 153.555 44.0415 L 153.555 43.6985 L 153.449 43.7137 L 153.307 43.6481 L 153.282 43.4464 L 153.282 42.0443 L 153.222 41.6863 L 153.045 41.4341 L 152.738 41.2828 L 152.304 41.2273 L 151.88 41.2879 L 151.568 41.4593 L 151.371 41.7266 L 151.305 42.0797 L 151.305 42.1099 L 151.704 42.1099 L 151.739 41.8981 L 151.85 41.7468 L 152.032 41.656 L 152.289 41.6207 L 152.536 41.6459 L 152.712 41.7216 L 152.818 41.8527 L 152.854 42.0343 L 152.833 42.2461 L 152.753 42.352 L 152.551 42.4024 L 152.173 42.4427 L 151.739 42.5335 L 151.431 42.6949 L 151.25 42.9471 L 151.194 43.3203 L 151.245 43.6531 L 151.401 43.9003 L 151.653 44.0566 L 152.001 44.1121 L 152.47 44.0061 L 152.889 43.6783 L 152.889 43.6783 z M 152.838 43.0833 L 152.778 43.3455 L 152.617 43.5472 L 152.374 43.6783 L 152.077 43.7237 L 151.885 43.6985 L 151.749 43.6178 L 151.663 43.4766 L 151.638 43.2799 L 151.658 43.1034 L 151.739 42.9773 L 152.062 42.8361 L 152.47 42.7756 L 152.838 42.6546 L 152.838 43.0833 L 152.838 43.0833 z M 154.735 41.7417 L 154.735 41.3232 L 154.291 41.3232 L 154.291 45.0804 L 154.735 45.0804 L 154.735 43.6178 L 154.891 43.8549 L 155.068 44.0112 L 155.511 44.1272 L 155.935 44.0314 L 156.268 43.7439 L 156.485 43.29 L 156.565 42.6747 L 156.485 42.0645 L 156.268 41.6106 L 155.935 41.3282 L 155.511 41.2273 L 155.269 41.2576 L 155.062 41.3534 L 154.886 41.5148 L 154.735 41.7417 L 154.735 41.7417 z M 155.436 43.7288 L 155.138 43.6632 L 154.921 43.4615 L 154.785 43.1337 L 154.74 42.6747 L 154.785 42.2209 L 154.921 41.8931 L 155.138 41.6964 L 155.436 41.6257 L 155.708 41.6964 L 155.925 41.8981 L 156.061 42.2259 L 156.111 42.6747 L 156.061 43.1286 L 155.925 43.4615 L 155.708 43.6632 L 155.436 43.7288 L 155.436 43.7288 z M 157.74 42.8059 L 159.516 42.8059 L 159.521 42.5991 L 159.44 42.0191 L 159.218 41.5854 L 158.865 41.3232 L 158.396 41.2273 L 157.937 41.3282 L 157.584 41.6106 L 157.357 42.0695 L 157.276 42.6747 L 157.352 43.2951 L 157.579 43.7489 L 157.927 44.0314 L 158.381 44.1272 L 158.774 44.0616 L 159.097 43.8902 L 159.334 43.6178 L 159.47 43.2547 L 159.032 43.2547 L 158.941 43.4565 L 158.81 43.6077 L 158.436 43.7288 L 158.149 43.6733 L 157.932 43.4968 L 157.791 43.2093 L 157.74 42.821 L 157.74 42.8059 L 157.74 42.8059 z M 157.74 42.4327 L 157.796 42.0847 L 157.932 41.8275 L 158.139 41.6711 L 158.411 41.6157 L 158.678 41.6711 L 158.885 41.8275 L 159.011 42.0847 L 159.057 42.4327 L 157.74 42.4327 L 157.74 42.4327 z M 164.039 41.7922 L 164.039 44.0314 L 164.483 44.0314 L 164.483 41.7922 L 165.492 41.7922 L 165.492 41.4139 L 164.483 41.4139 L 164.483 41.2475 L 164.519 41.0458 L 164.635 40.9096 L 164.831 40.8289 L 165.114 40.7987 L 165.492 40.8188 L 165.492 40.4355 L 165.013 40.4103 L 164.579 40.4557 L 164.276 40.5919 L 164.095 40.8289 L 164.039 41.1668 L 164.039 41.4139 L 163.227 41.4139 L 163.227 41.7922 L 164.039 41.7922 L 164.039 41.7922 z M 171.604 43.9103 L 171.604 41.3232 L 171.181 41.3232 L 171.181 41.7619 L 170.833 41.3635 L 170.621 41.2626 L 170.384 41.2273 L 169.955 41.3282 L 169.622 41.6106 L 169.405 42.0645 L 169.33 42.6747 L 169.405 43.29 L 169.622 43.7439 L 169.955 44.0314 L 170.384 44.1272 L 170.626 44.0919 L 170.828 44.0011 L 171.181 43.6178 L 171.181 44.0011 L 171.14 44.3037 L 171.029 44.5206 L 170.818 44.6467 L 170.5 44.692 L 170.222 44.6618 L 170.026 44.5861 L 169.91 44.455 L 169.874 44.2785 L 169.446 44.2785 L 169.446 44.2987 L 169.511 44.6214 L 169.713 44.8635 L 170.036 45.0199 L 170.475 45.0753 L 170.999 44.9997 L 171.347 44.7879 L 171.544 44.4197 L 171.604 43.9103 L 171.604 43.9103 z M 169.789 42.6747 L 169.834 42.2259 L 169.97 41.8931 L 170.182 41.6964 L 170.465 41.6257 L 170.762 41.6964 L 170.984 41.8931 L 171.12 42.2259 L 171.171 42.6747 L 171.12 43.1337 L 170.984 43.4615 L 170.762 43.6632 L 170.465 43.7288 L 170.182 43.6632 L 169.97 43.4615 L 169.834 43.1286 L 169.789 42.6747 L 169.789 42.6747 z M 174.141 43.6783 L 174.141 43.6935 L 174.166 43.8649 L 174.242 43.986 L 174.56 44.0818 L 174.807 44.0415 L 174.807 43.6985 L 174.701 43.7137 L 174.56 43.6481 L 174.534 43.4464 L 174.534 42.0443 L 174.474 41.6863 L 174.297 41.4341 L 173.99 41.2828 L 173.556 41.2273 L 173.132 41.2879 L 172.82 41.4593 L 172.623 41.7266 L 172.557 42.0797 L 172.557 42.1099 L 172.956 42.1099 L 172.991 41.8981 L 173.102 41.7468 L 173.284 41.656 L 173.541 41.6207 L 173.788 41.6459 L 173.965 41.7216 L 174.07 41.8527 L 174.106 42.0343 L 174.086 42.2461 L 174.005 42.352 L 173.803 42.4024 L 173.425 42.4427 L 172.991 42.5335 L 172.684 42.6949 L 172.502 42.9471 L 172.447 43.3203 L 172.497 43.6531 L 172.653 43.9003 L 172.905 44.0566 L 173.253 44.1121 L 173.722 44.0061 L 174.141 43.6783 L 174.141 43.6783 z M 174.091 43.0833 L 174.03 43.3455 L 173.869 43.5472 L 173.627 43.6783 L 173.329 43.7237 L 173.137 43.6985 L 173.001 43.6178 L 172.916 43.4766 L 172.89 43.2799 L 172.91 43.1034 L 172.991 42.9773 L 173.314 42.8361 L 173.722 42.7756 L 174.091 42.6546 L 174.091 43.0833 L 174.091 43.0833 z M 177.656 41.3232 L 177.212 41.3232 L 177.212 42.8866 L 177.162 43.2497 L 177.016 43.5119 L 176.789 43.6733 L 176.491 43.7237 L 176.254 43.6834 L 176.103 43.5623 L 176.017 43.3556 L 175.997 43.0631 L 175.997 41.3232 L 175.553 41.3232 L 175.553 43.1034 L 175.568 43.4615 L 175.664 43.759 L 175.957 44.0314 L 176.426 44.1272 L 176.678 44.0919 L 176.895 44.0011 L 177.081 43.8448 L 177.233 43.6178 L 177.233 44.0314 L 177.656 44.0314 L 177.656 41.3232 L 177.656 41.3232 z M 180.329 42.2209 L 180.768 42.2209 L 180.677 41.8174 L 180.46 41.4997 L 180.122 41.303 L 179.684 41.2273 L 179.199 41.3282 L 178.831 41.6106 L 178.599 42.0695 L 178.519 42.6848 L 178.594 43.2951 L 178.821 43.7489 L 179.179 44.0314 L 179.668 44.1272 L 180.102 44.0515 L 180.44 43.8397 L 180.672 43.5069 L 180.773 43.0631 L 180.349 43.0631 L 180.274 43.3455 L 180.132 43.5573 L 179.931 43.6884 L 179.684 43.7288 L 179.376 43.6632 L 179.154 43.4615 L 179.018 43.1337 L 178.972 42.6697 L 179.018 42.2158 L 179.159 41.888 L 179.386 41.6863 L 179.684 41.6157 L 179.946 41.6611 L 180.142 41.7771 L 180.274 41.9687 L 180.329 42.2209 L 180.329 42.2209 z M 181.64 44.0314 L 182.084 44.0314 L 182.084 42.468 L 182.13 42.1099 L 182.276 41.8477 L 182.503 41.6863 L 182.805 41.6257 L 183.047 41.6762 L 183.199 41.8123 L 183.274 42.0393 L 183.3 42.3419 L 183.3 44.0314 L 183.743 44.0314 L 183.743 42.2511 L 183.723 41.8931 L 183.632 41.5955 L 183.335 41.3232 L 182.871 41.2273 L 182.619 41.2626 L 182.402 41.3585 L 182.22 41.5098 L 182.084 41.7165 L 182.084 40.4103 L 181.64 40.4103 L 181.64 44.0314 L 181.64 44.0314 z M 185.065 42.8059 L 186.84 42.8059 L 186.845 42.5991 L 186.764 42.0191 L 186.542 41.5854 L 186.189 41.3232 L 185.72 41.2273 L 185.261 41.3282 L 184.908 41.6106 L 184.681 42.0695 L 184.601 42.6747 L 184.676 43.2951 L 184.903 43.7489 L 185.251 44.0314 L 185.705 44.1272 L 186.099 44.0616 L 186.421 43.8902 L 186.658 43.6178 L 186.795 43.2547 L 186.356 43.2547 L 186.265 43.4565 L 186.134 43.6077 L 185.761 43.7288 L 185.473 43.6733 L 185.256 43.4968 L 185.115 43.2093 L 185.065 42.821 L 185.065 42.8059 L 185.065 42.8059 z M 185.065 42.4327 L 185.12 42.0847 L 185.256 41.8275 L 185.463 41.6711 L 185.735 41.6157 L 186.003 41.6711 L 186.209 41.8275 L 186.336 42.0847 L 186.381 42.4327 L 185.065 42.4327 L 185.065 42.4327 z" stroke="none" fill-rule="evenodd" fill="rgb(0, 0, 0)"/></g><g stroke="rgb(0, 0, 0)" stroke-width="0.13" stroke-linecap="butt" stroke-linejoin="miter" fill="none"><path d="M 145.455 48.9233 L 144.996 48.9233 L 145.097 49.4579 L 145.349 49.8513 L 145.738 50.0883 L 146.262 50.174 L 146.781 50.0933 L 147.17 49.8714 L 147.417 49.5235 L 147.508 49.0645 L 147.432 48.651 L 147.22 48.3837 L 146.877 48.2072 L 146.418 48.076 L 146.025 47.9802 L 145.768 47.8693 L 145.622 47.7079 L 145.576 47.4557 L 145.622 47.2288 L 145.753 47.0573 L 145.954 46.9413 L 146.232 46.901 L 146.514 46.9514 L 146.736 47.0876 L 146.882 47.3145 L 146.953 47.6221 L 147.412 47.6221 L 147.412 47.6121 L 147.331 47.138 L 147.094 46.785 L 146.721 46.5631 L 146.217 46.4874 L 145.763 46.5631 L 145.41 46.7749 L 145.183 47.1027 L 145.102 47.5263 L 145.168 47.9046 L 145.359 48.1618 L 145.662 48.3333 L 146.075 48.4644 L 146.484 48.5804 L 146.792 48.6913 L 146.978 48.8527 L 147.044 49.1149 L 146.983 49.3822 L 146.827 49.584 L 146.59 49.7101 L 146.282 49.7504 L 145.939 49.6949 L 145.677 49.5335 L 145.511 49.2713 L 145.455 48.9233 L 145.455 48.9233 z M 149.969 48.2677 L 150.408 48.2677 L 150.317 47.8642 L 150.1 47.5465 L 149.762 47.3498 L 149.323 47.2742 L 148.839 47.375 L 148.471 47.6575 L 148.239 48.1164 L 148.158 48.7317 L 148.234 49.3419 L 148.461 49.7958 L 148.819 50.0782 L 149.308 50.174 L 149.742 50.0984 L 150.08 49.8866 L 150.312 49.5537 L 150.413 49.1099 L 149.989 49.1099 L 149.913 49.3923 L 149.772 49.6041 L 149.57 49.7353 L 149.323 49.7756 L 149.016 49.7101 L 148.794 49.5083 L 148.658 49.1805 L 148.612 48.7165 L 148.658 48.2626 L 148.799 47.9348 L 149.026 47.7331 L 149.323 47.6625 L 149.586 47.7079 L 149.782 47.8239 L 149.913 48.0155 L 149.969 48.2677 L 149.969 48.2677 z M 152.889 49.7252 L 152.889 49.7403 L 152.914 49.9118 L 152.99 50.0328 L 153.307 50.1286 L 153.555 50.0883 L 153.555 49.7453 L 153.449 49.7605 L 153.307 49.6949 L 153.282 49.4932 L 153.282 48.0912 L 153.222 47.7331 L 153.045 47.4809 L 152.738 47.3296 L 152.304 47.2742 L 151.88 47.3347 L 151.568 47.5061 L 151.371 47.7735 L 151.305 48.1265 L 151.305 48.1567 L 151.704 48.1567 L 151.739 47.9449 L 151.85 47.7936 L 152.032 47.7028 L 152.289 47.6675 L 152.536 47.6927 L 152.712 47.7684 L 152.818 47.8995 L 152.854 48.0811 L 152.833 48.2929 L 152.753 48.3988 L 152.551 48.4492 L 152.173 48.4896 L 151.739 48.5804 L 151.431 48.7417 L 151.25 48.9939 L 151.194 49.3671 L 151.245 49.7 L 151.401 49.9471 L 151.653 50.1034 L 152.001 50.1589 L 152.47 50.053 L 152.889 49.7252 L 152.889 49.7252 z M 152.838 49.1301 L 152.778 49.3923 L 152.617 49.5941 L 152.374 49.7252 L 152.077 49.7706 L 151.885 49.7453 L 151.749 49.6647 L 151.663 49.5235 L 151.638 49.3268 L 151.658 49.1503 L 151.739 49.0242 L 152.062 48.8829 L 152.47 48.8224 L 152.838 48.7014 L 152.838 49.1301 L 152.838 49.1301 z M 155.199 46.8304 L 155.199 49.705 L 154.286 49.705 L 154.286 50.0782 L 156.55 50.0782 L 156.55 49.705 L 155.642 49.705 L 155.642 46.4572 L 154.503 46.4572 L 154.503 46.8304 L 155.199 46.8304 L 155.199 46.8304 z M 157.74 48.8527 L 159.516 48.8527 L 159.521 48.6459 L 159.44 48.0659 L 159.218 47.6322 L 158.865 47.37 L 158.396 47.2742 L 157.937 47.375 L 157.584 47.6575 L 157.357 48.1164 L 157.276 48.7216 L 157.352 49.3419 L 157.579 49.7958 L 157.927 50.0782 L 158.381 50.174 L 158.774 50.1085 L 159.097 49.937 L 159.334 49.6647 L 159.47 49.3015 L 159.032 49.3015 L 158.941 49.5033 L 158.81 49.6546 L 158.436 49.7756 L 158.149 49.7201 L 157.932 49.5436 L 157.791 49.2561 L 157.74 48.8678 L 157.74 48.8527 L 157.74 48.8527 z M 157.74 48.4795 L 157.796 48.1315 L 157.932 47.8743 L 158.139 47.718 L 158.411 47.6625 L 158.678 47.718 L 158.885 47.8743 L 159.011 48.1315 L 159.057 48.4795 L 157.74 48.4795 L 157.74 48.4795 z M 161.084 50.0782 L 161.78 50.0782 L 161.78 49.3268 L 161.084 49.3268 L 161.084 50.0782 L 161.084 50.0782 z M 161.084 48.1214 L 161.78 48.1214 L 161.78 47.37 L 161.084 47.37 L 161.084 48.1214 L 161.084 48.1214 z" stroke="none" fill-rule="evenodd" fill="rgb(0, 0, 0)"/></g><g stroke="rgb(0, 0, 0)" stroke-width="0.13" stroke-linecap="butt" stroke-linejoin="miter" fill="none"><path d="M 170.449 50.0782 L 170.908 50.0782 L 170.908 46.553 L 170.565 46.553 L 170.475 46.8606 L 170.293 47.0674 L 170.016 47.1884 L 169.632 47.2288 L 169.632 47.5869 L 170.449 47.5869 L 170.449 50.0782 L 170.449 50.0782 z M 173.228 50.0782 L 173.924 50.0782 L 173.924 49.3268 L 173.228 49.3268 L 173.228 50.0782 L 173.228 50.0782 z M 173.228 48.1214 L 173.924 48.1214 L 173.924 47.37 L 173.228 47.37 L 173.228 48.1214 L 173.228 48.1214 z M 176.89 50.0782 L 177.343 50.0782 L 177.343 49.2108 L 177.843 49.2108 L 177.843 48.8073 L 177.343 48.8073 L 177.343 46.6539 L 176.885 46.6539 L 175.351 48.767 L 175.351 49.2108 L 176.89 49.2108 L 176.89 50.0782 L 176.89 50.0782 z M 175.775 48.8073 L 176.89 47.2389 L 176.89 48.8073 L 175.775 48.8073 L 175.775 48.8073 z" stroke="none" fill-rule="evenodd" fill="rgb(0, 0, 0)"/></g><g stroke="rgb(0, 0, 0)" stroke-width="0.13" stroke-linecap="butt" stroke-linejoin="miter" fill="none"><path d="M 150.547 69.2484 L 150.446 69.672 L 150.28 69.9746 L 150.048 70.1612 L 149.776 70.2218 L 149.448 70.131 L 149.191 69.8586 L 149.019 69.4148 L 148.964 68.7996 L 149.019 68.1893 L 149.186 67.7405 L 149.443 67.4682 L 149.776 67.3723 L 150.018 67.4228 L 150.224 67.564 L 150.386 67.7909 L 150.497 68.1036 L 150.976 68.1036 L 150.825 67.6245 L 150.562 67.2614 L 150.204 67.0344 L 149.776 66.9537 L 149.241 67.0798 L 148.832 67.4328 L 148.57 68.0128 L 148.479 68.7996 L 148.57 69.5863 L 148.832 70.1663 L 149.241 70.5243 L 149.776 70.6454 L 150.245 70.5496 L 150.623 70.2823 L 150.89 69.8435 L 151.031 69.2484 L 150.547 69.2484 L 150.547 69.2484 z M 151.722 70.5496 L 152.166 70.5496 L 152.166 68.9862 L 152.211 68.6281 L 152.358 68.3658 L 152.585 68.2045 L 152.887 68.1439 L 153.129 68.1944 L 153.281 68.3305 L 153.356 68.5575 L 153.381 68.8601 L 153.381 70.5496 L 153.825 70.5496 L 153.825 68.7693 L 153.805 68.4112 L 153.714 68.1137 L 153.417 67.8414 L 152.953 67.7455 L 152.701 67.7808 L 152.484 67.8766 L 152.302 68.028 L 152.166 68.2347 L 152.166 66.9285 L 151.722 66.9285 L 151.722 70.5496 L 151.722 70.5496 z M 156.367 70.1965 L 156.367 70.2117 L 156.392 70.3831 L 156.468 70.5042 L 156.786 70.6 L 157.033 70.5596 L 157.033 70.2167 L 156.927 70.2318 L 156.786 70.1663 L 156.76 69.9646 L 156.76 68.5625 L 156.7 68.2045 L 156.523 67.9523 L 156.216 67.801 L 155.782 67.7455 L 155.358 67.806 L 155.046 67.9775 L 154.849 68.2448 L 154.783 68.5978 L 154.783 68.6281 L 155.182 68.6281 L 155.217 68.4163 L 155.328 68.265 L 155.51 68.1742 L 155.767 68.1389 L 156.014 68.1641 L 156.191 68.2398 L 156.296 68.3709 L 156.332 68.5524 L 156.312 68.7643 L 156.231 68.8702 L 156.029 68.9206 L 155.651 68.9609 L 155.217 69.0517 L 154.91 69.2131 L 154.728 69.4653 L 154.673 69.8385 L 154.723 70.1713 L 154.879 70.4184 L 155.131 70.5748 L 155.479 70.6302 L 155.948 70.5243 L 156.367 70.1965 L 156.367 70.1965 z M 156.317 69.6014 L 156.256 69.8637 L 156.095 70.0654 L 155.853 70.1965 L 155.555 70.2419 L 155.363 70.2167 L 155.227 70.136 L 155.142 69.9948 L 155.116 69.7981 L 155.137 69.6216 L 155.217 69.4955 L 155.54 69.3543 L 155.948 69.2938 L 156.317 69.1728 L 156.317 69.6014 L 156.317 69.6014 z M 158.213 68.2599 L 158.213 67.8414 L 157.769 67.8414 L 157.769 71.5986 L 158.213 71.5986 L 158.213 70.136 L 158.369 70.373 L 158.546 70.5294 L 158.99 70.6454 L 159.413 70.5496 L 159.746 70.2621 L 159.963 69.8082 L 160.044 69.1929 L 159.963 68.5827 L 159.746 68.1288 L 159.413 67.8464 L 158.99 67.7455 L 158.747 67.7758 L 158.541 67.8716 L 158.364 68.033 L 158.213 68.2599 L 158.213 68.2599 z M 158.914 70.247 L 158.616 70.1814 L 158.399 69.9797 L 158.263 69.6519 L 158.218 69.1929 L 158.263 68.739 L 158.399 68.4112 L 158.616 68.2146 L 158.914 68.1439 L 159.186 68.2146 L 159.403 68.4163 L 159.539 68.7441 L 159.59 69.1929 L 159.539 69.6468 L 159.403 69.9797 L 159.186 70.1814 L 158.914 70.247 L 158.914 70.247 z M 161.219 69.3241 L 162.994 69.3241 L 162.999 69.1173 L 162.918 68.5373 L 162.696 68.1036 L 162.343 67.8414 L 161.874 67.7455 L 161.415 67.8464 L 161.062 68.1288 L 160.835 68.5877 L 160.755 69.1929 L 160.83 69.8132 L 161.057 70.2671 L 161.405 70.5496 L 161.859 70.6454 L 162.253 70.5798 L 162.575 70.4084 L 162.812 70.136 L 162.948 69.7729 L 162.51 69.7729 L 162.419 69.9746 L 162.288 70.1259 L 161.915 70.247 L 161.627 70.1915 L 161.41 70.015 L 161.269 69.7275 L 161.219 69.3392 L 161.219 69.3241 L 161.219 69.3241 z M 161.219 68.9509 L 161.274 68.6029 L 161.41 68.3457 L 161.617 68.1893 L 161.889 68.1339 L 162.157 68.1893 L 162.363 68.3457 L 162.49 68.6029 L 162.535 68.9509 L 161.219 68.9509 L 161.219 68.9509 z M 167.518 68.3104 L 167.518 70.5496 L 167.961 70.5496 L 167.961 68.3104 L 168.97 68.3104 L 168.97 67.9321 L 167.961 67.9321 L 167.961 67.7657 L 167.997 67.564 L 168.113 67.4278 L 168.309 67.3471 L 168.592 67.3168 L 168.97 67.337 L 168.97 66.9537 L 168.491 66.9285 L 168.057 66.9739 L 167.755 67.1101 L 167.573 67.3471 L 167.518 67.685 L 167.518 67.9321 L 166.706 67.9321 L 166.706 68.3104 L 167.518 68.3104 L 167.518 68.3104 z M 174.639 70.131 L 174.639 70.5496 L 175.083 70.5496 L 175.083 66.9285 L 174.644 66.9285 L 174.644 68.2549 L 174.306 67.8716 L 174.099 67.7808 L 173.862 67.7455 L 173.433 67.8464 L 173.101 68.1288 L 172.884 68.5827 L 172.808 69.1929 L 172.884 69.8032 L 173.101 70.2621 L 173.433 70.5496 L 173.862 70.6454 L 174.099 70.6101 L 174.311 70.5193 L 174.639 70.131 L 174.639 70.131 z M 173.938 68.1439 L 174.23 68.2146 L 174.452 68.4112 L 174.583 68.739 L 174.634 69.1929 L 174.583 69.6519 L 174.452 69.9797 L 174.23 70.1814 L 173.938 70.247 L 173.66 70.1814 L 173.448 69.9797 L 173.307 69.6468 L 173.262 69.1929 L 173.307 68.7441 L 173.448 68.4163 L 173.66 68.2146 L 173.938 68.1439 L 173.938 68.1439 z M 176.177 70.5496 L 176.621 70.5496 L 176.621 69.0013 L 176.666 68.6281 L 176.802 68.3608 L 177.024 68.1994 L 177.322 68.1439 L 177.544 68.1792 L 177.71 68.2801 L 177.811 68.4516 L 177.846 68.6836 L 178.295 68.6836 L 178.235 68.2751 L 178.068 67.9826 L 177.791 67.806 L 177.412 67.7455 L 177.155 67.7859 L 176.933 67.8867 L 176.737 68.0582 L 176.58 68.2902 L 176.58 67.8414 L 176.177 67.8414 L 176.177 70.5496 L 176.177 70.5496 z M 178.915 69.198 L 178.996 69.8132 L 179.228 70.2671 L 179.596 70.5496 L 180.09 70.6454 L 180.58 70.5496 L 180.948 70.2722 L 181.18 69.8183 L 181.266 69.198 L 181.18 68.5827 L 180.948 68.1238 L 180.58 67.8464 L 180.09 67.7455 L 179.596 67.8464 L 179.228 68.1288 L 178.996 68.5827 L 178.915 69.198 L 178.915 69.198 z M 179.369 69.1929 L 179.415 68.739 L 179.556 68.4112 L 179.783 68.2095 L 180.09 68.1389 L 180.393 68.2095 L 180.62 68.4062 L 180.761 68.739 L 180.812 69.1929 L 180.761 69.6519 L 180.62 69.9847 L 180.393 70.1864 L 180.09 70.252 L 179.783 70.1864 L 179.556 69.9847 L 179.415 69.6519 L 179.369 69.1929 L 179.369 69.1929 z M 183.439 70.1764 L 183.439 67.9321 L 182.299 67.9321 L 182.299 68.3104 L 182.995 68.3104 L 182.995 70.1764 L 182.088 70.1764 L 182.088 70.5496 L 184.357 70.5496 L 184.357 70.1764 L 183.439 70.1764 L 183.439 70.1764 z M 183.454 66.9285 L 182.985 66.9285 L 182.985 67.4328 L 183.454 67.4328 L 183.454 66.9285 L 183.454 66.9285 z M 185.714 68.3104 L 185.714 69.667 L 185.744 70.1058 L 185.885 70.4084 L 186.168 70.5849 L 186.647 70.6454 L 187.171 70.6202 L 187.171 70.2369 L 186.788 70.2671 L 186.44 70.2268 L 186.253 70.1007 L 186.173 69.8889 L 186.157 69.5914 L 186.157 68.3104 L 187.171 68.3104 L 187.171 67.9321 L 186.157 67.9321 L 186.157 67.1403 L 185.714 67.1403 L 185.714 67.9321 L 184.947 67.9321 L 184.947 68.3104 L 185.714 68.3104 L 185.714 68.3104 z M 188.543 69.3241 L 190.318 69.3241 L 190.323 69.1173 L 190.242 68.5373 L 190.021 68.1036 L 189.668 67.8414 L 189.199 67.7455 L 188.74 67.8464 L 188.387 68.1288 L 188.16 68.5877 L 188.079 69.1929 L 188.155 69.8132 L 188.382 70.2671 L 188.729 70.5496 L 189.183 70.6454 L 189.577 70.5798 L 189.9 70.4084 L 190.137 70.136 L 190.273 69.7729 L 189.834 69.7729 L 189.743 69.9746 L 189.612 70.1259 L 189.239 70.247 L 188.951 70.1915 L 188.735 70.015 L 188.593 69.7275 L 188.543 69.3392 L 188.543 69.3241 L 188.543 69.3241 z M 188.543 68.9509 L 188.598 68.6029 L 188.735 68.3457 L 188.941 68.1893 L 189.214 68.1339 L 189.481 68.1893 L 189.688 68.3457 L 189.814 68.6029 L 189.859 68.9509 L 188.543 68.9509 L 188.543 68.9509 z" stroke="none" fill-rule="evenodd" fill="rgb(0, 0, 0)"/></g><g stroke="rgb(0, 0, 0)" stroke-width="0.13" stroke-linecap="butt" stroke-linejoin="miter" fill="none"><path d="M 148.933 75.4415 L 148.474 75.4415 L 148.575 75.9761 L 148.827 76.3694 L 149.216 76.6065 L 149.74 76.6922 L 150.26 76.6115 L 150.648 76.3896 L 150.895 76.0416 L 150.986 75.5827 L 150.91 75.1692 L 150.698 74.9019 L 150.356 74.7254 L 149.897 74.5942 L 149.503 74.4984 L 149.246 74.3875 L 149.1 74.2261 L 149.054 73.9739 L 149.1 73.747 L 149.231 73.5755 L 149.433 73.4595 L 149.71 73.4192 L 149.992 73.4696 L 150.214 73.6058 L 150.361 73.8327 L 150.431 74.1403 L 150.89 74.1403 L 150.89 74.1302 L 150.809 73.6562 L 150.572 73.3032 L 150.199 73.0813 L 149.695 73.0056 L 149.241 73.0813 L 148.888 73.2931 L 148.661 73.6209 L 148.58 74.0445 L 148.646 74.4228 L 148.838 74.68 L 149.14 74.8514 L 149.554 74.9826 L 149.962 75.0986 L 150.27 75.2095 L 150.456 75.3709 L 150.522 75.6331 L 150.461 75.9004 L 150.305 76.1022 L 150.068 76.2282 L 149.76 76.2686 L 149.417 76.2131 L 149.155 76.0517 L 148.989 75.7895 L 148.933 75.4415 L 148.933 75.4415 z M 153.447 74.7859 L 153.886 74.7859 L 153.795 74.3824 L 153.578 74.0647 L 153.24 73.868 L 152.801 73.7924 L 152.317 73.8932 L 151.949 74.1756 L 151.717 74.6346 L 151.637 75.2498 L 151.712 75.8601 L 151.939 76.314 L 152.297 76.5964 L 152.786 76.6922 L 153.22 76.6166 L 153.558 76.4048 L 153.79 76.0719 L 153.891 75.6281 L 153.467 75.6281 L 153.392 75.9105 L 153.25 76.1223 L 153.049 76.2534 L 152.801 76.2938 L 152.494 76.2282 L 152.272 76.0265 L 152.136 75.6987 L 152.09 75.2347 L 152.136 74.7808 L 152.277 74.453 L 152.504 74.2513 L 152.801 74.1807 L 153.064 74.2261 L 153.26 74.3421 L 153.392 74.5337 L 153.447 74.7859 L 153.447 74.7859 z M 156.367 76.2434 L 156.367 76.2585 L 156.392 76.43 L 156.468 76.551 L 156.786 76.6468 L 157.033 76.6065 L 157.033 76.2635 L 156.927 76.2787 L 156.786 76.2131 L 156.76 76.0114 L 156.76 74.6094 L 156.7 74.2513 L 156.523 73.9991 L 156.216 73.8478 L 155.782 73.7924 L 155.358 73.8529 L 155.046 74.0243 L 154.849 74.2916 L 154.783 74.6447 L 154.783 74.6749 L 155.182 74.6749 L 155.217 74.4631 L 155.328 74.3118 L 155.51 74.221 L 155.767 74.1857 L 156.014 74.2109 L 156.191 74.2866 L 156.296 74.4177 L 156.332 74.5993 L 156.312 74.8111 L 156.231 74.917 L 156.029 74.9674 L 155.651 75.0078 L 155.217 75.0986 L 154.91 75.2599 L 154.728 75.5121 L 154.673 75.8853 L 154.723 76.2182 L 154.879 76.4653 L 155.131 76.6216 L 155.479 76.6771 L 155.948 76.5712 L 156.367 76.2434 L 156.367 76.2434 z M 156.317 75.6483 L 156.256 75.9105 L 156.095 76.1122 L 155.853 76.2434 L 155.555 76.2888 L 155.363 76.2635 L 155.227 76.1828 L 155.142 76.0416 L 155.116 75.845 L 155.137 75.6684 L 155.217 75.5424 L 155.54 75.4011 L 155.948 75.3406 L 156.317 75.2196 L 156.317 75.6483 L 156.317 75.6483 z M 158.677 73.3486 L 158.677 76.2232 L 157.764 76.2232 L 157.764 76.5964 L 160.028 76.5964 L 160.028 76.2232 L 159.121 76.2232 L 159.121 72.9754 L 157.981 72.9754 L 157.981 73.3486 L 158.677 73.3486 L 158.677 73.3486 z M 161.219 75.3709 L 162.994 75.3709 L 162.999 75.1641 L 162.918 74.5841 L 162.696 74.1504 L 162.343 73.8882 L 161.874 73.7924 L 161.415 73.8932 L 161.062 74.1756 L 160.835 74.6346 L 160.755 75.2398 L 160.83 75.8601 L 161.057 76.314 L 161.405 76.5964 L 161.859 76.6922 L 162.253 76.6266 L 162.575 76.4552 L 162.812 76.1828 L 162.948 75.8197 L 162.51 75.8197 L 162.419 76.0215 L 162.288 76.1728 L 161.915 76.2938 L 161.627 76.2383 L 161.41 76.0618 L 161.269 75.7743 L 161.219 75.386 L 161.219 75.3709 L 161.219 75.3709 z M 161.219 74.9977 L 161.274 74.6497 L 161.41 74.3925 L 161.617 74.2362 L 161.889 74.1807 L 162.157 74.2362 L 162.363 74.3925 L 162.49 74.6497 L 162.535 74.9977 L 161.219 74.9977 L 161.219 74.9977 z M 164.562 76.5964 L 165.258 76.5964 L 165.258 75.845 L 164.562 75.845 L 164.562 76.5964 L 164.562 76.5964 z M 164.562 74.6396 L 165.258 74.6396 L 165.258 73.8882 L 164.562 73.8882 L 164.562 74.6396 L 164.562 74.6396 z" stroke="none" fill-rule="evenodd" fill="rgb(0, 0, 0)"/></g><g stroke="rgb(0, 0, 0)" stroke-width="0.13" stroke-linecap="butt" stroke-linejoin="miter" fill="none"><path d="M 173.928 76.5964 L 174.387 76.5964 L 174.387 73.0712 L 174.044 73.0712 L 173.953 73.3788 L 173.771 73.5856 L 173.494 73.7066 L 173.111 73.747 L 173.111 74.105 L 173.928 74.105 L 173.928 76.5964 L 173.928 76.5964 z M 176.706 76.5964 L 177.402 76.5964 L 177.402 75.845 L 176.706 75.845 L 176.706 76.5964 L 176.706 76.5964 z M 176.706 74.6396 L 177.402 74.6396 L 177.402 73.8882 L 176.706 73.8882 L 176.706 74.6396 L 176.706 74.6396 z M 180.368 76.5964 L 180.822 76.5964 L 180.822 75.729 L 181.321 75.729 L 181.321 75.3255 L 180.822 75.3255 L 180.822 73.172 L 180.363 73.172 L 178.83 75.2852 L 178.83 75.729 L 180.368 75.729 L 180.368 76.5964 L 180.368 76.5964 z M 179.253 75.3255 L 180.368 73.757 L 180.368 75.3255 L 179.253 75.3255 L 179.253 75.3255 z" stroke="none" fill-rule="evenodd" fill="rgb(0, 0, 0)"/></g><g stroke="rgb(0, 0, 0)" stroke-width="0.13" stroke-linecap="butt" stroke-linejoin="miter" fill="none"><path d="M 150.836 96.0159 L 150.736 96.4395 L 150.569 96.7421 L 150.337 96.9287 L 150.065 96.9892 L 149.737 96.8984 L 149.48 96.6261 L 149.308 96.1823 L 149.253 95.567 L 149.308 94.9568 L 149.475 94.508 L 149.732 94.2356 L 150.065 94.1398 L 150.307 94.1902 L 150.514 94.3314 L 150.675 94.5584 L 150.786 94.8711 L 151.265 94.8711 L 151.114 94.392 L 150.852 94.0288 L 150.493 93.8019 L 150.065 93.7212 L 149.53 93.8473 L 149.122 94.2003 L 148.859 94.7803 L 148.769 95.567 L 148.859 96.3538 L 149.122 96.9337 L 149.53 97.2918 L 150.065 97.4128 L 150.534 97.317 L 150.912 97.0497 L 151.179 96.611 L 151.321 96.0159 L 150.836 96.0159 L 150.836 96.0159 z M 152.012 97.317 L 152.455 97.317 L 152.455 95.7536 L 152.501 95.3956 L 152.647 95.1333 L 152.874 94.9719 L 153.176 94.9114 L 153.419 94.9618 L 153.57 95.098 L 153.646 95.325 L 153.671 95.6275 L 153.671 97.317 L 154.115 97.317 L 154.115 95.5368 L 154.094 95.1787 L 154.004 94.8812 L 153.706 94.6088 L 153.242 94.513 L 152.99 94.5483 L 152.773 94.6441 L 152.591 94.7954 L 152.455 95.0022 L 152.455 93.696 L 152.012 93.696 L 152.012 97.317 L 152.012 97.317 z M 156.656 96.964 L 156.656 96.9791 L 156.682 97.1506 L 156.757 97.2716 L 157.075 97.3675 L 157.322 97.3271 L 157.322 96.9842 L 157.216 96.9993 L 157.075 96.9337 L 157.05 96.732 L 157.05 95.33 L 156.989 94.9719 L 156.813 94.7198 L 156.505 94.5685 L 156.071 94.513 L 155.648 94.5735 L 155.335 94.745 L 155.138 95.0123 L 155.073 95.3653 L 155.073 95.3956 L 155.471 95.3956 L 155.506 95.1837 L 155.617 95.0324 L 155.799 94.9417 L 156.056 94.9064 L 156.303 94.9316 L 156.48 95.0072 L 156.586 95.1384 L 156.621 95.3199 L 156.601 95.5317 L 156.52 95.6376 L 156.318 95.6881 L 155.94 95.7284 L 155.506 95.8192 L 155.199 95.9806 L 155.017 96.2327 L 154.962 96.6059 L 155.012 96.9388 L 155.169 97.1859 L 155.421 97.3422 L 155.769 97.3977 L 156.238 97.2918 L 156.656 96.964 L 156.656 96.964 z M 156.606 96.3689 L 156.545 96.6311 L 156.384 96.8329 L 156.142 96.964 L 155.844 97.0094 L 155.653 96.9842 L 155.517 96.9035 L 155.431 96.7623 L 155.406 96.5656 L 155.426 96.3891 L 155.506 96.263 L 155.829 96.1218 L 156.238 96.0613 L 156.606 95.9402 L 156.606 96.3689 L 156.606 96.3689 z M 158.502 95.0274 L 158.502 94.6088 L 158.058 94.6088 L 158.058 98.366 L 158.502 98.366 L 158.502 96.9035 L 158.658 97.1405 L 158.835 97.2969 L 159.279 97.4128 L 159.702 97.317 L 160.035 97.0296 L 160.252 96.5757 L 160.333 95.9604 L 160.252 95.3502 L 160.035 94.8963 L 159.702 94.6139 L 159.279 94.513 L 159.037 94.5433 L 158.83 94.6391 L 158.653 94.8005 L 158.502 95.0274 L 158.502 95.0274 z M 159.203 97.0144 L 158.906 96.9489 L 158.689 96.7471 L 158.553 96.4193 L 158.507 95.9604 L 158.553 95.5065 L 158.689 95.1787 L 158.906 94.982 L 159.203 94.9114 L 159.475 94.982 L 159.692 95.1837 L 159.829 95.5116 L 159.879 95.9604 L 159.829 96.4143 L 159.692 96.7471 L 159.475 96.9489 L 159.203 97.0144 L 159.203 97.0144 z M 161.508 96.0915 L 163.283 96.0915 L 163.288 95.8848 L 163.207 95.3048 L 162.986 94.8711 L 162.633 94.6088 L 162.164 94.513 L 161.705 94.6139 L 161.352 94.8963 L 161.125 95.3552 L 161.044 95.9604 L 161.12 96.5807 L 161.347 97.0346 L 161.695 97.317 L 162.148 97.4128 L 162.542 97.3473 L 162.865 97.1758 L 163.102 96.9035 L 163.238 96.5404 L 162.799 96.5404 L 162.708 96.7421 L 162.577 96.8934 L 162.204 97.0144 L 161.916 96.959 L 161.7 96.7824 L 161.558 96.495 L 161.508 96.1067 L 161.508 96.0915 L 161.508 96.0915 z M 161.508 95.7183 L 161.563 95.3703 L 161.7 95.1131 L 161.906 94.9568 L 162.179 94.9013 L 162.446 94.9568 L 162.653 95.1131 L 162.779 95.3703 L 162.824 95.7183 L 161.508 95.7183 L 161.508 95.7183 z M 168.856 96.8984 L 168.856 97.317 L 169.3 97.317 L 169.3 93.696 L 168.861 93.696 L 168.861 95.0224 L 168.523 94.6391 L 168.316 94.5483 L 168.079 94.513 L 167.651 94.6139 L 167.318 94.8963 L 167.101 95.3502 L 167.025 95.9604 L 167.101 96.5706 L 167.318 97.0296 L 167.651 97.317 L 168.079 97.4128 L 168.316 97.3775 L 168.528 97.2868 L 168.856 96.8984 L 168.856 96.8984 z M 168.155 94.9114 L 168.447 94.982 L 168.669 95.1787 L 168.8 95.5065 L 168.851 95.9604 L 168.8 96.4193 L 168.669 96.7471 L 168.447 96.9489 L 168.155 97.0144 L 167.878 96.9489 L 167.666 96.7471 L 167.524 96.4143 L 167.479 95.9604 L 167.524 95.5116 L 167.666 95.1837 L 167.878 94.982 L 168.155 94.9114 L 168.155 94.9114 z M 170.394 97.317 L 170.838 97.317 L 170.838 95.7688 L 170.883 95.3956 L 171.019 95.1283 L 171.241 94.9669 L 171.539 94.9114 L 171.761 94.9467 L 171.927 95.0476 L 172.028 95.219 L 172.063 95.451 L 172.512 95.451 L 172.452 95.0425 L 172.285 94.75 L 172.008 94.5735 L 171.63 94.513 L 171.372 94.5533 L 171.151 94.6542 L 170.954 94.8257 L 170.798 95.0577 L 170.798 94.6088 L 170.394 94.6088 L 170.394 97.317 L 170.394 97.317 z M 173.133 95.9654 L 173.213 96.5807 L 173.445 97.0346 L 173.813 97.317 L 174.308 97.4128 L 174.797 97.317 L 175.165 97.0397 L 175.397 96.5858 L 175.483 95.9654 L 175.397 95.3502 L 175.165 94.8912 L 174.797 94.6139 L 174.308 94.513 L 173.813 94.6139 L 173.445 94.8963 L 173.213 95.3502 L 173.133 95.9654 L 173.133 95.9654 z M 173.586 95.9604 L 173.632 95.5065 L 173.773 95.1787 L 174 94.977 L 174.308 94.9064 L 174.61 94.977 L 174.837 95.1737 L 174.978 95.5065 L 175.029 95.9604 L 174.978 96.4193 L 174.837 96.7522 L 174.61 96.9539 L 174.308 97.0195 L 174 96.9539 L 173.773 96.7522 L 173.632 96.4193 L 173.586 95.9604 L 173.586 95.9604 z M 177.656 96.9438 L 177.656 94.6996 L 176.517 94.6996 L 176.517 95.0778 L 177.213 95.0778 L 177.213 96.9438 L 176.305 96.9438 L 176.305 97.317 L 178.574 97.317 L 178.574 96.9438 L 177.656 96.9438 L 177.656 96.9438 z M 177.671 93.696 L 177.202 93.696 L 177.202 94.2003 L 177.671 94.2003 L 177.671 93.696 L 177.671 93.696 z M 179.931 95.0778 L 179.931 96.4345 L 179.961 96.8732 L 180.102 97.1758 L 180.385 97.3523 L 180.864 97.4128 L 181.388 97.3876 L 181.388 97.0043 L 181.005 97.0346 L 180.657 96.9943 L 180.47 96.8682 L 180.39 96.6564 L 180.375 96.3588 L 180.375 95.0778 L 181.388 95.0778 L 181.388 94.6996 L 180.375 94.6996 L 180.375 93.9078 L 179.931 93.9078 L 179.931 94.6996 L 179.164 94.6996 L 179.164 95.0778 L 179.931 95.0778 L 179.931 95.0778 z M 182.76 96.0915 L 184.535 96.0915 L 184.54 95.8848 L 184.46 95.3048 L 184.238 94.8711 L 183.885 94.6088 L 183.416 94.513 L 182.957 94.6139 L 182.604 94.8963 L 182.377 95.3552 L 182.296 95.9604 L 182.372 96.5807 L 182.599 97.0346 L 182.947 97.317 L 183.401 97.4128 L 183.794 97.3473 L 184.117 97.1758 L 184.354 96.9035 L 184.49 96.5404 L 184.051 96.5404 L 183.96 96.7421 L 183.829 96.8934 L 183.456 97.0144 L 183.169 96.959 L 182.952 96.7824 L 182.811 96.495 L 182.76 96.1067 L 182.76 96.0915 L 182.76 96.0915 z M 182.76 95.7183 L 182.816 95.3703 L 182.952 95.1131 L 183.159 94.9568 L 183.431 94.9013 L 183.698 94.9568 L 183.905 95.1131 L 184.031 95.3703 L 184.076 95.7183 L 182.76 95.7183 L 182.76 95.7183 z" stroke="none" fill-rule="evenodd" fill="rgb(0, 0, 0)"/></g><g stroke="rgb(0, 0, 0)" stroke-width="0.13" stroke-linecap="butt" stroke-linejoin="miter" fill="none"><path d="M 149.223 102.209 L 148.764 102.209 L 148.865 102.744 L 149.117 103.137 L 149.505 103.374 L 150.03 103.46 L 150.549 103.379 L 150.937 103.157 L 151.184 102.809 L 151.275 102.35 L 151.2 101.937 L 150.988 101.669 L 150.645 101.493 L 150.186 101.362 L 149.792 101.266 L 149.535 101.155 L 149.389 100.994 L 149.344 100.741 L 149.389 100.514 L 149.52 100.343 L 149.722 100.227 L 149.999 100.187 L 150.282 100.237 L 150.504 100.373 L 150.65 100.6 L 150.72 100.908 L 151.179 100.908 L 151.179 100.898 L 151.099 100.424 L 150.862 100.071 L 150.488 99.8487 L 149.984 99.7731 L 149.53 99.8487 L 149.177 100.061 L 148.95 100.388 L 148.87 100.812 L 148.935 101.19 L 149.127 101.447 L 149.429 101.619 L 149.843 101.75 L 150.251 101.866 L 150.559 101.977 L 150.746 102.138 L 150.811 102.401 L 150.751 102.668 L 150.594 102.87 L 150.357 102.996 L 150.05 103.036 L 149.707 102.981 L 149.445 102.819 L 149.278 102.557 L 149.223 102.209 L 149.223 102.209 z M 153.736 101.553 L 154.175 101.553 L 154.084 101.15 L 153.867 100.832 L 153.53 100.635 L 153.091 100.56 L 152.607 100.661 L 152.238 100.943 L 152.006 101.402 L 151.926 102.017 L 152.001 102.628 L 152.228 103.081 L 152.586 103.364 L 153.076 103.46 L 153.509 103.384 L 153.847 103.172 L 154.079 102.839 L 154.18 102.396 L 153.756 102.396 L 153.681 102.678 L 153.54 102.89 L 153.338 103.021 L 153.091 103.061 L 152.783 102.996 L 152.561 102.794 L 152.425 102.466 L 152.38 102.002 L 152.425 101.548 L 152.566 101.22 L 152.793 101.019 L 153.091 100.948 L 153.353 100.994 L 153.55 101.11 L 153.681 101.301 L 153.736 101.553 L 153.736 101.553 z M 156.656 103.011 L 156.656 103.026 L 156.682 103.197 L 156.757 103.318 L 157.075 103.414 L 157.322 103.374 L 157.322 103.031 L 157.216 103.046 L 157.075 102.981 L 157.05 102.779 L 157.05 101.377 L 156.989 101.019 L 156.813 100.767 L 156.505 100.615 L 156.071 100.56 L 155.648 100.62 L 155.335 100.792 L 155.138 101.059 L 155.073 101.412 L 155.073 101.442 L 155.471 101.442 L 155.506 101.231 L 155.617 101.079 L 155.799 100.989 L 156.056 100.953 L 156.303 100.978 L 156.48 101.054 L 156.586 101.185 L 156.621 101.367 L 156.601 101.579 L 156.52 101.684 L 156.318 101.735 L 155.94 101.775 L 155.506 101.866 L 155.199 102.027 L 155.017 102.28 L 154.962 102.653 L 155.012 102.986 L 155.169 103.233 L 155.421 103.389 L 155.769 103.445 L 156.238 103.339 L 156.656 103.011 L 156.656 103.011 z M 156.606 102.416 L 156.545 102.678 L 156.384 102.88 L 156.142 103.011 L 155.844 103.056 L 155.653 103.031 L 155.517 102.95 L 155.431 102.809 L 155.406 102.612 L 155.426 102.436 L 155.506 102.31 L 155.829 102.169 L 156.238 102.108 L 156.606 101.987 L 156.606 102.416 L 156.606 102.416 z M 158.966 100.116 L 158.966 102.991 L 158.053 102.991 L 158.053 103.364 L 160.318 103.364 L 160.318 102.991 L 159.41 102.991 L 159.41 99.7428 L 158.27 99.7428 L 158.27 100.116 L 158.966 100.116 L 158.966 100.116 z M 161.508 102.138 L 163.283 102.138 L 163.288 101.932 L 163.207 101.352 L 162.986 100.918 L 162.633 100.656 L 162.164 100.56 L 161.705 100.661 L 161.352 100.943 L 161.125 101.402 L 161.044 102.007 L 161.12 102.628 L 161.347 103.081 L 161.695 103.364 L 162.148 103.46 L 162.542 103.394 L 162.865 103.223 L 163.102 102.95 L 163.238 102.587 L 162.799 102.587 L 162.708 102.789 L 162.577 102.94 L 162.204 103.061 L 161.916 103.006 L 161.7 102.829 L 161.558 102.542 L 161.508 102.153 L 161.508 102.138 L 161.508 102.138 z M 161.508 101.765 L 161.563 101.417 L 161.7 101.16 L 161.906 101.004 L 162.179 100.948 L 162.446 101.004 L 162.653 101.16 L 162.779 101.417 L 162.824 101.765 L 161.508 101.765 L 161.508 101.765 z M 164.852 103.364 L 165.548 103.364 L 165.548 102.612 L 164.852 102.612 L 164.852 103.364 L 164.852 103.364 z M 164.852 101.407 L 165.548 101.407 L 165.548 100.656 L 164.852 100.656 L 164.852 101.407 L 164.852 101.407 z" stroke="none" fill-rule="evenodd" fill="rgb(0, 0, 0)"/></g><g stroke="rgb(0, 0, 0)" stroke-width="0.13" stroke-linecap="butt" stroke-linejoin="miter" fill="none"><path d="M 174.217 103.364 L 174.676 103.364 L 174.676 99.8386 L 174.333 99.8386 L 174.242 100.146 L 174.061 100.353 L 173.783 100.474 L 173.4 100.514 L 173.4 100.873 L 174.217 100.873 L 174.217 103.364 L 174.217 103.364 z M 176.996 103.364 L 177.692 103.364 L 177.692 102.612 L 176.996 102.612 L 176.996 103.364 L 176.996 103.364 z M 176.996 101.407 L 177.692 101.407 L 177.692 100.656 L 176.996 100.656 L 176.996 101.407 L 176.996 101.407 z M 180.657 103.364 L 181.111 103.364 L 181.111 102.496 L 181.61 102.496 L 181.61 102.093 L 181.111 102.093 L 181.111 99.9395 L 180.652 99.9395 L 179.119 102.053 L 179.119 102.496 L 180.657 102.496 L 180.657 103.364 L 180.657 103.364 z M 179.542 102.093 L 180.657 100.525 L 180.657 102.093 L 179.542 102.093 L 179.542 102.093 z" stroke="none" fill-rule="evenodd" fill="rgb(0, 0, 0)"/></g><g stroke="rgb(0, 0, 0)" stroke-width="0.13" stroke-linecap="butt" stroke-linejoin="miter" fill="none"><path d="M 257.778 131.901 L 258.247 131.901 L 258.247 130.292 L 259.719 130.292 L 259.719 129.873 L 258.247 129.873 L 258.247 128.824 L 260.057 128.824 L 260.057 128.401 L 257.778 128.401 L 257.778 131.901 L 257.778 131.901 z M 260.97 131.901 L 261.414 131.901 L 261.414 130.352 L 261.459 129.979 L 261.595 129.712 L 261.817 129.551 L 262.115 129.495 L 262.337 129.53 L 262.503 129.631 L 262.604 129.803 L 262.639 130.035 L 263.088 130.035 L 263.028 129.626 L 262.861 129.334 L 262.584 129.157 L 262.206 129.097 L 261.948 129.137 L 261.726 129.238 L 261.53 129.409 L 261.373 129.641 L 261.373 129.192 L 260.97 129.192 L 260.97 131.901 L 260.97 131.901 z M 263.708 130.549 L 263.789 131.164 L 264.021 131.618 L 264.389 131.901 L 264.883 131.997 L 265.373 131.901 L 265.741 131.623 L 265.973 131.169 L 266.059 130.549 L 265.973 129.934 L 265.741 129.475 L 265.373 129.198 L 264.883 129.097 L 264.389 129.198 L 264.021 129.48 L 263.789 129.934 L 263.708 130.549 L 263.708 130.549 z M 264.162 130.544 L 264.208 130.09 L 264.349 129.762 L 264.576 129.561 L 264.883 129.49 L 265.186 129.561 L 265.413 129.757 L 265.554 130.09 L 265.605 130.544 L 265.554 131.003 L 265.413 131.336 L 265.186 131.538 L 264.883 131.603 L 264.576 131.538 L 264.349 131.336 L 264.208 131.003 L 264.162 130.544 L 264.162 130.544 z M 266.876 131.901 L 267.319 131.901 L 267.319 130.337 L 267.365 129.979 L 267.511 129.717 L 267.738 129.556 L 268.041 129.495 L 268.283 129.546 L 268.434 129.682 L 268.51 129.909 L 268.535 130.211 L 268.535 131.901 L 268.979 131.901 L 268.979 130.12 L 268.958 129.762 L 268.868 129.465 L 268.57 129.192 L 268.106 129.097 L 267.849 129.132 L 267.632 129.228 L 267.445 129.389 L 267.299 129.606 L 267.299 129.192 L 266.876 129.192 L 266.876 131.901 L 266.876 131.901 z M 270.507 129.662 L 270.507 131.018 L 270.537 131.457 L 270.678 131.759 L 270.961 131.936 L 271.44 131.997 L 271.964 131.971 L 271.964 131.588 L 271.581 131.618 L 271.233 131.578 L 271.046 131.452 L 270.966 131.24 L 270.951 130.942 L 270.951 129.662 L 271.964 129.662 L 271.964 129.283 L 270.951 129.283 L 270.951 128.491 L 270.507 128.491 L 270.507 129.283 L 269.74 129.283 L 269.74 129.662 L 270.507 129.662 L 270.507 129.662 z M 276.796 131.901 L 277.265 131.901 L 278.253 129.192 L 277.794 129.192 L 277.033 131.376 L 276.256 129.192 L 275.792 129.192 L 276.796 131.901 L 276.796 131.901 z M 280.376 131.528 L 280.376 129.283 L 279.237 129.283 L 279.237 129.662 L 279.933 129.662 L 279.933 131.528 L 279.025 131.528 L 279.025 131.901 L 281.294 131.901 L 281.294 131.528 L 280.376 131.528 L 280.376 131.528 z M 280.392 128.28 L 279.922 128.28 L 279.922 128.784 L 280.392 128.784 L 280.392 128.28 L 280.392 128.28 z M 282.444 130.675 L 284.219 130.675 L 284.224 130.468 L 284.144 129.888 L 283.922 129.455 L 283.569 129.192 L 283.1 129.097 L 282.641 129.198 L 282.288 129.48 L 282.061 129.939 L 281.98 130.544 L 282.056 131.164 L 282.283 131.618 L 282.631 131.901 L 283.085 131.997 L 283.478 131.931 L 283.801 131.759 L 284.038 131.487 L 284.174 131.124 L 283.735 131.124 L 283.644 131.326 L 283.513 131.477 L 283.14 131.598 L 282.853 131.543 L 282.636 131.366 L 282.495 131.079 L 282.444 130.69 L 282.444 130.675 L 282.444 130.675 z M 282.444 130.302 L 282.5 129.954 L 282.636 129.697 L 282.843 129.54 L 283.115 129.485 L 283.382 129.54 L 283.589 129.697 L 283.715 129.954 L 283.76 130.302 L 282.444 130.302 L 282.444 130.302 z M 285.732 131.901 L 286.136 129.601 L 286.539 131.901 L 286.963 131.901 L 287.629 129.192 L 287.2 129.192 L 286.751 131.492 L 286.353 129.192 L 285.914 129.192 L 285.515 131.492 L 285.067 129.192 L 284.643 129.192 L 285.309 131.901 L 285.732 131.901 L 285.732 131.901 z" stroke="none" fill-rule="evenodd" fill="rgb(0, 0, 0)"/></g><g stroke="rgb(0, 0, 0)" stroke-width="0.13" stroke-linecap="butt" stroke-linejoin="miter" fill="none"><path d="M 258.015 136.793 L 257.556 136.793 L 257.656 137.327 L 257.909 137.721 L 258.297 137.958 L 258.822 138.043 L 259.341 137.963 L 259.729 137.741 L 259.976 137.393 L 260.067 136.934 L 259.992 136.52 L 259.78 136.253 L 259.437 136.076 L 258.978 135.945 L 258.584 135.85 L 258.327 135.739 L 258.181 135.577 L 258.136 135.325 L 258.181 135.098 L 258.312 134.927 L 258.514 134.811 L 258.791 134.77 L 259.074 134.821 L 259.296 134.957 L 259.442 135.184 L 259.512 135.491 L 259.971 135.491 L 259.971 135.481 L 259.891 135.007 L 259.654 134.654 L 259.28 134.432 L 258.776 134.357 L 258.322 134.432 L 257.969 134.644 L 257.742 134.972 L 257.662 135.396 L 257.727 135.774 L 257.919 136.031 L 258.221 136.203 L 258.635 136.334 L 259.043 136.45 L 259.351 136.561 L 259.538 136.722 L 259.603 136.984 L 259.543 137.252 L 259.386 137.453 L 259.149 137.579 L 258.842 137.62 L 258.499 137.564 L 258.236 137.403 L 258.07 137.141 L 258.015 136.793 L 258.015 136.793 z M 262.528 136.137 L 262.967 136.137 L 262.876 135.734 L 262.659 135.416 L 262.322 135.219 L 261.883 135.143 L 261.399 135.244 L 261.03 135.527 L 260.798 135.986 L 260.718 136.601 L 260.793 137.211 L 261.02 137.665 L 261.378 137.948 L 261.868 138.043 L 262.301 137.968 L 262.639 137.756 L 262.871 137.423 L 262.972 136.979 L 262.548 136.979 L 262.473 137.262 L 262.332 137.473 L 262.13 137.605 L 261.883 137.645 L 261.575 137.579 L 261.353 137.378 L 261.217 137.05 L 261.172 136.586 L 261.217 136.132 L 261.358 135.804 L 261.585 135.602 L 261.883 135.532 L 262.145 135.577 L 262.342 135.693 L 262.473 135.885 L 262.528 136.137 L 262.528 136.137 z M 265.448 137.595 L 265.448 137.61 L 265.474 137.781 L 265.549 137.902 L 265.867 137.998 L 266.114 137.958 L 266.114 137.615 L 266.008 137.63 L 265.867 137.564 L 265.842 137.363 L 265.842 135.96 L 265.781 135.602 L 265.605 135.35 L 265.297 135.199 L 264.863 135.143 L 264.44 135.204 L 264.127 135.375 L 263.93 135.643 L 263.865 135.996 L 263.865 136.026 L 264.263 136.026 L 264.298 135.814 L 264.409 135.663 L 264.591 135.572 L 264.848 135.537 L 265.095 135.562 L 265.272 135.638 L 265.378 135.769 L 265.413 135.95 L 265.393 136.162 L 265.312 136.268 L 265.11 136.319 L 264.732 136.359 L 264.298 136.45 L 263.991 136.611 L 263.809 136.863 L 263.754 137.236 L 263.804 137.569 L 263.961 137.816 L 264.213 137.973 L 264.561 138.028 L 265.03 137.922 L 265.448 137.595 L 265.448 137.595 z M 265.398 136.999 L 265.337 137.262 L 265.176 137.463 L 264.934 137.595 L 264.636 137.64 L 264.445 137.615 L 264.309 137.534 L 264.223 137.393 L 264.198 137.196 L 264.218 137.02 L 264.298 136.893 L 264.621 136.752 L 265.03 136.692 L 265.398 136.571 L 265.398 136.999 L 265.398 136.999 z M 267.758 134.7 L 267.758 137.574 L 266.845 137.574 L 266.845 137.948 L 269.11 137.948 L 269.11 137.574 L 268.202 137.574 L 268.202 134.326 L 267.062 134.326 L 267.062 134.7 L 267.758 134.7 L 267.758 134.7 z M 270.3 136.722 L 272.075 136.722 L 272.08 136.515 L 272 135.935 L 271.778 135.502 L 271.425 135.239 L 270.956 135.143 L 270.497 135.244 L 270.144 135.527 L 269.917 135.986 L 269.836 136.591 L 269.912 137.211 L 270.139 137.665 L 270.487 137.948 L 270.94 138.043 L 271.334 137.978 L 271.657 137.806 L 271.894 137.534 L 272.03 137.171 L 271.591 137.171 L 271.5 137.373 L 271.369 137.524 L 270.996 137.645 L 270.708 137.589 L 270.492 137.413 L 270.35 137.125 L 270.3 136.737 L 270.3 136.722 L 270.3 136.722 z M 270.3 136.349 L 270.355 136.001 L 270.492 135.744 L 270.698 135.587 L 270.971 135.532 L 271.238 135.587 L 271.445 135.744 L 271.571 136.001 L 271.616 136.349 L 270.3 136.349 L 270.3 136.349 z M 273.644 137.948 L 274.34 137.948 L 274.34 137.196 L 273.644 137.196 L 273.644 137.948 L 273.644 137.948 z M 273.644 135.991 L 274.34 135.991 L 274.34 135.239 L 273.644 135.239 L 273.644 135.991 L 273.644 135.991 z" stroke="none" fill-rule="evenodd" fill="rgb(0, 0, 0)"/></g><g stroke="rgb(0, 0, 0)" stroke-width="0.13" stroke-linecap="butt" stroke-linejoin="miter" fill="none"><path d="M 283.009 137.948 L 283.468 137.948 L 283.468 134.422 L 283.125 134.422 L 283.034 134.73 L 282.853 134.937 L 282.575 135.058 L 282.192 135.098 L 282.192 135.456 L 283.009 135.456 L 283.009 137.948 L 283.009 137.948 z M 285.788 137.948 L 286.484 137.948 L 286.484 137.196 L 285.788 137.196 L 285.788 137.948 L 285.788 137.948 z M 285.788 135.991 L 286.484 135.991 L 286.484 135.239 L 285.788 135.239 L 285.788 135.991 L 285.788 135.991 z M 289.449 137.948 L 289.903 137.948 L 289.903 137.08 L 290.402 137.08 L 290.402 136.677 L 289.903 136.677 L 289.903 134.523 L 289.444 134.523 L 287.911 136.636 L 287.911 137.08 L 289.449 137.08 L 289.449 137.948 L 289.449 137.948 z M 288.335 136.677 L 289.449 135.108 L 289.449 136.677 L 288.335 136.677 L 288.335 136.677 z" stroke="none" fill-rule="evenodd" fill="rgb(0, 0, 0)"/></g><g stroke="rgb(0, 0, 0)" stroke-width="0.13" stroke-linecap="butt" stroke-linejoin="miter" fill="none"><path d="M 116.875 70.6387 L 116.875 70.1849 L 116.008 70.1849 L 116.008 69.6856 L 115.604 69.6856 L 115.604 70.1849 L 113.451 70.1849 L 113.451 70.6438 L 115.564 72.1769 L 116.008 72.1769 L 116.008 70.6387 L 116.875 70.6387 L 116.875 70.6387 z M 115.604 71.7533 L 114.036 70.6387 L 115.604 70.6387 L 115.604 71.7533 L 115.604 71.7533 z M 115.963 68.4308 L 116.376 68.3199 L 116.699 68.0728 L 116.901 67.7097 L 116.976 67.2457 L 116.885 66.7363 L 116.638 66.3379 L 116.245 66.0857 L 115.741 65.9899 L 115.272 66.0757 L 114.903 66.3177 L 114.666 66.696 L 114.581 67.1852 L 114.641 67.5634 L 114.808 67.8559 L 113.865 67.7147 L 113.865 66.1815 L 113.451 66.1815 L 113.451 68.0526 L 115.307 68.33 L 115.307 67.9265 L 115.07 67.634 L 114.984 67.2608 L 115.04 66.938 L 115.201 66.6909 L 115.448 66.5346 L 115.766 66.4791 L 116.084 66.5346 L 116.331 66.696 L 116.487 66.9431 L 116.543 67.2608 L 116.507 67.5281 L 116.391 67.7349 L 116.21 67.8862 L 115.963 67.9618 L 115.963 68.4308 L 115.963 68.4308 z M 116.875 64.6747 L 116.875 62.269 L 116.442 62.269 L 116.442 64.1703 L 116.205 64.0644 L 116.008 63.8829 L 115.65 63.3231 L 115.499 63.0255 L 115.282 62.6927 L 115.03 62.4556 L 114.732 62.3195 L 114.394 62.269 L 113.97 62.3548 L 113.638 62.5918 L 113.426 62.9549 L 113.35 63.4239 L 113.436 63.9081 L 113.673 64.2762 L 114.051 64.5133 L 114.55 64.594 L 114.621 64.594 L 114.621 64.135 L 114.581 64.135 L 114.238 64.0896 L 113.986 63.9535 L 113.824 63.7366 L 113.769 63.4491 L 113.819 63.1566 L 113.945 62.9398 L 114.142 62.7986 L 114.389 62.7481 L 114.621 62.7834 L 114.818 62.8793 L 114.989 63.0406 L 115.141 63.2625 L 115.302 63.5601 L 115.615 64.0543 L 115.947 64.4023 L 116.351 64.6091 L 116.86 64.6747 L 116.875 64.6747 L 116.875 64.6747 z M 116.875 60.0561 L 116.875 59.3601 L 116.124 59.3601 L 116.124 60.0561 L 116.875 60.0561 L 116.875 60.0561 z M 114.989 56.5974 L 115.13 56.8546 L 115.327 57.0312 L 115.574 57.1421 L 115.872 57.1774 L 116.321 57.0967 L 116.669 56.8647 L 116.891 56.4865 L 116.976 55.9721 L 116.891 55.4627 L 116.669 55.0845 L 116.321 54.8525 L 115.872 54.7668 L 115.574 54.8071 L 115.327 54.913 L 115.13 55.0946 L 114.989 55.3467 L 114.868 55.145 L 114.702 55.0038 L 114.5 54.9181 L 114.253 54.8878 L 113.895 54.9685 L 113.607 55.1803 L 113.421 55.5232 L 113.35 55.9721 L 113.421 56.426 L 113.607 56.7689 L 113.895 56.9858 L 114.253 57.0614 L 114.5 57.0362 L 114.702 56.9505 L 114.989 56.5974 L 114.989 56.5974 z M 115.862 56.6933 L 115.594 56.6479 L 115.393 56.5016 L 115.262 56.2747 L 115.216 55.9721 L 115.262 55.6745 L 115.393 55.4476 L 115.594 55.3013 L 115.862 55.2509 L 116.149 55.3013 L 116.366 55.4476 L 116.507 55.6745 L 116.553 55.9721 L 116.507 56.2747 L 116.366 56.5016 L 116.149 56.6479 L 115.862 56.6933 L 115.862 56.6933 z M 114.293 56.5823 L 114.071 56.542 L 113.9 56.4209 L 113.794 56.2293 L 113.754 55.9721 L 113.794 55.7199 L 113.9 55.5283 L 114.071 55.4073 L 114.293 55.3619 L 114.52 55.4073 L 114.697 55.5283 L 114.813 55.7199 L 114.848 55.9721 L 114.808 56.2293 L 114.697 56.4209 L 114.52 56.542 L 114.293 56.5823 L 114.293 56.5823 z" stroke="none" fill-rule="evenodd" fill="rgb(0, 0, 0)"/><path d="M 119.393 8.77594 L 118.875 6.84409 L 118.358 8.77594"/><path d="M 118.358 118.112 L 118.875 120.044 L 119.393 118.112"/><path d="M 118.875 120.044 L 118.875 6.84409"/></g></svg>