<?xml version="1.0" encoding="utf-8" ?><!DOCTYPE svg PUBLIC "-//W3C//DTD SVG 1.1//EN" "http://www.w3.org/Graphics/SVG/1.1/DTD/svg11.dtd" 
[ <!ATTLIST svg 
  xmlns:dsy CDATA #FIXED "http://www.3ds.com/print"  
    dsy:text-version CDATA #IMPLIED > 

  <!ATTLIST text 
  xmlns:dsy CDATA #FIXED "http://www.3ds.com/print" 
    dsy:text-version CDATA #IMPLIED > 
]><svg xmlns="http://www.w3.org/2000/svg" xmlns:dsy="http://www.3ds.com/print" dsy:text-version="18000" width="297" height="210" viewBox="0 0 297 210" version="1.1"><g stroke="rgb(0, 0, 0)" stroke-width="0.35" stroke-linecap="butt" stroke-linejoin="miter" fill="none"><path d="M 265.339 19.6711 L 262.586 19.5341"/><path d="M 234.782 12.298 L 282.696 14.6827"/><path d="M 276.803 127.747 L 282.696 14.6827"/><path d="M 229.16 125.264 L 276.803 127.747"/><path d="M 234.782 12.298 L 229.16 125.264"/><path d="M 265.409 18.2678 L 265.339 19.6711"/><path d="M 262.656 18.1308 L 265.409 18.2678"/><path d="M 262.586 19.5341 L 262.656 18.1308"/><path d="M 242.099 24.5283 L 241.974 27.0448"/><path d="M 240.565 24.4519 L 242.099 24.5283"/><path d="M 240.439 26.9684 L 240.565 24.4519"/><path d="M 241.974 27.0448 L 240.439 26.9684"/><path d="M 270.621 123.029 L 270.542 124.535"/><path d="M 267.307 122.856 L 270.621 123.029"/><path d="M 267.228 124.362 L 267.307 122.856"/><path d="M 270.542 124.535 L 267.228 124.362"/><path d="M 239.137 84.1302 L 239.017 86.5345"/><path d="M 237.654 84.0564 L 239.137 84.1302"/><path d="M 237.534 86.4607 L 237.654 84.0564"/><path d="M 239.017 86.5345 L 237.534 86.4607"/><circle cx="213.744" cy="22.2497" r="1.25891"/><path d="M 212.204 9.20935 L 208.51 9.19698"/><path d="M 208.51 9.19698 L 208.51 24.2466"/><path d="M 208.51 24.2466 L 218.609 24.2805"/><path d="M 218.609 24.2805 L 218.609 9.2308"/><path d="M 218.609 9.2308 L 215.407 9.2308"/><path d="M 215.407 9.2308 L 215.407 7.69658"/><path d="M 215.407 7.69658 L 212.204 7.69658"/><path d="M 212.204 7.69658 L 212.204 9.20935"/><circle cx="213.342" cy="44.5051" r="1.25"/><path d="M 212.221 32.3076 L 208.237 32.2652"/><path d="M 208.237 32.2652 L 208.237 46.9699"/><path d="M 208.237 46.9699 L 217.698 46.9699"/><path d="M 217.698 46.9699 L 217.698 32.3658"/><path d="M 217.698 32.3658 L 214.587 32.2652"/><path d="M 214.587 32.2652 L 214.586 30.6865"/><path d="M 214.586 30.6865 L 212.238 30.6865"/><path d="M 212.238 30.6865 L 212.221 32.3076"/><circle cx="212.213" cy="62.9402" r="1.25"/><path d="M 210.685 54.328 L 208.313 54.3204"/><path d="M 208.313 54.3204 L 208.313 66.4879"/><path d="M 208.313 66.4879 L 215.859 66.4879"/><path d="M 215.859 66.4879 L 215.859 54.3446"/><path d="M 213.11 54.3358 L 215.859 54.3446"/><path d="M 213.11 52.7926 L 213.11 54.3358"/><path d="M 213.11 52.7926 L 210.635 52.7926"/><path d="M 210.635 52.7926 L 210.685 54.328"/><circle cx="209.945" cy="91.5717" r="1.25"/><path d="M 208.531 77.5719 L 208.55 79.2273"/><path d="M 211.308 77.5719 L 208.531 77.5719"/><path d="M 211.295 79.2442 L 211.308 77.5719"/><path d="M 213.778 79.2442 L 211.295 79.2442"/><path d="M 213.778 94.9604 L 213.778 79.2442"/><path d="M 206.167 94.9604 L 213.778 94.9604"/><path d="M 206.167 79.2273 L 206.167 94.9604"/><path d="M 208.55 79.2273 L 206.167 79.2273"/></g><g stroke="rgb(0, 0, 0)" stroke-width="0.13" stroke-linecap="butt" stroke-linejoin="miter" fill="none"><path d="M 256.412 139.604 L 256.881 139.604 L 256.881 137.995 L 258.354 137.995 L 258.354 137.576 L 256.881 137.576 L 256.881 136.527 L 258.692 136.527 L 258.692 136.104 L 256.412 136.104 L 256.412 139.604 L 256.412 139.604 z M 259.605 139.604 L 260.048 139.604 L 260.048 138.055 L 260.094 137.682 L 260.23 137.415 L 260.452 137.253 L 260.749 137.198 L 260.971 137.233 L 261.138 137.334 L 261.238 137.506 L 261.274 137.738 L 261.723 137.738 L 261.662 137.329 L 261.496 137.037 L 261.218 136.86 L 260.84 136.8 L 260.583 136.84 L 260.361 136.941 L 260.164 137.112 L 260.008 137.344 L 260.008 136.895 L 259.605 136.895 L 259.605 139.604 L 259.605 139.604 z M 262.343 138.252 L 262.424 138.867 L 262.656 139.321 L 263.024 139.604 L 263.518 139.699 L 264.007 139.604 L 264.375 139.326 L 264.607 138.872 L 264.693 138.252 L 264.607 137.637 L 264.375 137.178 L 264.007 136.9 L 263.518 136.8 L 263.024 136.9 L 262.656 137.183 L 262.424 137.637 L 262.343 138.252 L 262.343 138.252 z M 262.797 138.247 L 262.842 137.793 L 262.983 137.465 L 263.21 137.264 L 263.518 137.193 L 263.821 137.264 L 264.048 137.46 L 264.189 137.793 L 264.239 138.247 L 264.189 138.706 L 264.048 139.039 L 263.821 139.24 L 263.518 139.306 L 263.21 139.24 L 262.983 139.039 L 262.842 138.706 L 262.797 138.247 L 262.797 138.247 z M 265.51 139.604 L 265.954 139.604 L 265.954 138.04 L 265.999 137.682 L 266.146 137.42 L 266.372 137.258 L 266.675 137.198 L 266.917 137.248 L 267.068 137.385 L 267.144 137.611 L 267.169 137.914 L 267.169 139.604 L 267.613 139.604 L 267.613 137.823 L 267.593 137.465 L 267.502 137.168 L 267.205 136.895 L 266.741 136.8 L 266.483 136.835 L 266.267 136.931 L 266.08 137.092 L 265.934 137.309 L 265.934 136.895 L 265.51 136.895 L 265.51 139.604 L 265.51 139.604 z M 269.141 137.364 L 269.141 138.721 L 269.171 139.16 L 269.313 139.462 L 269.595 139.639 L 270.074 139.699 L 270.599 139.674 L 270.599 139.291 L 270.215 139.321 L 269.867 139.281 L 269.681 139.155 L 269.6 138.943 L 269.585 138.645 L 269.585 137.364 L 270.599 137.364 L 270.599 136.986 L 269.585 136.986 L 269.585 136.194 L 269.141 136.194 L 269.141 136.986 L 268.375 136.986 L 268.375 137.364 L 269.141 137.364 L 269.141 137.364 z M 275.43 139.604 L 275.899 139.604 L 276.888 136.895 L 276.429 136.895 L 275.667 139.079 L 274.89 136.895 L 274.426 136.895 L 275.43 139.604 L 275.43 139.604 z M 279.011 139.23 L 279.011 136.986 L 277.871 136.986 L 277.871 137.364 L 278.567 137.364 L 278.567 139.23 L 277.659 139.23 L 277.659 139.604 L 279.929 139.604 L 279.929 139.23 L 279.011 139.23 L 279.011 139.23 z M 279.026 135.983 L 278.557 135.983 L 278.557 136.487 L 279.026 136.487 L 279.026 135.983 L 279.026 135.983 z M 281.078 138.378 L 282.854 138.378 L 282.859 138.171 L 282.778 137.591 L 282.556 137.158 L 282.203 136.895 L 281.734 136.8 L 281.275 136.9 L 280.922 137.183 L 280.695 137.642 L 280.615 138.247 L 280.69 138.867 L 280.917 139.321 L 281.265 139.604 L 281.719 139.699 L 282.112 139.634 L 282.435 139.462 L 282.672 139.19 L 282.808 138.827 L 282.37 138.827 L 282.279 139.029 L 282.148 139.18 L 281.774 139.301 L 281.487 139.245 L 281.27 139.069 L 281.129 138.782 L 281.078 138.393 L 281.078 138.378 L 281.078 138.378 z M 281.078 138.005 L 281.134 137.657 L 281.27 137.4 L 281.477 137.243 L 281.749 137.188 L 282.017 137.243 L 282.223 137.4 L 282.349 137.657 L 282.395 138.005 L 281.078 138.005 L 281.078 138.005 z M 284.367 139.604 L 284.77 137.304 L 285.174 139.604 L 285.597 139.604 L 286.263 136.895 L 285.834 136.895 L 285.385 139.195 L 284.987 136.895 L 284.548 136.895 L 284.15 139.195 L 283.701 136.895 L 283.277 136.895 L 283.943 139.604 L 284.367 139.604 L 284.367 139.604 z" stroke="none" fill-rule="evenodd" fill="rgb(0, 0, 0)"/></g><g stroke="rgb(0, 0, 0)" stroke-width="0.13" stroke-linecap="butt" stroke-linejoin="miter" fill="none"><path d="M 256.649 144.495 L 256.19 144.495 L 256.291 145.03 L 256.543 145.423 L 256.932 145.66 L 257.456 145.746 L 257.976 145.666 L 258.364 145.444 L 258.611 145.096 L 258.702 144.637 L 258.626 144.223 L 258.414 143.956 L 258.071 143.779 L 257.612 143.648 L 257.219 143.552 L 256.962 143.441 L 256.816 143.28 L 256.77 143.028 L 256.816 142.801 L 256.947 142.63 L 257.148 142.514 L 257.426 142.473 L 257.708 142.524 L 257.93 142.66 L 258.076 142.887 L 258.147 143.194 L 258.606 143.194 L 258.606 143.184 L 258.525 142.71 L 258.288 142.357 L 257.915 142.135 L 257.411 142.06 L 256.957 142.135 L 256.604 142.347 L 256.377 142.675 L 256.296 143.099 L 256.362 143.477 L 256.553 143.734 L 256.856 143.905 L 257.27 144.037 L 257.678 144.153 L 257.986 144.263 L 258.172 144.425 L 258.238 144.687 L 258.177 144.954 L 258.021 145.156 L 257.784 145.282 L 257.476 145.323 L 257.133 145.267 L 256.871 145.106 L 256.705 144.843 L 256.649 144.495 L 256.649 144.495 z M 261.163 143.84 L 261.602 143.84 L 261.511 143.436 L 261.294 143.119 L 260.956 142.922 L 260.517 142.846 L 260.033 142.947 L 259.665 143.23 L 259.433 143.689 L 259.352 144.304 L 259.428 144.914 L 259.655 145.368 L 260.013 145.65 L 260.502 145.746 L 260.936 145.671 L 261.274 145.459 L 261.506 145.126 L 261.607 144.682 L 261.183 144.682 L 261.107 144.965 L 260.966 145.176 L 260.764 145.307 L 260.517 145.348 L 260.21 145.282 L 259.988 145.08 L 259.852 144.753 L 259.806 144.289 L 259.852 143.835 L 259.993 143.507 L 260.22 143.305 L 260.517 143.235 L 260.78 143.28 L 260.976 143.396 L 261.107 143.588 L 261.163 143.84 L 261.163 143.84 z M 264.083 145.297 L 264.083 145.312 L 264.108 145.484 L 264.184 145.605 L 264.501 145.701 L 264.749 145.66 L 264.749 145.318 L 264.643 145.333 L 264.501 145.267 L 264.476 145.065 L 264.476 143.663 L 264.416 143.305 L 264.239 143.053 L 263.932 142.902 L 263.498 142.846 L 263.074 142.907 L 262.762 143.078 L 262.565 143.346 L 262.499 143.699 L 262.499 143.729 L 262.898 143.729 L 262.933 143.517 L 263.044 143.366 L 263.226 143.275 L 263.483 143.24 L 263.73 143.265 L 263.906 143.341 L 264.012 143.472 L 264.048 143.653 L 264.027 143.865 L 263.947 143.971 L 263.745 144.021 L 263.367 144.062 L 262.933 144.153 L 262.625 144.314 L 262.444 144.566 L 262.388 144.939 L 262.439 145.272 L 262.595 145.519 L 262.847 145.676 L 263.195 145.731 L 263.664 145.625 L 264.083 145.297 L 264.083 145.297 z M 264.032 144.702 L 263.972 144.965 L 263.811 145.166 L 263.568 145.297 L 263.271 145.343 L 263.079 145.318 L 262.943 145.237 L 262.857 145.096 L 262.832 144.899 L 262.852 144.722 L 262.933 144.596 L 263.256 144.455 L 263.664 144.395 L 264.032 144.274 L 264.032 144.702 L 264.032 144.702 z M 266.393 142.403 L 266.393 145.277 L 265.48 145.277 L 265.48 145.65 L 267.744 145.65 L 267.744 145.277 L 266.836 145.277 L 266.836 142.029 L 265.697 142.029 L 265.697 142.403 L 266.393 142.403 L 266.393 142.403 z M 268.934 144.425 L 270.71 144.425 L 270.715 144.218 L 270.634 143.638 L 270.412 143.204 L 270.059 142.942 L 269.59 142.846 L 269.131 142.947 L 268.778 143.23 L 268.551 143.689 L 268.47 144.294 L 268.546 144.914 L 268.773 145.368 L 269.121 145.65 L 269.575 145.746 L 269.968 145.681 L 270.291 145.509 L 270.528 145.237 L 270.664 144.874 L 270.225 144.874 L 270.135 145.075 L 270.004 145.227 L 269.63 145.348 L 269.343 145.292 L 269.126 145.116 L 268.985 144.828 L 268.934 144.44 L 268.934 144.425 L 268.934 144.425 z M 268.934 144.052 L 268.99 143.704 L 269.126 143.446 L 269.333 143.29 L 269.605 143.235 L 269.872 143.29 L 270.079 143.446 L 270.205 143.704 L 270.251 144.052 L 268.934 144.052 L 268.934 144.052 z M 272.278 145.65 L 272.974 145.65 L 272.974 144.899 L 272.278 144.899 L 272.278 145.65 L 272.278 145.65 z M 272.278 143.694 L 272.974 143.694 L 272.974 142.942 L 272.278 142.942 L 272.278 143.694 L 272.278 143.694 z" stroke="none" fill-rule="evenodd" fill="rgb(0, 0, 0)"/></g><g stroke="rgb(0, 0, 0)" stroke-width="0.13" stroke-linecap="butt" stroke-linejoin="miter" fill="none"><path d="M 281.643 145.65 L 282.102 145.65 L 282.102 142.125 L 281.759 142.125 L 281.669 142.433 L 281.487 142.64 L 281.21 142.761 L 280.826 142.801 L 280.826 143.159 L 281.643 143.159 L 281.643 145.65 L 281.643 145.65 z M 284.422 145.65 L 285.118 145.65 L 285.118 144.899 L 284.422 144.899 L 284.422 145.65 L 284.422 145.65 z M 284.422 143.694 L 285.118 143.694 L 285.118 142.942 L 284.422 142.942 L 284.422 143.694 L 284.422 143.694 z M 288.084 145.65 L 288.537 145.65 L 288.537 144.783 L 289.037 144.783 L 289.037 144.379 L 288.537 144.379 L 288.537 142.226 L 288.079 142.226 L 286.545 144.339 L 286.545 144.783 L 288.084 144.783 L 288.084 145.65 L 288.084 145.65 z M 286.969 144.379 L 288.084 142.811 L 288.084 144.379 L 286.969 144.379 L 286.969 144.379 z" stroke="none" fill-rule="evenodd" fill="rgb(0, 0, 0)"/></g><g stroke="rgb(0, 0, 0)" stroke-width="0.13" stroke-linecap="butt" stroke-linejoin="miter" fill="none"><path d="M 168.067 16.831 L 168.536 16.831 L 168.536 15.2222 L 170.009 15.2222 L 170.009 14.8037 L 168.536 14.8037 L 168.536 13.7547 L 170.347 13.7547 L 170.347 13.331 L 168.067 13.331 L 168.067 16.831 L 168.067 16.831 z M 171.259 16.831 L 171.703 16.831 L 171.703 15.2828 L 171.749 14.9096 L 171.885 14.6423 L 172.107 14.4809 L 172.404 14.4254 L 172.626 14.4607 L 172.793 14.5616 L 172.893 14.7331 L 172.929 14.965 L 173.378 14.965 L 173.317 14.5565 L 173.151 14.264 L 172.873 14.0875 L 172.495 14.027 L 172.238 14.0674 L 172.016 14.1682 L 171.819 14.3397 L 171.663 14.5717 L 171.663 14.1228 L 171.259 14.1228 L 171.259 16.831 L 171.259 16.831 z M 173.998 15.4795 L 174.079 16.0947 L 174.311 16.5486 L 174.679 16.831 L 175.173 16.9269 L 175.662 16.831 L 176.03 16.5537 L 176.262 16.0998 L 176.348 15.4795 L 176.262 14.8642 L 176.03 14.4052 L 175.662 14.1279 L 175.173 14.027 L 174.679 14.1279 L 174.311 14.4103 L 174.079 14.8642 L 173.998 15.4795 L 173.998 15.4795 z M 174.452 15.4744 L 174.497 15.0205 L 174.638 14.6927 L 174.865 14.491 L 175.173 14.4204 L 175.476 14.491 L 175.703 14.6877 L 175.844 15.0205 L 175.894 15.4744 L 175.844 15.9333 L 175.703 16.2662 L 175.476 16.4679 L 175.173 16.5335 L 174.865 16.4679 L 174.638 16.2662 L 174.497 15.9333 L 174.452 15.4744 L 174.452 15.4744 z M 177.165 16.831 L 177.609 16.831 L 177.609 15.2676 L 177.654 14.9096 L 177.801 14.6473 L 178.027 14.4859 L 178.33 14.4254 L 178.572 14.4758 L 178.723 14.612 L 178.799 14.839 L 178.824 15.1416 L 178.824 16.831 L 179.268 16.831 L 179.268 15.0508 L 179.248 14.6927 L 179.157 14.3952 L 178.86 14.1228 L 178.396 14.027 L 178.138 14.0623 L 177.922 14.1581 L 177.735 14.3195 L 177.589 14.5364 L 177.589 14.1228 L 177.165 14.1228 L 177.165 16.831 L 177.165 16.831 z M 180.796 14.5918 L 180.796 15.9485 L 180.826 16.3872 L 180.968 16.6898 L 181.25 16.8663 L 181.729 16.9269 L 182.254 16.9016 L 182.254 16.5184 L 181.87 16.5486 L 181.522 16.5083 L 181.336 16.3822 L 181.255 16.1704 L 181.24 15.8728 L 181.24 14.5918 L 182.254 14.5918 L 182.254 14.2136 L 181.24 14.2136 L 181.24 13.4218 L 180.796 13.4218 L 180.796 14.2136 L 180.03 14.2136 L 180.03 14.5918 L 180.796 14.5918 L 180.796 14.5918 z M 187.085 16.831 L 187.554 16.831 L 188.543 14.1228 L 188.084 14.1228 L 187.322 16.3065 L 186.546 14.1228 L 186.082 14.1228 L 187.085 16.831 L 187.085 16.831 z M 190.666 16.4578 L 190.666 14.2136 L 189.526 14.2136 L 189.526 14.5918 L 190.222 14.5918 L 190.222 16.4578 L 189.314 16.4578 L 189.314 16.831 L 191.584 16.831 L 191.584 16.4578 L 190.666 16.4578 L 190.666 16.4578 z M 190.681 13.21 L 190.212 13.21 L 190.212 13.7143 L 190.681 13.7143 L 190.681 13.21 L 190.681 13.21 z M 192.734 15.6055 L 194.509 15.6055 L 194.514 15.3988 L 194.433 14.8188 L 194.211 14.3851 L 193.858 14.1228 L 193.389 14.027 L 192.93 14.1279 L 192.577 14.4103 L 192.35 14.8692 L 192.27 15.4744 L 192.345 16.0947 L 192.572 16.5486 L 192.92 16.831 L 193.374 16.9269 L 193.767 16.8613 L 194.09 16.6898 L 194.327 16.4175 L 194.463 16.0544 L 194.025 16.0544 L 193.934 16.2561 L 193.803 16.4074 L 193.43 16.5284 L 193.142 16.473 L 192.925 16.2965 L 192.784 16.009 L 192.734 15.6207 L 192.734 15.6055 L 192.734 15.6055 z M 192.734 15.2323 L 192.789 14.8844 L 192.925 14.6272 L 193.132 14.4708 L 193.404 14.4153 L 193.672 14.4708 L 193.878 14.6272 L 194.004 14.8844 L 194.05 15.2323 L 192.734 15.2323 L 192.734 15.2323 z M 196.022 16.831 L 196.425 14.5313 L 196.829 16.831 L 197.252 16.831 L 197.918 14.1228 L 197.489 14.1228 L 197.04 16.4225 L 196.642 14.1228 L 196.203 14.1228 L 195.805 16.4225 L 195.356 14.1228 L 194.932 14.1228 L 195.598 16.831 L 196.022 16.831 L 196.022 16.831 z" stroke="none" fill-rule="evenodd" fill="rgb(0, 0, 0)"/></g><g stroke="rgb(0, 0, 0)" stroke-width="0.13" stroke-linecap="butt" stroke-linejoin="miter" fill="none"><path d="M 202.406 16.831 L 202.865 16.831 L 202.865 13.3058 L 202.522 13.3058 L 202.432 13.6135 L 202.25 13.8202 L 201.973 13.9413 L 201.589 13.9816 L 201.589 14.3397 L 202.406 14.3397 L 202.406 16.831 L 202.406 16.831 z" stroke="none" fill-rule="evenodd" fill="rgb(0, 0, 0)"/></g><g stroke="rgb(0, 0, 0)" stroke-width="0.13" stroke-linecap="butt" stroke-linejoin="miter" fill="none"><path d="M 168.304 21.723 L 167.845 21.723 L 167.946 22.2576 L 168.198 22.6509 L 168.587 22.888 L 169.111 22.9737 L 169.631 22.893 L 170.019 22.6711 L 170.266 22.3231 L 170.357 21.8642 L 170.281 21.4506 L 170.069 21.1833 L 169.726 21.0068 L 169.267 20.8757 L 168.874 20.7799 L 168.617 20.6689 L 168.471 20.5076 L 168.425 20.2554 L 168.471 20.0284 L 168.602 19.857 L 168.803 19.741 L 169.081 19.7006 L 169.363 19.7511 L 169.585 19.8872 L 169.731 20.1142 L 169.802 20.4218 L 170.261 20.4218 L 170.261 20.4117 L 170.18 19.9377 L 169.943 19.5846 L 169.57 19.3627 L 169.066 19.2871 L 168.612 19.3627 L 168.259 19.5746 L 168.032 19.9024 L 167.951 20.326 L 168.017 20.7042 L 168.208 20.9614 L 168.511 21.1329 L 168.924 21.264 L 169.333 21.38 L 169.641 21.491 L 169.827 21.6524 L 169.893 21.9146 L 169.832 22.1819 L 169.676 22.3836 L 169.439 22.5097 L 169.131 22.5501 L 168.788 22.4946 L 168.526 22.3332 L 168.36 22.071 L 168.304 21.723 L 168.304 21.723 z M 172.818 21.0674 L 173.257 21.0674 L 173.166 20.6639 L 172.949 20.3462 L 172.611 20.1495 L 172.172 20.0738 L 171.688 20.1747 L 171.32 20.4571 L 171.088 20.916 L 171.007 21.5313 L 171.083 22.1416 L 171.31 22.5954 L 171.668 22.8779 L 172.157 22.9737 L 172.591 22.898 L 172.929 22.6862 L 173.161 22.3534 L 173.262 21.9096 L 172.838 21.9096 L 172.762 22.192 L 172.621 22.4038 L 172.419 22.5349 L 172.172 22.5753 L 171.865 22.5097 L 171.643 22.308 L 171.507 21.9802 L 171.461 21.5162 L 171.507 21.0623 L 171.648 20.7345 L 171.875 20.5328 L 172.172 20.4622 L 172.435 20.5076 L 172.631 20.6236 L 172.762 20.8152 L 172.818 21.0674 L 172.818 21.0674 z M 175.738 22.5248 L 175.738 22.54 L 175.763 22.7114 L 175.839 22.8325 L 176.156 22.9283 L 176.404 22.888 L 176.404 22.545 L 176.298 22.5602 L 176.156 22.4946 L 176.131 22.2929 L 176.131 20.8908 L 176.071 20.5328 L 175.894 20.2806 L 175.587 20.1293 L 175.153 20.0738 L 174.729 20.1344 L 174.417 20.3058 L 174.22 20.5731 L 174.154 20.9261 L 174.154 20.9564 L 174.553 20.9564 L 174.588 20.7446 L 174.699 20.5933 L 174.881 20.5025 L 175.138 20.4672 L 175.385 20.4924 L 175.561 20.5681 L 175.667 20.6992 L 175.703 20.8808 L 175.682 21.0926 L 175.602 21.1985 L 175.4 21.2489 L 175.022 21.2892 L 174.588 21.38 L 174.28 21.5414 L 174.099 21.7936 L 174.043 22.1668 L 174.094 22.4996 L 174.25 22.7467 L 174.502 22.9031 L 174.85 22.9586 L 175.319 22.8526 L 175.738 22.5248 L 175.738 22.5248 z M 175.687 21.9297 L 175.627 22.192 L 175.466 22.3937 L 175.223 22.5248 L 174.926 22.5702 L 174.734 22.545 L 174.598 22.4643 L 174.512 22.3231 L 174.487 22.1264 L 174.507 21.9499 L 174.588 21.8238 L 174.911 21.6826 L 175.319 21.6221 L 175.687 21.5011 L 175.687 21.9297 L 175.687 21.9297 z M 178.048 19.63 L 178.048 22.5047 L 177.135 22.5047 L 177.135 22.8779 L 179.399 22.8779 L 179.399 22.5047 L 178.491 22.5047 L 178.491 19.2568 L 177.352 19.2568 L 177.352 19.63 L 178.048 19.63 L 178.048 19.63 z M 180.589 21.6524 L 182.365 21.6524 L 182.37 21.4456 L 182.289 20.8656 L 182.067 20.4319 L 181.714 20.1697 L 181.245 20.0738 L 180.786 20.1747 L 180.433 20.4571 L 180.206 20.916 L 180.125 21.5212 L 180.201 22.1416 L 180.428 22.5954 L 180.776 22.8779 L 181.23 22.9737 L 181.623 22.9081 L 181.946 22.7367 L 182.183 22.4643 L 182.319 22.1012 L 181.881 22.1012 L 181.79 22.3029 L 181.659 22.4542 L 181.285 22.5753 L 180.998 22.5198 L 180.781 22.3433 L 180.64 22.0558 L 180.589 21.6675 L 180.589 21.6524 L 180.589 21.6524 z M 180.589 21.2792 L 180.645 20.9312 L 180.781 20.674 L 180.988 20.5176 L 181.26 20.4622 L 181.527 20.5176 L 181.734 20.674 L 181.86 20.9312 L 181.906 21.2792 L 180.589 21.2792 L 180.589 21.2792 z M 183.933 22.8779 L 184.629 22.8779 L 184.629 22.1264 L 183.933 22.1264 L 183.933 22.8779 L 183.933 22.8779 z M 183.933 20.9211 L 184.629 20.9211 L 184.629 20.1697 L 183.933 20.1697 L 183.933 20.9211 L 183.933 20.9211 z" stroke="none" fill-rule="evenodd" fill="rgb(0, 0, 0)"/></g><g stroke="rgb(0, 0, 0)" stroke-width="0.13" stroke-linecap="butt" stroke-linejoin="miter" fill="none"><path d="M 193.298 22.8779 L 193.757 22.8779 L 193.757 19.3526 L 193.414 19.3526 L 193.324 19.6603 L 193.142 19.8671 L 192.865 19.9881 L 192.481 20.0284 L 192.481 20.3865 L 193.298 20.3865 L 193.298 22.8779 L 193.298 22.8779 z M 196.077 22.8779 L 196.773 22.8779 L 196.773 22.1264 L 196.077 22.1264 L 196.077 22.8779 L 196.077 22.8779 z M 196.077 20.9211 L 196.773 20.9211 L 196.773 20.1697 L 196.077 20.1697 L 196.077 20.9211 L 196.077 20.9211 z M 199.739 22.8779 L 200.192 22.8779 L 200.192 22.0104 L 200.692 22.0104 L 200.692 21.607 L 200.192 21.607 L 200.192 19.4535 L 199.734 19.4535 L 198.2 21.5666 L 198.2 22.0104 L 199.739 22.0104 L 199.739 22.8779 L 199.739 22.8779 z M 198.624 21.607 L 199.739 20.0385 L 199.739 21.607 L 198.624 21.607 L 198.624 21.607 z" stroke="none" fill-rule="evenodd" fill="rgb(0, 0, 0)"/></g><g stroke="rgb(0, 0, 0)" stroke-width="0.13" stroke-linecap="butt" stroke-linejoin="miter" fill="none"><path d="M 167.728 42.0309 L 168.197 42.0309 L 168.197 40.4221 L 169.67 40.4221 L 169.67 40.0036 L 168.197 40.0036 L 168.197 38.9546 L 170.008 38.9546 L 170.008 38.5309 L 167.728 38.5309 L 167.728 42.0309 L 167.728 42.0309 z M 170.921 42.0309 L 171.364 42.0309 L 171.364 40.4827 L 171.41 40.1095 L 171.546 39.8422 L 171.768 39.6808 L 172.065 39.6253 L 172.287 39.6606 L 172.454 39.7615 L 172.555 39.933 L 172.59 40.1649 L 173.039 40.1649 L 172.978 39.7564 L 172.812 39.4639 L 172.534 39.2874 L 172.156 39.2269 L 171.899 39.2672 L 171.677 39.3681 L 171.48 39.5396 L 171.324 39.7716 L 171.324 39.3227 L 170.921 39.3227 L 170.921 42.0309 L 170.921 42.0309 z M 173.659 40.6794 L 173.74 41.2946 L 173.972 41.7485 L 174.34 42.0309 L 174.834 42.1268 L 175.323 42.0309 L 175.691 41.7536 L 175.923 41.2997 L 176.009 40.6794 L 175.923 40.0641 L 175.691 39.6051 L 175.323 39.3278 L 174.834 39.2269 L 174.34 39.3278 L 173.972 39.6102 L 173.74 40.0641 L 173.659 40.6794 L 173.659 40.6794 z M 174.113 40.6743 L 174.158 40.2204 L 174.299 39.8926 L 174.526 39.6909 L 174.834 39.6203 L 175.137 39.6909 L 175.364 39.8876 L 175.505 40.2204 L 175.555 40.6743 L 175.505 41.1332 L 175.364 41.4661 L 175.137 41.6678 L 174.834 41.7334 L 174.526 41.6678 L 174.299 41.4661 L 174.158 41.1332 L 174.113 40.6743 L 174.113 40.6743 z M 176.826 42.0309 L 177.27 42.0309 L 177.27 40.4675 L 177.315 40.1095 L 177.462 39.8472 L 177.689 39.6858 L 177.991 39.6253 L 178.233 39.6757 L 178.384 39.8119 L 178.46 40.0388 L 178.485 40.3414 L 178.485 42.0309 L 178.929 42.0309 L 178.929 40.2507 L 178.909 39.8926 L 178.818 39.595 L 178.521 39.3227 L 178.057 39.2269 L 177.799 39.2622 L 177.583 39.358 L 177.396 39.5194 L 177.25 39.7363 L 177.25 39.3227 L 176.826 39.3227 L 176.826 42.0309 L 176.826 42.0309 z M 180.457 39.7917 L 180.457 41.1484 L 180.488 41.5871 L 180.629 41.8897 L 180.911 42.0662 L 181.39 42.1268 L 181.915 42.1015 L 181.915 41.7182 L 181.531 41.7485 L 181.183 41.7082 L 180.997 41.5821 L 180.916 41.3703 L 180.901 41.0727 L 180.901 39.7917 L 181.915 39.7917 L 181.915 39.4135 L 180.901 39.4135 L 180.901 38.6217 L 180.457 38.6217 L 180.457 39.4135 L 179.691 39.4135 L 179.691 39.7917 L 180.457 39.7917 L 180.457 39.7917 z M 186.746 42.0309 L 187.215 42.0309 L 188.204 39.3227 L 187.745 39.3227 L 186.983 41.5064 L 186.207 39.3227 L 185.743 39.3227 L 186.746 42.0309 L 186.746 42.0309 z M 190.327 41.6577 L 190.327 39.4135 L 189.187 39.4135 L 189.187 39.7917 L 189.883 39.7917 L 189.883 41.6577 L 188.975 41.6577 L 188.975 42.0309 L 191.245 42.0309 L 191.245 41.6577 L 190.327 41.6577 L 190.327 41.6577 z M 190.342 38.4099 L 189.873 38.4099 L 189.873 38.9142 L 190.342 38.9142 L 190.342 38.4099 L 190.342 38.4099 z M 192.395 40.8054 L 194.17 40.8054 L 194.175 40.5986 L 194.094 40.0187 L 193.872 39.585 L 193.519 39.3227 L 193.05 39.2269 L 192.591 39.3278 L 192.238 39.6102 L 192.011 40.0691 L 191.931 40.6743 L 192.006 41.2946 L 192.233 41.7485 L 192.581 42.0309 L 193.035 42.1268 L 193.428 42.0612 L 193.751 41.8897 L 193.988 41.6174 L 194.124 41.2543 L 193.686 41.2543 L 193.595 41.456 L 193.464 41.6073 L 193.091 41.7283 L 192.803 41.6729 L 192.586 41.4964 L 192.445 41.2089 L 192.395 40.8206 L 192.395 40.8054 L 192.395 40.8054 z M 192.395 40.4322 L 192.45 40.0842 L 192.586 39.827 L 192.793 39.6707 L 193.065 39.6152 L 193.333 39.6707 L 193.539 39.827 L 193.665 40.0842 L 193.711 40.4322 L 192.395 40.4322 L 192.395 40.4322 z M 195.683 42.0309 L 196.086 39.7312 L 196.49 42.0309 L 196.913 42.0309 L 197.579 39.3227 L 197.15 39.3227 L 196.702 41.6224 L 196.303 39.3227 L 195.864 39.3227 L 195.466 41.6224 L 195.017 39.3227 L 194.593 39.3227 L 195.259 42.0309 L 195.683 42.0309 L 195.683 42.0309 z" stroke="none" fill-rule="evenodd" fill="rgb(0, 0, 0)"/></g><g stroke="rgb(0, 0, 0)" stroke-width="0.13" stroke-linecap="butt" stroke-linejoin="miter" fill="none"><path d="M 167.965 46.9229 L 167.506 46.9229 L 167.607 47.4574 L 167.859 47.8508 L 168.248 48.0878 L 168.772 48.1736 L 169.292 48.0929 L 169.68 47.871 L 169.927 47.523 L 170.018 47.0641 L 169.942 46.6505 L 169.73 46.3832 L 169.387 46.2067 L 168.928 46.0756 L 168.535 45.9798 L 168.278 45.8688 L 168.132 45.7074 L 168.086 45.4553 L 168.132 45.2283 L 168.263 45.0569 L 168.464 44.9409 L 168.742 44.9005 L 169.024 44.951 L 169.246 45.0871 L 169.392 45.3141 L 169.463 45.6217 L 169.922 45.6217 L 169.922 45.6116 L 169.841 45.1376 L 169.604 44.7845 L 169.231 44.5626 L 168.727 44.487 L 168.273 44.5626 L 167.92 44.7744 L 167.693 45.1022 L 167.612 45.5259 L 167.678 45.9041 L 167.869 46.1613 L 168.172 46.3328 L 168.585 46.4639 L 168.994 46.5799 L 169.302 46.6909 L 169.488 46.8522 L 169.554 47.1145 L 169.493 47.3818 L 169.337 47.5835 L 169.1 47.7096 L 168.792 47.75 L 168.449 47.6945 L 168.187 47.5331 L 168.021 47.2708 L 167.965 46.9229 L 167.965 46.9229 z M 172.479 46.2672 L 172.918 46.2672 L 172.827 45.8638 L 172.61 45.5461 L 172.272 45.3494 L 171.833 45.2737 L 171.349 45.3746 L 170.981 45.657 L 170.749 46.1159 L 170.668 46.7312 L 170.744 47.3414 L 170.971 47.7953 L 171.329 48.0778 L 171.818 48.1736 L 172.252 48.0979 L 172.59 47.8861 L 172.822 47.5533 L 172.923 47.1095 L 172.499 47.1095 L 172.423 47.3919 L 172.282 47.6037 L 172.08 47.7348 L 171.833 47.7752 L 171.526 47.7096 L 171.304 47.5079 L 171.168 47.1801 L 171.122 46.7161 L 171.168 46.2622 L 171.309 45.9344 L 171.536 45.7327 L 171.833 45.662 L 172.096 45.7074 L 172.292 45.8234 L 172.423 46.0151 L 172.479 46.2672 L 172.479 46.2672 z M 175.399 47.7247 L 175.399 47.7399 L 175.424 47.9113 L 175.5 48.0324 L 175.817 48.1282 L 176.065 48.0878 L 176.065 47.7449 L 175.959 47.76 L 175.817 47.6945 L 175.792 47.4928 L 175.792 46.0907 L 175.732 45.7327 L 175.555 45.4805 L 175.248 45.3292 L 174.814 45.2737 L 174.39 45.3342 L 174.078 45.5057 L 173.881 45.773 L 173.815 46.126 L 173.815 46.1563 L 174.214 46.1563 L 174.249 45.9445 L 174.36 45.7932 L 174.542 45.7024 L 174.799 45.6671 L 175.046 45.6923 L 175.222 45.768 L 175.328 45.8991 L 175.364 46.0806 L 175.343 46.2924 L 175.263 46.3984 L 175.061 46.4488 L 174.683 46.4891 L 174.249 46.5799 L 173.941 46.7413 L 173.76 46.9935 L 173.704 47.3667 L 173.755 47.6995 L 173.911 47.9466 L 174.163 48.103 L 174.511 48.1584 L 174.98 48.0525 L 175.399 47.7247 L 175.399 47.7247 z M 175.348 47.1296 L 175.288 47.3919 L 175.127 47.5936 L 174.884 47.7247 L 174.587 47.7701 L 174.395 47.7449 L 174.259 47.6642 L 174.173 47.523 L 174.148 47.3263 L 174.168 47.1498 L 174.249 47.0237 L 174.572 46.8825 L 174.98 46.822 L 175.348 46.701 L 175.348 47.1296 L 175.348 47.1296 z M 177.709 44.8299 L 177.709 47.7046 L 176.796 47.7046 L 176.796 48.0778 L 179.06 48.0778 L 179.06 47.7046 L 178.152 47.7046 L 178.152 44.4567 L 177.013 44.4567 L 177.013 44.8299 L 177.709 44.8299 L 177.709 44.8299 z M 180.25 46.8522 L 182.026 46.8522 L 182.031 46.6455 L 181.95 46.0655 L 181.728 45.6318 L 181.375 45.3696 L 180.906 45.2737 L 180.447 45.3746 L 180.094 45.657 L 179.867 46.1159 L 179.787 46.7211 L 179.862 47.3414 L 180.089 47.7953 L 180.437 48.0778 L 180.891 48.1736 L 181.284 48.108 L 181.607 47.9366 L 181.844 47.6642 L 181.98 47.3011 L 181.542 47.3011 L 181.451 47.5028 L 181.32 47.6541 L 180.946 47.7752 L 180.659 47.7197 L 180.442 47.5432 L 180.301 47.2557 L 180.25 46.8674 L 180.25 46.8522 L 180.25 46.8522 z M 180.25 46.479 L 180.306 46.1311 L 180.442 45.8739 L 180.649 45.7175 L 180.921 45.662 L 181.189 45.7175 L 181.395 45.8739 L 181.521 46.1311 L 181.567 46.479 L 180.25 46.479 L 180.25 46.479 z M 183.594 48.0778 L 184.29 48.0778 L 184.29 47.3263 L 183.594 47.3263 L 183.594 48.0778 L 183.594 48.0778 z M 183.594 46.121 L 184.29 46.121 L 184.29 45.3696 L 183.594 45.3696 L 183.594 46.121 L 183.594 46.121 z" stroke="none" fill-rule="evenodd" fill="rgb(0, 0, 0)"/></g><g stroke="rgb(0, 0, 0)" stroke-width="0.13" stroke-linecap="butt" stroke-linejoin="miter" fill="none"><path d="M 192.959 48.0778 L 193.418 48.0778 L 193.418 44.5525 L 193.075 44.5525 L 192.985 44.8602 L 192.803 45.067 L 192.526 45.188 L 192.142 45.2283 L 192.142 45.5864 L 192.959 45.5864 L 192.959 48.0778 L 192.959 48.0778 z M 195.738 48.0778 L 196.434 48.0778 L 196.434 47.3263 L 195.738 47.3263 L 195.738 48.0778 L 195.738 48.0778 z M 195.738 46.121 L 196.434 46.121 L 196.434 45.3696 L 195.738 45.3696 L 195.738 46.121 L 195.738 46.121 z M 199.4 48.0778 L 199.854 48.0778 L 199.854 47.2103 L 200.353 47.2103 L 200.353 46.8069 L 199.854 46.8069 L 199.854 44.6534 L 199.395 44.6534 L 197.861 46.7665 L 197.861 47.2103 L 199.4 47.2103 L 199.4 48.0778 L 199.4 48.0778 z M 198.285 46.8069 L 199.4 45.2384 L 199.4 46.8069 L 198.285 46.8069 L 198.285 46.8069 z" stroke="none" fill-rule="evenodd" fill="rgb(0, 0, 0)"/></g><g stroke="rgb(0, 0, 0)" stroke-width="0.13" stroke-linecap="butt" stroke-linejoin="miter" fill="none"><path d="M 168.625 67.8925 L 169.094 67.8925 L 169.094 66.2837 L 170.566 66.2837 L 170.566 65.8651 L 169.094 65.8651 L 169.094 64.8161 L 170.904 64.8161 L 170.904 64.3925 L 168.625 64.3925 L 168.625 67.8925 L 168.625 67.8925 z M 171.817 67.8925 L 172.261 67.8925 L 172.261 66.3443 L 172.306 65.9711 L 172.442 65.7038 L 172.664 65.5424 L 172.962 65.4869 L 173.184 65.5222 L 173.35 65.6231 L 173.451 65.7945 L 173.486 66.0265 L 173.935 66.0265 L 173.875 65.618 L 173.708 65.3255 L 173.431 65.149 L 173.053 65.0885 L 172.795 65.1288 L 172.573 65.2297 L 172.377 65.4012 L 172.22 65.6331 L 172.22 65.1843 L 171.817 65.1843 L 171.817 67.8925 L 171.817 67.8925 z M 174.555 66.5409 L 174.636 67.1562 L 174.868 67.6101 L 175.236 67.8925 L 175.73 67.9883 L 176.22 67.8925 L 176.588 67.6151 L 176.82 67.1613 L 176.906 66.5409 L 176.82 65.9257 L 176.588 65.4667 L 176.22 65.1893 L 175.73 65.0885 L 175.236 65.1893 L 174.868 65.4718 L 174.636 65.9257 L 174.555 66.5409 L 174.555 66.5409 z M 175.009 66.5359 L 175.055 66.082 L 175.196 65.7542 L 175.423 65.5525 L 175.73 65.4819 L 176.033 65.5525 L 176.26 65.7491 L 176.401 66.082 L 176.452 66.5359 L 176.401 66.9948 L 176.26 67.3277 L 176.033 67.5294 L 175.73 67.595 L 175.423 67.5294 L 175.196 67.3277 L 175.055 66.9948 L 175.009 66.5359 L 175.009 66.5359 z M 177.723 67.8925 L 178.166 67.8925 L 178.166 66.3291 L 178.212 65.9711 L 178.358 65.7088 L 178.585 65.5474 L 178.888 65.4869 L 179.13 65.5373 L 179.281 65.6735 L 179.357 65.9004 L 179.382 66.203 L 179.382 67.8925 L 179.826 67.8925 L 179.826 66.1123 L 179.805 65.7542 L 179.715 65.4566 L 179.417 65.1843 L 178.953 65.0885 L 178.696 65.1238 L 178.479 65.2196 L 178.292 65.381 L 178.146 65.5979 L 178.146 65.1843 L 177.723 65.1843 L 177.723 67.8925 L 177.723 67.8925 z M 181.354 65.6533 L 181.354 67.0099 L 181.384 67.4487 L 181.525 67.7513 L 181.808 67.9278 L 182.287 67.9883 L 182.811 67.9631 L 182.811 67.5798 L 182.428 67.6101 L 182.08 67.5697 L 181.893 67.4437 L 181.813 67.2319 L 181.798 66.9343 L 181.798 65.6533 L 182.811 65.6533 L 182.811 65.2751 L 181.798 65.2751 L 181.798 64.4833 L 181.354 64.4833 L 181.354 65.2751 L 180.587 65.2751 L 180.587 65.6533 L 181.354 65.6533 L 181.354 65.6533 z M 187.643 67.8925 L 188.112 67.8925 L 189.1 65.1843 L 188.641 65.1843 L 187.88 67.368 L 187.103 65.1843 L 186.639 65.1843 L 187.643 67.8925 L 187.643 67.8925 z M 191.223 67.5193 L 191.223 65.2751 L 190.084 65.2751 L 190.084 65.6533 L 190.779 65.6533 L 190.779 67.5193 L 189.872 67.5193 L 189.872 67.8925 L 192.141 67.8925 L 192.141 67.5193 L 191.223 67.5193 L 191.223 67.5193 z M 191.238 64.2715 L 190.769 64.2715 L 190.769 64.7758 L 191.238 64.7758 L 191.238 64.2715 L 191.238 64.2715 z M 193.291 66.667 L 195.066 66.667 L 195.071 66.4602 L 194.991 65.8803 L 194.769 65.4465 L 194.416 65.1843 L 193.947 65.0885 L 193.488 65.1893 L 193.135 65.4718 L 192.908 65.9307 L 192.827 66.5359 L 192.903 67.1562 L 193.13 67.6101 L 193.478 67.8925 L 193.932 67.9883 L 194.325 67.9228 L 194.648 67.7513 L 194.885 67.479 L 195.021 67.1159 L 194.582 67.1159 L 194.491 67.3176 L 194.36 67.4689 L 193.987 67.5899 L 193.7 67.5345 L 193.483 67.3579 L 193.341 67.0705 L 193.291 66.6821 L 193.291 66.667 L 193.291 66.667 z M 193.291 66.2938 L 193.346 65.9458 L 193.483 65.6886 L 193.689 65.5323 L 193.962 65.4768 L 194.229 65.5323 L 194.436 65.6886 L 194.562 65.9458 L 194.607 66.2938 L 193.291 66.2938 L 193.291 66.2938 z M 196.579 67.8925 L 196.983 65.5928 L 197.386 67.8925 L 197.81 67.8925 L 198.475 65.1843 L 198.047 65.1843 L 197.598 67.484 L 197.2 65.1843 L 196.761 65.1843 L 196.362 67.484 L 195.914 65.1843 L 195.49 65.1843 L 196.156 67.8925 L 196.579 67.8925 L 196.579 67.8925 z" stroke="none" fill-rule="evenodd" fill="rgb(0, 0, 0)"/></g><g stroke="rgb(0, 0, 0)" stroke-width="0.13" stroke-linecap="butt" stroke-linejoin="miter" fill="none"><path d="M 168.862 72.7845 L 168.403 72.7845 L 168.504 73.319 L 168.756 73.7124 L 169.144 73.9494 L 169.669 74.0352 L 170.188 73.9545 L 170.576 73.7326 L 170.823 73.3846 L 170.914 72.9257 L 170.839 72.5121 L 170.627 72.2448 L 170.284 72.0683 L 169.825 71.9372 L 169.431 71.8414 L 169.174 71.7304 L 169.028 71.569 L 168.983 71.3169 L 169.028 71.0899 L 169.159 70.9185 L 169.361 70.8025 L 169.638 70.7621 L 169.921 70.8125 L 170.143 70.9487 L 170.289 71.1757 L 170.359 71.4833 L 170.818 71.4833 L 170.818 71.4732 L 170.738 70.9991 L 170.501 70.6461 L 170.127 70.4242 L 169.623 70.3486 L 169.169 70.4242 L 168.816 70.636 L 168.589 70.9638 L 168.509 71.3875 L 168.574 71.7657 L 168.766 72.0229 L 169.068 72.1944 L 169.482 72.3255 L 169.89 72.4415 L 170.198 72.5525 L 170.385 72.7138 L 170.45 72.9761 L 170.39 73.2434 L 170.233 73.4451 L 169.996 73.5712 L 169.689 73.6115 L 169.346 73.5561 L 169.084 73.3947 L 168.917 73.1324 L 168.862 72.7845 L 168.862 72.7845 z M 173.375 72.1288 L 173.814 72.1288 L 173.723 71.7254 L 173.506 71.4077 L 173.169 71.211 L 172.73 71.1353 L 172.246 71.2362 L 171.877 71.5186 L 171.645 71.9775 L 171.565 72.5928 L 171.64 73.203 L 171.867 73.6569 L 172.225 73.9393 L 172.715 74.0352 L 173.148 73.9595 L 173.486 73.7477 L 173.718 73.4149 L 173.819 72.9711 L 173.395 72.9711 L 173.32 73.2535 L 173.179 73.4653 L 172.977 73.5964 L 172.73 73.6367 L 172.422 73.5712 L 172.2 73.3695 L 172.064 73.0417 L 172.019 72.5777 L 172.064 72.1238 L 172.205 71.796 L 172.432 71.5942 L 172.73 71.5236 L 172.992 71.569 L 173.189 71.685 L 173.32 71.8767 L 173.375 72.1288 L 173.375 72.1288 z M 176.295 73.5863 L 176.295 73.6015 L 176.321 73.7729 L 176.396 73.894 L 176.714 73.9898 L 176.961 73.9494 L 176.961 73.6065 L 176.855 73.6216 L 176.714 73.5561 L 176.689 73.3543 L 176.689 71.9523 L 176.628 71.5942 L 176.452 71.3421 L 176.144 71.1908 L 175.71 71.1353 L 175.287 71.1958 L 174.974 71.3673 L 174.777 71.6346 L 174.712 71.9876 L 174.712 72.0179 L 175.11 72.0179 L 175.145 71.8061 L 175.256 71.6548 L 175.438 71.564 L 175.695 71.5287 L 175.942 71.5539 L 176.119 71.6295 L 176.225 71.7607 L 176.26 71.9422 L 176.24 72.154 L 176.159 72.2599 L 175.957 72.3104 L 175.579 72.3507 L 175.145 72.4415 L 174.838 72.6029 L 174.656 72.8551 L 174.601 73.2283 L 174.651 73.5611 L 174.808 73.8082 L 175.06 73.9646 L 175.408 74.02 L 175.877 73.9141 L 176.295 73.5863 L 176.295 73.5863 z M 176.245 72.9912 L 176.184 73.2535 L 176.023 73.4552 L 175.781 73.5863 L 175.483 73.6317 L 175.292 73.6065 L 175.156 73.5258 L 175.07 73.3846 L 175.045 73.1879 L 175.065 73.0114 L 175.145 72.8853 L 175.468 72.7441 L 175.877 72.6836 L 176.245 72.5625 L 176.245 72.9912 L 176.245 72.9912 z M 178.605 70.6915 L 178.605 73.5661 L 177.692 73.5661 L 177.692 73.9393 L 179.957 73.9393 L 179.957 73.5661 L 179.049 73.5661 L 179.049 70.3183 L 177.909 70.3183 L 177.909 70.6915 L 178.605 70.6915 L 178.605 70.6915 z M 181.147 72.7138 L 182.922 72.7138 L 182.927 72.5071 L 182.846 71.9271 L 182.625 71.4934 L 182.272 71.2311 L 181.803 71.1353 L 181.344 71.2362 L 180.991 71.5186 L 180.764 71.9775 L 180.683 72.5827 L 180.759 73.203 L 180.986 73.6569 L 181.334 73.9393 L 181.787 74.0352 L 182.181 73.9696 L 182.504 73.7981 L 182.741 73.5258 L 182.877 73.1627 L 182.438 73.1627 L 182.347 73.3644 L 182.216 73.5157 L 181.843 73.6367 L 181.555 73.5813 L 181.339 73.4048 L 181.197 73.1173 L 181.147 72.729 L 181.147 72.7138 L 181.147 72.7138 z M 181.147 72.3406 L 181.202 71.9927 L 181.339 71.7355 L 181.545 71.5791 L 181.818 71.5236 L 182.085 71.5791 L 182.292 71.7355 L 182.418 71.9927 L 182.463 72.3406 L 181.147 72.3406 L 181.147 72.3406 z M 184.491 73.9393 L 185.187 73.9393 L 185.187 73.1879 L 184.491 73.1879 L 184.491 73.9393 L 184.491 73.9393 z M 184.491 71.9826 L 185.187 71.9826 L 185.187 71.2311 L 184.491 71.2311 L 184.491 71.9826 L 184.491 71.9826 z" stroke="none" fill-rule="evenodd" fill="rgb(0, 0, 0)"/></g><g stroke="rgb(0, 0, 0)" stroke-width="0.13" stroke-linecap="butt" stroke-linejoin="miter" fill="none"><path d="M 193.856 73.9393 L 194.315 73.9393 L 194.315 70.4141 L 193.972 70.4141 L 193.881 70.7218 L 193.7 70.9285 L 193.422 71.0496 L 193.039 71.0899 L 193.039 71.448 L 193.856 71.448 L 193.856 73.9393 L 193.856 73.9393 z M 196.635 73.9393 L 197.331 73.9393 L 197.331 73.1879 L 196.635 73.1879 L 196.635 73.9393 L 196.635 73.9393 z M 196.635 71.9826 L 197.331 71.9826 L 197.331 71.2311 L 196.635 71.2311 L 196.635 71.9826 L 196.635 71.9826 z M 200.296 73.9393 L 200.75 73.9393 L 200.75 73.0719 L 201.249 73.0719 L 201.249 72.6685 L 200.75 72.6685 L 200.75 70.515 L 200.291 70.515 L 198.758 72.6281 L 198.758 73.0719 L 200.296 73.0719 L 200.296 73.9393 L 200.296 73.9393 z M 199.182 72.6685 L 200.296 71.1 L 200.296 72.6685 L 199.182 72.6685 L 199.182 72.6685 z" stroke="none" fill-rule="evenodd" fill="rgb(0, 0, 0)"/></g><g stroke="rgb(0, 0, 0)" stroke-width="0.13" stroke-linecap="butt" stroke-linejoin="miter" fill="none"><path d="M 169.23 94.7441 L 169.699 94.7441 L 169.699 93.1353 L 171.172 93.1353 L 171.172 92.7167 L 169.699 92.7167 L 169.699 91.6677 L 171.51 91.6677 L 171.51 91.2441 L 169.23 91.2441 L 169.23 94.7441 L 169.23 94.7441 z M 172.423 94.7441 L 172.866 94.7441 L 172.866 93.1958 L 172.912 92.8226 L 173.048 92.5553 L 173.27 92.394 L 173.568 92.3385 L 173.789 92.3738 L 173.956 92.4746 L 174.057 92.6461 L 174.092 92.8781 L 174.541 92.8781 L 174.48 92.4696 L 174.314 92.1771 L 174.037 92.0006 L 173.658 91.9401 L 173.401 91.9804 L 173.179 92.0813 L 172.982 92.2527 L 172.826 92.4847 L 172.826 92.0359 L 172.423 92.0359 L 172.423 94.7441 L 172.423 94.7441 z M 175.161 93.3925 L 175.242 94.0078 L 175.474 94.4617 L 175.842 94.7441 L 176.336 94.8399 L 176.825 94.7441 L 177.194 94.4667 L 177.426 94.0128 L 177.511 93.3925 L 177.426 92.7772 L 177.194 92.3183 L 176.825 92.0409 L 176.336 91.9401 L 175.842 92.0409 L 175.474 92.3233 L 175.242 92.7772 L 175.161 93.3925 L 175.161 93.3925 z M 175.615 93.3875 L 175.66 92.9336 L 175.802 92.6058 L 176.029 92.404 L 176.336 92.3334 L 176.639 92.404 L 176.866 92.6007 L 177.007 92.9336 L 177.057 93.3875 L 177.007 93.8464 L 176.866 94.1793 L 176.639 94.381 L 176.336 94.4465 L 176.029 94.381 L 175.802 94.1793 L 175.66 93.8464 L 175.615 93.3875 L 175.615 93.3875 z M 178.328 94.7441 L 178.772 94.7441 L 178.772 93.1807 L 178.818 92.8226 L 178.964 92.5604 L 179.191 92.399 L 179.493 92.3385 L 179.735 92.3889 L 179.887 92.5251 L 179.962 92.752 L 179.988 93.0546 L 179.988 94.7441 L 180.431 94.7441 L 180.431 92.9638 L 180.411 92.6058 L 180.32 92.3082 L 180.023 92.0359 L 179.559 91.9401 L 179.302 91.9754 L 179.085 92.0712 L 178.898 92.2326 L 178.752 92.4494 L 178.752 92.0359 L 178.328 92.0359 L 178.328 94.7441 L 178.328 94.7441 z M 181.959 92.5049 L 181.959 93.8615 L 181.99 94.3003 L 182.131 94.6029 L 182.413 94.7794 L 182.892 94.8399 L 183.417 94.8147 L 183.417 94.4314 L 183.034 94.4617 L 182.686 94.4213 L 182.499 94.2952 L 182.418 94.0834 L 182.403 93.7859 L 182.403 92.5049 L 183.417 92.5049 L 183.417 92.1267 L 182.403 92.1267 L 182.403 91.3349 L 181.959 91.3349 L 181.959 92.1267 L 181.193 92.1267 L 181.193 92.5049 L 181.959 92.5049 L 181.959 92.5049 z M 188.248 94.7441 L 188.717 94.7441 L 189.706 92.0359 L 189.247 92.0359 L 188.485 94.2196 L 187.709 92.0359 L 187.245 92.0359 L 188.248 94.7441 L 188.248 94.7441 z M 191.829 94.3709 L 191.829 92.1267 L 190.689 92.1267 L 190.689 92.5049 L 191.385 92.5049 L 191.385 94.3709 L 190.477 94.3709 L 190.477 94.7441 L 192.747 94.7441 L 192.747 94.3709 L 191.829 94.3709 L 191.829 94.3709 z M 191.844 91.1231 L 191.375 91.1231 L 191.375 91.6274 L 191.844 91.6274 L 191.844 91.1231 L 191.844 91.1231 z M 193.897 93.5186 L 195.672 93.5186 L 195.677 93.3118 L 195.596 92.7318 L 195.374 92.2981 L 195.021 92.0359 L 194.552 91.9401 L 194.093 92.0409 L 193.74 92.3233 L 193.513 92.7823 L 193.433 93.3875 L 193.508 94.0078 L 193.735 94.4617 L 194.083 94.7441 L 194.537 94.8399 L 194.931 94.7744 L 195.253 94.6029 L 195.49 94.3306 L 195.627 93.9674 L 195.188 93.9674 L 195.097 94.1692 L 194.966 94.3205 L 194.593 94.4415 L 194.305 94.386 L 194.088 94.2095 L 193.947 93.9221 L 193.897 93.5337 L 193.897 93.5186 L 193.897 93.5186 z M 193.897 93.1454 L 193.952 92.7974 L 194.088 92.5402 L 194.295 92.3839 L 194.568 92.3284 L 194.835 92.3839 L 195.042 92.5402 L 195.168 92.7974 L 195.213 93.1454 L 193.897 93.1454 L 193.897 93.1454 z M 197.185 94.7441 L 197.588 92.4444 L 197.992 94.7441 L 198.416 94.7441 L 199.081 92.0359 L 198.653 92.0359 L 198.204 94.3356 L 197.805 92.0359 L 197.367 92.0359 L 196.968 94.3356 L 196.519 92.0359 L 196.096 92.0359 L 196.761 94.7441 L 197.185 94.7441 L 197.185 94.7441 z" stroke="none" fill-rule="evenodd" fill="rgb(0, 0, 0)"/></g><g stroke="rgb(0, 0, 0)" stroke-width="0.13" stroke-linecap="butt" stroke-linejoin="miter" fill="none"><path d="M 169.467 99.636 L 169.008 99.636 L 169.109 100.171 L 169.361 100.564 L 169.75 100.801 L 170.274 100.887 L 170.794 100.806 L 171.182 100.584 L 171.429 100.236 L 171.52 99.7772 L 171.444 99.3637 L 171.232 99.0964 L 170.89 98.9199 L 170.431 98.7888 L 170.037 98.6929 L 169.78 98.582 L 169.634 98.4206 L 169.588 98.1684 L 169.634 97.9415 L 169.765 97.77 L 169.967 97.654 L 170.244 97.6137 L 170.526 97.6641 L 170.748 97.8003 L 170.895 98.0272 L 170.965 98.3349 L 171.424 98.3349 L 171.424 98.3248 L 171.343 97.8507 L 171.106 97.4977 L 170.733 97.2758 L 170.229 97.2001 L 169.775 97.2758 L 169.422 97.4876 L 169.195 97.8154 L 169.114 98.2391 L 169.18 98.6173 L 169.372 98.8745 L 169.674 99.046 L 170.088 99.1771 L 170.496 99.2931 L 170.804 99.404 L 170.99 99.5654 L 171.056 99.8277 L 170.995 100.095 L 170.839 100.297 L 170.602 100.423 L 170.294 100.463 L 169.952 100.408 L 169.689 100.246 L 169.523 99.984 L 169.467 99.636 L 169.467 99.636 z M 173.981 98.9804 L 174.42 98.9804 L 174.329 98.577 L 174.112 98.2592 L 173.774 98.0625 L 173.336 97.9869 L 172.851 98.0878 L 172.483 98.3702 L 172.251 98.8291 L 172.171 99.4444 L 172.246 100.055 L 172.473 100.509 L 172.831 100.791 L 173.32 100.887 L 173.754 100.811 L 174.092 100.599 L 174.324 100.266 L 174.425 99.8226 L 174.001 99.8226 L 173.926 100.105 L 173.784 100.317 L 173.583 100.448 L 173.336 100.488 L 173.028 100.423 L 172.806 100.221 L 172.67 99.8932 L 172.624 99.4293 L 172.67 98.9754 L 172.811 98.6476 L 173.038 98.4458 L 173.336 98.3752 L 173.598 98.4206 L 173.794 98.5366 L 173.926 98.7282 L 173.981 98.9804 L 173.981 98.9804 z M 176.901 100.438 L 176.901 100.453 L 176.926 100.624 L 177.002 100.746 L 177.32 100.841 L 177.567 100.801 L 177.567 100.458 L 177.461 100.473 L 177.32 100.408 L 177.294 100.206 L 177.294 98.8039 L 177.234 98.4458 L 177.057 98.1937 L 176.75 98.0424 L 176.316 97.9869 L 175.892 98.0474 L 175.58 98.2189 L 175.383 98.4862 L 175.318 98.8392 L 175.318 98.8695 L 175.716 98.8695 L 175.751 98.6576 L 175.862 98.5063 L 176.044 98.4156 L 176.301 98.3803 L 176.548 98.4055 L 176.725 98.4811 L 176.83 98.6123 L 176.866 98.7938 L 176.846 99.0056 L 176.765 99.1115 L 176.563 99.162 L 176.185 99.2023 L 175.751 99.2931 L 175.444 99.4545 L 175.262 99.7066 L 175.207 100.08 L 175.257 100.413 L 175.413 100.66 L 175.665 100.816 L 176.013 100.872 L 176.482 100.766 L 176.901 100.438 L 176.901 100.438 z M 176.851 99.8428 L 176.79 100.105 L 176.629 100.307 L 176.387 100.438 L 176.089 100.483 L 175.897 100.458 L 175.761 100.377 L 175.676 100.236 L 175.65 100.039 L 175.671 99.863 L 175.751 99.7369 L 176.074 99.5957 L 176.482 99.5352 L 176.851 99.4141 L 176.851 99.8428 L 176.851 99.8428 z M 179.211 97.5431 L 179.211 100.418 L 178.298 100.418 L 178.298 100.791 L 180.562 100.791 L 180.562 100.418 L 179.655 100.418 L 179.655 97.1699 L 178.515 97.1699 L 178.515 97.5431 L 179.211 97.5431 L 179.211 97.5431 z M 181.753 99.5654 L 183.528 99.5654 L 183.533 99.3587 L 183.452 98.7787 L 183.23 98.345 L 182.877 98.0827 L 182.408 97.9869 L 181.949 98.0878 L 181.596 98.3702 L 181.369 98.8291 L 181.289 99.4343 L 181.364 100.055 L 181.591 100.509 L 181.939 100.791 L 182.393 100.887 L 182.787 100.821 L 183.109 100.65 L 183.346 100.377 L 183.482 100.014 L 183.044 100.014 L 182.953 100.216 L 182.822 100.367 L 182.449 100.488 L 182.161 100.433 L 181.944 100.256 L 181.803 99.9689 L 181.753 99.5806 L 181.753 99.5654 L 181.753 99.5654 z M 181.753 99.1922 L 181.808 98.8442 L 181.944 98.587 L 182.151 98.4307 L 182.423 98.3752 L 182.691 98.4307 L 182.897 98.587 L 183.024 98.8442 L 183.069 99.1922 L 181.753 99.1922 L 181.753 99.1922 z M 185.096 100.791 L 185.792 100.791 L 185.792 100.039 L 185.096 100.039 L 185.096 100.791 L 185.096 100.791 z M 185.096 98.8342 L 185.792 98.8342 L 185.792 98.0827 L 185.096 98.0827 L 185.096 98.8342 L 185.096 98.8342 z" stroke="none" fill-rule="evenodd" fill="rgb(0, 0, 0)"/></g><g stroke="rgb(0, 0, 0)" stroke-width="0.13" stroke-linecap="butt" stroke-linejoin="miter" fill="none"><path d="M 194.462 100.791 L 194.921 100.791 L 194.921 97.2657 L 194.578 97.2657 L 194.487 97.5733 L 194.305 97.7801 L 194.028 97.9012 L 193.645 97.9415 L 193.645 98.2996 L 194.462 98.2996 L 194.462 100.791 L 194.462 100.791 z M 197.24 100.791 L 197.936 100.791 L 197.936 100.039 L 197.24 100.039 L 197.24 100.791 L 197.24 100.791 z M 197.24 98.8342 L 197.936 98.8342 L 197.936 98.0827 L 197.24 98.0827 L 197.24 98.8342 L 197.24 98.8342 z M 200.902 100.791 L 201.356 100.791 L 201.356 99.9235 L 201.855 99.9235 L 201.855 99.52 L 201.356 99.52 L 201.356 97.3666 L 200.897 97.3666 L 199.364 99.4797 L 199.364 99.9235 L 200.902 99.9235 L 200.902 100.791 L 200.902 100.791 z M 199.787 99.52 L 200.902 97.9516 L 200.902 99.52 L 199.787 99.52 L 199.787 99.52 z" stroke="none" fill-rule="evenodd" fill="rgb(0, 0, 0)"/></g></svg>