G04 #@! TF.FileFunction,Profile,NP*
%FSLAX46Y46*%
G04 Gerber Fmt 4.6, Leading zero omitted, Abs format (unit mm)*
G04 Created by KiCad (PCBNEW 4.0.7) date 05/26/18 23:39:53*
%MOMM*%
%LPD*%
G01*
G04 APERTURE LIST*
%ADD10C,0.100000*%
G04 APERTURE END LIST*
D10*
X166422377Y-52990567D02*
G75*
G03X166422377Y-52990567I-1900000J0D01*
G01*
X123776698Y-66780637D02*
G75*
G03X123776698Y-66780637I-2950000J0D01*
G01*
X175547023Y-36891019D02*
G75*
G03X175547023Y-36891019I-2950000J0D01*
G01*
X215132399Y-119660581D02*
G75*
G03X215132399Y-119660581I-1900000J0D01*
G01*
X190722377Y-42414395D02*
G75*
G03X190722377Y-42414395I-2950000J0D01*
G01*
X144222377Y-42414395D02*
G75*
G03X144222377Y-42414395I-2950000J0D01*
G01*
X203093471Y-52794949D02*
G75*
G03X203093471Y-52794949I-2950000J0D01*
G01*
X176522377Y-98390592D02*
X176522377Y-64390592D01*
X176522377Y-98390592D02*
X152522377Y-98390592D01*
X152522377Y-64390592D02*
X176522377Y-64390592D01*
X152522377Y-64390592D02*
X152522377Y-98390592D01*
X211168117Y-66780637D02*
G75*
G03X211168117Y-66780637I-2950000J0D01*
G01*
X120972377Y-82684567D02*
G75*
G03X120972377Y-82684567I-2950000J0D01*
G01*
X213972377Y-82684567D02*
G75*
G03X213972377Y-82684567I-2950000J0D01*
G01*
X131851344Y-52794949D02*
G75*
G03X131851344Y-52794949I-2950000J0D01*
G01*
X117712416Y-119660581D02*
G75*
G03X117712416Y-119660581I-1900000J0D01*
G01*
X159397731Y-36891019D02*
G75*
G03X159397731Y-36891019I-2950000J0D01*
G01*
X232025856Y-53662625D02*
G75*
G03X232025856Y-53662625I-4500000J0D01*
G01*
X100387917Y-57073575D02*
X101687965Y-57073575D01*
X101687965Y-57073575D02*
X101687965Y-55492307D01*
X100387917Y-55513333D02*
X100387917Y-57073575D01*
X101687961Y-55492303D02*
G75*
G02X100387961Y-55513342I-547786J-6326328D01*
G01*
X284625221Y-108740018D02*
G75*
G03X284625221Y-108740018I-8000000J0D01*
G01*
X237851112Y-72375699D02*
X239151100Y-72375699D01*
X239151100Y-72375699D02*
X239151100Y-70791623D01*
X237851112Y-70819547D02*
X237851112Y-72375699D01*
X239151071Y-70791618D02*
G75*
G02X237851072Y-70819549I-514314J-6329137D01*
G01*
X249891457Y-109491757D02*
G75*
G03X249891457Y-109491757I-9500000J0D01*
G01*
X277785866Y-72375699D02*
X279085854Y-72375699D01*
X279085854Y-72375699D02*
X279085854Y-70781064D01*
X277785866Y-70840482D02*
X277785866Y-72375699D01*
X279085876Y-70781052D02*
G75*
G02X277785876Y-70840495I-361473J-6339703D01*
G01*
X104494301Y-108899716D02*
G75*
G03X104494301Y-108899716I-9500000J0D01*
G01*
X28155617Y-130982846D02*
X29455574Y-130982846D01*
X29455574Y-130982846D02*
X29455574Y-129416196D01*
X28155617Y-129406644D02*
X28155617Y-130982846D01*
X29455586Y-129416197D02*
G75*
G02X28155621Y-129406658I-696332J-6311705D01*
G01*
X79494301Y-108899716D02*
G75*
G03X79494301Y-108899716I-9500000J0D01*
G01*
X103430641Y-130982846D02*
X104730690Y-130982846D01*
X104730690Y-130982846D02*
X104730690Y-129401578D01*
X103430641Y-129422604D02*
X103430641Y-130982846D01*
X104730685Y-129401574D02*
G75*
G02X103430685Y-129422613I-547786J-6326328D01*
G01*
X54494301Y-108899716D02*
G75*
G03X54494301Y-108899716I-9500000J0D01*
G01*
X657753Y-108792081D02*
G75*
G03X657753Y-108792081I-2000000J0D01*
G01*
X87361122Y-45174100D02*
G75*
G03X87361122Y-45174100I-4500000J0D01*
G01*
X62306404Y-41004147D02*
G75*
G03X62306404Y-41004147I-2000000J0D01*
G01*
X282025856Y-53662625D02*
G75*
G03X282025856Y-53662625I-4500000J0D01*
G01*
X261521523Y-44105924D02*
G75*
G03X261521523Y-44105924I-2000000J0D01*
G01*
X257025856Y-53662625D02*
G75*
G03X257025856Y-53662625I-4500000J0D01*
G01*
X318625221Y-108732541D02*
G75*
G03X318625221Y-108732541I-2000000J0D01*
G01*
X-28817528Y-147439725D02*
X-14040245Y-80994290D01*
X38726143Y-29299466D02*
X40683876Y-27856198D01*
X36891701Y-30824765D02*
X38726143Y-29299466D01*
X35179909Y-32431821D02*
X36891701Y-30824765D01*
X33589455Y-34119840D02*
X35179909Y-32431821D01*
X32117470Y-35887418D02*
X33589455Y-34119840D01*
X30759560Y-37732114D02*
X32117470Y-35887418D01*
X29508949Y-39650449D02*
X30759560Y-37732114D01*
X28565285Y-41260343D02*
X29508949Y-39650449D01*
X27679726Y-42912015D02*
X28565285Y-41260343D01*
X26573769Y-45170133D02*
X27679726Y-42912015D01*
X25525673Y-47474667D02*
X26573769Y-45170133D01*
X24493294Y-49796628D02*
X25525673Y-47474667D01*
X23620155Y-51680234D02*
X24493294Y-49796628D01*
X23161018Y-52606931D02*
X23620155Y-51680234D01*
X22430763Y-53967893D02*
X23161018Y-52606931D01*
X21755440Y-55101621D02*
X22430763Y-53967893D01*
X21029762Y-56199460D02*
X21755440Y-55101621D01*
X20175331Y-57362271D02*
X21029762Y-56199460D01*
X19265968Y-58486905D02*
X20175331Y-57362271D01*
X17988869Y-59943692D02*
X19265968Y-58486905D01*
X17111855Y-60899655D02*
X17988869Y-59943692D01*
X13572456Y-64710050D02*
X17111855Y-60899655D01*
X12686195Y-65654080D02*
X13572456Y-64710050D01*
X11332924Y-67035397D02*
X12686195Y-65654080D01*
X10283974Y-68027097D02*
X11332924Y-67035397D01*
X9194099Y-68968045D02*
X10283974Y-68027097D01*
X7977669Y-69910062D02*
X9194099Y-68968045D01*
X6707558Y-70786801D02*
X7977669Y-69910062D01*
X4942543Y-71867062D02*
X6707558Y-70786801D01*
X3732277Y-72543485D02*
X4942543Y-71867062D01*
X1271034Y-73833798D02*
X3732277Y-72543485D01*
X-2776939Y-75888669D02*
X1271034Y-73833798D01*
X-5464531Y-77233090D02*
X-2776939Y-75888669D01*
X-8587242Y-78718533D02*
X-5464531Y-77233090D01*
X-10381126Y-79514554D02*
X-8587242Y-78718533D01*
X-12198387Y-80273526D02*
X-10381126Y-79514554D01*
X-14040245Y-80994290D02*
X-12198387Y-80273526D01*
X40683876Y-27856198D02*
X276996620Y-27856198D01*
X278324928Y-27930051D02*
X276996620Y-27856198D01*
X279601479Y-28040372D02*
X278324928Y-27930051D01*
X281223183Y-28244107D02*
X279601479Y-28040372D01*
X282753029Y-28512540D02*
X281223183Y-28244107D01*
X284191322Y-28845487D02*
X282753029Y-28512540D01*
X285797218Y-29329770D02*
X284191322Y-28845487D01*
X287273231Y-29905698D02*
X285797218Y-29329770D01*
X288621559Y-30571988D02*
X287273231Y-29905698D01*
X289844887Y-31326871D02*
X288621559Y-30571988D01*
X290947060Y-32167996D02*
X289844887Y-31326871D01*
X291723610Y-32879819D02*
X290947060Y-32167996D01*
X292432777Y-33640164D02*
X291723610Y-32879819D01*
X293077675Y-34446896D02*
X292432777Y-33640164D01*
X293521645Y-35080960D02*
X293077675Y-34446896D01*
X293933510Y-35738583D02*
X293521645Y-35080960D01*
X294469765Y-36715024D02*
X293933510Y-35738583D01*
X294951576Y-37732602D02*
X294469765Y-36715024D01*
X295429054Y-38896756D02*
X294951576Y-37732602D01*
X295861183Y-40097867D02*
X295429054Y-38896756D01*
X296294044Y-41433713D02*
X295861183Y-40097867D01*
X297120338Y-44159940D02*
X296294044Y-41433713D01*
X297691627Y-45946042D02*
X297120338Y-44159940D01*
X298000893Y-46830228D02*
X297691627Y-45946042D01*
X298504921Y-48138394D02*
X298000893Y-46830228D01*
X298943275Y-49155454D02*
X298504921Y-48138394D01*
X299418495Y-50153775D02*
X298943275Y-49155454D01*
X300163918Y-51555448D02*
X299418495Y-50153775D01*
X300972328Y-52923154D02*
X300163918Y-51555448D01*
X301536964Y-53820706D02*
X300972328Y-52923154D01*
X302698097Y-55597135D02*
X301536964Y-53820706D01*
X305535988Y-60041745D02*
X302698097Y-55597135D01*
X306632851Y-61825925D02*
X305535988Y-60041745D01*
X307835121Y-63683011D02*
X306632851Y-61825925D01*
X308473427Y-64588864D02*
X307835121Y-63683011D01*
X309594643Y-66021451D02*
X308473427Y-64588864D01*
X310822975Y-67368680D02*
X309594643Y-66021451D01*
X311479164Y-68003446D02*
X310822975Y-67368680D01*
X312163002Y-68609189D02*
X311479164Y-68003446D01*
X313116127Y-69368253D02*
X312163002Y-68609189D01*
X314113441Y-70068265D02*
X313116127Y-69368253D01*
X315150795Y-70706601D02*
X314113441Y-70068265D01*
X316752113Y-71536771D02*
X315150795Y-70706601D01*
X318415932Y-72230313D02*
X316752113Y-71536771D01*
X320127235Y-72794858D02*
X318415932Y-72230313D01*
X321306435Y-73110288D02*
X320127235Y-72794858D01*
X322497108Y-73377225D02*
X321306435Y-73110288D01*
X323952736Y-73644345D02*
X322497108Y-73377225D01*
X325414833Y-73859616D02*
X323952736Y-73644345D01*
X327617653Y-74111875D02*
X325414833Y-73859616D01*
X329086342Y-74249997D02*
X327617653Y-74111875D01*
X332022316Y-74503110D02*
X329086342Y-74249997D01*
X337218483Y-75017880D02*
X332022316Y-74503110D01*
X357862282Y-147439725D02*
X337218483Y-75017880D01*
X-28817528Y-147439725D02*
X357862282Y-147439725D01*
X55454054Y-52920041D02*
G75*
G03X55454054Y-52920041I-1900000J0D01*
G01*
X28854048Y-98620053D02*
G75*
G03X28854048Y-98620053I-1900000J0D01*
G01*
X85544081Y-90060056D02*
G75*
G03X85544081Y-90060056I-1900000J0D01*
G01*
X34924049Y-69260037D02*
X34924049Y-88460050D01*
X34924049Y-69260037D02*
X72224037Y-69260037D01*
X72224037Y-88460050D02*
X72224037Y-69260037D01*
X72224037Y-88460050D02*
X34924049Y-88460050D01*
M02*
