G04 #@! TF.FileFunction,Profile,NP*
%FSLAX46Y46*%
G04 Gerber Fmt 4.6, Leading zero omitted, Abs format (unit mm)*
G04 Created by KiCad (PCBNEW 4.0.7) date Tue May 15 21:48:59 2018*
%MOMM*%
%LPD*%
G01*
G04 APERTURE LIST*
%ADD10C,0.100000*%
G04 APERTURE END LIST*
D10*
X150544997Y-156969045D02*
G75*
G02X152026367Y-155233373I1481370J235672D01*
G01*
X150544983Y-156969045D02*
X151817719Y-164969045D01*
X153299088Y-166233372D02*
G75*
G02X151817718Y-164969045I0J1499999D01*
G01*
X167238632Y-166233373D02*
X153299088Y-166233373D01*
X168720002Y-164969045D02*
G75*
G02X167238632Y-166233373I-1481370J235672D01*
G01*
X168720001Y-164969045D02*
X169992737Y-156969045D01*
X168511353Y-155233373D02*
G75*
G02X169992723Y-156969046I0J-1500000D01*
G01*
X152026367Y-155233373D02*
X168511353Y-155233373D01*
X174268860Y-160733373D02*
G75*
G03X174268860Y-160733373I-1500000J0D01*
G01*
X149268860Y-160733373D02*
G75*
G03X149268860Y-160733373I-1500000J0D01*
G01*
X163768860Y-124299574D02*
G75*
G03X163768860Y-124299574I-3500000J0D01*
G01*
X163768860Y-86499571D02*
G75*
G03X163768860Y-86499571I-3500000J0D01*
G01*
X188768860Y-149003721D02*
G75*
G03X188768860Y-149003721I-2500000J0D01*
G01*
X188768860Y-59003721D02*
G75*
G03X188768860Y-59003721I-2500000J0D01*
G01*
X193268860Y-95899572D02*
X129268860Y-95899572D01*
X129268860Y-95899572D02*
X129268860Y-114899572D01*
X129268860Y-114899572D02*
X193268860Y-114899572D01*
X193268860Y-114899572D02*
X193268860Y-167228689D01*
X188583923Y-168524893D02*
X193268860Y-167228689D01*
X183724640Y-169742391D02*
X188583923Y-168524893D01*
X178698593Y-170869123D02*
X183724640Y-169742391D01*
X176023071Y-171410169D02*
X178698593Y-170869123D01*
X173311996Y-171911344D02*
X176023071Y-171410169D01*
X170787079Y-172329588D02*
X173311996Y-171911344D01*
X168243286Y-172695921D02*
X170787079Y-172329588D01*
X166467667Y-172913709D02*
X168243286Y-172695921D01*
X164689545Y-173095892D02*
X166467667Y-172913709D01*
X162912216Y-173237272D02*
X164689545Y-173095892D01*
X161139175Y-173332350D02*
X162912216Y-173237272D01*
X158788086Y-173377317D02*
X161139175Y-173332350D01*
X156459900Y-173316488D02*
X158788086Y-173377317D01*
X154163315Y-173136976D02*
X156459900Y-173316488D01*
X152130264Y-172864195D02*
X154163315Y-173136976D01*
X150135040Y-172478346D02*
X152130264Y-172864195D01*
X148182495Y-171973539D02*
X150135040Y-172478346D01*
X146276611Y-171345747D02*
X148182495Y-171973539D01*
X144420303Y-170593137D02*
X146276611Y-171345747D01*
X143429001Y-170130003D02*
X144420303Y-170593137D01*
X142453079Y-169630354D02*
X143429001Y-170130003D01*
X140547241Y-168524488D02*
X142453079Y-169630354D01*
X138701569Y-167283483D02*
X140547241Y-168524488D01*
X136913635Y-165917806D02*
X138701569Y-167283483D01*
X135771667Y-164960909D02*
X136913635Y-165917806D01*
X134652191Y-163959329D02*
X135771667Y-164960909D01*
X133516815Y-162880255D02*
X134652191Y-163959329D01*
X132403397Y-161761450D02*
X133516815Y-162880255D01*
X131085098Y-160361143D02*
X132403397Y-161761450D01*
X129796265Y-158914961D02*
X131085098Y-160361143D01*
X128535461Y-157428278D02*
X129796265Y-158914961D01*
X127302521Y-155907007D02*
X128535461Y-157428278D01*
X124919678Y-152780298D02*
X127302521Y-155907007D01*
X122648010Y-149567617D02*
X124919678Y-152780298D01*
X120492195Y-146295187D02*
X122648010Y-149567617D01*
X118460114Y-142982893D02*
X120492195Y-146295187D01*
X116562202Y-139645033D02*
X118460114Y-142982893D01*
X114810722Y-136291013D02*
X116562202Y-139645033D01*
X113971321Y-134561682D02*
X114810722Y-136291013D01*
X113176079Y-132829878D02*
X113971321Y-134561682D01*
X112187698Y-130517210D02*
X113176079Y-132829878D01*
X111285576Y-128200254D02*
X112187698Y-130517210D01*
X110473976Y-125878370D02*
X111285576Y-128200254D01*
X109625099Y-123084234D02*
X110473976Y-125878370D01*
X108918404Y-120279463D02*
X109625099Y-123084234D01*
X108358963Y-117461691D02*
X108918404Y-120279463D01*
X107950539Y-114628614D02*
X108358963Y-117461691D01*
X107695343Y-111778257D02*
X107950539Y-114628614D01*
X107595497Y-109081098D02*
X107695343Y-111778257D01*
X107630173Y-106366949D02*
X107595497Y-109081098D01*
X107796638Y-103636030D02*
X107630173Y-106366949D01*
X108091011Y-100889242D02*
X107796638Y-103636030D01*
X108508408Y-98128164D02*
X108091011Y-100889242D01*
X108820091Y-96442701D02*
X108508408Y-98128164D01*
X109173836Y-94753423D02*
X108820091Y-96442701D01*
X109591118Y-92967756D02*
X109173836Y-94753423D01*
X110051926Y-91179617D02*
X109591118Y-92967756D01*
X111067932Y-87693823D02*
X110051926Y-91179617D01*
X112229897Y-84212179D02*
X111067932Y-87693823D01*
X113525948Y-80745619D02*
X112229897Y-84212179D01*
X114945648Y-77306745D02*
X113525948Y-80745619D01*
X116480659Y-73909788D02*
X114945648Y-77306745D01*
X118125443Y-70570631D02*
X116480659Y-73909788D01*
X119877930Y-67306806D02*
X118125443Y-70570631D01*
X121740219Y-64137464D02*
X119877930Y-67306806D01*
X123441864Y-61492567D02*
X121740219Y-64137464D01*
X125237801Y-58947782D02*
X123441864Y-61492567D01*
X126173935Y-57717451D02*
X125237801Y-58947782D01*
X127137131Y-56517545D02*
X126173935Y-57717451D01*
X128635284Y-54778532D02*
X127137131Y-56517545D01*
X130200821Y-53117460D02*
X128635284Y-54778532D01*
X131837036Y-51539411D02*
X130200821Y-53117460D01*
X133546295Y-50048826D02*
X131837036Y-51539411D01*
X135263489Y-48698789D02*
X133546295Y-50048826D01*
X137049576Y-47435835D02*
X135263489Y-48698789D01*
X138903290Y-46261732D02*
X137049576Y-47435835D01*
X140822342Y-45177519D02*
X138903290Y-46261732D01*
X142803528Y-44183607D02*
X140822342Y-45177519D01*
X144071579Y-43608244D02*
X142803528Y-44183607D01*
X145361221Y-43067991D02*
X144071579Y-43608244D01*
X148000351Y-42091917D02*
X145361221Y-43067991D01*
X150710266Y-41253080D02*
X148000351Y-42091917D01*
X153130386Y-40629179D02*
X150710266Y-41253080D01*
X155587616Y-40105406D02*
X153130386Y-40629179D01*
X158073578Y-39678999D02*
X155587616Y-40105406D01*
X160579880Y-39346998D02*
X158073578Y-39678999D01*
X162257996Y-39176634D02*
X160579880Y-39346998D01*
X163939148Y-39045988D02*
X162257996Y-39176634D01*
X167301712Y-38900511D02*
X163939148Y-39045988D01*
X170651138Y-38904081D02*
X167301712Y-38900511D01*
X174027466Y-39054777D02*
X170651138Y-38904081D01*
X177364868Y-39349302D02*
X174027466Y-39054777D01*
X180655350Y-39784437D02*
X177364868Y-39349302D01*
X183893524Y-40358030D02*
X180655350Y-39784437D01*
X187076126Y-41068769D02*
X183893524Y-40358030D01*
X190201462Y-41915968D02*
X187076126Y-41068769D01*
X193268860Y-42899366D02*
X190201462Y-41915968D01*
X193268860Y-95899572D02*
X193268860Y-42899366D01*
M02*
