  0
SECTION
  2
HEADER
  9
$ACADVER
  1
AC1009
  9
$EXTMIN
 10
0.0
 20
0.0
 30
0.0
  9
$EXTMAX
 10
1000.0
 20
1000.0
 30
0.0
  9
$FILLMODE
 70
 0
  9
$SPLFRAME
 70
 1
  0
ENDSEC
  0
SECTION
  2
TABLES
  0
TABLE
  2
LAYER
 70
1
  0
LAYER
  2
0
 70
     0
 62
     7
  6
CONTINUOUS
  0
ENDTAB
  0
ENDSEC
  0
SECTION
  2
ENTITIES
  0
TEXT
  8
0
 62
     0
 10
1.27376
 20
1.82637
 30
0
 40
0.0416667
  1
Contac
 50
0
  7
DejaVuSans
  0
TEXT
  8
0
 62
     0
 10
1.4195
 20
1.82637
 30
0
 40
0.0416667
  1
t
 50
0
  7
DejaVuSans
  0
TEXT
  8
0
 62
     0
 10
1.30629
 20
2.12325
 30
0
 40
0.0416667
  1
Start
 50
0
  7
DejaVuSans
  0
TEXT
  8
0
 62
     0
 10
1.4894
 20
2.13133
 30
0
 40
0.0416667
  1
r
 50
0
  7
DejaVuSans
  0
TEXT
  8
0
 62
     0
 10
1.50561
 20
2.13133
 30
0
 40
0.0416667
  1
eset gear
 50
0
  7
DejaVuSans
  0
TEXT
  8
0
 62
     0
 10
1.70285
 20
2.13133
 30
0
 40
0.0416667
  1
 motor
 50
0
  7
DejaVuSans
  0
TEXT
  8
0
 62
     0
 10
1.90047
 20
2.13133
 30
0
 40
0.0416667
  1
Display
 50
0
  7
DejaVuSans
  0
TEXT
  8
0
 62
     0
 10
1.59608
 20
1.82637
 30
0
 40
0.0416667
  1
Neutra
 50
0
  7
DejaVuSans
  0
TEXT
  8
0
 62
     0
 10
1.73825
 20
1.82637
 30
0
 40
0.0416667
  1
l
 50
0
  7
DejaVuSans
  0
TEXT
  8
0
 62
     0
 10
1.82506
 20
1.82637
 30
0
 40
0.0416667
  1
Launc
 50
0
  7
DejaVuSans
  0
TEXT
  8
0
 62
     0
 10
1.94947
 20
1.82637
 30
0
 40
0.0416667
  1
h Con
 50
0
  7
DejaVuSans
  0
TEXT
  8
0
 62
     0
 10
2.0701
 20
1.82637
 30
0
 40
0.0416667
  1
tr
 50
0
  7
DejaVuSans
  0
TEXT
  8
0
 62
     0
 10
2.10268
 20
1.82637
 30
0
 40
0.0416667
  1
ol
 50
0
  7
DejaVuSans
  0
POLYLINE
  8
0
 62
     0
 66
     1
 10
0
 20
0
 30
0.0
 70
     1
 40
0
 41
0
  0
VERTEX
  8
0
 10
2.28315
 20
2.61546
 30
0.0
 40
0
 41
0
  0
VERTEX
  8
0
 10
2.28315
 20
2.63217
 30
0.0
 40
0
 41
0
  0
VERTEX
  8
0
 10
2.27843
 20
2.63217
 30
0.0
 40
0
 41
0
  0
VERTEX
  8
0
 10
2.27843
 20
2.64453
 30
0.0
 40
0
 41
0
  0
VERTEX
  8
0
 10
2.2596
 20
2.64453
 30
0.0
 40
0
 41
0
  0
VERTEX
  8
0
 10
2.2596
 20
2.63217
 30
0.0
 40
0
 41
0
  0
VERTEX
  8
0
 10
2.25088
 20
2.63217
 30
0.0
 40
0
 41
0
  0
VERTEX
  8
0
 10
2.25092
 20
2.64193
 30
0.0
 40
0
 41
0
  0
VERTEX
  8
0
 10
2.22217
 20
2.64208
 30
0.0
 40
0
 41
0
  0
VERTEX
  8
0
 10
2.22206
 20
2.63217
 30
0.0
 40
0
 41
0
  0
VERTEX
  8
0
 10
2.21338
 20
2.63217
 30
0.0
 40
0
 41
0
  0
VERTEX
  8
0
 10
2.21338
 20
2.64453
 30
0.0
 40
0
 41
0
  0
VERTEX
  8
0
 10
2.1945
 20
2.64453
 30
0.0
 40
0
 41
0
  0
VERTEX
  8
0
 10
2.1945
 20
2.63217
 30
0.0
 40
0
 41
0
  0
VERTEX
  8
0
 10
2.18983
 20
2.63217
 30
0.0
 40
0
 41
0
  0
VERTEX
  8
0
 10
2.18983
 20
2.61546
 30
0.0
 40
0
 41
0
  0
VERTEX
  8
0
 10
2.19314
 20
2.61546
 30
0.0
 40
0
 41
0
  0
VERTEX
  8
0
 10
2.19314
 20
2.5779
 30
0.0
 40
0
 41
0
  0
VERTEX
  8
0
 10
2.18983
 20
2.5779
 30
0.0
 40
0
 41
0
  0
VERTEX
  8
0
 10
2.18983
 20
2.56119
 30
0.0
 40
0
 41
0
  0
VERTEX
  8
0
 10
2.28315
 20
2.56119
 30
0.0
 40
0
 41
0
  0
VERTEX
  8
0
 10
2.28315
 20
2.5779
 30
0.0
 40
0
 41
0
  0
VERTEX
  8
0
 10
2.27946
 20
2.5779
 30
0.0
 40
0
 41
0
  0
VERTEX
  8
0
 10
2.27946
 20
2.61546
 30
0.0
 40
0
 41
0
  0
VERTEX
  8
0
 10
2.28315
 20
2.61546
 30
0.0
 40
0
 41
0
  0
SEQEND
 8
0
  0
POLYLINE
  8
0
 62
     0
 66
     1
 10
0
 20
0
 30
0.0
 70
     1
 40
0
 41
0
  0
VERTEX
  8
0
 10
2.27767
 20
2.56651
 30
0.0
 40
0
 41
0
  0
VERTEX
  8
0
 10
2.19532
 20
2.56651
 30
0.0
 40
0
 41
0
  0
VERTEX
  8
0
 10
2.19532
 20
2.57254
 30
0.0
 40
0
 41
0
  0
VERTEX
  8
0
 10
2.27767
 20
2.57254
 30
0.0
 40
0
 41
0
  0
VERTEX
  8
0
 10
2.27767
 20
2.56651
 30
0.0
 40
0
 41
0
  0
SEQEND
 8
0
  0
POLYLINE
  8
0
 62
     0
 66
     1
 10
0
 20
0
 30
0.0
 70
     1
 40
0
 41
0
  0
VERTEX
  8
0
 10
2.19857
 20
2.5779
 30
0.0
 40
0
 41
0
  0
VERTEX
  8
0
 10
2.19857
 20
2.61529
 30
0.0
 40
0
 41
0
  0
VERTEX
  8
0
 10
2.27403
 20
2.61529
 30
0.0
 40
0
 41
0
  0
VERTEX
  8
0
 10
2.27403
 20
2.5779
 30
0.0
 40
0
 41
0
  0
VERTEX
  8
0
 10
2.19857
 20
2.5779
 30
0.0
 40
0
 41
0
  0
SEQEND
 8
0
  0
POLYLINE
  8
0
 62
     0
 66
     1
 10
0
 20
0
 30
0.0
 70
     1
 40
0
 41
0
  0
VERTEX
  8
0
 10
2.19532
 20
2.62679
 30
0.0
 40
0
 41
0
  0
VERTEX
  8
0
 10
2.27767
 20
2.62679
 30
0.0
 40
0
 41
0
  0
VERTEX
  8
0
 10
2.27767
 20
2.62076
 30
0.0
 40
0
 41
0
  0
VERTEX
  8
0
 10
2.19532
 20
2.62076
 30
0.0
 40
0
 41
0
  0
VERTEX
  8
0
 10
2.19532
 20
2.62679
 30
0.0
 40
0
 41
0
  0
SEQEND
 8
0
  0
POLYLINE
  8
0
 62
     0
 66
     1
 10
0
 20
0
 30
0.0
 70
     1
 40
0
 41
0
  0
VERTEX
  8
0
 10
2.26508
 20
2.63917
 30
0.0
 40
0
 41
0
  0
VERTEX
  8
0
 10
2.273
 20
2.63917
 30
0.0
 40
0
 41
0
  0
VERTEX
  8
0
 10
2.273
 20
2.63217
 30
0.0
 40
0
 41
0
  0
VERTEX
  8
0
 10
2.26508
 20
2.63217
 30
0.0
 40
0
 41
0
  0
VERTEX
  8
0
 10
2.26508
 20
2.63917
 30
0.0
 40
0
 41
0
  0
SEQEND
 8
0
  0
POLYLINE
  8
0
 62
     0
 66
     1
 10
0
 20
0
 30
0.0
 70
     1
 40
0
 41
0
  0
VERTEX
  8
0
 10
2.2276
 20
2.63672
 30
0.0
 40
0
 41
0
  0
VERTEX
  8
0
 10
2.24544
 20
2.63661
 30
0.0
 40
0
 41
0
  0
VERTEX
  8
0
 10
2.24539
 20
2.63217
 30
0.0
 40
0
 41
0
  0
VERTEX
  8
0
 10
2.22754
 20
2.63217
 30
0.0
 40
0
 41
0
  0
VERTEX
  8
0
 10
2.2276
 20
2.63672
 30
0.0
 40
0
 41
0
  0
SEQEND
 8
0
  0
POLYLINE
  8
0
 62
     0
 66
     1
 10
0
 20
0
 30
0.0
 70
     1
 40
0
 41
0
  0
VERTEX
  8
0
 10
2.19997
 20
2.63917
 30
0.0
 40
0
 41
0
  0
VERTEX
  8
0
 10
2.2079
 20
2.63917
 30
0.0
 40
0
 41
0
  0
VERTEX
  8
0
 10
2.2079
 20
2.63217
 30
0.0
 40
0
 41
0
  0
VERTEX
  8
0
 10
2.19997
 20
2.63217
 30
0.0
 40
0
 41
0
  0
VERTEX
  8
0
 10
2.19997
 20
2.63917
 30
0.0
 40
0
 41
0
  0
SEQEND
 8
0
  0
POLYLINE
  8
0
 62
     0
 66
     1
 10
0
 20
0
 30
0.0
 70
     1
 40
0
 41
0
  0
VERTEX
  8
0
 10
2.24496
 20
2.59928
 30
0.0
 40
0
 41
0
  0
VERTEX
  8
0
 10
2.26426
 20
2.59928
 30
0.0
 40
0
 41
0
  0
VERTEX
  8
0
 10
2.26426
 20
2.59392
 30
0.0
 40
0
 41
0
  0
VERTEX
  8
0
 10
2.24496
 20
2.59392
 30
0.0
 40
0
 41
0
  0
VERTEX
  8
0
 10
2.24496
 20
2.59928
 30
0.0
 40
0
 41
0
  0
SEQEND
 8
0
  0
POLYLINE
  8
0
 62
     0
 66
     1
 10
0
 20
0
 30
0.0
 70
     1
 40
0
 41
0
  0
VERTEX
  8
0
 10
2.22108
 20
2.60601
 30
0.0
 40
0
 41
0
  0
VERTEX
  8
0
 10
2.2156
 20
2.60601
 30
0.0
 40
0
 41
0
  0
VERTEX
  8
0
 10
2.2156
 20
2.59928
 30
0.0
 40
0
 41
0
  0
VERTEX
  8
0
 10
2.20871
 20
2.59928
 30
0.0
 40
0
 41
0
  0
VERTEX
  8
0
 10
2.20871
 20
2.59392
 30
0.0
 40
0
 41
0
  0
VERTEX
  8
0
 10
2.2156
 20
2.59392
 30
0.0
 40
0
 41
0
  0
VERTEX
  8
0
 10
2.2156
 20
2.58718
 30
0.0
 40
0
 41
0
  0
VERTEX
  8
0
 10
2.22108
 20
2.58718
 30
0.0
 40
0
 41
0
  0
VERTEX
  8
0
 10
2.22108
 20
2.59392
 30
0.0
 40
0
 41
0
  0
VERTEX
  8
0
 10
2.22797
 20
2.59392
 30
0.0
 40
0
 41
0
  0
VERTEX
  8
0
 10
2.22797
 20
2.59928
 30
0.0
 40
0
 41
0
  0
VERTEX
  8
0
 10
2.22108
 20
2.59928
 30
0.0
 40
0
 41
0
  0
VERTEX
  8
0
 10
2.22108
 20
2.60601
 30
0.0
 40
0
 41
0
  0
SEQEND
 8
0
  0
POLYLINE
  8
0
 62
     0
 66
     1
 10
0
 20
0
 30
0.0
 70
     1
 40
0
 41
0
  0
VERTEX
  8
0
 10
2.25375
 20
2.71718
 30
0.0
 40
0
 41
0
  0
VERTEX
  8
0
 10
2.25375
 20
2.75022
 30
0.0
 40
0
 41
0
  0
VERTEX
  8
0
 10
2.25375
 20
2.75271
 30
0.0
 40
0
 41
0
  0
VERTEX
  8
0
 10
2.24963
 20
2.7601
 30
0.0
 40
0
 41
0
  0
VERTEX
  8
0
 10
2.24229
 20
2.76411
 30
0.0
 40
0
 41
0
  0
VERTEX
  8
0
 10
2.23986
 20
2.76411
 30
0.0
 40
0
 41
0
  0
VERTEX
  8
0
 10
2.23736
 20
2.76411
 30
0.0
 40
0
 41
0
  0
VERTEX
  8
0
 10
2.22999
 20
2.7601
 30
0.0
 40
0
 41
0
  0
VERTEX
  8
0
 10
2.22597
 20
2.75271
 30
0.0
 40
0
 41
0
  0
VERTEX
  8
0
 10
2.22597
 20
2.75022
 30
0.0
 40
0
 41
0
  0
VERTEX
  8
0
 10
2.22597
 20
2.71718
 30
0.0
 40
0
 41
0
  0
VERTEX
  8
0
 10
2.22487
 20
2.71625
 30
0.0
 40
0
 41
0
  0
VERTEX
  8
0
 10
2.21903
 20
2.70529
 30
0.0
 40
0
 41
0
  0
VERTEX
  8
0
 10
2.21903
 20
2.70161
 30
0.0
 40
0
 41
0
  0
VERTEX
  8
0
 10
2.21903
 20
2.69797
 30
0.0
 40
0
 41
0
  0
VERTEX
  8
0
 10
2.2251
 20
2.6869
 30
0.0
 40
0
 41
0
  0
VERTEX
  8
0
 10
2.23617
 20
2.68078
 30
0.0
 40
0
 41
0
  0
VERTEX
  8
0
 10
2.23986
 20
2.68078
 30
0.0
 40
0
 41
0
  0
VERTEX
  8
0
 10
2.24349
 20
2.68078
 30
0.0
 40
0
 41
0
  0
VERTEX
  8
0
 10
2.25456
 20
2.6869
 30
0.0
 40
0
 41
0
  0
VERTEX
  8
0
 10
2.26069
 20
2.69797
 30
0.0
 40
0
 41
0
  0
VERTEX
  8
0
 10
2.26069
 20
2.70161
 30
0.0
 40
0
 41
0
  0
VERTEX
  8
0
 10
2.26069
 20
2.70551
 30
0.0
 40
0
 41
0
  0
VERTEX
  8
0
 10
2.25478
 20
2.71625
 30
0.0
 40
0
 41
0
  0
VERTEX
  8
0
 10
2.25375
 20
2.71718
 30
0.0
 40
0
 41
0
  0
SEQEND
 8
0
  0
POLYLINE
  8
0
 62
     0
 66
     1
 10
0
 20
0
 30
0.0
 70
     1
 40
0
 41
0
  0
VERTEX
  8
0
 10
2.23986
 20
2.68772
 30
0.0
 40
0
 41
0
  0
VERTEX
  8
0
 10
2.23736
 20
2.68772
 30
0.0
 40
0
 41
0
  0
VERTEX
  8
0
 10
2.22999
 20
2.69185
 30
0.0
 40
0
 41
0
  0
VERTEX
  8
0
 10
2.22597
 20
2.69917
 30
0.0
 40
0
 41
0
  0
VERTEX
  8
0
 10
2.22597
 20
2.70161
 30
0.0
 40
0
 41
0
  0
VERTEX
  8
0
 10
2.22597
 20
2.70421
 30
0.0
 40
0
 41
0
  0
VERTEX
  8
0
 10
2.22982
 20
2.71132
 30
0.0
 40
0
 41
0
  0
VERTEX
  8
0
 10
2.23058
 20
2.71197
 30
0.0
 40
0
 41
0
  0
VERTEX
  8
0
 10
2.23292
 20
2.71403
 30
0.0
 40
0
 41
0
  0
VERTEX
  8
0
 10
2.23292
 20
2.75022
 30
0.0
 40
0
 41
0
  0
VERTEX
  8
0
 10
2.23292
 20
2.75196
 30
0.0
 40
0
 41
0
  0
VERTEX
  8
0
 10
2.23813
 20
2.75717
 30
0.0
 40
0
 41
0
  0
VERTEX
  8
0
 10
2.23986
 20
2.75717
 30
0.0
 40
0
 41
0
  0
VERTEX
  8
0
 10
2.2416
 20
2.75717
 30
0.0
 40
0
 41
0
  0
VERTEX
  8
0
 10
2.24681
 20
2.75196
 30
0.0
 40
0
 41
0
  0
VERTEX
  8
0
 10
2.24681
 20
2.75022
 30
0.0
 40
0
 41
0
  0
VERTEX
  8
0
 10
2.24681
 20
2.71403
 30
0.0
 40
0
 41
0
  0
VERTEX
  8
0
 10
2.24908
 20
2.71197
 30
0.0
 40
0
 41
0
  0
VERTEX
  8
0
 10
2.24978
 20
2.71132
 30
0.0
 40
0
 41
0
  0
VERTEX
  8
0
 10
2.25375
 20
2.70404
 30
0.0
 40
0
 41
0
  0
VERTEX
  8
0
 10
2.25375
 20
2.70161
 30
0.0
 40
0
 41
0
  0
VERTEX
  8
0
 10
2.25375
 20
2.69917
 30
0.0
 40
0
 41
0
  0
VERTEX
  8
0
 10
2.24963
 20
2.69185
 30
0.0
 40
0
 41
0
  0
VERTEX
  8
0
 10
2.24229
 20
2.68772
 30
0.0
 40
0
 41
0
  0
VERTEX
  8
0
 10
2.23986
 20
2.68772
 30
0.0
 40
0
 41
0
  0
SEQEND
 8
0
  0
POLYLINE
  8
0
 62
     0
 66
     1
 10
0
 20
0
 30
0.0
 70
     1
 40
0
 41
0
  0
VERTEX
  8
0
 10
2.23639
 20
2.73633
 30
0.0
 40
0
 41
0
  0
VERTEX
  8
0
 10
2.24333
 20
2.73633
 30
0.0
 40
0
 41
0
  0
VERTEX
  8
0
 10
2.24333
 20
2.69467
 30
0.0
 40
0
 41
0
  0
VERTEX
  8
0
 10
2.23639
 20
2.69467
 30
0.0
 40
0
 41
0
  0
VERTEX
  8
0
 10
2.23639
 20
2.73633
 30
0.0
 40
0
 41
0
  0
SEQEND
 8
0
  0
POLYLINE
  8
0
 62
     0
 66
     1
 10
0
 20
0
 30
0.0
 70
     1
 40
0
 41
0
  0
VERTEX
  8
0
 10
2.25028
 20
2.70161
 30
0.0
 40
0
 41
0
  0
VERTEX
  8
0
 10
2.25028
 20
2.69982
 30
0.0
 40
0
 41
0
  0
VERTEX
  8
0
 10
2.24718
 20
2.69428
 30
0.0
 40
0
 41
0
  0
VERTEX
  8
0
 10
2.24164
 20
2.69119
 30
0.0
 40
0
 41
0
  0
VERTEX
  8
0
 10
2.23986
 20
2.69119
 30
0.0
 40
0
 41
0
  0
VERTEX
  8
0
 10
2.23801
 20
2.69119
 30
0.0
 40
0
 41
0
  0
VERTEX
  8
0
 10
2.23247
 20
2.69428
 30
0.0
 40
0
 41
0
  0
VERTEX
  8
0
 10
2.22944
 20
2.69982
 30
0.0
 40
0
 41
0
  0
VERTEX
  8
0
 10
2.22944
 20
2.70161
 30
0.0
 40
0
 41
0
  0
VERTEX
  8
0
 10
2.22944
 20
2.70344
 30
0.0
 40
0
 41
0
  0
VERTEX
  8
0
 10
2.23247
 20
2.70899
 30
0.0
 40
0
 41
0
  0
VERTEX
  8
0
 10
2.23801
 20
2.71203
 30
0.0
 40
0
 41
0
  0
VERTEX
  8
0
 10
2.23986
 20
2.71203
 30
0.0
 40
0
 41
0
  0
VERTEX
  8
0
 10
2.24164
 20
2.71203
 30
0.0
 40
0
 41
0
  0
VERTEX
  8
0
 10
2.24718
 20
2.70899
 30
0.0
 40
0
 41
0
  0
VERTEX
  8
0
 10
2.25028
 20
2.70344
 30
0.0
 40
0
 41
0
  0
VERTEX
  8
0
 10
2.25028
 20
2.70161
 30
0.0
 40
0
 41
0
  0
SEQEND
 8
0
  0
TEXT
  8
0
 62
     0
 10
4.44036
 20
1.92967
 30
0
 40
0.0416667
  1
T
 50
0
  7
DejaVuSans
  0
TEXT
  8
0
 62
     0
 10
4.45972
 20
1.92967
 30
0
 40
0.0416667
  1
ract
 50
0
  7
DejaVuSans
  0
TEXT
  8
0
 62
     0
 10
4.54167
 20
1.92967
 30
0
 40
0.0416667
  1
ion  
 50
0
  7
DejaVuSans
  0
TEXT
  8
0
 62
     0
 10
4.44036
 20
1.86865
 30
0
 40
0.0416667
  1
Contr
 50
0
  7
DejaVuSans
  0
TEXT
  8
0
 62
     0
 10
4.55389
 20
1.86865
 30
0
 40
0.0416667
  1
ol
 50
0
  7
DejaVuSans
  0
TEXT
  8
0
 62
     0
 10
4.65188
 20
1.89696
 30
0
 40
0.0416667
  1
W
 50
0
  7
DejaVuSans
  0
TEXT
  8
0
 62
     0
 10
4.6906
 20
1.89696
 30
0
 40
0.0416667
  1
et / Dr
 50
0
  7
DejaVuSans
  0
TEXT
  8
0
 62
     0
 10
4.82228
 20
1.89696
 30
0
 40
0.0416667
  1
y
 50
0
  7
DejaVuSans
  0
TEXT
  8
0
 62
     0
 10
4.95867
 20
1.89696
 30
0
 40
0.0416667
  1
L
 50
0
  7
DejaVuSans
  0
TEXT
  8
0
 62
     0
 10
4.98108
 20
1.89696
 30
0
 40
0.0416667
  1
og
 50
0
  7
DejaVuSans
  0
TEXT
  8
0
 62
     0
 10
1.13133
 20
1.98756
 30
0
 40
0.0416667
  1
LP On
 50
0
  7
DejaVuSans
  0
TEXT
  8
0
 62
     0
 10
1.13133
 20
2.04708
 30
0
 40
0.0416667
  1
HP On
 50
0
  7
DejaVuSans
  0
TEXT
  8
0
 62
     0
 10
1.13308
 20
1.933
 30
0
 40
0.0416667
  1
O
 50
0
  7
DejaVuSans
  0
TEXT
  8
0
 62
     0
 10
1.16585
 20
1.933
 30
0
 40
0.0416667
  1

 50
0
  7
DejaVuSans
  0
TEXT
  8
0
 62
     0
 10
2.07925
 20
2.3399
 30
0
 40
0.0416667
  1
Bat
 50
0
  7
DejaVuSans
  0
TEXT
  8
0
 62
     0
 10
2.08346
 20
2.23725
 30
0
 40
0.0416667
  1
T
 50
0
  7
DejaVuSans
  0
TEXT
  8
0
 62
     0
 10
2.10186
 20
2.23725
 30
0
 40
0.0416667
  1
emp
 50
0
  7
DejaVuSans
  0
TEXT
  8
0
 62
     0
 10
5.10183
 20
2.12786
 30
0
 40
0.0416667
  1
On
 50
0
  7
DejaVuSans
  0
TEXT
  8
0
 62
     0
 10
5.10183
 20
2.04844
 30
0
 40
0.0416667
  1
O
 50
0
  7
DejaVuSans
  0
TEXT
  8
0
 62
     0
 10
5.1346
 20
2.04844
 30
0
 40
0.0416667
  1

 50
0
  7
DejaVuSans
  0
POLYLINE
  8
0
 62
     1
 66
     1
 10
0
 20
0
 30
0.0
 70
     1
 40
0.2625
 41
0.2625
  0
VERTEX
  8
0
 10
3.93289
 20
2.92458
 30
0.0
 40
0.00364583
 41
0.00364583
  0
VERTEX
  8
0
 10
3.93289
 20
2.92003
 30
0.0
 40
0.00364583
 41
0.00364583
  0
VERTEX
  8
0
 10
3.92524
 20
2.90619
 30
0.0
 40
0.00364583
 41
0.00364583
  0
VERTEX
  8
0
 10
3.9114
 20
2.89854
 30
0.0
 40
0.00364583
 41
0.00364583
  0
VERTEX
  8
0
 10
3.90685
 20
2.89854
 30
0.0
 40
0.00364583
 41
0.00364583
  0
VERTEX
  8
0
 10
3.90224
 20
2.89854
 30
0.0
 40
0.00364583
 41
0.00364583
  0
VERTEX
  8
0
 10
3.8884
 20
2.90619
 30
0.0
 40
0.00364583
 41
0.00364583
  0
VERTEX
  8
0
 10
3.88081
 20
2.92003
 30
0.0
 40
0.00364583
 41
0.00364583
  0
VERTEX
  8
0
 10
3.88081
 20
2.92458
 30
0.0
 40
0.00364583
 41
0.00364583
  0
VERTEX
  8
0
 10
3.88081
 20
2.92919
 30
0.0
 40
0.00364583
 41
0.00364583
  0
VERTEX
  8
0
 10
3.8884
 20
2.94303
 30
0.0
 40
0.00364583
 41
0.00364583
  0
VERTEX
  8
0
 10
3.90224
 20
2.95063
 30
0.0
 40
0.00364583
 41
0.00364583
  0
VERTEX
  8
0
 10
3.90685
 20
2.95063
 30
0.0
 40
0.00364583
 41
0.00364583
  0
VERTEX
  8
0
 10
3.9114
 20
2.95063
 30
0.0
 40
0.00364583
 41
0.00364583
  0
VERTEX
  8
0
 10
3.92524
 20
2.94303
 30
0.0
 40
0.00364583
 41
0.00364583
  0
VERTEX
  8
0
 10
3.93289
 20
2.92919
 30
0.0
 40
0.00364583
 41
0.00364583
  0
VERTEX
  8
0
 10
3.93289
 20
2.92458
 30
0.0
 40
0.00364583
 41
0.00364583
  0
SEQEND
 8
0
  0
POLYLINE
  8
0
 62
     1
 66
     1
 10
0
 20
0
 30
0.0
 40
0.2625
 41
0.2625
  0
VERTEX
  8
0
 10
4.46756
 20
3.03386
 30
0.0
 40
0.00364583
 41
0.00364583
  0
VERTEX
  8
0
 10
2.02154
 20
3.03386
 30
0.0
 40
0.00364583
 41
0.00364583
  0
SEQEND
 8
0
  0
POLYLINE
  8
0
 62
     1
 66
     1
 10
0
 20
0
 30
0.0
 40
0.2625
 41
0.2625
  0
VERTEX
  8
0
 10
2.02154
 20
3.03386
 30
0.0
 40
0.00364583
 41
0.00364583
  0
VERTEX
  8
0
 10
1.98275
 20
3.03386
 30
0.0
 40
0.00364583
 41
0.00364583
  0
VERTEX
  8
0
 10
1.86649
 20
3.02225
 30
0.0
 40
0.00364583
 41
0.00364583
  0
VERTEX
  8
0
 10
1.73969
 20
2.99533
 30
0.0
 40
0.00364583
 41
0.00364583
  0
VERTEX
  8
0
 10
1.7149
 20
2.98768
 30
0.0
 40
0.00364583
 41
0.00364583
  0
SEQEND
 8
0
  0
POLYLINE
  8
0
 62
     1
 66
     1
 10
0
 20
0
 30
0.0
 40
0.2625
 41
0.2625
  0
VERTEX
  8
0
 10
1.7149
 20
2.98768
 30
0.0
 40
0.00364583
 41
0.00364583
  0
VERTEX
  8
0
 10
1.70275
 20
2.984
 30
0.0
 40
0.00364583
 41
0.00364583
  0
VERTEX
  8
0
 10
1.66883
 20
2.96468
 30
0.0
 40
0.00364583
 41
0.00364583
  0
VERTEX
  8
0
 10
1.63357
 20
2.92899
 30
0.0
 40
0.00364583
 41
0.00364583
  0
VERTEX
  8
0
 10
1.61139
 20
2.8839
 30
0.0
 40
0.00364583
 41
0.00364583
  0
VERTEX
  8
0
 10
1.60428
 20
2.84554
 30
0.0
 40
0.00364583
 41
0.00364583
  0
VERTEX
  8
0
 10
1.60476
 20
2.83285
 30
0.0
 40
0.00364583
 41
0.00364583
  0
SEQEND
 8
0
  0
POLYLINE
  8
0
 62
     1
 66
     1
 10
0
 20
0
 30
0.0
 40
0.2625
 41
0.2625
  0
VERTEX
  8
0
 10
1.38319
 20
2.61762
 30
0.0
 40
0.00364583
 41
0.00364583
  0
VERTEX
  8
0
 10
1.39399
 20
2.61697
 30
0.0
 40
0.00364583
 41
0.00364583
  0
VERTEX
  8
0
 10
1.42681
 20
2.61947
 30
0.0
 40
0.00364583
 41
0.00364583
  0
VERTEX
  8
0
 10
1.46864
 20
2.6301
 30
0.0
 40
0.00364583
 41
0.00364583
  0
VERTEX
  8
0
 10
1.50737
 20
2.64914
 30
0.0
 40
0.00364583
 41
0.00364583
  0
VERTEX
  8
0
 10
1.5339
 20
2.66857
 30
0.0
 40
0.00364583
 41
0.00364583
  0
VERTEX
  8
0
 10
1.54172
 20
2.67611
 30
0.0
 40
0.00364583
 41
0.00364583
  0
VERTEX
  8
0
 10
1.54949
 20
2.68371
 30
0.0
 40
0.00364583
 41
0.00364583
  0
VERTEX
  8
0
 10
1.56967
 20
2.70964
 30
0.0
 40
0.00364583
 41
0.00364583
  0
VERTEX
  8
0
 10
1.58985
 20
2.74783
 30
0.0
 40
0.00364583
 41
0.00364583
  0
VERTEX
  8
0
 10
1.60167
 20
2.78933
 30
0.0
 40
0.00364583
 41
0.00364583
  0
VERTEX
  8
0
 10
1.60514
 20
2.82206
 30
0.0
 40
0.00364583
 41
0.00364583
  0
VERTEX
  8
0
 10
1.60476
 20
2.83285
 30
0.0
 40
0.00364583
 41
0.00364583
  0
SEQEND
 8
0
  0
POLYLINE
  8
0
 62
     1
 66
     1
 10
0
 20
0
 30
0.0
 40
0.2625
 41
0.2625
  0
VERTEX
  8
0
 10
1.38319
 20
2.61762
 30
0.0
 40
0.00364583
 41
0.00364583
  0
VERTEX
  8
0
 10
1.36008
 20
2.61914
 30
0.0
 40
0.00364583
 41
0.00364583
  0
VERTEX
  8
0
 10
1.28993
 20
2.6096
 30
0.0
 40
0.00364583
 41
0.00364583
  0
VERTEX
  8
0
 10
1.20492
 20
2.57525
 30
0.0
 40
0.00364583
 41
0.00364583
  0
VERTEX
  8
0
 10
1.13352
 20
2.51774
 30
0.0
 40
0.00364583
 41
0.00364583
  0
VERTEX
  8
0
 10
1.09104
 20
2.46104
 30
0.0
 40
0.00364583
 41
0.00364583
  0
VERTEX
  8
0
 10
1.08111
 20
2.44015
 30
0.0
 40
0.00364583
 41
0.00364583
  0
SEQEND
 8
0
  0
POLYLINE
  8
0
 62
     1
 66
     1
 10
0
 20
0
 30
0.0
 40
0.2625
 41
0.2625
  0
VERTEX
  8
0
 10
1.08111
 20
2.44015
 30
0.0
 40
0.00364583
 41
0.00364583
  0
VERTEX
  8
0
 10
1.07384
 20
2.42503
 30
0.0
 40
0.00364583
 41
0.00364583
  0
VERTEX
  8
0
 10
1.01671
 20
2.26725
 30
0.0
 40
0.00364583
 41
0.00364583
  0
VERTEX
  8
0
 10
1.01253
 20
2.25092
 30
0.0
 40
0.00364583
 41
0.00364583
  0
SEQEND
 8
0
  0
POLYLINE
  8
0
 62
     1
 66
     1
 10
0
 20
0
 30
0.0
 40
0.2625
 41
0.2625
  0
VERTEX
  8
0
 10
1.01253
 20
2.25092
 30
0.0
 40
0.00364583
 41
0.00364583
  0
VERTEX
  8
0
 10
0.883137
 20
1.74642
 30
0.0
 40
0.00364583
 41
0.00364583
  0
SEQEND
 8
0
  0
POLYLINE
  8
0
 62
     1
 66
     1
 10
0
 20
0
 30
0.0
 40
0.2625
 41
0.2625
  0
VERTEX
  8
0
 10
0.883137
 20
1.74642
 30
0.0
 40
0.00364583
 41
0.00364583
  0
VERTEX
  8
0
 10
5.60596
 20
1.74642
 30
0.0
 40
0.00364583
 41
0.00364583
  0
SEQEND
 8
0
  0
POLYLINE
  8
0
 62
     1
 66
     1
 10
0
 20
0
 30
0.0
 40
0.2625
 41
0.2625
  0
VERTEX
  8
0
 10
5.47657
 20
2.25092
 30
0.0
 40
0.00364583
 41
0.00364583
  0
VERTEX
  8
0
 10
5.60596
 20
1.74642
 30
0.0
 40
0.00364583
 41
0.00364583
  0
SEQEND
 8
0
  0
POLYLINE
  8
0
 62
     1
 66
     1
 10
0
 20
0
 30
0.0
 40
0.2625
 41
0.2625
  0
VERTEX
  8
0
 10
5.47657
 20
2.25092
 30
0.0
 40
0.00364583
 41
0.00364583
  0
VERTEX
  8
0
 10
5.47239
 20
2.26725
 30
0.0
 40
0.00364583
 41
0.00364583
  0
VERTEX
  8
0
 10
5.41521
 20
2.42503
 30
0.0
 40
0.00364583
 41
0.00364583
  0
VERTEX
  8
0
 10
5.40799
 20
2.44015
 30
0.0
 40
0.00364583
 41
0.00364583
  0
SEQEND
 8
0
  0
POLYLINE
  8
0
 62
     1
 66
     1
 10
0
 20
0
 30
0.0
 40
0.2625
 41
0.2625
  0
VERTEX
  8
0
 10
5.40799
 20
2.44015
 30
0.0
 40
0.00364583
 41
0.00364583
  0
VERTEX
  8
0
 10
5.398
 20
2.46104
 30
0.0
 40
0.00364583
 41
0.00364583
  0
VERTEX
  8
0
 10
5.35553
 20
2.51774
 30
0.0
 40
0.00364583
 41
0.00364583
  0
VERTEX
  8
0
 10
5.28413
 20
2.57519
 30
0.0
 40
0.00364583
 41
0.00364583
  0
VERTEX
  8
0
 10
5.19911
 20
2.6096
 30
0.0
 40
0.00364583
 41
0.00364583
  0
VERTEX
  8
0
 10
5.1289
 20
2.61908
 30
0.0
 40
0.00364583
 41
0.00364583
  0
VERTEX
  8
0
 10
5.10585
 20
2.61762
 30
0.0
 40
0.00364583
 41
0.00364583
  0
SEQEND
 8
0
  0
POLYLINE
  8
0
 62
     1
 66
     1
 10
0
 20
0
 30
0.0
 40
0.2625
 41
0.2625
  0
VERTEX
  8
0
 10
4.88433
 20
2.83285
 30
0.0
 40
0.00364583
 41
0.00364583
  0
VERTEX
  8
0
 10
4.88396
 20
2.82206
 30
0.0
 40
0.00364583
 41
0.00364583
  0
VERTEX
  8
0
 10
4.88737
 20
2.78933
 30
0.0
 40
0.00364583
 41
0.00364583
  0
VERTEX
  8
0
 10
4.89925
 20
2.74783
 30
0.0
 40
0.00364583
 41
0.00364583
  0
VERTEX
  8
0
 10
4.91938
 20
2.70964
 30
0.0
 40
0.00364583
 41
0.00364583
  0
VERTEX
  8
0
 10
4.93956
 20
2.68371
 30
0.0
 40
0.00364583
 41
0.00364583
  0
VERTEX
  8
0
 10
4.94738
 20
2.67611
 30
0.0
 40
0.00364583
 41
0.00364583
  0
VERTEX
  8
0
 10
4.95514
 20
2.66857
 30
0.0
 40
0.00364583
 41
0.00364583
  0
VERTEX
  8
0
 10
4.98167
 20
2.64914
 30
0.0
 40
0.00364583
 41
0.00364583
  0
VERTEX
  8
0
 10
5.0204
 20
2.6301
 30
0.0
 40
0.00364583
 41
0.00364583
  0
VERTEX
  8
0
 10
5.06222
 20
2.61947
 30
0.0
 40
0.00364583
 41
0.00364583
  0
VERTEX
  8
0
 10
5.095
 20
2.61697
 30
0.0
 40
0.00364583
 41
0.00364583
  0
VERTEX
  8
0
 10
5.10585
 20
2.61762
 30
0.0
 40
0.00364583
 41
0.00364583
  0
SEQEND
 8
0
  0
POLYLINE
  8
0
 62
     1
 66
     1
 10
0
 20
0
 30
0.0
 40
0.2625
 41
0.2625
  0
VERTEX
  8
0
 10
4.88433
 20
2.83285
 30
0.0
 40
0.00364583
 41
0.00364583
  0
VERTEX
  8
0
 10
4.88476
 20
2.84554
 30
0.0
 40
0.00364583
 41
0.00364583
  0
VERTEX
  8
0
 10
4.87765
 20
2.8839
 30
0.0
 40
0.00364583
 41
0.00364583
  0
VERTEX
  8
0
 10
4.85547
 20
2.92899
 30
0.0
 40
0.00364583
 41
0.00364583
  0
VERTEX
  8
0
 10
4.82021
 20
2.96468
 30
0.0
 40
0.00364583
 41
0.00364583
  0
VERTEX
  8
0
 10
4.78629
 20
2.984
 30
0.0
 40
0.00364583
 41
0.00364583
  0
VERTEX
  8
0
 10
4.77419
 20
2.98768
 30
0.0
 40
0.00364583
 41
0.00364583
  0
SEQEND
 8
0
  0
POLYLINE
  8
0
 62
     1
 66
     1
 10
0
 20
0
 30
0.0
 40
0.2625
 41
0.2625
  0
VERTEX
  8
0
 10
4.77419
 20
2.98768
 30
0.0
 40
0.00364583
 41
0.00364583
  0
VERTEX
  8
0
 10
4.74935
 20
2.99533
 30
0.0
 40
0.00364583
 41
0.00364583
  0
VERTEX
  8
0
 10
4.62256
 20
3.02225
 30
0.0
 40
0.00364583
 41
0.00364583
  0
VERTEX
  8
0
 10
4.50629
 20
3.03386
 30
0.0
 40
0.00364583
 41
0.00364583
  0
VERTEX
  8
0
 10
4.46756
 20
3.03386
 30
0.0
 40
0.00364583
 41
0.00364583
  0
SEQEND
 8
0
  0
POLYLINE
  8
0
 62
     1
 66
     1
 10
0
 20
0
 30
0.0
 70
     1
 40
0.2625
 41
0.2625
  0
VERTEX
  8
0
 10
3.42264
 20
2.76096
 30
0.0
 40
0.00364583
 41
0.00364583
  0
VERTEX
  8
0
 10
3.42264
 20
2.75825
 30
0.0
 40
0.00364583
 41
0.00364583
  0
VERTEX
  8
0
 10
3.41803
 20
2.74994
 30
0.0
 40
0.00364583
 41
0.00364583
  0
VERTEX
  8
0
 10
3.40972
 20
2.74533
 30
0.0
 40
0.00364583
 41
0.00364583
  0
VERTEX
  8
0
 10
3.40701
 20
2.74533
 30
0.0
 40
0.00364583
 41
0.00364583
  0
VERTEX
  8
0
 10
3.40424
 20
2.74533
 30
0.0
 40
0.00364583
 41
0.00364583
  0
VERTEX
  8
0
 10
3.39594
 20
2.74994
 30
0.0
 40
0.00364583
 41
0.00364583
  0
VERTEX
  8
0
 10
3.39139
 20
2.75825
 30
0.0
 40
0.00364583
 41
0.00364583
  0
VERTEX
  8
0
 10
3.39139
 20
2.76096
 30
0.0
 40
0.00364583
 41
0.00364583
  0
VERTEX
  8
0
 10
3.39139
 20
2.76372
 30
0.0
 40
0.00364583
 41
0.00364583
  0
VERTEX
  8
0
 10
3.39594
 20
2.77203
 30
0.0
 40
0.00364583
 41
0.00364583
  0
VERTEX
  8
0
 10
3.40424
 20
2.77658
 30
0.0
 40
0.00364583
 41
0.00364583
  0
VERTEX
  8
0
 10
3.40701
 20
2.77658
 30
0.0
 40
0.00364583
 41
0.00364583
  0
VERTEX
  8
0
 10
3.40972
 20
2.77658
 30
0.0
 40
0.00364583
 41
0.00364583
  0
VERTEX
  8
0
 10
3.41803
 20
2.77203
 30
0.0
 40
0.00364583
 41
0.00364583
  0
VERTEX
  8
0
 10
3.42264
 20
2.76372
 30
0.0
 40
0.00364583
 41
0.00364583
  0
VERTEX
  8
0
 10
3.42264
 20
2.76096
 30
0.0
 40
0.00364583
 41
0.00364583
  0
SEQEND
 8
0
  0
POLYLINE
  8
0
 62
     1
 66
     1
 10
0
 20
0
 30
0.0
 70
     1
 40
0.2625
 41
0.2625
  0
VERTEX
  8
0
 10
2.86014
 20
2.76096
 30
0.0
 40
0.00364583
 41
0.00364583
  0
VERTEX
  8
0
 10
2.86014
 20
2.75825
 30
0.0
 40
0.00364583
 41
0.00364583
  0
VERTEX
  8
0
 10
2.85553
 20
2.74994
 30
0.0
 40
0.00364583
 41
0.00364583
  0
VERTEX
  8
0
 10
2.84722
 20
2.74533
 30
0.0
 40
0.00364583
 41
0.00364583
  0
VERTEX
  8
0
 10
2.84451
 20
2.74533
 30
0.0
 40
0.00364583
 41
0.00364583
  0
VERTEX
  8
0
 10
2.84174
 20
2.74533
 30
0.0
 40
0.00364583
 41
0.00364583
  0
VERTEX
  8
0
 10
2.83344
 20
2.74994
 30
0.0
 40
0.00364583
 41
0.00364583
  0
VERTEX
  8
0
 10
2.82889
 20
2.75825
 30
0.0
 40
0.00364583
 41
0.00364583
  0
VERTEX
  8
0
 10
2.82889
 20
2.76096
 30
0.0
 40
0.00364583
 41
0.00364583
  0
VERTEX
  8
0
 10
2.82889
 20
2.76372
 30
0.0
 40
0.00364583
 41
0.00364583
  0
VERTEX
  8
0
 10
2.83344
 20
2.77203
 30
0.0
 40
0.00364583
 41
0.00364583
  0
VERTEX
  8
0
 10
2.84174
 20
2.77658
 30
0.0
 40
0.00364583
 41
0.00364583
  0
VERTEX
  8
0
 10
2.84451
 20
2.77658
 30
0.0
 40
0.00364583
 41
0.00364583
  0
VERTEX
  8
0
 10
2.84722
 20
2.77658
 30
0.0
 40
0.00364583
 41
0.00364583
  0
VERTEX
  8
0
 10
2.85553
 20
2.77203
 30
0.0
 40
0.00364583
 41
0.00364583
  0
VERTEX
  8
0
 10
2.86014
 20
2.76372
 30
0.0
 40
0.00364583
 41
0.00364583
  0
VERTEX
  8
0
 10
2.86014
 20
2.76096
 30
0.0
 40
0.00364583
 41
0.00364583
  0
SEQEND
 8
0
  0
POLYLINE
  8
0
 62
     1
 66
     1
 10
0
 20
0
 30
0.0
 70
     1
 40
0.2625
 41
0.2625
  0
VERTEX
  8
0
 10
2.86014
 20
2.40679
 30
0.0
 40
0.00364583
 41
0.00364583
  0
VERTEX
  8
0
 10
2.86014
 20
2.40408
 30
0.0
 40
0.00364583
 41
0.00364583
  0
VERTEX
  8
0
 10
2.85553
 20
2.39578
 30
0.0
 40
0.00364583
 41
0.00364583
  0
VERTEX
  8
0
 10
2.84722
 20
2.39117
 30
0.0
 40
0.00364583
 41
0.00364583
  0
VERTEX
  8
0
 10
2.84451
 20
2.39117
 30
0.0
 40
0.00364583
 41
0.00364583
  0
VERTEX
  8
0
 10
2.84174
 20
2.39117
 30
0.0
 40
0.00364583
 41
0.00364583
  0
VERTEX
  8
0
 10
2.83344
 20
2.39578
 30
0.0
 40
0.00364583
 41
0.00364583
  0
VERTEX
  8
0
 10
2.82889
 20
2.40408
 30
0.0
 40
0.00364583
 41
0.00364583
  0
VERTEX
  8
0
 10
2.82889
 20
2.40679
 30
0.0
 40
0.00364583
 41
0.00364583
  0
VERTEX
  8
0
 10
2.82889
 20
2.40956
 30
0.0
 40
0.00364583
 41
0.00364583
  0
VERTEX
  8
0
 10
2.83344
 20
2.41786
 30
0.0
 40
0.00364583
 41
0.00364583
  0
VERTEX
  8
0
 10
2.84174
 20
2.42242
 30
0.0
 40
0.00364583
 41
0.00364583
  0
VERTEX
  8
0
 10
2.84451
 20
2.42242
 30
0.0
 40
0.00364583
 41
0.00364583
  0
VERTEX
  8
0
 10
2.84722
 20
2.42242
 30
0.0
 40
0.00364583
 41
0.00364583
  0
VERTEX
  8
0
 10
2.85553
 20
2.41786
 30
0.0
 40
0.00364583
 41
0.00364583
  0
VERTEX
  8
0
 10
2.86014
 20
2.40956
 30
0.0
 40
0.00364583
 41
0.00364583
  0
VERTEX
  8
0
 10
2.86014
 20
2.40679
 30
0.0
 40
0.00364583
 41
0.00364583
  0
SEQEND
 8
0
  0
POLYLINE
  8
0
 62
     1
 66
     1
 10
0
 20
0
 30
0.0
 70
     1
 40
0.2625
 41
0.2625
  0
VERTEX
  8
0
 10
1.79221
 20
2.86621
 30
0.0
 40
0.00364583
 41
0.00364583
  0
VERTEX
  8
0
 10
1.79221
 20
2.8635
 30
0.0
 40
0.00364583
 41
0.00364583
  0
VERTEX
  8
0
 10
1.7876
 20
2.85519
 30
0.0
 40
0.00364583
 41
0.00364583
  0
VERTEX
  8
0
 10
1.77929
 20
2.85058
 30
0.0
 40
0.00364583
 41
0.00364583
  0
VERTEX
  8
0
 10
1.77658
 20
2.85058
 30
0.0
 40
0.00364583
 41
0.00364583
  0
VERTEX
  8
0
 10
1.77382
 20
2.85058
 30
0.0
 40
0.00364583
 41
0.00364583
  0
VERTEX
  8
0
 10
1.76551
 20
2.85519
 30
0.0
 40
0.00364583
 41
0.00364583
  0
VERTEX
  8
0
 10
1.76096
 20
2.8635
 30
0.0
 40
0.00364583
 41
0.00364583
  0
VERTEX
  8
0
 10
1.76096
 20
2.86621
 30
0.0
 40
0.00364583
 41
0.00364583
  0
VERTEX
  8
0
 10
1.76096
 20
2.86897
 30
0.0
 40
0.00364583
 41
0.00364583
  0
VERTEX
  8
0
 10
1.76551
 20
2.87728
 30
0.0
 40
0.00364583
 41
0.00364583
  0
VERTEX
  8
0
 10
1.77382
 20
2.88183
 30
0.0
 40
0.00364583
 41
0.00364583
  0
VERTEX
  8
0
 10
1.77658
 20
2.88183
 30
0.0
 40
0.00364583
 41
0.00364583
  0
VERTEX
  8
0
 10
1.77929
 20
2.88183
 30
0.0
 40
0.00364583
 41
0.00364583
  0
VERTEX
  8
0
 10
1.7876
 20
2.87728
 30
0.0
 40
0.00364583
 41
0.00364583
  0
VERTEX
  8
0
 10
1.79221
 20
2.86897
 30
0.0
 40
0.00364583
 41
0.00364583
  0
VERTEX
  8
0
 10
1.79221
 20
2.86621
 30
0.0
 40
0.00364583
 41
0.00364583
  0
SEQEND
 8
0
  0
POLYLINE
  8
0
 62
     1
 66
     1
 10
0
 20
0
 30
0.0
 40
0.2625
 41
0.2625
  0
VERTEX
  8
0
 10
3.37472
 20
2.40989
 30
0.0
 40
0.00364583
 41
0.00364583
  0
VERTEX
  8
0
 10
3.37472
 20
2.75261
 30
0.0
 40
0.00364583
 41
0.00364583
  0
SEQEND
 8
0
  0
POLYLINE
  8
0
 62
     1
 66
     1
 10
0
 20
0
 30
0.0
 40
0.2625
 41
0.2625
  0
VERTEX
  8
0
 10
3.37472
 20
2.40989
 30
0.0
 40
0.00364583
 41
0.00364583
  0
VERTEX
  8
0
 10
3.14035
 20
2.40989
 30
0.0
 40
0.00364583
 41
0.00364583
  0
SEQEND
 8
0
  0
POLYLINE
  8
0
 62
     1
 66
     1
 10
0
 20
0
 30
0.0
 40
0.2625
 41
0.2625
  0
VERTEX
  8
0
 10
3.14035
 20
2.75261
 30
0.0
 40
0.00364583
 41
0.00364583
  0
VERTEX
  8
0
 10
3.14035
 20
2.40989
 30
0.0
 40
0.00364583
 41
0.00364583
  0
SEQEND
 8
0
  0
POLYLINE
  8
0
 62
     1
 66
     1
 10
0
 20
0
 30
0.0
 40
0.2625
 41
0.2625
  0
VERTEX
  8
0
 10
3.14035
 20
2.75261
 30
0.0
 40
0.00364583
 41
0.00364583
  0
VERTEX
  8
0
 10
3.37472
 20
2.75261
 30
0.0
 40
0.00364583
 41
0.00364583
  0
SEQEND
 8
0
  0
POLYLINE
  8
0
 62
     1
 66
     1
 10
0
 20
0
 30
0.0
 40
0.2625
 41
0.2625
  0
VERTEX
  8
0
 10
1.3437
 20
2.06207
 30
0.0
 40
0.00364583
 41
0.00364583
  0
VERTEX
  8
0
 10
1.33686
 20
2.06125
 30
0.0
 40
0.00364583
 41
0.00364583
  0
VERTEX
  8
0
 10
1.317
 20
2.0535
 30
0.0
 40
0.00364583
 41
0.00364583
  0
VERTEX
  8
0
 10
1.29861
 20
2.03717
 30
0.0
 40
0.00364583
 41
0.00364583
  0
VERTEX
  8
0
 10
1.28825
 20
2.0159
 30
0.0
 40
0.00364583
 41
0.00364583
  0
VERTEX
  8
0
 10
1.28586
 20
1.99235
 30
0.0
 40
0.00364583
 41
0.00364583
  0
VERTEX
  8
0
 10
1.29118
 20
1.96929
 30
0.0
 40
0.00364583
 41
0.00364583
  0
VERTEX
  8
0
 10
1.30404
 20
1.94943
 30
0.0
 40
0.00364583
 41
0.00364583
  0
VERTEX
  8
0
 10
1.32433
 20
1.93554
 30
0.0
 40
0.00364583
 41
0.00364583
  0
VERTEX
  8
0
 10
1.345
 20
1.93028
 30
0.0
 40
0.00364583
 41
0.00364583
  0
VERTEX
  8
0
 10
1.35189
 20
1.93028
 30
0.0
 40
0.00364583
 41
0.00364583
  0
VERTEX
  8
0
 10
1.35872
 20
1.93028
 30
0.0
 40
0.00364583
 41
0.00364583
  0
VERTEX
  8
0
 10
1.37939
 20
1.93554
 30
0.0
 40
0.00364583
 41
0.00364583
  0
VERTEX
  8
0
 10
1.39968
 20
1.94943
 30
0.0
 40
0.00364583
 41
0.00364583
  0
VERTEX
  8
0
 10
1.41254
 20
1.96929
 30
0.0
 40
0.00364583
 41
0.00364583
  0
VERTEX
  8
0
 10
1.41792
 20
1.99235
 30
0.0
 40
0.00364583
 41
0.00364583
  0
VERTEX
  8
0
 10
1.41547
 20
2.0159
 30
0.0
 40
0.00364583
 41
0.00364583
  0
VERTEX
  8
0
 10
1.40511
 20
2.03717
 30
0.0
 40
0.00364583
 41
0.00364583
  0
VERTEX
  8
0
 10
1.38672
 20
2.0535
 30
0.0
 40
0.00364583
 41
0.00364583
  0
VERTEX
  8
0
 10
1.36686
 20
2.06125
 30
0.0
 40
0.00364583
 41
0.00364583
  0
VERTEX
  8
0
 10
1.36008
 20
2.06207
 30
0.0
 40
0.00364583
 41
0.00364583
  0
SEQEND
 8
0
  0
POLYLINE
  8
0
 62
     1
 66
     1
 10
0
 20
0
 30
0.0
 40
0.2625
 41
0.2625
  0
VERTEX
  8
0
 10
1.3437
 20
2.05203
 30
0.0
 40
0.00364583
 41
0.00364583
  0
VERTEX
  8
0
 10
1.3437
 20
2.06207
 30
0.0
 40
0.00364583
 41
0.00364583
  0
SEQEND
 8
0
  0
POLYLINE
  8
0
 62
     1
 66
     1
 10
0
 20
0
 30
0.0
 40
0.2625
 41
0.2625
  0
VERTEX
  8
0
 10
1.3437
 20
2.05203
 30
0.0
 40
0.00364583
 41
0.00364583
  0
VERTEX
  8
0
 10
1.36008
 20
2.05203
 30
0.0
 40
0.00364583
 41
0.00364583
  0
SEQEND
 8
0
  0
POLYLINE
  8
0
 62
     1
 66
     1
 10
0
 20
0
 30
0.0
 40
0.2625
 41
0.2625
  0
VERTEX
  8
0
 10
1.36008
 20
2.06207
 30
0.0
 40
0.00364583
 41
0.00364583
  0
VERTEX
  8
0
 10
1.36008
 20
2.05203
 30
0.0
 40
0.00364583
 41
0.00364583
  0
SEQEND
 8
0
  0
POLYLINE
  8
0
 62
     1
 66
     1
 10
0
 20
0
 30
0.0
 70
     1
 40
0.2625
 41
0.2625
  0
VERTEX
  8
0
 10
1.76438
 20
1.99642
 30
0.0
 40
0.00364583
 41
0.00364583
  0
VERTEX
  8
0
 10
1.76438
 20
1.98671
 30
0.0
 40
0.00364583
 41
0.00364583
  0
VERTEX
  8
0
 10
1.75651
 20
1.95751
 30
0.0
 40
0.00364583
 41
0.00364583
  0
VERTEX
  8
0
 10
1.73508
 20
1.92572
 30
0.0
 40
0.00364583
 41
0.00364583
  0
VERTEX
  8
0
 10
1.70329
 20
1.90429
 30
0.0
 40
0.00364583
 41
0.00364583
  0
VERTEX
  8
0
 10
1.6741
 20
1.89643
 30
0.0
 40
0.00364583
 41
0.00364583
  0
VERTEX
  8
0
 10
1.66439
 20
1.89643
 30
0.0
 40
0.00364583
 41
0.00364583
  0
VERTEX
  8
0
 10
1.65463
 20
1.89643
 30
0.0
 40
0.00364583
 41
0.00364583
  0
VERTEX
  8
0
 10
1.62543
 20
1.90429
 30
0.0
 40
0.00364583
 41
0.00364583
  0
VERTEX
  8
0
 10
1.59364
 20
1.92572
 30
0.0
 40
0.00364583
 41
0.00364583
  0
VERTEX
  8
0
 10
1.57221
 20
1.95751
 30
0.0
 40
0.00364583
 41
0.00364583
  0
VERTEX
  8
0
 10
1.5644
 20
1.98671
 30
0.0
 40
0.00364583
 41
0.00364583
  0
VERTEX
  8
0
 10
1.5644
 20
1.99642
 30
0.0
 40
0.00364583
 41
0.00364583
  0
VERTEX
  8
0
 10
1.5644
 20
2.00618
 30
0.0
 40
0.00364583
 41
0.00364583
  0
VERTEX
  8
0
 10
1.57221
 20
2.03537
 30
0.0
 40
0.00364583
 41
0.00364583
  0
VERTEX
  8
0
 10
1.59364
 20
2.06717
 30
0.0
 40
0.00364583
 41
0.00364583
  0
VERTEX
  8
0
 10
1.62543
 20
2.08865
 30
0.0
 40
0.00364583
 41
0.00364583
  0
VERTEX
  8
0
 10
1.65463
 20
2.09646
 30
0.0
 40
0.00364583
 41
0.00364583
  0
VERTEX
  8
0
 10
1.66439
 20
2.09646
 30
0.0
 40
0.00364583
 41
0.00364583
  0
VERTEX
  8
0
 10
1.6741
 20
2.09646
 30
0.0
 40
0.00364583
 41
0.00364583
  0
VERTEX
  8
0
 10
1.70329
 20
2.08865
 30
0.0
 40
0.00364583
 41
0.00364583
  0
VERTEX
  8
0
 10
1.73508
 20
2.06717
 30
0.0
 40
0.00364583
 41
0.00364583
  0
VERTEX
  8
0
 10
1.75651
 20
2.03537
 30
0.0
 40
0.00364583
 41
0.00364583
  0
VERTEX
  8
0
 10
1.76438
 20
2.00618
 30
0.0
 40
0.00364583
 41
0.00364583
  0
VERTEX
  8
0
 10
1.76438
 20
1.99642
 30
0.0
 40
0.00364583
 41
0.00364583
  0
SEQEND
 8
0
  0
POLYLINE
  8
0
 62
     1
 66
     1
 10
0
 20
0
 30
0.0
 70
     1
 40
0.2625
 41
0.2625
  0
VERTEX
  8
0
 10
2.07688
 20
1.99642
 30
0.0
 40
0.00364583
 41
0.00364583
  0
VERTEX
  8
0
 10
2.07688
 20
1.98671
 30
0.0
 40
0.00364583
 41
0.00364583
  0
VERTEX
  8
0
 10
2.06901
 20
1.95751
 30
0.0
 40
0.00364583
 41
0.00364583
  0
VERTEX
  8
0
 10
2.04758
 20
1.92572
 30
0.0
 40
0.00364583
 41
0.00364583
  0
VERTEX
  8
0
 10
2.01579
 20
1.90429
 30
0.0
 40
0.00364583
 41
0.00364583
  0
VERTEX
  8
0
 10
1.9866
 20
1.89643
 30
0.0
 40
0.00364583
 41
0.00364583
  0
VERTEX
  8
0
 10
1.97689
 20
1.89643
 30
0.0
 40
0.00364583
 41
0.00364583
  0
VERTEX
  8
0
 10
1.96712
 20
1.89643
 30
0.0
 40
0.00364583
 41
0.00364583
  0
VERTEX
  8
0
 10
1.93793
 20
1.90429
 30
0.0
 40
0.00364583
 41
0.00364583
  0
VERTEX
  8
0
 10
1.90614
 20
1.92572
 30
0.0
 40
0.00364583
 41
0.00364583
  0
VERTEX
  8
0
 10
1.88471
 20
1.95751
 30
0.0
 40
0.00364583
 41
0.00364583
  0
VERTEX
  8
0
 10
1.8769
 20
1.98671
 30
0.0
 40
0.00364583
 41
0.00364583
  0
VERTEX
  8
0
 10
1.8769
 20
1.99642
 30
0.0
 40
0.00364583
 41
0.00364583
  0
VERTEX
  8
0
 10
1.8769
 20
2.00618
 30
0.0
 40
0.00364583
 41
0.00364583
  0
VERTEX
  8
0
 10
1.88471
 20
2.03537
 30
0.0
 40
0.00364583
 41
0.00364583
  0
VERTEX
  8
0
 10
1.90614
 20
2.06717
 30
0.0
 40
0.00364583
 41
0.00364583
  0
VERTEX
  8
0
 10
1.93793
 20
2.08865
 30
0.0
 40
0.00364583
 41
0.00364583
  0
VERTEX
  8
0
 10
1.96712
 20
2.09646
 30
0.0
 40
0.00364583
 41
0.00364583
  0
VERTEX
  8
0
 10
1.97689
 20
2.09646
 30
0.0
 40
0.00364583
 41
0.00364583
  0
VERTEX
  8
0
 10
1.9866
 20
2.09646
 30
0.0
 40
0.00364583
 41
0.00364583
  0
VERTEX
  8
0
 10
2.01579
 20
2.08865
 30
0.0
 40
0.00364583
 41
0.00364583
  0
VERTEX
  8
0
 10
2.04758
 20
2.06717
 30
0.0
 40
0.00364583
 41
0.00364583
  0
VERTEX
  8
0
 10
2.06901
 20
2.03537
 30
0.0
 40
0.00364583
 41
0.00364583
  0
VERTEX
  8
0
 10
2.07688
 20
2.00618
 30
0.0
 40
0.00364583
 41
0.00364583
  0
VERTEX
  8
0
 10
2.07688
 20
1.99642
 30
0.0
 40
0.00364583
 41
0.00364583
  0
SEQEND
 8
0
  0
POLYLINE
  8
0
 62
     1
 66
     1
 10
0
 20
0
 30
0.0
 40
0.2625
 41
0.2625
  0
VERTEX
  8
0
 10
1.97011
 20
2.36431
 30
0.0
 40
0.00364583
 41
0.00364583
  0
VERTEX
  8
0
 10
1.96322
 20
2.36361
 30
0.0
 40
0.00364583
 41
0.00364583
  0
VERTEX
  8
0
 10
1.94303
 20
2.35622
 30
0.0
 40
0.00364583
 41
0.00364583
  0
VERTEX
  8
0
 10
1.92421
 20
2.34011
 30
0.0
 40
0.00364583
 41
0.00364583
  0
VERTEX
  8
0
 10
1.91351
 20
2.31885
 30
0.0
 40
0.00364583
 41
0.00364583
  0
VERTEX
  8
0
 10
1.91081
 20
2.29514
 30
0.0
 40
0.00364583
 41
0.00364583
  0
VERTEX
  8
0
 10
1.9159
 20
2.27186
 30
0.0
 40
0.00364583
 41
0.00364583
  0
VERTEX
  8
0
 10
1.92876
 20
2.25179
 30
0.0
 40
0.00364583
 41
0.00364583
  0
VERTEX
  8
0
 10
1.94911
 20
2.23774
 30
0.0
 40
0.00364583
 41
0.00364583
  0
VERTEX
  8
0
 10
1.96994
 20
2.23236
 30
0.0
 40
0.00364583
 41
0.00364583
  0
VERTEX
  8
0
 10
1.97689
 20
2.23236
 30
0.0
 40
0.00364583
 41
0.00364583
  0
VERTEX
  8
0
 10
1.98378
 20
2.23236
 30
0.0
 40
0.00364583
 41
0.00364583
  0
VERTEX
  8
0
 10
2.00461
 20
2.23774
 30
0.0
 40
0.00364583
 41
0.00364583
  0
VERTEX
  8
0
 10
2.02496
 20
2.25179
 30
0.0
 40
0.00364583
 41
0.00364583
  0
VERTEX
  8
0
 10
2.03782
 20
2.27186
 30
0.0
 40
0.00364583
 41
0.00364583
  0
VERTEX
  8
0
 10
2.04292
 20
2.29514
 30
0.0
 40
0.00364583
 41
0.00364583
  0
VERTEX
  8
0
 10
2.04021
 20
2.31885
 30
0.0
 40
0.00364583
 41
0.00364583
  0
VERTEX
  8
0
 10
2.02951
 20
2.34011
 30
0.0
 40
0.00364583
 41
0.00364583
  0
VERTEX
  8
0
 10
2.01069
 20
2.35622
 30
0.0
 40
0.00364583
 41
0.00364583
  0
VERTEX
  8
0
 10
1.9905
 20
2.36361
 30
0.0
 40
0.00364583
 41
0.00364583
  0
VERTEX
  8
0
 10
1.98367
 20
2.36431
 30
0.0
 40
0.00364583
 41
0.00364583
  0
SEQEND
 8
0
  0
POLYLINE
  8
0
 62
     1
 66
     1
 10
0
 20
0
 30
0.0
 40
0.2625
 41
0.2625
  0
VERTEX
  8
0
 10
1.97011
 20
2.34799
 30
0.0
 40
0.00364583
 41
0.00364583
  0
VERTEX
  8
0
 10
1.97011
 20
2.36431
 30
0.0
 40
0.00364583
 41
0.00364583
  0
SEQEND
 8
0
  0
POLYLINE
  8
0
 62
     1
 66
     1
 10
0
 20
0
 30
0.0
 40
0.2625
 41
0.2625
  0
VERTEX
  8
0
 10
1.97011
 20
2.34799
 30
0.0
 40
0.00364583
 41
0.00364583
  0
VERTEX
  8
0
 10
1.98367
 20
2.34799
 30
0.0
 40
0.00364583
 41
0.00364583
  0
SEQEND
 8
0
  0
POLYLINE
  8
0
 62
     1
 66
     1
 10
0
 20
0
 30
0.0
 40
0.2625
 41
0.2625
  0
VERTEX
  8
0
 10
1.98367
 20
2.36431
 30
0.0
 40
0.00364583
 41
0.00364583
  0
VERTEX
  8
0
 10
1.98367
 20
2.34799
 30
0.0
 40
0.00364583
 41
0.00364583
  0
SEQEND
 8
0
  0
POLYLINE
  8
0
 62
     1
 66
     1
 10
0
 20
0
 30
0.0
 70
     1
 40
0.2625
 41
0.2625
  0
VERTEX
  8
0
 10
1.76438
 20
2.2985
 30
0.0
 40
0.00364583
 41
0.00364583
  0
VERTEX
  8
0
 10
1.76438
 20
2.28879
 30
0.0
 40
0.00364583
 41
0.00364583
  0
VERTEX
  8
0
 10
1.75651
 20
2.2596
 30
0.0
 40
0.00364583
 41
0.00364583
  0
VERTEX
  8
0
 10
1.73508
 20
2.22781
 30
0.0
 40
0.00364583
 41
0.00364583
  0
VERTEX
  8
0
 10
1.70329
 20
2.20637
 30
0.0
 40
0.00364583
 41
0.00364583
  0
VERTEX
  8
0
 10
1.6741
 20
2.19851
 30
0.0
 40
0.00364583
 41
0.00364583
  0
VERTEX
  8
0
 10
1.66439
 20
2.19851
 30
0.0
 40
0.00364583
 41
0.00364583
  0
VERTEX
  8
0
 10
1.65463
 20
2.19851
 30
0.0
 40
0.00364583
 41
0.00364583
  0
VERTEX
  8
0
 10
1.62543
 20
2.20637
 30
0.0
 40
0.00364583
 41
0.00364583
  0
VERTEX
  8
0
 10
1.59364
 20
2.22781
 30
0.0
 40
0.00364583
 41
0.00364583
  0
VERTEX
  8
0
 10
1.57221
 20
2.2596
 30
0.0
 40
0.00364583
 41
0.00364583
  0
VERTEX
  8
0
 10
1.5644
 20
2.28879
 30
0.0
 40
0.00364583
 41
0.00364583
  0
VERTEX
  8
0
 10
1.5644
 20
2.2985
 30
0.0
 40
0.00364583
 41
0.00364583
  0
VERTEX
  8
0
 10
1.5644
 20
2.30826
 30
0.0
 40
0.00364583
 41
0.00364583
  0
VERTEX
  8
0
 10
1.57221
 20
2.33746
 30
0.0
 40
0.00364583
 41
0.00364583
  0
VERTEX
  8
0
 10
1.59364
 20
2.36925
 30
0.0
 40
0.00364583
 41
0.00364583
  0
VERTEX
  8
0
 10
1.62543
 20
2.39074
 30
0.0
 40
0.00364583
 41
0.00364583
  0
VERTEX
  8
0
 10
1.65463
 20
2.39854
 30
0.0
 40
0.00364583
 41
0.00364583
  0
VERTEX
  8
0
 10
1.66439
 20
2.39854
 30
0.0
 40
0.00364583
 41
0.00364583
  0
VERTEX
  8
0
 10
1.6741
 20
2.39854
 30
0.0
 40
0.00364583
 41
0.00364583
  0
VERTEX
  8
0
 10
1.70329
 20
2.39074
 30
0.0
 40
0.00364583
 41
0.00364583
  0
VERTEX
  8
0
 10
1.73508
 20
2.36925
 30
0.0
 40
0.00364583
 41
0.00364583
  0
VERTEX
  8
0
 10
1.75651
 20
2.33746
 30
0.0
 40
0.00364583
 41
0.00364583
  0
VERTEX
  8
0
 10
1.76438
 20
2.30826
 30
0.0
 40
0.00364583
 41
0.00364583
  0
VERTEX
  8
0
 10
1.76438
 20
2.2985
 30
0.0
 40
0.00364583
 41
0.00364583
  0
SEQEND
 8
0
  0
POLYLINE
  8
0
 62
     1
 66
     1
 10
0
 20
0
 30
0.0
 40
0.2625
 41
0.2625
  0
VERTEX
  8
0
 10
4.55539
 20
2.74599
 30
0.0
 40
0.00364583
 41
0.00364583
  0
VERTEX
  8
0
 10
4.54758
 20
2.74517
 30
0.0
 40
0.00364583
 41
0.00364583
  0
VERTEX
  8
0
 10
4.52485
 20
2.7366
 30
0.0
 40
0.00364583
 41
0.00364583
  0
VERTEX
  8
0
 10
4.50082
 20
2.71718
 30
0.0
 40
0.00364583
 41
0.00364583
  0
VERTEX
  8
0
 10
4.48546
 20
2.69032
 30
0.0
 40
0.00364583
 41
0.00364583
  0
VERTEX
  8
0
 10
4.48063
 20
2.6665
 30
0.0
 40
0.00364583
 41
0.00364583
  0
VERTEX
  8
0
 10
4.48107
 20
2.65869
 30
0.0
 40
0.00364583
 41
0.00364583
  0
VERTEX
  8
0
 10
4.48144
 20
2.65088
 30
0.0
 40
0.00364583
 41
0.00364583
  0
VERTEX
  8
0
 10
4.48876
 20
2.62771
 30
0.0
 40
0.00364583
 41
0.00364583
  0
VERTEX
  8
0
 10
4.50689
 20
2.60265
 30
0.0
 40
0.00364583
 41
0.00364583
  0
VERTEX
  8
0
 10
4.53288
 20
2.58589
 30
0.0
 40
0.00364583
 41
0.00364583
  0
VERTEX
  8
0
 10
4.55643
 20
2.57975
 30
0.0
 40
0.00364583
 41
0.00364583
  0
VERTEX
  8
0
 10
4.56429
 20
2.57975
 30
0.0
 40
0.00364583
 41
0.00364583
  0
VERTEX
  8
0
 10
4.5721
 20
2.57975
 30
0.0
 40
0.00364583
 41
0.00364583
  0
VERTEX
  8
0
 10
4.5956
 20
2.58589
 30
0.0
 40
0.00364583
 41
0.00364583
  0
VERTEX
  8
0
 10
4.62158
 20
2.60265
 30
0.0
 40
0.00364583
 41
0.00364583
  0
VERTEX
  8
0
 10
4.63971
 20
2.62771
 30
0.0
 40
0.00364583
 41
0.00364583
  0
VERTEX
  8
0
 10
4.64703
 20
2.65088
 30
0.0
 40
0.00364583
 41
0.00364583
  0
VERTEX
  8
0
 10
4.64746
 20
2.65869
 30
0.0
 40
0.00364583
 41
0.00364583
  0
VERTEX
  8
0
 10
4.64785
 20
2.6665
 30
0.0
 40
0.00364583
 41
0.00364583
  0
VERTEX
  8
0
 10
4.64301
 20
2.69032
 30
0.0
 40
0.00364583
 41
0.00364583
  0
VERTEX
  8
0
 10
4.62771
 20
2.71718
 30
0.0
 40
0.00364583
 41
0.00364583
  0
VERTEX
  8
0
 10
4.60363
 20
2.7366
 30
0.0
 40
0.00364583
 41
0.00364583
  0
VERTEX
  8
0
 10
4.58089
 20
2.74517
 30
0.0
 40
0.00364583
 41
0.00364583
  0
VERTEX
  8
0
 10
4.57314
 20
2.74599
 30
0.0
 40
0.00364583
 41
0.00364583
  0
SEQEND
 8
0
  0
POLYLINE
  8
0
 62
     1
 66
     1
 10
0
 20
0
 30
0.0
 40
0.2625
 41
0.2625
  0
VERTEX
  8
0
 10
4.55544
 20
2.736
 30
0.0
 40
0.00364583
 41
0.00364583
  0
VERTEX
  8
0
 10
4.55544
 20
2.74599
 30
0.0
 40
0.00364583
 41
0.00364583
  0
SEQEND
 8
0
  0
POLYLINE
  8
0
 62
     1
 66
     1
 10
0
 20
0
 30
0.0
 40
0.2625
 41
0.2625
  0
VERTEX
  8
0
 10
4.55544
 20
2.736
 30
0.0
 40
0.00364583
 41
0.00364583
  0
VERTEX
  8
0
 10
4.57314
 20
2.736
 30
0.0
 40
0.00364583
 41
0.00364583
  0
SEQEND
 8
0
  0
POLYLINE
  8
0
 62
     1
 66
     1
 10
0
 20
0
 30
0.0
 40
0.2625
 41
0.2625
  0
VERTEX
  8
0
 10
4.57314
 20
2.74599
 30
0.0
 40
0.00364583
 41
0.00364583
  0
VERTEX
  8
0
 10
4.57314
 20
2.736
 30
0.0
 40
0.00364583
 41
0.00364583
  0
SEQEND
 8
0
  0
POLYLINE
  8
0
 62
     1
 66
     1
 10
0
 20
0
 30
0.0
 40
0.2625
 41
0.2625
  0
VERTEX
  8
0
 10
4.50125
 20
2.15961
 30
0.0
 40
0.00364583
 41
0.00364583
  0
VERTEX
  8
0
 10
4.49436
 20
2.1589
 30
0.0
 40
0.00364583
 41
0.00364583
  0
VERTEX
  8
0
 10
4.47418
 20
2.15153
 30
0.0
 40
0.00364583
 41
0.00364583
  0
VERTEX
  8
0
 10
4.45535
 20
2.13542
 30
0.0
 40
0.00364583
 41
0.00364583
  0
VERTEX
  8
0
 10
4.44467
 20
2.11415
 30
0.0
 40
0.00364583
 41
0.00364583
  0
VERTEX
  8
0
 10
4.44194
 20
2.09044
 30
0.0
 40
0.00364583
 41
0.00364583
  0
VERTEX
  8
0
 10
4.44706
 20
2.06717
 30
0.0
 40
0.00364583
 41
0.00364583
  0
VERTEX
  8
0
 10
4.4599
 20
2.0471
 30
0.0
 40
0.00364583
 41
0.00364583
  0
VERTEX
  8
0
 10
4.48025
 20
2.03304
 30
0.0
 40
0.00364583
 41
0.00364583
  0
VERTEX
  8
0
 10
4.50108
 20
2.02767
 30
0.0
 40
0.00364583
 41
0.00364583
  0
VERTEX
  8
0
 10
4.50803
 20
2.02767
 30
0.0
 40
0.00364583
 41
0.00364583
  0
VERTEX
  8
0
 10
4.51492
 20
2.02767
 30
0.0
 40
0.00364583
 41
0.00364583
  0
VERTEX
  8
0
 10
4.53575
 20
2.03304
 30
0.0
 40
0.00364583
 41
0.00364583
  0
VERTEX
  8
0
 10
4.5561
 20
2.0471
 30
0.0
 40
0.00364583
 41
0.00364583
  0
VERTEX
  8
0
 10
4.56896
 20
2.06717
 30
0.0
 40
0.00364583
 41
0.00364583
  0
VERTEX
  8
0
 10
4.57406
 20
2.09044
 30
0.0
 40
0.00364583
 41
0.00364583
  0
VERTEX
  8
0
 10
4.57135
 20
2.11415
 30
0.0
 40
0.00364583
 41
0.00364583
  0
VERTEX
  8
0
 10
4.56065
 20
2.13542
 30
0.0
 40
0.00364583
 41
0.00364583
  0
VERTEX
  8
0
 10
4.54183
 20
2.15153
 30
0.0
 40
0.00364583
 41
0.00364583
  0
VERTEX
  8
0
 10
4.52165
 20
2.1589
 30
0.0
 40
0.00364583
 41
0.00364583
  0
VERTEX
  8
0
 10
4.51481
 20
2.15961
 30
0.0
 40
0.00364583
 41
0.00364583
  0
SEQEND
 8
0
  0
POLYLINE
  8
0
 62
     1
 66
     1
 10
0
 20
0
 30
0.0
 40
0.2625
 41
0.2625
  0
VERTEX
  8
0
 10
4.50125
 20
2.14333
 30
0.0
 40
0.00364583
 41
0.00364583
  0
VERTEX
  8
0
 10
4.50125
 20
2.15961
 30
0.0
 40
0.00364583
 41
0.00364583
  0
SEQEND
 8
0
  0
POLYLINE
  8
0
 62
     1
 66
     1
 10
0
 20
0
 30
0.0
 40
0.2625
 41
0.2625
  0
VERTEX
  8
0
 10
4.50125
 20
2.14333
 30
0.0
 40
0.00364583
 41
0.00364583
  0
VERTEX
  8
0
 10
4.51481
 20
2.14333
 30
0.0
 40
0.00364583
 41
0.00364583
  0
SEQEND
 8
0
  0
POLYLINE
  8
0
 62
     1
 66
     1
 10
0
 20
0
 30
0.0
 40
0.2625
 41
0.2625
  0
VERTEX
  8
0
 10
4.51481
 20
2.15961
 30
0.0
 40
0.00364583
 41
0.00364583
  0
VERTEX
  8
0
 10
4.51481
 20
2.14333
 30
0.0
 40
0.00364583
 41
0.00364583
  0
SEQEND
 8
0
  0
POLYLINE
  8
0
 62
     1
 66
     1
 10
0
 20
0
 30
0.0
 40
0.2625
 41
0.2625
  0
VERTEX
  8
0
 10
4.73768
 20
2.15961
 30
0.0
 40
0.00364583
 41
0.00364583
  0
VERTEX
  8
0
 10
4.73079
 20
2.1589
 30
0.0
 40
0.00364583
 41
0.00364583
  0
VERTEX
  8
0
 10
4.71061
 20
2.15153
 30
0.0
 40
0.00364583
 41
0.00364583
  0
VERTEX
  8
0
 10
4.69179
 20
2.13542
 30
0.0
 40
0.00364583
 41
0.00364583
  0
VERTEX
  8
0
 10
4.6811
 20
2.11415
 30
0.0
 40
0.00364583
 41
0.00364583
  0
VERTEX
  8
0
 10
4.67839
 20
2.09044
 30
0.0
 40
0.00364583
 41
0.00364583
  0
VERTEX
  8
0
 10
4.68349
 20
2.06717
 30
0.0
 40
0.00364583
 41
0.00364583
  0
VERTEX
  8
0
 10
4.69635
 20
2.0471
 30
0.0
 40
0.00364583
 41
0.00364583
  0
VERTEX
  8
0
 10
4.71669
 20
2.03304
 30
0.0
 40
0.00364583
 41
0.00364583
  0
VERTEX
  8
0
 10
4.73753
 20
2.02767
 30
0.0
 40
0.00364583
 41
0.00364583
  0
VERTEX
  8
0
 10
4.74447
 20
2.02767
 30
0.0
 40
0.00364583
 41
0.00364583
  0
VERTEX
  8
0
 10
4.75136
 20
2.02767
 30
0.0
 40
0.00364583
 41
0.00364583
  0
VERTEX
  8
0
 10
4.77219
 20
2.03304
 30
0.0
 40
0.00364583
 41
0.00364583
  0
VERTEX
  8
0
 10
4.79258
 20
2.0471
 30
0.0
 40
0.00364583
 41
0.00364583
  0
VERTEX
  8
0
 10
4.80539
 20
2.06717
 30
0.0
 40
0.00364583
 41
0.00364583
  0
VERTEX
  8
0
 10
4.81049
 20
2.09044
 30
0.0
 40
0.00364583
 41
0.00364583
  0
VERTEX
  8
0
 10
4.80778
 20
2.11415
 30
0.0
 40
0.00364583
 41
0.00364583
  0
VERTEX
  8
0
 10
4.7971
 20
2.13542
 30
0.0
 40
0.00364583
 41
0.00364583
  0
VERTEX
  8
0
 10
4.77826
 20
2.15153
 30
0.0
 40
0.00364583
 41
0.00364583
  0
VERTEX
  8
0
 10
4.75808
 20
2.1589
 30
0.0
 40
0.00364583
 41
0.00364583
  0
VERTEX
  8
0
 10
4.75125
 20
2.15961
 30
0.0
 40
0.00364583
 41
0.00364583
  0
SEQEND
 8
0
  0
POLYLINE
  8
0
 62
     1
 66
     1
 10
0
 20
0
 30
0.0
 40
0.2625
 41
0.2625
  0
VERTEX
  8
0
 10
4.73768
 20
2.14333
 30
0.0
 40
0.00364583
 41
0.00364583
  0
VERTEX
  8
0
 10
4.73768
 20
2.15961
 30
0.0
 40
0.00364583
 41
0.00364583
  0
SEQEND
 8
0
  0
POLYLINE
  8
0
 62
     1
 66
     1
 10
0
 20
0
 30
0.0
 40
0.2625
 41
0.2625
  0
VERTEX
  8
0
 10
4.73768
 20
2.14333
 30
0.0
 40
0.00364583
 41
0.00364583
  0
VERTEX
  8
0
 10
4.75125
 20
2.14333
 30
0.0
 40
0.00364583
 41
0.00364583
  0
SEQEND
 8
0
  0
POLYLINE
  8
0
 62
     1
 66
     1
 10
0
 20
0
 30
0.0
 40
0.2625
 41
0.2625
  0
VERTEX
  8
0
 10
4.75125
 20
2.15961
 30
0.0
 40
0.00364583
 41
0.00364583
  0
VERTEX
  8
0
 10
4.75125
 20
2.14333
 30
0.0
 40
0.00364583
 41
0.00364583
  0
SEQEND
 8
0
  0
POLYLINE
  8
0
 62
     1
 66
     1
 10
0
 20
0
 30
0.0
 40
0.2625
 41
0.2625
  0
VERTEX
  8
0
 10
4.97418
 20
2.15961
 30
0.0
 40
0.00364583
 41
0.00364583
  0
VERTEX
  8
0
 10
4.96729
 20
2.1589
 30
0.0
 40
0.00364583
 41
0.00364583
  0
VERTEX
  8
0
 10
4.9471
 20
2.15153
 30
0.0
 40
0.00364583
 41
0.00364583
  0
VERTEX
  8
0
 10
4.92828
 20
2.13542
 30
0.0
 40
0.00364583
 41
0.00364583
  0
VERTEX
  8
0
 10
4.91758
 20
2.11415
 30
0.0
 40
0.00364583
 41
0.00364583
  0
VERTEX
  8
0
 10
4.91488
 20
2.09044
 30
0.0
 40
0.00364583
 41
0.00364583
  0
VERTEX
  8
0
 10
4.91997
 20
2.06717
 30
0.0
 40
0.00364583
 41
0.00364583
  0
VERTEX
  8
0
 10
4.93278
 20
2.0471
 30
0.0
 40
0.00364583
 41
0.00364583
  0
VERTEX
  8
0
 10
4.95318
 20
2.03304
 30
0.0
 40
0.00364583
 41
0.00364583
  0
VERTEX
  8
0
 10
4.97401
 20
2.02767
 30
0.0
 40
0.00364583
 41
0.00364583
  0
VERTEX
  8
0
 10
4.98096
 20
2.02767
 30
0.0
 40
0.00364583
 41
0.00364583
  0
VERTEX
  8
0
 10
4.98785
 20
2.02767
 30
0.0
 40
0.00364583
 41
0.00364583
  0
VERTEX
  8
0
 10
5.00868
 20
2.03304
 30
0.0
 40
0.00364583
 41
0.00364583
  0
VERTEX
  8
0
 10
5.02903
 20
2.0471
 30
0.0
 40
0.00364583
 41
0.00364583
  0
VERTEX
  8
0
 10
5.04189
 20
2.06717
 30
0.0
 40
0.00364583
 41
0.00364583
  0
VERTEX
  8
0
 10
5.04699
 20
2.09044
 30
0.0
 40
0.00364583
 41
0.00364583
  0
VERTEX
  8
0
 10
5.04428
 20
2.11415
 30
0.0
 40
0.00364583
 41
0.00364583
  0
VERTEX
  8
0
 10
5.03358
 20
2.13542
 30
0.0
 40
0.00364583
 41
0.00364583
  0
VERTEX
  8
0
 10
5.01476
 20
2.15153
 30
0.0
 40
0.00364583
 41
0.00364583
  0
VERTEX
  8
0
 10
4.99457
 20
2.1589
 30
0.0
 40
0.00364583
 41
0.00364583
  0
VERTEX
  8
0
 10
4.98768
 20
2.15961
 30
0.0
 40
0.00364583
 41
0.00364583
  0
SEQEND
 8
0
  0
POLYLINE
  8
0
 62
     1
 66
     1
 10
0
 20
0
 30
0.0
 40
0.2625
 41
0.2625
  0
VERTEX
  8
0
 10
4.97418
 20
2.14333
 30
0.0
 40
0.00364583
 41
0.00364583
  0
VERTEX
  8
0
 10
4.97418
 20
2.15961
 30
0.0
 40
0.00364583
 41
0.00364583
  0
SEQEND
 8
0
  0
POLYLINE
  8
0
 62
     1
 66
     1
 10
0
 20
0
 30
0.0
 40
0.2625
 41
0.2625
  0
VERTEX
  8
0
 10
4.97418
 20
2.14333
 30
0.0
 40
0.00364583
 41
0.00364583
  0
VERTEX
  8
0
 10
4.98768
 20
2.14333
 30
0.0
 40
0.00364583
 41
0.00364583
  0
SEQEND
 8
0
  0
POLYLINE
  8
0
 62
     1
 66
     1
 10
0
 20
0
 30
0.0
 40
0.2625
 41
0.2625
  0
VERTEX
  8
0
 10
4.98768
 20
2.15961
 30
0.0
 40
0.00364583
 41
0.00364583
  0
VERTEX
  8
0
 10
4.98768
 20
2.14333
 30
0.0
 40
0.00364583
 41
0.00364583
  0
SEQEND
 8
0
  0
POLYLINE
  8
0
 62
     1
 66
     1
 10
0
 20
0
 30
0.0
 70
     1
 40
0.2625
 41
0.2625
  0
VERTEX
  8
0
 10
1.45188
 20
2.29432
 30
0.0
 40
0.00364583
 41
0.00364583
  0
VERTEX
  8
0
 10
1.45188
 20
2.28461
 30
0.0
 40
0.00364583
 41
0.00364583
  0
VERTEX
  8
0
 10
1.44401
 20
2.25543
 30
0.0
 40
0.00364583
 41
0.00364583
  0
VERTEX
  8
0
 10
1.42258
 20
2.22364
 30
0.0
 40
0.00364583
 41
0.00364583
  0
VERTEX
  8
0
 10
1.39079
 20
2.20221
 30
0.0
 40
0.00364583
 41
0.00364583
  0
VERTEX
  8
0
 10
1.3616
 20
2.19433
 30
0.0
 40
0.00364583
 41
0.00364583
  0
VERTEX
  8
0
 10
1.35189
 20
2.19433
 30
0.0
 40
0.00364583
 41
0.00364583
  0
VERTEX
  8
0
 10
1.34212
 20
2.19433
 30
0.0
 40
0.00364583
 41
0.00364583
  0
VERTEX
  8
0
 10
1.31293
 20
2.20221
 30
0.0
 40
0.00364583
 41
0.00364583
  0
VERTEX
  8
0
 10
1.28114
 20
2.22364
 30
0.0
 40
0.00364583
 41
0.00364583
  0
VERTEX
  8
0
 10
1.25971
 20
2.25543
 30
0.0
 40
0.00364583
 41
0.00364583
  0
VERTEX
  8
0
 10
1.2519
 20
2.28461
 30
0.0
 40
0.00364583
 41
0.00364583
  0
VERTEX
  8
0
 10
1.2519
 20
2.29432
 30
0.0
 40
0.00364583
 41
0.00364583
  0
VERTEX
  8
0
 10
1.2519
 20
2.3041
 30
0.0
 40
0.00364583
 41
0.00364583
  0
VERTEX
  8
0
 10
1.25971
 20
2.33328
 30
0.0
 40
0.00364583
 41
0.00364583
  0
VERTEX
  8
0
 10
1.28114
 20
2.36507
 30
0.0
 40
0.00364583
 41
0.00364583
  0
VERTEX
  8
0
 10
1.31293
 20
2.38656
 30
0.0
 40
0.00364583
 41
0.00364583
  0
VERTEX
  8
0
 10
1.34212
 20
2.39438
 30
0.0
 40
0.00364583
 41
0.00364583
  0
VERTEX
  8
0
 10
1.35189
 20
2.39438
 30
0.0
 40
0.00364583
 41
0.00364583
  0
VERTEX
  8
0
 10
1.3616
 20
2.39438
 30
0.0
 40
0.00364583
 41
0.00364583
  0
VERTEX
  8
0
 10
1.39079
 20
2.38656
 30
0.0
 40
0.00364583
 41
0.00364583
  0
VERTEX
  8
0
 10
1.42258
 20
2.36507
 30
0.0
 40
0.00364583
 41
0.00364583
  0
VERTEX
  8
0
 10
1.44401
 20
2.33328
 30
0.0
 40
0.00364583
 41
0.00364583
  0
VERTEX
  8
0
 10
1.45188
 20
2.3041
 30
0.0
 40
0.00364583
 41
0.00364583
  0
VERTEX
  8
0
 10
1.45188
 20
2.29432
 30
0.0
 40
0.00364583
 41
0.00364583
  0
SEQEND
 8
0
  0
POLYLINE
  8
0
 62
     1
 66
     1
 10
0
 20
0
 30
0.0
 40
0.2625
 41
0.2625
  0
VERTEX
  8
0
 10
2.13232
 20
2.57975
 30
0.0
 40
0.00364583
 41
0.00364583
  0
VERTEX
  8
0
 10
2.13232
 20
2.77767
 30
0.0
 40
0.00364583
 41
0.00364583
  0
SEQEND
 8
0
  0
POLYLINE
  8
0
 62
     1
 66
     1
 10
0
 20
0
 30
0.0
 40
0.2625
 41
0.2625
  0
VERTEX
  8
0
 10
2.13232
 20
2.57975
 30
0.0
 40
0.00364583
 41
0.00364583
  0
VERTEX
  8
0
 10
1.74169
 20
2.57975
 30
0.0
 40
0.00364583
 41
0.00364583
  0
SEQEND
 8
0
  0
POLYLINE
  8
0
 62
     1
 66
     1
 10
0
 20
0
 30
0.0
 40
0.2625
 41
0.2625
  0
VERTEX
  8
0
 10
1.74169
 20
2.77767
 30
0.0
 40
0.00364583
 41
0.00364583
  0
VERTEX
  8
0
 10
1.74169
 20
2.57975
 30
0.0
 40
0.00364583
 41
0.00364583
  0
SEQEND
 8
0
  0
POLYLINE
  8
0
 62
     1
 66
     1
 10
0
 20
0
 30
0.0
 40
0.2625
 41
0.2625
  0
VERTEX
  8
0
 10
1.74169
 20
2.77767
 30
0.0
 40
0.00364583
 41
0.00364583
  0
VERTEX
  8
0
 10
2.13232
 20
2.77767
 30
0.0
 40
0.00364583
 41
0.00364583
  0
SEQEND
 8
0
  0
POLYLINE
  8
0
 62
     1
 66
     1
 10
0
 20
0
 30
0.0
 70
     1
 40
0.2625
 41
0.2625
  0
VERTEX
  8
0
 10
2.49013
 20
2.86621
 30
0.0
 40
0.00364583
 41
0.00364583
  0
VERTEX
  8
0
 10
2.49013
 20
2.8635
 30
0.0
 40
0.00364583
 41
0.00364583
  0
VERTEX
  8
0
 10
2.48551
 20
2.85519
 30
0.0
 40
0.00364583
 41
0.00364583
  0
VERTEX
  8
0
 10
2.47721
 20
2.85058
 30
0.0
 40
0.00364583
 41
0.00364583
  0
VERTEX
  8
0
 10
2.4745
 20
2.85058
 30
0.0
 40
0.00364583
 41
0.00364583
  0
VERTEX
  8
0
 10
2.47174
 20
2.85058
 30
0.0
 40
0.00364583
 41
0.00364583
  0
VERTEX
  8
0
 10
2.46343
 20
2.85519
 30
0.0
 40
0.00364583
 41
0.00364583
  0
VERTEX
  8
0
 10
2.45888
 20
2.8635
 30
0.0
 40
0.00364583
 41
0.00364583
  0
VERTEX
  8
0
 10
2.45888
 20
2.86621
 30
0.0
 40
0.00364583
 41
0.00364583
  0
VERTEX
  8
0
 10
2.45888
 20
2.86897
 30
0.0
 40
0.00364583
 41
0.00364583
  0
VERTEX
  8
0
 10
2.46343
 20
2.87728
 30
0.0
 40
0.00364583
 41
0.00364583
  0
VERTEX
  8
0
 10
2.47174
 20
2.88183
 30
0.0
 40
0.00364583
 41
0.00364583
  0
VERTEX
  8
0
 10
2.4745
 20
2.88183
 30
0.0
 40
0.00364583
 41
0.00364583
  0
VERTEX
  8
0
 10
2.47721
 20
2.88183
 30
0.0
 40
0.00364583
 41
0.00364583
  0
VERTEX
  8
0
 10
2.48551
 20
2.87728
 30
0.0
 40
0.00364583
 41
0.00364583
  0
VERTEX
  8
0
 10
2.49013
 20
2.86897
 30
0.0
 40
0.00364583
 41
0.00364583
  0
VERTEX
  8
0
 10
2.49013
 20
2.86621
 30
0.0
 40
0.00364583
 41
0.00364583
  0
SEQEND
 8
0
  0
POLYLINE
  8
0
 62
     1
 66
     1
 10
0
 20
0
 30
0.0
 70
     1
 40
0.2625
 41
0.2625
  0
VERTEX
  8
0
 10
1.79221
 20
2.49121
 30
0.0
 40
0.00364583
 41
0.00364583
  0
VERTEX
  8
0
 10
1.79221
 20
2.4885
 30
0.0
 40
0.00364583
 41
0.00364583
  0
VERTEX
  8
0
 10
1.7876
 20
2.48019
 30
0.0
 40
0.00364583
 41
0.00364583
  0
VERTEX
  8
0
 10
1.77929
 20
2.47558
 30
0.0
 40
0.00364583
 41
0.00364583
  0
VERTEX
  8
0
 10
1.77658
 20
2.47558
 30
0.0
 40
0.00364583
 41
0.00364583
  0
VERTEX
  8
0
 10
1.77382
 20
2.47558
 30
0.0
 40
0.00364583
 41
0.00364583
  0
VERTEX
  8
0
 10
1.76551
 20
2.48019
 30
0.0
 40
0.00364583
 41
0.00364583
  0
VERTEX
  8
0
 10
1.76096
 20
2.4885
 30
0.0
 40
0.00364583
 41
0.00364583
  0
VERTEX
  8
0
 10
1.76096
 20
2.49121
 30
0.0
 40
0.00364583
 41
0.00364583
  0
VERTEX
  8
0
 10
1.76096
 20
2.49397
 30
0.0
 40
0.00364583
 41
0.00364583
  0
VERTEX
  8
0
 10
1.76551
 20
2.50228
 30
0.0
 40
0.00364583
 41
0.00364583
  0
VERTEX
  8
0
 10
1.77382
 20
2.50683
 30
0.0
 40
0.00364583
 41
0.00364583
  0
VERTEX
  8
0
 10
1.77658
 20
2.50683
 30
0.0
 40
0.00364583
 41
0.00364583
  0
VERTEX
  8
0
 10
1.77929
 20
2.50683
 30
0.0
 40
0.00364583
 41
0.00364583
  0
VERTEX
  8
0
 10
1.7876
 20
2.50228
 30
0.0
 40
0.00364583
 41
0.00364583
  0
VERTEX
  8
0
 10
1.79221
 20
2.49397
 30
0.0
 40
0.00364583
 41
0.00364583
  0
VERTEX
  8
0
 10
1.79221
 20
2.49121
 30
0.0
 40
0.00364583
 41
0.00364583
  0
SEQEND
 8
0
  0
POLYLINE
  8
0
 62
     1
 66
     1
 10
0
 20
0
 30
0.0
 70
     1
 40
0.2625
 41
0.2625
  0
VERTEX
  8
0
 10
2.49013
 20
2.49121
 30
0.0
 40
0.00364583
 41
0.00364583
  0
VERTEX
  8
0
 10
2.49013
 20
2.4885
 30
0.0
 40
0.00364583
 41
0.00364583
  0
VERTEX
  8
0
 10
2.48551
 20
2.48019
 30
0.0
 40
0.00364583
 41
0.00364583
  0
VERTEX
  8
0
 10
2.47721
 20
2.47558
 30
0.0
 40
0.00364583
 41
0.00364583
  0
VERTEX
  8
0
 10
2.4745
 20
2.47558
 30
0.0
 40
0.00364583
 41
0.00364583
  0
VERTEX
  8
0
 10
2.47174
 20
2.47558
 30
0.0
 40
0.00364583
 41
0.00364583
  0
VERTEX
  8
0
 10
2.46343
 20
2.48019
 30
0.0
 40
0.00364583
 41
0.00364583
  0
VERTEX
  8
0
 10
2.45888
 20
2.4885
 30
0.0
 40
0.00364583
 41
0.00364583
  0
VERTEX
  8
0
 10
2.45888
 20
2.49121
 30
0.0
 40
0.00364583
 41
0.00364583
  0
VERTEX
  8
0
 10
2.45888
 20
2.49397
 30
0.0
 40
0.00364583
 41
0.00364583
  0
VERTEX
  8
0
 10
2.46343
 20
2.50228
 30
0.0
 40
0.00364583
 41
0.00364583
  0
VERTEX
  8
0
 10
2.47174
 20
2.50683
 30
0.0
 40
0.00364583
 41
0.00364583
  0
VERTEX
  8
0
 10
2.4745
 20
2.50683
 30
0.0
 40
0.00364583
 41
0.00364583
  0
VERTEX
  8
0
 10
2.47721
 20
2.50683
 30
0.0
 40
0.00364583
 41
0.00364583
  0
VERTEX
  8
0
 10
2.48551
 20
2.50228
 30
0.0
 40
0.00364583
 41
0.00364583
  0
VERTEX
  8
0
 10
2.49013
 20
2.49397
 30
0.0
 40
0.00364583
 41
0.00364583
  0
VERTEX
  8
0
 10
2.49013
 20
2.49121
 30
0.0
 40
0.00364583
 41
0.00364583
  0
SEQEND
 8
0
  0
ENDSEC
  0
EOF
