  0
SECTION
  2
HEADER
  9
$ACADVER
  1
AC1014
  9
$HANDSEED
  5
FFFF
  9
$MEASUREMENT
 70
     1
  0
ENDSEC
  0
SECTION
  2
TABLES
  0
TABLE
  2
VPORT
  5
8
330
0
100
AcDbSymbolTable
 70
     4
  0
VPORT
  5
2E
330
8
100
AcDbSymbolTableRecord
100
AcDbViewportTableRecord
  2
*ACTIVE
 70
     0
 10
0.0
 20
0.0
 11
1.0
 21
1.0
 12
210.0
 22
148.5
 13
0.0
 23
0.0
 14
10.0
 24
10.0
 15
10.0
 25
10.0
 16
0.0
 26
0.0
 36
1.0
 17
0.0
 27
0.0
 37
0.0
 40
341.0
 41
1.24
 42
50.0
 43
0.0
 44
0.0
 50
0.0
 51
0.0
 71
     0
 72
   100
 73
     1
 74
     3
 75
     0
 76
     0
 77
     0
 78
     0
  0
ENDTAB
  0
TABLE
  2
LTYPE
  5
5
330
0
100
AcDbSymbolTable
 70
     1
  0
LTYPE
  5
14
330
5
100
AcDbSymbolTableRecord
100
AcDbLinetypeTableRecord
  2
BYBLOCK
 70
     0
  3

 72
    65
 73
     0
 40
0.0
  0
LTYPE
  5
15
330
5
100
AcDbSymbolTableRecord
100
AcDbLinetypeTableRecord
  2
BYLAYER
 70
     0
  3

 72
    65
 73
     0
 40
0.0
  0
LTYPE
  5
16
330
5
100
AcDbSymbolTableRecord
100
AcDbLinetypeTableRecord
  2
CONTINUOUS
 70
     0
  3
Solid line
 72
    65
 73
     0
 40
0.0
  0
ENDTAB
  0
TABLE
  2
LAYER
  5
2
100
AcDbSymbolTable
 70
1
  0
LAYER
  5
50
100
AcDbSymbolTableRecord
100
AcDbLayerTableRecord
  2
0
 70
0
  6
CONTINUOUS
  0
ENDTAB
  0
TABLE
  2
STYLE
  5
3
330
0
100
AcDbSymbolTable
 70
     1
  0
STYLE
  5
11
330
3
100
AcDbSymbolTableRecord
100
AcDbTextStyleTableRecord
  2
STANDARD
 70
     0
 40
0.0
 41
1.0
 50
0.0
 71
     0
 42
2.5
  3
txt
  4

  0
ENDTAB
  0
TABLE
  2
VIEW
  5
6
330
0
100
AcDbSymbolTable
 70
     0
  0
ENDTAB
  0
TABLE
  2
UCS
  5
7
330
0
100
AcDbSymbolTable
 70
     0
  0
ENDTAB
  0
TABLE
  2
APPID
  5
9
330
0
100
AcDbSymbolTable
 70
     2
  0
APPID
  5
12
330
9
100
AcDbSymbolTableRecord
100
AcDbRegAppTableRecord
  2
ACAD
 70
     0
  0
ENDTAB
  0
TABLE
  2
DIMSTYLE
  5
A
330
0
100
AcDbSymbolTable
 70
     1
  0
DIMSTYLE
105
27
330
A
100
AcDbSymbolTableRecord
100
AcDbDimStyleTableRecord
  2
ISO-25
 70
     0
  3

  4

  5

  6

  7

 40
1.0
 41
2.5
 42
0.625
 43
3.75
 44
1.25
 45
0.0
 46
0.0
 47
0.0
 48
0.0
140
2.5
141
2.5
142
0.0
143
0.03937007874016
144
1.0
145
0.0
146
1.0
147
0.625
 71
     0
 72
     0
 73
     0
 74
     0
 75
     0
 76
     0
 77
     1
 78
     8
170
     0
171
     3
172
     1
173
     0
174
     0
175
     0
176
     0
177
     0
178
     0
270
     2
271
     2
272
     2
273
     2
274
     3
340
11
275
     0
280
     0
281
     0
282
     0
283
     0
284
     8
285
     0
286
     0
287
     3
288
     0
  0
ENDTAB
  0
TABLE
  2
BLOCK_RECORD
  5
1
330
0
100
AcDbSymbolTable
 70
     1
  0
BLOCK_RECORD
  5
1F
330
1
100
AcDbSymbolTableRecord
100
AcDbBlockTableRecord
  2
*MODEL_SPACE
  0
BLOCK_RECORD
  5
1B
330
1
100
AcDbSymbolTableRecord
100
AcDbBlockTableRecord
  2
*PAPER_SPACE
  0
ENDTAB
  0
ENDSEC
  0
SECTION
  2
BLOCKS
  0
BLOCK
  5
20
330
1F
100
AcDbEntity
  8
0
100
AcDbBlockBegin
  2
*MODEL_SPACE
 70
     0
 10
0.0
 20
0.0
 30
0.0
  3
*MODEL_SPACE
  1

  0
ENDBLK
  5
21
330
1F
100
AcDbEntity
  8
0
100
AcDbBlockEnd
  0
BLOCK
  5
1C
330
1B
100
AcDbEntity
 67
     1
  8
0
100
AcDbBlockBegin
  2
*PAPER_SPACE
  1

  0
ENDBLK
  5
1D
330
1B
100
AcDbEntity
 67
     1
  8
0
100
AcDbBlockEnd
  0
ENDSEC
  0
SECTION
  2
ENTITIES
  0
LWPOLYLINE
  5
100
100
AcDbEntity
  8
0
 62
7
100
AcDbPolyline
 90
24
 70
1
 10
204.290207
 20
267.790771
 30
0.0
 10
204.290207
 20
269.392543
 30
0.0
 10
203.841780
 20
269.392543
 30
0.0
 10
203.841780
 20
270.576500
 30
0.0
 10
202.036072
 20
270.576500
 30
0.0
 10
202.036072
 20
269.392543
 30
0.0
 10
201.198078
 20
269.392543
 30
0.0
 10
201.204762
 20
270.328752
 30
0.0
 10
198.446208
 20
270.347523
 30
0.0
 10
198.439388
 20
269.392543
 30
0.0
 10
197.605008
 20
269.392543
 30
0.0
 10
197.605008
 20
270.576500
 30
0.0
 10
195.799300
 20
270.576500
 30
0.0
 10
195.799300
 20
269.392543
 30
0.0
 10
195.350874
 20
269.392543
 30
0.0
 10
195.350874
 20
267.790771
 30
0.0
 10
195.665147
 20
267.790771
 30
0.0
 10
195.665147
 20
264.192174
 30
0.0
 10
195.350874
 20
264.192174
 30
0.0
 10
195.350874
 20
262.590401
 30
0.0
 10
204.290207
 20
262.590401
 30
0.0
 10
204.290207
 20
264.192174
 30
0.0
 10
203.941014
 20
264.192174
 30
0.0
 10
203.941014
 20
267.790771
 30
0.0
  0
LWPOLYLINE
  5
101
100
AcDbEntity
  8
0
 62
7
100
AcDbPolyline
 90
4
 70
1
 10
203.766418
 20
263.101605
 30
0.0
 10
195.874663
 20
263.101605
 30
0.0
 10
195.874663
 20
263.680970
 30
0.0
 10
203.766418
 20
263.680970
 30
0.0
  0
LWPOLYLINE
  5
102
100
AcDbEntity
  8
0
 62
7
100
AcDbPolyline
 90
4
 70
1
 10
196.188936
 20
264.192174
 30
0.0
 10
196.188936
 20
267.779122
 30
0.0
 10
203.417225
 20
267.779122
 30
0.0
 10
203.417225
 20
264.192174
 30
0.0
  0
LWPOLYLINE
  5
103
100
AcDbEntity
  8
0
 62
7
100
AcDbPolyline
 90
4
 70
1
 10
195.874663
 20
268.881339
 30
0.0
 10
203.766418
 20
268.881339
 30
0.0
 10
203.766418
 20
268.301975
 30
0.0
 10
195.874663
 20
268.301975
 30
0.0
  0
LWPOLYLINE
  5
104
100
AcDbEntity
  8
0
 62
7
100
AcDbPolyline
 90
4
 70
1
 10
202.559861
 20
270.065296
 30
0.0
 10
203.317991
 20
270.065296
 30
0.0
 10
203.317991
 20
269.392543
 30
0.0
 10
202.559861
 20
269.392543
 30
0.0
  0
LWPOLYLINE
  5
105
100
AcDbEntity
  8
0
 62
7
100
AcDbPolyline
 90
4
 70
1
 10
198.966314
 20
269.832725
 30
0.0
 10
200.677358
 20
269.821143
 30
0.0
 10
200.674289
 20
269.392543
 30
0.0
 10
198.963177
 20
269.392543
 30
0.0
  0
LWPOLYLINE
  5
106
100
AcDbEntity
  8
0
 62
7
100
AcDbPolyline
 90
4
 70
1
 10
196.323089
 20
270.065296
 30
0.0
 10
197.081219
 20
270.065296
 30
0.0
 10
197.081219
 20
269.392543
 30
0.0
 10
196.323089
 20
269.392543
 30
0.0
  0
LWPOLYLINE
  5
107
100
AcDbEntity
  8
0
 62
7
100
AcDbPolyline
 90
4
 70
1
 10
200.634664
 20
266.241250
 30
0.0
 10
202.481839
 20
266.241250
 30
0.0
 10
202.481839
 20
265.730046
 30
0.0
 10
200.634664
 20
265.730046
 30
0.0
  0
LWPOLYLINE
  5
108
100
AcDbEntity
  8
0
 62
7
100
AcDbPolyline
 90
12
 70
1
 10
198.344792
 20
266.886978
 30
0.0
 10
197.821003
 20
266.886978
 30
0.0
 10
197.821003
 20
266.241250
 30
0.0
 10
197.159310
 20
266.241250
 30
0.0
 10
197.159310
 20
265.730046
 30
0.0
 10
197.821003
 20
265.730046
 30
0.0
 10
197.821003
 20
265.084252
 30
0.0
 10
198.344792
 20
265.084252
 30
0.0
 10
198.344792
 20
265.730046
 30
0.0
 10
199.006416
 20
265.730046
 30
0.0
 10
199.006416
 20
266.241250
 30
0.0
 10
198.344792
 20
266.241250
 30
0.0
  0
SPLINE
  5
109
100
AcDbEntity
  8
0
 62
7
100
AcDbSpline
 70
8
 71
3
 72
8
 73
4
 74
0
 40
0
 40
0
 40
0
 40
0
 40
1
 40
1
 40
1
 40
1
 10
201.045035
 20
258.199238
 30
0.0
 10
201.045035
 20
258.934333
 30
0.0
 10
200.449119
 20
259.530249
 30
0.0
 10
199.714024
 20
259.530249
 30
0.0
  0
SPLINE
  5
10a
100
AcDbEntity
  8
0
 62
7
100
AcDbSpline
 70
8
 71
3
 72
8
 73
4
 74
0
 40
0
 40
0
 40
0
 40
0
 40
1
 40
1
 40
1
 40
1
 10
199.714024
 20
259.530249
 30
0.0
 10
198.978929
 20
259.530249
 30
0.0
 10
198.383013
 20
258.934333
 30
0.0
 10
198.383013
 20
258.199238
 30
0.0
  0
LWPOLYLINE
  5
10b
100
AcDbEntity
  8
0
 62
7
100
AcDbPolyline
 90
2
 70
0
 10
201.045035
 20
255.028820
 30
0.0
 10
201.045035
 20
258.199238
 30
0.0
  0
SPLINE
  5
10c
100
AcDbEntity
  8
0
 62
7
100
AcDbSpline
 70
8
 71
3
 72
8
 73
4
 74
0
 40
0
 40
0
 40
0
 40
0
 40
1
 40
1
 40
1
 40
1
 10
198.383013
 20
255.028836
 30
0.0
 10
197.974552
 20
254.663253
 30
0.0
 10
197.717500
 20
254.131975
 30
0.0
 10
197.717500
 20
253.540676
 30
0.0
  0
SPLINE
  5
10d
100
AcDbEntity
  8
0
 62
7
100
AcDbSpline
 70
8
 71
3
 72
8
 73
4
 74
0
 40
0
 40
0
 40
0
 40
0
 40
1
 40
1
 40
1
 40
1
 10
197.717500
 20
253.540676
 30
0.0
 10
197.717500
 20
252.438018
 30
0.0
 10
198.611381
 20
251.544152
 30
0.0
 10
199.714024
 20
251.544152
 30
0.0
  0
SPLINE
  5
10e
100
AcDbEntity
  8
0
 62
7
100
AcDbSpline
 70
8
 71
3
 72
8
 73
4
 74
0
 40
0
 40
0
 40
0
 40
0
 40
1
 40
1
 40
1
 40
1
 10
199.714024
 20
251.544152
 30
0.0
 10
200.816667
 20
251.544152
 30
0.0
 10
201.710548
 20
252.438018
 30
0.0
 10
201.710548
 20
253.540676
 30
0.0
  0
SPLINE
  5
10f
100
AcDbEntity
  8
0
 62
7
100
AcDbSpline
 70
8
 71
3
 72
8
 73
4
 74
0
 40
0
 40
0
 40
0
 40
0
 40
1
 40
1
 40
1
 40
1
 10
201.710548
 20
253.540676
 30
0.0
 10
201.710548
 20
254.131975
 30
0.0
 10
201.453496
 20
254.663253
 30
0.0
 10
201.045035
 20
255.028820
 30
0.0
  0
LWPOLYLINE
  5
110
100
AcDbEntity
  8
0
 62
7
100
AcDbPolyline
 90
2
 70
0
 10
198.383013
 20
258.199238
 30
0.0
 10
198.383013
 20
255.028836
 30
0.0
  0
SPLINE
  5
111
100
AcDbEntity
  8
0
 62
7
100
AcDbSpline
 70
8
 71
3
 72
8
 73
4
 74
0
 40
0
 40
0
 40
0
 40
0
 40
1
 40
1
 40
1
 40
1
 10
199.714024
 20
252.209665
 30
0.0
 10
198.978929
 20
252.209665
 30
0.0
 10
198.383013
 20
252.805581
 30
0.0
 10
198.383013
 20
253.540676
 30
0.0
  0
SPLINE
  5
112
100
AcDbEntity
  8
0
 62
7
100
AcDbSpline
 70
8
 71
3
 72
8
 73
4
 74
0
 40
0
 40
0
 40
0
 40
0
 40
1
 40
1
 40
1
 40
1
 10
198.383013
 20
253.540676
 30
0.0
 10
198.383013
 20
253.924960
 30
0.0
 10
198.545870
 20
254.281449
 30
0.0
 10
198.826850
 20
254.532933
 30
0.0
  0
LWPOLYLINE
  5
113
100
AcDbEntity
  8
0
 62
7
100
AcDbPolyline
 90
1
 70
1
 10
201.045035
 20
255.028820
 30
0.0
  0
SPLINE
  5
114
100
AcDbEntity
  8
0
 62
7
100
AcDbSpline
 70
8
 71
3
 72
8
 73
4
 74
0
 40
0
 40
0
 40
0
 40
0
 40
1
 40
1
 40
1
 40
1
 10
199.048526
 20
258.199238
 30
0.0
 10
199.048526
 20
258.566786
 30
0.0
 10
199.346492
 20
258.864752
 30
0.0
 10
199.714040
 20
258.864752
 30
0.0
  0
SPLINE
  5
115
100
AcDbEntity
  8
0
 62
7
100
AcDbSpline
 70
8
 71
3
 72
8
 73
4
 74
0
 40
0
 40
0
 40
0
 40
0
 40
1
 40
1
 40
1
 40
1
 10
199.714040
 20
258.864752
 30
0.0
 10
200.081587
 20
258.864752
 30
0.0
 10
200.379553
 20
258.566801
 30
0.0
 10
200.379553
 20
258.199238
 30
0.0
  0
LWPOLYLINE
  5
116
100
AcDbEntity
  8
0
 62
7
100
AcDbPolyline
 90
3
 70
0
 10
198.826850
 20
254.532933
 30
0.0
 10
199.048526
 20
254.731338
 30
0.0
 10
199.048526
 20
258.199238
 30
0.0
  0
SPLINE
  5
117
100
AcDbEntity
  8
0
 62
7
100
AcDbSpline
 70
8
 71
3
 72
8
 73
4
 74
0
 40
0
 40
0
 40
0
 40
0
 40
1
 40
1
 40
1
 40
1
 10
200.601230
 20
254.532933
 30
0.0
 10
200.882209
 20
254.281449
 30
0.0
 10
201.045066
 20
253.924976
 30
0.0
 10
201.045066
 20
253.540676
 30
0.0
  0
SPLINE
  5
118
100
AcDbEntity
  8
0
 62
7
100
AcDbSpline
 70
8
 71
3
 72
8
 73
4
 74
0
 40
0
 40
0
 40
0
 40
0
 40
1
 40
1
 40
1
 40
1
 10
201.045066
 20
253.540676
 30
0.0
 10
201.045035
 20
252.805581
 30
0.0
 10
200.449119
 20
252.209665
 30
0.0
 10
199.714024
 20
252.209665
 30
0.0
  0
LWPOLYLINE
  5
119
100
AcDbEntity
  8
0
 62
7
100
AcDbPolyline
 90
3
 70
0
 10
200.379553
 20
258.199238
 30
0.0
 10
200.379553
 20
254.731338
 30
0.0
 10
200.601230
 20
254.532933
 30
0.0
  0
LWPOLYLINE
  5
11a
100
AcDbEntity
  8
0
 62
7
100
AcDbPolyline
 90
1
 70
1
 10
199.714024
 20
252.209665
 30
0.0
  0
SPLINE
  5
11b
100
AcDbEntity
  8
0
 62
7
100
AcDbSpline
 70
8
 71
3
 72
8
 73
4
 74
0
 40
0
 40
0
 40
0
 40
0
 40
1
 40
1
 40
1
 40
1
 10
200.712286
 20
253.540676
 30
0.0
 10
200.712286
 20
253.184032
 30
0.0
 10
200.522019
 20
252.854478
 30
0.0
 10
200.213155
 20
252.676156
 30
0.0
  0
SPLINE
  5
11c
100
AcDbEntity
  8
0
 62
7
100
AcDbSpline
 70
8
 71
3
 72
8
 73
4
 74
0
 40
0
 40
0
 40
0
 40
0
 40
1
 40
1
 40
1
 40
1
 10
200.213155
 20
252.676156
 30
0.0
 10
199.904292
 20
252.497834
 30
0.0
 10
199.523757
 20
252.497834
 30
0.0
 10
199.214893
 20
252.676156
 30
0.0
  0
SPLINE
  5
11d
100
AcDbEntity
  8
0
 62
7
100
AcDbSpline
 70
8
 71
3
 72
8
 73
4
 74
0
 40
0
 40
0
 40
0
 40
0
 40
1
 40
1
 40
1
 40
1
 10
199.214893
 20
252.676156
 30
0.0
 10
198.906030
 20
252.854478
 30
0.0
 10
198.715762
 20
253.184032
 30
0.0
 10
198.715762
 20
253.540676
 30
0.0
  0
SPLINE
  5
11e
100
AcDbEntity
  8
0
 62
7
100
AcDbSpline
 70
8
 71
3
 72
8
 73
4
 74
0
 40
0
 40
0
 40
0
 40
0
 40
1
 40
1
 40
1
 40
1
 10
198.715762
 20
253.540676
 30
0.0
 10
198.715762
 20
253.897321
 30
0.0
 10
198.906030
 20
254.226874
 30
0.0
 10
199.214893
 20
254.405197
 30
0.0
  0
SPLINE
  5
11f
100
AcDbEntity
  8
0
 62
7
100
AcDbSpline
 70
8
 71
3
 72
8
 73
4
 74
0
 40
0
 40
0
 40
0
 40
0
 40
1
 40
1
 40
1
 40
1
 10
199.214893
 20
254.405197
 30
0.0
 10
199.523757
 20
254.583519
 30
0.0
 10
199.904292
 20
254.583519
 30
0.0
 10
200.213155
 20
254.405197
 30
0.0
  0
SPLINE
  5
120
100
AcDbEntity
  8
0
 62
7
100
AcDbSpline
 70
8
 71
3
 72
8
 73
4
 74
0
 40
0
 40
0
 40
0
 40
0
 40
1
 40
1
 40
1
 40
1
 10
200.213155
 20
254.405197
 30
0.0
 10
200.522019
 20
254.226874
 30
0.0
 10
200.712286
 20
253.897321
 30
0.0
 10
200.712286
 20
253.540676
 30
0.0
  0
LWPOLYLINE
  5
121
100
AcDbEntity
  8
0
 62
7
100
AcDbPolyline
 90
4
 70
1
 10
199.381276
 20
256.868211
 30
0.0
 10
200.046789
 20
256.868211
 30
0.0
 10
200.046789
 20
252.875163
 30
0.0
 10
199.381276
 20
252.875163
 30
0.0
  0
SPLINE
  5
122
100
AcDbEntity
  8
0
 62
1
100
AcDbSpline
 70
8
 71
3
 72
8
 73
4
 74
0
 40
0
 40
0
 40
0
 40
0
 40
1
 40
1
 40
1
 40
1
 10
364.195443
 20
284.716698
 30
0.0
 10
364.195443
 20
283.825086
 30
0.0
 10
363.719774
 20
283.001203
 30
0.0
 10
362.947615
 20
282.555397
 30
0.0
  0
SPLINE
  5
123
100
AcDbEntity
  8
0
 62
1
100
AcDbSpline
 70
8
 71
3
 72
8
 73
4
 74
0
 40
0
 40
0
 40
0
 40
0
 40
1
 40
1
 40
1
 40
1
 10
362.947615
 20
282.555397
 30
0.0
 10
362.175457
 20
282.109591
 30
0.0
 10
361.224119
 20
282.109591
 30
0.0
 10
360.451960
 20
282.555397
 30
0.0
  0
SPLINE
  5
124
100
AcDbEntity
  8
0
 62
1
100
AcDbSpline
 70
8
 71
3
 72
8
 73
4
 74
0
 40
0
 40
0
 40
0
 40
0
 40
1
 40
1
 40
1
 40
1
 10
360.451960
 20
282.555397
 30
0.0
 10
359.679802
 20
283.001203
 30
0.0
 10
359.204133
 20
283.825086
 30
0.0
 10
359.204133
 20
284.716698
 30
0.0
  0
SPLINE
  5
125
100
AcDbEntity
  8
0
 62
1
100
AcDbSpline
 70
8
 71
3
 72
8
 73
4
 74
0
 40
0
 40
0
 40
0
 40
0
 40
1
 40
1
 40
1
 40
1
 10
359.204133
 20
284.716698
 30
0.0
 10
359.204133
 20
285.608310
 30
0.0
 10
359.679802
 20
286.432193
 30
0.0
 10
360.451960
 20
286.877999
 30
0.0
  0
SPLINE
  5
126
100
AcDbEntity
  8
0
 62
1
100
AcDbSpline
 70
8
 71
3
 72
8
 73
4
 74
0
 40
0
 40
0
 40
0
 40
0
 40
1
 40
1
 40
1
 40
1
 10
360.451960
 20
286.877999
 30
0.0
 10
361.224119
 20
287.323804
 30
0.0
 10
362.175457
 20
287.323804
 30
0.0
 10
362.947615
 20
286.877999
 30
0.0
  0
SPLINE
  5
127
100
AcDbEntity
  8
0
 62
1
100
AcDbSpline
 70
8
 71
3
 72
8
 73
4
 74
0
 40
0
 40
0
 40
0
 40
0
 40
1
 40
1
 40
1
 40
1
 10
362.947615
 20
286.877999
 30
0.0
 10
363.719774
 20
286.432193
 30
0.0
 10
364.195443
 20
285.608310
 30
0.0
 10
364.195443
 20
284.716698
 30
0.0
  0
LWPOLYLINE
  5
128
100
AcDbEntity
  8
0
 62
7
100
AcDbPolyline
 90
1
 70
1
 10
200.712286
 20
253.540676
 30
0.0
  0
LWPOLYLINE
  5
129
100
AcDbEntity
  8
0
 62
1
100
AcDbPolyline
 90
1
 70
1
 10
364.195443
 20
284.716698
 30
0.0
  0
SPLINE
  5
12a
100
AcDbEntity
  8
0
 62
1
100
AcDbSpline
 70
8
 71
3
 72
8
 73
4
 74
0
 40
0
 40
0
 40
0
 40
0
 40
1
 40
1
 40
1
 40
1
 10
181.022317
 20
295.189470
 30
0.0
 10
171.061210
 20
295.189420
 30
0.0
 10
161.156207
 20
293.698471
 30
0.0
 10
151.636476
 20
290.766171
 30
0.0
  0
SPLINE
  5
12b
100
AcDbEntity
  8
0
 62
1
100
AcDbSpline
 70
8
 71
3
 72
8
 73
4
 74
0
 40
0
 40
0
 40
0
 40
0
 40
1
 40
1
 40
1
 40
1
 10
151.636476
 20
290.766171
 30
0.0
 10
145.168828
 20
288.773956
 30
0.0
 10
140.841334
 20
282.691321
 30
0.0
 10
141.079852
 20
275.928002
 30
0.0
  0
SPLINE
  5
12c
100
AcDbEntity
  8
0
 62
1
100
AcDbSpline
 70
8
 71
3
 72
8
 73
4
 74
0
 40
0
 40
0
 40
0
 40
0
 40
1
 40
1
 40
1
 40
1
 10
119.850810
 20
255.299913
 30
0.0
 10
125.478468
 20
254.939449
 30
0.0
 10
130.996107
 20
256.975698
 30
0.0
 10
135.040449
 20
260.905553
 30
0.0
  0
SPLINE
  5
12d
100
AcDbEntity
  8
0
 62
1
100
AcDbSpline
 70
8
 71
3
 72
8
 73
4
 74
0
 40
0
 40
0
 40
0
 40
0
 40
1
 40
1
 40
1
 40
1
 10
135.040449
 20
260.905553
 30
0.0
 10
139.084792
 20
264.835408
 30
0.0
 10
141.278606
 20
270.292315
 30
0.0
 10
141.079852
 20
275.928002
 30
0.0
  0
SPLINE
  5
12e
100
AcDbEntity
  8
0
 62
1
100
AcDbSpline
 70
8
 71
3
 72
8
 73
4
 74
0
 40
0
 40
0
 40
0
 40
0
 40
1
 40
1
 40
1
 40
1
 10
119.850810
 20
255.299913
 30
0.0
 10
107.630482
 20
256.083162
 30
0.0
 10
96.164380
 20
249.347722
 30
0.0
 10
90.898216
 20
238.292523
 30
0.0
  0
SPLINE
  5
12f
100
AcDbEntity
  8
0
 62
1
100
AcDbSpline
 70
8
 71
3
 72
8
 73
4
 74
0
 40
0
 40
0
 40
0
 40
0
 40
1
 40
1
 40
1
 40
1
 10
90.898216
 20
238.292523
 30
0.0
 10
88.127046
 20
232.474705
 30
0.0
 10
85.925722
 20
226.402226
 30
0.0
 10
84.325059
 20
220.160091
 30
0.0
  0
LWPOLYLINE
  5
130
100
AcDbEntity
  8
0
 62
1
100
AcDbPolyline
 90
2
 70
0
 10
415.432217
 20
295.189470
 30
0.0
 10
181.022317
 20
295.189470
 30
0.0
  0
LWPOLYLINE
  5
131
100
AcDbEntity
  8
0
 62
1
100
AcDbPolyline
 90
3
 70
0
 10
84.325159
 20
220.160091
 30
0.0
 10
71.926745
 20
171.812260
 30
0.0
 10
524.528284
 20
171.812260
 30
0.0
  0
SPLINE
  5
132
100
AcDbEntity
  8
0
 62
1
100
AcDbSpline
 70
8
 71
3
 72
8
 73
4
 74
0
 40
0
 40
0
 40
0
 40
0
 40
1
 40
1
 40
1
 40
1
 10
512.129883
 20
220.160091
 30
0.0
 10
510.529024
 20
226.401899
 30
0.0
 10
508.327562
 20
232.474041
 30
0.0
 10
505.556310
 20
238.291523
 30
0.0
  0
SPLINE
  5
133
100
AcDbEntity
  8
0
 62
1
100
AcDbSpline
 70
8
 71
3
 72
8
 73
4
 74
0
 40
0
 40
0
 40
0
 40
0
 40
1
 40
1
 40
1
 40
1
 10
505.556310
 20
238.291523
 30
0.0
 10
500.290587
 20
249.346753
 30
0.0
 10
488.824934
 20
256.082561
 30
0.0
 10
476.604729
 20
255.299913
 30
0.0
  0
SPLINE
  5
134
100
AcDbEntity
  8
0
 62
1
100
AcDbSpline
 70
8
 71
3
 72
8
 73
4
 74
0
 40
0
 40
0
 40
0
 40
0
 40
1
 40
1
 40
1
 40
1
 10
455.374695
 20
275.928002
 30
0.0
 10
455.175917
 20
270.292131
 30
0.0
 10
457.369864
 20
264.835054
 30
0.0
 10
461.414430
 20
260.905165
 30
0.0
  0
SPLINE
  5
135
100
AcDbEntity
  8
0
 62
1
100
AcDbSpline
 70
8
 71
3
 72
8
 73
4
 74
0
 40
0
 40
0
 40
0
 40
0
 40
1
 40
1
 40
1
 40
1
 10
461.414430
 20
260.905165
 30
0.0
 10
465.458997
 20
256.975276
 30
0.0
 10
470.976905
 20
254.939156
 30
0.0
 10
476.604729
 20
255.299913
 30
0.0
  0
SPLINE
  5
136
100
AcDbEntity
  8
0
 62
1
100
AcDbSpline
 70
8
 71
3
 72
8
 73
4
 74
0
 40
0
 40
0
 40
0
 40
0
 40
1
 40
1
 40
1
 40
1
 10
455.374695
 20
275.928002
 30
0.0
 10
455.613212
 20
282.691325
 30
0.0
 10
451.285712
 20
288.773961
 30
0.0
 10
444.818059
 20
290.766171
 30
0.0
  0
SPLINE
  5
137
100
AcDbEntity
  8
0
 62
1
100
AcDbSpline
 70
8
 71
3
 72
8
 73
4
 74
0
 40
0
 40
0
 40
0
 40
0
 40
1
 40
1
 40
1
 40
1
 10
444.818059
 20
290.766171
 30
0.0
 10
435.298328
 20
293.698471
 30
0.0
 10
425.393325
 20
295.189420
 30
0.0
 10
415.432217
 20
295.189470
 30
0.0
  0
SPLINE
  5
138
100
AcDbEntity
  8
0
 62
1
100
AcDbSpline
 70
8
 71
3
 72
8
 73
4
 74
0
 40
0
 40
0
 40
0
 40
0
 40
1
 40
1
 40
1
 40
1
 10
315.296539
 20
269.035000
 30
0.0
 10
315.296539
 20
268.500033
 30
0.0
 10
315.011137
 20
268.005703
 30
0.0
 10
314.547842
 20
267.738219
 30
0.0
  0
SPLINE
  5
139
100
AcDbEntity
  8
0
 62
1
100
AcDbSpline
 70
8
 71
3
 72
8
 73
4
 74
0
 40
0
 40
0
 40
0
 40
0
 40
1
 40
1
 40
1
 40
1
 10
314.547842
 20
267.738219
 30
0.0
 10
314.084547
 20
267.470736
 30
0.0
 10
313.513744
 20
267.470736
 30
0.0
 10
313.050449
 20
267.738219
 30
0.0
  0
SPLINE
  5
13a
100
AcDbEntity
  8
0
 62
1
100
AcDbSpline
 70
8
 71
3
 72
8
 73
4
 74
0
 40
0
 40
0
 40
0
 40
0
 40
1
 40
1
 40
1
 40
1
 10
313.050449
 20
267.738219
 30
0.0
 10
312.587154
 20
268.005703
 30
0.0
 10
312.301753
 20
268.500033
 30
0.0
 10
312.301753
 20
269.035000
 30
0.0
  0
SPLINE
  5
13b
100
AcDbEntity
  8
0
 62
1
100
AcDbSpline
 70
8
 71
3
 72
8
 73
4
 74
0
 40
0
 40
0
 40
0
 40
0
 40
1
 40
1
 40
1
 40
1
 10
312.301753
 20
269.035000
 30
0.0
 10
312.301753
 20
269.569967
 30
0.0
 10
312.587154
 20
270.064297
 30
0.0
 10
313.050449
 20
270.331780
 30
0.0
  0
SPLINE
  5
13c
100
AcDbEntity
  8
0
 62
1
100
AcDbSpline
 70
8
 71
3
 72
8
 73
4
 74
0
 40
0
 40
0
 40
0
 40
0
 40
1
 40
1
 40
1
 40
1
 10
313.050449
 20
270.331780
 30
0.0
 10
313.513744
 20
270.599264
 30
0.0
 10
314.084547
 20
270.599264
 30
0.0
 10
314.547842
 20
270.331780
 30
0.0
  0
SPLINE
  5
13d
100
AcDbEntity
  8
0
 62
1
100
AcDbSpline
 70
8
 71
3
 72
8
 73
4
 74
0
 40
0
 40
0
 40
0
 40
0
 40
1
 40
1
 40
1
 40
1
 10
314.547842
 20
270.331780
 30
0.0
 10
315.011137
 20
270.064297
 30
0.0
 10
315.296539
 20
269.569967
 30
0.0
 10
315.296539
 20
269.035000
 30
0.0
  0
LWPOLYLINE
  5
13e
100
AcDbEntity
  8
0
 62
1
100
AcDbPolyline
 90
2
 70
0
 10
512.129883
 20
220.160091
 30
0.0
 10
524.528284
 20
171.812260
 30
0.0
  0
SPLINE
  5
13f
100
AcDbEntity
  8
0
 62
1
100
AcDbSpline
 70
8
 71
3
 72
8
 73
4
 74
0
 40
0
 40
0
 40
0
 40
0
 40
1
 40
1
 40
1
 40
1
 10
261.390387
 20
269.035000
 30
0.0
 10
261.390387
 20
268.500033
 30
0.0
 10
261.104985
 20
268.005703
 30
0.0
 10
260.641690
 20
267.738219
 30
0.0
  0
SPLINE
  5
140
100
AcDbEntity
  8
0
 62
1
100
AcDbSpline
 70
8
 71
3
 72
8
 73
4
 74
0
 40
0
 40
0
 40
0
 40
0
 40
1
 40
1
 40
1
 40
1
 10
260.641690
 20
267.738219
 30
0.0
 10
260.178395
 20
267.470736
 30
0.0
 10
259.607592
 20
267.470736
 30
0.0
 10
259.144297
 20
267.738219
 30
0.0
  0
SPLINE
  5
141
100
AcDbEntity
  8
0
 62
1
100
AcDbSpline
 70
8
 71
3
 72
8
 73
4
 74
0
 40
0
 40
0
 40
0
 40
0
 40
1
 40
1
 40
1
 40
1
 10
259.144297
 20
267.738219
 30
0.0
 10
258.681002
 20
268.005703
 30
0.0
 10
258.395601
 20
268.500033
 30
0.0
 10
258.395601
 20
269.035000
 30
0.0
  0
SPLINE
  5
142
100
AcDbEntity
  8
0
 62
1
100
AcDbSpline
 70
8
 71
3
 72
8
 73
4
 74
0
 40
0
 40
0
 40
0
 40
0
 40
1
 40
1
 40
1
 40
1
 10
258.395601
 20
269.035000
 30
0.0
 10
258.395601
 20
269.569967
 30
0.0
 10
258.681002
 20
270.064297
 30
0.0
 10
259.144297
 20
270.331780
 30
0.0
  0
SPLINE
  5
143
100
AcDbEntity
  8
0
 62
1
100
AcDbSpline
 70
8
 71
3
 72
8
 73
4
 74
0
 40
0
 40
0
 40
0
 40
0
 40
1
 40
1
 40
1
 40
1
 10
259.144297
 20
270.331780
 30
0.0
 10
259.607592
 20
270.599264
 30
0.0
 10
260.178395
 20
270.599264
 30
0.0
 10
260.641690
 20
270.331780
 30
0.0
  0
SPLINE
  5
144
100
AcDbEntity
  8
0
 62
1
100
AcDbSpline
 70
8
 71
3
 72
8
 73
4
 74
0
 40
0
 40
0
 40
0
 40
0
 40
1
 40
1
 40
1
 40
1
 10
260.641690
 20
270.331780
 30
0.0
 10
261.104985
 20
270.064297
 30
0.0
 10
261.390387
 20
269.569967
 30
0.0
 10
261.390387
 20
269.035000
 30
0.0
  0
LWPOLYLINE
  5
145
100
AcDbEntity
  8
0
 62
1
100
AcDbPolyline
 90
1
 70
1
 10
315.296539
 20
269.035000
 30
0.0
  0
SPLINE
  5
146
100
AcDbEntity
  8
0
 62
1
100
AcDbSpline
 70
8
 71
3
 72
8
 73
4
 74
0
 40
0
 40
0
 40
0
 40
0
 40
1
 40
1
 40
1
 40
1
 10
261.390387
 20
235.094081
 30
0.0
 10
261.390387
 20
234.559114
 30
0.0
 10
261.104985
 20
234.064784
 30
0.0
 10
260.641690
 20
233.797301
 30
0.0
  0
SPLINE
  5
147
100
AcDbEntity
  8
0
 62
1
100
AcDbSpline
 70
8
 71
3
 72
8
 73
4
 74
0
 40
0
 40
0
 40
0
 40
0
 40
1
 40
1
 40
1
 40
1
 10
260.641690
 20
233.797301
 30
0.0
 10
260.178395
 20
233.529817
 30
0.0
 10
259.607592
 20
233.529817
 30
0.0
 10
259.144297
 20
233.797301
 30
0.0
  0
SPLINE
  5
148
100
AcDbEntity
  8
0
 62
1
100
AcDbSpline
 70
8
 71
3
 72
8
 73
4
 74
0
 40
0
 40
0
 40
0
 40
0
 40
1
 40
1
 40
1
 40
1
 10
259.144297
 20
233.797301
 30
0.0
 10
258.681002
 20
234.064784
 30
0.0
 10
258.395601
 20
234.559114
 30
0.0
 10
258.395601
 20
235.094081
 30
0.0
  0
SPLINE
  5
149
100
AcDbEntity
  8
0
 62
1
100
AcDbSpline
 70
8
 71
3
 72
8
 73
4
 74
0
 40
0
 40
0
 40
0
 40
0
 40
1
 40
1
 40
1
 40
1
 10
258.395601
 20
235.094081
 30
0.0
 10
258.395601
 20
235.629048
 30
0.0
 10
258.681002
 20
236.123378
 30
0.0
 10
259.144297
 20
236.390862
 30
0.0
  0
SPLINE
  5
14a
100
AcDbEntity
  8
0
 62
1
100
AcDbSpline
 70
8
 71
3
 72
8
 73
4
 74
0
 40
0
 40
0
 40
0
 40
0
 40
1
 40
1
 40
1
 40
1
 10
259.144297
 20
236.390862
 30
0.0
 10
259.607592
 20
236.658345
 30
0.0
 10
260.178395
 20
236.658345
 30
0.0
 10
260.641690
 20
236.390862
 30
0.0
  0
SPLINE
  5
14b
100
AcDbEntity
  8
0
 62
1
100
AcDbSpline
 70
8
 71
3
 72
8
 73
4
 74
0
 40
0
 40
0
 40
0
 40
0
 40
1
 40
1
 40
1
 40
1
 10
260.641690
 20
236.390862
 30
0.0
 10
261.104985
 20
236.123378
 30
0.0
 10
261.390387
 20
235.629048
 30
0.0
 10
261.390387
 20
235.094081
 30
0.0
  0
LWPOLYLINE
  5
14c
100
AcDbEntity
  8
0
 62
1
100
AcDbPolyline
 90
1
 70
1
 10
261.390387
 20
269.035000
 30
0.0
  0
SPLINE
  5
14d
100
AcDbEntity
  8
0
 62
1
100
AcDbSpline
 70
8
 71
3
 72
8
 73
4
 74
0
 40
0
 40
0
 40
0
 40
0
 40
1
 40
1
 40
1
 40
1
 10
159.044570
 20
279.125420
 30
0.0
 10
159.044570
 20
278.590453
 30
0.0
 10
158.759169
 20
278.096123
 30
0.0
 10
158.295874
 20
277.828639
 30
0.0
  0
SPLINE
  5
14e
100
AcDbEntity
  8
0
 62
1
100
AcDbSpline
 70
8
 71
3
 72
8
 73
4
 74
0
 40
0
 40
0
 40
0
 40
0
 40
1
 40
1
 40
1
 40
1
 10
158.295874
 20
277.828639
 30
0.0
 10
157.832579
 20
277.561156
 30
0.0
 10
157.261776
 20
277.561156
 30
0.0
 10
156.798481
 20
277.828639
 30
0.0
  0
SPLINE
  5
14f
100
AcDbEntity
  8
0
 62
1
100
AcDbSpline
 70
8
 71
3
 72
8
 73
4
 74
0
 40
0
 40
0
 40
0
 40
0
 40
1
 40
1
 40
1
 40
1
 10
156.798481
 20
277.828639
 30
0.0
 10
156.335186
 20
278.096123
 30
0.0
 10
156.049784
 20
278.590453
 30
0.0
 10
156.049784
 20
279.125420
 30
0.0
  0
SPLINE
  5
150
100
AcDbEntity
  8
0
 62
1
100
AcDbSpline
 70
8
 71
3
 72
8
 73
4
 74
0
 40
0
 40
0
 40
0
 40
0
 40
1
 40
1
 40
1
 40
1
 10
156.049784
 20
279.125420
 30
0.0
 10
156.049784
 20
279.660387
 30
0.0
 10
156.335186
 20
280.154717
 30
0.0
 10
156.798481
 20
280.422200
 30
0.0
  0
SPLINE
  5
151
100
AcDbEntity
  8
0
 62
1
100
AcDbSpline
 70
8
 71
3
 72
8
 73
4
 74
0
 40
0
 40
0
 40
0
 40
0
 40
1
 40
1
 40
1
 40
1
 10
156.798481
 20
280.422200
 30
0.0
 10
157.261776
 20
280.689684
 30
0.0
 10
157.832579
 20
280.689684
 30
0.0
 10
158.295874
 20
280.422200
 30
0.0
  0
SPLINE
  5
152
100
AcDbEntity
  8
0
 62
1
100
AcDbSpline
 70
8
 71
3
 72
8
 73
4
 74
0
 40
0
 40
0
 40
0
 40
0
 40
1
 40
1
 40
1
 40
1
 10
158.295874
 20
280.422200
 30
0.0
 10
158.759169
 20
280.154717
 30
0.0
 10
159.044570
 20
279.660387
 30
0.0
 10
159.044570
 20
279.125420
 30
0.0
  0
LWPOLYLINE
  5
153
100
AcDbEntity
  8
0
 62
1
100
AcDbPolyline
 90
1
 70
1
 10
261.390387
 20
235.094081
 30
0.0
  0
LWPOLYLINE
  5
154
100
AcDbEntity
  8
0
 62
1
100
AcDbPolyline
 90
1
 70
1
 10
159.044570
 20
279.125420
 30
0.0
  0
LWPOLYLINE
  5
155
100
AcDbEntity
  8
0
 62
1
100
AcDbPolyline
 90
2
 70
0
 10
310.704553
 20
235.393568
 30
0.0
 10
310.704553
 20
268.236392
 30
0.0
  0
LWPOLYLINE
  5
156
100
AcDbEntity
  8
0
 62
1
100
AcDbPolyline
 90
2
 70
0
 10
310.704553
 20
235.393568
 30
0.0
 10
288.243650
 20
235.393568
 30
0.0
  0
LWPOLYLINE
  5
157
100
AcDbEntity
  8
0
 62
1
100
AcDbPolyline
 90
2
 70
0
 10
288.243650
 20
268.236392
 30
0.0
 10
288.243650
 20
235.393568
 30
0.0
  0
SPLINE
  5
158
100
AcDbEntity
  8
0
 62
1
100
AcDbSpline
 70
8
 71
3
 72
8
 73
4
 74
0
 40
0
 40
0
 40
0
 40
0
 40
1
 40
1
 40
1
 40
1
 10
116.064403
 20
202.060599
 30
0.0
 10
112.741610
 20
201.646653
 30
0.0
 10
110.313862
 20
198.719727
 30
0.0
 10
110.521233
 20
195.377676
 30
0.0
  0
SPLINE
  5
159
100
AcDbEntity
  8
0
 62
1
100
AcDbSpline
 70
8
 71
3
 72
8
 73
4
 74
0
 40
0
 40
0
 40
0
 40
0
 40
1
 40
1
 40
1
 40
1
 10
110.521233
 20
195.377676
 30
0.0
 10
110.728604
 20
192.035626
 30
0.0
 10
113.499562
 20
189.431274
 30
0.0
 10
116.848040
 20
189.431274
 30
0.0
  0
SPLINE
  5
15a
100
AcDbEntity
  8
0
 62
1
100
AcDbSpline
 70
8
 71
3
 72
8
 73
4
 74
0
 40
0
 40
0
 40
0
 40
0
 40
1
 40
1
 40
1
 40
1
 10
116.848040
 20
189.431274
 30
0.0
 10
120.196517
 20
189.431274
 30
0.0
 10
122.967475
 20
192.035626
 30
0.0
 10
123.174846
 20
195.377676
 30
0.0
  0
SPLINE
  5
15b
100
AcDbEntity
  8
0
 62
1
100
AcDbSpline
 70
8
 71
3
 72
8
 73
4
 74
0
 40
0
 40
0
 40
0
 40
0
 40
1
 40
1
 40
1
 40
1
 10
123.174846
 20
195.377676
 30
0.0
 10
123.382217
 20
198.719727
 30
0.0
 10
120.954469
 20
201.646653
 30
0.0
 10
117.631676
 20
202.060599
 30
0.0
  0
LWPOLYLINE
  5
15c
100
AcDbEntity
  8
0
 62
1
100
AcDbPolyline
 90
2
 70
0
 10
288.243650
 20
268.236392
 30
0.0
 10
310.704553
 20
268.236392
 30
0.0
  0
LWPOLYLINE
  5
15d
100
AcDbEntity
  8
0
 62
1
100
AcDbPolyline
 90
2
 70
0
 10
116.064403
 20
201.097277
 30
0.0
 10
116.064403
 20
202.060599
 30
0.0
  0
LWPOLYLINE
  5
15e
100
AcDbEntity
  8
0
 62
1
100
AcDbPolyline
 90
2
 70
0
 10
116.064403
 20
201.097277
 30
0.0
 10
117.631676
 20
201.097277
 30
0.0
  0
SPLINE
  5
15f
100
AcDbEntity
  8
0
 62
1
100
AcDbSpline
 70
8
 71
3
 72
8
 73
4
 74
0
 40
0
 40
0
 40
0
 40
0
 40
1
 40
1
 40
1
 40
1
 10
156.380220
 20
195.770545
 30
0.0
 10
156.380220
 20
190.477821
 30
0.0
 10
152.089619
 20
186.187220
 30
0.0
 10
146.796895
 20
186.187220
 30
0.0
  0
SPLINE
  5
160
100
AcDbEntity
  8
0
 62
1
100
AcDbSpline
 70
8
 71
3
 72
8
 73
4
 74
0
 40
0
 40
0
 40
0
 40
0
 40
1
 40
1
 40
1
 40
1
 10
146.796895
 20
186.187220
 30
0.0
 10
141.504170
 20
186.187220
 30
0.0
 10
137.213569
 20
190.477821
 30
0.0
 10
137.213569
 20
195.770545
 30
0.0
  0
SPLINE
  5
161
100
AcDbEntity
  8
0
 62
1
100
AcDbSpline
 70
8
 71
3
 72
8
 73
4
 74
0
 40
0
 40
0
 40
0
 40
0
 40
1
 40
1
 40
1
 40
1
 10
137.213569
 20
195.770545
 30
0.0
 10
137.213569
 20
201.063270
 30
0.0
 10
141.504170
 20
205.353871
 30
0.0
 10
146.796895
 20
205.353871
 30
0.0
  0
SPLINE
  5
162
100
AcDbEntity
  8
0
 62
1
100
AcDbSpline
 70
8
 71
3
 72
8
 73
4
 74
0
 40
0
 40
0
 40
0
 40
0
 40
1
 40
1
 40
1
 40
1
 10
146.796895
 20
205.353871
 30
0.0
 10
152.089619
 20
205.353871
 30
0.0
 10
156.380220
 20
201.063270
 30
0.0
 10
156.380220
 20
195.770545
 30
0.0
  0
LWPOLYLINE
  5
163
100
AcDbEntity
  8
0
 62
1
100
AcDbPolyline
 90
2
 70
0
 10
117.631676
 20
202.060599
 30
0.0
 10
117.631676
 20
201.097277
 30
0.0
  0
SPLINE
  5
164
100
AcDbEntity
  8
0
 62
1
100
AcDbSpline
 70
8
 71
3
 72
8
 73
4
 74
0
 40
0
 40
0
 40
0
 40
0
 40
1
 40
1
 40
1
 40
1
 10
186.328087
 20
195.770545
 30
0.0
 10
186.328087
 20
192.346753
 30
0.0
 10
184.501516
 20
189.183038
 30
0.0
 10
181.536424
 20
187.471142
 30
0.0
  0
SPLINE
  5
165
100
AcDbEntity
  8
0
 62
1
100
AcDbSpline
 70
8
 71
3
 72
8
 73
4
 74
0
 40
0
 40
0
 40
0
 40
0
 40
1
 40
1
 40
1
 40
1
 10
181.536424
 20
187.471142
 30
0.0
 10
178.571333
 20
185.759246
 30
0.0
 10
174.918190
 20
185.759246
 30
0.0
 10
171.953099
 20
187.471142
 30
0.0
  0
SPLINE
  5
166
100
AcDbEntity
  8
0
 62
1
100
AcDbSpline
 70
8
 71
3
 72
8
 73
4
 74
0
 40
0
 40
0
 40
0
 40
0
 40
1
 40
1
 40
1
 40
1
 10
171.953099
 20
187.471142
 30
0.0
 10
168.988007
 20
189.183038
 30
0.0
 10
167.161436
 20
192.346753
 30
0.0
 10
167.161436
 20
195.770545
 30
0.0
  0
SPLINE
  5
167
100
AcDbEntity
  8
0
 62
1
100
AcDbSpline
 70
8
 71
3
 72
8
 73
4
 74
0
 40
0
 40
0
 40
0
 40
0
 40
1
 40
1
 40
1
 40
1
 10
167.161436
 20
195.770545
 30
0.0
 10
167.161436
 20
199.194338
 30
0.0
 10
168.988007
 20
202.358052
 30
0.0
 10
171.953099
 20
204.069949
 30
0.0
  0
SPLINE
  5
168
100
AcDbEntity
  8
0
 62
1
100
AcDbSpline
 70
8
 71
3
 72
8
 73
4
 74
0
 40
0
 40
0
 40
0
 40
0
 40
1
 40
1
 40
1
 40
1
 10
171.953099
 20
204.069949
 30
0.0
 10
174.918190
 20
205.781845
 30
0.0
 10
178.571333
 20
205.781845
 30
0.0
 10
181.536424
 20
204.069949
 30
0.0
  0
SPLINE
  5
169
100
AcDbEntity
  8
0
 62
1
100
AcDbSpline
 70
8
 71
3
 72
8
 73
4
 74
0
 40
0
 40
0
 40
0
 40
0
 40
1
 40
1
 40
1
 40
1
 10
181.536424
 20
204.069949
 30
0.0
 10
184.501516
 20
202.358052
 30
0.0
 10
186.328087
 20
199.194338
 30
0.0
 10
186.328087
 20
195.770545
 30
0.0
  0
LWPOLYLINE
  5
16a
100
AcDbEntity
  8
0
 62
1
100
AcDbPolyline
 90
1
 70
1
 10
156.380220
 20
195.770545
 30
0.0
  0
SPLINE
  5
16b
100
AcDbEntity
  8
0
 62
1
100
AcDbSpline
 70
8
 71
3
 72
8
 73
4
 74
0
 40
0
 40
0
 40
0
 40
0
 40
1
 40
1
 40
1
 40
1
 10
176.094895
 20
231.026173
 30
0.0
 10
172.737961
 20
230.680736
 30
0.0
 10
170.240175
 20
227.765860
 30
0.0
 10
170.413121
 20
224.395634
 30
0.0
  0
SPLINE
  5
16c
100
AcDbEntity
  8
0
 62
1
100
AcDbSpline
 70
8
 71
3
 72
8
 73
4
 74
0
 40
0
 40
0
 40
0
 40
0
 40
1
 40
1
 40
1
 40
1
 10
170.413121
 20
224.395634
 30
0.0
 10
170.586067
 20
221.025409
 30
0.0
 10
173.369105
 20
218.381522
 30
0.0
 10
176.743765
 20
218.381522
 30
0.0
  0
SPLINE
  5
16d
100
AcDbEntity
  8
0
 62
1
100
AcDbSpline
 70
8
 71
3
 72
8
 73
4
 74
0
 40
0
 40
0
 40
0
 40
0
 40
1
 40
1
 40
1
 40
1
 10
176.743765
 20
218.381522
 30
0.0
 10
180.118425
 20
218.381522
 30
0.0
 10
182.901464
 20
221.025409
 30
0.0
 10
183.074410
 20
224.395634
 30
0.0
  0
SPLINE
  5
16e
100
AcDbEntity
  8
0
 62
1
100
AcDbSpline
 70
8
 71
3
 72
8
 73
4
 74
0
 40
0
 40
0
 40
0
 40
0
 40
1
 40
1
 40
1
 40
1
 10
183.074410
 20
224.395634
 30
0.0
 10
183.247356
 20
227.765860
 30
0.0
 10
180.749570
 20
230.680736
 30
0.0
 10
177.392636
 20
231.026173
 30
0.0
  0
LWPOLYLINE
  5
16f
100
AcDbEntity
  8
0
 62
1
100
AcDbPolyline
 90
1
 70
1
 10
186.328087
 20
195.770545
 30
0.0
  0
LWPOLYLINE
  5
170
100
AcDbEntity
  8
0
 62
1
100
AcDbPolyline
 90
2
 70
0
 10
176.094895
 20
229.461896
 30
0.0
 10
176.094895
 20
231.026173
 30
0.0
  0
LWPOLYLINE
  5
171
100
AcDbEntity
  8
0
 62
1
100
AcDbPolyline
 90
2
 70
0
 10
176.094895
 20
229.461896
 30
0.0
 10
177.392636
 20
229.461896
 30
0.0
  0
SPLINE
  5
172
100
AcDbEntity
  8
0
 62
1
100
AcDbSpline
 70
8
 71
3
 72
8
 73
4
 74
0
 40
0
 40
0
 40
0
 40
0
 40
1
 40
1
 40
1
 40
1
 10
156.380220
 20
224.720142
 30
0.0
 10
156.380220
 20
219.427417
 30
0.0
 10
152.089619
 20
215.136817
 30
0.0
 10
146.796895
 20
215.136817
 30
0.0
  0
SPLINE
  5
173
100
AcDbEntity
  8
0
 62
1
100
AcDbSpline
 70
8
 71
3
 72
8
 73
4
 74
0
 40
0
 40
0
 40
0
 40
0
 40
1
 40
1
 40
1
 40
1
 10
146.796895
 20
215.136817
 30
0.0
 10
141.504170
 20
215.136817
 30
0.0
 10
137.213569
 20
219.427417
 30
0.0
 10
137.213569
 20
224.720142
 30
0.0
  0
SPLINE
  5
174
100
AcDbEntity
  8
0
 62
1
100
AcDbSpline
 70
8
 71
3
 72
8
 73
4
 74
0
 40
0
 40
0
 40
0
 40
0
 40
1
 40
1
 40
1
 40
1
 10
137.213569
 20
224.720142
 30
0.0
 10
137.213569
 20
230.012866
 30
0.0
 10
141.504170
 20
234.303467
 30
0.0
 10
146.796895
 20
234.303467
 30
0.0
  0
SPLINE
  5
175
100
AcDbEntity
  8
0
 62
1
100
AcDbSpline
 70
8
 71
3
 72
8
 73
4
 74
0
 40
0
 40
0
 40
0
 40
0
 40
1
 40
1
 40
1
 40
1
 10
146.796895
 20
234.303467
 30
0.0
 10
152.089619
 20
234.303467
 30
0.0
 10
156.380220
 20
230.012866
 30
0.0
 10
156.380220
 20
224.720142
 30
0.0
  0
LWPOLYLINE
  5
176
100
AcDbEntity
  8
0
 62
1
100
AcDbPolyline
 90
2
 70
0
 10
177.392636
 20
231.026173
 30
0.0
 10
177.392636
 20
229.461896
 30
0.0
  0
SPLINE
  5
177
100
AcDbEntity
  8
0
 62
1
100
AcDbSpline
 70
8
 71
3
 72
8
 73
4
 74
0
 40
0
 40
0
 40
0
 40
0
 40
1
 40
1
 40
1
 40
1
 10
423.852555
 20
267.600498
 30
0.0
 10
419.631087
 20
267.149409
 30
0.0
 10
416.500435
 20
263.474228
 30
0.0
 10
416.726300
 20
259.234740
 30
0.0
  0
SPLINE
  5
178
100
AcDbEntity
  8
0
 62
1
100
AcDbSpline
 70
8
 71
3
 72
8
 73
4
 74
0
 40
0
 40
0
 40
0
 40
0
 40
1
 40
1
 40
1
 40
1
 10
416.726300
 20
259.234740
 30
0.0
 10
416.952164
 20
254.995253
 30
0.0
 10
420.455587
 20
251.673511
 30
0.0
 10
424.701087
 20
251.673511
 30
0.0
  0
SPLINE
  5
179
100
AcDbEntity
  8
0
 62
1
100
AcDbSpline
 70
8
 71
3
 72
8
 73
4
 74
0
 40
0
 40
0
 40
0
 40
0
 40
1
 40
1
 40
1
 40
1
 10
424.701087
 20
251.673511
 30
0.0
 10
428.946587
 20
251.673511
 30
0.0
 10
432.450009
 20
254.995253
 30
0.0
 10
432.675874
 20
259.234740
 30
0.0
  0
SPLINE
  5
17a
100
AcDbEntity
  8
0
 62
1
100
AcDbSpline
 70
8
 71
3
 72
8
 73
4
 74
0
 40
0
 40
0
 40
0
 40
0
 40
1
 40
1
 40
1
 40
1
 10
432.675874
 20
259.234740
 30
0.0
 10
432.901738
 20
263.474228
 30
0.0
 10
429.771087
 20
267.149409
 30
0.0
 10
425.549619
 20
267.600498
 30
0.0
  0
LWPOLYLINE
  5
17b
100
AcDbEntity
  8
0
 62
1
100
AcDbPolyline
 90
1
 70
1
 10
156.380220
 20
224.720142
 30
0.0
  0
LWPOLYLINE
  5
17c
100
AcDbEntity
  8
0
 62
1
100
AcDbPolyline
 90
2
 70
0
 10
423.853560
 20
266.647159
 30
0.0
 10
423.853560
 20
267.600498
 30
0.0
  0
LWPOLYLINE
  5
17d
100
AcDbEntity
  8
0
 62
1
100
AcDbPolyline
 90
2
 70
0
 10
423.853560
 20
266.647159
 30
0.0
 10
425.549619
 20
266.647159
 30
0.0
  0
SPLINE
  5
17e
100
AcDbEntity
  8
0
 62
1
100
AcDbSpline
 70
8
 71
3
 72
8
 73
4
 74
0
 40
0
 40
0
 40
0
 40
0
 40
1
 40
1
 40
1
 40
1
 10
418.661589
 20
211.410323
 30
0.0
 10
415.304657
 20
211.064882
 30
0.0
 10
412.806874
 20
208.150005
 30
0.0
 10
412.979822
 20
204.779781
 30
0.0
  0
SPLINE
  5
17f
100
AcDbEntity
  8
0
 62
1
100
AcDbSpline
 70
8
 71
3
 72
8
 73
4
 74
0
 40
0
 40
0
 40
0
 40
0
 40
1
 40
1
 40
1
 40
1
 10
412.979822
 20
204.779781
 30
0.0
 10
413.152770
 20
201.409557
 30
0.0
 10
415.935807
 20
198.765672
 30
0.0
 10
419.310466
 20
198.765672
 30
0.0
  0
SPLINE
  5
180
100
AcDbEntity
  8
0
 62
1
100
AcDbSpline
 70
8
 71
3
 72
8
 73
4
 74
0
 40
0
 40
0
 40
0
 40
0
 40
1
 40
1
 40
1
 40
1
 10
419.310466
 20
198.765672
 30
0.0
 10
422.685125
 20
198.765672
 30
0.0
 10
425.468163
 20
201.409557
 30
0.0
 10
425.641110
 20
204.779781
 30
0.0
  0
SPLINE
  5
181
100
AcDbEntity
  8
0
 62
1
100
AcDbSpline
 70
8
 71
3
 72
8
 73
4
 74
0
 40
0
 40
0
 40
0
 40
0
 40
1
 40
1
 40
1
 40
1
 10
425.641110
 20
204.779781
 30
0.0
 10
425.814058
 20
208.150005
 30
0.0
 10
423.316276
 20
211.064882
 30
0.0
 10
419.959344
 20
211.410323
 30
0.0
  0
LWPOLYLINE
  5
182
100
AcDbEntity
  8
0
 62
1
100
AcDbPolyline
 90
2
 70
0
 10
425.549619
 20
267.600498
 30
0.0
 10
425.549619
 20
266.647159
 30
0.0
  0
LWPOLYLINE
  5
183
100
AcDbEntity
  8
0
 62
1
100
AcDbPolyline
 90
2
 70
0
 10
418.661589
 20
209.846045
 30
0.0
 10
418.661589
 20
211.410323
 30
0.0
  0
LWPOLYLINE
  5
184
100
AcDbEntity
  8
0
 62
1
100
AcDbPolyline
 90
2
 70
0
 10
418.661589
 20
209.846045
 30
0.0
 10
419.959344
 20
209.846045
 30
0.0
  0
SPLINE
  5
185
100
AcDbEntity
  8
0
 62
1
100
AcDbSpline
 70
8
 71
3
 72
8
 73
4
 74
0
 40
0
 40
0
 40
0
 40
0
 40
1
 40
1
 40
1
 40
1
 10
441.322146
 20
211.410323
 30
0.0
 10
437.965214
 20
211.064882
 30
0.0
 10
435.467431
 20
208.150005
 30
0.0
 10
435.640379
 20
204.779781
 30
0.0
  0
SPLINE
  5
186
100
AcDbEntity
  8
0
 62
1
100
AcDbSpline
 70
8
 71
3
 72
8
 73
4
 74
0
 40
0
 40
0
 40
0
 40
0
 40
1
 40
1
 40
1
 40
1
 10
435.640379
 20
204.779781
 30
0.0
 10
435.813326
 20
201.409557
 30
0.0
 10
438.596364
 20
198.765672
 30
0.0
 10
441.971023
 20
198.765672
 30
0.0
  0
SPLINE
  5
187
100
AcDbEntity
  8
0
 62
1
100
AcDbSpline
 70
8
 71
3
 72
8
 73
4
 74
0
 40
0
 40
0
 40
0
 40
0
 40
1
 40
1
 40
1
 40
1
 10
441.971023
 20
198.765672
 30
0.0
 10
445.345682
 20
198.765672
 30
0.0
 10
448.128719
 20
201.409557
 30
0.0
 10
448.301667
 20
204.779781
 30
0.0
  0
SPLINE
  5
188
100
AcDbEntity
  8
0
 62
1
100
AcDbSpline
 70
8
 71
3
 72
8
 73
4
 74
0
 40
0
 40
0
 40
0
 40
0
 40
1
 40
1
 40
1
 40
1
 10
448.301667
 20
204.779781
 30
0.0
 10
448.474615
 20
208.150005
 30
0.0
 10
445.976832
 20
211.064882
 30
0.0
 10
442.619900
 20
211.410323
 30
0.0
  0
LWPOLYLINE
  5
189
100
AcDbEntity
  8
0
 62
1
100
AcDbPolyline
 90
2
 70
0
 10
419.959344
 20
211.410323
 30
0.0
 10
419.959344
 20
209.846045
 30
0.0
  0
LWPOLYLINE
  5
18a
100
AcDbEntity
  8
0
 62
1
100
AcDbPolyline
 90
2
 70
0
 10
441.322146
 20
209.846045
 30
0.0
 10
441.322146
 20
211.410323
 30
0.0
  0
LWPOLYLINE
  5
18b
100
AcDbEntity
  8
0
 62
1
100
AcDbPolyline
 90
2
 70
0
 10
441.322146
 20
209.846045
 30
0.0
 10
442.619900
 20
209.846045
 30
0.0
  0
SPLINE
  5
18c
100
AcDbEntity
  8
0
 62
1
100
AcDbSpline
 70
8
 71
3
 72
8
 73
4
 74
0
 40
0
 40
0
 40
0
 40
0
 40
1
 40
1
 40
1
 40
1
 10
463.982702
 20
211.410323
 30
0.0
 10
460.625767
 20
211.064889
 30
0.0
 10
458.127978
 20
208.150013
 30
0.0
 10
458.300922
 20
204.779786
 30
0.0
  0
SPLINE
  5
18d
100
AcDbEntity
  8
0
 62
1
100
AcDbSpline
 70
8
 71
3
 72
8
 73
4
 74
0
 40
0
 40
0
 40
0
 40
0
 40
1
 40
1
 40
1
 40
1
 10
458.300922
 20
204.779786
 30
0.0
 10
458.473866
 20
201.409559
 30
0.0
 10
461.256905
 20
198.765671
 30
0.0
 10
464.631566
 20
198.765671
 30
0.0
  0
SPLINE
  5
18e
100
AcDbEntity
  8
0
 62
1
100
AcDbSpline
 70
8
 71
3
 72
8
 73
4
 74
0
 40
0
 40
0
 40
0
 40
0
 40
1
 40
1
 40
1
 40
1
 10
464.631566
 20
198.765671
 30
0.0
 10
468.006228
 20
198.765671
 30
0.0
 10
470.789267
 20
201.409559
 30
0.0
 10
470.962211
 20
204.779786
 30
0.0
  0
SPLINE
  5
18f
100
AcDbEntity
  8
0
 62
1
100
AcDbSpline
 70
8
 71
3
 72
8
 73
4
 74
0
 40
0
 40
0
 40
0
 40
0
 40
1
 40
1
 40
1
 40
1
 10
470.962211
 20
204.779786
 30
0.0
 10
471.135155
 20
208.150013
 30
0.0
 10
468.637366
 20
211.064889
 30
0.0
 10
465.280431
 20
211.410323
 30
0.0
  0
LWPOLYLINE
  5
190
100
AcDbEntity
  8
0
 62
1
100
AcDbPolyline
 90
2
 70
0
 10
442.619900
 20
211.410323
 30
0.0
 10
442.619900
 20
209.846045
 30
0.0
  0
LWPOLYLINE
  5
191
100
AcDbEntity
  8
0
 62
1
100
AcDbPolyline
 90
2
 70
0
 10
463.982702
 20
209.846045
 30
0.0
 10
463.982702
 20
211.410323
 30
0.0
  0
LWPOLYLINE
  5
192
100
AcDbEntity
  8
0
 62
1
100
AcDbPolyline
 90
2
 70
0
 10
463.982702
 20
209.846045
 30
0.0
 10
465.280431
 20
209.846045
 30
0.0
  0
SPLINE
  5
193
100
AcDbEntity
  8
0
 62
1
100
AcDbSpline
 70
8
 71
3
 72
8
 73
4
 74
0
 40
0
 40
0
 40
0
 40
0
 40
1
 40
1
 40
1
 40
1
 10
126.432364
 20
224.319843
 30
0.0
 10
126.432364
 20
220.896051
 30
0.0
 10
124.605793
 20
217.732336
 30
0.0
 10
121.640701
 20
216.020440
 30
0.0
  0
SPLINE
  5
194
100
AcDbEntity
  8
0
 62
1
100
AcDbSpline
 70
8
 71
3
 72
8
 73
4
 74
0
 40
0
 40
0
 40
0
 40
0
 40
1
 40
1
 40
1
 40
1
 10
121.640701
 20
216.020440
 30
0.0
 10
118.675610
 20
214.308543
 30
0.0
 10
115.022467
 20
214.308543
 30
0.0
 10
112.057376
 20
216.020440
 30
0.0
  0
SPLINE
  5
195
100
AcDbEntity
  8
0
 62
1
100
AcDbSpline
 70
8
 71
3
 72
8
 73
4
 74
0
 40
0
 40
0
 40
0
 40
0
 40
1
 40
1
 40
1
 40
1
 10
112.057376
 20
216.020440
 30
0.0
 10
109.092284
 20
217.732336
 30
0.0
 10
107.265713
 20
220.896051
 30
0.0
 10
107.265713
 20
224.319843
 30
0.0
  0
SPLINE
  5
196
100
AcDbEntity
  8
0
 62
1
100
AcDbSpline
 70
8
 71
3
 72
8
 73
4
 74
0
 40
0
 40
0
 40
0
 40
0
 40
1
 40
1
 40
1
 40
1
 10
107.265713
 20
224.319843
 30
0.0
 10
107.265713
 20
227.743636
 30
0.0
 10
109.092284
 20
230.907350
 30
0.0
 10
112.057376
 20
232.619247
 30
0.0
  0
SPLINE
  5
197
100
AcDbEntity
  8
0
 62
1
100
AcDbSpline
 70
8
 71
3
 72
8
 73
4
 74
0
 40
0
 40
0
 40
0
 40
0
 40
1
 40
1
 40
1
 40
1
 10
112.057376
 20
232.619247
 30
0.0
 10
115.022467
 20
234.331143
 30
0.0
 10
118.675610
 20
234.331143
 30
0.0
 10
121.640701
 20
232.619247
 30
0.0
  0
SPLINE
  5
198
100
AcDbEntity
  8
0
 62
1
100
AcDbSpline
 70
8
 71
3
 72
8
 73
4
 74
0
 40
0
 40
0
 40
0
 40
0
 40
1
 40
1
 40
1
 40
1
 10
121.640701
 20
232.619247
 30
0.0
 10
124.605793
 20
230.907350
 30
0.0
 10
126.432364
 20
227.743636
 30
0.0
 10
126.432364
 20
224.319843
 30
0.0
  0
LWPOLYLINE
  5
199
100
AcDbEntity
  8
0
 62
1
100
AcDbPolyline
 90
2
 70
0
 10
465.280431
 20
211.410323
 30
0.0
 10
465.280431
 20
209.846045
 30
0.0
  0
LWPOLYLINE
  5
19a
100
AcDbEntity
  8
0
 62
1
100
AcDbPolyline
 90
1
 70
1
 10
126.432364
 20
224.319843
 30
0.0
  0
LWPOLYLINE
  5
19b
100
AcDbEntity
  8
0
 62
1
100
AcDbPolyline
 90
2
 70
0
 10
191.637834
 20
251.673227
 30
0.0
 10
191.637834
 20
270.640209
 30
0.0
  0
LWPOLYLINE
  5
19c
100
AcDbEntity
  8
0
 62
1
100
AcDbPolyline
 90
2
 70
0
 10
191.637834
 20
251.673227
 30
0.0
 10
154.203008
 20
251.673227
 30
0.0
  0
LWPOLYLINE
  5
19d
100
AcDbEntity
  8
0
 62
1
100
AcDbPolyline
 90
2
 70
0
 10
154.203008
 20
270.640209
 30
0.0
 10
154.203008
 20
251.673227
 30
0.0
  0
SPLINE
  5
19e
100
AcDbEntity
  8
0
 62
1
100
AcDbSpline
 70
8
 71
3
 72
8
 73
4
 74
0
 40
0
 40
0
 40
0
 40
0
 40
1
 40
1
 40
1
 40
1
 10
225.928132
 20
279.125420
 30
0.0
 10
225.928132
 20
278.590453
 30
0.0
 10
225.642731
 20
278.096123
 30
0.0
 10
225.179436
 20
277.828639
 30
0.0
  0
SPLINE
  5
19f
100
AcDbEntity
  8
0
 62
1
100
AcDbSpline
 70
8
 71
3
 72
8
 73
4
 74
0
 40
0
 40
0
 40
0
 40
0
 40
1
 40
1
 40
1
 40
1
 10
225.179436
 20
277.828639
 30
0.0
 10
224.716141
 20
277.561156
 30
0.0
 10
224.145338
 20
277.561156
 30
0.0
 10
223.682043
 20
277.828639
 30
0.0
  0
SPLINE
  5
1a0
100
AcDbEntity
  8
0
 62
1
100
AcDbSpline
 70
8
 71
3
 72
8
 73
4
 74
0
 40
0
 40
0
 40
0
 40
0
 40
1
 40
1
 40
1
 40
1
 10
223.682043
 20
277.828639
 30
0.0
 10
223.218748
 20
278.096123
 30
0.0
 10
222.933346
 20
278.590453
 30
0.0
 10
222.933346
 20
279.125420
 30
0.0
  0
SPLINE
  5
1a1
100
AcDbEntity
  8
0
 62
1
100
AcDbSpline
 70
8
 71
3
 72
8
 73
4
 74
0
 40
0
 40
0
 40
0
 40
0
 40
1
 40
1
 40
1
 40
1
 10
222.933346
 20
279.125420
 30
0.0
 10
222.933346
 20
279.660387
 30
0.0
 10
223.218748
 20
280.154717
 30
0.0
 10
223.682043
 20
280.422200
 30
0.0
  0
SPLINE
  5
1a2
100
AcDbEntity
  8
0
 62
1
100
AcDbSpline
 70
8
 71
3
 72
8
 73
4
 74
0
 40
0
 40
0
 40
0
 40
0
 40
1
 40
1
 40
1
 40
1
 10
223.682043
 20
280.422200
 30
0.0
 10
224.145338
 20
280.689684
 30
0.0
 10
224.716141
 20
280.689684
 30
0.0
 10
225.179436
 20
280.422200
 30
0.0
  0
SPLINE
  5
1a3
100
AcDbEntity
  8
0
 62
1
100
AcDbSpline
 70
8
 71
3
 72
8
 73
4
 74
0
 40
0
 40
0
 40
0
 40
0
 40
1
 40
1
 40
1
 40
1
 10
225.179436
 20
280.422200
 30
0.0
 10
225.642731
 20
280.154717
 30
0.0
 10
225.928132
 20
279.660387
 30
0.0
 10
225.928132
 20
279.125420
 30
0.0
  0
LWPOLYLINE
  5
1a4
100
AcDbEntity
  8
0
 62
1
100
AcDbPolyline
 90
2
 70
0
 10
154.203008
 20
270.640209
 30
0.0
 10
191.637834
 20
270.640209
 30
0.0
  0
SPLINE
  5
1a5
100
AcDbEntity
  8
0
 62
1
100
AcDbSpline
 70
8
 71
3
 72
8
 73
4
 74
0
 40
0
 40
0
 40
0
 40
0
 40
1
 40
1
 40
1
 40
1
 10
159.044570
 20
243.187992
 30
0.0
 10
159.044570
 20
242.653025
 30
0.0
 10
158.759169
 20
242.158695
 30
0.0
 10
158.295874
 20
241.891212
 30
0.0
  0
SPLINE
  5
1a6
100
AcDbEntity
  8
0
 62
1
100
AcDbSpline
 70
8
 71
3
 72
8
 73
4
 74
0
 40
0
 40
0
 40
0
 40
0
 40
1
 40
1
 40
1
 40
1
 10
158.295874
 20
241.891212
 30
0.0
 10
157.832579
 20
241.623728
 30
0.0
 10
157.261776
 20
241.623728
 30
0.0
 10
156.798481
 20
241.891212
 30
0.0
  0
SPLINE
  5
1a7
100
AcDbEntity
  8
0
 62
1
100
AcDbSpline
 70
8
 71
3
 72
8
 73
4
 74
0
 40
0
 40
0
 40
0
 40
0
 40
1
 40
1
 40
1
 40
1
 10
156.798481
 20
241.891212
 30
0.0
 10
156.335186
 20
242.158695
 30
0.0
 10
156.049784
 20
242.653025
 30
0.0
 10
156.049784
 20
243.187992
 30
0.0
  0
SPLINE
  5
1a8
100
AcDbEntity
  8
0
 62
1
100
AcDbSpline
 70
8
 71
3
 72
8
 73
4
 74
0
 40
0
 40
0
 40
0
 40
0
 40
1
 40
1
 40
1
 40
1
 10
156.049784
 20
243.187992
 30
0.0
 10
156.049784
 20
243.722959
 30
0.0
 10
156.335186
 20
244.217289
 30
0.0
 10
156.798481
 20
244.484773
 30
0.0
  0
SPLINE
  5
1a9
100
AcDbEntity
  8
0
 62
1
100
AcDbSpline
 70
8
 71
3
 72
8
 73
4
 74
0
 40
0
 40
0
 40
0
 40
0
 40
1
 40
1
 40
1
 40
1
 10
156.798481
 20
244.484773
 30
0.0
 10
157.261776
 20
244.752256
 30
0.0
 10
157.832579
 20
244.752256
 30
0.0
 10
158.295874
 20
244.484773
 30
0.0
  0
SPLINE
  5
1aa
100
AcDbEntity
  8
0
 62
1
100
AcDbSpline
 70
8
 71
3
 72
8
 73
4
 74
0
 40
0
 40
0
 40
0
 40
0
 40
1
 40
1
 40
1
 40
1
 10
158.295874
 20
244.484773
 30
0.0
 10
158.759169
 20
244.217289
 30
0.0
 10
159.044570
 20
243.722959
 30
0.0
 10
159.044570
 20
243.187992
 30
0.0
  0
LWPOLYLINE
  5
1ab
100
AcDbEntity
  8
0
 62
1
100
AcDbPolyline
 90
1
 70
1
 10
225.928132
 20
279.125420
 30
0.0
  0
SPLINE
  5
1ac
100
AcDbEntity
  8
0
 62
1
100
AcDbSpline
 70
8
 71
3
 72
8
 73
4
 74
0
 40
0
 40
0
 40
0
 40
0
 40
1
 40
1
 40
1
 40
1
 10
225.928132
 20
243.187992
 30
0.0
 10
225.928132
 20
242.653025
 30
0.0
 10
225.642731
 20
242.158695
 30
0.0
 10
225.179436
 20
241.891212
 30
0.0
  0
SPLINE
  5
1ad
100
AcDbEntity
  8
0
 62
1
100
AcDbSpline
 70
8
 71
3
 72
8
 73
4
 74
0
 40
0
 40
0
 40
0
 40
0
 40
1
 40
1
 40
1
 40
1
 10
225.179436
 20
241.891212
 30
0.0
 10
224.716141
 20
241.623728
 30
0.0
 10
224.145338
 20
241.623728
 30
0.0
 10
223.682043
 20
241.891212
 30
0.0
  0
SPLINE
  5
1ae
100
AcDbEntity
  8
0
 62
1
100
AcDbSpline
 70
8
 71
3
 72
8
 73
4
 74
0
 40
0
 40
0
 40
0
 40
0
 40
1
 40
1
 40
1
 40
1
 10
223.682043
 20
241.891212
 30
0.0
 10
223.218748
 20
242.158695
 30
0.0
 10
222.933346
 20
242.653025
 30
0.0
 10
222.933346
 20
243.187992
 30
0.0
  0
SPLINE
  5
1af
100
AcDbEntity
  8
0
 62
1
100
AcDbSpline
 70
8
 71
3
 72
8
 73
4
 74
0
 40
0
 40
0
 40
0
 40
0
 40
1
 40
1
 40
1
 40
1
 10
222.933346
 20
243.187992
 30
0.0
 10
222.933346
 20
243.722959
 30
0.0
 10
223.218748
 20
244.217289
 30
0.0
 10
223.682043
 20
244.484773
 30
0.0
  0
SPLINE
  5
1b0
100
AcDbEntity
  8
0
 62
1
100
AcDbSpline
 70
8
 71
3
 72
8
 73
4
 74
0
 40
0
 40
0
 40
0
 40
0
 40
1
 40
1
 40
1
 40
1
 10
223.682043
 20
244.484773
 30
0.0
 10
224.145338
 20
244.752256
 30
0.0
 10
224.716141
 20
244.752256
 30
0.0
 10
225.179436
 20
244.484773
 30
0.0
  0
SPLINE
  5
1b1
100
AcDbEntity
  8
0
 62
1
100
AcDbSpline
 70
8
 71
3
 72
8
 73
4
 74
0
 40
0
 40
0
 40
0
 40
0
 40
1
 40
1
 40
1
 40
1
 10
225.179436
 20
244.484773
 30
0.0
 10
225.642731
 20
244.217289
 30
0.0
 10
225.928132
 20
243.722959
 30
0.0
 10
225.928132
 20
243.187992
 30
0.0
  0
LWPOLYLINE
  5
1b2
100
AcDbEntity
  8
0
 62
1
100
AcDbPolyline
 90
1
 70
1
 10
159.044570
 20
243.187992
 30
0.0
  0
LWPOLYLINE
  5
1b3
100
AcDbEntity
  8
0
 62
1
100
AcDbPolyline
 90
1
 70
1
 10
225.928132
 20
243.187992
 30
0.0
  0
ENDSEC
  0
SECTION
  2
OBJECTS
  0
DICTIONARY
  5
C
330
0
100
AcDbDictionary
  3
ACAD_GROUP
350
D
  3
ACAD_MLINESTYLE
350
17
  0
DICTIONARY
  5
D
330
C
100
AcDbDictionary
  0
DICTIONARY
  5
1A
330
C
100
AcDbDictionary
  0
DICTIONARY
  5
17
330
C
100
AcDbDictionary
  3
STANDARD
350
18
  0
DICTIONARY
  5
19
330
C
100
AcDbDictionary
  0
ENDSEC
  0
EOF
