999
dxfrw 0.6.3
  0
SECTION
  2
HEADER
  9
$ACADVER
  1
AC1009
  9
$DWGCODEPAGE
  3
ANSI_1252
  9
$INSBASE
 10
0
 20
0
 30
0
  9
$EXTMIN
 10
0.8831369999999999
 20
1.74642
 30
0
  9
$EXTMAX
 10
5.60596
 20
3.03386
 30
0
  9
$LIMMIN
 10
0
 20
0
  9
$LIMMAX
 10
420
 20
297
  9
$ORTHOMODE
 70
    0
  9
$REGENMODE
 70
    1
  9
$FILLMODE
 70
    0
  9
$QTEXTMODE
 70
    0
  9
$MIRRTEXT
 70
    0
  9
$DRAGMODE
 70
    2
  9
$LTSCALE
 40
1
  9
$OSMODE
 70
    0
  9
$ATTMODE
 70
    0
  9
$TEXTSIZE
 40
2.5
  9
$TRACEWID
 40
15.68
  9
$TEXTSTYLE
  7
STANDARD
  9
$CLAYER
  8
0
  9
$CELTYPE
  6
BYLAYER
  9
$CECOLOR
 62
  256
  9
$DIMSCALE
 40
2.5
  9
$DIMASZ
 40
2.5
  9
$DIMEXO
 40
0.625
  9
$DIMDLI
 40
3.75
  9
$DIMRND
 40
0
  9
$DIMDLE
 40
0
  9
$DIMEXE
 40
1.25
  9
$DIMTP
 40
0
  9
$DIMTM
 40
0
  9
$DIMTXT
 40
2.5
  9
$DIMCEN
 40
2.5
  9
$DIMTSZ
 40
0
  9
$DIMTOL
 70
    0
  9
$DIMLIM
 70
    0
  9
$DIMTIH
 70
    0
  9
$DIMTOH
 70
    0
  9
$DIMSE1
 70
    0
  9
$DIMSE2
 70
    0
  9
$DIMTAD
 70
    1
  9
$DIMZIN
 70
    8
  9
$DIMBLK
  1

  9
$DIMASO
 70
    1
  9
$DIMSHO
 70
    1
  9
$DIMPOST
  1

  9
$DIMAPOST
  1

  9
$DIMALT
 70
    0
  9
$DIMALTD
 70
    3
  9
$DIMALTF
 40
0.03937
  9
$DIMLFAC
 40
1
  9
$DIMTOFL
 70
    1
  9
$DIMTVP
 40
0
  9
$DIMTIX
 70
    0
  9
$DIMSOXD
 70
    0
  9
$DIMSAH
 70
    0
  9
$DIMBLK1
  1

  9
$DIMBLK2
  1

  9
$DIMSTYLE
  2
STANDARD
  9
$DIMCLRD
 70
    0
  9
$DIMCLRE
 70
    0
  9
$DIMCLRT
 70
    0
  9
$DIMTFAC
 40
1
  9
$DIMGAP
 40
0.625
  9
$LUNITS
 70
    2
  9
$LUPREC
 70
    4
  9
$SKETCHINC
 40
1
  9
$FILLETRAD
 40
0
  9
$AUNITS
 70
    0
  9
$AUPREC
 70
    2
  9
$MENU
  1
.
  9
$ELEVATION
 40
0
  9
$PELEVATION
 40
0
  9
$THICKNESS
 40
0
  9
$LIMCHECK
 70
    0
  9
$BLIPMODE
 70
    0
  9
$CHAMFERA
 40
0
  9
$CHAMFERB
 40
0
  9
$SKPOLY
 70
    0
  9
$USRTIMER
 70
    1
  9
$ANGBASE
 50
0
  9
$ANGDIR
 70
    0
  9
$PDMODE
 70
   34
  9
$PDSIZE
 40
0
  9
$PLINEWID
 40
0
  9
$COORDS
 70
    2
  9
$SPLFRAME
 70
    1
  9
$SPLINETYPE
 70
    2
  9
$SPLINESEGS
 70
    8
  9
$ATTDIA
 70
    1
  9
$ATTREQ
 70
    1
  9
$HANDLING
 70
    1
  9
$HANDSEED
  5
20000
  9
$SURFTAB1
 70
    6
  9
$SURFTAB2
 70
    6
  9
$SURFTYPE
 70
    6
  9
$SURFU
 70
    6
  9
$SURFV
 70
    6
  9
$UCSNAME
  2

  9
$UCSORG
 10
0
 20
0
 30
0
  9
$UCSXDIR
 10
1
 20
0
 30
0
  9
$UCSYDIR
 10
0
 20
1
 30
0
  9
$PUCSNAME
  2

  9
$PUCSORG
 10
0
 20
0
 30
0
  9
$PUCSXDIR
 10
1
 20
0
 30
0
  9
$PUCSYDIR
 10
0
 20
1
 30
0
  9
$USERI1
 70
    0
  9
$USERI2
 70
    0
  9
$USERI3
 70
    0
  9
$USERI4
 70
    0
  9
$USERI5
 70
    0
  9
$USERR1
 40
0
  9
$USERR2
 40
0
  9
$USERR3
 40
0
  9
$USERR4
 40
0
  9
$USERR5
 40
0
  9
$WORLDVIEW
 70
    1
  9
$SHADEDGE
 70
    3
  9
$SHADEDIF
 70
   70
  9
$TILEMODE
 70
    1
  9
$MAXACTVP
 70
   64
  9
$PLIMCHECK
 70
    0
  9
$PEXTMIN
 10
0
 20
0
 30
0
  9
$PEXTMAX
 10
0
 20
0
 30
0
  9
$SNAPSTYLE
 70
    0
  9
$PLIMMIN
 10
0
 20
0
  9
$PLIMMAX
 10
210
 20
297
  9
$UNITMODE
 70
    0
  9
$VISRETAIN
 70
    1
  9
$PLINEGEN
 70
    0
  9
$PSLTSCALE
 70
    1
  0
ENDSEC
  0
SECTION
  2
TABLES
  0
TABLE
  2
VPORT
 70
    1
  0
VPORT
  2
*ACTIVE
 70
    0
 10
0
 20
0
 11
1
 21
1
 12
32.75
 22
70.5
 13
0
 23
0
 14
10
 24
10
 15
10
 25
10
 16
0
 26
0
 36
1
 17
0
 27
0
 37
0
 40
209.75
 41
0.6674612634088201
 42
50
 43
0
 44
0
 50
0
 51
0
 71
    0
 72
  100
 73
    1
 74
    3
 75
    0
 76
    1
 77
    0
 78
    0
  0
ENDTAB
  0
TABLE
  2
LTYPE
 70
    4
  0
LTYPE
  2
BYBLOCK
 70
    0
  3

 72
   65
 73
    0
 40
0
  0
LTYPE
  2
BYLAYER
 70
    0
  3

 72
   65
 73
    0
 40
0
  0
LTYPE
  2
CONTINUOUS
 70
    0
  3
Solid line
 72
   65
 73
    0
 40
0
  0
LTYPE
  2
DOT
 70
    0
  3
Dot . . . . . . . . . . . . . . . . . . . . . .
 72
   65
 73
    2
 40
6.35
 49
0
 49
-6.35
  0
LTYPE
  2
DOTTINY
 70
    0
  3
Dot (.15x) .....................................
 72
   65
 73
    2
 40
0.9525
 49
0
 49
-0.9525
  0
LTYPE
  2
DOT2
 70
    0
  3
Dot (.5x) .....................................
 72
   65
 73
    2
 40
3.175
 49
0
 49
-3.175
  0
LTYPE
  2
DOTX2
 70
    0
  3
Dot (2x) .  .  .  .  .  .  .  .  .  .  .  .  .
 72
   65
 73
    2
 40
12.7
 49
0
 49
-12.7
  0
LTYPE
  2
DASHED
 70
    0
  3
Dashed _ _ _ _ _ _ _ _ _ _ _ _ _ _ _ _ _
 72
   65
 73
    2
 40
19.05
 49
12.7
 49
-6.35
  0
LTYPE
  2
DASHEDTINY
 70
    0
  3
Dashed (.15x) _ _ _ _ _ _ _ _ _ _ _ _ _ _ _ _ _
 72
   65
 73
    2
 40
2.8575
 49
1.905
 49
-0.9525
  0
LTYPE
  2
DASHED2
 70
    0
  3
Dashed (.5x) _ _ _ _ _ _ _ _ _ _ _ _ _ _ _ _ _
 72
   65
 73
    2
 40
9.524999999999999
 49
6.35
 49
-3.175
  0
LTYPE
  2
DASHEDX2
 70
    0
  3
Dashed (2x) ____  ____  ____  ____  ____  ___
 72
   65
 73
    2
 40
38.09999999999999
 49
25.4
 49
-12.7
  0
LTYPE
  2
DASHDOT
 70
    0
  3
Dash dot __ . __ . __ . __ . __ . __ . __ . __
 72
   65
 73
    4
 40
25.4
 49
12.7
 49
-6.35
 49
0
 49
-6.35
  0
LTYPE
  2
DASHDOTTINY
 70
    0
  3
Dash dot (.15x) _._._._._._._._._._._._._._._.
 72
   65
 73
    4
 40
3.81
 49
1.905
 49
-0.9525
 49
0
 49
-0.9525
  0
LTYPE
  2
DASHDOT2
 70
    0
  3
Dash dot (.5x) _._._._._._._._._._._._._._._.
 72
   65
 73
    4
 40
12.7
 49
6.35
 49
-3.175
 49
0
 49
-3.175
  0
LTYPE
  2
DASHDOTX2
 70
    0
  3
Dash dot (2x) ____  .  ____  .  ____  .  ___
 72
   65
 73
    4
 40
50.8
 49
25.4
 49
-12.7
 49
0
 49
-12.7
  0
LTYPE
  2
DIVIDE
 70
    0
  3
Divide ____ . . ____ . . ____ . . ____ . . ____
 72
   65
 73
    6
 40
31.75
 49
12.7
 49
-6.35
 49
0
 49
-6.35
 49
0
 49
-6.35
  0
LTYPE
  2
DIVIDETINY
 70
    0
  3
Divide (.15x) __..__..__..__..__..__..__..__.._
 72
   65
 73
    6
 40
4.7625
 49
1.905
 49
-0.9525
 49
0
 49
-0.9525
 49
0
 49
-0.9525
  0
LTYPE
  2
DIVIDE2
 70
    0
  3
Divide (.5x) __..__..__..__..__..__..__..__.._
 72
   65
 73
    6
 40
15.875
 49
6.35
 49
-3.175
 49
0
 49
-3.175
 49
0
 49
-3.175
  0
LTYPE
  2
DIVIDEX2
 70
    0
  3
Divide (2x) ________  .  .  ________  .  .  _
 72
   65
 73
    6
 40
63.5
 49
25.4
 49
-12.7
 49
0
 49
-12.7
 49
0
 49
-12.7
  0
LTYPE
  2
BORDER
 70
    0
  3
Border __ __ . __ __ . __ __ . __ __ . __ __ .
 72
   65
 73
    6
 40
44.45
 49
12.7
 49
-6.35
 49
12.7
 49
-6.35
 49
0
 49
-6.35
  0
LTYPE
  2
BORDERTINY
 70
    0
  3
Border (.15x) __.__.__.__.__.__.__.__.__.__.__.
 72
   65
 73
    6
 40
6.6675
 49
1.905
 49
-0.9525
 49
1.905
 49
-0.9525
 49
0
 49
-0.9525
  0
LTYPE
  2
BORDER2
 70
    0
  3
Border (.5x) __.__.__.__.__.__.__.__.__.__.__.
 72
   65
 73
    6
 40
22.225
 49
6.35
 49
-3.175
 49
6.35
 49
-3.175
 49
0
 49
-3.175
  0
LTYPE
  2
BORDERX2
 70
    0
  3
Border (2x) ____  ____  .  ____  ____  .  ___
 72
   65
 73
    6
 40
88.89999999999999
 49
25.4
 49
-12.7
 49
25.4
 49
-12.7
 49
0
 49
-12.7
  0
LTYPE
  2
CENTER
 70
    0
  3
Center ____ _ ____ _ ____ _ ____ _ ____ _ ____
 72
   65
 73
    4
 40
50.8
 49
31.75
 49
-6.35
 49
6.35
 49
-6.35
  0
LTYPE
  2
CENTERTINY
 70
    0
  3
Center (.15x) ___ _ ___ _ ___ _ ___ _ ___ _ ___
 72
   65
 73
    4
 40
7.62
 49
4.7625
 49
-0.9525
 49
0.9525
 49
-0.9525
  0
LTYPE
  2
CENTER2
 70
    0
  3
Center (.5x) ___ _ ___ _ ___ _ ___ _ ___ _ ___
 72
   65
 73
    4
 40
28.575
 49
19.05
 49
-3.175
 49
3.175
 49
-3.175
  0
LTYPE
  2
CENTERX2
 70
    0
  3
Center (2x) ________  __  ________  __  _____
 72
   65
 73
    4
 40
101.6
 49
63.5
 49
-12.7
 49
12.7
 49
-12.7
  0
ENDTAB
  0
TABLE
  2
LAYER
 70
    1
  0
LAYER
  2
0
 70
    0
 62
    7
  6
CONTINUOUS
  0
ENDTAB
  0
TABLE
  2
STYLE
 70
    3
  0
STYLE
  2
DEJAVUSANS
 70
    0
 40
0
 41
1
 50
0
 71
    0
 42
1
  3
DEJAVUSANS
  4

  0
STYLE
  2
STANDARD
 70
    0
 40
0
 41
1
 50
0
 71
    0
 42
1
  3
TXT
  4

  0
ENDTAB
  0
TABLE
  2
VIEW
 70
    0
  0
ENDTAB
  0
TABLE
  2
UCS
 70
    0
  0
ENDTAB
  0
TABLE
  2
APPID
 70
    1
  0
APPID
  2
ACAD
 70
    0
  0
APPID
  2
LIBRECAD
 70
    0
  0
ENDTAB
  0
TABLE
  2
DIMSTYLE
 70
    1
  0
DIMSTYLE
  2
STANDARD
 70
    0
  3

  4

  5

  6

  7

 40
1
 41
2.5
 42
0.625
 43
0.38
 44
1.25
 45
0
 46
0
 47
0
 48
0
 49
1
140
2.5
141
0.09
142
2.5
143
25.4
144
1
145
0
146
1
147
0.625
 71
    0
 72
    0
 73
    0
 74
    1
 75
    0
 76
    0
 77
    0
 78
    1
170
    0
171
    2
172
    0
173
    0
174
    0
175
    0
176
    0
177
    0
178
    0
  0
ENDTAB
  0
ENDSEC
  0
SECTION
  2
BLOCKS
  0
BLOCK
  8
0
  2
$MODEL_SPACE
 70
    0
 10
0
 20
0
 30
0
  3
$MODEL_SPACE
  1

  0
ENDBLK
  8
0
  0
BLOCK
  8
0
  2
$PAPER_SPACE
 70
    0
 10
0
 20
0
 30
0
  3
$PAPER_SPACE
  1

  0
ENDBLK
  8
0
  0
ENDSEC
  0
SECTION
  2
ENTITIES
  0
TEXT
  5
31
  8
0
  6
BYLAYER
 62
    0
 10
1.27376
 20
1.82637
 30
0
 40
0.0416667
  1
Contac
 50
0
 41
1
 51
0
  7
DEJAVUSANS
 71
    0
210
0
220
0
230
1
  0
TEXT
  5
32
  8
0
  6
BYLAYER
 62
    0
 10
1.4195
 20
1.82637
 30
0
 40
0.0416667
  1
t
 50
0
 41
1
 51
0
  7
DEJAVUSANS
 71
    0
210
0
220
0
230
1
  0
TEXT
  5
33
  8
0
  6
BYLAYER
 62
    0
 10
1.30629
 20
2.12325
 30
0
 40
0.0416667
  1
Start
 50
0
 41
1
 51
0
  7
DEJAVUSANS
 71
    0
210
0
220
0
230
1
  0
TEXT
  5
34
  8
0
  6
BYLAYER
 62
    0
 10
1.4894
 20
2.13133
 30
0
 40
0.0416667
  1
r
 50
0
 41
1
 51
0
  7
DEJAVUSANS
 71
    0
210
0
220
0
230
1
  0
TEXT
  5
35
  8
0
  6
BYLAYER
 62
    0
 10
1.50561
 20
2.13133
 30
0
 40
0.0416667
  1
eset gear
 50
0
 41
1
 51
0
  7
DEJAVUSANS
 71
    0
210
0
220
0
230
1
  0
TEXT
  5
36
  8
0
  6
BYLAYER
 62
    0
 10
1.70285
 20
2.13133
 30
0
 40
0.0416667
  1
 motor
 50
0
 41
1
 51
0
  7
DEJAVUSANS
 71
    0
210
0
220
0
230
1
  0
TEXT
  5
37
  8
0
  6
BYLAYER
 62
    0
 10
1.90047
 20
2.13133
 30
0
 40
0.0416667
  1
Display
 50
0
 41
1
 51
0
  7
DEJAVUSANS
 71
    0
210
0
220
0
230
1
  0
TEXT
  5
38
  8
0
  6
BYLAYER
 62
    0
 10
1.59608
 20
1.82637
 30
0
 40
0.0416667
  1
Neutra
 50
0
 41
1
 51
0
  7
DEJAVUSANS
 71
    0
210
0
220
0
230
1
  0
TEXT
  5
39
  8
0
  6
BYLAYER
 62
    0
 10
1.73825
 20
1.82637
 30
0
 40
0.0416667
  1
l
 50
0
 41
1
 51
0
  7
DEJAVUSANS
 71
    0
210
0
220
0
230
1
  0
TEXT
  5
3A
  8
0
  6
BYLAYER
 62
    0
 10
1.82506
 20
1.82637
 30
0
 40
0.0416667
  1
Launc
 50
0
 41
1
 51
0
  7
DEJAVUSANS
 71
    0
210
0
220
0
230
1
  0
TEXT
  5
3B
  8
0
  6
BYLAYER
 62
    0
 10
1.94947
 20
1.82637
 30
0
 40
0.0416667
  1
h Con
 50
0
 41
1
 51
0
  7
DEJAVUSANS
 71
    0
210
0
220
0
230
1
  0
TEXT
  5
3C
  8
0
  6
BYLAYER
 62
    0
 10
2.0701
 20
1.82637
 30
0
 40
0.0416667
  1
tr
 50
0
 41
1
 51
0
  7
DEJAVUSANS
 71
    0
210
0
220
0
230
1
  0
TEXT
  5
3D
  8
0
  6
BYLAYER
 62
    0
 10
2.10268
 20
1.82637
 30
0
 40
0.0416667
  1
ol
 50
0
 41
1
 51
0
  7
DEJAVUSANS
 71
    0
210
0
220
0
230
1
  0
POLYLINE
  5
3E
  8
0
  6
BYLAYER
 62
    0
 66
    1
 10
0
 20
0
 30
0
 70
    1
  0
VERTEX
  5
3F
  8
0
  6
BYLAYER
 62
    0
 10
2.28315
 20
2.61546
 30
0
  0
VERTEX
  5
40
  8
0
  6
BYLAYER
 62
    0
 10
2.28315
 20
2.63217
 30
0
  0
VERTEX
  5
41
  8
0
  6
BYLAYER
 62
    0
 10
2.27843
 20
2.63217
 30
0
  0
VERTEX
  5
42
  8
0
  6
BYLAYER
 62
    0
 10
2.27843
 20
2.64453
 30
0
  0
VERTEX
  5
43
  8
0
  6
BYLAYER
 62
    0
 10
2.2596
 20
2.64453
 30
0
  0
VERTEX
  5
44
  8
0
  6
BYLAYER
 62
    0
 10
2.2596
 20
2.63217
 30
0
  0
VERTEX
  5
45
  8
0
  6
BYLAYER
 62
    0
 10
2.25088
 20
2.63217
 30
0
  0
VERTEX
  5
46
  8
0
  6
BYLAYER
 62
    0
 10
2.25092
 20
2.64193
 30
0
  0
VERTEX
  5
47
  8
0
  6
BYLAYER
 62
    0
 10
2.22217
 20
2.64208
 30
0
  0
VERTEX
  5
48
  8
0
  6
BYLAYER
 62
    0
 10
2.22206
 20
2.63217
 30
0
  0
VERTEX
  5
49
  8
0
  6
BYLAYER
 62
    0
 10
2.21338
 20
2.63217
 30
0
  0
VERTEX
  5
4A
  8
0
  6
BYLAYER
 62
    0
 10
2.21338
 20
2.64453
 30
0
  0
VERTEX
  5
4B
  8
0
  6
BYLAYER
 62
    0
 10
2.1945
 20
2.64453
 30
0
  0
VERTEX
  5
4C
  8
0
  6
BYLAYER
 62
    0
 10
2.1945
 20
2.63217
 30
0
  0
VERTEX
  5
4D
  8
0
  6
BYLAYER
 62
    0
 10
2.18983
 20
2.63217
 30
0
  0
VERTEX
  5
4E
  8
0
  6
BYLAYER
 62
    0
 10
2.18983
 20
2.61546
 30
0
  0
VERTEX
  5
4F
  8
0
  6
BYLAYER
 62
    0
 10
2.19314
 20
2.61546
 30
0
  0
VERTEX
  5
50
  8
0
  6
BYLAYER
 62
    0
 10
2.19314
 20
2.5779
 30
0
  0
VERTEX
  5
51
  8
0
  6
BYLAYER
 62
    0
 10
2.18983
 20
2.5779
 30
0
  0
VERTEX
  5
52
  8
0
  6
BYLAYER
 62
    0
 10
2.18983
 20
2.56119
 30
0
  0
VERTEX
  5
53
  8
0
  6
BYLAYER
 62
    0
 10
2.28315
 20
2.56119
 30
0
  0
VERTEX
  5
54
  8
0
  6
BYLAYER
 62
    0
 10
2.28315
 20
2.5779
 30
0
  0
VERTEX
  5
55
  8
0
  6
BYLAYER
 62
    0
 10
2.27946
 20
2.5779
 30
0
  0
VERTEX
  5
56
  8
0
  6
BYLAYER
 62
    0
 10
2.27946
 20
2.61546
 30
0
  0
VERTEX
  5
57
  8
0
  6
BYLAYER
 62
    0
 10
2.28315
 20
2.61546
 30
0
  0
SEQEND
  5
58
  8
0
  6
BYLAYER
 62
    0
  0
POLYLINE
  5
59
  8
0
  6
BYLAYER
 62
    0
 66
    1
 10
0
 20
0
 30
0
 70
    1
  0
VERTEX
  5
5A
  8
0
  6
BYLAYER
 62
    0
 10
2.27767
 20
2.56651
 30
0
  0
VERTEX
  5
5B
  8
0
  6
BYLAYER
 62
    0
 10
2.19532
 20
2.56651
 30
0
  0
VERTEX
  5
5C
  8
0
  6
BYLAYER
 62
    0
 10
2.19532
 20
2.57254
 30
0
  0
VERTEX
  5
5D
  8
0
  6
BYLAYER
 62
    0
 10
2.27767
 20
2.57254
 30
0
  0
VERTEX
  5
5E
  8
0
  6
BYLAYER
 62
    0
 10
2.27767
 20
2.56651
 30
0
  0
SEQEND
  5
5F
  8
0
  6
BYLAYER
 62
    0
  0
POLYLINE
  5
60
  8
0
  6
BYLAYER
 62
    0
 66
    1
 10
0
 20
0
 30
0
 70
    1
  0
VERTEX
  5
61
  8
0
  6
BYLAYER
 62
    0
 10
2.19857
 20
2.5779
 30
0
  0
VERTEX
  5
62
  8
0
  6
BYLAYER
 62
    0
 10
2.19857
 20
2.61529
 30
0
  0
VERTEX
  5
63
  8
0
  6
BYLAYER
 62
    0
 10
2.27403
 20
2.61529
 30
0
  0
VERTEX
  5
64
  8
0
  6
BYLAYER
 62
    0
 10
2.27403
 20
2.5779
 30
0
  0
VERTEX
  5
65
  8
0
  6
BYLAYER
 62
    0
 10
2.19857
 20
2.5779
 30
0
  0
SEQEND
  5
66
  8
0
  6
BYLAYER
 62
    0
  0
POLYLINE
  5
67
  8
0
  6
BYLAYER
 62
    0
 66
    1
 10
0
 20
0
 30
0
 70
    1
  0
VERTEX
  5
68
  8
0
  6
BYLAYER
 62
    0
 10
2.19532
 20
2.62679
 30
0
  0
VERTEX
  5
69
  8
0
  6
BYLAYER
 62
    0
 10
2.27767
 20
2.62679
 30
0
  0
VERTEX
  5
6A
  8
0
  6
BYLAYER
 62
    0
 10
2.27767
 20
2.62076
 30
0
  0
VERTEX
  5
6B
  8
0
  6
BYLAYER
 62
    0
 10
2.19532
 20
2.62076
 30
0
  0
VERTEX
  5
6C
  8
0
  6
BYLAYER
 62
    0
 10
2.19532
 20
2.62679
 30
0
  0
SEQEND
  5
6D
  8
0
  6
BYLAYER
 62
    0
  0
POLYLINE
  5
6E
  8
0
  6
BYLAYER
 62
    0
 66
    1
 10
0
 20
0
 30
0
 70
    1
  0
VERTEX
  5
6F
  8
0
  6
BYLAYER
 62
    0
 10
2.26508
 20
2.63917
 30
0
  0
VERTEX
  5
70
  8
0
  6
BYLAYER
 62
    0
 10
2.273
 20
2.63917
 30
0
  0
VERTEX
  5
71
  8
0
  6
BYLAYER
 62
    0
 10
2.273
 20
2.63217
 30
0
  0
VERTEX
  5
72
  8
0
  6
BYLAYER
 62
    0
 10
2.26508
 20
2.63217
 30
0
  0
VERTEX
  5
73
  8
0
  6
BYLAYER
 62
    0
 10
2.26508
 20
2.63917
 30
0
  0
SEQEND
  5
74
  8
0
  6
BYLAYER
 62
    0
  0
POLYLINE
  5
75
  8
0
  6
BYLAYER
 62
    0
 66
    1
 10
0
 20
0
 30
0
 70
    1
  0
VERTEX
  5
76
  8
0
  6
BYLAYER
 62
    0
 10
2.2276
 20
2.63672
 30
0
  0
VERTEX
  5
77
  8
0
  6
BYLAYER
 62
    0
 10
2.24544
 20
2.63661
 30
0
  0
VERTEX
  5
78
  8
0
  6
BYLAYER
 62
    0
 10
2.24539
 20
2.63217
 30
0
  0
VERTEX
  5
79
  8
0
  6
BYLAYER
 62
    0
 10
2.22754
 20
2.63217
 30
0
  0
VERTEX
  5
7A
  8
0
  6
BYLAYER
 62
    0
 10
2.2276
 20
2.63672
 30
0
  0
SEQEND
  5
7B
  8
0
  6
BYLAYER
 62
    0
  0
POLYLINE
  5
7C
  8
0
  6
BYLAYER
 62
    0
 66
    1
 10
0
 20
0
 30
0
 70
    1
  0
VERTEX
  5
7D
  8
0
  6
BYLAYER
 62
    0
 10
2.19997
 20
2.63917
 30
0
  0
VERTEX
  5
7E
  8
0
  6
BYLAYER
 62
    0
 10
2.2079
 20
2.63917
 30
0
  0
VERTEX
  5
7F
  8
0
  6
BYLAYER
 62
    0
 10
2.2079
 20
2.63217
 30
0
  0
VERTEX
  5
80
  8
0
  6
BYLAYER
 62
    0
 10
2.19997
 20
2.63217
 30
0
  0
VERTEX
  5
81
  8
0
  6
BYLAYER
 62
    0
 10
2.19997
 20
2.63917
 30
0
  0
SEQEND
  5
82
  8
0
  6
BYLAYER
 62
    0
  0
POLYLINE
  5
83
  8
0
  6
BYLAYER
 62
    0
 66
    1
 10
0
 20
0
 30
0
 70
    1
  0
VERTEX
  5
84
  8
0
  6
BYLAYER
 62
    0
 10
2.24496
 20
2.59928
 30
0
  0
VERTEX
  5
85
  8
0
  6
BYLAYER
 62
    0
 10
2.26426
 20
2.59928
 30
0
  0
VERTEX
  5
86
  8
0
  6
BYLAYER
 62
    0
 10
2.26426
 20
2.59392
 30
0
  0
VERTEX
  5
87
  8
0
  6
BYLAYER
 62
    0
 10
2.24496
 20
2.59392
 30
0
  0
VERTEX
  5
88
  8
0
  6
BYLAYER
 62
    0
 10
2.24496
 20
2.59928
 30
0
  0
SEQEND
  5
89
  8
0
  6
BYLAYER
 62
    0
  0
POLYLINE
  5
8A
  8
0
  6
BYLAYER
 62
    0
 66
    1
 10
0
 20
0
 30
0
 70
    1
  0
VERTEX
  5
8B
  8
0
  6
BYLAYER
 62
    0
 10
2.22108
 20
2.60601
 30
0
  0
VERTEX
  5
8C
  8
0
  6
BYLAYER
 62
    0
 10
2.2156
 20
2.60601
 30
0
  0
VERTEX
  5
8D
  8
0
  6
BYLAYER
 62
    0
 10
2.2156
 20
2.59928
 30
0
  0
VERTEX
  5
8E
  8
0
  6
BYLAYER
 62
    0
 10
2.20871
 20
2.59928
 30
0
  0
VERTEX
  5
8F
  8
0
  6
BYLAYER
 62
    0
 10
2.20871
 20
2.59392
 30
0
  0
VERTEX
  5
90
  8
0
  6
BYLAYER
 62
    0
 10
2.2156
 20
2.59392
 30
0
  0
VERTEX
  5
91
  8
0
  6
BYLAYER
 62
    0
 10
2.2156
 20
2.58718
 30
0
  0
VERTEX
  5
92
  8
0
  6
BYLAYER
 62
    0
 10
2.22108
 20
2.58718
 30
0
  0
VERTEX
  5
93
  8
0
  6
BYLAYER
 62
    0
 10
2.22108
 20
2.59392
 30
0
  0
VERTEX
  5
94
  8
0
  6
BYLAYER
 62
    0
 10
2.22797
 20
2.59392
 30
0
  0
VERTEX
  5
95
  8
0
  6
BYLAYER
 62
    0
 10
2.22797
 20
2.59928
 30
0
  0
VERTEX
  5
96
  8
0
  6
BYLAYER
 62
    0
 10
2.22108
 20
2.59928
 30
0
  0
VERTEX
  5
97
  8
0
  6
BYLAYER
 62
    0
 10
2.22108
 20
2.60601
 30
0
  0
SEQEND
  5
98
  8
0
  6
BYLAYER
 62
    0
  0
POLYLINE
  5
99
  8
0
  6
BYLAYER
 62
    0
 66
    1
 10
0
 20
0
 30
0
 70
    1
  0
VERTEX
  5
9A
  8
0
  6
BYLAYER
 62
    0
 10
2.25375
 20
2.71718
 30
0
  0
VERTEX
  5
9B
  8
0
  6
BYLAYER
 62
    0
 10
2.25375
 20
2.75022
 30
0
  0
VERTEX
  5
9C
  8
0
  6
BYLAYER
 62
    0
 10
2.25375
 20
2.75271
 30
0
  0
VERTEX
  5
9D
  8
0
  6
BYLAYER
 62
    0
 10
2.24963
 20
2.7601
 30
0
  0
VERTEX
  5
9E
  8
0
  6
BYLAYER
 62
    0
 10
2.24229
 20
2.76411
 30
0
  0
VERTEX
  5
9F
  8
0
  6
BYLAYER
 62
    0
 10
2.23986
 20
2.76411
 30
0
  0
VERTEX
  5
A0
  8
0
  6
BYLAYER
 62
    0
 10
2.23736
 20
2.76411
 30
0
  0
VERTEX
  5
A1
  8
0
  6
BYLAYER
 62
    0
 10
2.22999
 20
2.7601
 30
0
  0
VERTEX
  5
A2
  8
0
  6
BYLAYER
 62
    0
 10
2.22597
 20
2.75271
 30
0
  0
VERTEX
  5
A3
  8
0
  6
BYLAYER
 62
    0
 10
2.22597
 20
2.75022
 30
0
  0
VERTEX
  5
A4
  8
0
  6
BYLAYER
 62
    0
 10
2.22597
 20
2.71718
 30
0
  0
VERTEX
  5
A5
  8
0
  6
BYLAYER
 62
    0
 10
2.22487
 20
2.71625
 30
0
  0
VERTEX
  5
A6
  8
0
  6
BYLAYER
 62
    0
 10
2.21903
 20
2.70529
 30
0
  0
VERTEX
  5
A7
  8
0
  6
BYLAYER
 62
    0
 10
2.21903
 20
2.70161
 30
0
  0
VERTEX
  5
A8
  8
0
  6
BYLAYER
 62
    0
 10
2.21903
 20
2.69797
 30
0
  0
VERTEX
  5
A9
  8
0
  6
BYLAYER
 62
    0
 10
2.2251
 20
2.6869
 30
0
  0
VERTEX
  5
AA
  8
0
  6
BYLAYER
 62
    0
 10
2.23617
 20
2.68078
 30
0
  0
VERTEX
  5
AB
  8
0
  6
BYLAYER
 62
    0
 10
2.23986
 20
2.68078
 30
0
  0
VERTEX
  5
AC
  8
0
  6
BYLAYER
 62
    0
 10
2.24349
 20
2.68078
 30
0
  0
VERTEX
  5
AD
  8
0
  6
BYLAYER
 62
    0
 10
2.25456
 20
2.6869
 30
0
  0
VERTEX
  5
AE
  8
0
  6
BYLAYER
 62
    0
 10
2.26069
 20
2.69797
 30
0
  0
VERTEX
  5
AF
  8
0
  6
BYLAYER
 62
    0
 10
2.26069
 20
2.70161
 30
0
  0
VERTEX
  5
B0
  8
0
  6
BYLAYER
 62
    0
 10
2.26069
 20
2.70551
 30
0
  0
VERTEX
  5
B1
  8
0
  6
BYLAYER
 62
    0
 10
2.25478
 20
2.71625
 30
0
  0
VERTEX
  5
B2
  8
0
  6
BYLAYER
 62
    0
 10
2.25375
 20
2.71718
 30
0
  0
SEQEND
  5
B3
  8
0
  6
BYLAYER
 62
    0
  0
POLYLINE
  5
B4
  8
0
  6
BYLAYER
 62
    0
 66
    1
 10
0
 20
0
 30
0
 70
    1
  0
VERTEX
  5
B5
  8
0
  6
BYLAYER
 62
    0
 10
2.23986
 20
2.68772
 30
0
  0
VERTEX
  5
B6
  8
0
  6
BYLAYER
 62
    0
 10
2.23736
 20
2.68772
 30
0
  0
VERTEX
  5
B7
  8
0
  6
BYLAYER
 62
    0
 10
2.22999
 20
2.69185
 30
0
  0
VERTEX
  5
B8
  8
0
  6
BYLAYER
 62
    0
 10
2.22597
 20
2.69917
 30
0
  0
VERTEX
  5
B9
  8
0
  6
BYLAYER
 62
    0
 10
2.22597
 20
2.70161
 30
0
  0
VERTEX
  5
BA
  8
0
  6
BYLAYER
 62
    0
 10
2.22597
 20
2.70421
 30
0
  0
VERTEX
  5
BB
  8
0
  6
BYLAYER
 62
    0
 10
2.22982
 20
2.71132
 30
0
  0
VERTEX
  5
BC
  8
0
  6
BYLAYER
 62
    0
 10
2.23058
 20
2.71197
 30
0
  0
VERTEX
  5
BD
  8
0
  6
BYLAYER
 62
    0
 10
2.23292
 20
2.71403
 30
0
  0
VERTEX
  5
BE
  8
0
  6
BYLAYER
 62
    0
 10
2.23292
 20
2.75022
 30
0
  0
VERTEX
  5
BF
  8
0
  6
BYLAYER
 62
    0
 10
2.23292
 20
2.75196
 30
0
  0
VERTEX
  5
C0
  8
0
  6
BYLAYER
 62
    0
 10
2.23813
 20
2.75717
 30
0
  0
VERTEX
  5
C1
  8
0
  6
BYLAYER
 62
    0
 10
2.23986
 20
2.75717
 30
0
  0
VERTEX
  5
C2
  8
0
  6
BYLAYER
 62
    0
 10
2.2416
 20
2.75717
 30
0
  0
VERTEX
  5
C3
  8
0
  6
BYLAYER
 62
    0
 10
2.24681
 20
2.75196
 30
0
  0
VERTEX
  5
C4
  8
0
  6
BYLAYER
 62
    0
 10
2.24681
 20
2.75022
 30
0
  0
VERTEX
  5
C5
  8
0
  6
BYLAYER
 62
    0
 10
2.24681
 20
2.71403
 30
0
  0
VERTEX
  5
C6
  8
0
  6
BYLAYER
 62
    0
 10
2.24908
 20
2.71197
 30
0
  0
VERTEX
  5
C7
  8
0
  6
BYLAYER
 62
    0
 10
2.24978
 20
2.71132
 30
0
  0
VERTEX
  5
C8
  8
0
  6
BYLAYER
 62
    0
 10
2.25375
 20
2.70404
 30
0
  0
VERTEX
  5
C9
  8
0
  6
BYLAYER
 62
    0
 10
2.25375
 20
2.70161
 30
0
  0
VERTEX
  5
CA
  8
0
  6
BYLAYER
 62
    0
 10
2.25375
 20
2.69917
 30
0
  0
VERTEX
  5
CB
  8
0
  6
BYLAYER
 62
    0
 10
2.24963
 20
2.69185
 30
0
  0
VERTEX
  5
CC
  8
0
  6
BYLAYER
 62
    0
 10
2.24229
 20
2.68772
 30
0
  0
VERTEX
  5
CD
  8
0
  6
BYLAYER
 62
    0
 10
2.23986
 20
2.68772
 30
0
  0
SEQEND
  5
CE
  8
0
  6
BYLAYER
 62
    0
  0
POLYLINE
  5
CF
  8
0
  6
BYLAYER
 62
    0
 66
    1
 10
0
 20
0
 30
0
 70
    1
  0
VERTEX
  5
D0
  8
0
  6
BYLAYER
 62
    0
 10
2.23639
 20
2.73633
 30
0
  0
VERTEX
  5
D1
  8
0
  6
BYLAYER
 62
    0
 10
2.24333
 20
2.73633
 30
0
  0
VERTEX
  5
D2
  8
0
  6
BYLAYER
 62
    0
 10
2.24333
 20
2.69467
 30
0
  0
VERTEX
  5
D3
  8
0
  6
BYLAYER
 62
    0
 10
2.23639
 20
2.69467
 30
0
  0
VERTEX
  5
D4
  8
0
  6
BYLAYER
 62
    0
 10
2.23639
 20
2.73633
 30
0
  0
SEQEND
  5
D5
  8
0
  6
BYLAYER
 62
    0
  0
POLYLINE
  5
D6
  8
0
  6
BYLAYER
 62
    0
 66
    1
 10
0
 20
0
 30
0
 70
    1
  0
VERTEX
  5
D7
  8
0
  6
BYLAYER
 62
    0
 10
2.25028
 20
2.70161
 30
0
  0
VERTEX
  5
D8
  8
0
  6
BYLAYER
 62
    0
 10
2.25028
 20
2.69982
 30
0
  0
VERTEX
  5
D9
  8
0
  6
BYLAYER
 62
    0
 10
2.24718
 20
2.69428
 30
0
  0
VERTEX
  5
DA
  8
0
  6
BYLAYER
 62
    0
 10
2.24164
 20
2.69119
 30
0
  0
VERTEX
  5
DB
  8
0
  6
BYLAYER
 62
    0
 10
2.23986
 20
2.69119
 30
0
  0
VERTEX
  5
DC
  8
0
  6
BYLAYER
 62
    0
 10
2.23801
 20
2.69119
 30
0
  0
VERTEX
  5
DD
  8
0
  6
BYLAYER
 62
    0
 10
2.23247
 20
2.69428
 30
0
  0
VERTEX
  5
DE
  8
0
  6
BYLAYER
 62
    0
 10
2.22944
 20
2.69982
 30
0
  0
VERTEX
  5
DF
  8
0
  6
BYLAYER
 62
    0
 10
2.22944
 20
2.70161
 30
0
  0
VERTEX
  5
E0
  8
0
  6
BYLAYER
 62
    0
 10
2.22944
 20
2.70344
 30
0
  0
VERTEX
  5
E1
  8
0
  6
BYLAYER
 62
    0
 10
2.23247
 20
2.70899
 30
0
  0
VERTEX
  5
E2
  8
0
  6
BYLAYER
 62
    0
 10
2.23801
 20
2.71203
 30
0
  0
VERTEX
  5
E3
  8
0
  6
BYLAYER
 62
    0
 10
2.23986
 20
2.71203
 30
0
  0
VERTEX
  5
E4
  8
0
  6
BYLAYER
 62
    0
 10
2.24164
 20
2.71203
 30
0
  0
VERTEX
  5
E5
  8
0
  6
BYLAYER
 62
    0
 10
2.24718
 20
2.70899
 30
0
  0
VERTEX
  5
E6
  8
0
  6
BYLAYER
 62
    0
 10
2.25028
 20
2.70344
 30
0
  0
VERTEX
  5
E7
  8
0
  6
BYLAYER
 62
    0
 10
2.25028
 20
2.70161
 30
0
  0
SEQEND
  5
E8
  8
0
  6
BYLAYER
 62
    0
  0
TEXT
  5
E9
  8
0
  6
BYLAYER
 62
    0
 10
4.44036
 20
1.92967
 30
0
 40
0.0416667
  1
T
 50
0
 41
1
 51
0
  7
DEJAVUSANS
 71
    0
210
0
220
0
230
1
  0
TEXT
  5
EA
  8
0
  6
BYLAYER
 62
    0
 10
4.45972
 20
1.92967
 30
0
 40
0.0416667
  1
ract
 50
0
 41
1
 51
0
  7
DEJAVUSANS
 71
    0
210
0
220
0
230
1
  0
TEXT
  5
EB
  8
0
  6
BYLAYER
 62
    0
 10
4.54167
 20
1.92967
 30
0
 40
0.0416667
  1
ion  
 50
0
 41
1
 51
0
  7
DEJAVUSANS
 71
    0
210
0
220
0
230
1
  0
TEXT
  5
EC
  8
0
  6
BYLAYER
 62
    0
 10
4.44036
 20
1.86865
 30
0
 40
0.0416667
  1
Contr
 50
0
 41
1
 51
0
  7
DEJAVUSANS
 71
    0
210
0
220
0
230
1
  0
TEXT
  5
ED
  8
0
  6
BYLAYER
 62
    0
 10
4.55389
 20
1.86865
 30
0
 40
0.0416667
  1
ol
 50
0
 41
1
 51
0
  7
DEJAVUSANS
 71
    0
210
0
220
0
230
1
  0
TEXT
  5
EE
  8
0
  6
BYLAYER
 62
    0
 10
4.65188
 20
1.89696
 30
0
 40
0.0416667
  1
W
 50
0
 41
1
 51
0
  7
DEJAVUSANS
 71
    0
210
0
220
0
230
1
  0
TEXT
  5
EF
  8
0
  6
BYLAYER
 62
    0
 10
4.6906
 20
1.89696
 30
0
 40
0.0416667
  1
et / Dr
 50
0
 41
1
 51
0
  7
DEJAVUSANS
 71
    0
210
0
220
0
230
1
  0
TEXT
  5
F0
  8
0
  6
BYLAYER
 62
    0
 10
4.82228
 20
1.89696
 30
0
 40
0.0416667
  1
y
 50
0
 41
1
 51
0
  7
DEJAVUSANS
 71
    0
210
0
220
0
230
1
  0
TEXT
  5
F1
  8
0
  6
BYLAYER
 62
    0
 10
4.95867
 20
1.89696
 30
0
 40
0.0416667
  1
L
 50
0
 41
1
 51
0
  7
DEJAVUSANS
 71
    0
210
0
220
0
230
1
  0
TEXT
  5
F2
  8
0
  6
BYLAYER
 62
    0
 10
4.98108
 20
1.89696
 30
0
 40
0.0416667
  1
og
 50
0
 41
1
 51
0
  7
DEJAVUSANS
 71
    0
210
0
220
0
230
1
  0
TEXT
  5
F3
  8
0
  6
BYLAYER
 62
    0
 10
1.13133
 20
1.98756
 30
0
 40
0.0416667
  1
LP On
 50
0
 41
1
 51
0
  7
DEJAVUSANS
 71
    0
210
0
220
0
230
1
  0
TEXT
  5
F4
  8
0
  6
BYLAYER
 62
    0
 10
1.13133
 20
2.04708
 30
0
 40
0.0416667
  1
HP On
 50
0
 41
1
 51
0
  7
DEJAVUSANS
 71
    0
210
0
220
0
230
1
  0
TEXT
  5
F5
  8
0
  6
BYLAYER
 62
    0
 10
1.13308
 20
1.933
 30
0
 40
0.0416667
  1
O
 50
0
 41
1
 51
0
  7
DEJAVUSANS
 71
    0
210
0
220
0
230
1
  0
TEXT
  5
F6
  8
0
  6
BYLAYER
 62
    0
 10
1.16585
 20
1.933
 30
0
 40
0.0416667
  1

 50
0
 41
1
 51
0
  7
DEJAVUSANS
 71
    0
210
0
220
0
230
1
  0
TEXT
  5
F7
  8
0
  6
BYLAYER
 62
    0
 10
2.07925
 20
2.3399
 30
0
 40
0.0416667
  1
Bat
 50
0
 41
1
 51
0
  7
DEJAVUSANS
 71
    0
210
0
220
0
230
1
  0
TEXT
  5
F8
  8
0
  6
BYLAYER
 62
    0
 10
2.08346
 20
2.23725
 30
0
 40
0.0416667
  1
T
 50
0
 41
1
 51
0
  7
DEJAVUSANS
 71
    0
210
0
220
0
230
1
  0
TEXT
  5
F9
  8
0
  6
BYLAYER
 62
    0
 10
2.10186
 20
2.23725
 30
0
 40
0.0416667
  1
emp
 50
0
 41
1
 51
0
  7
DEJAVUSANS
 71
    0
210
0
220
0
230
1
  0
TEXT
  5
FA
  8
0
  6
BYLAYER
 62
    0
 10
5.10183
 20
2.12786
 30
0
 40
0.0416667
  1
On
 50
0
 41
1
 51
0
  7
DEJAVUSANS
 71
    0
210
0
220
0
230
1
  0
TEXT
  5
FB
  8
0
  6
BYLAYER
 62
    0
 10
5.10183
 20
2.04844
 30
0
 40
0.0416667
  1
O
 50
0
 41
1
 51
0
  7
DEJAVUSANS
 71
    0
210
0
220
0
230
1
  0
TEXT
  5
FC
  8
0
  6
BYLAYER
 62
    0
 10
5.1346
 20
2.04844
 30
0
 40
0.0416667
  1

 50
0
 41
1
 51
0
  7
DEJAVUSANS
 71
    0
210
0
220
0
230
1
  0
POLYLINE
  5
FD
  8
0
  6
BYLAYER
 62
    1
 66
    1
 10
0
 20
0
 30
0
 70
    1
  0
VERTEX
  5
FE
  8
0
  6
BYLAYER
 62
    1
 10
3.93289
 20
2.92458
 30
0
  0
VERTEX
  5
FF
  8
0
  6
BYLAYER
 62
    1
 10
3.93289
 20
2.92003
 30
0
  0
VERTEX
  5
100
  8
0
  6
BYLAYER
 62
    1
 10
3.92524
 20
2.90619
 30
0
  0
VERTEX
  5
101
  8
0
  6
BYLAYER
 62
    1
 10
3.9114
 20
2.89854
 30
0
  0
VERTEX
  5
102
  8
0
  6
BYLAYER
 62
    1
 10
3.90685
 20
2.89854
 30
0
  0
VERTEX
  5
103
  8
0
  6
BYLAYER
 62
    1
 10
3.90224
 20
2.89854
 30
0
  0
VERTEX
  5
104
  8
0
  6
BYLAYER
 62
    1
 10
3.8884
 20
2.90619
 30
0
  0
VERTEX
  5
105
  8
0
  6
BYLAYER
 62
    1
 10
3.88081
 20
2.92003
 30
0
  0
VERTEX
  5
106
  8
0
  6
BYLAYER
 62
    1
 10
3.88081
 20
2.92458
 30
0
  0
VERTEX
  5
107
  8
0
  6
BYLAYER
 62
    1
 10
3.88081
 20
2.92919
 30
0
  0
VERTEX
  5
108
  8
0
  6
BYLAYER
 62
    1
 10
3.8884
 20
2.94303
 30
0
  0
VERTEX
  5
109
  8
0
  6
BYLAYER
 62
    1
 10
3.90224
 20
2.95063
 30
0
  0
VERTEX
  5
10A
  8
0
  6
BYLAYER
 62
    1
 10
3.90685
 20
2.95063
 30
0
  0
VERTEX
  5
10B
  8
0
  6
BYLAYER
 62
    1
 10
3.9114
 20
2.95063
 30
0
  0
VERTEX
  5
10C
  8
0
  6
BYLAYER
 62
    1
 10
3.92524
 20
2.94303
 30
0
  0
VERTEX
  5
10D
  8
0
  6
BYLAYER
 62
    1
 10
3.93289
 20
2.92919
 30
0
  0
VERTEX
  5
10E
  8
0
  6
BYLAYER
 62
    1
 10
3.93289
 20
2.92458
 30
0
  0
SEQEND
  5
10F
  8
0
  6
BYLAYER
 62
    1
  0
POLYLINE
  5
110
  8
0
  6
BYLAYER
 62
    1
 66
    1
 10
0
 20
0
 30
0
 70
    0
  0
VERTEX
  5
111
  8
0
  6
BYLAYER
 62
    1
 10
4.46756
 20
3.03386
 30
0
  0
VERTEX
  5
112
  8
0
  6
BYLAYER
 62
    1
 10
2.02154
 20
3.03386
 30
0
  0
SEQEND
  5
113
  8
0
  6
BYLAYER
 62
    1
  0
POLYLINE
  5
114
  8
0
  6
BYLAYER
 62
    1
 66
    1
 10
0
 20
0
 30
0
 70
    0
  0
VERTEX
  5
115
  8
0
  6
BYLAYER
 62
    1
 10
2.02154
 20
3.03386
 30
0
  0
VERTEX
  5
116
  8
0
  6
BYLAYER
 62
    1
 10
1.98275
 20
3.03386
 30
0
  0
VERTEX
  5
117
  8
0
  6
BYLAYER
 62
    1
 10
1.86649
 20
3.02225
 30
0
  0
VERTEX
  5
118
  8
0
  6
BYLAYER
 62
    1
 10
1.73969
 20
2.99533
 30
0
  0
VERTEX
  5
119
  8
0
  6
BYLAYER
 62
    1
 10
1.7149
 20
2.98768
 30
0
  0
SEQEND
  5
11A
  8
0
  6
BYLAYER
 62
    1
  0
POLYLINE
  5
11B
  8
0
  6
BYLAYER
 62
    1
 66
    1
 10
0
 20
0
 30
0
 70
    0
  0
VERTEX
  5
11C
  8
0
  6
BYLAYER
 62
    1
 10
1.7149
 20
2.98768
 30
0
  0
VERTEX
  5
11D
  8
0
  6
BYLAYER
 62
    1
 10
1.70275
 20
2.984
 30
0
  0
VERTEX
  5
11E
  8
0
  6
BYLAYER
 62
    1
 10
1.66883
 20
2.96468
 30
0
  0
VERTEX
  5
11F
  8
0
  6
BYLAYER
 62
    1
 10
1.63357
 20
2.92899
 30
0
  0
VERTEX
  5
120
  8
0
  6
BYLAYER
 62
    1
 10
1.61139
 20
2.8839
 30
0
  0
VERTEX
  5
121
  8
0
  6
BYLAYER
 62
    1
 10
1.60428
 20
2.84554
 30
0
  0
VERTEX
  5
122
  8
0
  6
BYLAYER
 62
    1
 10
1.60476
 20
2.83285
 30
0
  0
SEQEND
  5
123
  8
0
  6
BYLAYER
 62
    1
  0
POLYLINE
  5
124
  8
0
  6
BYLAYER
 62
    1
 66
    1
 10
0
 20
0
 30
0
 70
    0
  0
VERTEX
  5
125
  8
0
  6
BYLAYER
 62
    1
 10
1.38319
 20
2.61762
 30
0
  0
VERTEX
  5
126
  8
0
  6
BYLAYER
 62
    1
 10
1.39399
 20
2.61697
 30
0
  0
VERTEX
  5
127
  8
0
  6
BYLAYER
 62
    1
 10
1.42681
 20
2.61947
 30
0
  0
VERTEX
  5
128
  8
0
  6
BYLAYER
 62
    1
 10
1.46864
 20
2.6301
 30
0
  0
VERTEX
  5
129
  8
0
  6
BYLAYER
 62
    1
 10
1.50737
 20
2.64914
 30
0
  0
VERTEX
  5
12A
  8
0
  6
BYLAYER
 62
    1
 10
1.5339
 20
2.66857
 30
0
  0
VERTEX
  5
12B
  8
0
  6
BYLAYER
 62
    1
 10
1.54172
 20
2.67611
 30
0
  0
VERTEX
  5
12C
  8
0
  6
BYLAYER
 62
    1
 10
1.54949
 20
2.68371
 30
0
  0
VERTEX
  5
12D
  8
0
  6
BYLAYER
 62
    1
 10
1.56967
 20
2.70964
 30
0
  0
VERTEX
  5
12E
  8
0
  6
BYLAYER
 62
    1
 10
1.58985
 20
2.74783
 30
0
  0
VERTEX
  5
12F
  8
0
  6
BYLAYER
 62
    1
 10
1.60167
 20
2.78933
 30
0
  0
VERTEX
  5
130
  8
0
  6
BYLAYER
 62
    1
 10
1.60514
 20
2.82206
 30
0
  0
VERTEX
  5
131
  8
0
  6
BYLAYER
 62
    1
 10
1.60476
 20
2.83285
 30
0
  0
SEQEND
  5
132
  8
0
  6
BYLAYER
 62
    1
  0
POLYLINE
  5
133
  8
0
  6
BYLAYER
 62
    1
 66
    1
 10
0
 20
0
 30
0
 70
    0
  0
VERTEX
  5
134
  8
0
  6
BYLAYER
 62
    1
 10
1.38319
 20
2.61762
 30
0
  0
VERTEX
  5
135
  8
0
  6
BYLAYER
 62
    1
 10
1.36008
 20
2.61914
 30
0
  0
VERTEX
  5
136
  8
0
  6
BYLAYER
 62
    1
 10
1.28993
 20
2.6096
 30
0
  0
VERTEX
  5
137
  8
0
  6
BYLAYER
 62
    1
 10
1.20492
 20
2.57525
 30
0
  0
VERTEX
  5
138
  8
0
  6
BYLAYER
 62
    1
 10
1.13352
 20
2.51774
 30
0
  0
VERTEX
  5
139
  8
0
  6
BYLAYER
 62
    1
 10
1.09104
 20
2.46104
 30
0
  0
VERTEX
  5
13A
  8
0
  6
BYLAYER
 62
    1
 10
1.08111
 20
2.44015
 30
0
  0
SEQEND
  5
13B
  8
0
  6
BYLAYER
 62
    1
  0
POLYLINE
  5
13C
  8
0
  6
BYLAYER
 62
    1
 66
    1
 10
0
 20
0
 30
0
 70
    0
  0
VERTEX
  5
13D
  8
0
  6
BYLAYER
 62
    1
 10
1.08111
 20
2.44015
 30
0
  0
VERTEX
  5
13E
  8
0
  6
BYLAYER
 62
    1
 10
1.07384
 20
2.42503
 30
0
  0
VERTEX
  5
13F
  8
0
  6
BYLAYER
 62
    1
 10
1.01671
 20
2.26725
 30
0
  0
VERTEX
  5
140
  8
0
  6
BYLAYER
 62
    1
 10
1.01253
 20
2.25092
 30
0
  0
SEQEND
  5
141
  8
0
  6
BYLAYER
 62
    1
  0
POLYLINE
  5
142
  8
0
  6
BYLAYER
 62
    1
 66
    1
 10
0
 20
0
 30
0
 70
    0
  0
VERTEX
  5
143
  8
0
  6
BYLAYER
 62
    1
 10
1.01253
 20
2.25092
 30
0
  0
VERTEX
  5
144
  8
0
  6
BYLAYER
 62
    1
 10
0.8831369999999999
 20
1.74642
 30
0
  0
SEQEND
  5
145
  8
0
  6
BYLAYER
 62
    1
  0
POLYLINE
  5
146
  8
0
  6
BYLAYER
 62
    1
 66
    1
 10
0
 20
0
 30
0
 70
    0
  0
VERTEX
  5
147
  8
0
  6
BYLAYER
 62
    1
 10
0.8831369999999999
 20
1.74642
 30
0
  0
VERTEX
  5
148
  8
0
  6
BYLAYER
 62
    1
 10
5.60596
 20
1.74642
 30
0
  0
SEQEND
  5
149
  8
0
  6
BYLAYER
 62
    1
  0
POLYLINE
  5
14A
  8
0
  6
BYLAYER
 62
    1
 66
    1
 10
0
 20
0
 30
0
 70
    0
  0
VERTEX
  5
14B
  8
0
  6
BYLAYER
 62
    1
 10
5.47657
 20
2.25092
 30
0
  0
VERTEX
  5
14C
  8
0
  6
BYLAYER
 62
    1
 10
5.60596
 20
1.74642
 30
0
  0
SEQEND
  5
14D
  8
0
  6
BYLAYER
 62
    1
  0
POLYLINE
  5
14E
  8
0
  6
BYLAYER
 62
    1
 66
    1
 10
0
 20
0
 30
0
 70
    0
  0
VERTEX
  5
14F
  8
0
  6
BYLAYER
 62
    1
 10
5.47657
 20
2.25092
 30
0
  0
VERTEX
  5
150
  8
0
  6
BYLAYER
 62
    1
 10
5.47239
 20
2.26725
 30
0
  0
VERTEX
  5
151
  8
0
  6
BYLAYER
 62
    1
 10
5.41521
 20
2.42503
 30
0
  0
VERTEX
  5
152
  8
0
  6
BYLAYER
 62
    1
 10
5.40799
 20
2.44015
 30
0
  0
SEQEND
  5
153
  8
0
  6
BYLAYER
 62
    1
  0
POLYLINE
  5
154
  8
0
  6
BYLAYER
 62
    1
 66
    1
 10
0
 20
0
 30
0
 70
    0
  0
VERTEX
  5
155
  8
0
  6
BYLAYER
 62
    1
 10
5.40799
 20
2.44015
 30
0
  0
VERTEX
  5
156
  8
0
  6
BYLAYER
 62
    1
 10
5.398
 20
2.46104
 30
0
  0
VERTEX
  5
157
  8
0
  6
BYLAYER
 62
    1
 10
5.35553
 20
2.51774
 30
0
  0
VERTEX
  5
158
  8
0
  6
BYLAYER
 62
    1
 10
5.28413
 20
2.57519
 30
0
  0
VERTEX
  5
159
  8
0
  6
BYLAYER
 62
    1
 10
5.19911
 20
2.6096
 30
0
  0
VERTEX
  5
15A
  8
0
  6
BYLAYER
 62
    1
 10
5.1289
 20
2.61908
 30
0
  0
VERTEX
  5
15B
  8
0
  6
BYLAYER
 62
    1
 10
5.10585
 20
2.61762
 30
0
  0
SEQEND
  5
15C
  8
0
  6
BYLAYER
 62
    1
  0
POLYLINE
  5
15D
  8
0
  6
BYLAYER
 62
    1
 66
    1
 10
0
 20
0
 30
0
 70
    0
  0
VERTEX
  5
15E
  8
0
  6
BYLAYER
 62
    1
 10
4.88433
 20
2.83285
 30
0
  0
VERTEX
  5
15F
  8
0
  6
BYLAYER
 62
    1
 10
4.88396
 20
2.82206
 30
0
  0
VERTEX
  5
160
  8
0
  6
BYLAYER
 62
    1
 10
4.88737
 20
2.78933
 30
0
  0
VERTEX
  5
161
  8
0
  6
BYLAYER
 62
    1
 10
4.89925
 20
2.74783
 30
0
  0
VERTEX
  5
162
  8
0
  6
BYLAYER
 62
    1
 10
4.91938
 20
2.70964
 30
0
  0
VERTEX
  5
163
  8
0
  6
BYLAYER
 62
    1
 10
4.93956
 20
2.68371
 30
0
  0
VERTEX
  5
164
  8
0
  6
BYLAYER
 62
    1
 10
4.94738
 20
2.67611
 30
0
  0
VERTEX
  5
165
  8
0
  6
BYLAYER
 62
    1
 10
4.95514
 20
2.66857
 30
0
  0
VERTEX
  5
166
  8
0
  6
BYLAYER
 62
    1
 10
4.98167
 20
2.64914
 30
0
  0
VERTEX
  5
167
  8
0
  6
BYLAYER
 62
    1
 10
5.0204
 20
2.6301
 30
0
  0
VERTEX
  5
168
  8
0
  6
BYLAYER
 62
    1
 10
5.06222
 20
2.61947
 30
0
  0
VERTEX
  5
169
  8
0
  6
BYLAYER
 62
    1
 10
5.095
 20
2.61697
 30
0
  0
VERTEX
  5
16A
  8
0
  6
BYLAYER
 62
    1
 10
5.10585
 20
2.61762
 30
0
  0
SEQEND
  5
16B
  8
0
  6
BYLAYER
 62
    1
  0
POLYLINE
  5
16C
  8
0
  6
BYLAYER
 62
    1
 66
    1
 10
0
 20
0
 30
0
 70
    0
  0
VERTEX
  5
16D
  8
0
  6
BYLAYER
 62
    1
 10
4.88433
 20
2.83285
 30
0
  0
VERTEX
  5
16E
  8
0
  6
BYLAYER
 62
    1
 10
4.88476
 20
2.84554
 30
0
  0
VERTEX
  5
16F
  8
0
  6
BYLAYER
 62
    1
 10
4.87765
 20
2.8839
 30
0
  0
VERTEX
  5
170
  8
0
  6
BYLAYER
 62
    1
 10
4.85547
 20
2.92899
 30
0
  0
VERTEX
  5
171
  8
0
  6
BYLAYER
 62
    1
 10
4.82021
 20
2.96468
 30
0
  0
VERTEX
  5
172
  8
0
  6
BYLAYER
 62
    1
 10
4.78629
 20
2.984
 30
0
  0
VERTEX
  5
173
  8
0
  6
BYLAYER
 62
    1
 10
4.77419
 20
2.98768
 30
0
  0
SEQEND
  5
174
  8
0
  6
BYLAYER
 62
    1
  0
POLYLINE
  5
175
  8
0
  6
BYLAYER
 62
    1
 66
    1
 10
0
 20
0
 30
0
 70
    0
  0
VERTEX
  5
176
  8
0
  6
BYLAYER
 62
    1
 10
4.77419
 20
2.98768
 30
0
  0
VERTEX
  5
177
  8
0
  6
BYLAYER
 62
    1
 10
4.74935
 20
2.99533
 30
0
  0
VERTEX
  5
178
  8
0
  6
BYLAYER
 62
    1
 10
4.62256
 20
3.02225
 30
0
  0
VERTEX
  5
179
  8
0
  6
BYLAYER
 62
    1
 10
4.50629
 20
3.03386
 30
0
  0
VERTEX
  5
17A
  8
0
  6
BYLAYER
 62
    1
 10
4.46756
 20
3.03386
 30
0
  0
SEQEND
  5
17B
  8
0
  6
BYLAYER
 62
    1
  0
POLYLINE
  5
17C
  8
0
  6
BYLAYER
 62
    1
 66
    1
 10
0
 20
0
 30
0
 70
    1
  0
VERTEX
  5
17D
  8
0
  6
BYLAYER
 62
    1
 10
3.42264
 20
2.76096
 30
0
  0
VERTEX
  5
17E
  8
0
  6
BYLAYER
 62
    1
 10
3.42264
 20
2.75825
 30
0
  0
VERTEX
  5
17F
  8
0
  6
BYLAYER
 62
    1
 10
3.41803
 20
2.74994
 30
0
  0
VERTEX
  5
180
  8
0
  6
BYLAYER
 62
    1
 10
3.40972
 20
2.74533
 30
0
  0
VERTEX
  5
181
  8
0
  6
BYLAYER
 62
    1
 10
3.40701
 20
2.74533
 30
0
  0
VERTEX
  5
182
  8
0
  6
BYLAYER
 62
    1
 10
3.40424
 20
2.74533
 30
0
  0
VERTEX
  5
183
  8
0
  6
BYLAYER
 62
    1
 10
3.39594
 20
2.74994
 30
0
  0
VERTEX
  5
184
  8
0
  6
BYLAYER
 62
    1
 10
3.39139
 20
2.75825
 30
0
  0
VERTEX
  5
185
  8
0
  6
BYLAYER
 62
    1
 10
3.39139
 20
2.76096
 30
0
  0
VERTEX
  5
186
  8
0
  6
BYLAYER
 62
    1
 10
3.39139
 20
2.76372
 30
0
  0
VERTEX
  5
187
  8
0
  6
BYLAYER
 62
    1
 10
3.39594
 20
2.77203
 30
0
  0
VERTEX
  5
188
  8
0
  6
BYLAYER
 62
    1
 10
3.40424
 20
2.77658
 30
0
  0
VERTEX
  5
189
  8
0
  6
BYLAYER
 62
    1
 10
3.40701
 20
2.77658
 30
0
  0
VERTEX
  5
18A
  8
0
  6
BYLAYER
 62
    1
 10
3.40972
 20
2.77658
 30
0
  0
VERTEX
  5
18B
  8
0
  6
BYLAYER
 62
    1
 10
3.41803
 20
2.77203
 30
0
  0
VERTEX
  5
18C
  8
0
  6
BYLAYER
 62
    1
 10
3.42264
 20
2.76372
 30
0
  0
VERTEX
  5
18D
  8
0
  6
BYLAYER
 62
    1
 10
3.42264
 20
2.76096
 30
0
  0
SEQEND
  5
18E
  8
0
  6
BYLAYER
 62
    1
  0
POLYLINE
  5
18F
  8
0
  6
BYLAYER
 62
    1
 66
    1
 10
0
 20
0
 30
0
 70
    1
  0
VERTEX
  5
190
  8
0
  6
BYLAYER
 62
    1
 10
2.86014
 20
2.76096
 30
0
  0
VERTEX
  5
191
  8
0
  6
BYLAYER
 62
    1
 10
2.86014
 20
2.75825
 30
0
  0
VERTEX
  5
192
  8
0
  6
BYLAYER
 62
    1
 10
2.85553
 20
2.74994
 30
0
  0
VERTEX
  5
193
  8
0
  6
BYLAYER
 62
    1
 10
2.84722
 20
2.74533
 30
0
  0
VERTEX
  5
194
  8
0
  6
BYLAYER
 62
    1
 10
2.84451
 20
2.74533
 30
0
  0
VERTEX
  5
195
  8
0
  6
BYLAYER
 62
    1
 10
2.84174
 20
2.74533
 30
0
  0
VERTEX
  5
196
  8
0
  6
BYLAYER
 62
    1
 10
2.83344
 20
2.74994
 30
0
  0
VERTEX
  5
197
  8
0
  6
BYLAYER
 62
    1
 10
2.82889
 20
2.75825
 30
0
  0
VERTEX
  5
198
  8
0
  6
BYLAYER
 62
    1
 10
2.82889
 20
2.76096
 30
0
  0
VERTEX
  5
199
  8
0
  6
BYLAYER
 62
    1
 10
2.82889
 20
2.76372
 30
0
  0
VERTEX
  5
19A
  8
0
  6
BYLAYER
 62
    1
 10
2.83344
 20
2.77203
 30
0
  0
VERTEX
  5
19B
  8
0
  6
BYLAYER
 62
    1
 10
2.84174
 20
2.77658
 30
0
  0
VERTEX
  5
19C
  8
0
  6
BYLAYER
 62
    1
 10
2.84451
 20
2.77658
 30
0
  0
VERTEX
  5
19D
  8
0
  6
BYLAYER
 62
    1
 10
2.84722
 20
2.77658
 30
0
  0
VERTEX
  5
19E
  8
0
  6
BYLAYER
 62
    1
 10
2.85553
 20
2.77203
 30
0
  0
VERTEX
  5
19F
  8
0
  6
BYLAYER
 62
    1
 10
2.86014
 20
2.76372
 30
0
  0
VERTEX
  5
1A0
  8
0
  6
BYLAYER
 62
    1
 10
2.86014
 20
2.76096
 30
0
  0
SEQEND
  5
1A1
  8
0
  6
BYLAYER
 62
    1
  0
POLYLINE
  5
1A2
  8
0
  6
BYLAYER
 62
    1
 66
    1
 10
0
 20
0
 30
0
 70
    1
  0
VERTEX
  5
1A3
  8
0
  6
BYLAYER
 62
    1
 10
2.86014
 20
2.40679
 30
0
  0
VERTEX
  5
1A4
  8
0
  6
BYLAYER
 62
    1
 10
2.86014
 20
2.40408
 30
0
  0
VERTEX
  5
1A5
  8
0
  6
BYLAYER
 62
    1
 10
2.85553
 20
2.39578
 30
0
  0
VERTEX
  5
1A6
  8
0
  6
BYLAYER
 62
    1
 10
2.84722
 20
2.39117
 30
0
  0
VERTEX
  5
1A7
  8
0
  6
BYLAYER
 62
    1
 10
2.84451
 20
2.39117
 30
0
  0
VERTEX
  5
1A8
  8
0
  6
BYLAYER
 62
    1
 10
2.84174
 20
2.39117
 30
0
  0
VERTEX
  5
1A9
  8
0
  6
BYLAYER
 62
    1
 10
2.83344
 20
2.39578
 30
0
  0
VERTEX
  5
1AA
  8
0
  6
BYLAYER
 62
    1
 10
2.82889
 20
2.40408
 30
0
  0
VERTEX
  5
1AB
  8
0
  6
BYLAYER
 62
    1
 10
2.82889
 20
2.40679
 30
0
  0
VERTEX
  5
1AC
  8
0
  6
BYLAYER
 62
    1
 10
2.82889
 20
2.40956
 30
0
  0
VERTEX
  5
1AD
  8
0
  6
BYLAYER
 62
    1
 10
2.83344
 20
2.41786
 30
0
  0
VERTEX
  5
1AE
  8
0
  6
BYLAYER
 62
    1
 10
2.84174
 20
2.42242
 30
0
  0
VERTEX
  5
1AF
  8
0
  6
BYLAYER
 62
    1
 10
2.84451
 20
2.42242
 30
0
  0
VERTEX
  5
1B0
  8
0
  6
BYLAYER
 62
    1
 10
2.84722
 20
2.42242
 30
0
  0
VERTEX
  5
1B1
  8
0
  6
BYLAYER
 62
    1
 10
2.85553
 20
2.41786
 30
0
  0
VERTEX
  5
1B2
  8
0
  6
BYLAYER
 62
    1
 10
2.86014
 20
2.40956
 30
0
  0
VERTEX
  5
1B3
  8
0
  6
BYLAYER
 62
    1
 10
2.86014
 20
2.40679
 30
0
  0
SEQEND
  5
1B4
  8
0
  6
BYLAYER
 62
    1
  0
POLYLINE
  5
1B5
  8
0
  6
BYLAYER
 62
    1
 66
    1
 10
0
 20
0
 30
0
 70
    1
  0
VERTEX
  5
1B6
  8
0
  6
BYLAYER
 62
    1
 10
1.79221
 20
2.86621
 30
0
  0
VERTEX
  5
1B7
  8
0
  6
BYLAYER
 62
    1
 10
1.79221
 20
2.8635
 30
0
  0
VERTEX
  5
1B8
  8
0
  6
BYLAYER
 62
    1
 10
1.7876
 20
2.85519
 30
0
  0
VERTEX
  5
1B9
  8
0
  6
BYLAYER
 62
    1
 10
1.77929
 20
2.85058
 30
0
  0
VERTEX
  5
1BA
  8
0
  6
BYLAYER
 62
    1
 10
1.77658
 20
2.85058
 30
0
  0
VERTEX
  5
1BB
  8
0
  6
BYLAYER
 62
    1
 10
1.77382
 20
2.85058
 30
0
  0
VERTEX
  5
1BC
  8
0
  6
BYLAYER
 62
    1
 10
1.76551
 20
2.85519
 30
0
  0
VERTEX
  5
1BD
  8
0
  6
BYLAYER
 62
    1
 10
1.76096
 20
2.8635
 30
0
  0
VERTEX
  5
1BE
  8
0
  6
BYLAYER
 62
    1
 10
1.76096
 20
2.86621
 30
0
  0
VERTEX
  5
1BF
  8
0
  6
BYLAYER
 62
    1
 10
1.76096
 20
2.86897
 30
0
  0
VERTEX
  5
1C0
  8
0
  6
BYLAYER
 62
    1
 10
1.76551
 20
2.87728
 30
0
  0
VERTEX
  5
1C1
  8
0
  6
BYLAYER
 62
    1
 10
1.77382
 20
2.88183
 30
0
  0
VERTEX
  5
1C2
  8
0
  6
BYLAYER
 62
    1
 10
1.77658
 20
2.88183
 30
0
  0
VERTEX
  5
1C3
  8
0
  6
BYLAYER
 62
    1
 10
1.77929
 20
2.88183
 30
0
  0
VERTEX
  5
1C4
  8
0
  6
BYLAYER
 62
    1
 10
1.7876
 20
2.87728
 30
0
  0
VERTEX
  5
1C5
  8
0
  6
BYLAYER
 62
    1
 10
1.79221
 20
2.86897
 30
0
  0
VERTEX
  5
1C6
  8
0
  6
BYLAYER
 62
    1
 10
1.79221
 20
2.86621
 30
0
  0
SEQEND
  5
1C7
  8
0
  6
BYLAYER
 62
    1
  0
POLYLINE
  5
1C8
  8
0
  6
BYLAYER
 62
    1
 66
    1
 10
0
 20
0
 30
0
 70
    0
  0
VERTEX
  5
1C9
  8
0
  6
BYLAYER
 62
    1
 10
3.37472
 20
2.40989
 30
0
  0
VERTEX
  5
1CA
  8
0
  6
BYLAYER
 62
    1
 10
3.37472
 20
2.75261
 30
0
  0
SEQEND
  5
1CB
  8
0
  6
BYLAYER
 62
    1
  0
POLYLINE
  5
1CC
  8
0
  6
BYLAYER
 62
    1
 66
    1
 10
0
 20
0
 30
0
 70
    0
  0
VERTEX
  5
1CD
  8
0
  6
BYLAYER
 62
    1
 10
3.37472
 20
2.40989
 30
0
  0
VERTEX
  5
1CE
  8
0
  6
BYLAYER
 62
    1
 10
3.14035
 20
2.40989
 30
0
  0
SEQEND
  5
1CF
  8
0
  6
BYLAYER
 62
    1
  0
POLYLINE
  5
1D0
  8
0
  6
BYLAYER
 62
    1
 66
    1
 10
0
 20
0
 30
0
 70
    0
  0
VERTEX
  5
1D1
  8
0
  6
BYLAYER
 62
    1
 10
3.14035
 20
2.75261
 30
0
  0
VERTEX
  5
1D2
  8
0
  6
BYLAYER
 62
    1
 10
3.14035
 20
2.40989
 30
0
  0
SEQEND
  5
1D3
  8
0
  6
BYLAYER
 62
    1
  0
POLYLINE
  5
1D4
  8
0
  6
BYLAYER
 62
    1
 66
    1
 10
0
 20
0
 30
0
 70
    0
  0
VERTEX
  5
1D5
  8
0
  6
BYLAYER
 62
    1
 10
3.14035
 20
2.75261
 30
0
  0
VERTEX
  5
1D6
  8
0
  6
BYLAYER
 62
    1
 10
3.37472
 20
2.75261
 30
0
  0
SEQEND
  5
1D7
  8
0
  6
BYLAYER
 62
    1
  0
POLYLINE
  5
1D8
  8
0
  6
BYLAYER
 62
    1
 66
    1
 10
0
 20
0
 30
0
 70
    0
  0
VERTEX
  5
1D9
  8
0
  6
BYLAYER
 62
    1
 10
1.3437
 20
2.06207
 30
0
  0
VERTEX
  5
1DA
  8
0
  6
BYLAYER
 62
    1
 10
1.33686
 20
2.06125
 30
0
  0
VERTEX
  5
1DB
  8
0
  6
BYLAYER
 62
    1
 10
1.317
 20
2.0535
 30
0
  0
VERTEX
  5
1DC
  8
0
  6
BYLAYER
 62
    1
 10
1.29861
 20
2.03717
 30
0
  0
VERTEX
  5
1DD
  8
0
  6
BYLAYER
 62
    1
 10
1.28825
 20
2.0159
 30
0
  0
VERTEX
  5
1DE
  8
0
  6
BYLAYER
 62
    1
 10
1.28586
 20
1.99235
 30
0
  0
VERTEX
  5
1DF
  8
0
  6
BYLAYER
 62
    1
 10
1.29118
 20
1.96929
 30
0
  0
VERTEX
  5
1E0
  8
0
  6
BYLAYER
 62
    1
 10
1.30404
 20
1.94943
 30
0
  0
VERTEX
  5
1E1
  8
0
  6
BYLAYER
 62
    1
 10
1.32433
 20
1.93554
 30
0
  0
VERTEX
  5
1E2
  8
0
  6
BYLAYER
 62
    1
 10
1.345
 20
1.93028
 30
0
  0
VERTEX
  5
1E3
  8
0
  6
BYLAYER
 62
    1
 10
1.35189
 20
1.93028
 30
0
  0
VERTEX
  5
1E4
  8
0
  6
BYLAYER
 62
    1
 10
1.35872
 20
1.93028
 30
0
  0
VERTEX
  5
1E5
  8
0
  6
BYLAYER
 62
    1
 10
1.37939
 20
1.93554
 30
0
  0
VERTEX
  5
1E6
  8
0
  6
BYLAYER
 62
    1
 10
1.39968
 20
1.94943
 30
0
  0
VERTEX
  5
1E7
  8
0
  6
BYLAYER
 62
    1
 10
1.41254
 20
1.96929
 30
0
  0
VERTEX
  5
1E8
  8
0
  6
BYLAYER
 62
    1
 10
1.41792
 20
1.99235
 30
0
  0
VERTEX
  5
1E9
  8
0
  6
BYLAYER
 62
    1
 10
1.41547
 20
2.0159
 30
0
  0
VERTEX
  5
1EA
  8
0
  6
BYLAYER
 62
    1
 10
1.40511
 20
2.03717
 30
0
  0
VERTEX
  5
1EB
  8
0
  6
BYLAYER
 62
    1
 10
1.38672
 20
2.0535
 30
0
  0
VERTEX
  5
1EC
  8
0
  6
BYLAYER
 62
    1
 10
1.36686
 20
2.06125
 30
0
  0
VERTEX
  5
1ED
  8
0
  6
BYLAYER
 62
    1
 10
1.36008
 20
2.06207
 30
0
  0
SEQEND
  5
1EE
  8
0
  6
BYLAYER
 62
    1
  0
POLYLINE
  5
1EF
  8
0
  6
BYLAYER
 62
    1
 66
    1
 10
0
 20
0
 30
0
 70
    0
  0
VERTEX
  5
1F0
  8
0
  6
BYLAYER
 62
    1
 10
1.3437
 20
2.05203
 30
0
  0
VERTEX
  5
1F1
  8
0
  6
BYLAYER
 62
    1
 10
1.3437
 20
2.06207
 30
0
  0
SEQEND
  5
1F2
  8
0
  6
BYLAYER
 62
    1
  0
POLYLINE
  5
1F3
  8
0
  6
BYLAYER
 62
    1
 66
    1
 10
0
 20
0
 30
0
 70
    0
  0
VERTEX
  5
1F4
  8
0
  6
BYLAYER
 62
    1
 10
1.3437
 20
2.05203
 30
0
  0
VERTEX
  5
1F5
  8
0
  6
BYLAYER
 62
    1
 10
1.36008
 20
2.05203
 30
0
  0
SEQEND
  5
1F6
  8
0
  6
BYLAYER
 62
    1
  0
POLYLINE
  5
1F7
  8
0
  6
BYLAYER
 62
    1
 66
    1
 10
0
 20
0
 30
0
 70
    0
  0
VERTEX
  5
1F8
  8
0
  6
BYLAYER
 62
    1
 10
1.36008
 20
2.06207
 30
0
  0
VERTEX
  5
1F9
  8
0
  6
BYLAYER
 62
    1
 10
1.36008
 20
2.05203
 30
0
  0
SEQEND
  5
1FA
  8
0
  6
BYLAYER
 62
    1
  0
POLYLINE
  5
1FB
  8
0
  6
BYLAYER
 62
    1
 66
    1
 10
0
 20
0
 30
0
 70
    1
  0
VERTEX
  5
1FC
  8
0
  6
BYLAYER
 62
    1
 10
1.76438
 20
1.99642
 30
0
  0
VERTEX
  5
1FD
  8
0
  6
BYLAYER
 62
    1
 10
1.76438
 20
1.98671
 30
0
  0
VERTEX
  5
1FE
  8
0
  6
BYLAYER
 62
    1
 10
1.75651
 20
1.95751
 30
0
  0
VERTEX
  5
1FF
  8
0
  6
BYLAYER
 62
    1
 10
1.73508
 20
1.92572
 30
0
  0
VERTEX
  5
200
  8
0
  6
BYLAYER
 62
    1
 10
1.70329
 20
1.90429
 30
0
  0
VERTEX
  5
201
  8
0
  6
BYLAYER
 62
    1
 10
1.6741
 20
1.89643
 30
0
  0
VERTEX
  5
202
  8
0
  6
BYLAYER
 62
    1
 10
1.66439
 20
1.89643
 30
0
  0
VERTEX
  5
203
  8
0
  6
BYLAYER
 62
    1
 10
1.65463
 20
1.89643
 30
0
  0
VERTEX
  5
204
  8
0
  6
BYLAYER
 62
    1
 10
1.62543
 20
1.90429
 30
0
  0
VERTEX
  5
205
  8
0
  6
BYLAYER
 62
    1
 10
1.59364
 20
1.92572
 30
0
  0
VERTEX
  5
206
  8
0
  6
BYLAYER
 62
    1
 10
1.57221
 20
1.95751
 30
0
  0
VERTEX
  5
207
  8
0
  6
BYLAYER
 62
    1
 10
1.5644
 20
1.98671
 30
0
  0
VERTEX
  5
208
  8
0
  6
BYLAYER
 62
    1
 10
1.5644
 20
1.99642
 30
0
  0
VERTEX
  5
209
  8
0
  6
BYLAYER
 62
    1
 10
1.5644
 20
2.00618
 30
0
  0
VERTEX
  5
20A
  8
0
  6
BYLAYER
 62
    1
 10
1.57221
 20
2.03537
 30
0
  0
VERTEX
  5
20B
  8
0
  6
BYLAYER
 62
    1
 10
1.59364
 20
2.06717
 30
0
  0
VERTEX
  5
20C
  8
0
  6
BYLAYER
 62
    1
 10
1.62543
 20
2.08865
 30
0
  0
VERTEX
  5
20D
  8
0
  6
BYLAYER
 62
    1
 10
1.65463
 20
2.09646
 30
0
  0
VERTEX
  5
20E
  8
0
  6
BYLAYER
 62
    1
 10
1.66439
 20
2.09646
 30
0
  0
VERTEX
  5
20F
  8
0
  6
BYLAYER
 62
    1
 10
1.6741
 20
2.09646
 30
0
  0
VERTEX
  5
210
  8
0
  6
BYLAYER
 62
    1
 10
1.70329
 20
2.08865
 30
0
  0
VERTEX
  5
211
  8
0
  6
BYLAYER
 62
    1
 10
1.73508
 20
2.06717
 30
0
  0
VERTEX
  5
212
  8
0
  6
BYLAYER
 62
    1
 10
1.75651
 20
2.03537
 30
0
  0
VERTEX
  5
213
  8
0
  6
BYLAYER
 62
    1
 10
1.76438
 20
2.00618
 30
0
  0
VERTEX
  5
214
  8
0
  6
BYLAYER
 62
    1
 10
1.76438
 20
1.99642
 30
0
  0
SEQEND
  5
215
  8
0
  6
BYLAYER
 62
    1
  0
POLYLINE
  5
216
  8
0
  6
BYLAYER
 62
    1
 66
    1
 10
0
 20
0
 30
0
 70
    1
  0
VERTEX
  5
217
  8
0
  6
BYLAYER
 62
    1
 10
2.07688
 20
1.99642
 30
0
  0
VERTEX
  5
218
  8
0
  6
BYLAYER
 62
    1
 10
2.07688
 20
1.98671
 30
0
  0
VERTEX
  5
219
  8
0
  6
BYLAYER
 62
    1
 10
2.06901
 20
1.95751
 30
0
  0
VERTEX
  5
21A
  8
0
  6
BYLAYER
 62
    1
 10
2.04758
 20
1.92572
 30
0
  0
VERTEX
  5
21B
  8
0
  6
BYLAYER
 62
    1
 10
2.01579
 20
1.90429
 30
0
  0
VERTEX
  5
21C
  8
0
  6
BYLAYER
 62
    1
 10
1.9866
 20
1.89643
 30
0
  0
VERTEX
  5
21D
  8
0
  6
BYLAYER
 62
    1
 10
1.97689
 20
1.89643
 30
0
  0
VERTEX
  5
21E
  8
0
  6
BYLAYER
 62
    1
 10
1.96712
 20
1.89643
 30
0
  0
VERTEX
  5
21F
  8
0
  6
BYLAYER
 62
    1
 10
1.93793
 20
1.90429
 30
0
  0
VERTEX
  5
220
  8
0
  6
BYLAYER
 62
    1
 10
1.90614
 20
1.92572
 30
0
  0
VERTEX
  5
221
  8
0
  6
BYLAYER
 62
    1
 10
1.88471
 20
1.95751
 30
0
  0
VERTEX
  5
222
  8
0
  6
BYLAYER
 62
    1
 10
1.8769
 20
1.98671
 30
0
  0
VERTEX
  5
223
  8
0
  6
BYLAYER
 62
    1
 10
1.8769
 20
1.99642
 30
0
  0
VERTEX
  5
224
  8
0
  6
BYLAYER
 62
    1
 10
1.8769
 20
2.00618
 30
0
  0
VERTEX
  5
225
  8
0
  6
BYLAYER
 62
    1
 10
1.88471
 20
2.03537
 30
0
  0
VERTEX
  5
226
  8
0
  6
BYLAYER
 62
    1
 10
1.90614
 20
2.06717
 30
0
  0
VERTEX
  5
227
  8
0
  6
BYLAYER
 62
    1
 10
1.93793
 20
2.08865
 30
0
  0
VERTEX
  5
228
  8
0
  6
BYLAYER
 62
    1
 10
1.96712
 20
2.09646
 30
0
  0
VERTEX
  5
229
  8
0
  6
BYLAYER
 62
    1
 10
1.97689
 20
2.09646
 30
0
  0
VERTEX
  5
22A
  8
0
  6
BYLAYER
 62
    1
 10
1.9866
 20
2.09646
 30
0
  0
VERTEX
  5
22B
  8
0
  6
BYLAYER
 62
    1
 10
2.01579
 20
2.08865
 30
0
  0
VERTEX
  5
22C
  8
0
  6
BYLAYER
 62
    1
 10
2.04758
 20
2.06717
 30
0
  0
VERTEX
  5
22D
  8
0
  6
BYLAYER
 62
    1
 10
2.06901
 20
2.03537
 30
0
  0
VERTEX
  5
22E
  8
0
  6
BYLAYER
 62
    1
 10
2.07688
 20
2.00618
 30
0
  0
VERTEX
  5
22F
  8
0
  6
BYLAYER
 62
    1
 10
2.07688
 20
1.99642
 30
0
  0
SEQEND
  5
230
  8
0
  6
BYLAYER
 62
    1
  0
POLYLINE
  5
231
  8
0
  6
BYLAYER
 62
    1
 66
    1
 10
0
 20
0
 30
0
 70
    0
  0
VERTEX
  5
232
  8
0
  6
BYLAYER
 62
    1
 10
1.97011
 20
2.36431
 30
0
  0
VERTEX
  5
233
  8
0
  6
BYLAYER
 62
    1
 10
1.96322
 20
2.36361
 30
0
  0
VERTEX
  5
234
  8
0
  6
BYLAYER
 62
    1
 10
1.94303
 20
2.35622
 30
0
  0
VERTEX
  5
235
  8
0
  6
BYLAYER
 62
    1
 10
1.92421
 20
2.34011
 30
0
  0
VERTEX
  5
236
  8
0
  6
BYLAYER
 62
    1
 10
1.91351
 20
2.31885
 30
0
  0
VERTEX
  5
237
  8
0
  6
BYLAYER
 62
    1
 10
1.91081
 20
2.29514
 30
0
  0
VERTEX
  5
238
  8
0
  6
BYLAYER
 62
    1
 10
1.9159
 20
2.27186
 30
0
  0
VERTEX
  5
239
  8
0
  6
BYLAYER
 62
    1
 10
1.92876
 20
2.25179
 30
0
  0
VERTEX
  5
23A
  8
0
  6
BYLAYER
 62
    1
 10
1.94911
 20
2.23774
 30
0
  0
VERTEX
  5
23B
  8
0
  6
BYLAYER
 62
    1
 10
1.96994
 20
2.23236
 30
0
  0
VERTEX
  5
23C
  8
0
  6
BYLAYER
 62
    1
 10
1.97689
 20
2.23236
 30
0
  0
VERTEX
  5
23D
  8
0
  6
BYLAYER
 62
    1
 10
1.98378
 20
2.23236
 30
0
  0
VERTEX
  5
23E
  8
0
  6
BYLAYER
 62
    1
 10
2.00461
 20
2.23774
 30
0
  0
VERTEX
  5
23F
  8
0
  6
BYLAYER
 62
    1
 10
2.02496
 20
2.25179
 30
0
  0
VERTEX
  5
240
  8
0
  6
BYLAYER
 62
    1
 10
2.03782
 20
2.27186
 30
0
  0
VERTEX
  5
241
  8
0
  6
BYLAYER
 62
    1
 10
2.04292
 20
2.29514
 30
0
  0
VERTEX
  5
242
  8
0
  6
BYLAYER
 62
    1
 10
2.04021
 20
2.31885
 30
0
  0
VERTEX
  5
243
  8
0
  6
BYLAYER
 62
    1
 10
2.02951
 20
2.34011
 30
0
  0
VERTEX
  5
244
  8
0
  6
BYLAYER
 62
    1
 10
2.01069
 20
2.35622
 30
0
  0
VERTEX
  5
245
  8
0
  6
BYLAYER
 62
    1
 10
1.9905
 20
2.36361
 30
0
  0
VERTEX
  5
246
  8
0
  6
BYLAYER
 62
    1
 10
1.98367
 20
2.36431
 30
0
  0
SEQEND
  5
247
  8
0
  6
BYLAYER
 62
    1
  0
POLYLINE
  5
248
  8
0
  6
BYLAYER
 62
    1
 66
    1
 10
0
 20
0
 30
0
 70
    0
  0
VERTEX
  5
249
  8
0
  6
BYLAYER
 62
    1
 10
1.97011
 20
2.34799
 30
0
  0
VERTEX
  5
24A
  8
0
  6
BYLAYER
 62
    1
 10
1.97011
 20
2.36431
 30
0
  0
SEQEND
  5
24B
  8
0
  6
BYLAYER
 62
    1
  0
POLYLINE
  5
24C
  8
0
  6
BYLAYER
 62
    1
 66
    1
 10
0
 20
0
 30
0
 70
    0
  0
VERTEX
  5
24D
  8
0
  6
BYLAYER
 62
    1
 10
1.97011
 20
2.34799
 30
0
  0
VERTEX
  5
24E
  8
0
  6
BYLAYER
 62
    1
 10
1.98367
 20
2.34799
 30
0
  0
SEQEND
  5
24F
  8
0
  6
BYLAYER
 62
    1
  0
POLYLINE
  5
250
  8
0
  6
BYLAYER
 62
    1
 66
    1
 10
0
 20
0
 30
0
 70
    0
  0
VERTEX
  5
251
  8
0
  6
BYLAYER
 62
    1
 10
1.98367
 20
2.36431
 30
0
  0
VERTEX
  5
252
  8
0
  6
BYLAYER
 62
    1
 10
1.98367
 20
2.34799
 30
0
  0
SEQEND
  5
253
  8
0
  6
BYLAYER
 62
    1
  0
POLYLINE
  5
254
  8
0
  6
BYLAYER
 62
    1
 66
    1
 10
0
 20
0
 30
0
 70
    1
  0
VERTEX
  5
255
  8
0
  6
BYLAYER
 62
    1
 10
1.76438
 20
2.2985
 30
0
  0
VERTEX
  5
256
  8
0
  6
BYLAYER
 62
    1
 10
1.76438
 20
2.28879
 30
0
  0
VERTEX
  5
257
  8
0
  6
BYLAYER
 62
    1
 10
1.75651
 20
2.2596
 30
0
  0
VERTEX
  5
258
  8
0
  6
BYLAYER
 62
    1
 10
1.73508
 20
2.22781
 30
0
  0
VERTEX
  5
259
  8
0
  6
BYLAYER
 62
    1
 10
1.70329
 20
2.20637
 30
0
  0
VERTEX
  5
25A
  8
0
  6
BYLAYER
 62
    1
 10
1.6741
 20
2.19851
 30
0
  0
VERTEX
  5
25B
  8
0
  6
BYLAYER
 62
    1
 10
1.66439
 20
2.19851
 30
0
  0
VERTEX
  5
25C
  8
0
  6
BYLAYER
 62
    1
 10
1.65463
 20
2.19851
 30
0
  0
VERTEX
  5
25D
  8
0
  6
BYLAYER
 62
    1
 10
1.62543
 20
2.20637
 30
0
  0
VERTEX
  5
25E
  8
0
  6
BYLAYER
 62
    1
 10
1.59364
 20
2.22781
 30
0
  0
VERTEX
  5
25F
  8
0
  6
BYLAYER
 62
    1
 10
1.57221
 20
2.2596
 30
0
  0
VERTEX
  5
260
  8
0
  6
BYLAYER
 62
    1
 10
1.5644
 20
2.28879
 30
0
  0
VERTEX
  5
261
  8
0
  6
BYLAYER
 62
    1
 10
1.5644
 20
2.2985
 30
0
  0
VERTEX
  5
262
  8
0
  6
BYLAYER
 62
    1
 10
1.5644
 20
2.30826
 30
0
  0
VERTEX
  5
263
  8
0
  6
BYLAYER
 62
    1
 10
1.57221
 20
2.33746
 30
0
  0
VERTEX
  5
264
  8
0
  6
BYLAYER
 62
    1
 10
1.59364
 20
2.36925
 30
0
  0
VERTEX
  5
265
  8
0
  6
BYLAYER
 62
    1
 10
1.62543
 20
2.39074
 30
0
  0
VERTEX
  5
266
  8
0
  6
BYLAYER
 62
    1
 10
1.65463
 20
2.39854
 30
0
  0
VERTEX
  5
267
  8
0
  6
BYLAYER
 62
    1
 10
1.66439
 20
2.39854
 30
0
  0
VERTEX
  5
268
  8
0
  6
BYLAYER
 62
    1
 10
1.6741
 20
2.39854
 30
0
  0
VERTEX
  5
269
  8
0
  6
BYLAYER
 62
    1
 10
1.70329
 20
2.39074
 30
0
  0
VERTEX
  5
26A
  8
0
  6
BYLAYER
 62
    1
 10
1.73508
 20
2.36925
 30
0
  0
VERTEX
  5
26B
  8
0
  6
BYLAYER
 62
    1
 10
1.75651
 20
2.33746
 30
0
  0
VERTEX
  5
26C
  8
0
  6
BYLAYER
 62
    1
 10
1.76438
 20
2.30826
 30
0
  0
VERTEX
  5
26D
  8
0
  6
BYLAYER
 62
    1
 10
1.76438
 20
2.2985
 30
0
  0
SEQEND
  5
26E
  8
0
  6
BYLAYER
 62
    1
  0
POLYLINE
  5
26F
  8
0
  6
BYLAYER
 62
    1
 66
    1
 10
0
 20
0
 30
0
 70
    0
  0
VERTEX
  5
270
  8
0
  6
BYLAYER
 62
    1
 10
4.55539
 20
2.74599
 30
0
  0
VERTEX
  5
271
  8
0
  6
BYLAYER
 62
    1
 10
4.54758
 20
2.74517
 30
0
  0
VERTEX
  5
272
  8
0
  6
BYLAYER
 62
    1
 10
4.52485
 20
2.7366
 30
0
  0
VERTEX
  5
273
  8
0
  6
BYLAYER
 62
    1
 10
4.50082
 20
2.71718
 30
0
  0
VERTEX
  5
274
  8
0
  6
BYLAYER
 62
    1
 10
4.48546
 20
2.69032
 30
0
  0
VERTEX
  5
275
  8
0
  6
BYLAYER
 62
    1
 10
4.48063
 20
2.6665
 30
0
  0
VERTEX
  5
276
  8
0
  6
BYLAYER
 62
    1
 10
4.48107
 20
2.65869
 30
0
  0
VERTEX
  5
277
  8
0
  6
BYLAYER
 62
    1
 10
4.48144
 20
2.65088
 30
0
  0
VERTEX
  5
278
  8
0
  6
BYLAYER
 62
    1
 10
4.48876
 20
2.62771
 30
0
  0
VERTEX
  5
279
  8
0
  6
BYLAYER
 62
    1
 10
4.50689
 20
2.60265
 30
0
  0
VERTEX
  5
27A
  8
0
  6
BYLAYER
 62
    1
 10
4.53288
 20
2.58589
 30
0
  0
VERTEX
  5
27B
  8
0
  6
BYLAYER
 62
    1
 10
4.55643
 20
2.57975
 30
0
  0
VERTEX
  5
27C
  8
0
  6
BYLAYER
 62
    1
 10
4.56429
 20
2.57975
 30
0
  0
VERTEX
  5
27D
  8
0
  6
BYLAYER
 62
    1
 10
4.5721
 20
2.57975
 30
0
  0
VERTEX
  5
27E
  8
0
  6
BYLAYER
 62
    1
 10
4.5956
 20
2.58589
 30
0
  0
VERTEX
  5
27F
  8
0
  6
BYLAYER
 62
    1
 10
4.62158
 20
2.60265
 30
0
  0
VERTEX
  5
280
  8
0
  6
BYLAYER
 62
    1
 10
4.63971
 20
2.62771
 30
0
  0
VERTEX
  5
281
  8
0
  6
BYLAYER
 62
    1
 10
4.64703
 20
2.65088
 30
0
  0
VERTEX
  5
282
  8
0
  6
BYLAYER
 62
    1
 10
4.64746
 20
2.65869
 30
0
  0
VERTEX
  5
283
  8
0
  6
BYLAYER
 62
    1
 10
4.64785
 20
2.6665
 30
0
  0
VERTEX
  5
284
  8
0
  6
BYLAYER
 62
    1
 10
4.64301
 20
2.69032
 30
0
  0
VERTEX
  5
285
  8
0
  6
BYLAYER
 62
    1
 10
4.62771
 20
2.71718
 30
0
  0
VERTEX
  5
286
  8
0
  6
BYLAYER
 62
    1
 10
4.60363
 20
2.7366
 30
0
  0
VERTEX
  5
287
  8
0
  6
BYLAYER
 62
    1
 10
4.58089
 20
2.74517
 30
0
  0
VERTEX
  5
288
  8
0
  6
BYLAYER
 62
    1
 10
4.57314
 20
2.74599
 30
0
  0
SEQEND
  5
289
  8
0
  6
BYLAYER
 62
    1
  0
POLYLINE
  5
28A
  8
0
  6
BYLAYER
 62
    1
 66
    1
 10
0
 20
0
 30
0
 70
    0
  0
VERTEX
  5
28B
  8
0
  6
BYLAYER
 62
    1
 10
4.55544
 20
2.736
 30
0
  0
VERTEX
  5
28C
  8
0
  6
BYLAYER
 62
    1
 10
4.55544
 20
2.74599
 30
0
  0
SEQEND
  5
28D
  8
0
  6
BYLAYER
 62
    1
  0
POLYLINE
  5
28E
  8
0
  6
BYLAYER
 62
    1
 66
    1
 10
0
 20
0
 30
0
 70
    0
  0
VERTEX
  5
28F
  8
0
  6
BYLAYER
 62
    1
 10
4.55544
 20
2.736
 30
0
  0
VERTEX
  5
290
  8
0
  6
BYLAYER
 62
    1
 10
4.57314
 20
2.736
 30
0
  0
SEQEND
  5
291
  8
0
  6
BYLAYER
 62
    1
  0
POLYLINE
  5
292
  8
0
  6
BYLAYER
 62
    1
 66
    1
 10
0
 20
0
 30
0
 70
    0
  0
VERTEX
  5
293
  8
0
  6
BYLAYER
 62
    1
 10
4.57314
 20
2.74599
 30
0
  0
VERTEX
  5
294
  8
0
  6
BYLAYER
 62
    1
 10
4.57314
 20
2.736
 30
0
  0
SEQEND
  5
295
  8
0
  6
BYLAYER
 62
    1
  0
POLYLINE
  5
296
  8
0
  6
BYLAYER
 62
    1
 66
    1
 10
0
 20
0
 30
0
 70
    0
  0
VERTEX
  5
297
  8
0
  6
BYLAYER
 62
    1
 10
4.50125
 20
2.15961
 30
0
  0
VERTEX
  5
298
  8
0
  6
BYLAYER
 62
    1
 10
4.49436
 20
2.1589
 30
0
  0
VERTEX
  5
299
  8
0
  6
BYLAYER
 62
    1
 10
4.47418
 20
2.15153
 30
0
  0
VERTEX
  5
29A
  8
0
  6
BYLAYER
 62
    1
 10
4.45535
 20
2.13542
 30
0
  0
VERTEX
  5
29B
  8
0
  6
BYLAYER
 62
    1
 10
4.44467
 20
2.11415
 30
0
  0
VERTEX
  5
29C
  8
0
  6
BYLAYER
 62
    1
 10
4.44194
 20
2.09044
 30
0
  0
VERTEX
  5
29D
  8
0
  6
BYLAYER
 62
    1
 10
4.44706
 20
2.06717
 30
0
  0
VERTEX
  5
29E
  8
0
  6
BYLAYER
 62
    1
 10
4.4599
 20
2.0471
 30
0
  0
VERTEX
  5
29F
  8
0
  6
BYLAYER
 62
    1
 10
4.48025
 20
2.03304
 30
0
  0
VERTEX
  5
2A0
  8
0
  6
BYLAYER
 62
    1
 10
4.50108
 20
2.02767
 30
0
  0
VERTEX
  5
2A1
  8
0
  6
BYLAYER
 62
    1
 10
4.50803
 20
2.02767
 30
0
  0
VERTEX
  5
2A2
  8
0
  6
BYLAYER
 62
    1
 10
4.51492
 20
2.02767
 30
0
  0
VERTEX
  5
2A3
  8
0
  6
BYLAYER
 62
    1
 10
4.53575
 20
2.03304
 30
0
  0
VERTEX
  5
2A4
  8
0
  6
BYLAYER
 62
    1
 10
4.5561
 20
2.0471
 30
0
  0
VERTEX
  5
2A5
  8
0
  6
BYLAYER
 62
    1
 10
4.56896
 20
2.06717
 30
0
  0
VERTEX
  5
2A6
  8
0
  6
BYLAYER
 62
    1
 10
4.57406
 20
2.09044
 30
0
  0
VERTEX
  5
2A7
  8
0
  6
BYLAYER
 62
    1
 10
4.57135
 20
2.11415
 30
0
  0
VERTEX
  5
2A8
  8
0
  6
BYLAYER
 62
    1
 10
4.56065
 20
2.13542
 30
0
  0
VERTEX
  5
2A9
  8
0
  6
BYLAYER
 62
    1
 10
4.54183
 20
2.15153
 30
0
  0
VERTEX
  5
2AA
  8
0
  6
BYLAYER
 62
    1
 10
4.52165
 20
2.1589
 30
0
  0
VERTEX
  5
2AB
  8
0
  6
BYLAYER
 62
    1
 10
4.51481
 20
2.15961
 30
0
  0
SEQEND
  5
2AC
  8
0
  6
BYLAYER
 62
    1
  0
POLYLINE
  5
2AD
  8
0
  6
BYLAYER
 62
    1
 66
    1
 10
0
 20
0
 30
0
 70
    0
  0
VERTEX
  5
2AE
  8
0
  6
BYLAYER
 62
    1
 10
4.50125
 20
2.14333
 30
0
  0
VERTEX
  5
2AF
  8
0
  6
BYLAYER
 62
    1
 10
4.50125
 20
2.15961
 30
0
  0
SEQEND
  5
2B0
  8
0
  6
BYLAYER
 62
    1
  0
POLYLINE
  5
2B1
  8
0
  6
BYLAYER
 62
    1
 66
    1
 10
0
 20
0
 30
0
 70
    0
  0
VERTEX
  5
2B2
  8
0
  6
BYLAYER
 62
    1
 10
4.50125
 20
2.14333
 30
0
  0
VERTEX
  5
2B3
  8
0
  6
BYLAYER
 62
    1
 10
4.51481
 20
2.14333
 30
0
  0
SEQEND
  5
2B4
  8
0
  6
BYLAYER
 62
    1
  0
POLYLINE
  5
2B5
  8
0
  6
BYLAYER
 62
    1
 66
    1
 10
0
 20
0
 30
0
 70
    0
  0
VERTEX
  5
2B6
  8
0
  6
BYLAYER
 62
    1
 10
4.51481
 20
2.15961
 30
0
  0
VERTEX
  5
2B7
  8
0
  6
BYLAYER
 62
    1
 10
4.51481
 20
2.14333
 30
0
  0
SEQEND
  5
2B8
  8
0
  6
BYLAYER
 62
    1
  0
POLYLINE
  5
2B9
  8
0
  6
BYLAYER
 62
    1
 66
    1
 10
0
 20
0
 30
0
 70
    0
  0
VERTEX
  5
2BA
  8
0
  6
BYLAYER
 62
    1
 10
4.73768
 20
2.15961
 30
0
  0
VERTEX
  5
2BB
  8
0
  6
BYLAYER
 62
    1
 10
4.73079
 20
2.1589
 30
0
  0
VERTEX
  5
2BC
  8
0
  6
BYLAYER
 62
    1
 10
4.71061
 20
2.15153
 30
0
  0
VERTEX
  5
2BD
  8
0
  6
BYLAYER
 62
    1
 10
4.69179
 20
2.13542
 30
0
  0
VERTEX
  5
2BE
  8
0
  6
BYLAYER
 62
    1
 10
4.6811
 20
2.11415
 30
0
  0
VERTEX
  5
2BF
  8
0
  6
BYLAYER
 62
    1
 10
4.67839
 20
2.09044
 30
0
  0
VERTEX
  5
2C0
  8
0
  6
BYLAYER
 62
    1
 10
4.68349
 20
2.06717
 30
0
  0
VERTEX
  5
2C1
  8
0
  6
BYLAYER
 62
    1
 10
4.69635
 20
2.0471
 30
0
  0
VERTEX
  5
2C2
  8
0
  6
BYLAYER
 62
    1
 10
4.71669
 20
2.03304
 30
0
  0
VERTEX
  5
2C3
  8
0
  6
BYLAYER
 62
    1
 10
4.73753
 20
2.02767
 30
0
  0
VERTEX
  5
2C4
  8
0
  6
BYLAYER
 62
    1
 10
4.74447
 20
2.02767
 30
0
  0
VERTEX
  5
2C5
  8
0
  6
BYLAYER
 62
    1
 10
4.75136
 20
2.02767
 30
0
  0
VERTEX
  5
2C6
  8
0
  6
BYLAYER
 62
    1
 10
4.77219
 20
2.03304
 30
0
  0
VERTEX
  5
2C7
  8
0
  6
BYLAYER
 62
    1
 10
4.79258
 20
2.0471
 30
0
  0
VERTEX
  5
2C8
  8
0
  6
BYLAYER
 62
    1
 10
4.80539
 20
2.06717
 30
0
  0
VERTEX
  5
2C9
  8
0
  6
BYLAYER
 62
    1
 10
4.81049
 20
2.09044
 30
0
  0
VERTEX
  5
2CA
  8
0
  6
BYLAYER
 62
    1
 10
4.80778
 20
2.11415
 30
0
  0
VERTEX
  5
2CB
  8
0
  6
BYLAYER
 62
    1
 10
4.7971
 20
2.13542
 30
0
  0
VERTEX
  5
2CC
  8
0
  6
BYLAYER
 62
    1
 10
4.77826
 20
2.15153
 30
0
  0
VERTEX
  5
2CD
  8
0
  6
BYLAYER
 62
    1
 10
4.75808
 20
2.1589
 30
0
  0
VERTEX
  5
2CE
  8
0
  6
BYLAYER
 62
    1
 10
4.75125
 20
2.15961
 30
0
  0
SEQEND
  5
2CF
  8
0
  6
BYLAYER
 62
    1
  0
POLYLINE
  5
2D0
  8
0
  6
BYLAYER
 62
    1
 66
    1
 10
0
 20
0
 30
0
 70
    0
  0
VERTEX
  5
2D1
  8
0
  6
BYLAYER
 62
    1
 10
4.73768
 20
2.14333
 30
0
  0
VERTEX
  5
2D2
  8
0
  6
BYLAYER
 62
    1
 10
4.73768
 20
2.15961
 30
0
  0
SEQEND
  5
2D3
  8
0
  6
BYLAYER
 62
    1
  0
POLYLINE
  5
2D4
  8
0
  6
BYLAYER
 62
    1
 66
    1
 10
0
 20
0
 30
0
 70
    0
  0
VERTEX
  5
2D5
  8
0
  6
BYLAYER
 62
    1
 10
4.73768
 20
2.14333
 30
0
  0
VERTEX
  5
2D6
  8
0
  6
BYLAYER
 62
    1
 10
4.75125
 20
2.14333
 30
0
  0
SEQEND
  5
2D7
  8
0
  6
BYLAYER
 62
    1
  0
POLYLINE
  5
2D8
  8
0
  6
BYLAYER
 62
    1
 66
    1
 10
0
 20
0
 30
0
 70
    0
  0
VERTEX
  5
2D9
  8
0
  6
BYLAYER
 62
    1
 10
4.75125
 20
2.15961
 30
0
  0
VERTEX
  5
2DA
  8
0
  6
BYLAYER
 62
    1
 10
4.75125
 20
2.14333
 30
0
  0
SEQEND
  5
2DB
  8
0
  6
BYLAYER
 62
    1
  0
POLYLINE
  5
2DC
  8
0
  6
BYLAYER
 62
    1
 66
    1
 10
0
 20
0
 30
0
 70
    0
  0
VERTEX
  5
2DD
  8
0
  6
BYLAYER
 62
    1
 10
4.97418
 20
2.15961
 30
0
  0
VERTEX
  5
2DE
  8
0
  6
BYLAYER
 62
    1
 10
4.96729
 20
2.1589
 30
0
  0
VERTEX
  5
2DF
  8
0
  6
BYLAYER
 62
    1
 10
4.9471
 20
2.15153
 30
0
  0
VERTEX
  5
2E0
  8
0
  6
BYLAYER
 62
    1
 10
4.92828
 20
2.13542
 30
0
  0
VERTEX
  5
2E1
  8
0
  6
BYLAYER
 62
    1
 10
4.91758
 20
2.11415
 30
0
  0
VERTEX
  5
2E2
  8
0
  6
BYLAYER
 62
    1
 10
4.91488
 20
2.09044
 30
0
  0
VERTEX
  5
2E3
  8
0
  6
BYLAYER
 62
    1
 10
4.91997
 20
2.06717
 30
0
  0
VERTEX
  5
2E4
  8
0
  6
BYLAYER
 62
    1
 10
4.93278
 20
2.0471
 30
0
  0
VERTEX
  5
2E5
  8
0
  6
BYLAYER
 62
    1
 10
4.95318
 20
2.03304
 30
0
  0
VERTEX
  5
2E6
  8
0
  6
BYLAYER
 62
    1
 10
4.97401
 20
2.02767
 30
0
  0
VERTEX
  5
2E7
  8
0
  6
BYLAYER
 62
    1
 10
4.98096
 20
2.02767
 30
0
  0
VERTEX
  5
2E8
  8
0
  6
BYLAYER
 62
    1
 10
4.98785
 20
2.02767
 30
0
  0
VERTEX
  5
2E9
  8
0
  6
BYLAYER
 62
    1
 10
5.00868
 20
2.03304
 30
0
  0
VERTEX
  5
2EA
  8
0
  6
BYLAYER
 62
    1
 10
5.02903
 20
2.0471
 30
0
  0
VERTEX
  5
2EB
  8
0
  6
BYLAYER
 62
    1
 10
5.04189
 20
2.06717
 30
0
  0
VERTEX
  5
2EC
  8
0
  6
BYLAYER
 62
    1
 10
5.04699
 20
2.09044
 30
0
  0
VERTEX
  5
2ED
  8
0
  6
BYLAYER
 62
    1
 10
5.04428
 20
2.11415
 30
0
  0
VERTEX
  5
2EE
  8
0
  6
BYLAYER
 62
    1
 10
5.03358
 20
2.13542
 30
0
  0
VERTEX
  5
2EF
  8
0
  6
BYLAYER
 62
    1
 10
5.01476
 20
2.15153
 30
0
  0
VERTEX
  5
2F0
  8
0
  6
BYLAYER
 62
    1
 10
4.99457
 20
2.1589
 30
0
  0
VERTEX
  5
2F1
  8
0
  6
BYLAYER
 62
    1
 10
4.98768
 20
2.15961
 30
0
  0
SEQEND
  5
2F2
  8
0
  6
BYLAYER
 62
    1
  0
POLYLINE
  5
2F3
  8
0
  6
BYLAYER
 62
    1
 66
    1
 10
0
 20
0
 30
0
 70
    0
  0
VERTEX
  5
2F4
  8
0
  6
BYLAYER
 62
    1
 10
4.97418
 20
2.14333
 30
0
  0
VERTEX
  5
2F5
  8
0
  6
BYLAYER
 62
    1
 10
4.97418
 20
2.15961
 30
0
  0
SEQEND
  5
2F6
  8
0
  6
BYLAYER
 62
    1
  0
POLYLINE
  5
2F7
  8
0
  6
BYLAYER
 62
    1
 66
    1
 10
0
 20
0
 30
0
 70
    0
  0
VERTEX
  5
2F8
  8
0
  6
BYLAYER
 62
    1
 10
4.97418
 20
2.14333
 30
0
  0
VERTEX
  5
2F9
  8
0
  6
BYLAYER
 62
    1
 10
4.98768
 20
2.14333
 30
0
  0
SEQEND
  5
2FA
  8
0
  6
BYLAYER
 62
    1
  0
POLYLINE
  5
2FB
  8
0
  6
BYLAYER
 62
    1
 66
    1
 10
0
 20
0
 30
0
 70
    0
  0
VERTEX
  5
2FC
  8
0
  6
BYLAYER
 62
    1
 10
4.98768
 20
2.15961
 30
0
  0
VERTEX
  5
2FD
  8
0
  6
BYLAYER
 62
    1
 10
4.98768
 20
2.14333
 30
0
  0
SEQEND
  5
2FE
  8
0
  6
BYLAYER
 62
    1
  0
POLYLINE
  5
2FF
  8
0
  6
BYLAYER
 62
    1
 66
    1
 10
0
 20
0
 30
0
 70
    1
  0
VERTEX
  5
300
  8
0
  6
BYLAYER
 62
    1
 10
1.45188
 20
2.29432
 30
0
  0
VERTEX
  5
301
  8
0
  6
BYLAYER
 62
    1
 10
1.45188
 20
2.28461
 30
0
  0
VERTEX
  5
302
  8
0
  6
BYLAYER
 62
    1
 10
1.44401
 20
2.25543
 30
0
  0
VERTEX
  5
303
  8
0
  6
BYLAYER
 62
    1
 10
1.42258
 20
2.22364
 30
0
  0
VERTEX
  5
304
  8
0
  6
BYLAYER
 62
    1
 10
1.39079
 20
2.20221
 30
0
  0
VERTEX
  5
305
  8
0
  6
BYLAYER
 62
    1
 10
1.3616
 20
2.19433
 30
0
  0
VERTEX
  5
306
  8
0
  6
BYLAYER
 62
    1
 10
1.35189
 20
2.19433
 30
0
  0
VERTEX
  5
307
  8
0
  6
BYLAYER
 62
    1
 10
1.34212
 20
2.19433
 30
0
  0
VERTEX
  5
308
  8
0
  6
BYLAYER
 62
    1
 10
1.31293
 20
2.20221
 30
0
  0
VERTEX
  5
309
  8
0
  6
BYLAYER
 62
    1
 10
1.28114
 20
2.22364
 30
0
  0
VERTEX
  5
30A
  8
0
  6
BYLAYER
 62
    1
 10
1.25971
 20
2.25543
 30
0
  0
VERTEX
  5
30B
  8
0
  6
BYLAYER
 62
    1
 10
1.2519
 20
2.28461
 30
0
  0
VERTEX
  5
30C
  8
0
  6
BYLAYER
 62
    1
 10
1.2519
 20
2.29432
 30
0
  0
VERTEX
  5
30D
  8
0
  6
BYLAYER
 62
    1
 10
1.2519
 20
2.3041
 30
0
  0
VERTEX
  5
30E
  8
0
  6
BYLAYER
 62
    1
 10
1.25971
 20
2.33328
 30
0
  0
VERTEX
  5
30F
  8
0
  6
BYLAYER
 62
    1
 10
1.28114
 20
2.36507
 30
0
  0
VERTEX
  5
310
  8
0
  6
BYLAYER
 62
    1
 10
1.31293
 20
2.38656
 30
0
  0
VERTEX
  5
311
  8
0
  6
BYLAYER
 62
    1
 10
1.34212
 20
2.39438
 30
0
  0
VERTEX
  5
312
  8
0
  6
BYLAYER
 62
    1
 10
1.35189
 20
2.39438
 30
0
  0
VERTEX
  5
313
  8
0
  6
BYLAYER
 62
    1
 10
1.3616
 20
2.39438
 30
0
  0
VERTEX
  5
314
  8
0
  6
BYLAYER
 62
    1
 10
1.39079
 20
2.38656
 30
0
  0
VERTEX
  5
315
  8
0
  6
BYLAYER
 62
    1
 10
1.42258
 20
2.36507
 30
0
  0
VERTEX
  5
316
  8
0
  6
BYLAYER
 62
    1
 10
1.44401
 20
2.33328
 30
0
  0
VERTEX
  5
317
  8
0
  6
BYLAYER
 62
    1
 10
1.45188
 20
2.3041
 30
0
  0
VERTEX
  5
318
  8
0
  6
BYLAYER
 62
    1
 10
1.45188
 20
2.29432
 30
0
  0
SEQEND
  5
319
  8
0
  6
BYLAYER
 62
    1
  0
POLYLINE
  5
31A
  8
0
  6
BYLAYER
 62
    1
 66
    1
 10
0
 20
0
 30
0
 70
    0
  0
VERTEX
  5
31B
  8
0
  6
BYLAYER
 62
    1
 10
2.13232
 20
2.57975
 30
0
  0
VERTEX
  5
31C
  8
0
  6
BYLAYER
 62
    1
 10
2.13232
 20
2.77767
 30
0
  0
SEQEND
  5
31D
  8
0
  6
BYLAYER
 62
    1
  0
POLYLINE
  5
31E
  8
0
  6
BYLAYER
 62
    1
 66
    1
 10
0
 20
0
 30
0
 70
    0
  0
VERTEX
  5
31F
  8
0
  6
BYLAYER
 62
    1
 10
2.13232
 20
2.57975
 30
0
  0
VERTEX
  5
320
  8
0
  6
BYLAYER
 62
    1
 10
1.74169
 20
2.57975
 30
0
  0
SEQEND
  5
321
  8
0
  6
BYLAYER
 62
    1
  0
POLYLINE
  5
322
  8
0
  6
BYLAYER
 62
    1
 66
    1
 10
0
 20
0
 30
0
 70
    0
  0
VERTEX
  5
323
  8
0
  6
BYLAYER
 62
    1
 10
1.74169
 20
2.77767
 30
0
  0
VERTEX
  5
324
  8
0
  6
BYLAYER
 62
    1
 10
1.74169
 20
2.57975
 30
0
  0
SEQEND
  5
325
  8
0
  6
BYLAYER
 62
    1
  0
POLYLINE
  5
326
  8
0
  6
BYLAYER
 62
    1
 66
    1
 10
0
 20
0
 30
0
 70
    0
  0
VERTEX
  5
327
  8
0
  6
BYLAYER
 62
    1
 10
1.74169
 20
2.77767
 30
0
  0
VERTEX
  5
328
  8
0
  6
BYLAYER
 62
    1
 10
2.13232
 20
2.77767
 30
0
  0
SEQEND
  5
329
  8
0
  6
BYLAYER
 62
    1
  0
POLYLINE
  5
32A
  8
0
  6
BYLAYER
 62
    1
 66
    1
 10
0
 20
0
 30
0
 70
    1
  0
VERTEX
  5
32B
  8
0
  6
BYLAYER
 62
    1
 10
2.49013
 20
2.86621
 30
0
  0
VERTEX
  5
32C
  8
0
  6
BYLAYER
 62
    1
 10
2.49013
 20
2.8635
 30
0
  0
VERTEX
  5
32D
  8
0
  6
BYLAYER
 62
    1
 10
2.48551
 20
2.85519
 30
0
  0
VERTEX
  5
32E
  8
0
  6
BYLAYER
 62
    1
 10
2.47721
 20
2.85058
 30
0
  0
VERTEX
  5
32F
  8
0
  6
BYLAYER
 62
    1
 10
2.4745
 20
2.85058
 30
0
  0
VERTEX
  5
330
  8
0
  6
BYLAYER
 62
    1
 10
2.47174
 20
2.85058
 30
0
  0
VERTEX
  5
331
  8
0
  6
BYLAYER
 62
    1
 10
2.46343
 20
2.85519
 30
0
  0
VERTEX
  5
332
  8
0
  6
BYLAYER
 62
    1
 10
2.45888
 20
2.8635
 30
0
  0
VERTEX
  5
333
  8
0
  6
BYLAYER
 62
    1
 10
2.45888
 20
2.86621
 30
0
  0
VERTEX
  5
334
  8
0
  6
BYLAYER
 62
    1
 10
2.45888
 20
2.86897
 30
0
  0
VERTEX
  5
335
  8
0
  6
BYLAYER
 62
    1
 10
2.46343
 20
2.87728
 30
0
  0
VERTEX
  5
336
  8
0
  6
BYLAYER
 62
    1
 10
2.47174
 20
2.88183
 30
0
  0
VERTEX
  5
337
  8
0
  6
BYLAYER
 62
    1
 10
2.4745
 20
2.88183
 30
0
  0
VERTEX
  5
338
  8
0
  6
BYLAYER
 62
    1
 10
2.47721
 20
2.88183
 30
0
  0
VERTEX
  5
339
  8
0
  6
BYLAYER
 62
    1
 10
2.48551
 20
2.87728
 30
0
  0
VERTEX
  5
33A
  8
0
  6
BYLAYER
 62
    1
 10
2.49013
 20
2.86897
 30
0
  0
VERTEX
  5
33B
  8
0
  6
BYLAYER
 62
    1
 10
2.49013
 20
2.86621
 30
0
  0
SEQEND
  5
33C
  8
0
  6
BYLAYER
 62
    1
  0
POLYLINE
  5
33D
  8
0
  6
BYLAYER
 62
    1
 66
    1
 10
0
 20
0
 30
0
 70
    1
  0
VERTEX
  5
33E
  8
0
  6
BYLAYER
 62
    1
 10
1.79221
 20
2.49121
 30
0
  0
VERTEX
  5
33F
  8
0
  6
BYLAYER
 62
    1
 10
1.79221
 20
2.4885
 30
0
  0
VERTEX
  5
340
  8
0
  6
BYLAYER
 62
    1
 10
1.7876
 20
2.48019
 30
0
  0
VERTEX
  5
341
  8
0
  6
BYLAYER
 62
    1
 10
1.77929
 20
2.47558
 30
0
  0
VERTEX
  5
342
  8
0
  6
BYLAYER
 62
    1
 10
1.77658
 20
2.47558
 30
0
  0
VERTEX
  5
343
  8
0
  6
BYLAYER
 62
    1
 10
1.77382
 20
2.47558
 30
0
  0
VERTEX
  5
344
  8
0
  6
BYLAYER
 62
    1
 10
1.76551
 20
2.48019
 30
0
  0
VERTEX
  5
345
  8
0
  6
BYLAYER
 62
    1
 10
1.76096
 20
2.4885
 30
0
  0
VERTEX
  5
346
  8
0
  6
BYLAYER
 62
    1
 10
1.76096
 20
2.49121
 30
0
  0
VERTEX
  5
347
  8
0
  6
BYLAYER
 62
    1
 10
1.76096
 20
2.49397
 30
0
  0
VERTEX
  5
348
  8
0
  6
BYLAYER
 62
    1
 10
1.76551
 20
2.50228
 30
0
  0
VERTEX
  5
349
  8
0
  6
BYLAYER
 62
    1
 10
1.77382
 20
2.50683
 30
0
  0
VERTEX
  5
34A
  8
0
  6
BYLAYER
 62
    1
 10
1.77658
 20
2.50683
 30
0
  0
VERTEX
  5
34B
  8
0
  6
BYLAYER
 62
    1
 10
1.77929
 20
2.50683
 30
0
  0
VERTEX
  5
34C
  8
0
  6
BYLAYER
 62
    1
 10
1.7876
 20
2.50228
 30
0
  0
VERTEX
  5
34D
  8
0
  6
BYLAYER
 62
    1
 10
1.79221
 20
2.49397
 30
0
  0
VERTEX
  5
34E
  8
0
  6
BYLAYER
 62
    1
 10
1.79221
 20
2.49121
 30
0
  0
SEQEND
  5
34F
  8
0
  6
BYLAYER
 62
    1
  0
POLYLINE
  5
350
  8
0
  6
BYLAYER
 62
    1
 66
    1
 10
0
 20
0
 30
0
 70
    1
  0
VERTEX
  5
351
  8
0
  6
BYLAYER
 62
    1
 10
2.49013
 20
2.49121
 30
0
  0
VERTEX
  5
352
  8
0
  6
BYLAYER
 62
    1
 10
2.49013
 20
2.4885
 30
0
  0
VERTEX
  5
353
  8
0
  6
BYLAYER
 62
    1
 10
2.48551
 20
2.48019
 30
0
  0
VERTEX
  5
354
  8
0
  6
BYLAYER
 62
    1
 10
2.47721
 20
2.47558
 30
0
  0
VERTEX
  5
355
  8
0
  6
BYLAYER
 62
    1
 10
2.4745
 20
2.47558
 30
0
  0
VERTEX
  5
356
  8
0
  6
BYLAYER
 62
    1
 10
2.47174
 20
2.47558
 30
0
  0
VERTEX
  5
357
  8
0
  6
BYLAYER
 62
    1
 10
2.46343
 20
2.48019
 30
0
  0
VERTEX
  5
358
  8
0
  6
BYLAYER
 62
    1
 10
2.45888
 20
2.4885
 30
0
  0
VERTEX
  5
359
  8
0
  6
BYLAYER
 62
    1
 10
2.45888
 20
2.49121
 30
0
  0
VERTEX
  5
35A
  8
0
  6
BYLAYER
 62
    1
 10
2.45888
 20
2.49397
 30
0
  0
VERTEX
  5
35B
  8
0
  6
BYLAYER
 62
    1
 10
2.46343
 20
2.50228
 30
0
  0
VERTEX
  5
35C
  8
0
  6
BYLAYER
 62
    1
 10
2.47174
 20
2.50683
 30
0
  0
VERTEX
  5
35D
  8
0
  6
BYLAYER
 62
    1
 10
2.4745
 20
2.50683
 30
0
  0
VERTEX
  5
35E
  8
0
  6
BYLAYER
 62
    1
 10
2.47721
 20
2.50683
 30
0
  0
VERTEX
  5
35F
  8
0
  6
BYLAYER
 62
    1
 10
2.48551
 20
2.50228
 30
0
  0
VERTEX
  5
360
  8
0
  6
BYLAYER
 62
    1
 10
2.49013
 20
2.49397
 30
0
  0
VERTEX
  5
361
  8
0
  6
BYLAYER
 62
    1
 10
2.49013
 20
2.49121
 30
0
  0
SEQEND
  5
362
  8
0
  6
BYLAYER
 62
    1
  0
ENDSEC
  0
EOF
