<?xml version="1.0" encoding="utf-8" ?><!DOCTYPE svg PUBLIC "-//W3C//DTD SVG 1.1//EN" "http://www.w3.org/Graphics/SVG/1.1/DTD/svg11.dtd" 
[ <!ATTLIST svg 
  xmlns:dsy CDATA #FIXED "http://www.3ds.com/print"  
    dsy:text-version CDATA #IMPLIED > 

  <!ATTLIST text 
  xmlns:dsy CDATA #FIXED "http://www.3ds.com/print" 
    dsy:text-version CDATA #IMPLIED > 
]><svg xmlns="http://www.w3.org/2000/svg" xmlns:dsy="http://www.3ds.com/print" dsy:text-version="18000" width="594" height="420" viewBox="0 0 594 420" version="1.1"><g stroke="rgb(0, 0, 0)" stroke-width="0.35" stroke-linecap="butt" stroke-linejoin="miter" fill="none"><path d="M 241.255 165.25 L 352.355 165.25"/><path d="M 241.255 165.25 L 241.255 172.25"/><path d="M 70.5 271.75 L 523.5 271.75"/><path d="M 503.394 193.346 L 523.5 271.75"/><path d="M 503.394 193.346 A 60 60 0 0 0 445.275 148.25"/><path d="M 292.59 148.25 L 445.275 148.25"/><path d="M 148.725 148.25 L 292.59 148.25"/><path d="M 148.725 148.25 A 60 60 0 0 0 90.606 193.346"/><path d="M 90.6059 193.346 L 70.5 271.75"/><path d="M 352.355 172.25 L 352.355 165.25"/><path d="M 352.355 172.25 L 241.255 172.25"/><circle cx="104.478" cy="218.25" r="1.60001"/><circle cx="489.133" cy="218.25" r="1.60001"/><circle cx="220.5" cy="246.75" r="1.60001"/><circle cx="388.5" cy="244.75" r="1.60001"/><circle cx="410.295" cy="178.25" r="1.60001"/><circle cx="200.5" cy="178.25" r="1.60001"/><circle cx="281.094" cy="218.45" r="1.60001"/><circle cx="338.094" cy="184.45" r="1.60001"/><circle cx="338.094" cy="218.45" r="1.60001"/><circle cx="404.46" cy="186.54" r="1.60001"/><path d="M 310.694 219.15 L 310.694 184.25"/><path d="M 310.694 219.15 L 286.194 219.15"/><path d="M 286.194 184.25 L 286.194 219.15"/><path d="M 286.194 184.25 L 310.694 184.25"/><path d="M 134.65 212.558 A 6.25 6.25 0 1 0 136.35 212.558"/><path d="M 134.65 213.523 L 134.65 212.558"/><path d="M 134.65 213.523 L 136.35 213.523"/><path d="M 136.35 212.558 L 136.35 213.523"/><circle cx="165.5" cy="247.75" r="9.60001"/><circle cx="195.5" cy="247.75" r="9.60001"/><path d="M 194.85 212.433 A 6.35001 6.35001 0 1 0 196.15 212.433"/><path d="M 194.85 214 L 194.85 212.433"/><path d="M 194.85 214 L 196.15 214"/><path d="M 196.15 212.433 L 196.15 214"/><circle cx="165.5" cy="218.75" r="9.60001"/><path d="M 169.65 175.795 A 8 8 0 1 0 171.35 175.795"/><path d="M 169.65 176.75 L 169.65 175.795"/><path d="M 169.65 176.75 L 171.35 176.75"/><path d="M 171.35 175.795 L 171.35 176.75"/><path d="M 417.45 239.083 A 6.35001 6.35001 0 1 0 418.75 239.083"/><path d="M 417.45 240.65 L 417.45 239.083"/><path d="M 417.45 240.65 L 418.75 240.65"/><path d="M 418.75 239.083 L 418.75 240.65"/><path d="M 440.15 239.083 A 6.35001 6.35001 0 1 0 441.45 239.083"/><path d="M 440.15 240.65 L 440.15 239.083"/><path d="M 440.15 240.65 L 441.45 240.65"/><path d="M 441.45 239.083 L 441.45 240.65"/><path d="M 462.85 239.083 A 6.35001 6.35001 0 1 0 464.15 239.083"/><path d="M 462.85 240.65 L 462.85 239.083"/><path d="M 462.85 240.65 L 464.15 240.65"/><path d="M 464.15 239.083 L 464.15 240.65"/><circle cx="135.5" cy="247.75" r="9.60001"/><path d="M 459.5 212.75 L 459.5 191.75"/><path d="M 459.5 212.75 L 420 212.75"/><path d="M 420 191.75 L 420 212.75"/><path d="M 420 191.75 L 459.5 191.75"/><circle cx="474.46" cy="186.54" r="1.60001"/><circle cx="404.46" cy="220.54" r="1.60001"/><circle cx="474.46" cy="220.54" r="1.60001"/></g><g stroke="rgb(0, 0, 0)" stroke-width="0.13" stroke-linecap="butt" stroke-linejoin="miter" fill="none"><path d="M 299.396 280.102 L 298.518 283.082 L 297.615 280.102 L 297.136 280.102 L 298.266 283.607 L 298.77 283.607 L 299.875 280.102 L 299.396 280.102 L 299.396 280.102 z M 302.598 280.898 L 302.154 280.898 L 302.154 282.462 L 302.104 282.825 L 301.958 283.087 L 301.731 283.249 L 301.433 283.299 L 301.196 283.259 L 301.045 283.138 L 300.959 282.931 L 300.939 282.638 L 300.939 280.898 L 300.495 280.898 L 300.495 282.679 L 300.51 283.037 L 300.606 283.334 L 300.898 283.607 L 301.367 283.702 L 301.62 283.667 L 301.836 283.576 L 302.023 283.42 L 302.174 283.193 L 302.174 283.607 L 302.598 283.607 L 302.598 280.898 L 302.598 280.898 z M 303.934 282.381 L 305.71 282.381 L 305.715 282.174 L 305.634 281.594 L 305.412 281.161 L 305.059 280.898 L 304.59 280.803 L 304.131 280.903 L 303.778 281.186 L 303.551 281.645 L 303.47 282.25 L 303.546 282.87 L 303.773 283.324 L 304.121 283.607 L 304.575 283.702 L 304.968 283.637 L 305.291 283.465 L 305.528 283.193 L 305.664 282.83 L 305.226 282.83 L 305.135 283.032 L 305.004 283.183 L 304.63 283.304 L 304.343 283.249 L 304.126 283.072 L 303.985 282.785 L 303.934 282.396 L 303.934 282.381 L 303.934 282.381 z M 303.934 282.008 L 303.99 281.66 L 304.126 281.403 L 304.333 281.246 L 304.605 281.191 L 304.873 281.246 L 305.079 281.403 L 305.205 281.66 L 305.251 282.008 L 303.934 282.008 L 303.934 282.008 z M 311.283 283.188 L 311.283 283.607 L 311.726 283.607 L 311.726 279.986 L 311.288 279.986 L 311.288 281.312 L 310.95 280.929 L 310.743 280.838 L 310.506 280.803 L 310.077 280.903 L 309.744 281.186 L 309.527 281.64 L 309.452 282.25 L 309.527 282.86 L 309.744 283.319 L 310.077 283.607 L 310.506 283.702 L 310.743 283.667 L 310.955 283.576 L 311.283 283.188 L 311.283 283.188 z M 310.581 281.201 L 310.874 281.272 L 311.096 281.468 L 311.227 281.796 L 311.277 282.25 L 311.227 282.709 L 311.096 283.037 L 310.874 283.238 L 310.581 283.304 L 310.304 283.238 L 310.092 283.037 L 309.951 282.704 L 309.906 282.25 L 309.951 281.801 L 310.092 281.473 L 310.304 281.272 L 310.581 281.201 L 310.581 281.201 z M 313.043 282.381 L 314.818 282.381 L 314.823 282.174 L 314.742 281.594 L 314.52 281.161 L 314.167 280.898 L 313.698 280.803 L 313.239 280.903 L 312.886 281.186 L 312.659 281.645 L 312.579 282.25 L 312.654 282.87 L 312.881 283.324 L 313.229 283.607 L 313.683 283.702 L 314.076 283.637 L 314.399 283.465 L 314.636 283.193 L 314.772 282.83 L 314.334 282.83 L 314.243 283.032 L 314.112 283.183 L 313.739 283.304 L 313.451 283.249 L 313.234 283.072 L 313.093 282.785 L 313.043 282.396 L 313.043 282.381 L 313.043 282.381 z M 313.043 282.008 L 313.098 281.66 L 313.234 281.403 L 313.441 281.246 L 313.713 281.191 L 313.981 281.246 L 314.187 281.403 L 314.314 281.66 L 314.359 282.008 L 313.043 282.008 L 313.043 282.008 z M 319.342 281.367 L 319.342 283.607 L 319.785 283.607 L 319.785 281.367 L 320.794 281.367 L 320.794 280.989 L 319.785 280.989 L 319.785 280.823 L 319.821 280.621 L 319.937 280.485 L 320.133 280.404 L 320.416 280.374 L 320.794 280.394 L 320.794 280.011 L 320.315 279.986 L 319.881 280.031 L 319.579 280.167 L 319.397 280.404 L 319.342 280.742 L 319.342 280.989 L 318.53 280.989 L 318.53 281.367 L 319.342 281.367 L 319.342 281.367 z M 323.371 283.254 L 323.371 283.269 L 323.396 283.44 L 323.472 283.561 L 323.79 283.657 L 324.037 283.617 L 324.037 283.274 L 323.931 283.289 L 323.79 283.223 L 323.765 283.022 L 323.765 281.62 L 323.704 281.262 L 323.528 281.009 L 323.22 280.858 L 322.786 280.803 L 322.363 280.863 L 322.05 281.035 L 321.853 281.302 L 321.788 281.655 L 321.788 281.685 L 322.186 281.685 L 322.221 281.473 L 322.332 281.322 L 322.514 281.231 L 322.771 281.196 L 323.018 281.221 L 323.195 281.297 L 323.301 281.428 L 323.336 281.61 L 323.316 281.821 L 323.235 281.927 L 323.033 281.978 L 322.655 282.018 L 322.221 282.109 L 321.914 282.27 L 321.732 282.522 L 321.677 282.896 L 321.727 283.228 L 321.883 283.476 L 322.136 283.632 L 322.484 283.687 L 322.953 283.581 L 323.371 283.254 L 323.371 283.254 z M 323.321 282.659 L 323.26 282.921 L 323.099 283.122 L 322.857 283.254 L 322.559 283.299 L 322.368 283.274 L 322.231 283.193 L 322.146 283.052 L 322.12 282.855 L 322.141 282.679 L 322.221 282.553 L 322.544 282.411 L 322.953 282.351 L 323.321 282.23 L 323.321 282.659 L 323.321 282.659 z M 326.523 281.796 L 326.962 281.796 L 326.871 281.393 L 326.654 281.075 L 326.316 280.878 L 325.878 280.803 L 325.394 280.903 L 325.025 281.186 L 324.793 281.645 L 324.713 282.26 L 324.788 282.87 L 325.015 283.324 L 325.373 283.607 L 325.863 283.702 L 326.296 283.627 L 326.634 283.415 L 326.866 283.082 L 326.967 282.638 L 326.543 282.638 L 326.468 282.921 L 326.327 283.133 L 326.125 283.264 L 325.878 283.304 L 325.57 283.238 L 325.348 283.037 L 325.212 282.709 L 325.167 282.245 L 325.212 281.791 L 325.353 281.463 L 325.58 281.262 L 325.878 281.191 L 326.14 281.236 L 326.337 281.352 L 326.468 281.544 L 326.523 281.796 L 326.523 281.796 z M 328.223 282.381 L 329.998 282.381 L 330.003 282.174 L 329.922 281.594 L 329.7 281.161 L 329.347 280.898 L 328.878 280.803 L 328.419 280.903 L 328.066 281.186 L 327.84 281.645 L 327.759 282.25 L 327.834 282.87 L 328.061 283.324 L 328.409 283.607 L 328.863 283.702 L 329.257 283.637 L 329.579 283.465 L 329.816 283.193 L 329.953 282.83 L 329.514 282.83 L 329.423 283.032 L 329.292 283.183 L 328.919 283.304 L 328.631 283.249 L 328.414 283.072 L 328.273 282.785 L 328.223 282.396 L 328.223 282.381 L 328.223 282.381 z M 328.223 282.008 L 328.278 281.66 L 328.414 281.403 L 328.621 281.246 L 328.894 281.191 L 329.161 281.246 L 329.368 281.403 L 329.494 281.66 L 329.539 282.008 L 328.223 282.008 L 328.223 282.008 z" stroke="none" fill-rule="evenodd" fill="rgb(0, 0, 0)"/></g><g stroke="rgb(0, 0, 0)" stroke-width="0.13" stroke-linecap="butt" stroke-linejoin="miter" fill="none"><path d="M 297.459 289.653 L 299.678 289.653 L 299.678 289.23 L 297.923 289.23 L 297.923 288.045 L 299.486 288.045 L 299.486 287.626 L 297.923 287.626 L 297.923 286.577 L 299.638 286.577 L 299.638 286.153 L 297.459 286.153 L 297.459 289.653 L 297.459 289.653 z M 302.235 287.843 L 302.674 287.843 L 302.583 287.439 L 302.366 287.122 L 302.028 286.925 L 301.589 286.849 L 301.105 286.95 L 300.737 287.233 L 300.505 287.692 L 300.424 288.307 L 300.5 288.917 L 300.727 289.371 L 301.085 289.653 L 301.574 289.749 L 302.008 289.674 L 302.346 289.462 L 302.578 289.129 L 302.679 288.685 L 302.255 288.685 L 302.179 288.968 L 302.038 289.179 L 301.836 289.311 L 301.589 289.351 L 301.282 289.285 L 301.06 289.084 L 300.924 288.756 L 300.878 288.292 L 300.924 287.838 L 301.065 287.51 L 301.292 287.308 L 301.589 287.238 L 301.852 287.283 L 302.048 287.399 L 302.179 287.591 L 302.235 287.843 L 302.235 287.843 z M 303.546 289.653 L 303.99 289.653 L 303.99 288.09 L 304.035 287.732 L 304.182 287.47 L 304.409 287.308 L 304.711 287.248 L 304.953 287.298 L 305.105 287.434 L 305.18 287.661 L 305.205 287.964 L 305.205 289.653 L 305.649 289.653 L 305.649 287.873 L 305.629 287.515 L 305.538 287.218 L 305.241 286.945 L 304.777 286.849 L 304.525 286.885 L 304.308 286.981 L 304.126 287.132 L 303.99 287.339 L 303.99 286.032 L 303.546 286.032 L 303.546 289.653 L 303.546 289.653 z M 306.971 288.428 L 308.746 288.428 L 308.751 288.221 L 308.67 287.641 L 308.448 287.208 L 308.095 286.945 L 307.626 286.849 L 307.167 286.95 L 306.814 287.233 L 306.587 287.692 L 306.507 288.297 L 306.582 288.917 L 306.809 289.371 L 307.157 289.653 L 307.611 289.749 L 308.004 289.684 L 308.327 289.512 L 308.564 289.24 L 308.7 288.877 L 308.262 288.877 L 308.171 289.079 L 308.04 289.23 L 307.666 289.351 L 307.379 289.295 L 307.162 289.119 L 307.021 288.831 L 306.971 288.443 L 306.971 288.428 L 306.971 288.428 z M 306.971 288.055 L 307.026 287.707 L 307.162 287.45 L 307.369 287.293 L 307.641 287.238 L 307.909 287.293 L 308.115 287.45 L 308.241 287.707 L 308.287 288.055 L 306.971 288.055 L 306.971 288.055 z M 310.501 286.406 L 310.501 289.28 L 309.588 289.28 L 309.588 289.653 L 311.852 289.653 L 311.852 289.28 L 310.945 289.28 L 310.945 286.032 L 309.805 286.032 L 309.805 286.406 L 310.501 286.406 L 310.501 286.406 z M 313.537 286.406 L 313.537 289.28 L 312.624 289.28 L 312.624 289.653 L 314.888 289.653 L 314.888 289.28 L 313.981 289.28 L 313.981 286.032 L 312.841 286.032 L 312.841 286.406 L 313.537 286.406 L 313.537 286.406 z M 316.079 288.428 L 317.854 288.428 L 317.859 288.221 L 317.778 287.641 L 317.556 287.208 L 317.203 286.945 L 316.734 286.849 L 316.275 286.95 L 315.922 287.233 L 315.695 287.692 L 315.615 288.297 L 315.69 288.917 L 315.917 289.371 L 316.265 289.653 L 316.719 289.749 L 317.113 289.684 L 317.435 289.512 L 317.672 289.24 L 317.808 288.877 L 317.37 288.877 L 317.279 289.079 L 317.148 289.23 L 316.775 289.351 L 316.487 289.295 L 316.27 289.119 L 316.129 288.831 L 316.079 288.443 L 316.079 288.428 L 316.079 288.428 z M 316.079 288.055 L 316.134 287.707 L 316.27 287.45 L 316.477 287.293 L 316.749 287.238 L 317.017 287.293 L 317.223 287.45 L 317.35 287.707 L 317.395 288.055 L 316.079 288.055 L 316.079 288.055 z M 322.458 289.653 L 323.154 289.653 L 323.154 288.902 L 322.458 288.902 L 322.458 289.653 L 322.458 289.653 z M 322.458 287.697 L 323.154 287.697 L 323.154 286.945 L 322.458 286.945 L 322.458 287.697 L 322.458 287.697 z" stroke="none" fill-rule="evenodd" fill="rgb(0, 0, 0)"/></g><g stroke="rgb(0, 0, 0)" stroke-width="0.13" stroke-linecap="butt" stroke-linejoin="miter" fill="none"><path d="M 331.824 289.653 L 332.282 289.653 L 332.282 286.128 L 331.94 286.128 L 331.849 286.436 L 331.667 286.643 L 331.39 286.764 L 331.007 286.804 L 331.007 287.162 L 331.824 287.162 L 331.824 289.653 L 331.824 289.653 z M 334.602 289.653 L 335.298 289.653 L 335.298 288.902 L 334.602 288.902 L 334.602 289.653 L 334.602 289.653 z M 334.602 287.697 L 335.298 287.697 L 335.298 286.945 L 334.602 286.945 L 334.602 287.697 L 334.602 287.697 z M 337.896 289.653 L 338.355 289.653 L 338.355 286.128 L 338.012 286.128 L 337.921 286.436 L 337.739 286.643 L 337.462 286.764 L 337.079 286.804 L 337.079 287.162 L 337.896 287.162 L 337.896 289.653 L 337.896 289.653 z" stroke="none" fill-rule="evenodd" fill="rgb(0, 0, 0)"/></g></svg>