<?xml version="1.0" encoding="utf-8" ?><!DOCTYPE svg PUBLIC "-//W3C//DTD SVG 1.1//EN" "http://www.w3.org/Graphics/SVG/1.1/DTD/svg11.dtd" 
[ <!ATTLIST svg 
  xmlns:dsy CDATA #FIXED "http://www.3ds.com/print"  
    dsy:text-version CDATA #IMPLIED > 

  <!ATTLIST text 
  xmlns:dsy CDATA #FIXED "http://www.3ds.com/print" 
    dsy:text-version CDATA #IMPLIED > 
]><svg xmlns="http://www.w3.org/2000/svg" xmlns:dsy="http://www.3ds.com/print" dsy:text-version="18000" width="594" height="420" viewBox="0 0 594 420" version="1.1"><g stroke="rgb(0, 0, 0)" stroke-width="0.35" stroke-linecap="butt" stroke-linejoin="miter" fill="none"><path d="M 241.255 165.25 L 352.355 165.25"/><path d="M 241.255 165.25 L 241.255 172.25"/><path d="M 70.5 271.75 L 523.5 271.75"/><path d="M 503.394 193.346 L 523.5 271.75"/><path d="M 503.394 193.346 A 60 60 0 0 0 445.275 148.25"/><path d="M 292.59 148.25 L 445.275 148.25"/><path d="M 148.725 148.25 L 292.59 148.25"/><path d="M 148.725 148.25 A 60 60 0 0 0 90.606 193.346"/><path d="M 90.606 193.346 L 70.5 271.75"/><path d="M 352.355 172.25 L 352.355 165.25"/><path d="M 352.355 172.25 L 241.255 172.25"/><circle cx="104.478" cy="218.25" r="1.60001"/><circle cx="489.133" cy="218.25" r="1.60001"/><circle cx="220.5" cy="246.75" r="1.60001"/><circle cx="388.5" cy="244.75" r="1.60001"/><circle cx="410.295" cy="178.25" r="1.60001"/><circle cx="200.5" cy="178.25" r="1.60001"/><circle cx="281.094" cy="218.45" r="1.60001"/><circle cx="338.094" cy="184.45" r="1.60001"/><circle cx="338.094" cy="218.45" r="1.60001"/><circle cx="404.46" cy="186.54" r="1.60001"/><path d="M 310.694 219.15 L 310.694 184.25"/><path d="M 310.694 219.15 L 286.194 219.15"/><path d="M 286.194 184.25 L 286.194 219.15"/><path d="M 286.194 184.25 L 310.694 184.25"/><path d="M 134.65 241.558 A 6.25 6.25 0 1 0 136.35 241.558"/><path d="M 134.65 242.523 L 134.65 241.558"/><path d="M 134.65 242.523 L 136.35 242.523"/><path d="M 136.35 241.558 L 136.35 242.523"/><circle cx="165.5" cy="247.75" r="9.60001"/><circle cx="195.5" cy="247.75" r="9.60001"/><path d="M 194.85 212.433 A 6.35001 6.35001 0 1 0 196.15 212.433"/><path d="M 194.85 214 L 194.85 212.433"/><path d="M 194.85 214 L 196.15 214"/><path d="M 196.15 212.433 L 196.15 214"/><circle cx="165.5" cy="218.75" r="9.60001"/><path d="M 169.65 175.795 A 8 8 0 1 0 171.35 175.795"/><path d="M 169.65 176.75 L 169.65 175.795"/><path d="M 169.65 176.75 L 171.35 176.75"/><path d="M 171.35 175.795 L 171.35 176.75"/><path d="M 417.45 239.083 A 6.35001 6.35001 0 1 0 418.75 239.083"/><path d="M 417.45 240.65 L 417.45 239.083"/><path d="M 417.45 240.65 L 418.75 240.65"/><path d="M 418.75 239.083 L 418.75 240.65"/><path d="M 440.15 239.083 A 6.35001 6.35001 0 1 0 441.45 239.083"/><path d="M 440.15 240.65 L 440.15 239.083"/><path d="M 440.15 240.65 L 441.45 240.65"/><path d="M 441.45 239.083 L 441.45 240.65"/><path d="M 462.85 239.083 A 6.35001 6.35001 0 1 0 464.15 239.083"/><path d="M 462.85 240.65 L 462.85 239.083"/><path d="M 462.85 240.65 L 464.15 240.65"/><path d="M 464.15 239.083 L 464.15 240.65"/><circle cx="135.5" cy="219.151" r="9.60001"/><path d="M 459.5 212.75 L 459.5 191.75"/><path d="M 459.5 212.75 L 420 212.75"/><path d="M 420 191.75 L 420 212.75"/><path d="M 420 191.75 L 459.5 191.75"/><circle cx="474.46" cy="186.54" r="1.60001"/><circle cx="404.46" cy="220.54" r="1.60001"/><circle cx="474.46" cy="220.54" r="1.60001"/></g></svg>