<?xml version="1.0" encoding="UTF-8" standalone="no"?>
<svg
   xmlns:dsy="http://www.3ds.com/print"
   xmlns:dc="http://purl.org/dc/elements/1.1/"
   xmlns:cc="http://creativecommons.org/ns#"
   xmlns:rdf="http://www.w3.org/1999/02/22-rdf-syntax-ns#"
   xmlns:svg="http://www.w3.org/2000/svg"
   xmlns="http://www.w3.org/2000/svg"
   xmlns:sodipodi="http://sodipodi.sourceforge.net/DTD/sodipodi-0.dtd"
   xmlns:inkscape="http://www.inkscape.org/namespaces/inkscape"
   dsy:text-version="18000"
   width="594mm"
   height="420mm"
   viewBox="0 0 2245.0394 1587.4016"
   version="1.1"
   id="svg136"
   sodipodi:docname="serigraphie8.svg"
   inkscape:version="0.92.3 (2405546, 2018-03-11)">
  <metadata
     id="metadata142">
    <rdf:RDF>
      <cc:Work
         rdf:about="">
        <dc:format>image/svg+xml</dc:format>
        <dc:type
           rdf:resource="http://purl.org/dc/dcmitype/StillImage" />
        <dc:title />
      </cc:Work>
    </rdf:RDF>
  </metadata>
  <defs
     id="defs140">
    <style
       id="style1374">.cls-1{fill:#000003;fill-rule:evenodd;}</style>
    <style
       id="style1394">.cls-1{fill:#fff;stroke:#1a1a18;stroke-miterlimit:22.93;stroke-width:0.57px;}.cls-1,.cls-2,.cls-3{fill-rule:evenodd;}.cls-2{fill:#000003;}.cls-3{fill:#e3000f;}</style>
  </defs>
  <sodipodi:namedview
     pagecolor="#ffffff"
     bordercolor="#666666"
     borderopacity="1"
     objecttolerance="10"
     gridtolerance="10"
     guidetolerance="10"
     inkscape:pageopacity="0"
     inkscape:pageshadow="2"
     inkscape:window-width="1920"
     inkscape:window-height="1017"
     id="namedview138"
     showgrid="false"
     units="mm"
     inkscape:zoom="3.0548188"
     inkscape:cx="323.00049"
     inkscape:cy="266.6866"
     inkscape:window-x="-8"
     inkscape:window-y="-8"
     inkscape:window-maximized="1"
     inkscape:current-layer="g193" />
  <g
     transform="matrix(1.0059456,0,0,1.0059456,-47.074811,1665.3769)"
     id="g193">
    <text
       id="text1002"
       y="-367.00824"
       x="331.64203"
       style="font-style:normal;font-weight:normal;font-size:45.27550888px;line-height:1.25;font-family:sans-serif;letter-spacing:0px;word-spacing:0px;fill:#000000;fill-opacity:1;stroke:none;stroke-width:3.77295923"
       xml:space="preserve"><tspan
         style="font-size:15.09183693px;stroke-width:3.77295923"
         y="-367.00824"
         x="331.64203"
         id="tspan1000"
         sodipodi:role="line">Contact</tspan></text>
    <text
       id="text1006"
       y="245.17986"
       x="105.51559"
       style="font-style:normal;font-weight:normal;font-size:5.33333349px;line-height:1.25;font-family:sans-serif;letter-spacing:0px;word-spacing:0px;fill:#000000;fill-opacity:1;stroke:#ff0000;stroke-opacity:1"
       xml:space="preserve"><tspan
         y="249.89861"
         x="105.51559"
         id="tspan1004"
         sodipodi:role="line" /></text>
    <text
       id="text1010"
       y="-255.67018"
       x="340.03708"
       style="font-style:normal;font-weight:normal;font-size:45.27550888px;line-height:1.25;font-family:sans-serif;letter-spacing:0px;word-spacing:0px;fill:#000000;fill-opacity:1;stroke:none;stroke-width:3.77295923"
       xml:space="preserve"><tspan
         style="font-size:15.09183693px;stroke-width:3.77295923"
         y="-255.67018"
         x="340.03708"
         id="tspan1008"
         sodipodi:role="line">Start</tspan></text>
    <text
       id="text1010-3"
       y="-255.67018"
       x="444.47891"
       style="font-style:normal;font-weight:normal;font-size:45.27550888px;line-height:1.25;font-family:sans-serif;letter-spacing:0px;word-spacing:0px;fill:#000000;fill-opacity:1;stroke:none;stroke-width:3.77295923"
       xml:space="preserve"><tspan
         style="font-size:15.09183693px;stroke-width:3.77295923"
         y="-255.67018"
         x="444.47891"
         id="tspan1008-0"
         sodipodi:role="line">Neutral</tspan></text>
    <text
       inkscape:transform-center-y="-4.5239291"
       inkscape:transform-center-x="54.287187"
       id="text1010-9"
       y="-268.03964"
       x="1391.9368"
       style="font-style:normal;font-weight:normal;font-size:45.27550888px;line-height:1.25;font-family:sans-serif;letter-spacing:0px;word-spacing:0px;fill:#000000;fill-opacity:1;stroke:none;stroke-width:3.77295923"
       xml:space="preserve"><tspan
         style="font-size:15.09183693px;stroke-width:3.77295923"
         y="-268.03964"
         x="1391.9368"
         id="tspan1008-2"
         sodipodi:role="line">Display</tspan></text>
    <text
       id="text1002-1"
       y="-367.00824"
       x="433.56836"
       style="font-style:normal;font-weight:normal;font-size:45.27550888px;line-height:1.25;font-family:sans-serif;letter-spacing:0px;word-spacing:0px;fill:#000000;fill-opacity:1;stroke:none;stroke-width:3.77295923"
       xml:space="preserve"><tspan
         id="tspan1144"
         style="font-size:15.09183693px;stroke-width:3.77295923"
         y="-367.00824"
         x="433.56836"
         sodipodi:role="line">Gear reset</tspan></text>
    <text
       id="text1002-3"
       y="-255.67018"
       x="544.13043"
       style="font-style:normal;font-weight:normal;font-size:45.27550888px;line-height:1.25;font-family:sans-serif;letter-spacing:0px;word-spacing:0px;fill:#000000;fill-opacity:1;stroke:none;stroke-width:3.77295923"
       xml:space="preserve"><tspan
         id="tspan1148"
         style="font-size:15.09183693px;stroke-width:3.77295923"
         y="-255.67018"
         x="544.13043"
         sodipodi:role="line">Launch Control</tspan></text>
    <g
       transform="matrix(0.06598917,0,0,0.06440366,1371.2236,-524.15837)"
       id="g1250">
      <path
         style="stroke:#ff0000;stroke-opacity:1"
         inkscape:connector-curvature="0"
         d="M 512,163.48047 V 69.480469 H 486.31641 V 0 H 382.89453 V 69.480469 H 334.89844 L 335.28125,14.539062 177.28516,13.4375 176.89453,69.480469 H 129.10547 V 0 H 25.683594 V 69.480469 H 0 V 163.48047 H 18 V 374.66406 H 0 v 94 h 512 v -94 H 492 V 163.48047 Z M 482,438.66406 H 30 v -34 h 452 z m -434,-64 v -210.5 h 414 v 210.5 z M 30,99.480469 H 482 V 133.48047 H 30 Z M 412.89453,30 h 43.42188 v 39.480469 h -43.42188 z m -205.82031,13.648438 98,0.679687 -0.17578,25.152344 H 206.89453 Z M 55.683594,30 H 99.105469 V 69.480469 H 55.683594 Z m 0,0"
         id="path1233" />
      <path
         style="stroke:#ff0000;stroke-opacity:1"
         inkscape:connector-curvature="0"
         d="m 302.62891,254.41406 h 105.79687 v 30 H 302.62891 Z m 0,0"
         id="path1235" />
      <path
         style="stroke:#ff0000;stroke-opacity:1"
         inkscape:connector-curvature="0"
         d="m 171.47656,216.51953 h -30 v 37.89453 h -37.89843 v 30 h 37.89843 v 37.89844 h 30 v -37.89844 h 37.89453 v -30 h -37.89453 z m 0,0"
         id="path1237" />
    </g>
    <g
       transform="matrix(0.05895249,0,0,0.05895249,1371.824,-476.85109)"
       id="g1331">
      <g
         id="g1256">
        <g
           id="g1254">
          <path
             style="stroke:#ff0000;stroke-opacity:1"
             inkscape:connector-curvature="0"
             d="M 341.333,288.593 V 85.333 C 341.333,38.205 303.128,0 256,0 208.872,0 170.667,38.205 170.667,85.333 V 288.592 C 144.48,312.03 128,346.091 128,384 c 0,70.693 57.308,128 128,128 70.692,0 128,-57.307 128,-128 0,-37.909 -16.48,-71.97 -42.667,-95.407 z M 256,469.333 c -47.128,0 -85.333,-38.205 -85.333,-85.333 0,-24.637 10.441,-47.492 28.455,-63.615 l 14.212,-12.72 V 85.333 c 0,-23.564 19.103,-42.667 42.667,-42.667 23.564,0 42.667,19.102 42.667,42.667 v 222.332 l 14.212,12.72 c 18.014,16.123 28.455,38.977 28.455,63.615 -0.002,47.128 -38.207,85.333 -85.335,85.333 z"
             id="path1252" />
        </g>
      </g>
      <g
         id="g1262">
        <g
           id="g1260">
          <rect
             style="stroke:#ff0000;stroke-opacity:1"
             x="234.66701"
             y="170.66701"
             width="42.667"
             height="256"
             id="rect1258" />
        </g>
      </g>
      <g
         id="g1268">
        <g
           id="g1266">
          <circle
             style="stroke:#ff0000;stroke-opacity:1"
             cx="256"
             cy="384"
             r="64"
             id="circle1264" />
        </g>
      </g>
      <g
         id="g1270" />
      <g
         id="g1272" />
      <g
         id="g1274" />
      <g
         id="g1276" />
      <g
         id="g1278" />
      <g
         id="g1280" />
      <g
         id="g1282" />
      <g
         id="g1284" />
      <g
         id="g1286" />
      <g
         id="g1288" />
      <g
         id="g1290" />
      <g
         id="g1292" />
      <g
         id="g1294" />
      <g
         id="g1296" />
      <g
         id="g1298" />
    </g>
    <text
       inkscape:transform-center-y="-4.523932"
       inkscape:transform-center-x="54.287238"
       id="text1010-9-4"
       y="-367.00824"
       x="529.34052"
       style="font-style:normal;font-weight:normal;font-size:45.27550888px;line-height:14.26000309px;font-family:sans-serif;letter-spacing:0px;word-spacing:0px;fill:#000000;fill-opacity:1;stroke:none;stroke-width:3.77295923"
       xml:space="preserve"><tspan
         id="tspan5158"
         style="font-size:15.09183693px;line-height:14.26000309px;stroke-width:3.77295923"
         y="-367.00824"
         x="529.34052"
         sodipodi:role="line">Traction control</tspan></text>
    <text
       inkscape:transform-center-y="-4.5239322"
       inkscape:transform-center-x="54.287135"
       id="text1010-9-5"
       y="-268.03955"
       x="1472.4723"
       style="font-style:normal;font-weight:normal;font-size:45.27550888px;line-height:1.25;font-family:sans-serif;letter-spacing:0px;word-spacing:0px;fill:#000000;fill-opacity:1;stroke:none;stroke-width:3.77295923"
       xml:space="preserve"><tspan
         style="font-size:15.09183693px;stroke-width:3.77295923"
         y="-268.03955"
         x="1472.4723"
         id="tspan1008-2-2"
         sodipodi:role="line">Wet / Dry</tspan></text>
    <text
       inkscape:transform-center-y="-4.5239322"
       inkscape:transform-center-x="54.287227"
       id="text1010-9-7"
       y="-268.03955"
       x="1580.0732"
       style="font-style:normal;font-weight:normal;font-size:45.27550888px;line-height:1.25;font-family:sans-serif;letter-spacing:0px;word-spacing:0px;fill:#000000;fill-opacity:1;stroke:none;stroke-width:3.77295923"
       xml:space="preserve"><tspan
         id="tspan5092"
         style="font-size:15.09183693px;stroke-width:3.77295923"
         y="-268.03955"
         x="1580.0732"
         sodipodi:role="line">Log</tspan></text>
    <text
       id="text1002-11"
       y="-421.0621"
       x="290.79993"
       style="font-style:normal;font-weight:normal;font-size:45.27550888px;line-height:1.25;font-family:sans-serif;letter-spacing:0px;word-spacing:0px;fill:#000000;fill-opacity:1;stroke:none;stroke-width:3.77295923"
       xml:space="preserve"><tspan
         style="font-size:15.09183693px;stroke-width:3.77295923"
         y="-421.0621"
         x="290.79993"
         id="tspan1000-5"
         sodipodi:role="line">Off</tspan></text>
    <text
       id="text1002-12"
       y="-444.21085"
       x="267.34082"
       style="font-style:normal;font-weight:normal;font-size:45.27550888px;line-height:1.25;font-family:sans-serif;letter-spacing:0px;word-spacing:0px;fill:#000000;fill-opacity:1;stroke:none;stroke-width:3.77295923"
       xml:space="preserve"><tspan
         style="font-size:15.09183693px;stroke-width:3.77295923"
         y="-444.21085"
         x="267.34082"
         id="tspan1000-6"
         sodipodi:role="line">HP On</tspan></text>
    <text
       id="text1002-17"
       y="-399.70996"
       x="269.95502"
       style="font-style:normal;font-weight:normal;font-size:45.27550888px;line-height:1.25;font-family:sans-serif;letter-spacing:0px;word-spacing:0px;fill:#000000;fill-opacity:1;stroke:none;stroke-width:3.77295923"
       xml:space="preserve"><tspan
         style="font-size:15.09183693px;stroke-width:3.77295923"
         y="-399.70996"
         x="269.95502"
         id="tspan1000-57"
         sodipodi:role="line">LP On</tspan></text>
    <text
       id="text1002-12-9"
       y="-338.17963"
       x="1347.1873"
       style="font-style:normal;font-weight:normal;font-size:45.27550888px;line-height:1.25;font-family:sans-serif;letter-spacing:0px;word-spacing:0px;fill:#000000;fill-opacity:1;stroke:none;stroke-width:3.77295923"
       xml:space="preserve"><tspan
         style="font-size:15.09183693px;stroke-width:3.77295923"
         y="-338.17963"
         x="1347.1873"
         id="tspan1000-6-7"
         sodipodi:role="line">Bat</tspan></text>
    <text
       id="text1002-12-98"
       y="-307.30609"
       x="1334.4116"
       style="font-style:normal;font-weight:normal;font-size:45.27550888px;line-height:1.25;font-family:sans-serif;letter-spacing:0px;word-spacing:0px;fill:#000000;fill-opacity:1;stroke:none;stroke-width:3.77295923"
       xml:space="preserve"><tspan
         style="font-size:15.09183693px;stroke-width:3.77295923"
         y="-307.30609"
         x="1334.4116"
         id="tspan1000-6-70"
         sodipodi:role="line">Temp</tspan></text>
    <text
       id="text1002-12-7"
       y="-338.17963"
       x="1635.061"
       style="font-style:normal;font-weight:normal;font-size:45.27550888px;line-height:1.25;font-family:sans-serif;letter-spacing:0px;word-spacing:0px;fill:#000000;fill-opacity:1;stroke:none;stroke-width:3.77295923"
       xml:space="preserve"><tspan
         style="font-size:15.09183693px;stroke-width:3.77295923"
         y="-338.17963"
         x="1635.061"
         id="tspan1000-6-6"
         sodipodi:role="line">On</tspan></text>
    <text
       id="text1002-17-9"
       y="-304.38058"
       x="1634.6619"
       style="font-style:normal;font-weight:normal;font-size:45.27550888px;line-height:1.25;font-family:sans-serif;letter-spacing:0px;word-spacing:0px;fill:#000000;fill-opacity:1;stroke:none;stroke-width:3.77295923"
       xml:space="preserve"><tspan
         style="font-size:15.09183693px;stroke-width:3.77295923"
         y="-304.38058"
         x="1634.6619"
         id="tspan1000-57-3"
         sodipodi:role="line">Off</tspan></text>
    <text
       inkscape:transform-center-y="-4.523932"
       inkscape:transform-center-x="54.287238"
       id="text1010-9-4-4"
       y="-298.25507"
       x="729.33594"
       style="font-style:normal;font-weight:normal;font-size:45.27550888px;line-height:14.26000309px;font-family:sans-serif;letter-spacing:0px;word-spacing:0px;fill:#000000;fill-opacity:1;stroke:none;stroke-width:3.77295923"
       xml:space="preserve"><tspan
         id="tspan5158-6"
         style="font-size:74.66666412px;line-height:60px;stroke-width:3.77295923"
         y="-279.36404"
         x="729.33594"
         sodipodi:role="line" /></text>
    <text
       id="text1002-12-7-8"
       y="-433.64517"
       x="638.96704"
       style="font-style:normal;font-weight:normal;font-size:45.27550888px;line-height:1.25;font-family:sans-serif;letter-spacing:0px;word-spacing:0px;fill:#000000;fill-opacity:1;stroke:none;stroke-width:3.77295923"
       xml:space="preserve"><tspan
         style="font-size:15.09183693px;stroke-width:3.77295923"
         y="-433.64517"
         x="638.96704"
         id="tspan1000-6-6-4"
         sodipodi:role="line">On</tspan></text>
    <text
       id="text1002-17-9-0"
       y="-407.17545"
       x="639.02429"
       style="font-style:normal;font-weight:normal;font-size:45.27550888px;line-height:1.25;font-family:sans-serif;letter-spacing:0px;word-spacing:0px;fill:#000000;fill-opacity:1;stroke:none;stroke-width:3.77295923"
       xml:space="preserve"><tspan
         style="font-size:15.09183693px;stroke-width:3.77295923"
         y="-407.17545"
         x="639.02429"
         id="tspan1000-57-3-3"
         sodipodi:role="line">Off</tspan></text>
    <flowRoot
       xml:space="preserve"
       id="flowRoot4944"
       style="fill:black;fill-opacity:1;stroke:none;font-family:sans-serif;font-style:normal;font-weight:normal;font-size:12px;line-height:1.25;letter-spacing:0px;word-spacing:0px"><flowRegion
         id="flowRegion4946"><rect
           id="rect4948"
           width="80.538261"
           height="26.426619"
           x="276.85028"
           y="1441.426" /></flowRegion><flowPara
         id="flowPara4950" /></flowRoot>  </g>
  <g
     data-name="Calque 2"
     id="Calque_2"
     transform="translate(741.17153,1260.4533)">
    <g
       data-name="Plan 1"
       id="Plan_1">
      <path
         id="path1380"
         d="m 124.4,70.08 0.6,-3.88 3.23,1 4.13,6.7 h -15.55 l -1.24,-9 8.79,5.17 z M 93.4,61.8 79.3,54.34 90.14,35.79 73.31,36.12 54.44,36.6 10.45,63 40.64,56.9 21.93,91.54 l -11,20.09 -8.74,15.6 C 33.69,104.57 62.84,85.41 93.43,61.8 Z m -43.96,44.2 1.48,-0.7 2.86,13.78 -5,3.35 -17.46,12.2 -12.15,8.22 0.42,-1.32 15.68,-18.43 z m 81,-13.44 14.56,8.68 a 125.46,125.46 0 0 0 -9.51,-10.58 l -5.05,1.91 z m -19.71,-64.36 8.12,1.89 5.64,0.46 0.16,-0.33 -10.3,-20.5 -3.92,18.34 z m -36.2,18.89 6.09,2.35 -15,3.77 -0.89,-7.32 10.57,-4 5.15,0.33 -5.9,4.92 z m 34.72,43.08 -14.2,-21.12 -20.47,13.59 -0.86,19.85 17.4,24.81 -2.9,-17.78 35.38,20.74 z m -79.33,-72.28 14,4.73 8.63,-5.83 -24.21,0.39 1.59,0.71 z m 78.86,2.81 -5.13,8.1 L 25,37.06 64.87,20.19 65.24,19.49 47.76,4.4 81.44,13 89.29,0 108.9,20.3 Z m 32.31,119 -26.93,-48.52 11,0.81 15.91,47.67 z m -7.91,16.3 -35.12,-36 13.88,6.58 19.16,19 3,11.08 -0.94,-0.7 z M 64.13,129.63 56.73,97.39 68.1,84.05 l 2.54,25.58 35.78,46.84 z m 0,0 z M 0,95 27.44,64.61 22.57,81.8 Z m 110.05,-57.46 -5.11,-2.63 -9.46,0.14 7.26,5.95 5.68,-2.08 1.87,6 1.71,-5.51 14.77,-3.9 10.42,8.88 -0.22,4.52 -4.32,0.08 -2.86,9.18 -1.23,-9.63 -16.7,11 3.27,20.73 6.46,4.81 2.65,-7.74 2.58,7.46 4.91,0.14 1.79,-7.39 2.71,7.86 1.07,-2 -1.73,-16.5 10.72,-14.91 -3,-2.64 -2.05,7.4 -2.24,-7.67 0.46,-4.29 6.41,-5.16 -5.32,-3.89 -2,3.63 -2.27,-2.56 1.16,-1.82 -10.91,-0.79 -16.48,3.34 z m 36.42,-1.37 216.68,0.61 -21.15,65.8 -187,0.36 -11.36,-7.19 -8.13,-5.09 5.77,-7.1 -1.72,-14.56 9.09,-18 1.27,-8.69 -3.45,-6.16 z M 320.76,51 v 0 H 309.32 L 301,76.3 a 38,38 0 0 1 -2,5.46 1.92,1.92 0 0 1 -1.79,0.85 c -0.79,0 -1.19,-0.27 -1.19,-0.82 a 29.82,29.82 0 0 1 1.43,-5.21 L 305.83,51 H 294.4 l -8.3,25.38 c -1.06,3.25 -1.7,5.4 -1.93,6.49 -0.31,1.52 -0.25,5 1.7,5.54 a 20,20 0 0 0 8.3,0 c 1.48,-0.38 2.67,-1.61 3.88,-2.88 l -1.24,3.13 h 11.65 z m -58.33,0 h -11.26 l -12.3,37.62 H 250 l 8.53,-26.09 c 0.59,-1.81 1,-3 1.22,-3.55 a 3.29,3.29 0 0 1 1.06,-1.42 2.42,2.42 0 0 1 1.5,-0.58 c 0.81,0 1.19,0.37 1.12,1.1 a 47.06,47.06 0 0 1 -1.89,6.64 l -7.81,23.9 h 11.08 l 8,-24.54 a 33.59,33.59 0 0 1 2.3,-6 2.2,2.2 0 0 1 1.89,-1.14 c 0.8,0 1.18,0.38 1.14,1.15 a 33.26,33.26 0 0 1 -1.62,6 l -8,24.54 h 11.07 l 8.74,-26.75 A 32,32 0 0 0 290,55.16 c 0.09,-1.38 -0.11,-2.87 -1.32,-3.48 -2.33,-1.18 -5.58,-1.14 -8.72,-0.34 -1.55,0.38 -2.88,1.78 -4.3,3.2 -1.4,-4.84 -8.12,-4.17 -10.36,-3.2 a 13.42,13.42 0 0 0 -4.21,3.2 z m -14,0 h -11.74 l -12.3,37.62 h 11.79 L 248.48,51 Z m 2.71,-8.31 H 239.4 l -2,6 h 11.78 l 2,-6 z m -16,0 H 223.7 l -3.43,9.25 h -2.44 l -2,6 h 2.44 L 212.09,77 a 52.43,52.43 0 0 0 -2,7.11 3.62,3.62 0 0 0 0.72,2.69 c 1.87,2.57 4.4,1.83 8,1.83 h 4.63 l 2,-6 q -2.86,0 -3.12,-0.42 -0.26,-0.42 1,-4.14 l 6.57,-20.1 H 233 l 1.95,-6 h -3.2 l 3.44,-9.26 z M 202.5,61.91 a 22.73,22.73 0 0 0 1.13,-4.23 c 0,-0.49 -0.4,-0.73 -1.19,-0.73 a 2,2 0 0 0 -1.75,0.85 18.37,18.37 0 0 0 -1.69,4.11 l -5.07,15.59 a 16.64,16.64 0 0 0 -1.05,4.25 c 0,0.57 0.45,0.85 1.21,0.85 a 1.85,1.85 0 0 0 1.64,-0.79 18.92,18.92 0 0 0 1.52,-3.81 l 5.25,-16.13 z m -14.68,34.28 h -0.07 l 3.63,-10.88 a 5.33,5.33 0 0 0 2.35,3 10,10 0 0 0 12.27,-3.78 38.63,38.63 0 0 0 3,-7.3 l 5.19,-15.86 a 31.7,31.7 0 0 0 1.53,-6.37 4,4 0 0 0 -1.34,-3.31 c -1.45,-1.39 -6.58,-1.12 -8.5,-0.44 a 13.49,13.49 0 0 0 -4.36,3 L 202.8,51 H 191.16 L 176,97.25 187.87,96.19 Z m 125.91,-8.87 c 1.13,2.08 3,1.7 9.25,1.76 6.25,0.06 11,0 13,-5.75 a 25.06,25.06 0 0 0 2.67,-5.88 c 0.9,-2.73 1.06,-4.83 0.49,-6.26 -0.57,-1.43 -2.23,-3 -5,-4.6 a 19.06,19.06 0 0 1 -4,-2.81 2.54,2.54 0 0 1 -0.86,-1.78 9.76,9.76 0 0 1 0.58,-2.53 c 0.42,-1.33 1.22,-2.56 2.76,-2.56 0.79,0 1.22,0.24 1.26,0.7 a 11.17,11.17 0 0 1 -0.78,3.3 L 332.43,63 h 10.11 l 0.71,-2.19 a 22.93,22.93 0 0 0 1.06,-4.17 4.67,4.67 0 0 0 -0.74,-2.89 6.37,6.37 0 0 0 -3.21,-2.52 16.39,16.39 0 0 0 -6,-0.94 20.59,20.59 0 0 0 -7,1.17 12.21,12.21 0 0 0 -5.12,3.31 19,19 0 0 0 -3.37,6.65 12.06,12.06 0 0 0 -0.69,5.49 c 0.23,1.55 1.71,3.26 4.46,5.14 q 4.89,3.34 5.33,4 c 0.26,0.46 0.09,1.57 -0.49,3.38 a 6.45,6.45 0 0 1 -1.36,2.57 2.73,2.73 0 0 1 -1.9,0.61 c -0.75,0 -1.15,-0.31 -1.22,-0.9 a 13.08,13.08 0 0 1 0.91,-3.93 l 0.76,-2.37 h -10.15 l -0.6,1.8 q -1.55,4.71 -1.14,7 c 0.2,1.1 0.09,2.19 1,3.09 z M 164,88.9 v 0 c 3.65,-0.35 9.8,0.25 12.36,-0.63 a 7.24,7.24 0 0 0 1.6,-2.08 l 13.57,-41.45 c 0.49,-1.49 -0.26,-2.7 -1.67,-2.7 h -23.35 a 4,4 0 0 0 -3.45,2.7 L 149.48,86.2 c -0.49,1.49 0.26,2.7 1.67,2.7 z M 175.86,53 v 0 a 17,17 0 0 0 1.08,-4.33 c 0,-0.62 -0.38,-0.94 -1.1,-0.94 a 2.22,2.22 0 0 0 -1.64,0.77 15.64,15.64 0 0 0 -2,4.5 l -7.53,23.13 a 25.94,25.94 0 0 0 -1.41,5.19 c 0,0.67 0.38,1 1.14,1 a 2.13,2.13 0 0 0 1.89,-1.13 30.88,30.88 0 0 0 2.12,-5.41 z"
         class="cls-1"
         inkscape:connector-curvature="0"
         style="fill:#000003;fill-rule:evenodd" />
    </g>
  </g>
  <g
     data-name="Calque 2"
     id="Calque_2-3"
     transform="matrix(0.65703439,0,0,0.65703439,1200.5871,990.18018)"
     style="fill:#000000;fill-opacity:1;stroke:#220000;stroke-opacity:1">
    <g
       data-name="Plan 1"
       id="Plan_1-1"
       style="fill:#000000;fill-opacity:1;stroke:#fffffe;stroke-opacity:1">
      <polygon
         id="polygon1400"
         points="9.24,83.93 489.58,83.93 480.75,107.33 0.41,107.33 "
         class="cls-1"
         style="fill:#000000;fill-opacity:1;fill-rule:evenodd;stroke:#fffffe;stroke-width:0.56999999px;stroke-miterlimit:22.93000031;stroke-opacity:1" />
      <path
         id="path1402"
         d="M 33.67,90.2 32,94.53 H 43.82 L 43,96.78 H 31.15 l -1.85,4.84 h 12.15 l -0.88,2.3 H 25.42 l 6.14,-16 h 15.15 l -0.89,2.32 z m 13.28,3 -2,5.21 c -0.49,1.29 -1.06,3.3 0,4.46 1.06,1.16 3.68,1.26 5.15,1.26 h 2.4 a 13.41,13.41 0 0 0 5.92,-1 6.74,6.74 0 0 0 3,-3.74 L 62,97.85 h -3.08 l -0.07,0.25 -0.09,0.27 c 0,0.14 -0.1,0.29 -0.16,0.43 a 4.51,4.51 0 0 1 -1.76,2.39 9.06,9.06 0 0 1 -3.87,0.62 h -1.59 a 12.59,12.59 0 0 1 -2.61,-0.16 2,2 0 0 1 -1,-0.48 0.94,0.94 0 0 1 -0.3,-0.77 8.55,8.55 0 0 1 0.63,-2.19 l 1.67,-4.37 a 10.65,10.65 0 0 1 1.07,-2.23 3.34,3.34 0 0 1 1.08,-0.93 5.07,5.07 0 0 1 1.53,-0.54 16.31,16.31 0 0 1 2.72,-0.14 h 1.59 c 0.73,0 2.67,0 3.25,0.55 0.58,0.55 0.14,1.5 0,2 l -0.34,0.9 h 3.03 l 0.34,-0.9 c 0.47,-1.21 0.78,-2.8 -0.33,-3.76 -1.11,-0.96 -3.71,-1.1 -5.18,-1.1 h -2.4 a 12.2,12.2 0 0 0 -6,1.21 8.21,8.21 0 0 0 -3.13,4.27 z m 21.79,-5.29 h 3 l -4,10.54 a 7.49,7.49 0 0 0 -0.56,2 0.9,0.9 0 0 0 0.26,0.69 2.06,2.06 0 0 0 1,0.44 14.1,14.1 0 0 0 2.52,0.14 h 2.16 a 16.75,16.75 0 0 0 2.65,-0.14 4.85,4.85 0 0 0 1.43,-0.49 2.86,2.86 0 0 0 1,-0.84 9.69,9.69 0 0 0 1,-2 L 83,87.88 h 3 l -4.07,10.74 a 8.07,8.07 0 0 1 -3.27,4.27 12.62,12.62 0 0 1 -6.1,1.21 h -2.48 c -1.5,0 -4.18,-0.1 -5.29,-1.27 -1.11,-1.17 -0.57,-3.14 -0.07,-4.45 l 4,-10.5 z m 32.27,9 a 4.28,4.28 0 0 0 2.75,-2.69 l 0.89,-2.32 c 0.39,-1 0.64,-2.37 -0.38,-3.13 -1.02,-0.76 -3.43,-0.84 -4.68,-0.84 h -9.51 l -6.14,16 h 3 l 2.29,-6 h 7 c 0.49,0 1.89,0 2.24,0.46 0.35,0.46 -0.06,1.48 -0.21,1.88 l -1.39,3.64 H 100 l 1.5,-3.92 a 3.31,3.31 0 0 0 0.21,-2.41 1.71,1.71 0 0 0 -0.73,-0.73 z m 2.7,7.06 6.13,-16 h 3 l -6.14,16 z m 15.5,-13.72 h 12.15 l 0.89,-2.32 H 117.1 l -6.13,16 h 15.15 l 0.88,-2.3 h -12.15 l 1.84,-4.84 h 11.81 l 0.86,-2.25 h -11.8 l 1.65,-4.33 z m 34.2,7.75 -2.28,6 h -3 l 6.14,-16 h 8.89 c 1.24,0 3.64,0.05 4.68,0.84 1.04,0.79 0.77,2.1 0.37,3.13 l -0.88,2.32 a 5.22,5.22 0 0 1 -2.53,3 13.1,13.1 0 0 1 -5.23,0.81 z m 13.23,6 h 3 l 6.14,-16 h -3 z m 11.14,-3 a 0.65,0.65 0 0 0 0.37,0.62 4.29,4.29 0 0 0 1.29,0.26 c 1.35,0.12 2.85,0.09 4.21,0.09 a 16.69,16.69 0 0 0 2.73,-0.17 4.14,4.14 0 0 0 1.52,-0.51 1.7,1.7 0 0 0 0.54,-0.59 7.42,7.42 0 0 0 0.61,-1.27 c 0.1,-0.27 0.57,-1.57 0.39,-1.84 -0.18,-0.27 -1.07,-0.35 -1.36,-0.37 l -6.2,-0.37 c -1.11,-0.07 -3,-0.26 -3.77,-1.18 -0.77,-0.92 -0.37,-2.38 0,-3.37 a 8.11,8.11 0 0 1 1.24,-2.25 5.62,5.62 0 0 1 1.78,-1.43 6.27,6.27 0 0 1 2.07,-0.62 29,29 0 0 1 4.07,-0.18 H 188 a 26,26 0 0 1 4.42,0.23 4.45,4.45 0 0 1 2,0.86 1.74,1.74 0 0 1 0.6,1.31 5.05,5.05 0 0 1 -0.39,1.84 l -0.19,0.48 -0.14,0.3 -0.09,0.19 h -3 l 0.33,-0.85 a 5.06,5.06 0 0 0 0.34,-1.21 0.53,0.53 0 0 0 -0.07,-0.39 2.53,2.53 0 0 0 -1.15,-0.34 34.46,34.46 0 0 0 -4.07,-0.13 11.57,11.57 0 0 0 -4,0.5 3.56,3.56 0 0 0 -1.48,2 c -0.12,0.32 -0.42,1.18 -0.2,1.5 0.22,0.32 1.21,0.42 1.56,0.44 l 6.31,0.41 c 1,0.06 2.71,0.27 3.41,1.17 0.7,0.9 0.31,2.32 -0.05,3.28 a 10.35,10.35 0 0 1 -1.18,2.35 5.29,5.29 0 0 1 -1.44,1.35 7,7 0 0 1 -2.47,0.92 28,28 0 0 1 -4.76,0.26 h -1 a 22.27,22.27 0 0 1 -4,-0.22 3.77,3.77 0 0 1 -1.84,-0.83 2.15,2.15 0 0 1 -0.75,-1.58 6,6 0 0 1 0.48,-2.29 l 0.37,-1 h 3 l -0.29,0.75 a 6,6 0 0 0 -0.47,1.89 z m 28.27,-10.8 -5.24,13.72 h -3 L 203,90.2 h -6.5 l 0.88,-2.32 h 16.13 l -0.88,2.32 z m 6.22,3 -2,5.21 c -0.51,1.33 -1,3.32 0.14,4.47 1.14,1.15 4,1.25 5.58,1.25 h 2.6 a 13.79,13.79 0 0 0 6.38,-1.2 7.88,7.88 0 0 0 3.36,-4.28 l 2,-5.2 c 0.51,-1.32 1.06,-3.34 -0.11,-4.48 -1.17,-1.14 -4.07,-1.25 -5.61,-1.25 H 222 a 13.86,13.86 0 0 0 -6.39,1.21 7.92,7.92 0 0 0 -3.35,4.27 z m 33.36,7.8 5,-13.12 h 3 l -6.13,16 h -4 l -5.6,-13.11 -5,13.15 h -3 l 6.13,-16 h 4 z m 26.85,-2.77 h 3 l -0.29,0.75 a 5.71,5.71 0 0 0 -0.47,1.89 0.65,0.65 0 0 0 0.37,0.62 4.29,4.29 0 0 0 1.29,0.26 c 1.35,0.12 2.85,0.09 4.2,0.09 a 16.74,16.74 0 0 0 2.74,-0.17 4.14,4.14 0 0 0 1.52,-0.51 1.7,1.7 0 0 0 0.54,-0.59 7.42,7.42 0 0 0 0.62,-1.27 c 0.1,-0.27 0.57,-1.57 0.39,-1.84 -0.18,-0.27 -1.07,-0.35 -1.36,-0.37 l -6.2,-0.37 c -1.11,-0.07 -3,-0.26 -3.77,-1.18 -0.77,-0.92 -0.37,-2.38 0,-3.37 a 8.11,8.11 0 0 1 1.24,-2.25 5.62,5.62 0 0 1 1.78,-1.43 6.2,6.2 0 0 1 2.07,-0.62 29,29 0 0 1 4.06,-0.18 H 285 a 26,26 0 0 1 4.42,0.23 4.45,4.45 0 0 1 2,0.86 1.74,1.74 0 0 1 0.6,1.31 5.05,5.05 0 0 1 -0.39,1.84 l -0.19,0.48 -0.14,0.3 -0.09,0.19 h -3 l 0.33,-0.85 a 5.06,5.06 0 0 0 0.34,-1.21 0.59,0.59 0 0 0 -0.07,-0.39 2.53,2.53 0 0 0 -1.15,-0.34 34.46,34.46 0 0 0 -4.07,-0.13 11.57,11.57 0 0 0 -4,0.5 3.56,3.56 0 0 0 -1.48,2 c -0.12,0.32 -0.42,1.18 -0.2,1.5 0.22,0.32 1.21,0.42 1.56,0.44 l 6.31,0.41 c 1.05,0.06 2.71,0.27 3.41,1.17 0.7,0.9 0.31,2.32 -0.06,3.28 a 9.92,9.92 0 0 1 -1.17,2.35 5.29,5.29 0 0 1 -1.44,1.35 7,7 0 0 1 -2.47,0.92 28,28 0 0 1 -4.76,0.26 h -1 a 22.27,22.27 0 0 1 -4,-0.22 3.73,3.73 0 0 1 -1.84,-0.83 2.15,2.15 0 0 1 -0.75,-1.58 6,6 0 0 1 0.48,-2.29 l 0.37,-1 z M 296.3,98 h 6.15 a 13,13 0 0 0 5.23,-0.81 5.15,5.15 0 0 0 2.53,-3 l 0.89,-2.32 c 0.4,-1 0.64,-2.37 -0.37,-3.13 -1.01,-0.76 -3.44,-0.84 -4.68,-0.84 h -8.9 l -6.13,16 h 3 l 2.28,-6 z M 313,93.17 a 7.87,7.87 0 0 1 3.35,-4.27 13.81,13.81 0 0 1 6.39,-1.21 h 2.59 c 1.55,0 4.43,0.09 5.61,1.25 1.18,1.16 0.62,3.16 0.12,4.48 l -2,5.2 a 7.86,7.86 0 0 1 -3.35,4.28 13.83,13.83 0 0 1 -6.39,1.2 h -2.59 c -1.55,0 -4.39,-0.09 -5.58,-1.25 -1.19,-1.16 -0.66,-3.14 -0.15,-4.47 z m 34.66,3.69 a 4.28,4.28 0 0 0 2.75,-2.69 l 0.89,-2.32 c 0.39,-1 0.64,-2.37 -0.38,-3.13 -1.02,-0.76 -3.43,-0.84 -4.68,-0.84 h -9.51 l -6.14,16 h 3 l 2.29,-6 h 7.05 c 0.49,0 1.89,0 2.24,0.46 0.35,0.46 -0.06,1.48 -0.21,1.88 l -1.39,3.64 h 3.11 l 1.5,-3.92 a 3.31,3.31 0 0 0 0.21,-2.41 1.71,1.71 0 0 0 -0.73,-0.73 z m 14.2,-6.66 -5.24,13.72 h -3 l 5.25,-13.72 h -6.54 l 0.88,-2.32 h 16.13 l -0.88,2.32 z m 36,9.79 H 388 l -3.42,3.93 h -3.26 l 14.06,-16 h 4.21 l 1.84,16 h -3 L 397.9,100 Z m 9.75,0.38 a 0.88,0.88 0 0 0 0.27,0.69 2,2 0 0 0 1,0.44 14,14 0 0 0 2.51,0.14 h 2.16 a 16.88,16.88 0 0 0 2.66,-0.14 4.89,4.89 0 0 0 1.42,-0.49 2.86,2.86 0 0 0 1,-0.84 9.21,9.21 0 0 0 1,-2 l 3.94,-10.29 h 3 l -4.11,10.74 a 8.07,8.07 0 0 1 -3.27,4.27 12.67,12.67 0 0 1 -6.1,1.21 h -2.49 c -1.5,0 -4.18,-0.1 -5.29,-1.27 -1.11,-1.17 -0.56,-3.14 -0.06,-4.45 l 4,-10.5 h 3 l -4,10.54 a 7.9,7.9 0 0 0 -0.56,2 z m 28.81,-10.17 -5.25,13.72 h -3 L 433.4,90.2 h -6.54 l 0.89,-2.32 h 16.13 L 443,90.2 Z m 6.22,3 -2,5.21 c -0.51,1.33 -1,3.32 0.15,4.47 1.15,1.15 4,1.25 5.58,1.25 H 449 a 13.83,13.83 0 0 0 6.39,-1.2 7.92,7.92 0 0 0 3.36,-4.28 l 2,-5.2 c 0.5,-1.32 1.05,-3.34 -0.12,-4.48 -1.17,-1.14 -4.06,-1.25 -5.6,-1.25 h -2.6 a 13.81,13.81 0 0 0 -6.43,1.18 7.87,7.87 0 0 0 -3.35,4.27 z m -350.45,-3 h 6.32 c 0.58,0 2.53,0 3,0.39 0.47,0.39 0.13,1 0,1.31 l -0.68,1.8 a 2.67,2.67 0 0 1 -1.27,1.51 9.48,9.48 0 0 1 -3.4,0.44 H 90.1 Z m 64.19,0 -2.09,5.45 h 5.87 a 8.54,8.54 0 0 0 3,-0.39 2.34,2.34 0 0 0 1.13,-1.34 l 0.86,-2.25 c 0.11,-0.29 0.31,-0.89 0,-1.13 A 7.35,7.35 0 0 0 162.49,90.2 Z M 223.32,90 h -1.27 a 18.54,18.54 0 0 0 -3.07,0.17 6.09,6.09 0 0 0 -1.67,0.56 3.28,3.28 0 0 0 -1.14,1 10,10 0 0 0 -1.08,2.2 l -1.66,4.35 a 7.75,7.75 0 0 0 -0.59,2.14 0.89,0.89 0 0 0 0.33,0.78 2.6,2.6 0 0 0 1.16,0.52 16,16 0 0 0 2.93,0.16 h 1.27 a 18.6,18.6 0 0 0 3.08,-0.17 6,6 0 0 0 1.7,-0.55 3.15,3.15 0 0 0 1.1,-0.92 10,10 0 0 0 1.07,-2.2 l 1.67,-4.38 a 7.9,7.9 0 0 0 0.6,-2.16 1,1 0 0 0 -0.32,-0.79 2.74,2.74 0 0 0 -1.16,-0.5 16.12,16.12 0 0 0 -3,-0.16 z m 75.95,0.22 h 6.13 a 7.35,7.35 0 0 1 2.66,0.34 c 0.31,0.24 0.11,0.84 0,1.13 l -0.86,2.25 a 2.34,2.34 0 0 1 -1.13,1.34 8.54,8.54 0 0 1 -3,0.39 h -5.87 l 2.09,-5.45 z M 324.05,90 h -1.27 a 18.48,18.48 0 0 0 -3.07,0.17 6.15,6.15 0 0 0 -1.68,0.56 3.37,3.37 0 0 0 -1.14,1 10,10 0 0 0 -1.07,2.2 l -1.67,4.35 a 7.75,7.75 0 0 0 -0.59,2.14 0.94,0.94 0 0 0 0.33,0.78 2.64,2.64 0 0 0 1.17,0.52 15.86,15.86 0 0 0 2.93,0.16 h 1.26 a 18.78,18.78 0 0 0 3.09,-0.17 6,6 0 0 0 1.69,-0.55 3.28,3.28 0 0 0 1.11,-0.92 9.92,9.92 0 0 0 1.06,-2.24 l 1.68,-4.38 a 8.27,8.27 0 0 0 0.6,-2.16 1,1 0 0 0 -0.33,-0.79 2.74,2.74 0 0 0 -1.16,-0.5 16.06,16.06 0 0 0 -2.94,-0.16 z m 14.79,0.22 h 6.32 c 0.58,0 2.53,0 3,0.39 0.47,0.39 0.13,1 0,1.31 l -0.68,1.8 a 2.67,2.67 0 0 1 -1.27,1.51 9.48,9.48 0 0 1 -3.4,0.44 h -6.05 z m 51.08,7.58 h 7.75 l -0.85,-7.58 h -0.27 z M 453.69,90 h -1.27 a 18.48,18.48 0 0 0 -3.07,0.17 6.15,6.15 0 0 0 -1.68,0.56 3.37,3.37 0 0 0 -1.14,1 10,10 0 0 0 -1.07,2.2 l -1.67,4.35 a 8.11,8.11 0 0 0 -0.59,2.14 0.94,0.94 0 0 0 0.33,0.78 2.69,2.69 0 0 0 1.17,0.52 15.86,15.86 0 0 0 2.93,0.16 h 1.26 a 18.78,18.78 0 0 0 3.09,-0.17 6,6 0 0 0 1.69,-0.55 3.28,3.28 0 0 0 1.11,-0.92 9.92,9.92 0 0 0 1.06,-2.2 l 1.68,-4.38 a 8.27,8.27 0 0 0 0.6,-2.16 1,1 0 0 0 -0.33,-0.79 2.68,2.68 0 0 0 -1.16,-0.5 16.06,16.06 0 0 0 -2.94,-0.21 z"
         class="cls-2"
         inkscape:connector-curvature="0"
         style="fill:#000000;fill-opacity:1;fill-rule:evenodd;stroke:#fffffe;stroke-opacity:1" />
      <polygon
         id="polygon1404"
         points="57.86,0 159.25,0 152.67,18.11 51.28,18.11 "
         class="cls-3"
         style="fill:#000000;fill-opacity:1;fill-rule:evenodd;stroke:#fffffe;stroke-opacity:1" />
      <polygon
         id="polygon1406"
         points="36.93,50.64 74.32,50.64 71.9,57.32 34.51,57.32 "
         class="cls-3"
         style="fill:#000000;fill-opacity:1;fill-rule:evenodd;stroke:#fffffe;stroke-opacity:1" />
      <polygon
         id="polygon1408"
         points="49.99,20.69 87.38,20.69 84.95,27.37 47.56,27.37 "
         class="cls-3"
         style="fill:#000000;fill-opacity:1;fill-rule:evenodd;stroke:#fffffe;stroke-opacity:1" />
      <polygon
         id="polygon1410"
         points="149.9,50.64 187.29,50.64 184.87,57.32 147.48,57.32 "
         class="cls-3"
         style="fill:#000000;fill-opacity:1;fill-rule:evenodd;stroke:#fffffe;stroke-opacity:1" />
      <polygon
         id="polygon1412"
         points="162.96,20.69 200.34,20.69 197.92,27.37 160.53,27.37 "
         class="cls-3"
         style="fill:#000000;fill-opacity:1;fill-rule:evenodd;stroke:#fffffe;stroke-opacity:1" />
      <polygon
         id="polygon1414"
         points="330.35,50.64 367.74,50.64 365.31,57.32 327.92,57.32 "
         class="cls-3"
         style="fill:#000000;fill-opacity:1;fill-rule:evenodd;stroke:#fffffe;stroke-opacity:1" />
      <polygon
         id="polygon1416"
         points="278.46,20.69 315.85,20.69 313.43,27.37 276.04,27.37 "
         class="cls-3"
         style="fill:#000000;fill-opacity:1;fill-rule:evenodd;stroke:#fffffe;stroke-opacity:1" />
      <polygon
         id="polygon1418"
         points="380.56,50.64 417.95,50.64 415.53,57.32 378.14,57.32 "
         class="cls-3"
         style="fill:#000000;fill-opacity:1;fill-rule:evenodd;stroke:#fffffe;stroke-opacity:1" />
      <polygon
         id="polygon1420"
         points="393.62,20.69 431.01,20.69 428.58,27.37 391.19,27.37 "
         class="cls-3"
         style="fill:#000000;fill-opacity:1;fill-rule:evenodd;stroke:#fffffe;stroke-opacity:1" />
      <polygon
         id="polygon1422"
         points="446,50.64 483.39,50.64 480.96,57.32 443.58,57.32 "
         class="cls-3"
         style="fill:#000000;fill-opacity:1;fill-rule:evenodd;stroke:#fffffe;stroke-opacity:1" />
      <polygon
         id="polygon1424"
         points="459.06,20.69 496.44,20.69 494.02,27.37 456.63,27.37 "
         class="cls-3"
         style="fill:#000000;fill-opacity:1;fill-rule:evenodd;stroke:#fffffe;stroke-opacity:1" />
      <polygon
         id="polygon1426"
         points="227.51,20.69 264.9,20.69 262.48,27.37 225.09,27.37 "
         class="cls-3"
         style="fill:#000000;fill-opacity:1;fill-rule:evenodd;stroke:#fffffe;stroke-opacity:1" />
      <polygon
         id="polygon1428"
         points="45.43,29.95 139.04,29.95 132.46,48.06 38.85,48.06 "
         class="cls-3"
         style="fill:#000000;fill-opacity:1;fill-rule:evenodd;stroke:#fffffe;stroke-opacity:1" />
      <polygon
         id="polygon1430"
         points="33,59.9 134.39,59.9 127.81,78.01 26.42,78.01 "
         class="cls-3"
         style="fill:#000000;fill-opacity:1;fill-rule:evenodd;stroke:#fffffe;stroke-opacity:1" />
      <path
         id="path1432"
         d="m 172.26,0 h 90 c 6.28,0 9.55,5.14 7.27,11.43 l -2.43,6.68 H 165.68 Z"
         class="cls-3"
         inkscape:connector-curvature="0"
         style="fill:#000000;fill-opacity:1;fill-rule:evenodd;stroke:#fffffe;stroke-opacity:1" />
      <path
         id="path1434"
         d="m 298.55,0 h 90 l -6.58,18.11 H 280.54 L 283,11.43 C 285.25,5.14 292.27,0 298.55,0 Z"
         class="cls-3"
         inkscape:connector-curvature="0"
         style="fill:#000000;fill-opacity:1;fill-rule:evenodd;stroke:#fffffe;stroke-opacity:1" />
      <path
         id="path1436"
         d="m 413.18,0 h 78.54 c 6.28,0 9.56,5.14 7.28,11.43 l -2.42,6.68 h -101.4 l 2.42,-6.68 C 399.89,5.14 406.9,0 413.18,0 Z"
         class="cls-3"
         inkscape:connector-curvature="0"
         style="fill:#000000;fill-opacity:1;fill-rule:evenodd;stroke:#fffffe;stroke-opacity:1" />
      <path
         id="path1438"
         d="m 159.83,30 h 101.39 l -2.42,6.68 c -2.29,6.28 -9.3,11.43 -15.58,11.43 h -90 z"
         class="cls-3"
         inkscape:connector-curvature="0"
         style="fill:#000000;fill-opacity:1;fill-rule:evenodd;stroke:#fffffe;stroke-opacity:1" />
      <path
         id="path1440"
         d="m 274.69,30 h 90 c 6.28,0 9.55,5.14 7.27,11.43 l -2.43,6.68 h -90 c -6.28,0 -9.56,-5.15 -7.27,-11.43 z"
         class="cls-3"
         inkscape:connector-curvature="0"
         style="fill:#000000;fill-opacity:1;fill-rule:evenodd;stroke:#fffffe;stroke-opacity:1" />
      <polygon
         id="polygon1442"
         points="389.32,29.95 490.72,29.95 484.14,48.06 382.75,48.06 "
         class="cls-3"
         style="fill:#000000;fill-opacity:1;fill-rule:evenodd;stroke:#fffffe;stroke-opacity:1" />
      <polygon
         id="polygon1444"
         points="147.4,59.9 182.43,59.9 175.85,78.01 140.82,78.01 "
         class="cls-3"
         style="fill:#000000;fill-opacity:1;fill-rule:evenodd;stroke:#fffffe;stroke-opacity:1" />
      <path
         id="path1446"
         d="m 262.26,59.9 h 101.39 l -2.42,6.68 C 358.94,72.87 351.93,78 345.65,78 h -90 z"
         class="cls-3"
         inkscape:connector-curvature="0"
         style="fill:#000000;fill-opacity:1;fill-rule:evenodd;stroke:#fffffe;stroke-opacity:1" />
      <polygon
         id="polygon1448"
         points="377.35,59.9 412.38,59.9 405.8,78.01 370.76,78.01 "
         class="cls-3"
         style="fill:#000000;fill-opacity:1;fill-rule:evenodd;stroke:#fffffe;stroke-opacity:1" />
      <polygon
         id="polygon1450"
         points="443.25,59.9 478.28,59.9 471.7,78.01 436.67,78.01 "
         class="cls-3"
         style="fill:#000000;fill-opacity:1;fill-rule:evenodd;stroke:#fffffe;stroke-opacity:1" />
    </g>
  </g>
  <g
     id="g1399"
     transform="matrix(3.7767011,0,0,3.7767011,-187.03391,-193.25956)"
     style="fill:none;fill-opacity:1;stroke:#ff0000;stroke-opacity:1">
    <g
       id="g1310"
       style="fill:none;stroke:#ff0000;stroke-width:0.34999999;stroke-linecap:butt;stroke-linejoin:miter;fill-opacity:1;stroke-opacity:1"
       transform="translate(-2.1851954,159.91792)">
      <path
         id="path1190-1"
         d="m 241.255,165.25 h 111.1"
         inkscape:connector-curvature="0"
         style="fill:none;fill-opacity:1;stroke:#ff0000;stroke-opacity:1" />
      <path
         id="path1192-3"
         d="m 241.255,165.25 v 7"
         inkscape:connector-curvature="0"
         style="fill:none;fill-opacity:1;stroke:#ff0000;stroke-opacity:1" />
      <path
         id="path1194-8"
         d="m 70.5,271.75 h 453"
         inkscape:connector-curvature="0"
         style="fill:none;fill-opacity:1;stroke:#ff0000;stroke-opacity:1" />
      <path
         id="path1196-7"
         d="M 503.394,193.346 523.5,271.75"
         inkscape:connector-curvature="0"
         style="fill:none;fill-opacity:1;stroke:#ff0000;stroke-opacity:1" />
      <path
         id="path1198-1"
         d="M 503.394,193.346 A 60,60 0 0 0 445.275,148.25"
         inkscape:connector-curvature="0"
         style="fill:none;fill-opacity:1;stroke:#ff0000;stroke-opacity:1" />
      <path
         id="path1200"
         d="M 292.59,148.25 H 445.275"
         inkscape:connector-curvature="0"
         style="fill:none;fill-opacity:1;stroke:#ff0000;stroke-opacity:1" />
      <path
         id="path1202"
         d="M 148.725,148.25 H 292.59"
         inkscape:connector-curvature="0"
         style="fill:none;fill-opacity:1;stroke:#ff0000;stroke-opacity:1" />
      <path
         id="path1204-8"
         d="M 148.725,148.25 A 60,60 0 0 0 90.606,193.346"
         inkscape:connector-curvature="0"
         style="fill:none;fill-opacity:1;stroke:#ff0000;stroke-opacity:1" />
      <path
         id="path1206-8"
         d="M 90.6059,193.346 70.5,271.75"
         inkscape:connector-curvature="0"
         style="fill:none;fill-opacity:1;stroke:#ff0000;stroke-opacity:1" />
      <path
         id="path1208-5"
         d="m 352.355,172.25 v -7"
         inkscape:connector-curvature="0"
         style="fill:none;fill-opacity:1;stroke:#ff0000;stroke-opacity:1" />
      <path
         id="path1210-7"
         d="m 352.355,172.25 h -111.1"
         inkscape:connector-curvature="0"
         style="fill:none;fill-opacity:1;stroke:#ff0000;stroke-opacity:1" />
      <circle
         id="circle1212-5"
         r="1.60001"
         cy="218.25"
         cx="104.478"
         style="fill:none;fill-opacity:1;stroke:#ff0000;stroke-opacity:1" />
      <circle
         id="circle1214"
         r="1.60001"
         cy="218.25"
         cx="489.133"
         style="fill:none;fill-opacity:1;stroke:#ff0000;stroke-opacity:1" />
      <circle
         id="circle1216"
         r="1.60001"
         cy="246.75"
         cx="220.5"
         style="fill:none;fill-opacity:1;stroke:#ff0000;stroke-opacity:1" />
      <circle
         id="circle1218"
         r="1.60001"
         cy="244.75"
         cx="388.5"
         style="fill:none;fill-opacity:1;stroke:#ff0000;stroke-opacity:1" />
      <circle
         id="circle1220"
         r="1.60001"
         cy="178.25"
         cx="410.29501"
         style="fill:none;fill-opacity:1;stroke:#ff0000;stroke-opacity:1" />
      <circle
         id="circle1222"
         r="1.60001"
         cy="178.25"
         cx="200.5"
         style="fill:none;fill-opacity:1;stroke:#ff0000;stroke-opacity:1" />
      <circle
         id="circle1224"
         r="1.60001"
         cy="218.45"
         cx="281.09399"
         style="fill:none;fill-opacity:1;stroke:#ff0000;stroke-opacity:1" />
      <circle
         id="circle1226"
         r="1.60001"
         cy="184.45"
         cx="338.09399"
         style="fill:none;fill-opacity:1;stroke:#ff0000;stroke-opacity:1" />
      <circle
         id="circle1228"
         r="1.60001"
         cy="218.45"
         cx="338.09399"
         style="fill:none;fill-opacity:1;stroke:#ff0000;stroke-opacity:1" />
      <circle
         id="circle1230"
         r="1.60001"
         cy="186.53999"
         cx="404.45999"
         style="fill:none;fill-opacity:1;stroke:#ff0000;stroke-opacity:1" />
      <path
         id="path1232-1"
         d="m 310.694,219.15 v -34.9"
         inkscape:connector-curvature="0"
         style="fill:none;fill-opacity:1;stroke:#ff0000;stroke-opacity:1" />
      <path
         id="path1234-8"
         d="m 310.694,219.15 h -24.5"
         inkscape:connector-curvature="0"
         style="fill:none;fill-opacity:1;stroke:#ff0000;stroke-opacity:1" />
      <path
         id="path1236-2"
         d="m 286.194,184.25 v 34.9"
         inkscape:connector-curvature="0"
         style="fill:none;fill-opacity:1;stroke:#ff0000;stroke-opacity:1" />
      <path
         id="path1238-0"
         d="m 286.194,184.25 h 24.5"
         inkscape:connector-curvature="0"
         style="fill:none;fill-opacity:1;stroke:#ff0000;stroke-opacity:1" />
      <path
         id="path1240-3"
         d="m 134.65,212.558 a 6.25,6.25 0 1 0 1.7,0"
         inkscape:connector-curvature="0"
         style="fill:none;fill-opacity:1;stroke:#ff0000;stroke-opacity:1" />
      <path
         id="path1242-5"
         d="m 134.65,213.523 v -0.965"
         inkscape:connector-curvature="0"
         style="fill:none;fill-opacity:1;stroke:#ff0000;stroke-opacity:1" />
      <path
         id="path1244-9"
         d="m 134.65,213.523 h 1.7"
         inkscape:connector-curvature="0"
         style="fill:none;fill-opacity:1;stroke:#ff0000;stroke-opacity:1" />
      <path
         id="path1246"
         d="m 136.35,212.558 v 0.965"
         inkscape:connector-curvature="0"
         style="fill:none;fill-opacity:1;stroke:#ff0000;stroke-opacity:1" />
      <circle
         id="circle1248"
         r="9.6000099"
         cy="247.75"
         cx="165.5"
         style="fill:none;fill-opacity:1;stroke:#ff0000;stroke-opacity:1" />
      <circle
         id="circle1250"
         r="9.6000099"
         cy="247.75"
         cx="195.5"
         style="fill:none;fill-opacity:1;stroke:#ff0000;stroke-opacity:1" />
      <path
         id="path1252-0"
         d="m 194.85,212.433 a 6.35001,6.35001 0 1 0 1.3,0"
         inkscape:connector-curvature="0"
         style="fill:none;fill-opacity:1;stroke:#ff0000;stroke-opacity:1" />
      <path
         id="path1254-5"
         d="m 194.85,214 v -1.567"
         inkscape:connector-curvature="0"
         style="fill:none;fill-opacity:1;stroke:#ff0000;stroke-opacity:1" />
      <path
         id="path1256"
         d="m 194.85,214 h 1.3"
         inkscape:connector-curvature="0"
         style="fill:none;fill-opacity:1;stroke:#ff0000;stroke-opacity:1" />
      <path
         id="path1258"
         d="M 196.15,212.433 V 214"
         inkscape:connector-curvature="0"
         style="fill:none;fill-opacity:1;stroke:#ff0000;stroke-opacity:1" />
      <circle
         id="circle1260-0"
         r="9.6000099"
         cy="218.75"
         cx="165.5"
         style="fill:none;fill-opacity:1;stroke:#ff0000;stroke-opacity:1" />
      <path
         id="path1262"
         d="m 169.65,175.795 a 8,8 0 1 0 1.7,0"
         inkscape:connector-curvature="0"
         style="fill:none;fill-opacity:1;stroke:#ff0000;stroke-opacity:1" />
      <path
         id="path1264"
         d="m 169.65,176.75 v -0.955"
         inkscape:connector-curvature="0"
         style="fill:none;fill-opacity:1;stroke:#ff0000;stroke-opacity:1" />
      <path
         id="path1266"
         d="m 169.65,176.75 h 1.7"
         inkscape:connector-curvature="0"
         style="fill:none;fill-opacity:1;stroke:#ff0000;stroke-opacity:1" />
      <path
         id="path1268"
         d="m 171.35,175.795 v 0.955"
         inkscape:connector-curvature="0"
         style="fill:none;fill-opacity:1;stroke:#ff0000;stroke-opacity:1" />
      <path
         id="path1270"
         d="m 417.45,239.083 a 6.35001,6.35001 0 1 0 1.3,0"
         inkscape:connector-curvature="0"
         style="fill:none;fill-opacity:1;stroke:#ff0000;stroke-opacity:1" />
      <path
         id="path1272"
         d="m 417.45,240.65 v -1.567"
         inkscape:connector-curvature="0"
         style="fill:none;fill-opacity:1;stroke:#ff0000;stroke-opacity:1" />
      <path
         id="path1274"
         d="m 417.45,240.65 h 1.3"
         inkscape:connector-curvature="0"
         style="fill:none;fill-opacity:1;stroke:#ff0000;stroke-opacity:1" />
      <path
         id="path1276"
         d="m 418.75,239.083 v 1.567"
         inkscape:connector-curvature="0"
         style="fill:none;fill-opacity:1;stroke:#ff0000;stroke-opacity:1" />
      <path
         id="path1278"
         d="m 440.15,239.083 a 6.35001,6.35001 0 1 0 1.3,0"
         inkscape:connector-curvature="0"
         style="fill:none;fill-opacity:1;stroke:#ff0000;stroke-opacity:1" />
      <path
         id="path1280"
         d="m 440.15,240.65 v -1.567"
         inkscape:connector-curvature="0"
         style="fill:none;fill-opacity:1;stroke:#ff0000;stroke-opacity:1" />
      <path
         id="path1282"
         d="m 440.15,240.65 h 1.3"
         inkscape:connector-curvature="0"
         style="fill:none;fill-opacity:1;stroke:#ff0000;stroke-opacity:1" />
      <path
         id="path1284"
         d="m 441.45,239.083 v 1.567"
         inkscape:connector-curvature="0"
         style="fill:none;fill-opacity:1;stroke:#ff0000;stroke-opacity:1" />
      <path
         id="path1286"
         d="m 462.85,239.083 a 6.35001,6.35001 0 1 0 1.3,0"
         inkscape:connector-curvature="0"
         style="fill:none;fill-opacity:1;stroke:#ff0000;stroke-opacity:1" />
      <path
         id="path1288"
         d="m 462.85,240.65 v -1.567"
         inkscape:connector-curvature="0"
         style="fill:none;fill-opacity:1;stroke:#ff0000;stroke-opacity:1" />
      <path
         id="path1290"
         d="m 462.85,240.65 h 1.3"
         inkscape:connector-curvature="0"
         style="fill:none;fill-opacity:1;stroke:#ff0000;stroke-opacity:1" />
      <path
         id="path1292"
         d="m 464.15,239.083 v 1.567"
         inkscape:connector-curvature="0"
         style="fill:none;fill-opacity:1;stroke:#ff0000;stroke-opacity:1" />
      <circle
         id="circle1294"
         r="9.6000099"
         cy="247.75"
         cx="135.5"
         style="fill:none;fill-opacity:1;stroke:#ff0000;stroke-opacity:1" />
      <path
         id="path1296"
         d="m 459.5,212.75 v -21"
         inkscape:connector-curvature="0"
         style="fill:none;fill-opacity:1;stroke:#ff0000;stroke-opacity:1" />
      <path
         id="path1298"
         d="M 459.5,212.75 H 420"
         inkscape:connector-curvature="0"
         style="fill:none;fill-opacity:1;stroke:#ff0000;stroke-opacity:1" />
      <path
         id="path1300"
         d="m 420,191.75 v 21"
         inkscape:connector-curvature="0"
         style="fill:none;fill-opacity:1;stroke:#ff0000;stroke-opacity:1" />
      <path
         id="path1302"
         d="m 420,191.75 h 39.5"
         inkscape:connector-curvature="0"
         style="fill:none;fill-opacity:1;stroke:#ff0000;stroke-opacity:1" />
      <circle
         id="circle1304"
         r="1.60001"
         cy="186.53999"
         cx="474.45999"
         style="fill:none;fill-opacity:1;stroke:#ff0000;stroke-opacity:1" />
      <circle
         id="circle1306"
         r="1.60001"
         cy="220.53999"
         cx="404.45999"
         style="fill:none;fill-opacity:1;stroke:#ff0000;stroke-opacity:1" />
      <circle
         id="circle1308"
         r="1.60001"
         cy="220.53999"
         cx="474.45999"
         style="fill:none;fill-opacity:1;stroke:#ff0000;stroke-opacity:1" />
    </g>
    <g
       id="g1318"
       style="fill:none;stroke:#ff0000;stroke-width:0.13;stroke-linecap:butt;stroke-linejoin:miter;fill-opacity:1;stroke-opacity:1" />
  </g>
</svg>
