<?xml version="1.0" encoding="utf-8" ?><!DOCTYPE svg PUBLIC "-//W3C//DTD SVG 1.1//EN" "http://www.w3.org/Graphics/SVG/1.1/DTD/svg11.dtd" 
[ <!ATTLIST svg 
  xmlns:dsy CDATA #FIXED "http://www.3ds.com/print"  
    dsy:text-version CDATA #IMPLIED > 

  <!ATTLIST text 
  xmlns:dsy CDATA #FIXED "http://www.3ds.com/print" 
    dsy:text-version CDATA #IMPLIED > 
]><svg xmlns="http://www.w3.org/2000/svg" xmlns:dsy="http://www.3ds.com/print" dsy:text-version="18000" width="297" height="210" viewBox="0 0 297 210" version="1.1"><g stroke="rgb(0, 0, 0)" stroke-width="0.13" stroke-linecap="butt" stroke-linejoin="miter" fill="none"><path d="M 132.675 119.75 L 103.815 119.75"/><path d="M 132.675 90.25 L 103.815 90.25"/></g><g stroke="rgb(0, 0, 0)" stroke-width="0.35" stroke-linecap="butt" stroke-linejoin="miter" fill="none"><path d="M 134.675 90.25 L 147.675 90.25"/><path d="M 134.675 100.35 L 134.675 90.25"/><path d="M 147.675 90.25 L 147.675 100.35"/><path d="M 142.675 100.35 L 134.675 100.35"/><path d="M 147.675 119.75 L 134.675 119.75"/><path d="M 147.675 109.65 L 147.675 119.75"/><path d="M 134.675 119.75 L 134.675 109.65"/><path d="M 134.675 109.65 L 142.675 109.65"/><path d="M 142.675 100.35 L 142.675 109.65"/><path d="M 147.675 109.65 L 157.675 109.65"/><path d="M 157.675 109.65 A 4.64999 4.64999 0 0 0 157.675 100.35"/><path d="M 147.675 100.35 L 157.675 100.35"/><circle cx="157.675" cy="105" r="2.14999"/></g><g stroke="rgb(0, 0, 0)" stroke-width="0.13" stroke-linecap="butt" stroke-linejoin="miter" fill="none"><path d="M 103.815 111.835 L 103.815 109.429 L 103.381 109.429 L 103.381 111.33 L 103.144 111.224 L 102.947 111.043 L 102.589 110.483 L 102.438 110.185 L 102.221 109.853 L 101.969 109.616 L 101.671 109.479 L 101.333 109.429 L 100.91 109.515 L 100.577 109.752 L 100.365 110.115 L 100.289 110.584 L 100.375 111.068 L 100.612 111.436 L 100.99 111.673 L 101.49 111.754 L 101.56 111.754 L 101.56 111.295 L 101.52 111.295 L 101.177 111.25 L 100.925 111.113 L 100.763 110.897 L 100.708 110.609 L 100.758 110.317 L 100.884 110.1 L 101.081 109.959 L 101.328 109.908 L 101.56 109.943 L 101.757 110.039 L 101.928 110.201 L 102.08 110.422 L 102.241 110.72 L 102.554 111.214 L 102.887 111.562 L 103.29 111.769 L 103.799 111.835 L 103.815 111.835 L 103.815 111.835 z M 102.947 108.078 L 103.346 108.003 L 103.653 107.786 L 103.845 107.443 L 103.915 106.989 L 103.88 106.692 L 103.789 106.424 L 103.633 106.197 L 103.411 106.006 L 103.134 105.854 L 102.791 105.743 L 102.397 105.678 L 101.944 105.653 L 101.232 105.738 L 100.713 105.985 L 100.4 106.379 L 100.289 106.918 L 100.38 107.413 L 100.622 107.786 L 100.995 108.028 L 101.464 108.109 L 101.949 108.028 L 102.317 107.791 L 102.549 107.438 L 102.624 106.989 L 102.529 106.515 L 102.236 106.157 L 102.796 106.238 L 103.194 106.399 L 103.431 106.646 L 103.507 106.984 L 103.472 107.246 L 103.361 107.438 L 103.184 107.564 L 102.947 107.614 L 102.947 108.078 L 102.947 108.078 z M 101.459 107.619 L 101.147 107.569 L 100.9 107.428 L 100.743 107.206 L 100.688 106.918 L 100.743 106.621 L 100.9 106.394 L 101.142 106.253 L 101.454 106.197 L 101.772 106.253 L 102.009 106.394 L 102.155 106.626 L 102.206 106.934 L 102.155 107.211 L 102.009 107.428 L 101.777 107.569 L 101.459 107.619 L 101.459 107.619 z M 103.815 103.48 L 103.815 102.784 L 103.063 102.784 L 103.063 103.48 L 103.815 103.48 L 103.815 103.48 z M 102.902 100.647 L 103.315 100.536 L 103.638 100.289 L 103.84 99.9255 L 103.915 99.4615 L 103.825 98.9522 L 103.578 98.5538 L 103.184 98.3016 L 102.68 98.2058 L 102.211 98.2915 L 101.843 98.5336 L 101.606 98.9118 L 101.52 99.401 L 101.58 99.7793 L 101.747 100.072 L 100.804 99.9306 L 100.804 98.3974 L 100.39 98.3974 L 100.39 100.268 L 102.246 100.546 L 102.246 100.142 L 102.009 99.8499 L 101.923 99.4767 L 101.979 99.1539 L 102.14 98.9068 L 102.387 98.7504 L 102.705 98.695 L 103.023 98.7504 L 103.27 98.9118 L 103.426 99.1589 L 103.482 99.4767 L 103.446 99.744 L 103.33 99.9507 L 103.149 100.102 L 102.902 100.178 L 102.902 100.647 L 102.902 100.647 z" stroke="none" fill-rule="evenodd" fill="rgb(0, 0, 0)"/><path d="M 105.297 117.818 L 105.815 119.75 L 106.332 117.818"/><path d="M 106.332 92.1819 L 105.815 90.25 L 105.297 92.1819"/><path d="M 105.815 119.75 L 105.815 90.25"/></g></svg>