<?xml version="1.0" encoding="utf-8" ?><!DOCTYPE svg PUBLIC "-//W3C//DTD SVG 1.1//EN" "http://www.w3.org/Graphics/SVG/1.1/DTD/svg11.dtd" 
[ <!ATTLIST svg 
  xmlns:dsy CDATA #FIXED "http://www.3ds.com/print"  
    dsy:text-version CDATA #IMPLIED > 

  <!ATTLIST text 
  xmlns:dsy CDATA #FIXED "http://www.3ds.com/print" 
    dsy:text-version CDATA #IMPLIED > 
]><svg xmlns="http://www.w3.org/2000/svg" xmlns:dsy="http://www.3ds.com/print" dsy:text-version="18000" width="420" height="297" viewBox="0 0 420 297" version="1.1"><g stroke="rgb(0, 0, 0)" stroke-width="0.13" stroke-linecap="butt" stroke-linejoin="miter" fill="none"><path d="M 16.0776 136.048 L 16.0776 111.799"/><path d="M 397.078 136.048 L 397.078 111.799"/></g><g stroke="rgb(0, 0, 0)" stroke-width="0.35" stroke-linecap="butt" stroke-linejoin="miter" fill="none"><path d="M 16.0776 138.048 L 16.0776 188.048"/><path d="M 16.0776 188.048 L 397.078 188.048"/><path d="M 397.078 188.048 L 397.078 138.048"/><path d="M 397.078 138.048 L 16.0776 138.048"/><path d="M 47.781 177.148 L 57.781 177.148"/><path d="M 57.781 183.048 L 57.781 177.148"/><path d="M 57.781 183.048 L 47.781 183.048"/><path d="M 47.781 177.148 L 47.781 183.048"/><path d="M 67.081 177.148 L 77.081 177.148"/><path d="M 77.081 183.048 L 77.081 177.148"/><path d="M 77.081 183.048 L 67.081 183.048"/><path d="M 67.081 177.148 L 67.081 183.048"/><path d="M 340.438 141.966 L 340.438 151.966"/><path d="M 340.438 151.966 L 334.538 151.966"/><path d="M 334.538 151.966 L 334.538 141.966"/><path d="M 334.538 141.966 L 340.438 141.966"/><path d="M 334.538 171.266 L 334.538 161.266"/><path d="M 334.538 161.266 L 340.438 161.266"/><path d="M 340.438 161.266 L 340.438 171.266"/><path d="M 340.438 171.266 L 334.538 171.266"/></g><g stroke="rgb(0, 0, 0)" stroke-width="0.13" stroke-linecap="butt" stroke-linejoin="miter" fill="none"><path d="M 201.571 110.7 L 201.571 110.735 L 201.651 111.219 L 201.888 111.582 L 202.262 111.814 L 202.756 111.9 L 203.28 111.814 L 203.674 111.592 L 203.926 111.239 L 204.017 110.786 L 203.976 110.488 L 203.865 110.246 L 203.684 110.059 L 203.442 109.923 L 203.77 109.651 L 203.886 109.217 L 203.81 108.824 L 203.593 108.526 L 203.24 108.34 L 202.756 108.274 L 202.302 108.355 L 201.954 108.577 L 201.727 108.93 L 201.651 109.399 L 201.651 109.434 L 202.1 109.434 L 202.141 109.111 L 202.272 108.879 L 202.484 108.738 L 202.781 108.688 L 203.043 108.728 L 203.235 108.834 L 203.351 109.005 L 203.396 109.237 L 203.351 109.484 L 203.23 109.651 L 203.018 109.752 L 202.731 109.782 L 202.534 109.777 L 202.534 110.175 L 202.781 110.165 L 203.099 110.211 L 203.336 110.332 L 203.477 110.528 L 203.528 110.786 L 203.472 111.078 L 203.326 111.295 L 203.094 111.431 L 202.786 111.476 L 202.468 111.426 L 202.236 111.275 L 202.09 111.033 L 202.035 110.7 L 201.571 110.7 L 201.571 110.7 z M 205.952 109.913 L 205.695 110.054 L 205.519 110.251 L 205.408 110.498 L 205.372 110.796 L 205.453 111.244 L 205.685 111.592 L 206.063 111.814 L 206.578 111.9 L 207.087 111.814 L 207.465 111.592 L 207.697 111.244 L 207.783 110.796 L 207.743 110.498 L 207.637 110.251 L 207.455 110.054 L 207.203 109.913 L 207.405 109.792 L 207.546 109.626 L 207.632 109.424 L 207.662 109.177 L 207.581 108.819 L 207.369 108.531 L 207.027 108.345 L 206.578 108.274 L 206.124 108.345 L 205.781 108.531 L 205.564 108.819 L 205.488 109.177 L 205.514 109.424 L 205.599 109.626 L 205.952 109.913 L 205.952 109.913 z M 205.856 110.786 L 205.902 110.518 L 206.048 110.317 L 206.275 110.185 L 206.578 110.14 L 206.875 110.185 L 207.102 110.317 L 207.248 110.518 L 207.299 110.786 L 207.248 111.073 L 207.102 111.29 L 206.875 111.431 L 206.578 111.476 L 206.275 111.431 L 206.048 111.29 L 205.902 111.073 L 205.856 110.786 L 205.856 110.786 z M 205.967 109.217 L 206.008 108.995 L 206.129 108.824 L 206.32 108.718 L 206.578 108.677 L 206.83 108.718 L 207.021 108.824 L 207.143 108.995 L 207.188 109.217 L 207.143 109.444 L 207.021 109.621 L 206.83 109.737 L 206.578 109.772 L 206.32 109.732 L 206.129 109.621 L 206.008 109.444 L 205.967 109.217 L 205.967 109.217 z M 210.223 111.799 L 210.682 111.799 L 210.682 108.274 L 210.339 108.274 L 210.248 108.582 L 210.067 108.788 L 209.789 108.909 L 209.406 108.95 L 209.406 109.308 L 210.223 109.308 L 210.223 111.799 L 210.223 111.799 z" stroke="none" fill-rule="evenodd" fill="rgb(0, 0, 0)"/><path d="M 395.146 114.317 L 397.078 113.799 L 395.146 113.282"/><path d="M 18.0095 113.282 L 16.0776 113.799 L 18.0095 114.317"/><path d="M 16.0776 113.799 L 397.078 113.799"/></g></svg>