G04 #@! TF.GenerationSoftware,KiCad,Pcbnew,(5.0.1)-3*
G04 #@! TF.CreationDate,2019-03-21T22:41:22+01:00*
G04 #@! TF.ProjectId,test2,74657374322E6B696361645F70636200,rev?*
G04 #@! TF.SameCoordinates,Original*
G04 #@! TF.FileFunction,Profile,NP*
%FSLAX46Y46*%
G04 Gerber Fmt 4.6, Leading zero omitted, Abs format (unit mm)*
G04 Created by KiCad (PCBNEW (5.0.1)-3) date 21/03/2019 22:41:22*
%MOMM*%
%LPD*%
G01*
G04 APERTURE LIST*
%ADD10C,0.100000*%
G04 APERTURE END LIST*
D10*
X251853926Y-112019740D02*
X251810348Y-112052425D01*
X251719448Y-112113578D02*
X251672173Y-112141966D01*
X252467805Y-110867313D02*
X252463122Y-110921786D01*
X252470632Y-110812488D02*
X252467805Y-110867313D01*
X251765514Y-112083717D02*
X251719448Y-112113578D01*
X252319276Y-111438407D02*
X252295698Y-111486376D01*
X251475446Y-112238256D02*
X251424819Y-112257870D01*
X252052181Y-111836836D02*
X252015225Y-111875881D01*
X252185831Y-111669540D02*
X252154590Y-111712951D01*
X252412669Y-111187487D02*
X252397333Y-111239014D01*
X251896226Y-111985703D02*
X251853926Y-112019740D01*
X252438165Y-111082700D02*
X252426288Y-111135369D01*
X251217920Y-112318497D02*
X251165328Y-112329196D01*
X252397333Y-111239014D02*
X252380303Y-111289909D01*
X252380303Y-111289909D02*
X252361601Y-111340133D01*
X252341251Y-111389646D02*
X252319276Y-111438407D01*
X252243830Y-111579781D02*
X252215585Y-111625136D01*
X251976899Y-111913734D02*
X251937225Y-111950354D01*
X252154590Y-111712951D02*
X252121886Y-111755332D01*
X251672173Y-112141966D02*
X251623951Y-112168713D01*
X251623951Y-112168713D02*
X251575058Y-112193677D01*
X252456605Y-110975869D02*
X252448279Y-111029520D01*
X252448279Y-111029520D02*
X252438165Y-111082700D01*
X252295698Y-111486376D02*
X252270542Y-111533515D01*
X252471579Y-110757353D02*
X252470632Y-110812488D01*
X252361601Y-111340133D02*
X252341251Y-111389646D01*
X252426288Y-111135369D02*
X252412669Y-111187487D01*
X252215585Y-111625136D02*
X252185831Y-111669540D01*
X252121886Y-111755332D02*
X252087742Y-111796640D01*
X252270542Y-111533515D02*
X252243830Y-111579781D01*
X252015225Y-111875881D02*
X251976899Y-111913734D01*
X251575058Y-112193677D02*
X251525541Y-112216858D01*
X251525541Y-112216858D02*
X251475446Y-112238256D01*
X251424819Y-112257870D02*
X251373707Y-112275702D01*
X251373707Y-112275702D02*
X251322156Y-112291750D01*
X251322156Y-112291750D02*
X251270211Y-112306015D01*
X251270211Y-112306015D02*
X251217920Y-112318497D01*
X251165328Y-112329196D02*
X251112482Y-112338112D01*
X251112482Y-112338112D02*
X251059427Y-112345244D01*
X252463122Y-110921786D02*
X252456605Y-110975869D01*
X252087742Y-111796640D02*
X252052181Y-111836836D01*
X251810348Y-112052425D02*
X251765514Y-112083717D01*
X251937225Y-111950354D02*
X251896226Y-111985703D01*
X251525541Y-109297848D02*
X251575058Y-109321029D01*
X251810348Y-109462281D02*
X251853926Y-109494966D01*
X252270542Y-109981191D02*
X252295698Y-110028329D01*
X252319276Y-110076299D02*
X252341251Y-110125060D01*
X251623951Y-109345993D02*
X251672173Y-109372740D01*
X252361601Y-110174573D02*
X252380303Y-110224797D01*
X252243830Y-109934924D02*
X252270542Y-109981191D01*
X251217920Y-109196208D02*
X251270211Y-109208690D01*
X251322156Y-109222955D02*
X251373707Y-109239004D01*
X252185831Y-109845166D02*
X252215585Y-109889569D01*
X252341251Y-110125060D02*
X252361601Y-110174573D01*
X251937225Y-109564351D02*
X251976899Y-109600972D01*
X252380303Y-110224797D02*
X252397333Y-110275692D01*
X251976899Y-109600972D02*
X252015225Y-109638824D01*
X252397333Y-110275692D02*
X252412669Y-110327219D01*
X252426288Y-110379336D02*
X252438165Y-110432006D01*
X252438165Y-110432006D02*
X252448279Y-110485186D01*
X251765514Y-109430988D02*
X251810348Y-109462281D01*
X252448279Y-110485186D02*
X252456605Y-110538837D01*
X252456605Y-110538837D02*
X252463122Y-110592920D01*
X252052181Y-109677869D02*
X252087742Y-109718066D01*
X251270211Y-109208690D02*
X251322156Y-109222955D01*
X252412669Y-110327219D02*
X252426288Y-110379336D01*
X252463122Y-110592920D02*
X252467805Y-110647393D01*
X251165328Y-109185509D02*
X251217920Y-109196208D01*
X251475446Y-109276450D02*
X251525541Y-109297848D01*
X251672173Y-109372740D02*
X251719448Y-109401128D01*
X251719448Y-109401128D02*
X251765514Y-109430988D01*
X252015225Y-109638824D02*
X252052181Y-109677869D01*
X251424819Y-109256835D02*
X251475446Y-109276450D01*
X251575058Y-109321029D02*
X251623951Y-109345993D01*
X251853926Y-109494966D02*
X251896226Y-109529002D01*
X252087742Y-109718066D02*
X252121886Y-109759374D01*
X251896226Y-109529002D02*
X251937225Y-109564351D01*
X252215585Y-109889569D02*
X252243830Y-109934924D01*
X252295698Y-110028329D02*
X252319276Y-110076299D01*
X251373707Y-109239004D02*
X251424819Y-109256835D01*
X252121886Y-109759374D02*
X252154590Y-109801754D01*
X252154590Y-109801754D02*
X252185831Y-109845166D01*
X252467805Y-110647393D02*
X252470632Y-110702217D01*
X252470632Y-110702217D02*
X252471579Y-110757353D01*
X252471579Y-110757353D02*
X252471579Y-110757353D01*
X256151370Y-66998472D02*
X256202482Y-66980640D01*
X256202482Y-66980640D02*
X256254033Y-66964592D01*
X256254033Y-66964592D02*
X256305978Y-66950327D01*
X256305978Y-66950327D02*
X256358269Y-66937845D01*
X256358269Y-66937845D02*
X256410861Y-66927146D01*
X256410861Y-66927146D02*
X256463707Y-66918230D01*
X255810675Y-67172625D02*
X255856741Y-67142764D01*
X256001131Y-67062665D02*
X256050648Y-67039484D01*
X255952238Y-67087629D02*
X256001131Y-67062665D01*
X255856741Y-67142764D02*
X255904015Y-67114376D01*
X255904015Y-67114376D02*
X255952238Y-67087629D01*
X256050648Y-67039484D02*
X256100743Y-67018086D01*
X256100743Y-67018086D02*
X256151370Y-66998472D01*
X256943138Y-66918230D02*
X256995984Y-66927146D01*
X257048576Y-66937845D02*
X257100867Y-66950327D01*
X256995984Y-66927146D02*
X257048576Y-66937845D01*
X257255475Y-66998472D02*
X257306102Y-67018086D01*
X256463707Y-66918230D02*
X256516762Y-66911098D01*
X256730135Y-66900399D02*
X256783536Y-66902182D01*
X256623309Y-66902182D02*
X256676710Y-66900399D01*
X256783536Y-66902182D02*
X256836867Y-66905748D01*
X256836867Y-66905748D02*
X256890083Y-66911098D01*
X257306102Y-67018086D02*
X257356197Y-67039484D01*
X256890083Y-66911098D02*
X256943138Y-66918230D01*
X257100867Y-66950327D02*
X257152812Y-66964592D01*
X256569978Y-66905748D02*
X256623309Y-66902182D01*
X257204363Y-66980640D02*
X257255475Y-66998472D01*
X257152812Y-66964592D02*
X257204363Y-66980640D01*
X256516762Y-66911098D02*
X256569978Y-66905748D01*
X256676710Y-66900399D02*
X256730135Y-66900399D01*
X126946251Y-110128431D02*
X126896734Y-110105250D01*
X127306464Y-110240769D02*
X127253872Y-110230070D01*
X127838741Y-110249685D02*
X127785686Y-110256817D01*
X127732470Y-110262167D02*
X127679139Y-110265733D01*
X127785686Y-110256817D02*
X127732470Y-110262167D01*
X128301317Y-110105250D02*
X128251800Y-110128431D01*
X128048415Y-110203323D02*
X127996470Y-110217588D01*
X128151078Y-110169443D02*
X128099966Y-110187275D01*
X127518912Y-110265733D02*
X127465581Y-110262167D01*
X126896734Y-110105250D02*
X126847841Y-110080286D01*
X126847841Y-110080286D02*
X126799618Y-110053539D01*
X126752344Y-110025151D02*
X126706278Y-109995290D01*
X126706278Y-109995290D02*
X126661444Y-109963998D01*
X128491773Y-109995290D02*
X128445707Y-110025151D01*
X127149636Y-110203323D02*
X127098085Y-110187275D01*
X127996470Y-110217588D02*
X127944179Y-110230070D01*
X126799618Y-110053539D02*
X126752344Y-110025151D01*
X127944179Y-110230070D02*
X127891587Y-110240769D01*
X127465581Y-110262167D02*
X127412365Y-110256817D01*
X128445707Y-110025151D02*
X128398432Y-110053539D01*
X128350210Y-110080286D02*
X128301317Y-110105250D01*
X128201705Y-110149829D02*
X128151078Y-110169443D01*
X127891587Y-110240769D02*
X127838741Y-110249685D01*
X127679139Y-110265733D02*
X127625738Y-110267516D01*
X127412365Y-110256817D02*
X127359310Y-110249685D01*
X127359310Y-110249685D02*
X127306464Y-110240769D01*
X127253872Y-110230070D02*
X127201581Y-110217588D01*
X128398432Y-110053539D02*
X128350210Y-110080286D01*
X127625738Y-110267516D02*
X127572313Y-110267516D01*
X127572313Y-110267516D02*
X127518912Y-110265733D01*
X127201581Y-110217588D02*
X127149636Y-110203323D01*
X127098085Y-110187275D02*
X127046973Y-110169443D01*
X128536607Y-109963998D02*
X128491773Y-109995290D01*
X128251800Y-110128431D02*
X128201705Y-110149829D01*
X128099966Y-110187275D02*
X128048415Y-110203323D01*
X127046973Y-110169443D02*
X126996346Y-110149829D01*
X126996346Y-110149829D02*
X126946251Y-110128431D01*
X25043736Y-73206119D02*
X24995012Y-72811089D01*
X25072853Y-73606284D02*
X25043736Y-73206119D01*
X14351752Y-81507698D02*
X14722050Y-81632379D01*
X24927137Y-72421731D02*
X24840570Y-72038581D01*
X21541760Y-80633479D02*
X21855095Y-80411864D01*
X12957833Y-80840149D02*
X13292200Y-81031391D01*
X24106041Y-77824819D02*
X24283545Y-77480420D01*
X24995012Y-72811089D02*
X24927137Y-72421731D01*
X25038404Y-74827607D02*
X25070439Y-74419876D01*
X24715645Y-76391484D02*
X24824505Y-76011542D01*
X24444654Y-77126408D02*
X24588858Y-76763268D01*
X22990494Y-79385658D02*
X23242303Y-79096593D01*
X18690239Y-81827700D02*
X19075435Y-81739208D01*
X19823734Y-81507698D02*
X20185816Y-81365650D01*
X24283545Y-77480420D02*
X24444654Y-77126408D01*
X23480273Y-78795492D02*
X23703894Y-78482840D01*
X18298361Y-81897370D02*
X18690239Y-81827700D01*
X17087743Y-81988609D02*
X17496602Y-81978310D01*
X16678885Y-81978310D02*
X17087743Y-81988609D01*
X14722050Y-81632379D02*
X15100052Y-81739208D01*
X17496602Y-81978310D02*
X17900311Y-81947735D01*
X19075435Y-81739208D02*
X19453437Y-81632379D01*
X24914925Y-75623925D02*
X24986395Y-75229119D01*
X22157147Y-80175790D02*
X22447405Y-79925741D01*
X13636316Y-81206720D02*
X13989671Y-81365650D01*
X20185816Y-81365650D02*
X20539170Y-81206720D01*
X16275175Y-81947735D02*
X16678885Y-81978310D01*
X20539170Y-81206720D02*
X20883287Y-81031391D01*
X17900311Y-81947735D02*
X18298361Y-81897370D01*
X22447405Y-79925741D02*
X22725358Y-79662203D01*
X21217654Y-80840149D02*
X21541760Y-80633479D01*
X15485248Y-81827700D02*
X15877126Y-81897370D01*
X24986395Y-75229119D02*
X25038404Y-74827607D01*
X24735766Y-71662175D02*
X24613182Y-71293049D01*
X24588858Y-76763268D02*
X24715645Y-76391484D01*
X25081906Y-74011049D02*
X25072853Y-73606284D01*
X24824505Y-76011542D02*
X24914925Y-75623925D01*
X21855095Y-80411864D02*
X22157147Y-80175790D01*
X23912653Y-78159120D02*
X24106041Y-77824819D01*
X15877126Y-81897370D02*
X16275175Y-81947735D01*
X23703894Y-78482840D02*
X23912653Y-78159120D01*
X20883287Y-81031391D02*
X21217654Y-80840149D01*
X19453437Y-81632379D02*
X19823734Y-81507698D01*
X13292200Y-81031391D02*
X13636316Y-81206720D01*
X15100052Y-81739208D02*
X15485248Y-81827700D01*
X13989671Y-81365650D02*
X14351752Y-81507698D01*
X23242303Y-79096593D02*
X23480273Y-78795492D01*
X24613182Y-71293049D02*
X24473275Y-70931740D01*
X25070439Y-74419876D02*
X25081906Y-74011049D01*
X24840570Y-72038581D02*
X24735766Y-71662175D01*
X22725358Y-79662203D02*
X22990494Y-79385658D01*
X42718560Y-102656426D02*
X42718560Y-104222254D01*
X12566025Y-67400901D02*
X12253870Y-67626587D01*
X21238839Y-106078751D02*
X21330854Y-106387909D01*
X15044308Y-66265175D02*
X14662051Y-66376089D01*
X21136657Y-105773381D02*
X21238839Y-106078751D01*
X12633726Y-80633479D02*
X12957833Y-80840149D01*
X12320391Y-80411864D02*
X12633726Y-80633479D01*
X12018339Y-80175790D02*
X12320391Y-80411864D01*
X11728081Y-79925741D02*
X12018339Y-80175790D01*
X11450129Y-79662203D02*
X11728081Y-79925741D01*
X10933183Y-79096593D02*
X11184992Y-79385658D01*
X11184992Y-79385658D02*
X11450129Y-79662203D01*
X12889564Y-67190002D02*
X12566025Y-67400901D01*
X10695213Y-78795492D02*
X10933183Y-79096593D01*
X10471592Y-78482840D02*
X10695213Y-78795492D01*
X10262833Y-78159120D02*
X10471592Y-78482840D01*
X21594469Y-107657613D02*
X21633568Y-107982106D01*
X10069445Y-77824819D02*
X10262833Y-78159120D01*
X9891941Y-77480420D02*
X10069445Y-77824819D01*
X9730832Y-77126408D02*
X9891941Y-77480420D01*
X9586628Y-76763268D02*
X9730832Y-77126408D01*
X9093580Y-74011049D02*
X9105046Y-74419876D01*
X10032167Y-70234716D02*
X9858985Y-70578783D01*
X16238378Y-66045825D02*
X15832929Y-66099507D01*
X21661667Y-108308945D02*
X21678629Y-108637890D01*
X9459840Y-76391484D02*
X9586628Y-76763268D01*
X10645604Y-69261209D02*
X10425934Y-69575392D01*
X13923926Y-66651393D02*
X13568972Y-66814712D01*
X21412563Y-106700615D02*
X21483828Y-107016627D01*
X9105046Y-74419876D02*
X9137082Y-74827607D01*
X11390283Y-68387006D02*
X11128236Y-68666480D01*
X9702212Y-70931740D02*
X9562305Y-71293049D01*
X9350981Y-76011542D02*
X9459840Y-76391484D01*
X9439721Y-71662175D02*
X9334916Y-72038581D01*
X11128236Y-68666480D02*
X10879857Y-68958059D01*
X9248349Y-72421731D02*
X9180475Y-72811089D01*
X14288438Y-66505007D02*
X13923926Y-66651393D01*
X14662051Y-66376089D02*
X14288438Y-66505007D01*
X21483828Y-107016627D02*
X21544509Y-107335707D01*
X15434753Y-66172802D02*
X15044308Y-66265175D01*
X9562305Y-71293049D02*
X9439721Y-71662175D01*
X9260561Y-75623925D02*
X9350981Y-76011542D01*
X9189091Y-75229119D02*
X9260561Y-75623925D01*
X9180475Y-72811089D02*
X9131751Y-73206119D01*
X11665542Y-68120176D02*
X11390283Y-68387006D01*
X9137082Y-74827607D02*
X9189091Y-75229119D01*
X21330854Y-106387909D02*
X21412563Y-106700615D01*
X9102633Y-73606284D02*
X9093580Y-74011049D01*
X10425934Y-69575392D02*
X10221303Y-69900073D01*
X11953557Y-67866524D02*
X11665542Y-68120176D01*
X21024446Y-105472038D02*
X21136657Y-105773381D01*
X15832929Y-66099507D02*
X15434753Y-66172802D01*
X21678629Y-108637890D02*
X21684313Y-108968701D01*
X9131751Y-73206119D02*
X9102633Y-73606284D01*
X10221303Y-69900073D02*
X10032167Y-70234716D01*
X9334916Y-72038581D02*
X9248349Y-72421731D01*
X9858985Y-70578783D02*
X9702212Y-70931740D01*
X10879857Y-68958059D02*
X10645604Y-69261209D01*
X12253870Y-67626587D02*
X11953557Y-67866524D01*
X21633568Y-107982106D02*
X21661667Y-108308945D01*
X13568972Y-66814712D02*
X13224032Y-66994427D01*
X20902346Y-105174964D02*
X21024446Y-105472038D01*
X13224032Y-66994427D02*
X12889564Y-67190002D01*
X21544509Y-107335707D02*
X21594469Y-107657613D01*
X16305209Y-100350800D02*
X16598565Y-100500584D01*
X14162390Y-99601883D02*
X14476137Y-99676775D01*
X13846841Y-99537690D02*
X14162390Y-99601883D01*
X5015034Y-102491833D02*
X5236766Y-102257567D01*
X6466024Y-101198310D02*
X6735025Y-101010556D01*
X4034610Y-103762026D02*
X4213135Y-103495607D01*
X4400578Y-103235138D02*
X4596802Y-102980859D01*
X17171546Y-100831394D02*
X17447940Y-101010556D01*
X12572159Y-99387907D02*
X12892147Y-99409304D01*
X11290818Y-99409304D02*
X11610806Y-99387907D01*
X16008109Y-100211716D02*
X16305209Y-100350800D01*
X7584400Y-100500584D02*
X7877756Y-100350800D01*
X10971523Y-99441401D02*
X11290818Y-99409304D01*
X7877756Y-100350800D02*
X8174856Y-100211716D01*
X10020575Y-99601883D02*
X10336124Y-99537690D01*
X15097109Y-99858655D02*
X15403781Y-99965643D01*
X9706828Y-99676775D02*
X10020575Y-99601883D01*
X9085856Y-99858655D02*
X9395163Y-99762365D01*
X5950755Y-101598637D02*
X6204555Y-101394417D01*
X20770495Y-104882399D02*
X20902346Y-105174964D01*
X20629032Y-104594582D02*
X20770495Y-104882399D01*
X20478095Y-104311754D02*
X20629032Y-104594582D01*
X18232210Y-101598637D02*
X18478200Y-101810729D01*
X8779184Y-99965643D02*
X9085856Y-99858655D01*
X20317823Y-104034155D02*
X20478095Y-104311754D01*
X20148356Y-103762026D02*
X20317823Y-104034155D01*
X19586163Y-102980859D02*
X19782387Y-103235138D01*
X4801667Y-102733011D02*
X5015034Y-102491833D01*
X17978410Y-101394417D02*
X18232210Y-101598637D01*
X16887897Y-100661066D02*
X17171546Y-100831394D01*
X15707540Y-100083330D02*
X16008109Y-100211716D01*
X14787802Y-99762365D02*
X15097109Y-99858655D01*
X14476137Y-99676775D02*
X14787802Y-99762365D01*
X7295067Y-100661066D02*
X7584400Y-100500584D01*
X12251754Y-99377208D02*
X12572159Y-99387907D01*
X6735025Y-101010556D02*
X7011419Y-100831394D01*
X10653200Y-99484196D02*
X10971523Y-99441401D01*
X8475425Y-100083330D02*
X8779184Y-99965643D01*
X11610806Y-99387907D02*
X11931211Y-99377208D01*
X19969831Y-103495607D02*
X20148356Y-103762026D01*
X19782387Y-103235138D02*
X19969831Y-103495607D01*
X19381298Y-102733011D02*
X19586163Y-102980859D01*
X12892147Y-99409304D02*
X13211442Y-99441401D01*
X5236766Y-102257567D02*
X5466722Y-102030452D01*
X16598565Y-100500584D02*
X16887897Y-100661066D01*
X10336124Y-99537690D02*
X10653200Y-99484196D01*
X19167931Y-102491833D02*
X19381298Y-102733011D01*
X18946199Y-102257567D02*
X19167931Y-102491833D01*
X5466722Y-102030452D02*
X5704765Y-101810729D01*
X18716243Y-102030452D02*
X18946199Y-102257567D01*
X13529765Y-99484196D02*
X13846841Y-99537690D01*
X11931211Y-99377208D02*
X12251754Y-99377208D01*
X18478200Y-101810729D02*
X18716243Y-102030452D01*
X6204555Y-101394417D02*
X6466024Y-101198310D01*
X15403781Y-99965643D02*
X15707540Y-100083330D01*
X5704765Y-101810729D02*
X5950755Y-101598637D01*
X7011419Y-100831394D02*
X7295067Y-100661066D01*
X4213135Y-103495607D02*
X4400578Y-103235138D01*
X17716941Y-101198310D02*
X17978410Y-101394417D01*
X17447940Y-101010556D02*
X17716941Y-101198310D01*
X8174856Y-100211716D02*
X8475425Y-100083330D01*
X13211442Y-99441401D02*
X13529765Y-99484196D01*
X9395163Y-99762365D02*
X9706828Y-99676775D01*
X4596802Y-102980859D02*
X4801667Y-102733011D01*
X8174856Y-117725686D02*
X7877756Y-117586602D01*
X3046309Y-105773381D02*
X3158519Y-105472038D01*
X2944127Y-106078751D02*
X3046309Y-105773381D01*
X2699138Y-107016627D02*
X2770403Y-106700615D01*
X9706828Y-118260627D02*
X9395163Y-118175037D01*
X2549398Y-107982106D02*
X2588497Y-107657613D01*
X7011419Y-117106008D02*
X6735025Y-116926846D01*
X2521299Y-109628457D02*
X2504337Y-109299512D01*
X4596802Y-114956543D02*
X4400578Y-114702264D01*
X2638456Y-107335707D02*
X2699138Y-107016627D01*
X2852112Y-106387909D02*
X2944127Y-106078751D01*
X2521299Y-108308945D02*
X2549398Y-107982106D01*
X2504337Y-108637890D02*
X2521299Y-108308945D01*
X11610806Y-118549495D02*
X11290818Y-118528098D01*
X2549398Y-109955296D02*
X2521299Y-109628457D01*
X2699138Y-110920775D02*
X2638456Y-110601695D01*
X5704765Y-116126674D02*
X5466722Y-115906950D01*
X2852112Y-111549493D02*
X2770403Y-111236788D01*
X2944127Y-111858651D02*
X2852112Y-111549493D01*
X3280619Y-112762438D02*
X3158519Y-112465364D01*
X3865142Y-113903247D02*
X3704870Y-113625649D01*
X10653200Y-118453206D02*
X10336124Y-118399712D01*
X8475425Y-117854072D02*
X8174856Y-117725686D01*
X4213135Y-114441795D02*
X4034610Y-114175376D01*
X5236766Y-115679835D02*
X5015034Y-115445569D01*
X10336124Y-118399712D02*
X10020575Y-118335519D01*
X4400578Y-114702264D02*
X4213135Y-114441795D01*
X9395163Y-118175037D02*
X9085856Y-118078747D01*
X6466024Y-116739092D02*
X6204555Y-116542985D01*
X2588497Y-107657613D02*
X2638456Y-107335707D01*
X2588497Y-110279789D02*
X2549398Y-109955296D01*
X7877756Y-117586602D02*
X7584400Y-117436818D01*
X2770403Y-111236788D02*
X2699138Y-110920775D01*
X11290818Y-118528098D02*
X10971523Y-118496001D01*
X12251754Y-118560194D02*
X11931211Y-118560194D01*
X10020575Y-118335519D02*
X9706828Y-118260627D01*
X3158519Y-112465364D02*
X3046309Y-112164022D01*
X6204555Y-116542985D02*
X5950755Y-116338765D01*
X7295067Y-117276336D02*
X7011419Y-117106008D01*
X3553934Y-113342821D02*
X3412470Y-113055004D01*
X7584400Y-117436818D02*
X7295067Y-117276336D01*
X3412470Y-113055004D02*
X3280619Y-112762438D01*
X2498652Y-108968701D02*
X2504337Y-108637890D01*
X2504337Y-109299512D02*
X2498652Y-108968701D01*
X4034610Y-114175376D02*
X3865142Y-113903247D01*
X3704870Y-113625649D02*
X3553934Y-113342821D01*
X6735025Y-116926846D02*
X6466024Y-116739092D01*
X2638456Y-110601695D02*
X2588497Y-110279789D01*
X3046309Y-112164022D02*
X2944127Y-111858651D01*
X9085856Y-118078747D02*
X8779184Y-117971759D01*
X10971523Y-118496001D02*
X10653200Y-118453206D01*
X3865142Y-104034155D02*
X4034610Y-103762026D01*
X5015034Y-115445569D02*
X4801667Y-115204392D01*
X3704870Y-104311754D02*
X3865142Y-104034155D01*
X8779184Y-117971759D02*
X8475425Y-117854072D01*
X3553934Y-104594582D02*
X3704870Y-104311754D01*
X3412470Y-104882399D02*
X3553934Y-104594582D01*
X4801667Y-115204392D02*
X4596802Y-114956543D01*
X11931211Y-118560194D02*
X11610806Y-118549495D01*
X5466722Y-115906950D02*
X5236766Y-115679835D01*
X3280619Y-105174964D02*
X3412470Y-104882399D01*
X3158519Y-105472038D02*
X3280619Y-105174964D01*
X2770403Y-106700615D02*
X2852112Y-106387909D01*
X5950755Y-116338765D02*
X5704765Y-116126674D01*
X13529765Y-118453206D02*
X13211442Y-118496001D01*
X13846841Y-118399712D02*
X13529765Y-118453206D01*
X16008109Y-117725686D02*
X15707540Y-117854072D01*
X14162390Y-118335519D02*
X13846841Y-118399712D01*
X16305209Y-117586602D02*
X16008109Y-117725686D01*
X14476137Y-118260627D02*
X14162390Y-118335519D01*
X15097109Y-118078747D02*
X14787802Y-118175037D01*
X17978410Y-116542985D02*
X17716941Y-116739092D01*
X21238839Y-111858651D02*
X21136657Y-112164022D01*
X43972457Y-102914195D02*
X43668315Y-102827157D01*
X17447940Y-116926846D02*
X17171546Y-117106008D01*
X18232210Y-116338765D02*
X17978410Y-116542985D01*
X44269768Y-103015586D02*
X43972457Y-102914195D01*
X46786868Y-104725169D02*
X46577946Y-104503686D01*
X45117069Y-103401618D02*
X44842439Y-103259724D01*
X18946199Y-115679835D02*
X18716243Y-115906950D01*
X21594469Y-110279789D02*
X21544509Y-110601695D01*
X45383407Y-103556161D02*
X45117069Y-103401618D01*
X45889748Y-103901487D02*
X45641088Y-103722926D01*
X19381298Y-115204392D02*
X19167931Y-115445569D01*
X19586163Y-114956543D02*
X19381298Y-115204392D01*
X20148356Y-114175376D02*
X19969831Y-114441795D01*
X20770495Y-113055004D02*
X20629032Y-113342821D01*
X46129021Y-104091418D02*
X45889748Y-103901487D01*
X21483828Y-110920775D02*
X21412563Y-111236788D01*
X21024446Y-112465364D02*
X20902346Y-112762438D01*
X21136657Y-112164022D02*
X21024446Y-112465364D01*
X51661877Y-137947014D02*
X51661877Y-137947014D01*
X21678629Y-109299512D02*
X21661667Y-109628457D01*
X15403781Y-117971759D02*
X15097109Y-118078747D01*
X15707540Y-117854072D02*
X15403781Y-117971759D01*
X17171546Y-117106008D02*
X16887897Y-117276336D01*
X18478200Y-116126674D02*
X18232210Y-116338765D01*
X19167931Y-115445569D02*
X18946199Y-115679835D01*
X21661667Y-109628457D02*
X21633568Y-109955296D01*
X43041002Y-102697846D02*
X42718560Y-102656426D01*
X44559884Y-103130905D02*
X44269768Y-103015586D01*
X46358543Y-104292293D02*
X46129021Y-104091418D01*
X43668315Y-102827157D02*
X43357708Y-102754899D01*
X19969831Y-114441795D02*
X19782387Y-114702264D01*
X20478095Y-113625649D02*
X20317823Y-113903247D01*
X20317823Y-113903247D02*
X20148356Y-114175376D01*
X20629032Y-113342821D02*
X20478095Y-113625649D01*
X20902346Y-112762438D02*
X20770495Y-113055004D01*
X41419533Y-104222254D02*
X42718560Y-104222254D01*
X44842439Y-103259724D02*
X44559884Y-103130905D01*
X21684313Y-108968701D02*
X21678629Y-109299512D01*
X18716243Y-115906950D02*
X18478200Y-116126674D01*
X17716941Y-116739092D02*
X17447940Y-116926846D01*
X16598565Y-117436818D02*
X16305209Y-117586602D01*
X19782387Y-114702264D02*
X19586163Y-114956543D01*
X43357708Y-102754899D02*
X43041002Y-102697846D01*
X21412563Y-111236788D02*
X21330854Y-111549493D01*
X12572159Y-118549495D02*
X12251754Y-118560194D01*
X12892147Y-118528098D02*
X12572159Y-118549495D01*
X14787802Y-118175037D02*
X14476137Y-118260627D01*
X41419533Y-104222254D02*
X41419533Y-102656426D01*
X21330854Y-111549493D02*
X21238839Y-111858651D01*
X13211442Y-118496001D02*
X12892147Y-118528098D01*
X21544509Y-110601695D02*
X21483828Y-110920775D01*
X46577946Y-104503686D02*
X46358543Y-104292293D01*
X16887897Y-117276336D02*
X16598565Y-117436818D01*
X45641088Y-103722926D02*
X45383407Y-103556161D01*
X21633568Y-109955296D02*
X21594469Y-110279789D01*
X37379170Y-113242523D02*
X37589656Y-113462521D01*
X48382763Y-108328842D02*
X48343349Y-108014956D01*
X48284136Y-110250797D02*
X48340382Y-109936895D01*
X37810350Y-113672180D02*
X38040845Y-113871115D01*
X47643986Y-112000994D02*
X47784676Y-111727086D01*
X39894570Y-114930892D02*
X40188828Y-115030112D01*
X47490646Y-112266884D02*
X47643986Y-112000994D01*
X39052702Y-114551874D02*
X39326101Y-114691386D01*
X46097249Y-113871115D02*
X46327745Y-113672180D01*
X39606859Y-114817854D02*
X39894570Y-114930892D01*
X48126778Y-110861116D02*
X48212800Y-110558999D01*
X48026479Y-111156761D02*
X48126778Y-110861116D01*
X37589656Y-113462521D02*
X37810350Y-113672180D01*
X41744060Y-115305420D02*
X42069047Y-115313617D01*
X46984941Y-104956318D02*
X46786868Y-104725169D01*
X46548439Y-113462521D02*
X46758924Y-113242523D01*
X46327745Y-113672180D02*
X46548439Y-113462521D01*
X45085392Y-114551874D02*
X45351024Y-114399704D01*
X47912309Y-111445546D02*
X48026479Y-111156761D01*
X46758924Y-113242523D02*
X46958795Y-113012574D01*
X38787071Y-114399704D02*
X39052702Y-114551874D01*
X41106805Y-115241001D02*
X41423177Y-115281085D01*
X48343349Y-108014956D02*
X48288705Y-107705621D01*
X40489224Y-115115127D02*
X40795352Y-115185553D01*
X43031289Y-115241001D02*
X43342743Y-115185553D01*
X47171802Y-105196706D02*
X46984941Y-104956318D01*
X48381129Y-109617681D02*
X48405970Y-109293541D01*
X47347085Y-105445906D02*
X47171802Y-105196706D01*
X47510424Y-105703493D02*
X47347085Y-105445906D01*
X47799811Y-106242121D02*
X47661454Y-105969040D01*
X48414439Y-108968560D02*
X48406581Y-108646852D01*
X43342743Y-115185553D02*
X43648871Y-115115127D01*
X48212800Y-110558999D02*
X48284136Y-110250797D01*
X47325062Y-112524368D02*
X47490646Y-112266884D01*
X47147643Y-112773060D02*
X47325062Y-112524368D01*
X39326101Y-114691386D02*
X39606859Y-114817854D01*
X47661454Y-105969040D02*
X47510424Y-105703493D01*
X47925129Y-106522310D02*
X47799811Y-106242121D01*
X48037042Y-106809181D02*
X47925129Y-106522310D01*
X48135186Y-107102307D02*
X48037042Y-106809181D01*
X47784676Y-111727086D02*
X47912309Y-111445546D01*
X45857359Y-114058938D02*
X46097249Y-113871115D01*
X43949267Y-115030112D02*
X44243524Y-114930892D01*
X44811994Y-114691386D02*
X45085392Y-114551874D01*
X38529613Y-114235263D02*
X38787071Y-114399704D01*
X45608482Y-114235263D02*
X45857359Y-114058938D01*
X45351024Y-114399704D02*
X45608482Y-114235263D01*
X44243524Y-114930892D02*
X44531236Y-114817854D01*
X40795352Y-115185553D02*
X41106805Y-115241001D01*
X48288705Y-107705621D02*
X48219196Y-107401262D01*
X48340382Y-109936895D02*
X48381129Y-109617681D01*
X38280735Y-114058938D02*
X38529613Y-114235263D01*
X42714918Y-115281085D02*
X43031289Y-115241001D01*
X46958795Y-113012574D02*
X47147643Y-112773060D01*
X48405970Y-109293541D02*
X48414439Y-108968560D01*
X48219196Y-107401262D02*
X48135186Y-107102307D01*
X48406581Y-108646852D02*
X48382763Y-108328842D01*
X44531236Y-114817854D02*
X44811994Y-114691386D01*
X42394035Y-115305420D02*
X42714918Y-115281085D01*
X43648871Y-115115127D02*
X43949267Y-115030112D01*
X42069047Y-115313617D02*
X42394035Y-115305420D01*
X41423177Y-115281085D02*
X41744060Y-115305420D01*
X40188828Y-115030112D02*
X40489224Y-115115127D01*
X38040845Y-113871115D02*
X38280735Y-114058938D01*
X35794745Y-108014956D02*
X35755331Y-108328842D01*
X36212965Y-106522310D02*
X36101052Y-106809181D01*
X51340503Y-135475577D02*
X51454430Y-135953361D01*
X40780386Y-102754899D02*
X40469779Y-102827157D01*
X51203076Y-135007371D02*
X51340503Y-135475577D01*
X36966292Y-105196706D02*
X36791010Y-105445906D01*
X39021026Y-103401618D02*
X38754688Y-103556161D01*
X36813032Y-112524368D02*
X36990451Y-112773060D01*
X50431626Y-133243585D02*
X50656424Y-133666850D01*
X49337212Y-131686081D02*
X49638773Y-132053797D01*
X36647449Y-112266884D02*
X36813032Y-112524368D01*
X35755331Y-108328842D02*
X35731513Y-108646852D01*
X21684313Y-137947014D02*
X21684313Y-137947014D01*
X49018117Y-131333908D02*
X49337212Y-131686081D01*
X47962264Y-130377288D02*
X48329980Y-130678849D01*
X36353418Y-111727086D02*
X36494108Y-112000994D01*
X38009073Y-104091418D02*
X37779552Y-104292293D01*
X39578210Y-103130905D02*
X39295655Y-103259724D01*
X51609132Y-136935009D02*
X51648581Y-137437549D01*
X36111615Y-111156761D02*
X36225785Y-111445546D01*
X36011316Y-110861116D02*
X36111615Y-111156761D01*
X35853958Y-110250797D02*
X35925294Y-110558999D01*
X35797712Y-109936895D02*
X35853958Y-110250797D01*
X36627670Y-105703493D02*
X36476640Y-105969040D01*
X36791010Y-105445906D02*
X36627670Y-105703493D01*
X35918898Y-107401262D02*
X35849389Y-107705621D01*
X37153153Y-104956318D02*
X36966292Y-105196706D01*
X41097092Y-102697846D02*
X40780386Y-102754899D01*
X35732123Y-109293541D02*
X35756965Y-109617681D01*
X36002908Y-107102307D02*
X35918898Y-107401262D01*
X36101052Y-106809181D02*
X36002908Y-107102307D01*
X37351227Y-104725169D02*
X37153153Y-104956318D01*
X51544194Y-136440059D02*
X51609132Y-136935009D01*
X36338283Y-106242121D02*
X36212965Y-106522310D01*
X38754688Y-103556161D02*
X38497006Y-103722926D01*
X51454430Y-135953361D02*
X51544194Y-136440059D01*
X48682153Y-130997944D02*
X49018117Y-131333908D01*
X50186643Y-132833212D02*
X50431626Y-133243585D01*
X49638773Y-132053797D02*
X49922137Y-132436396D01*
X37779552Y-104292293D02*
X37560148Y-104503686D01*
X37179299Y-113012574D02*
X37379170Y-113242523D01*
X36990451Y-112773060D02*
X37179299Y-113012574D01*
X40469779Y-102827157D02*
X40165637Y-102914195D01*
X50656424Y-133666850D02*
X50860373Y-134102345D01*
X38248346Y-103901487D02*
X38009073Y-104091418D01*
X48329980Y-130678849D02*
X48682153Y-130997944D01*
X36225785Y-111445546D02*
X36353418Y-111727086D01*
X35756965Y-109617681D02*
X35797712Y-109936895D01*
X40165637Y-102914195D02*
X39868326Y-103015586D01*
X36476640Y-105969040D02*
X36338283Y-106242121D01*
X51042811Y-134549406D02*
X51203076Y-135007371D01*
X49922137Y-132436396D02*
X50186643Y-132833212D01*
X37560148Y-104503686D02*
X37351227Y-104725169D01*
X39295655Y-103259724D02*
X39021026Y-103401618D01*
X39868326Y-103015586D02*
X39578210Y-103130905D01*
X51648581Y-137437549D02*
X51661877Y-137947014D01*
X38497006Y-103722926D02*
X38248346Y-103901487D01*
X36494108Y-112000994D02*
X36647449Y-112266884D01*
X35925294Y-110558999D02*
X36011316Y-110861116D01*
X35723655Y-108968560D02*
X35732123Y-109293541D01*
X35849389Y-107705621D02*
X35794745Y-108014956D01*
X50860373Y-134102345D02*
X51042811Y-134549406D01*
X35731513Y-108646852D02*
X35723655Y-108968560D01*
X41419533Y-102656426D02*
X41097092Y-102697846D01*
X38671439Y-128973250D02*
X39129405Y-128812986D01*
X32676702Y-139899087D02*
X32616020Y-139580008D01*
X34499321Y-132053797D02*
X34800882Y-131686081D01*
X32489513Y-137437549D02*
X32528962Y-136935009D01*
X33531498Y-142321133D02*
X33390034Y-142033316D01*
X33842706Y-142881560D02*
X33682434Y-142603961D01*
X33706468Y-133243585D02*
X33951451Y-132833212D01*
X34378142Y-143680577D02*
X34190699Y-143420108D01*
X34215957Y-132436396D02*
X34499321Y-132053797D01*
X34012174Y-143153689D02*
X33842706Y-142881560D01*
X45913716Y-129155688D02*
X46349211Y-129359638D01*
X44540484Y-128675559D02*
X45008690Y-128812986D01*
X45008690Y-128812986D02*
X45466655Y-128973250D01*
X36558429Y-130093924D02*
X36955246Y-129829418D01*
X44062700Y-128561632D02*
X44540484Y-128675559D01*
X32683664Y-135953361D02*
X32797591Y-135475577D01*
X36955246Y-129829418D02*
X37365618Y-129584435D01*
X33481670Y-133666850D02*
X33706468Y-133243585D01*
X32526962Y-138933608D02*
X32498863Y-138606769D01*
X33136083Y-141443677D02*
X33023873Y-141142334D01*
X34574366Y-143934856D02*
X34378142Y-143680577D01*
X35808114Y-130678849D02*
X36175831Y-130377288D01*
X35119977Y-131333908D02*
X35455942Y-130997944D01*
X33277721Y-134102345D02*
X33481670Y-133666850D01*
X33023873Y-141142334D02*
X32921691Y-140836964D01*
X42069047Y-128354184D02*
X42578513Y-128367481D01*
X37365618Y-129584435D02*
X37788883Y-129359638D01*
X40562093Y-128471868D02*
X41057043Y-128406930D01*
X32481901Y-138277824D02*
X32476216Y-137947014D01*
X33951451Y-132833212D02*
X34215957Y-132436396D01*
X32935018Y-135007371D02*
X33095283Y-134549406D01*
X32593900Y-136440059D02*
X32683664Y-135953361D01*
X32528962Y-136935009D02*
X32593900Y-136440059D01*
X32476216Y-137947014D02*
X32489513Y-137437549D01*
X32747967Y-140215100D02*
X32676702Y-139899087D01*
X34190699Y-143420108D02*
X34012174Y-143153689D01*
X32921691Y-140836964D02*
X32829676Y-140527806D01*
X33390034Y-142033316D02*
X33258183Y-141740751D01*
X47579665Y-130093924D02*
X47962264Y-130377288D01*
X47182849Y-129829418D02*
X47579665Y-130093924D01*
X32498863Y-138606769D02*
X32481901Y-138277824D01*
X37788883Y-129359638D02*
X38224378Y-129155688D01*
X46772476Y-129584435D02*
X47182849Y-129829418D01*
X41559582Y-128367481D02*
X42069047Y-128354184D01*
X46349211Y-129359638D02*
X46772476Y-129584435D01*
X33095283Y-134549406D02*
X33277721Y-134102345D01*
X45466655Y-128973250D02*
X45913716Y-129155688D01*
X32566061Y-139258101D02*
X32526962Y-138933608D01*
X35455942Y-130997944D02*
X35808114Y-130678849D01*
X32616020Y-139580008D02*
X32566061Y-139258101D01*
X43576002Y-128471868D02*
X44062700Y-128561632D01*
X43081052Y-128406930D02*
X43576002Y-128471868D01*
X42578513Y-128367481D02*
X43081052Y-128406930D01*
X38224378Y-129155688D02*
X38671439Y-128973250D01*
X32829676Y-140527806D02*
X32747967Y-140215100D01*
X32797591Y-135475577D02*
X32935018Y-135007371D01*
X33258183Y-141740751D02*
X33136083Y-141443677D01*
X39129405Y-128812986D02*
X39597610Y-128675559D01*
X41057043Y-128406930D02*
X41559582Y-128367481D01*
X40075394Y-128561632D02*
X40562093Y-128471868D01*
X39597610Y-128675559D02*
X40075394Y-128561632D01*
X36175831Y-130377288D02*
X36558429Y-130093924D01*
X34800882Y-131686081D02*
X35119977Y-131333908D01*
X33682434Y-142603961D02*
X33531498Y-142321133D01*
X36712589Y-145905159D02*
X36443588Y-145717405D01*
X37272631Y-146254649D02*
X36988983Y-146084321D01*
X43189006Y-147474314D02*
X42869712Y-147506411D01*
X39998139Y-147313832D02*
X39684393Y-147238940D01*
X43507330Y-147431519D02*
X43189006Y-147474314D01*
X40949088Y-147474314D02*
X40630764Y-147431519D01*
X49358863Y-144182704D02*
X49145495Y-144423882D01*
X37561964Y-146415131D02*
X37272631Y-146254649D01*
X44765367Y-147153350D02*
X44453701Y-147238940D01*
X45985674Y-146703999D02*
X45685105Y-146832385D01*
X37855320Y-146564915D02*
X37561964Y-146415131D01*
X38756748Y-146950072D02*
X38452989Y-146832385D01*
X41268382Y-147506411D02*
X40949088Y-147474314D01*
X46282774Y-146564915D02*
X45985674Y-146703999D01*
X48209775Y-145317078D02*
X47955975Y-145521298D01*
X50748060Y-142033316D02*
X50606596Y-142321133D01*
X50295388Y-142881560D02*
X50125920Y-143153689D01*
X38452989Y-146832385D02*
X38152420Y-146703999D01*
X42229319Y-147538507D02*
X41908775Y-147538507D01*
X39372727Y-147153350D02*
X39063420Y-147057060D01*
X50879911Y-141740751D02*
X50748060Y-142033316D01*
X51216403Y-140836964D02*
X51114221Y-141142334D01*
X39684393Y-147238940D02*
X39372727Y-147153350D01*
X40313688Y-147378025D02*
X39998139Y-147313832D01*
X47694506Y-145717405D02*
X47425505Y-145905159D01*
X51114221Y-141142334D02*
X51002011Y-141443677D01*
X50606596Y-142321133D02*
X50455660Y-142603961D01*
X41588371Y-147527808D02*
X41268382Y-147506411D01*
X48923764Y-144658148D02*
X48693808Y-144885263D01*
X42549723Y-147527808D02*
X42229319Y-147538507D01*
X42869712Y-147506411D02*
X42549723Y-147527808D01*
X45074674Y-147057060D02*
X44765367Y-147153350D01*
X50125920Y-143153689D02*
X49947395Y-143420108D01*
X45685105Y-146832385D02*
X45381346Y-146950072D01*
X49947395Y-143420108D02*
X49759952Y-143680577D01*
X51002011Y-141443677D02*
X50879911Y-141740751D01*
X46576130Y-146415131D02*
X46282774Y-146564915D01*
X48693808Y-144885263D02*
X48455765Y-145104987D01*
X49563728Y-143934856D02*
X49358863Y-144182704D01*
X34779231Y-144182704D02*
X34574366Y-143934856D01*
X34992598Y-144423882D02*
X34779231Y-144182704D01*
X35214330Y-144658148D02*
X34992598Y-144423882D01*
X36988983Y-146084321D02*
X36712589Y-145905159D01*
X44453701Y-147238940D02*
X44139955Y-147313832D01*
X40630764Y-147431519D02*
X40313688Y-147378025D01*
X46865462Y-146254649D02*
X46576130Y-146415131D01*
X49145495Y-144423882D02*
X48923764Y-144658148D01*
X35444286Y-144885263D02*
X35214330Y-144658148D01*
X35682329Y-145104987D02*
X35444286Y-144885263D01*
X38152420Y-146703999D02*
X37855320Y-146564915D01*
X43824406Y-147378025D02*
X43507330Y-147431519D01*
X45381346Y-146950072D02*
X45074674Y-147057060D01*
X47425505Y-145905159D02*
X47149111Y-146084321D01*
X50455660Y-142603961D02*
X50295388Y-142881560D01*
X35928319Y-145317078D02*
X35682329Y-145104987D01*
X41908775Y-147538507D02*
X41588371Y-147527808D01*
X49759952Y-143680577D02*
X49563728Y-143934856D01*
X47149111Y-146084321D02*
X46865462Y-146254649D01*
X39063420Y-147057060D02*
X38756748Y-146950072D01*
X47955975Y-145521298D02*
X47694506Y-145717405D01*
X36182119Y-145521298D02*
X35928319Y-145317078D01*
X44139955Y-147313832D02*
X43824406Y-147378025D01*
X36443588Y-145717405D02*
X36182119Y-145521298D01*
X48455765Y-145104987D02*
X48209775Y-145317078D01*
X9706828Y-128655088D02*
X10020575Y-128580196D01*
X12251754Y-128355521D02*
X12572159Y-128366220D01*
X21412563Y-135678927D02*
X21483828Y-135994940D01*
X17978410Y-130372730D02*
X18232210Y-130576950D01*
X20902346Y-134153276D02*
X21024446Y-134450351D01*
X19381298Y-131711323D02*
X19586163Y-131959171D01*
X17171546Y-129809707D02*
X17447940Y-129988869D01*
X51308418Y-140527806D02*
X51216403Y-140836964D01*
X51390127Y-140215100D02*
X51308418Y-140527806D01*
X51461392Y-139899087D02*
X51390127Y-140215100D01*
X51522074Y-139580008D02*
X51461392Y-139899087D01*
X51572033Y-139258101D02*
X51522074Y-139580008D01*
X21678629Y-137616203D02*
X21684313Y-137947014D01*
X51611132Y-138933608D02*
X51572033Y-139258101D01*
X51656193Y-138277824D02*
X51639231Y-138606769D01*
X51661877Y-137947014D02*
X51656193Y-138277824D01*
X20148356Y-132740339D02*
X20317823Y-133012468D01*
X21594469Y-136635926D02*
X21633568Y-136960419D01*
X18946199Y-131235879D02*
X19167931Y-131470146D01*
X21136657Y-134751693D02*
X21238839Y-135057063D01*
X13846841Y-128516003D02*
X14162390Y-128580196D01*
X13529765Y-128462509D02*
X13846841Y-128516003D01*
X12572159Y-128366220D02*
X12892147Y-128387617D01*
X21024446Y-134450351D02*
X21136657Y-134751693D01*
X15403781Y-128943956D02*
X15707540Y-129061643D01*
X20770495Y-133860711D02*
X20902346Y-134153276D01*
X17716941Y-130176623D02*
X17978410Y-130372730D01*
X13211442Y-128419714D02*
X13529765Y-128462509D01*
X21544509Y-136314020D02*
X21594469Y-136635926D01*
X20629032Y-133572894D02*
X20770495Y-133860711D01*
X15707540Y-129061643D02*
X16008109Y-129190029D01*
X10020575Y-128580196D02*
X10336124Y-128516003D01*
X14162390Y-128580196D02*
X14476137Y-128655088D01*
X10653200Y-128462509D02*
X10971523Y-128419714D01*
X21483828Y-135994940D02*
X21544509Y-136314020D01*
X19586163Y-131959171D02*
X19782387Y-132213450D01*
X21330854Y-135366221D02*
X21412563Y-135678927D01*
X20317823Y-133012468D02*
X20478095Y-133290066D01*
X12892147Y-128387617D02*
X13211442Y-128419714D01*
X11290818Y-128387617D02*
X11610806Y-128366220D01*
X10336124Y-128516003D02*
X10653200Y-128462509D01*
X19969831Y-132473919D02*
X20148356Y-132740339D01*
X16305209Y-129329113D02*
X16598565Y-129478897D01*
X18232210Y-130576950D02*
X18478200Y-130789041D01*
X11610806Y-128366220D02*
X11931211Y-128355521D01*
X51639231Y-138606769D02*
X51611132Y-138933608D01*
X-17036718Y-102781332D02*
X-17036718Y-103745610D01*
X18478200Y-130789041D02*
X18716243Y-131008764D01*
X16598565Y-129478897D02*
X16887897Y-129639379D01*
X21661667Y-137287258D02*
X21678629Y-137616203D01*
X21633568Y-136960419D02*
X21661667Y-137287258D01*
X21238839Y-135057063D02*
X21330854Y-135366221D01*
X15097109Y-128836968D02*
X15403781Y-128943956D01*
X19167931Y-131470146D02*
X19381298Y-131711323D01*
X20478095Y-133290066D02*
X20629032Y-133572894D01*
X18716243Y-131008764D02*
X18946199Y-131235879D01*
X19782387Y-132213450D02*
X19969831Y-132473919D01*
X16887897Y-129639379D02*
X17171546Y-129809707D01*
X14787802Y-128740678D02*
X15097109Y-128836968D01*
X11931211Y-128355521D02*
X12251754Y-128355521D01*
X16008109Y-129190029D02*
X16305209Y-129329113D01*
X14476137Y-128655088D02*
X14787802Y-128740678D01*
X10971523Y-128419714D02*
X11290818Y-128387617D01*
X17447940Y-129988869D02*
X17716941Y-130176623D01*
X6735025Y-129988869D02*
X7011419Y-129809707D01*
X4596802Y-143934856D02*
X4400578Y-143680577D01*
X2549398Y-136960419D02*
X2588497Y-136635926D01*
X3412470Y-133860711D02*
X3553934Y-133572894D01*
X2521299Y-137287258D02*
X2549398Y-136960419D01*
X3046309Y-134751693D02*
X3158519Y-134450351D01*
X2638456Y-139580008D02*
X2588497Y-139258101D01*
X6466024Y-130176623D02*
X6735025Y-129988869D01*
X6204555Y-130372730D02*
X6466024Y-130176623D01*
X5704765Y-130789041D02*
X5950755Y-130576950D01*
X5466722Y-131008764D02*
X5704765Y-130789041D01*
X5236766Y-131235879D02*
X5466722Y-131008764D01*
X2944127Y-135057063D02*
X3046309Y-134751693D01*
X4034610Y-132740339D02*
X4213135Y-132473919D01*
X5015034Y-131470146D02*
X5236766Y-131235879D01*
X3412470Y-142033316D02*
X3280619Y-141740751D01*
X3046309Y-141142334D02*
X2944127Y-140836964D01*
X4801667Y-131711323D02*
X5015034Y-131470146D01*
X2699138Y-135994940D02*
X2770403Y-135678927D01*
X4596802Y-131959171D02*
X4801667Y-131711323D01*
X3553934Y-142321133D02*
X3412470Y-142033316D01*
X4034610Y-143153689D02*
X3865142Y-142881560D01*
X4400578Y-143680577D02*
X4213135Y-143420108D01*
X4213135Y-132473919D02*
X4400578Y-132213450D01*
X3280619Y-134153276D02*
X3412470Y-133860711D01*
X3865142Y-142881560D02*
X3704870Y-142603961D01*
X3280619Y-141740751D02*
X3158519Y-141443677D01*
X3704870Y-133290066D02*
X3865142Y-133012468D01*
X2549398Y-138933608D02*
X2521299Y-138606769D01*
X3553934Y-133572894D02*
X3704870Y-133290066D01*
X2852112Y-135366221D02*
X2944127Y-135057063D01*
X2638456Y-136314020D02*
X2699138Y-135994940D01*
X2944127Y-140836964D02*
X2852112Y-140527806D01*
X5704765Y-145104987D02*
X5466722Y-144885263D01*
X2852112Y-140527806D02*
X2770403Y-140215100D01*
X3704870Y-142603961D02*
X3553934Y-142321133D01*
X2588497Y-136635926D02*
X2638456Y-136314020D01*
X2521299Y-138606769D02*
X2504337Y-138277824D01*
X2699138Y-139899087D02*
X2638456Y-139580008D01*
X9395163Y-128740678D02*
X9706828Y-128655088D01*
X5236766Y-144658148D02*
X5015034Y-144423882D01*
X9085856Y-128836968D02*
X9395163Y-128740678D01*
X7295067Y-129639379D02*
X7584400Y-129478897D01*
X3158519Y-134450351D02*
X3280619Y-134153276D01*
X5015034Y-144423882D02*
X4801667Y-144182704D01*
X8779184Y-128943956D02*
X9085856Y-128836968D01*
X2588497Y-139258101D02*
X2549398Y-138933608D01*
X8475425Y-129061643D02*
X8779184Y-128943956D01*
X4400578Y-132213450D02*
X4596802Y-131959171D01*
X2504337Y-137616203D02*
X2521299Y-137287258D01*
X4213135Y-143420108D02*
X4034610Y-143153689D01*
X8174856Y-129190029D02*
X8475425Y-129061643D01*
X5950755Y-130576950D02*
X6204555Y-130372730D01*
X3158519Y-141443677D02*
X3046309Y-141142334D01*
X7011419Y-129809707D02*
X7295067Y-129639379D01*
X2770403Y-135678927D02*
X2852112Y-135366221D01*
X2770403Y-140215100D02*
X2699138Y-139899087D01*
X7877756Y-129329113D02*
X8174856Y-129190029D01*
X3865142Y-133012468D02*
X4034610Y-132740339D01*
X4801667Y-144182704D02*
X4596802Y-143934856D01*
X7584400Y-129478897D02*
X7877756Y-129329113D01*
X2498652Y-137947014D02*
X2504337Y-137616203D01*
X5466722Y-144885263D02*
X5236766Y-144658148D01*
X2504337Y-138277824D02*
X2498652Y-137947014D01*
X15403781Y-146950072D02*
X15097109Y-147057060D01*
X16305209Y-146564915D02*
X16008109Y-146703999D01*
X21024446Y-141443677D02*
X20902346Y-141740751D01*
X21330854Y-140527806D02*
X21238839Y-140836964D01*
X5950755Y-145317078D02*
X5704765Y-145104987D01*
X7584400Y-146415131D02*
X7295067Y-146254649D01*
X21594469Y-139258101D02*
X21544509Y-139580008D01*
X8779184Y-146950072D02*
X8475425Y-146832385D01*
X9085856Y-147057060D02*
X8779184Y-146950072D01*
X10020575Y-147313832D02*
X9706828Y-147238940D01*
X12572159Y-147527808D02*
X12251754Y-147538507D01*
X19586163Y-143934856D02*
X19381298Y-144182704D01*
X12251754Y-147538507D02*
X11931211Y-147538507D01*
X19381298Y-144182704D02*
X19167931Y-144423882D01*
X17716941Y-145717405D02*
X17447940Y-145905159D01*
X10336124Y-147378025D02*
X10020575Y-147313832D01*
X10971523Y-147474314D02*
X10653200Y-147431519D01*
X17978410Y-145521298D02*
X17716941Y-145717405D01*
X18478200Y-145104987D02*
X18232210Y-145317078D01*
X6204555Y-145521298D02*
X5950755Y-145317078D01*
X6735025Y-145905159D02*
X6466024Y-145717405D01*
X11290818Y-147506411D02*
X10971523Y-147474314D01*
X16008109Y-146703999D02*
X15707540Y-146832385D01*
X18716243Y-144885263D02*
X18478200Y-145104987D01*
X21238839Y-140836964D02*
X21136657Y-141142334D01*
X7877756Y-146564915D02*
X7584400Y-146415131D01*
X8475425Y-146832385D02*
X8174856Y-146703999D01*
X9395163Y-147153350D02*
X9085856Y-147057060D01*
X11610806Y-147527808D02*
X11290818Y-147506411D01*
X16887897Y-146254649D02*
X16598565Y-146415131D01*
X21483828Y-139899087D02*
X21412563Y-140215100D01*
X12892147Y-147506411D02*
X12572159Y-147527808D01*
X14162390Y-147313832D02*
X13846841Y-147378025D01*
X19782387Y-143680577D02*
X19586163Y-143934856D01*
X14476137Y-147238940D02*
X14162390Y-147313832D01*
X20478095Y-142603961D02*
X20317823Y-142881560D01*
X17171546Y-146084321D02*
X16887897Y-146254649D01*
X18946199Y-144658148D02*
X18716243Y-144885263D01*
X20629032Y-142321133D02*
X20478095Y-142603961D01*
X7011419Y-146084321D02*
X6735025Y-145905159D01*
X14787802Y-147153350D02*
X14476137Y-147238940D01*
X20770495Y-142033316D02*
X20629032Y-142321133D01*
X7295067Y-146254649D02*
X7011419Y-146084321D01*
X8174856Y-146703999D02*
X7877756Y-146564915D01*
X9706828Y-147238940D02*
X9395163Y-147153350D01*
X17447940Y-145905159D02*
X17171546Y-146084321D01*
X10653200Y-147431519D02*
X10336124Y-147378025D01*
X11931211Y-147538507D02*
X11610806Y-147527808D01*
X13211442Y-147474314D02*
X12892147Y-147506411D01*
X13529765Y-147431519D02*
X13211442Y-147474314D01*
X13846841Y-147378025D02*
X13529765Y-147431519D01*
X15097109Y-147057060D02*
X14787802Y-147153350D01*
X15707540Y-146832385D02*
X15403781Y-146950072D01*
X21136657Y-141142334D02*
X21024446Y-141443677D01*
X21544509Y-139580008D02*
X21483828Y-139899087D01*
X16598565Y-146415131D02*
X16305209Y-146564915D01*
X20902346Y-141740751D02*
X20770495Y-142033316D01*
X21412563Y-140215100D02*
X21330854Y-140527806D01*
X19167931Y-144423882D02*
X18946199Y-144658148D01*
X20148356Y-143153689D02*
X19969831Y-143420108D01*
X19969831Y-143420108D02*
X19782387Y-143680577D01*
X20317823Y-142881560D02*
X20148356Y-143153689D01*
X18232210Y-145317078D02*
X17978410Y-145521298D01*
X6466024Y-145717405D02*
X6204555Y-145521298D01*
X334233334Y-109467054D02*
X334200630Y-109424674D01*
X334930401Y-109969593D02*
X334879774Y-109949978D01*
X335137300Y-110030220D02*
X335085009Y-110017738D01*
X334035944Y-109150129D02*
X334013969Y-109101368D01*
X333993619Y-109051855D02*
X333974917Y-109001631D01*
X334169389Y-109381262D02*
X334139635Y-109336859D01*
X334339995Y-109587603D02*
X334303039Y-109548559D01*
X334544872Y-109764147D02*
X334501294Y-109731462D01*
X334683046Y-109853688D02*
X334635772Y-109825300D01*
X334981513Y-109987424D02*
X334930401Y-109969593D01*
X334013969Y-109101368D02*
X333993619Y-109051855D01*
X334111390Y-109291504D02*
X334084678Y-109245237D01*
X334267478Y-109508362D02*
X334233334Y-109467054D01*
X334458994Y-109697425D02*
X334417995Y-109662077D01*
X334501294Y-109731462D02*
X334458994Y-109697425D01*
X334635772Y-109825300D02*
X334589706Y-109795439D01*
X335085009Y-110017738D02*
X335033064Y-110003472D01*
X334829679Y-109928580D02*
X334780162Y-109905399D01*
X335242738Y-110049834D02*
X335189892Y-110040918D01*
X335033064Y-110003472D02*
X334981513Y-109987424D01*
X334731269Y-109880435D02*
X334683046Y-109853688D01*
X335189892Y-110040918D02*
X335137300Y-110030220D01*
X334303039Y-109548559D02*
X334267478Y-109508362D01*
X334378321Y-109625456D02*
X334339995Y-109587603D01*
X333906941Y-108741242D02*
X333898615Y-108687591D01*
X334780162Y-109905399D02*
X334731269Y-109880435D01*
X333917055Y-108794422D02*
X333906941Y-108741242D01*
X335295793Y-110056967D02*
X335242738Y-110049834D01*
X333928932Y-108847091D02*
X333917055Y-108794422D01*
X334879774Y-109949978D02*
X334829679Y-109928580D01*
X333974917Y-109001631D02*
X333957887Y-108950736D01*
X334084678Y-109245237D02*
X334059521Y-109198099D01*
X335349009Y-110062316D02*
X335295793Y-110056967D01*
X334589706Y-109795439D02*
X334544872Y-109764147D01*
X334059521Y-109198099D02*
X334035944Y-109150129D01*
X334417995Y-109662077D02*
X334378321Y-109625456D01*
X334139635Y-109336859D02*
X334111390Y-109291504D01*
X333942551Y-108899209D02*
X333928932Y-108847091D01*
X333957887Y-108950736D02*
X333942551Y-108899209D01*
X334200630Y-109424674D02*
X334169389Y-109381262D01*
X335402340Y-110065883D02*
X335349009Y-110062316D01*
X336085133Y-109949978D02*
X336034506Y-109969593D01*
X336135228Y-109928580D02*
X336085133Y-109949978D01*
X336928963Y-109150129D02*
X336905386Y-109198099D01*
X-47344979Y-108038941D02*
X-47331360Y-108091059D01*
X-47416397Y-107836782D02*
X-47396047Y-107886295D01*
X336950939Y-109101368D02*
X336928963Y-109150129D01*
X337066293Y-108687591D02*
X337057967Y-108741242D01*
X335722169Y-110049834D02*
X335669114Y-110056967D01*
X336463613Y-109731462D02*
X336420035Y-109764147D01*
X336624912Y-109587603D02*
X336586586Y-109625456D01*
X336233638Y-109880435D02*
X336184745Y-109905399D01*
X336661868Y-109548559D02*
X336624912Y-109587603D01*
X336764278Y-109424674D02*
X336731574Y-109467054D01*
X336989991Y-109001631D02*
X336971289Y-109051855D01*
X336795519Y-109381262D02*
X336764278Y-109424674D01*
X-47360315Y-107987414D02*
X-47344979Y-108038941D01*
X337022357Y-108899209D02*
X337007021Y-108950736D01*
X336853518Y-109291504D02*
X336825273Y-109336859D01*
X337077493Y-108579035D02*
X337072810Y-108633508D01*
X335775015Y-110040918D02*
X335722169Y-110049834D01*
X335879898Y-110017738D02*
X335827607Y-110030220D01*
X335983394Y-109987424D02*
X335931843Y-110003472D01*
X336034506Y-109969593D02*
X335983394Y-109987424D01*
X336880230Y-109245237D02*
X336853518Y-109291504D01*
X336905386Y-109198099D02*
X336880230Y-109245237D01*
X336184745Y-109905399D02*
X336135228Y-109928580D01*
X336281860Y-109853688D02*
X336233638Y-109880435D01*
X-47396047Y-107886295D02*
X-47377345Y-107936519D01*
X336420035Y-109764147D02*
X336375201Y-109795439D01*
X-47319483Y-108143728D02*
X-47309369Y-108196908D01*
X-47461950Y-107740051D02*
X-47438372Y-107788021D01*
X-47377345Y-107936519D02*
X-47360315Y-107987414D01*
X336697429Y-109508362D02*
X336661868Y-109548559D01*
X-47301043Y-108250559D02*
X-47294526Y-108304642D01*
X-47438372Y-107788021D02*
X-47416397Y-107836782D01*
X337057967Y-108741242D02*
X337047853Y-108794422D01*
X336971289Y-109051855D02*
X336950939Y-109101368D01*
X336505914Y-109697425D02*
X336463613Y-109731462D01*
X336586586Y-109625456D02*
X336546912Y-109662077D01*
X-47289843Y-108359115D02*
X-47287016Y-108413939D01*
X-47309369Y-108196908D02*
X-47301043Y-108250559D01*
X337007021Y-108950736D02*
X336989991Y-109001631D01*
X337035975Y-108847091D02*
X337022357Y-108899209D01*
X-47287016Y-108413939D02*
X-47286069Y-108469075D01*
X-47487106Y-107692913D02*
X-47461950Y-107740051D01*
X336731574Y-109467054D02*
X336697429Y-109508362D01*
X-47331360Y-108091059D02*
X-47319483Y-108143728D01*
X335455741Y-110067666D02*
X335402340Y-110065883D01*
X337081267Y-108469075D02*
X337080320Y-108524210D01*
X198806743Y-62503476D02*
X87789829Y-62503476D01*
X336329135Y-109825300D02*
X336281860Y-109853688D01*
X336546912Y-109662077D02*
X336505914Y-109697425D01*
X335931843Y-110003472D02*
X335879898Y-110017738D01*
X337072810Y-108633508D02*
X337066293Y-108687591D01*
X335509166Y-110067666D02*
X335455741Y-110067666D01*
X337080320Y-108524210D02*
X337077493Y-108579035D01*
X337047853Y-108794422D02*
X337035975Y-108847091D01*
X335562567Y-110065883D02*
X335509166Y-110067666D01*
X335615898Y-110062316D02*
X335562567Y-110065883D01*
X335669114Y-110056967D02*
X335615898Y-110062316D01*
X336375201Y-109795439D02*
X336329135Y-109825300D01*
X336825273Y-109336859D02*
X336795519Y-109381262D01*
X-47294526Y-108304642D02*
X-47289843Y-108359115D01*
X335827607Y-110030220D02*
X335775015Y-110040918D01*
X-49487561Y-106988172D02*
X-49436935Y-106968558D01*
X-47820423Y-107276073D02*
X-47780749Y-107312694D01*
X-48038201Y-107112850D02*
X-47992135Y-107142711D01*
X-49385823Y-106950726D02*
X-49334271Y-106934678D01*
X-49071543Y-106881184D02*
X-49018327Y-106875834D01*
X-48085476Y-107084462D02*
X-48038201Y-107112850D01*
X-48383942Y-106950726D02*
X-48332830Y-106968558D01*
X-47513818Y-107646646D02*
X-47487106Y-107692913D01*
X-47542063Y-107601291D02*
X-47513818Y-107646646D01*
X-47603058Y-107513476D02*
X-47571817Y-107556888D01*
X-48487438Y-106920413D02*
X-48435493Y-106934678D01*
X-50064296Y-107389592D02*
X-50027341Y-107350547D01*
X-49436935Y-106968558D02*
X-49385823Y-106950726D01*
X-50027341Y-107350547D02*
X-49989015Y-107312694D01*
X-49731563Y-107112850D02*
X-49684289Y-107084462D01*
X-47705468Y-107389592D02*
X-47669906Y-107429788D01*
X-48804769Y-106872268D02*
X-48751438Y-106875834D01*
X-49777629Y-107142711D02*
X-49731563Y-107112850D01*
X-49866042Y-107206688D02*
X-49822463Y-107174003D01*
X-47742423Y-107350547D02*
X-47705468Y-107389592D01*
X-47947301Y-107174003D02*
X-47903722Y-107206688D01*
X-47992135Y-107142711D02*
X-47947301Y-107174003D01*
X-48232108Y-107009570D02*
X-48182591Y-107032751D01*
X-49908342Y-107240725D02*
X-49866042Y-107206688D01*
X-48182591Y-107032751D02*
X-48133698Y-107057715D01*
X-48282203Y-106988172D02*
X-48232108Y-107009570D01*
X-49018327Y-106875834D02*
X-48964995Y-106872268D01*
X-49587173Y-107032751D02*
X-49537656Y-107009570D01*
X-47780749Y-107312694D02*
X-47742423Y-107350547D01*
X-48435493Y-106934678D02*
X-48383942Y-106950726D01*
X-49177444Y-106897232D02*
X-49124597Y-106888316D01*
X-48964995Y-106872268D02*
X-48911594Y-106870485D01*
X-49124597Y-106888316D02*
X-49071543Y-106881184D01*
X-50099858Y-107429788D02*
X-50064296Y-107389592D01*
X-49636066Y-107057715D02*
X-49587173Y-107032751D01*
X-50227701Y-107601291D02*
X-50197947Y-107556888D01*
X-49684289Y-107084462D02*
X-49636066Y-107057715D01*
X-49949341Y-107276073D02*
X-49908342Y-107240725D01*
X-50255946Y-107646646D02*
X-50227701Y-107601291D01*
X-47861422Y-107240725D02*
X-47820423Y-107276073D01*
X-48592321Y-106897232D02*
X-48539729Y-106907931D01*
X-50282658Y-107692913D02*
X-50255946Y-107646646D01*
X-48133698Y-107057715D02*
X-48085476Y-107084462D01*
X-47571817Y-107556888D02*
X-47542063Y-107601291D01*
X-49230035Y-106907931D02*
X-49177444Y-106897232D01*
X-47635762Y-107471096D02*
X-47603058Y-107513476D01*
X-47669906Y-107429788D02*
X-47635762Y-107471096D01*
X-47903722Y-107206688D02*
X-47861422Y-107240725D01*
X-48332830Y-106968558D02*
X-48282203Y-106988172D01*
X-48645167Y-106888316D02*
X-48592321Y-106897232D01*
X-48539729Y-106907931D02*
X-48487438Y-106920413D01*
X-49282327Y-106920413D02*
X-49230035Y-106907931D01*
X-48698222Y-106881184D02*
X-48645167Y-106888316D01*
X-48751438Y-106875834D02*
X-48698222Y-106881184D01*
X-48858170Y-106870485D02*
X-48804769Y-106872268D01*
X-48911594Y-106870485D02*
X-48858170Y-106870485D01*
X-50307814Y-107740051D02*
X-50282658Y-107692913D01*
X-49537656Y-107009570D02*
X-49487561Y-106988172D01*
X-49989015Y-107312694D02*
X-49949341Y-107276073D01*
X-50166706Y-107513476D02*
X-50134002Y-107471096D01*
X-50134002Y-107471096D02*
X-50099858Y-107429788D01*
X-50197947Y-107556888D02*
X-50166706Y-107513476D01*
X-49822463Y-107174003D02*
X-49777629Y-107142711D01*
X-49334271Y-106934678D02*
X-49282327Y-106920413D01*
X-49296791Y-110014326D02*
X-49374825Y-109991421D01*
X-47782692Y-109627260D02*
X-47841388Y-109680442D01*
X-49451153Y-109964711D02*
X-49525664Y-109934304D01*
X-48884883Y-110067889D02*
X-48969794Y-110065673D01*
X-49867090Y-109730703D02*
X-49928377Y-109680442D01*
X-50331392Y-107788021D02*
X-50307814Y-107740051D01*
X-50468721Y-108250559D02*
X-50460395Y-108196908D01*
X-50353367Y-107836782D02*
X-50331392Y-107788021D01*
X-50373717Y-107886295D02*
X-50353367Y-107836782D01*
X-50392419Y-107936519D02*
X-50373717Y-107886295D01*
X-50409449Y-107987414D02*
X-50392419Y-107936519D01*
X-50438404Y-108091059D02*
X-50424785Y-108038941D01*
X-49374825Y-109991421D02*
X-49451153Y-109964711D01*
X-50424785Y-108038941D02*
X-50409449Y-107987414D01*
X-50460395Y-108196908D02*
X-50450281Y-108143728D01*
X-50043067Y-109571265D02*
X-50096249Y-109512569D01*
X-50475238Y-108304642D02*
X-50468721Y-108250559D01*
X-50479921Y-108359115D02*
X-50475238Y-108304642D01*
X-50481479Y-108553986D02*
X-50483696Y-108469075D01*
X-50464081Y-108720235D02*
X-50474904Y-108637743D01*
X-47902674Y-109730703D02*
X-47966441Y-109777930D01*
X-50449121Y-108801352D02*
X-50464081Y-108720235D01*
X-48100973Y-109862846D02*
X-48171518Y-109900312D01*
X-48472974Y-110014326D02*
X-48552605Y-110033314D01*
X-47841388Y-109680442D02*
X-47902674Y-109730703D01*
X-50474904Y-108637743D02*
X-50481479Y-108553986D01*
X-49928377Y-109680442D02*
X-49987072Y-109627260D01*
X-49136043Y-110048275D02*
X-49217160Y-110033314D01*
X-50193737Y-109387516D02*
X-50237822Y-109321380D01*
X-49987072Y-109627260D02*
X-50043067Y-109571265D01*
X-49737187Y-109822015D02*
X-49803323Y-109777930D01*
X-48552605Y-110033314D02*
X-48633722Y-110048275D01*
X-48171518Y-109900312D02*
X-48244101Y-109934304D01*
X-50278653Y-109252984D02*
X-50316119Y-109182439D01*
X-49803323Y-109777930D02*
X-49867090Y-109730703D01*
X-50350111Y-109109856D02*
X-50380517Y-109035346D01*
X-50237822Y-109321380D02*
X-50278653Y-109252984D01*
X-48969794Y-110065673D02*
X-49053551Y-110059098D01*
X-49053551Y-110059098D02*
X-49136043Y-110048275D01*
X-47966441Y-109777930D02*
X-48032577Y-109822015D01*
X-47623254Y-109451283D02*
X-47673515Y-109512569D01*
X-50380517Y-109035346D02*
X-50407228Y-108959018D01*
X-48716214Y-110059098D02*
X-48799971Y-110065673D01*
X-49668791Y-109862846D02*
X-49737187Y-109822015D01*
X-47673515Y-109512569D02*
X-47726697Y-109571265D01*
X-50146510Y-109451283D02*
X-50193737Y-109387516D01*
X-48032577Y-109822015D02*
X-48100973Y-109862846D01*
X-50482748Y-108413939D02*
X-50479921Y-108359115D01*
X-48799971Y-110065673D02*
X-48884883Y-110067889D01*
X-50483696Y-108469075D02*
X-50482748Y-108413939D01*
X-50450281Y-108143728D02*
X-50438404Y-108091059D01*
X-49598247Y-109900312D02*
X-49668791Y-109862846D01*
X-48394939Y-109991421D02*
X-48472974Y-110014326D01*
X-50430133Y-108880983D02*
X-50449121Y-108801352D01*
X-50407228Y-108959018D02*
X-50430133Y-108880983D01*
X-50316119Y-109182439D02*
X-50350111Y-109109856D01*
X-50096249Y-109512569D02*
X-50146510Y-109451283D01*
X-49217160Y-110033314D02*
X-49296791Y-110014326D01*
X-48318611Y-109964711D02*
X-48394939Y-109991421D01*
X-47726697Y-109571265D02*
X-47782692Y-109627260D01*
X-48633722Y-110048275D02*
X-48716214Y-110059098D01*
X-48244101Y-109934304D02*
X-48318611Y-109964711D01*
X-47576027Y-109387516D02*
X-47623254Y-109451283D01*
X-49525664Y-109934304D02*
X-49598247Y-109900312D01*
X-47953082Y-56986186D02*
X-49657347Y-58839057D01*
X-27302182Y-42951963D02*
X-29621340Y-43955724D01*
X-24936624Y-42044821D02*
X-27302182Y-42951963D01*
X299495133Y-39032905D02*
X296908787Y-38750182D01*
X311922904Y-42044821D02*
X309513689Y-41236427D01*
X314288463Y-42951963D02*
X311922904Y-42044821D01*
X-47320643Y-108801352D02*
X-47339631Y-108880983D01*
X-47294860Y-108637743D02*
X-47305683Y-108720235D01*
X-15065259Y-39425020D02*
X-17588983Y-39924398D01*
X-4670973Y-38521425D02*
X-7308966Y-38578979D01*
X-47288285Y-108553986D02*
X-47294860Y-108637743D01*
X-62035499Y-81042679D02*
X-62746508Y-83583700D01*
X-54299697Y-64828371D02*
X-55681186Y-66961281D01*
X318877636Y-45053975D02*
X316607621Y-43955724D01*
X-61220477Y-78553573D02*
X-62035499Y-81042679D01*
X-60304185Y-76118511D02*
X-61220477Y-78553573D01*
X323259260Y-47525433D02*
X321095763Y-46244587D01*
X-59289366Y-73739622D02*
X-60304185Y-76118511D01*
X-34109482Y-46244587D02*
X-36272979Y-47525433D01*
X-58178765Y-71419035D02*
X-59289366Y-73739622D01*
X-40425107Y-50349308D02*
X-42408251Y-51888079D01*
X-46174982Y-55208647D02*
X-47953082Y-56986186D01*
X-42408251Y-51888079D02*
X-44325791Y-53508569D01*
X307063561Y-40528910D02*
X304575264Y-39924398D01*
X309513689Y-41236427D02*
X307063561Y-40528910D01*
X349732788Y-83583700D02*
X369823752Y-161929065D01*
X-55681186Y-66961281D02*
X-56975123Y-69158878D01*
X-51285034Y-60765131D02*
X-52833398Y-62762278D01*
X-49657347Y-58839057D02*
X-51285034Y-60765131D01*
X-38379102Y-48894383D02*
X-40425107Y-50349308D01*
X-31891355Y-45053975D02*
X-34109482Y-46244587D01*
X-29621340Y-43955724D02*
X-31891355Y-45053975D01*
X139086438Y-38521425D02*
X291657252Y-38521425D01*
X-12508853Y-39032905D02*
X-15065259Y-39425020D01*
X-7308966Y-38578979D02*
X-9922507Y-38750182D01*
X329394532Y-51888079D02*
X327411388Y-50349308D01*
X316607621Y-43955724D02*
X314288463Y-42951963D01*
X296908787Y-38750182D02*
X294295246Y-38578979D01*
X294295246Y-38578979D02*
X291657252Y-38521425D01*
X302051540Y-39425020D02*
X299495133Y-39032905D01*
X-47286069Y-108469075D02*
X-47288285Y-108553986D01*
X-44325791Y-53508569D02*
X-46174982Y-55208647D01*
X321095763Y-46244587D02*
X318877636Y-45053975D01*
X-17588983Y-39924398D02*
X-20077281Y-40528910D01*
X325365383Y-48894383D02*
X323259260Y-47525433D01*
X-47531942Y-109321380D02*
X-47576027Y-109387516D01*
X-47419653Y-109109856D02*
X-47453645Y-109182439D01*
X-47491112Y-109252984D02*
X-47531942Y-109321380D01*
X-4670973Y-38521425D02*
X139086438Y-38521425D01*
X-56975123Y-69158878D02*
X-58178765Y-71419035D01*
X-22527409Y-41236427D02*
X-24936624Y-42044821D01*
X-9922507Y-38750182D02*
X-12508853Y-39032905D01*
X304575264Y-39924398D02*
X302051540Y-39425020D01*
X-47453645Y-109182439D02*
X-47491112Y-109252984D01*
X-47389247Y-109035346D02*
X-47419653Y-109109856D01*
X-36272979Y-47525433D02*
X-38379102Y-48894383D01*
X327411388Y-50349308D02*
X325365383Y-48894383D01*
X-47362536Y-108959018D02*
X-47389247Y-109035346D01*
X-52833398Y-62762278D02*
X-54299697Y-64828371D01*
X-47339631Y-108880983D02*
X-47362536Y-108959018D01*
X-62746608Y-83583700D02*
X-82837472Y-161929065D01*
X-20077281Y-40528910D02*
X-22527409Y-41236427D01*
X-47305683Y-108720235D02*
X-47320643Y-108801352D01*
X198806743Y-62503476D02*
X198806743Y-55508711D01*
X345165045Y-71419035D02*
X343961404Y-69158878D01*
X347290466Y-76118511D02*
X346275647Y-73739622D01*
X342667467Y-66961281D02*
X341285978Y-64828371D01*
X349732788Y-83583700D02*
X349021780Y-81042679D01*
X87789829Y-55508711D02*
X87789829Y-62503476D01*
X339819679Y-62762278D02*
X338271315Y-60765131D01*
X-82837472Y-161929065D02*
X369823752Y-161929065D01*
X349021780Y-81042679D02*
X348206758Y-78553573D01*
X331312072Y-53508569D02*
X329394532Y-51888079D01*
X333161263Y-55208647D02*
X331312072Y-53508569D01*
X338271315Y-60765131D02*
X336643628Y-58839057D01*
X336643628Y-58839057D02*
X334939363Y-56986186D01*
X348206758Y-78553573D02*
X347290466Y-76118511D01*
X346275647Y-73739622D02*
X345165045Y-71419035D01*
X334939363Y-56986186D02*
X333161263Y-55208647D01*
X87789829Y-55508711D02*
X198806743Y-55508711D01*
X341285978Y-64828371D02*
X339819679Y-62762278D01*
X343961404Y-69158878D02*
X342667467Y-66961281D01*
X335615898Y-106875834D02*
X335669114Y-106881184D01*
X334731269Y-107057715D02*
X334780162Y-107032751D01*
X333884588Y-108413939D02*
X333887415Y-108359115D01*
X335562567Y-106872268D02*
X335615898Y-106875834D01*
X333883640Y-108469075D02*
X333884588Y-108413939D01*
X333993619Y-107886295D02*
X334013969Y-107836782D01*
X335509166Y-106870485D02*
X335562567Y-106872268D01*
X335455741Y-106870485D02*
X335509166Y-106870485D01*
X335295793Y-106881184D02*
X335349009Y-106875834D01*
X335242738Y-106888316D02*
X335295793Y-106881184D01*
X334981513Y-106950726D02*
X335033064Y-106934678D01*
X334829679Y-107009570D02*
X334879774Y-106988172D01*
X334780162Y-107032751D02*
X334829679Y-107009570D01*
X334084678Y-107692913D02*
X334111390Y-107646646D01*
X334635772Y-107112850D02*
X334683046Y-107084462D01*
X334303039Y-107389592D02*
X334339995Y-107350547D01*
X334417995Y-107276073D02*
X334458994Y-107240725D01*
X334267478Y-107429788D02*
X334303039Y-107389592D01*
X333898615Y-108250559D02*
X333906941Y-108196908D01*
X333884588Y-108524210D02*
X333883640Y-108469075D01*
X333928932Y-108091059D02*
X333942551Y-108038941D01*
X334169389Y-107556888D02*
X334200630Y-107513476D01*
X334200630Y-107513476D02*
X334233334Y-107471096D01*
X333974917Y-107936519D02*
X333993619Y-107886295D01*
X333942551Y-108038941D02*
X333957887Y-107987414D01*
X333887415Y-108579035D02*
X333884588Y-108524210D01*
X334339995Y-107350547D02*
X334378321Y-107312694D01*
X335033064Y-106934678D02*
X335085009Y-106920413D01*
X334501294Y-107206688D02*
X334544872Y-107174003D01*
X334458994Y-107240725D02*
X334501294Y-107206688D01*
X334111390Y-107646646D02*
X334139635Y-107601291D01*
X333917055Y-108143728D02*
X333928932Y-108091059D01*
X333892098Y-108304642D02*
X333898615Y-108250559D01*
X334013969Y-107836782D02*
X334035944Y-107788021D01*
X334035944Y-107788021D02*
X334059521Y-107740051D01*
X334233334Y-107471096D02*
X334267478Y-107429788D01*
X336034506Y-106968558D02*
X336085133Y-106988172D01*
X334589706Y-107142711D02*
X334635772Y-107112850D01*
X333887415Y-108359115D02*
X333892098Y-108304642D01*
X334879774Y-106988172D02*
X334930401Y-106968558D01*
X333898615Y-108687591D02*
X333892098Y-108633508D01*
X336135228Y-107009570D02*
X336184745Y-107032751D01*
X335402340Y-106872268D02*
X335455741Y-106870485D01*
X333957887Y-107987414D02*
X333974917Y-107936519D01*
X336085133Y-106988172D02*
X336135228Y-107009570D01*
X335983394Y-106950726D02*
X336034506Y-106968558D01*
X334930401Y-106968558D02*
X334981513Y-106950726D01*
X335931843Y-106934678D02*
X335983394Y-106950726D01*
X335879898Y-106920413D02*
X335931843Y-106934678D01*
X334139635Y-107601291D02*
X334169389Y-107556888D01*
X333892098Y-108633508D02*
X333887415Y-108579035D01*
X335775015Y-106897232D02*
X335827607Y-106907931D01*
X335189892Y-106897232D02*
X335242738Y-106888316D01*
X334378321Y-107312694D02*
X334417995Y-107276073D01*
X335827607Y-106907931D02*
X335879898Y-106920413D01*
X333906941Y-108196908D02*
X333917055Y-108143728D01*
X334544872Y-107174003D02*
X334589706Y-107142711D01*
X335137300Y-106907931D02*
X335189892Y-106897232D01*
X334059521Y-107740051D02*
X334084678Y-107692913D01*
X334683046Y-107084462D02*
X334731269Y-107057715D01*
X335722169Y-106888316D02*
X335775015Y-106897232D01*
X335349009Y-106875834D02*
X335402340Y-106872268D01*
X335085009Y-106920413D02*
X335137300Y-106907931D01*
X335669114Y-106881184D02*
X335722169Y-106888316D01*
X-18202070Y-115206079D02*
X-17886082Y-115213958D01*
X-18514166Y-115182686D02*
X-18202070Y-115206079D01*
X-24042876Y-110018796D02*
X-23983442Y-110323266D01*
X-23909576Y-110622065D02*
X-23821668Y-110914829D01*
X-18821978Y-115144142D02*
X-18514166Y-115182686D01*
X-21813577Y-113824544D02*
X-21578644Y-114005674D01*
X-23701519Y-106688739D02*
X-23804353Y-106970318D01*
X-20002588Y-114845762D02*
X-19715812Y-114941259D01*
X-20283129Y-114736938D02*
X-20002588Y-114845762D01*
X-23021195Y-112524257D02*
X-22845922Y-112764567D01*
X-19423192Y-115023065D02*
X-19125117Y-115090814D01*
X-20823943Y-114480767D02*
X-20557044Y-114615151D01*
X-22998394Y-105381241D02*
X-23163090Y-105627974D01*
X-21083437Y-114334150D02*
X-20823943Y-114480767D01*
X-22463010Y-113217966D02*
X-22256150Y-113430326D01*
X-23720108Y-111201193D02*
X-23605287Y-111480793D01*
X-24111021Y-108455825D02*
X-24128494Y-108765549D01*
X-24078478Y-108149756D02*
X-24111021Y-108455825D01*
X-23316087Y-105882504D02*
X-23457049Y-106144418D01*
X-24031202Y-107847757D02*
X-24078478Y-108149756D01*
X-23804353Y-106970318D02*
X-23893803Y-107257624D01*
X-16647046Y-115090814D02*
X-16348971Y-115023065D01*
X-21578644Y-114005674D02*
X-21335134Y-114175664D01*
X-23893803Y-107257624D02*
X-23969531Y-107550242D01*
X-16950185Y-115144142D02*
X-16647046Y-115090814D01*
X-24128494Y-108765549D02*
X-24130561Y-109078513D01*
X-17257997Y-115182686D02*
X-16950185Y-115144142D01*
X-22039542Y-113632640D02*
X-21813577Y-113824544D01*
X-23477594Y-111753264D02*
X-23337422Y-112018241D01*
X-23969531Y-107550242D02*
X-24031202Y-107847757D01*
X-19715812Y-114941259D02*
X-19423192Y-115023065D01*
X-24116885Y-109394304D02*
X-24087487Y-109709021D01*
X-23337422Y-112018241D02*
X-23185158Y-112275361D01*
X-17570093Y-115206079D02*
X-17257997Y-115182686D01*
X-17886082Y-115213958D02*
X-17570093Y-115206079D01*
X-21335134Y-114175664D02*
X-21083437Y-114334150D01*
X-22256150Y-113430326D02*
X-22039542Y-113632640D01*
X-22845922Y-112764567D02*
X-22659730Y-112995924D01*
X-23185158Y-112275361D02*
X-23021195Y-112524257D01*
X-19125117Y-115090814D02*
X-18821978Y-115144142D01*
X-24087487Y-109709021D02*
X-24042876Y-110018796D01*
X-23457049Y-106144418D02*
X-23585639Y-106413301D01*
X-20557044Y-114615151D02*
X-20283129Y-114736938D01*
X-23983442Y-110323266D02*
X-23909576Y-110622065D01*
X-22659730Y-112995924D02*
X-22463010Y-113217966D01*
X-23585639Y-106413301D02*
X-23701519Y-106688739D01*
X-23163090Y-105627974D02*
X-23316087Y-105882504D01*
X-23605287Y-111480793D02*
X-23477594Y-111753264D01*
X-23821668Y-110914829D02*
X-23720108Y-111201193D01*
X-24130561Y-109078513D02*
X-24116885Y-109394304D01*
X-22822338Y-105142722D02*
X-22998394Y-105381241D01*
X251165328Y-75210936D02*
X251217920Y-75221635D01*
X252121886Y-75784801D02*
X252154590Y-75827181D01*
X252015225Y-75664251D02*
X252052181Y-75703296D01*
X251270211Y-75234117D02*
X251322156Y-75248382D01*
X251575058Y-75346456D02*
X251623951Y-75371420D01*
X252341251Y-76150487D02*
X252361601Y-76200000D01*
X251672173Y-75398167D02*
X251719448Y-75426555D01*
X252463122Y-76618347D02*
X252467805Y-76672820D01*
X-21045347Y-103579918D02*
X-21300155Y-103737826D01*
X252470632Y-76727644D02*
X252471579Y-76782780D01*
X-20511090Y-103300340D02*
X-20782213Y-103433952D01*
X-19653153Y-102977781D02*
X-19946222Y-103071841D01*
X251217920Y-75221635D02*
X251270211Y-75234117D01*
X252471579Y-76782780D02*
X252471579Y-76782780D01*
X251976899Y-75626399D02*
X252015225Y-75664251D01*
X252397333Y-76301119D02*
X252412669Y-76352646D01*
X157176899Y-109368402D02*
X157176899Y-74494502D01*
X186155211Y-108668926D02*
X186155211Y-108668926D01*
X252270542Y-76006618D02*
X252295698Y-76053756D01*
X252456605Y-76564264D02*
X252463122Y-76618347D01*
X252448279Y-76510613D02*
X252456605Y-76564264D01*
X252087742Y-75743493D02*
X252121886Y-75784801D01*
X251810348Y-75487708D02*
X251853926Y-75520393D01*
X251937225Y-75589778D02*
X251976899Y-75626399D01*
X251853926Y-75520393D02*
X251896226Y-75554429D01*
X251765514Y-75456415D02*
X251810348Y-75487708D01*
X251623951Y-75371420D02*
X251672173Y-75398167D01*
X251059427Y-75194888D02*
X251112482Y-75202020D01*
X157176899Y-109368402D02*
X132695221Y-109368402D01*
X252154590Y-75827181D02*
X252185831Y-75870593D01*
X251475446Y-75301877D02*
X251525541Y-75323275D01*
X252467805Y-76672820D02*
X252470632Y-76727644D01*
X252380303Y-76250224D02*
X252397333Y-76301119D01*
X252361601Y-76200000D02*
X252380303Y-76250224D01*
X251525541Y-75323275D02*
X251575058Y-75346456D01*
X252319276Y-76101726D02*
X252341251Y-76150487D01*
X-22635257Y-104912828D02*
X-22822338Y-105142722D01*
X252426288Y-76404763D02*
X252438165Y-76457433D01*
X132695221Y-74494502D02*
X132695221Y-109368402D01*
X-22437490Y-104691976D02*
X-22635257Y-104912828D01*
X-19946222Y-103071841D02*
X-20232314Y-103179499D01*
X252438165Y-76457433D02*
X252448279Y-76510613D01*
X251896226Y-75554429D02*
X251937225Y-75589778D01*
X252243830Y-75960351D02*
X252270542Y-76006618D01*
X251424819Y-75282262D02*
X251475446Y-75301877D01*
X252295698Y-76053756D02*
X252319276Y-76101726D01*
X-22229374Y-104480578D02*
X-22437490Y-104691976D01*
X-19353442Y-102897733D02*
X-19653153Y-102977781D01*
X-22011245Y-104279050D02*
X-22229374Y-104480578D01*
X-19047428Y-102832112D02*
X-19353442Y-102897733D01*
X252215585Y-75914996D02*
X252243830Y-75960351D01*
X251373707Y-75264431D02*
X251424819Y-75282262D01*
X251719448Y-75426555D02*
X251765514Y-75456415D01*
X252185831Y-75870593D02*
X252215585Y-75914996D01*
X-21783441Y-104087806D02*
X-22011245Y-104279050D01*
X-21546298Y-103907260D02*
X-21783441Y-104087806D01*
X252412669Y-76352646D02*
X252426288Y-76404763D01*
X-21300155Y-103737826D02*
X-21546298Y-103907260D01*
X-20782213Y-103433952D02*
X-21045347Y-103579918D01*
X-20232314Y-103179499D02*
X-20511090Y-103300340D01*
X251112482Y-75202020D02*
X251165328Y-75210936D01*
X-18735447Y-102781332D02*
X-19047428Y-102832112D01*
X252052181Y-75703296D02*
X252087742Y-75743493D01*
X251322156Y-75248382D02*
X251373707Y-75264431D01*
X250899479Y-75184189D02*
X250952880Y-75185972D01*
X250633051Y-75202020D02*
X250686106Y-75194888D01*
X250170475Y-75346456D02*
X250219992Y-75323275D01*
X249657791Y-75743493D02*
X249693352Y-75703296D01*
X249559701Y-75870593D02*
X249590942Y-75827181D01*
X249288927Y-77001296D02*
X249282410Y-76947213D01*
X249426257Y-77463834D02*
X249404281Y-77415073D01*
X249449834Y-76053756D02*
X249474990Y-76006618D01*
X250846054Y-75184189D02*
X250899479Y-75184189D01*
X250792653Y-75185972D02*
X250846054Y-75184189D01*
X250739322Y-75189538D02*
X250792653Y-75185972D01*
X250686106Y-75194888D02*
X250739322Y-75189538D01*
X249849306Y-75554429D02*
X249891607Y-75520393D01*
X250580205Y-75210936D02*
X250633051Y-75202020D01*
X250423377Y-75248382D02*
X250475322Y-75234117D01*
X250121582Y-75371420D02*
X250170475Y-75346456D01*
X249348199Y-77264441D02*
X249332863Y-77212914D01*
X249891607Y-75520393D02*
X249935185Y-75487708D01*
X249501702Y-75960351D02*
X249529947Y-75914996D01*
X249332863Y-76352646D02*
X249348199Y-76301119D01*
X249365229Y-76250224D02*
X249383931Y-76200000D01*
X249319245Y-76404763D02*
X249332863Y-76352646D01*
X249288927Y-76564264D02*
X249297253Y-76510613D01*
X249277727Y-76892740D02*
X249274900Y-76837915D01*
X249282410Y-76947213D02*
X249277727Y-76892740D01*
X249273952Y-76782780D02*
X249274900Y-76727644D01*
X249426257Y-76101726D02*
X249449834Y-76053756D01*
X249297253Y-77054947D02*
X249288927Y-77001296D01*
X250219992Y-75323275D02*
X250270087Y-75301877D01*
X249274900Y-76727644D02*
X249277727Y-76672820D01*
X249935185Y-75487708D02*
X249980019Y-75456415D01*
X249307367Y-77108127D02*
X249297253Y-77054947D01*
X249404281Y-76150487D02*
X249426257Y-76101726D01*
X250527613Y-75221635D02*
X250580205Y-75210936D01*
X249529947Y-75914996D02*
X249559701Y-75870593D01*
X249404281Y-77415073D02*
X249383931Y-77365560D01*
X249348199Y-76301119D02*
X249365229Y-76250224D01*
X250475322Y-75234117D02*
X250527613Y-75221635D01*
X249297253Y-76510613D02*
X249307367Y-76457433D01*
X249332863Y-77212914D02*
X249319245Y-77160796D01*
X249277727Y-76672820D02*
X249282410Y-76618347D01*
X249282410Y-76618347D02*
X249288927Y-76564264D01*
X250371826Y-75264431D02*
X250423377Y-75248382D01*
X250320714Y-75282262D02*
X250371826Y-75264431D01*
X249365229Y-77315336D02*
X249348199Y-77264441D01*
X250270087Y-75301877D02*
X250320714Y-75282262D01*
X249590942Y-75827181D02*
X249623646Y-75784801D01*
X249383931Y-76200000D02*
X249404281Y-76150487D01*
X249474990Y-76006618D02*
X249501702Y-75960351D01*
X250026085Y-75426555D02*
X250073359Y-75398167D01*
X249307367Y-76457433D02*
X249319245Y-76404763D01*
X249693352Y-75703296D02*
X249730308Y-75664251D01*
X249274900Y-76837915D02*
X249273952Y-76782780D01*
X249449834Y-77511803D02*
X249426257Y-77463834D01*
X249808308Y-75589778D02*
X249849306Y-75554429D01*
X249319245Y-77160796D02*
X249307367Y-77108127D01*
X249383931Y-77365560D02*
X249365229Y-77315336D01*
X249980019Y-75456415D02*
X250026085Y-75426555D01*
X249768634Y-75626399D02*
X249808308Y-75589778D01*
X249730308Y-75664251D02*
X249768634Y-75626399D01*
X249623646Y-75784801D02*
X249657791Y-75743493D01*
X251006211Y-75189538D02*
X251059427Y-75194888D01*
X250952880Y-75185972D02*
X251006211Y-75189538D01*
X250073359Y-75398167D02*
X250121582Y-75371420D01*
X249590942Y-77738378D02*
X249559701Y-77694967D01*
X252087742Y-77822067D02*
X252052181Y-77862263D01*
X251059427Y-78370671D02*
X251006211Y-78376021D01*
X249693352Y-77862263D02*
X249657791Y-77822067D01*
X249768634Y-77939161D02*
X249730308Y-77901308D01*
X250633051Y-78363539D02*
X250580205Y-78354623D01*
X251623951Y-78194140D02*
X251575058Y-78219104D01*
X250170475Y-78219104D02*
X250121582Y-78194140D01*
X251217920Y-78343924D02*
X251165328Y-78354623D01*
X249891607Y-78045167D02*
X249849306Y-78011130D01*
X249935185Y-78077852D02*
X249891607Y-78045167D01*
X249980019Y-78109144D02*
X249935185Y-78077852D01*
X250073359Y-78167393D02*
X250026085Y-78139005D01*
X251165328Y-78354623D02*
X251112482Y-78363539D01*
X250219992Y-78242285D02*
X250170475Y-78219104D01*
X250475322Y-78331442D02*
X250423377Y-78317177D01*
X251270211Y-78331442D02*
X251217920Y-78343924D01*
X250270087Y-78263683D02*
X250219992Y-78242285D01*
X250792653Y-78379587D02*
X250739322Y-78376021D01*
X251112482Y-78363539D02*
X251059427Y-78370671D01*
X252015225Y-77901308D02*
X251976899Y-77939161D01*
X251475446Y-78263683D02*
X251424819Y-78283297D01*
X251896226Y-78011130D02*
X251853926Y-78045167D01*
X251322156Y-78317177D02*
X251270211Y-78331442D01*
X252052181Y-77862263D02*
X252015225Y-77901308D01*
X251424819Y-78283297D02*
X251373707Y-78301129D01*
X251525541Y-78242285D02*
X251475446Y-78263683D01*
X249623646Y-77780759D02*
X249590942Y-77738378D01*
X250121582Y-78194140D02*
X250073359Y-78167393D01*
X250527613Y-78343924D02*
X250475322Y-78331442D01*
X251006211Y-78376021D02*
X250952880Y-78379587D01*
X250580205Y-78354623D02*
X250527613Y-78343924D01*
X251853926Y-78045167D02*
X251810348Y-78077852D01*
X252243830Y-77605208D02*
X252215585Y-77650563D01*
X250686106Y-78370671D02*
X250633051Y-78363539D01*
X251672173Y-78167393D02*
X251623951Y-78194140D01*
X249849306Y-78011130D02*
X249808308Y-77975781D01*
X250371826Y-78301129D02*
X250320714Y-78283297D01*
X251976899Y-77939161D02*
X251937225Y-77975781D01*
X252185831Y-77694967D02*
X252154590Y-77738378D01*
X252270542Y-77558942D02*
X252243830Y-77605208D01*
X250320714Y-78283297D02*
X250270087Y-78263683D01*
X251373707Y-78301129D02*
X251322156Y-78317177D01*
X250846054Y-78381370D02*
X250792653Y-78379587D01*
X252154590Y-77738378D02*
X252121886Y-77780759D01*
X250739322Y-78376021D02*
X250686106Y-78370671D01*
X251937225Y-77975781D02*
X251896226Y-78011130D01*
X249474990Y-77558942D02*
X249449834Y-77511803D01*
X249529947Y-77650563D02*
X249501702Y-77605208D01*
X249808308Y-77975781D02*
X249768634Y-77939161D01*
X250899479Y-78381370D02*
X250846054Y-78381370D01*
X251575058Y-78219104D02*
X251525541Y-78242285D01*
X251719448Y-78139005D02*
X251672173Y-78167393D01*
X250952880Y-78379587D02*
X250899479Y-78381370D01*
X249501702Y-77605208D02*
X249474990Y-77558942D01*
X249559701Y-77694967D02*
X249529947Y-77650563D01*
X250423377Y-78317177D02*
X250371826Y-78301129D01*
X249730308Y-77901308D02*
X249693352Y-77862263D01*
X251765514Y-78109144D02*
X251719448Y-78139005D01*
X252121886Y-77780759D02*
X252087742Y-77822067D01*
X250026085Y-78139005D02*
X249980019Y-78109144D01*
X251810348Y-78077852D02*
X251765514Y-78109144D01*
X252215585Y-77650563D02*
X252185831Y-77694967D01*
X249657791Y-77822067D02*
X249623646Y-77780759D01*
X252456605Y-77001296D02*
X252448279Y-77054947D01*
X252463122Y-76947213D02*
X252456605Y-77001296D01*
X184725067Y-107078904D02*
X184807559Y-107089727D01*
X185474839Y-107360071D02*
X185538606Y-107407299D01*
X184641310Y-107072329D02*
X184725067Y-107078904D01*
X183990127Y-107173291D02*
X184066455Y-107146580D01*
X185269763Y-107237689D02*
X185340307Y-107275156D01*
X183772489Y-107275156D02*
X183843034Y-107237689D01*
X186155211Y-74694353D02*
X186155211Y-74694353D01*
X183915617Y-107203698D02*
X183990127Y-107173291D01*
X186135597Y-108417765D02*
X186146420Y-108500258D01*
X185714583Y-107566736D02*
X185767765Y-107625432D01*
X185197180Y-107203698D02*
X185269763Y-107237689D01*
X184471487Y-107072329D02*
X184556398Y-107070113D01*
X186021627Y-108028144D02*
X186052033Y-108102655D01*
X183398213Y-107566736D02*
X183454208Y-107510742D01*
X186101649Y-108257018D02*
X186120637Y-108336649D01*
X185987635Y-107955562D02*
X186021627Y-108028144D01*
X184968307Y-107123676D02*
X185046341Y-107146580D01*
X185865253Y-107750485D02*
X185909338Y-107816621D01*
X183704093Y-107315987D02*
X183772489Y-107275156D01*
X184305238Y-107089727D02*
X184387730Y-107078904D01*
X184144490Y-107123676D02*
X184224121Y-107104688D01*
X183637957Y-107360071D02*
X183704093Y-107315987D01*
X185408703Y-107315987D02*
X185474839Y-107360071D01*
X185909338Y-107816621D02*
X185950169Y-107885017D01*
X186052033Y-108102655D02*
X186078744Y-108178983D01*
X186120637Y-108336649D02*
X186135597Y-108417765D01*
X185950169Y-107885017D02*
X185987635Y-107955562D01*
X185767765Y-107625432D02*
X185818026Y-107686718D01*
X185122669Y-107173291D02*
X185197180Y-107203698D01*
X184888676Y-107104688D02*
X184968307Y-107123676D01*
X183345031Y-107625432D02*
X183398213Y-107566736D01*
X185538606Y-107407299D02*
X185599893Y-107457559D01*
X185599893Y-107457559D02*
X185658588Y-107510742D01*
X183843034Y-107237689D02*
X183915617Y-107203698D01*
X186152995Y-108584015D02*
X186155211Y-108668926D01*
X183512904Y-107457559D02*
X183574190Y-107407299D01*
X184807559Y-107089727D02*
X184888676Y-107104688D01*
X252295698Y-77511803D02*
X252270542Y-77558942D01*
X252319276Y-77463834D02*
X252295698Y-77511803D01*
X252341251Y-77415073D02*
X252319276Y-77463834D01*
X252438165Y-77108127D02*
X252426288Y-77160796D01*
X252361601Y-77365560D02*
X252341251Y-77415073D01*
X185340307Y-107275156D02*
X185408703Y-107315987D01*
X183574190Y-107407299D02*
X183637957Y-107360071D01*
X252380303Y-77315336D02*
X252361601Y-77365560D01*
X252397333Y-77264441D02*
X252380303Y-77315336D01*
X184224121Y-107104688D02*
X184305238Y-107089727D01*
X185818026Y-107686718D02*
X185865253Y-107750485D01*
X184556398Y-107070113D02*
X184641310Y-107072329D01*
X252412669Y-77212914D02*
X252397333Y-77264441D01*
X252467805Y-76892740D02*
X252463122Y-76947213D01*
X186078744Y-108178983D02*
X186101649Y-108257018D01*
X186146420Y-108500258D02*
X186152995Y-108584015D01*
X185046341Y-107146580D02*
X185122669Y-107173291D01*
X183454208Y-107510742D02*
X183512904Y-107457559D01*
X252470632Y-76837915D02*
X252467805Y-76892740D01*
X185658588Y-107510742D02*
X185714583Y-107566736D01*
X252426288Y-77160796D02*
X252412669Y-77212914D01*
X252448279Y-77054947D02*
X252438165Y-77108127D01*
X184387730Y-107078904D02*
X184471487Y-107072329D01*
X252471579Y-76782780D02*
X252470632Y-76837915D01*
X184066455Y-107146580D02*
X184144490Y-107123676D01*
X183294770Y-109651134D02*
X183247543Y-109587367D01*
X183574190Y-109930553D02*
X183512904Y-109880293D01*
X185538606Y-109930553D02*
X185474839Y-109977781D01*
X183915617Y-110134154D02*
X183843034Y-110100162D01*
X185599893Y-109880293D02*
X185538606Y-109930553D01*
X184807559Y-110248125D02*
X184725067Y-110258948D01*
X185046341Y-110191272D02*
X184968307Y-110214176D01*
X183203458Y-107816621D02*
X183247543Y-107750485D01*
X182959801Y-108584015D02*
X182966376Y-108500258D01*
X185818026Y-109651134D02*
X185767765Y-109712420D01*
X183125161Y-107955562D02*
X183162627Y-107885017D01*
X183247543Y-109587367D02*
X183203458Y-109521230D01*
X185122669Y-110164561D02*
X185046341Y-110191272D01*
X182966376Y-108500258D02*
X182977199Y-108417765D01*
X183011147Y-108257018D02*
X183034052Y-108178983D01*
X182957584Y-108668926D02*
X182959801Y-108584015D01*
X184305238Y-110248125D02*
X184224121Y-110233164D01*
X182977199Y-108417765D02*
X182992159Y-108336649D01*
X185340307Y-110062696D02*
X185269763Y-110100162D01*
X182959801Y-108753837D02*
X182957584Y-108668926D01*
X182992159Y-109001203D02*
X182977199Y-108920086D01*
X183034052Y-109158869D02*
X183011147Y-109080834D01*
X183772489Y-110062696D02*
X183704093Y-110021865D01*
X183843034Y-110100162D02*
X183772489Y-110062696D01*
X184888676Y-110233164D02*
X184807559Y-110248125D01*
X183060763Y-109235197D02*
X183034052Y-109158869D01*
X183398213Y-109771116D02*
X183345031Y-109712420D01*
X183990127Y-110164561D02*
X183915617Y-110134154D01*
X183454208Y-109827110D02*
X183398213Y-109771116D01*
X183512904Y-109880293D02*
X183454208Y-109827110D01*
X185197180Y-110134154D02*
X185122669Y-110164561D01*
X184066455Y-110191272D02*
X183990127Y-110164561D01*
X185408703Y-110021865D02*
X185340307Y-110062696D01*
X184725067Y-110258948D02*
X184641310Y-110265523D01*
X184641310Y-110265523D02*
X184556398Y-110267739D01*
X184556398Y-110267739D02*
X184471487Y-110265523D01*
X183637957Y-109977781D02*
X183574190Y-109930553D01*
X185865253Y-109587367D02*
X185818026Y-109651134D01*
X185474839Y-109977781D02*
X185408703Y-110021865D01*
X184224121Y-110233164D02*
X184144490Y-110214176D01*
X183091169Y-108028144D02*
X183125161Y-107955562D01*
X183091169Y-109309707D02*
X183060763Y-109235197D01*
X184387730Y-110258948D02*
X184305238Y-110248125D01*
X185767765Y-109712420D02*
X185714583Y-109771116D01*
X184968307Y-110214176D02*
X184888676Y-110233164D01*
X183162627Y-107885017D02*
X183203458Y-107816621D01*
X183294770Y-107686718D02*
X183345031Y-107625432D01*
X183060763Y-108102655D02*
X183091169Y-108028144D01*
X183034052Y-108178983D02*
X183060763Y-108102655D01*
X182977199Y-108920086D02*
X182966376Y-108837594D01*
X185658588Y-109827110D02*
X185599893Y-109880293D01*
X183125161Y-109382290D02*
X183091169Y-109309707D01*
X183704093Y-110021865D02*
X183637957Y-109977781D01*
X182966376Y-108837594D02*
X182959801Y-108753837D01*
X184144490Y-110214176D02*
X184066455Y-110191272D01*
X185269763Y-110100162D02*
X185197180Y-110134154D01*
X184471487Y-110265523D02*
X184387730Y-110258948D01*
X183247543Y-107750485D02*
X183294770Y-107686718D01*
X182992159Y-108336649D02*
X183011147Y-108257018D01*
X183011147Y-109080834D02*
X182992159Y-109001203D01*
X183345031Y-109712420D02*
X183294770Y-109651134D01*
X185714583Y-109771116D02*
X185658588Y-109827110D01*
X183162627Y-109452835D02*
X183125161Y-109382290D01*
X183203458Y-109521230D02*
X183162627Y-109452835D01*
X186155211Y-108668926D02*
X186152995Y-108753837D01*
X186120637Y-74362075D02*
X186135597Y-74443192D01*
X184305238Y-73115153D02*
X184387730Y-73104330D01*
X186052033Y-74128082D02*
X186078744Y-74204409D01*
X183203458Y-73842048D02*
X183247543Y-73775911D01*
X185909338Y-73842048D02*
X185950169Y-73910443D01*
X183512904Y-73482985D02*
X183574190Y-73432725D01*
X184725067Y-73104330D02*
X184807559Y-73115153D01*
X184066455Y-73172006D02*
X184144490Y-73149102D01*
X129197839Y-108668926D02*
X129197839Y-108668926D01*
X185987635Y-73980988D02*
X186021627Y-74053571D01*
X183398213Y-73592162D02*
X183454208Y-73536168D01*
X184144490Y-73149102D02*
X184224121Y-73130114D01*
X183345031Y-73650858D02*
X183398213Y-73592162D01*
X185865253Y-73775911D02*
X185909338Y-73842048D01*
X185714583Y-73592162D02*
X185767765Y-73650858D01*
X183990127Y-73198717D02*
X184066455Y-73172006D01*
X185599893Y-73482985D02*
X185658588Y-73536168D01*
X185538606Y-73432725D02*
X185599893Y-73482985D01*
X185340307Y-73300582D02*
X185408703Y-73341413D01*
X185046341Y-73172006D02*
X185122669Y-73198717D01*
X183294770Y-73712144D02*
X183345031Y-73650858D01*
X183704093Y-73341413D02*
X183772489Y-73300582D01*
X184224121Y-73130114D02*
X184305238Y-73115153D01*
X183915617Y-73229124D02*
X183990127Y-73198717D01*
X183772489Y-73300582D02*
X183843034Y-73263115D01*
X183637957Y-73385497D02*
X183704093Y-73341413D01*
X184807559Y-73115153D02*
X184888676Y-73130114D01*
X185122669Y-73198717D02*
X185197180Y-73229124D01*
X184888676Y-73130114D02*
X184968307Y-73149102D01*
X184387730Y-73104330D02*
X184471487Y-73097755D01*
X185909338Y-109521230D02*
X185865253Y-109587367D01*
X185818026Y-73712144D02*
X185865253Y-73775911D01*
X186052033Y-109235197D02*
X186021627Y-109309707D01*
X186021627Y-74053571D02*
X186052033Y-74128082D01*
X183454208Y-73536168D02*
X183512904Y-73482985D01*
X185658588Y-73536168D02*
X185714583Y-73592162D01*
X185950169Y-109452835D02*
X185909338Y-109521230D01*
X186152995Y-108753837D02*
X186146420Y-108837594D01*
X185408703Y-73341413D02*
X185474839Y-73385497D01*
X185197180Y-73229124D02*
X185269763Y-73263115D01*
X185269763Y-73263115D02*
X185340307Y-73300582D01*
X183843034Y-73263115D02*
X183915617Y-73229124D01*
X183247543Y-73775911D02*
X183294770Y-73712144D01*
X186078744Y-109158869D02*
X186052033Y-109235197D01*
X186135597Y-74443192D02*
X186146420Y-74525684D01*
X186078744Y-74204409D02*
X186101649Y-74282444D01*
X185767765Y-73650858D02*
X185818026Y-73712144D01*
X185950169Y-73910443D02*
X185987635Y-73980988D01*
X185474839Y-73385497D02*
X185538606Y-73432725D01*
X184968307Y-73149102D02*
X185046341Y-73172006D01*
X184556398Y-73095539D02*
X184641310Y-73097755D01*
X183574190Y-73432725D02*
X183637957Y-73385497D01*
X184471487Y-73097755D02*
X184556398Y-73095539D01*
X185987635Y-109382290D02*
X185950169Y-109452835D01*
X186021627Y-109309707D02*
X185987635Y-109382290D01*
X186101649Y-109080834D02*
X186078744Y-109158869D01*
X184641310Y-73097755D02*
X184725067Y-73104330D01*
X186152995Y-74609441D02*
X186155211Y-74694353D01*
X186146420Y-74525684D02*
X186152995Y-74609441D01*
X186101649Y-74282444D02*
X186120637Y-74362075D01*
X186120637Y-109001203D02*
X186101649Y-109080834D01*
X186135597Y-108920086D02*
X186120637Y-109001203D01*
X186146420Y-108837594D02*
X186135597Y-108920086D01*
X183125161Y-73980988D02*
X183162627Y-73910443D01*
X182977199Y-74945513D02*
X182966376Y-74863021D01*
X184641310Y-76290950D02*
X184556398Y-76293166D01*
X185714583Y-75796543D02*
X185658588Y-75852537D01*
X185340307Y-76088123D02*
X185269763Y-76125589D01*
X185950169Y-75478262D02*
X185909338Y-75546657D01*
X185865253Y-75612794D02*
X185818026Y-75676561D01*
X182977199Y-74443192D02*
X182992159Y-74362075D01*
X182992159Y-75026630D02*
X182977199Y-74945513D01*
X183203458Y-75546657D02*
X183162627Y-75478262D01*
X183091169Y-74053571D02*
X183125161Y-73980988D01*
X183034052Y-74204409D02*
X183060763Y-74128082D01*
X183011147Y-74282444D02*
X183034052Y-74204409D01*
X182992159Y-74362075D02*
X183011147Y-74282444D01*
X183125161Y-75407717D02*
X183091169Y-75335134D01*
X183162627Y-75478262D02*
X183125161Y-75407717D01*
X185046341Y-76216699D02*
X184968307Y-76239603D01*
X183398213Y-75796543D02*
X183345031Y-75737847D01*
X185474839Y-76003208D02*
X185408703Y-76047292D01*
X183091169Y-75335134D02*
X183060763Y-75260624D01*
X184471487Y-76290950D02*
X184387730Y-76284375D01*
X182959801Y-74779264D02*
X182957584Y-74694353D01*
X184224121Y-76258591D02*
X184144490Y-76239603D01*
X183843034Y-76125589D02*
X183772489Y-76088123D01*
X184556398Y-76293166D02*
X184471487Y-76290950D01*
X182966376Y-74525684D02*
X182977199Y-74443192D01*
X184725067Y-76284375D02*
X184641310Y-76290950D01*
X185767765Y-75737847D02*
X185714583Y-75796543D01*
X182959801Y-74609441D02*
X182966376Y-74525684D01*
X182957584Y-74694353D02*
X182959801Y-74609441D01*
X183772489Y-76088123D02*
X183704093Y-76047292D01*
X184807559Y-76273552D02*
X184725067Y-76284375D01*
X184144490Y-76239603D02*
X184066455Y-76216699D01*
X183011147Y-75106261D02*
X182992159Y-75026630D01*
X183034052Y-75184296D02*
X183011147Y-75106261D01*
X185269763Y-76125589D02*
X185197180Y-76159581D01*
X182966376Y-74863021D02*
X182959801Y-74779264D01*
X183247543Y-75612794D02*
X183203458Y-75546657D01*
X183294770Y-75676561D02*
X183247543Y-75612794D01*
X184968307Y-76239603D02*
X184888676Y-76258591D01*
X184387730Y-76284375D02*
X184305238Y-76273552D01*
X183454208Y-75852537D02*
X183398213Y-75796543D01*
X183637957Y-76003208D02*
X183574190Y-75955980D01*
X185658588Y-75852537D02*
X185599893Y-75905720D01*
X185122669Y-76189988D02*
X185046341Y-76216699D01*
X183345031Y-75737847D02*
X183294770Y-75676561D01*
X184305238Y-76273552D02*
X184224121Y-76258591D01*
X183574190Y-75955980D02*
X183512904Y-75905720D01*
X185599893Y-75905720D02*
X185538606Y-75955980D01*
X183060763Y-74128082D02*
X183091169Y-74053571D01*
X183060763Y-75260624D02*
X183034052Y-75184296D01*
X183915617Y-76159581D02*
X183843034Y-76125589D01*
X185408703Y-76047292D02*
X185340307Y-76088123D01*
X185987635Y-75407717D02*
X185950169Y-75478262D01*
X184888676Y-76258591D02*
X184807559Y-76273552D01*
X185538606Y-75955980D02*
X185474839Y-76003208D01*
X185197180Y-76159581D02*
X185122669Y-76189988D01*
X185909338Y-75546657D02*
X185865253Y-75612794D01*
X183990127Y-76189988D02*
X183915617Y-76159581D01*
X183162627Y-73910443D02*
X183203458Y-73842048D01*
X183512904Y-75905720D02*
X183454208Y-75852537D01*
X183704093Y-76047292D02*
X183637957Y-76003208D01*
X184066455Y-76216699D02*
X183990127Y-76189988D01*
X185818026Y-75676561D02*
X185767765Y-75737847D01*
X186101649Y-75106261D02*
X186078744Y-75184296D01*
X186135597Y-74945513D02*
X186120637Y-75026630D01*
X186152995Y-74779264D02*
X186146420Y-74863021D01*
X129164425Y-108343579D02*
X129174539Y-108396759D01*
X129087861Y-108086146D02*
X129106563Y-108136370D01*
X128778440Y-107589442D02*
X128814001Y-107629639D01*
X129123593Y-108187265D02*
X129138929Y-108238792D01*
X128663484Y-107475924D02*
X128703158Y-107512545D01*
X128741484Y-107550397D02*
X128778440Y-107589442D01*
X128251800Y-107209421D02*
X128301317Y-107232602D01*
X129194065Y-108558966D02*
X129196892Y-108613790D01*
X128996802Y-107892764D02*
X129021958Y-107939902D01*
X128970090Y-107846497D02*
X128996802Y-107892764D01*
X128912091Y-107756739D02*
X128941845Y-107801142D01*
X128398432Y-107284313D02*
X128445707Y-107312701D01*
X128350210Y-107257566D02*
X128398432Y-107284313D01*
X128301317Y-107232602D02*
X128350210Y-107257566D01*
X128048415Y-107134528D02*
X128099966Y-107150577D01*
X128848146Y-107670947D02*
X128880850Y-107713327D01*
X128622486Y-107440575D02*
X128663484Y-107475924D01*
X127253872Y-107107781D02*
X127306464Y-107097082D01*
X128580185Y-107406539D02*
X128622486Y-107440575D01*
X127412365Y-107081034D02*
X127465581Y-107075684D01*
X127679139Y-107072118D02*
X127732470Y-107075684D01*
X127201581Y-107120263D02*
X127253872Y-107107781D01*
X186052033Y-75260624D02*
X186021627Y-75335134D01*
X129021958Y-107939902D02*
X129045535Y-107987872D01*
X129152547Y-108290909D02*
X129164425Y-108343579D01*
X186021627Y-75335134D02*
X185987635Y-75407717D01*
X186146420Y-74863021D02*
X186135597Y-74945513D01*
X186155211Y-74694353D02*
X186152995Y-74779264D01*
X127732470Y-107075684D02*
X127785686Y-107081034D01*
X127465581Y-107075684D02*
X127518912Y-107072118D01*
X48664121Y-68498989D02*
X48664121Y-68498989D01*
X129182865Y-108450410D02*
X129189382Y-108504493D01*
X128703158Y-107512545D02*
X128741484Y-107550397D01*
X129174539Y-108396759D02*
X129182865Y-108450410D01*
X128491773Y-107342561D02*
X128536607Y-107373854D01*
X129045535Y-107987872D02*
X129067511Y-108036633D01*
X128880850Y-107713327D02*
X128912091Y-107756739D01*
X127306464Y-107097082D02*
X127359310Y-107088166D01*
X128536607Y-107373854D02*
X128580185Y-107406539D01*
X127838741Y-107088166D02*
X127891587Y-107097082D01*
X127996470Y-107120263D02*
X128048415Y-107134528D01*
X128201705Y-107188023D02*
X128251800Y-107209421D01*
X128099966Y-107150577D02*
X128151078Y-107168408D01*
X127359310Y-107088166D02*
X127412365Y-107081034D01*
X128151078Y-107168408D02*
X128201705Y-107188023D01*
X127891587Y-107097082D02*
X127944179Y-107107781D01*
X186078744Y-75184296D02*
X186052033Y-75260624D01*
X186120637Y-75026630D02*
X186101649Y-75106261D01*
X129196892Y-108613790D02*
X129197839Y-108668926D01*
X127625738Y-107070335D02*
X127679139Y-107072118D01*
X129067511Y-108036633D02*
X129087861Y-108086146D01*
X129189382Y-108504493D02*
X129194065Y-108558966D01*
X129138929Y-108238792D02*
X129152547Y-108290909D01*
X128445707Y-107312701D02*
X128491773Y-107342561D01*
X129106563Y-108136370D02*
X129123593Y-108187265D01*
X127572313Y-107070335D02*
X127625738Y-107070335D01*
X128941845Y-107801142D02*
X128970090Y-107846497D01*
X127944179Y-107107781D02*
X127996470Y-107120263D01*
X127785686Y-107081034D02*
X127838741Y-107088166D01*
X127518912Y-107072118D02*
X127572313Y-107070335D01*
X128814001Y-107629639D02*
X128848146Y-107670947D01*
X127046973Y-107168408D02*
X127098085Y-107150577D01*
X126534567Y-109861927D02*
X126494893Y-109825307D01*
X126996346Y-107188023D02*
X127046973Y-107168408D01*
X126896734Y-107232602D02*
X126946251Y-107209421D01*
X126847841Y-107257566D02*
X126896734Y-107232602D01*
X126799618Y-107284313D02*
X126847841Y-107257566D01*
X126110191Y-108086146D02*
X126130541Y-108036633D01*
X126706278Y-107342561D02*
X126752344Y-107312701D01*
X126384050Y-107629639D02*
X126419611Y-107589442D01*
X126015187Y-108887442D02*
X126008670Y-108833359D01*
X126575566Y-107440575D02*
X126617866Y-107406539D01*
X126534567Y-107475924D02*
X126575566Y-107440575D01*
X126227962Y-107846497D02*
X126256207Y-107801142D01*
X126033627Y-108343579D02*
X126045504Y-108290909D01*
X126008670Y-108504493D02*
X126015187Y-108450410D01*
X126003987Y-108778886D02*
X126001160Y-108724061D01*
X126008670Y-108833359D02*
X126003987Y-108778886D01*
X126059123Y-109099060D02*
X126045504Y-109046942D01*
X126003987Y-108558966D02*
X126008670Y-108504493D01*
X126001160Y-108724061D02*
X126000212Y-108668926D01*
X126456567Y-109787454D02*
X126419611Y-109748409D01*
X126285961Y-107756739D02*
X126317202Y-107713327D01*
X126349906Y-109666905D02*
X126317202Y-109624524D01*
X126201250Y-109445088D02*
X126176093Y-109397949D01*
X126494893Y-109825307D02*
X126456567Y-109787454D01*
X126000212Y-108668926D02*
X126001160Y-108613790D01*
X126015187Y-108450410D02*
X126023513Y-108396759D01*
X126419611Y-107589442D02*
X126456567Y-107550397D01*
X126152516Y-107987872D02*
X126176093Y-107939902D01*
X126456567Y-107550397D02*
X126494893Y-107512545D01*
X126045504Y-108290909D02*
X126059123Y-108238792D01*
X126176093Y-109397949D02*
X126152516Y-109349980D01*
X126317202Y-109624524D02*
X126285961Y-109581113D01*
X126752344Y-107312701D02*
X126799618Y-107284313D01*
X126059123Y-108238792D02*
X126074459Y-108187265D01*
X126001160Y-108613790D02*
X126003987Y-108558966D01*
X126661444Y-107373854D02*
X126706278Y-107342561D01*
X126176093Y-107939902D02*
X126201250Y-107892764D01*
X126091489Y-108136370D02*
X126110191Y-108086146D01*
X126617866Y-107406539D02*
X126661444Y-107373854D01*
X126419611Y-109748409D02*
X126384050Y-109708213D01*
X126130541Y-108036633D02*
X126152516Y-107987872D01*
X126130541Y-109301219D02*
X126110191Y-109251706D01*
X126074459Y-109150587D02*
X126059123Y-109099060D01*
X126023513Y-108941093D02*
X126015187Y-108887442D01*
X126045504Y-109046942D02*
X126033627Y-108994273D01*
X126384050Y-109708213D02*
X126349906Y-109666905D01*
X126033627Y-108994273D02*
X126023513Y-108941093D01*
X126110191Y-109251706D02*
X126091489Y-109201482D01*
X127149636Y-107134528D02*
X127201581Y-107120263D01*
X126494893Y-107512545D02*
X126534567Y-107475924D01*
X126317202Y-107713327D02*
X126349906Y-107670947D01*
X126227962Y-109491354D02*
X126201250Y-109445088D01*
X126023513Y-108396759D02*
X126033627Y-108343579D01*
X127098085Y-107150577D02*
X127149636Y-107134528D01*
X126946251Y-107209421D02*
X126996346Y-107188023D01*
X126074459Y-108187265D02*
X126091489Y-108136370D01*
X126349906Y-107670947D02*
X126384050Y-107629639D01*
X126256207Y-109536709D02*
X126227962Y-109491354D01*
X126256207Y-107801142D02*
X126285961Y-107756739D01*
X126091489Y-109201482D02*
X126074459Y-109150587D01*
X126152516Y-109349980D02*
X126130541Y-109301219D01*
X126285961Y-109581113D02*
X126256207Y-109536709D01*
X126201250Y-107892764D02*
X126227962Y-107846497D01*
X129123593Y-109150587D02*
X129106563Y-109201482D01*
X129164425Y-108994273D02*
X129152547Y-109046942D01*
X129174539Y-108941093D02*
X129164425Y-108994273D01*
X129045535Y-109349980D02*
X129021958Y-109397949D01*
X128848146Y-109666905D02*
X128814001Y-109708213D01*
X128741484Y-109787454D02*
X128703158Y-109825307D01*
X128880850Y-109624524D02*
X128848146Y-109666905D01*
X128970090Y-109491354D02*
X128941845Y-109536709D01*
X129138929Y-109099060D02*
X129123593Y-109150587D01*
X128941845Y-109536709D02*
X128912091Y-109581113D01*
X128814001Y-109708213D02*
X128778440Y-109748409D01*
X128663484Y-109861927D02*
X128622486Y-109897276D01*
X129182865Y-108887442D02*
X129174539Y-108941093D01*
X128703158Y-109825307D02*
X128663484Y-109861927D01*
X129021958Y-109397949D02*
X128996802Y-109445088D01*
X129106563Y-109201482D02*
X129087861Y-109251706D01*
X129087861Y-109251706D02*
X129067511Y-109301219D01*
X128912091Y-109581113D02*
X128880850Y-109624524D01*
X128580185Y-109931313D02*
X128536607Y-109963998D01*
X126661444Y-109963998D02*
X126617866Y-109931313D01*
X126575566Y-109897276D02*
X126534567Y-109861927D01*
X126617866Y-109931313D02*
X126575566Y-109897276D01*
X129152547Y-109046942D02*
X129138929Y-109099060D01*
X128996802Y-109445088D02*
X128970090Y-109491354D01*
X128778440Y-109748409D02*
X128741484Y-109787454D01*
X128622486Y-109897276D02*
X128580185Y-109931313D01*
X129067511Y-109301219D02*
X129045535Y-109349980D01*
X-16348971Y-115023065D02*
X-16056351Y-114941259D01*
X-14193519Y-114005674D02*
X-13958586Y-113824544D01*
X-16119011Y-102977781D02*
X-16418722Y-102897733D01*
X-12609074Y-105627974D02*
X-12773769Y-105381241D01*
X-13760919Y-104279050D02*
X-13988723Y-104087806D01*
X-11967811Y-106970318D02*
X-12070644Y-106688739D01*
X-12186525Y-106413301D02*
X-12315114Y-106144418D01*
X21633568Y-138933608D02*
X21594469Y-139258101D01*
X21661667Y-138606769D02*
X21633568Y-138933608D01*
X21678629Y-138277824D02*
X21661667Y-138606769D01*
X-18735447Y-103745610D02*
X-18735447Y-102781332D01*
X132695221Y-74494502D02*
X157176899Y-74494502D01*
X-16724736Y-102832112D02*
X-17036718Y-102781332D01*
X-11661143Y-108455825D02*
X-11693686Y-108149756D01*
X-16418722Y-102897733D02*
X-16724736Y-102832112D01*
X-14726816Y-103579918D02*
X-14989951Y-103433952D01*
X-13334673Y-104691976D02*
X-13542790Y-104480578D01*
X-11684677Y-109709021D02*
X-11655280Y-109394304D01*
X-11693686Y-108149756D02*
X-11740962Y-107847757D01*
X-11641603Y-109078513D02*
X-11643670Y-108765549D01*
X-13112433Y-112995924D02*
X-12926241Y-112764567D01*
X-13309154Y-113217966D02*
X-13112433Y-112995924D01*
X-13958586Y-113824544D02*
X-13732621Y-113632640D01*
X-15825942Y-103071841D02*
X-16119011Y-102977781D01*
X-12294569Y-111753264D02*
X-12166877Y-111480793D01*
X-12456076Y-105882504D02*
X-12609074Y-105627974D01*
X-11740962Y-107847757D02*
X-11802632Y-107550242D01*
X-13516013Y-113430326D02*
X-13309154Y-113217966D01*
X21684313Y-137947014D02*
X21678629Y-138277824D01*
X-15539850Y-103179499D02*
X-15825942Y-103071841D01*
X-12166877Y-111480793D02*
X-12052056Y-111201193D01*
X-16056351Y-114941259D02*
X-15769575Y-114845762D01*
X-12926241Y-112764567D02*
X-12750968Y-112524257D01*
X-15489034Y-114736938D02*
X-15215119Y-114615151D01*
X-14989951Y-103433952D02*
X-15261074Y-103300340D01*
X-13988723Y-104087806D02*
X-14225866Y-103907260D01*
X-14472009Y-103737826D02*
X-14726816Y-103579918D01*
X-12773769Y-105381241D02*
X-12949826Y-105142722D01*
X-13732621Y-113632640D02*
X-13516013Y-113430326D01*
X-14948220Y-114480767D02*
X-14688726Y-114334150D01*
X-15769575Y-114845762D02*
X-15489034Y-114736938D01*
X-11802632Y-107550242D02*
X-11878361Y-107257624D01*
X-11950496Y-110914829D02*
X-11862588Y-110622065D01*
X-11729288Y-110018796D02*
X-11684677Y-109709021D01*
X-14688726Y-114334150D02*
X-14437029Y-114175664D01*
X-18735447Y-103745610D02*
X-17036718Y-103745610D01*
X-12949826Y-105142722D02*
X-13136906Y-104912828D01*
X-11655280Y-109394304D02*
X-11641603Y-109078513D01*
X-11862588Y-110622065D02*
X-11788722Y-110323266D01*
X-15261074Y-103300340D02*
X-15539850Y-103179499D01*
X-14225866Y-103907260D02*
X-14472009Y-103737826D01*
X-13542790Y-104480578D02*
X-13760919Y-104279050D01*
X-12434742Y-112018241D02*
X-12294569Y-111753264D01*
X-11878361Y-107257624D02*
X-11967811Y-106970318D01*
X-13136906Y-104912828D02*
X-13334673Y-104691976D01*
X-12070644Y-106688739D02*
X-12186525Y-106413301D01*
X-11643670Y-108765549D02*
X-11661143Y-108455825D01*
X-11788722Y-110323266D02*
X-11729288Y-110018796D01*
X-12587005Y-112275361D02*
X-12434742Y-112018241D01*
X-14437029Y-114175664D02*
X-14193519Y-114005674D01*
X-12052056Y-111201193D02*
X-11950496Y-110914829D01*
X-12750968Y-112524257D02*
X-12587005Y-112275361D01*
X-15215119Y-114615151D02*
X-14948220Y-114480767D01*
X-12315114Y-106144418D02*
X-12456076Y-105882504D01*
X46172561Y-67172625D02*
X46218627Y-67142764D01*
X45596823Y-67866696D02*
X45618798Y-67817935D01*
X45694244Y-69321418D02*
X45667532Y-69275151D01*
X46127727Y-67203917D02*
X46172561Y-67172625D01*
X45816188Y-67501010D02*
X45850332Y-67459702D01*
X45467442Y-68443853D02*
X45470269Y-68389029D01*
X46084148Y-67236602D02*
X46127727Y-67203917D01*
X45540741Y-68017328D02*
X45557771Y-67966433D01*
X46000849Y-67305987D02*
X46041848Y-67270639D01*
X45511786Y-68877005D02*
X45499909Y-68824336D01*
X45557771Y-67966433D02*
X45576473Y-67916209D01*
X45499909Y-68824336D02*
X45489795Y-68771156D01*
X45922849Y-67380461D02*
X45961175Y-67342608D01*
X45525405Y-68068855D02*
X45540741Y-68017328D01*
X45470269Y-68608949D02*
X45467442Y-68554124D01*
X45722489Y-67631205D02*
X45752243Y-67586802D01*
X45576473Y-67916209D02*
X45596823Y-67866696D01*
X45481469Y-68280473D02*
X45489795Y-68226822D01*
X45474952Y-68663422D02*
X45470269Y-68608949D01*
X45511786Y-68120973D02*
X45525405Y-68068855D01*
X45489795Y-68226822D02*
X45499909Y-68173642D01*
X45474952Y-68334556D02*
X45481469Y-68280473D01*
X45885894Y-67419506D02*
X45922849Y-67380461D01*
X45850332Y-67459702D02*
X45885894Y-67419506D01*
X45618798Y-67817935D02*
X45642376Y-67769965D01*
X45783484Y-67543390D02*
X45816188Y-67501010D01*
X45466494Y-68498989D02*
X45467442Y-68443853D01*
X45525405Y-68929123D02*
X45511786Y-68877005D01*
X45596823Y-69131282D02*
X45576473Y-69081769D01*
X45481469Y-68717505D02*
X45474952Y-68663422D01*
X45618798Y-69180043D02*
X45596823Y-69131282D01*
X46363017Y-67062665D02*
X46412534Y-67039484D01*
X45499909Y-68173642D02*
X45511786Y-68120973D01*
X45642376Y-69228013D02*
X45618798Y-69180043D01*
X45694244Y-67676560D02*
X45722489Y-67631205D01*
X46041848Y-67270639D02*
X46084148Y-67236602D01*
X45752243Y-67586802D02*
X45783484Y-67543390D01*
X46314124Y-67087629D02*
X46363017Y-67062665D01*
X46265901Y-67114376D02*
X46314124Y-67087629D01*
X45961175Y-67342608D02*
X46000849Y-67305987D01*
X45667532Y-67722827D02*
X45694244Y-67676560D01*
X45470269Y-68389029D02*
X45474952Y-68334556D01*
X45642376Y-67769965D02*
X45667532Y-67722827D01*
X45722489Y-69366773D02*
X45694244Y-69321418D01*
X45467442Y-68554124D02*
X45466494Y-68498989D01*
X45667532Y-69275151D02*
X45642376Y-69228013D01*
X45489795Y-68771156D02*
X45481469Y-68717505D01*
X45557771Y-69031545D02*
X45540741Y-68980650D01*
X45540741Y-68980650D02*
X45525405Y-68929123D01*
X45576473Y-69081769D02*
X45557771Y-69031545D01*
X46218627Y-67142764D02*
X46265901Y-67114376D01*
X45850332Y-69538276D02*
X45816188Y-69496968D01*
X47767599Y-69935313D02*
X47718082Y-69958494D01*
X45885894Y-69578473D02*
X45850332Y-69538276D01*
X45961175Y-69655370D02*
X45922849Y-69617517D01*
X48046468Y-69761376D02*
X48002889Y-69794061D01*
X46000849Y-69691991D02*
X45961175Y-69655370D01*
X47911989Y-69855214D02*
X47864714Y-69883602D01*
X48207767Y-69617517D02*
X48169441Y-69655370D01*
X46041848Y-69727339D02*
X46000849Y-69691991D01*
X46667863Y-70047652D02*
X46615919Y-70033386D01*
X46084148Y-69761376D02*
X46041848Y-69727339D01*
X46127727Y-69794061D02*
X46084148Y-69761376D01*
X46265901Y-69883602D02*
X46218627Y-69855214D01*
X46513255Y-69999507D02*
X46462629Y-69979892D01*
X46564367Y-70017338D02*
X46513255Y-69999507D01*
X46615919Y-70033386D02*
X46564367Y-70017338D01*
X46878647Y-70086881D02*
X46825593Y-70079748D01*
X47251968Y-70086881D02*
X47198752Y-70092230D01*
X47514697Y-70033386D02*
X47462752Y-70047652D01*
X48408127Y-69366773D02*
X48378373Y-69411176D01*
X47667987Y-69979892D02*
X47617360Y-69999507D01*
X48129767Y-69691991D02*
X48088768Y-69727339D01*
X47718082Y-69958494D02*
X47667987Y-69979892D01*
X48347132Y-69454588D02*
X48314428Y-69496968D01*
X48511818Y-69180043D02*
X48488240Y-69228013D01*
X48436372Y-69321418D02*
X48408127Y-69366773D01*
X46218627Y-69855214D02*
X46172561Y-69825353D01*
X48244722Y-69578473D02*
X48207767Y-69617517D01*
X46363017Y-69935313D02*
X46314124Y-69910349D01*
X46412534Y-69958494D02*
X46363017Y-69935313D01*
X47198752Y-70092230D02*
X47145421Y-70095797D01*
X47462752Y-70047652D02*
X47410461Y-70060134D01*
X48280284Y-69538276D02*
X48244722Y-69578473D01*
X46720155Y-70060134D02*
X46667863Y-70047652D01*
X46772746Y-70070832D02*
X46720155Y-70060134D01*
X48088768Y-69727339D02*
X48046468Y-69761376D01*
X48378373Y-69411176D02*
X48347132Y-69454588D01*
X46825593Y-70079748D02*
X46772746Y-70070832D01*
X46931863Y-70092230D02*
X46878647Y-70086881D01*
X47617360Y-69999507D02*
X47566248Y-70017338D01*
X48488240Y-69228013D02*
X48463084Y-69275151D01*
X48533793Y-69131282D02*
X48511818Y-69180043D01*
X47092020Y-70097580D02*
X47038596Y-70097580D01*
X47038596Y-70097580D02*
X46985195Y-70095797D01*
X47864714Y-69883602D02*
X47816492Y-69910349D01*
X47566248Y-70017338D02*
X47514697Y-70033386D01*
X48002889Y-69794061D02*
X47958055Y-69825353D01*
X48314428Y-69496968D02*
X48280284Y-69538276D01*
X48169441Y-69655370D02*
X48129767Y-69691991D01*
X46172561Y-69825353D02*
X46127727Y-69794061D01*
X48463084Y-69275151D02*
X48436372Y-69321418D01*
X45752243Y-69411176D02*
X45722489Y-69366773D01*
X47305023Y-70079748D02*
X47251968Y-70086881D01*
X46462629Y-69979892D02*
X46412534Y-69958494D01*
X46314124Y-69910349D02*
X46265901Y-69883602D01*
X45783484Y-69454588D02*
X45752243Y-69411176D01*
X45816188Y-69496968D02*
X45783484Y-69454588D01*
X46985195Y-70095797D02*
X46931863Y-70092230D01*
X47357869Y-70070832D02*
X47305023Y-70079748D01*
X47816492Y-69910349D02*
X47767599Y-69935313D01*
X47958055Y-69825353D02*
X47911989Y-69855214D01*
X47145421Y-70095797D02*
X47092020Y-70097580D01*
X47410461Y-70060134D02*
X47357869Y-70070832D01*
X45922849Y-69617517D02*
X45885894Y-69578473D01*
X48640821Y-68771156D02*
X48630707Y-68824336D01*
X236523525Y-134949257D02*
X236523525Y-134949257D01*
X48660347Y-68608949D02*
X48655664Y-68663422D01*
X257882837Y-67419506D02*
X257918398Y-67459702D01*
X258293779Y-68334556D02*
X258298462Y-68389029D01*
X48664121Y-68498989D02*
X48663174Y-68554124D01*
X258301289Y-68443853D02*
X258302236Y-68498989D01*
X258287262Y-68280473D02*
X258293779Y-68334556D01*
X258268822Y-68173642D02*
X258278936Y-68226822D01*
X258016488Y-67586802D02*
X258046242Y-67631205D01*
X258243326Y-68068855D02*
X258256944Y-68120973D01*
X258192258Y-67916209D02*
X258210960Y-67966433D01*
X258171908Y-67866696D02*
X258192258Y-67916209D01*
X257596170Y-67172625D02*
X257641004Y-67203917D01*
X257405714Y-67062665D02*
X257454607Y-67087629D01*
X258101199Y-67722827D02*
X258126355Y-67769965D01*
X257726883Y-67270639D02*
X257767881Y-67305987D01*
X257845881Y-67380461D02*
X257882837Y-67419506D01*
X257767881Y-67305987D02*
X257807555Y-67342608D01*
X257356197Y-67039484D02*
X257405714Y-67062665D01*
X258126355Y-67769965D02*
X258149932Y-67817935D01*
X258210960Y-67966433D02*
X258227990Y-68017328D01*
X258256944Y-68120973D02*
X258268822Y-68173642D01*
X258149932Y-67817935D02*
X258171908Y-67866696D01*
X258046242Y-67631205D02*
X258074487Y-67676560D01*
X257918398Y-67459702D02*
X257952543Y-67501010D01*
X257684582Y-67236602D02*
X257726883Y-67270639D01*
X257550104Y-67142764D02*
X257596170Y-67172625D01*
X257952543Y-67501010D02*
X257985247Y-67543390D01*
X257502829Y-67114376D02*
X257550104Y-67142764D01*
X48554143Y-69081769D02*
X48533793Y-69131282D01*
X48572845Y-69031545D02*
X48554143Y-69081769D01*
X48589875Y-68980650D02*
X48572845Y-69031545D01*
X257807555Y-67342608D02*
X257845881Y-67380461D01*
X48605211Y-68929123D02*
X48589875Y-68980650D01*
X48618830Y-68877005D02*
X48605211Y-68929123D01*
X258298462Y-68389029D02*
X258301289Y-68443853D01*
X48649147Y-68717505D02*
X48640821Y-68771156D01*
X48655664Y-68663422D02*
X48649147Y-68717505D01*
X48663174Y-68554124D02*
X48660347Y-68608949D01*
X258074487Y-67676560D02*
X258101199Y-67722827D01*
X258278936Y-68226822D02*
X258287262Y-68280473D01*
X258227990Y-68017328D02*
X258243326Y-68068855D01*
X257985247Y-67543390D02*
X258016488Y-67586802D01*
X257641004Y-67203917D02*
X257684582Y-67236602D01*
X257454607Y-67087629D02*
X257502829Y-67114376D01*
X48630707Y-68824336D02*
X48618830Y-68877005D01*
X255305647Y-67722827D02*
X255332359Y-67676560D01*
X255560964Y-67380461D02*
X255599290Y-67342608D01*
X255119584Y-68280473D02*
X255127910Y-68226822D01*
X255124224Y-68750149D02*
X255113401Y-68667657D01*
X255234938Y-67866696D02*
X255256913Y-67817935D01*
X255309652Y-69282898D02*
X255272186Y-69212353D01*
X255659928Y-69710356D02*
X255601233Y-69657173D01*
X255108384Y-68389029D02*
X255113067Y-68334556D01*
X255158172Y-68910897D02*
X255139184Y-68831266D01*
X255679963Y-67270639D02*
X255722263Y-67236602D01*
X255256913Y-67817935D02*
X255280490Y-67769965D01*
X255214588Y-67916209D02*
X255234938Y-67866696D01*
X255545238Y-69601179D02*
X255492056Y-69542483D01*
X255601233Y-69657173D02*
X255545238Y-69601179D01*
X255919514Y-69892759D02*
X255851118Y-69851928D01*
X255454303Y-67501010D02*
X255488447Y-67459702D01*
X255492056Y-69542483D02*
X255441795Y-69481197D01*
X255280490Y-67769965D02*
X255305647Y-67722827D01*
X255149901Y-68120973D02*
X255163520Y-68068855D01*
X255195886Y-67966433D02*
X255214588Y-67916209D01*
X255163520Y-68068855D02*
X255178856Y-68017328D01*
X255138024Y-68173642D02*
X255149901Y-68120973D01*
X255106826Y-68583900D02*
X255104609Y-68498989D01*
X255638964Y-67305987D02*
X255679963Y-67270639D01*
X255599290Y-67342608D02*
X255638964Y-67305987D01*
X255332359Y-67676560D02*
X255360604Y-67631205D01*
X255524008Y-67419506D02*
X255560964Y-67380461D01*
X255113067Y-68334556D02*
X255119584Y-68280473D01*
X255350483Y-69351293D02*
X255309652Y-69282898D01*
X255394568Y-69417430D02*
X255350483Y-69351293D01*
X255139184Y-68831266D02*
X255124224Y-68750149D01*
X255765841Y-67203917D02*
X255810675Y-67172625D01*
X255421599Y-67543390D02*
X255454303Y-67501010D01*
X255104609Y-68498989D02*
X255105557Y-68443853D01*
X255207788Y-69065260D02*
X255181077Y-68988932D01*
X255178856Y-68017328D02*
X255195886Y-67966433D01*
X255990058Y-69930225D02*
X255919514Y-69892759D01*
X255488447Y-67459702D02*
X255524008Y-67419506D01*
X255721215Y-69760616D02*
X255659928Y-69710356D01*
X255851118Y-69851928D02*
X255784982Y-69807844D01*
X255784982Y-69807844D02*
X255721215Y-69760616D01*
X255390358Y-67586802D02*
X255421599Y-67543390D01*
X255238194Y-69139770D02*
X255207788Y-69065260D01*
X255360604Y-67631205D02*
X255390358Y-67586802D01*
X255127910Y-68226822D02*
X255138024Y-68173642D01*
X255113401Y-68667657D02*
X255106826Y-68583900D01*
X255441795Y-69481197D02*
X255394568Y-69417430D01*
X255722263Y-67236602D02*
X255765841Y-67203917D01*
X255105557Y-68443853D02*
X255108384Y-68389029D01*
X255181077Y-68988932D02*
X255158172Y-68910897D01*
X255272186Y-69212353D02*
X255238194Y-69139770D01*
X256954583Y-70078188D02*
X256872091Y-70089011D01*
X257115331Y-70044239D02*
X257035700Y-70063227D01*
X257861607Y-69601179D02*
X257805612Y-69657173D01*
X236393197Y-134316964D02*
X236413547Y-134366477D01*
X236237777Y-134037070D02*
X236267531Y-134081473D01*
X258282622Y-68750149D02*
X258267661Y-68831266D01*
X236500225Y-134677090D02*
X236508551Y-134730741D01*
X258012278Y-69417430D02*
X257965050Y-69481197D01*
X256062641Y-69964217D02*
X255990058Y-69930225D01*
X257914789Y-69542483D02*
X257861607Y-69601179D01*
X256452262Y-70078188D02*
X256371145Y-70063227D01*
X257416787Y-69930225D02*
X257344204Y-69964217D01*
X236519751Y-134839297D02*
X236522578Y-134894121D01*
X257487331Y-69892759D02*
X257416787Y-69930225D01*
X257621863Y-69807844D02*
X257555727Y-69851928D01*
X258225769Y-68988932D02*
X258199058Y-69065260D01*
X258056362Y-69351293D02*
X258012278Y-69417430D01*
X258302236Y-68498989D02*
X258300020Y-68583900D01*
X236478234Y-134571241D02*
X236490111Y-134623910D01*
X236413547Y-134366477D02*
X236432249Y-134416701D01*
X236322488Y-134173095D02*
X236347644Y-134220233D01*
X257746917Y-69710356D02*
X257685630Y-69760616D01*
X258097193Y-69282898D02*
X258056362Y-69351293D01*
X236508551Y-134730741D02*
X236515068Y-134784824D01*
X236347644Y-134220233D02*
X236371222Y-134268203D01*
X236067171Y-133830729D02*
X236104126Y-133869774D01*
X257344204Y-69964217D02*
X257269693Y-69994624D01*
X256788334Y-70095586D02*
X256703422Y-70097802D01*
X256371145Y-70063227D02*
X256291514Y-70044239D01*
X257965050Y-69481197D02*
X257914789Y-69542483D01*
X236522578Y-134894121D02*
X236523525Y-134949257D01*
X258248673Y-68910897D02*
X258225769Y-68988932D01*
X258267661Y-68831266D02*
X258248673Y-68910897D01*
X68649164Y-136947762D02*
X68649164Y-136947762D01*
X236432249Y-134416701D02*
X236449279Y-134467596D01*
X258293445Y-68667657D02*
X258282622Y-68750149D01*
X258168651Y-69139770D02*
X258134659Y-69212353D01*
X236267531Y-134081473D02*
X236295776Y-134126828D01*
X236371222Y-134268203D02*
X236393197Y-134316964D01*
X236490111Y-134623910D02*
X236500225Y-134677090D01*
X236104126Y-133869774D02*
X236139688Y-133909970D01*
X257269693Y-69994624D02*
X257193365Y-70021335D01*
X256213480Y-70021335D02*
X256137152Y-69994624D01*
X256137152Y-69994624D02*
X256062641Y-69964217D01*
X258134659Y-69212353D02*
X258097193Y-69282898D01*
X258300020Y-68583900D02*
X258293445Y-68667657D01*
X256291514Y-70044239D02*
X256213480Y-70021335D01*
X236464615Y-134519123D02*
X236478234Y-134571241D01*
X257685630Y-69760616D02*
X257621863Y-69807844D01*
X236449279Y-134467596D02*
X236464615Y-134519123D01*
X256534754Y-70089011D02*
X256452262Y-70078188D01*
X236206536Y-133993658D02*
X236237777Y-134037070D01*
X256618511Y-70095586D02*
X256534754Y-70089011D01*
X257193365Y-70021335D02*
X257115331Y-70044239D01*
X257035700Y-70063227D02*
X256954583Y-70078188D01*
X258199058Y-69065260D02*
X258168651Y-69139770D01*
X236295776Y-134126828D02*
X236322488Y-134173095D01*
X236173832Y-133951278D02*
X236206536Y-133993658D01*
X256703422Y-70097802D02*
X256618511Y-70095586D01*
X236139688Y-133909970D02*
X236173832Y-133951278D01*
X256872091Y-70089011D02*
X256788334Y-70095586D01*
X257555727Y-69851928D02*
X257487331Y-69892759D01*
X257805612Y-69657173D02*
X257746917Y-69710356D01*
X236515068Y-134784824D02*
X236519751Y-134839297D01*
X233611647Y-134037070D02*
X233642888Y-133993658D01*
X233901252Y-133720907D02*
X233943552Y-133686870D01*
X234222421Y-133512933D02*
X234271938Y-133489752D01*
X233371190Y-134571241D02*
X233384809Y-134519123D01*
X233478202Y-134268203D02*
X233501780Y-134220233D01*
X234791267Y-133356016D02*
X234844599Y-133352450D01*
X235771393Y-133593032D02*
X235817459Y-133622893D01*
X236028845Y-133792876D02*
X236067171Y-133830729D01*
X235989171Y-133756255D02*
X236028845Y-133792876D01*
X235577486Y-133489752D02*
X235627003Y-133512933D01*
X235627003Y-133512933D02*
X235675896Y-133537897D01*
X235527391Y-133468354D02*
X235577486Y-133489752D01*
X233359313Y-134623910D02*
X233371190Y-134571241D01*
X235004825Y-133352450D02*
X235058157Y-133356016D01*
X235374101Y-133414860D02*
X235425652Y-133430908D01*
X235322156Y-133400595D02*
X235374101Y-133414860D01*
X235217273Y-133377414D02*
X235269865Y-133388113D01*
X235164427Y-133368498D02*
X235217273Y-133377414D01*
X234423772Y-133430908D02*
X234475323Y-133414860D01*
X234579559Y-133388113D02*
X234632151Y-133377414D01*
X233987131Y-133654185D02*
X234031965Y-133622893D01*
X234738051Y-133361366D02*
X234791267Y-133356016D01*
X233581893Y-134081473D02*
X233611647Y-134037070D01*
X234632151Y-133377414D02*
X234684997Y-133368498D01*
X233943552Y-133686870D02*
X233987131Y-133654185D01*
X235058157Y-133356016D02*
X235111373Y-133361366D01*
X234898000Y-133350667D02*
X234951424Y-133350667D01*
X233501780Y-134220233D02*
X233526936Y-134173095D01*
X234844599Y-133352450D02*
X234898000Y-133350667D01*
X234527268Y-133400595D02*
X234579559Y-133388113D01*
X233435877Y-134366477D02*
X233456227Y-134316964D01*
X233642888Y-133993658D02*
X233675592Y-133951278D01*
X234372659Y-133448740D02*
X234423772Y-133430908D01*
X233709736Y-133909970D02*
X233745298Y-133869774D01*
X233456227Y-134316964D02*
X233478202Y-134268203D01*
X235269865Y-133388113D02*
X235322156Y-133400595D01*
X235675896Y-133537897D02*
X235724118Y-133564644D01*
X234322033Y-133468354D02*
X234372659Y-133448740D01*
X234031965Y-133622893D02*
X234078031Y-133593032D01*
X233782253Y-133830729D02*
X233820579Y-133792876D01*
X233675592Y-133951278D02*
X233709736Y-133909970D01*
X235948172Y-133720907D02*
X235989171Y-133756255D01*
X234684997Y-133368498D02*
X234738051Y-133361366D01*
X233820579Y-133792876D02*
X233860253Y-133756255D01*
X233417175Y-134416701D02*
X233435877Y-134366477D01*
X235905872Y-133686870D02*
X235948172Y-133720907D01*
X234078031Y-133593032D02*
X234125305Y-133564644D01*
X235862293Y-133654185D02*
X235905872Y-133686870D01*
X235111373Y-133361366D02*
X235164427Y-133368498D01*
X234173528Y-133537897D02*
X234222421Y-133512933D01*
X233526936Y-134173095D02*
X233553648Y-134126828D01*
X233400145Y-134467596D02*
X233417175Y-134416701D01*
X235817459Y-133622893D02*
X235862293Y-133654185D01*
X235476765Y-133448740D02*
X235527391Y-133468354D01*
X233553648Y-134126828D02*
X233581893Y-134081473D01*
X234475323Y-133414860D02*
X234527268Y-133400595D01*
X235724118Y-133564644D02*
X235771393Y-133593032D01*
X235425652Y-133430908D02*
X235476765Y-133448740D01*
X234951424Y-133350667D02*
X235004825Y-133352450D01*
X233860253Y-133756255D02*
X233901252Y-133720907D01*
X234271938Y-133489752D02*
X234322033Y-133468354D01*
X234125305Y-133564644D02*
X234173528Y-133537897D01*
X233745298Y-133869774D02*
X233782253Y-133830729D01*
X233384809Y-134519123D02*
X233400145Y-134467596D01*
X235058157Y-136542498D02*
X235004825Y-136546065D01*
X234031965Y-136275621D02*
X233987131Y-136244329D01*
X234951424Y-136547848D02*
X234898000Y-136547848D01*
X235322156Y-136497920D02*
X235269865Y-136510402D01*
X234632151Y-136521100D02*
X234579559Y-136510402D01*
X233349199Y-134677090D02*
X233359313Y-134623910D01*
X233340873Y-134730741D02*
X233349199Y-134677090D01*
X233334356Y-134784824D02*
X233340873Y-134730741D01*
X233326846Y-135004392D02*
X233325898Y-134949257D01*
X233384809Y-135379391D02*
X233371190Y-135327273D01*
X233329673Y-134839297D02*
X233334356Y-134784824D01*
X233326846Y-134894121D02*
X233329673Y-134839297D01*
X235004825Y-136546065D02*
X234951424Y-136547848D01*
X233325898Y-134949257D02*
X233326846Y-134894121D01*
X233349199Y-135221424D02*
X233340873Y-135167773D01*
X233359313Y-135274604D02*
X233349199Y-135221424D01*
X233371190Y-135327273D02*
X233359313Y-135274604D01*
X233456227Y-135581550D02*
X233435877Y-135532037D01*
X233642888Y-135904856D02*
X233611647Y-135861444D01*
X233820579Y-136105638D02*
X233782253Y-136067785D01*
X233943552Y-136211644D02*
X233901252Y-136177607D01*
X233987131Y-136244329D02*
X233943552Y-136211644D01*
X234423772Y-136467606D02*
X234372659Y-136449775D01*
X235476765Y-136449775D02*
X235425652Y-136467606D01*
X235527391Y-136430160D02*
X235476765Y-136449775D01*
X233329673Y-135059217D02*
X233326846Y-135004392D01*
X234579559Y-136510402D02*
X234527268Y-136497920D01*
X235164427Y-136530016D02*
X235111373Y-136537149D01*
X233334356Y-135113690D02*
X233329673Y-135059217D01*
X233611647Y-135861444D02*
X233581893Y-135817041D01*
X234738051Y-136537149D02*
X234684997Y-136530016D01*
X234322033Y-136430160D02*
X234271938Y-136408762D01*
X233782253Y-136067785D02*
X233745298Y-136028741D01*
X234222421Y-136385581D02*
X234173528Y-136360617D01*
X234684997Y-136530016D02*
X234632151Y-136521100D01*
X233400145Y-135430918D02*
X233384809Y-135379391D01*
X233901252Y-136177607D02*
X233860253Y-136142259D01*
X235269865Y-136510402D02*
X235217273Y-136521100D01*
X235217273Y-136521100D02*
X235164427Y-136530016D01*
X235374101Y-136483654D02*
X235322156Y-136497920D01*
X234271938Y-136408762D02*
X234222421Y-136385581D01*
X233478202Y-135630311D02*
X233456227Y-135581550D01*
X233553648Y-135771686D02*
X233526936Y-135725419D01*
X234125305Y-136333870D02*
X234078031Y-136305482D01*
X234791267Y-136542498D02*
X234738051Y-136537149D01*
X233435877Y-135532037D02*
X233417175Y-135481813D01*
X233860253Y-136142259D02*
X233820579Y-136105638D01*
X233417175Y-135481813D02*
X233400145Y-135430918D01*
X233526936Y-135725419D02*
X233501780Y-135678281D01*
X233675592Y-135947236D02*
X233642888Y-135904856D01*
X234527268Y-136497920D02*
X234475323Y-136483654D01*
X234844599Y-136546065D02*
X234791267Y-136542498D01*
X235425652Y-136467606D02*
X235374101Y-136483654D01*
X233340873Y-135167773D02*
X233334356Y-135113690D01*
X234475323Y-136483654D02*
X234423772Y-136467606D01*
X233501780Y-135678281D02*
X233478202Y-135630311D01*
X233581893Y-135817041D02*
X233553648Y-135771686D01*
X233709736Y-135988544D02*
X233675592Y-135947236D01*
X233745298Y-136028741D02*
X233709736Y-135988544D01*
X234078031Y-136305482D02*
X234031965Y-136275621D01*
X235111373Y-136537149D02*
X235058157Y-136542498D01*
X234173528Y-136360617D02*
X234125305Y-136333870D01*
X234372659Y-136449775D02*
X234322033Y-136430160D01*
X234898000Y-136547848D02*
X234844599Y-136546065D01*
X236104126Y-136028741D02*
X236067171Y-136067785D01*
X236139688Y-135988544D02*
X236104126Y-136028741D01*
X236522578Y-135004392D02*
X236519751Y-135059217D01*
X236413547Y-135532037D02*
X236393197Y-135581550D01*
X236523525Y-134949257D02*
X236522578Y-135004392D01*
X337081267Y-108469075D02*
X337081267Y-108469075D01*
X68518836Y-136315469D02*
X68539186Y-136364982D01*
X236173832Y-135947236D02*
X236139688Y-135988544D01*
X68645390Y-136837802D02*
X68648217Y-136892626D01*
X236206536Y-135904856D02*
X236173832Y-135947236D01*
X236237777Y-135861444D02*
X236206536Y-135904856D01*
X236295776Y-135771686D02*
X236267531Y-135817041D01*
X236322488Y-135725419D02*
X236295776Y-135771686D01*
X68031511Y-135685375D02*
X68073811Y-135719411D01*
X68603873Y-136569745D02*
X68615750Y-136622415D01*
X68299471Y-135949783D02*
X68332175Y-135992163D01*
X68393170Y-136079978D02*
X68421415Y-136125333D01*
X236371222Y-135630311D02*
X236347644Y-135678281D01*
X236508551Y-135167773D02*
X236500225Y-135221424D01*
X236478234Y-135327273D02*
X236464615Y-135379391D01*
X68265327Y-135908475D02*
X68299471Y-135949783D01*
X68154484Y-135791381D02*
X68192810Y-135829233D01*
X236432249Y-135481813D02*
X236413547Y-135532037D01*
X236464615Y-135379391D02*
X236449279Y-135430918D01*
X68625864Y-136675595D02*
X68634190Y-136729246D01*
X68192810Y-135829233D02*
X68229765Y-135868278D01*
X68332175Y-135992163D02*
X68363416Y-136035575D01*
X68648217Y-136892626D02*
X68649164Y-136947762D01*
X68557888Y-136415206D02*
X68574918Y-136466101D01*
X236393197Y-135581550D02*
X236371222Y-135630311D01*
X236490111Y-135274604D02*
X236478234Y-135327273D01*
X236515068Y-135113690D02*
X236508551Y-135167773D01*
X68421415Y-136125333D02*
X68448127Y-136171600D01*
X68073811Y-135719411D02*
X68114810Y-135754760D01*
X68448127Y-136171600D02*
X68473283Y-136218738D01*
X68229765Y-135868278D02*
X68265327Y-135908475D01*
X236519751Y-135059217D02*
X236515068Y-135113690D01*
X68574918Y-136466101D02*
X68590254Y-136517628D01*
X68496861Y-136266708D02*
X68518836Y-136315469D01*
X235577486Y-136408762D02*
X235527391Y-136430160D01*
X235627003Y-136385581D02*
X235577486Y-136408762D01*
X235675896Y-136360617D02*
X235627003Y-136385581D01*
X235724118Y-136333870D02*
X235675896Y-136360617D01*
X236449279Y-135430918D02*
X236432249Y-135481813D01*
X235771393Y-136305482D02*
X235724118Y-136333870D01*
X235817459Y-136275621D02*
X235771393Y-136305482D01*
X68539186Y-136364982D02*
X68557888Y-136415206D01*
X235862293Y-136244329D02*
X235817459Y-136275621D01*
X235905872Y-136211644D02*
X235862293Y-136244329D01*
X236267531Y-135817041D02*
X236237777Y-135861444D01*
X68114810Y-135754760D02*
X68154484Y-135791381D01*
X236028845Y-136105638D02*
X235989171Y-136142259D01*
X68634190Y-136729246D02*
X68640707Y-136783329D01*
X68363416Y-136035575D02*
X68393170Y-136079978D01*
X236347644Y-135678281D02*
X236322488Y-135725419D01*
X236500225Y-135221424D02*
X236490111Y-135274604D01*
X68473283Y-136218738D02*
X68496861Y-136266708D01*
X68640707Y-136783329D02*
X68645390Y-136837802D01*
X67987932Y-135652690D02*
X68031511Y-135685375D01*
X68615750Y-136622415D02*
X68625864Y-136675595D01*
X235948172Y-136177607D02*
X235905872Y-136211644D01*
X235989171Y-136142259D02*
X235948172Y-136177607D01*
X236067171Y-136067785D02*
X236028845Y-136105638D01*
X68590254Y-136517628D02*
X68603873Y-136569745D01*
X67447795Y-135399099D02*
X67499740Y-135413364D01*
X67342912Y-135375918D02*
X67395504Y-135386617D01*
X66112770Y-135652690D02*
X66157604Y-135621397D01*
X67130464Y-135350954D02*
X67183795Y-135354520D01*
X66757789Y-135375918D02*
X66810636Y-135367002D01*
X66397577Y-135488257D02*
X66447672Y-135466859D01*
X65707532Y-136079978D02*
X65737286Y-136035575D01*
X65985892Y-135754760D02*
X66026891Y-135719411D01*
X65542814Y-136415206D02*
X65561516Y-136364982D01*
X65459995Y-136783329D02*
X65466512Y-136729246D01*
X67023639Y-135349171D02*
X67077063Y-135349171D01*
X65652575Y-136171600D02*
X65679287Y-136125333D01*
X66498298Y-135447244D02*
X66549410Y-135429413D01*
X66026891Y-135719411D02*
X66069191Y-135685375D01*
X66447672Y-135466859D02*
X66498298Y-135447244D01*
X65946218Y-135791381D02*
X65985892Y-135754760D01*
X65474838Y-136675595D02*
X65484952Y-136622415D01*
X65466512Y-136729246D02*
X65474838Y-136675595D01*
X66549410Y-135429413D02*
X66600962Y-135413364D01*
X65484952Y-136622415D02*
X65496829Y-136569745D01*
X67290066Y-135367002D02*
X67342912Y-135375918D01*
X67237011Y-135359870D02*
X67290066Y-135367002D01*
X65801231Y-135949783D02*
X65835375Y-135908475D01*
X66069191Y-135685375D02*
X66112770Y-135652690D01*
X65907892Y-135829233D02*
X65946218Y-135791381D01*
X65835375Y-135908475D02*
X65870937Y-135868278D01*
X65768527Y-135992163D02*
X65801231Y-135949783D01*
X67897032Y-135591537D02*
X67943098Y-135621397D01*
X67752642Y-135511438D02*
X67801535Y-135536402D01*
X67077063Y-135349171D02*
X67130464Y-135350954D01*
X66157604Y-135621397D02*
X66203670Y-135591537D01*
X66705198Y-135386617D02*
X66757789Y-135375918D01*
X66652906Y-135399099D02*
X66705198Y-135386617D01*
X65525784Y-136466101D02*
X65542814Y-136415206D01*
X65510448Y-136517628D02*
X65525784Y-136466101D01*
X65679287Y-136125333D02*
X65707532Y-136079978D01*
X67943098Y-135621397D02*
X67987932Y-135652690D01*
X67801535Y-135536402D02*
X67849757Y-135563149D01*
X67395504Y-135386617D02*
X67447795Y-135399099D01*
X67183795Y-135354520D02*
X67237011Y-135359870D01*
X66916906Y-135354520D02*
X66970238Y-135350954D01*
X65603841Y-136266708D02*
X65627419Y-136218738D01*
X65870937Y-135868278D02*
X65907892Y-135829233D01*
X66348060Y-135511438D02*
X66397577Y-135488257D01*
X66299167Y-135536402D02*
X66348060Y-135511438D01*
X66250944Y-135563149D02*
X66299167Y-135536402D01*
X65455312Y-136837802D02*
X65459995Y-136783329D01*
X65452485Y-136892626D02*
X65455312Y-136837802D01*
X66863690Y-135359870D02*
X66916906Y-135354520D01*
X65581866Y-136315469D02*
X65603841Y-136266708D01*
X66600962Y-135413364D02*
X66652906Y-135399099D01*
X66203670Y-135591537D02*
X66250944Y-135563149D01*
X65737286Y-136035575D02*
X65768527Y-135992163D01*
X65496829Y-136569745D02*
X65510448Y-136517628D01*
X67849757Y-135563149D02*
X67897032Y-135591537D01*
X66970238Y-135350954D02*
X67023639Y-135349171D01*
X65627419Y-136218738D02*
X65652575Y-136171600D01*
X66810636Y-135367002D02*
X66863690Y-135359870D01*
X65561516Y-136364982D02*
X65581866Y-136315469D01*
X67703125Y-135488257D02*
X67752642Y-135511438D01*
X67653030Y-135466859D02*
X67703125Y-135488257D01*
X67602403Y-135447244D02*
X67653030Y-135466859D01*
X67551291Y-135429413D02*
X67602403Y-135447244D01*
X67499740Y-135413364D02*
X67551291Y-135429413D01*
X65603841Y-137628816D02*
X65581866Y-137580055D01*
X65679287Y-137770190D02*
X65652575Y-137723924D01*
X66705198Y-138508906D02*
X66652906Y-138496424D01*
X66250944Y-138332375D02*
X66203670Y-138303987D01*
X66757789Y-138519605D02*
X66705198Y-138508906D01*
X65707532Y-137815545D02*
X65679287Y-137770190D01*
X65985892Y-138140763D02*
X65946218Y-138104143D01*
X65768527Y-137903360D02*
X65737286Y-137859949D01*
X66970238Y-138544569D02*
X66916906Y-138541003D01*
X67183795Y-138541003D02*
X67130464Y-138544569D01*
X65835375Y-137987049D02*
X65801231Y-137945741D01*
X67801535Y-138359122D02*
X67752642Y-138384086D01*
X67237011Y-138535653D02*
X67183795Y-138541003D01*
X67752642Y-138384086D02*
X67703125Y-138407267D01*
X67395504Y-138508906D02*
X67342912Y-138519605D01*
X66069191Y-138210149D02*
X66026891Y-138176112D01*
X66549410Y-138466111D02*
X66498298Y-138448279D01*
X67447795Y-138496424D02*
X67395504Y-138508906D01*
X67551291Y-138466111D02*
X67499740Y-138482159D01*
X65466512Y-137166278D02*
X65459995Y-137112195D01*
X66397577Y-138407267D02*
X66348060Y-138384086D01*
X65455312Y-137057722D02*
X65452485Y-137002897D01*
X65459995Y-137112195D02*
X65455312Y-137057722D01*
X67602403Y-138448279D02*
X67551291Y-138466111D01*
X66348060Y-138384086D02*
X66299167Y-138359122D01*
X65581866Y-137580055D02*
X65561516Y-137530542D01*
X65484952Y-137273109D02*
X65474838Y-137219929D01*
X65627419Y-137676785D02*
X65603841Y-137628816D01*
X65737286Y-137859949D02*
X65707532Y-137815545D01*
X65946218Y-138104143D02*
X65907892Y-138066290D01*
X67897032Y-138303987D02*
X67849757Y-138332375D01*
X66447672Y-138428665D02*
X66397577Y-138407267D01*
X66600962Y-138482159D02*
X66549410Y-138466111D01*
X67849757Y-138332375D02*
X67801535Y-138359122D01*
X66652906Y-138496424D02*
X66600962Y-138482159D01*
X67023639Y-138546352D02*
X66970238Y-138544569D01*
X67290066Y-138528521D02*
X67237011Y-138535653D01*
X67653030Y-138428665D02*
X67602403Y-138448279D01*
X67130464Y-138544569D02*
X67077063Y-138546352D01*
X65561516Y-137530542D02*
X65542814Y-137480318D01*
X65801231Y-137945741D02*
X65768527Y-137903360D01*
X66203670Y-138303987D02*
X66157604Y-138274126D01*
X66299167Y-138359122D02*
X66250944Y-138332375D01*
X66916906Y-138541003D02*
X66863690Y-138535653D01*
X65870937Y-138027245D02*
X65835375Y-137987049D01*
X67342912Y-138519605D02*
X67290066Y-138528521D01*
X65451537Y-136947762D02*
X65452485Y-136892626D01*
X65474838Y-137219929D02*
X65466512Y-137166278D01*
X66157604Y-138274126D02*
X66112770Y-138242834D01*
X65510448Y-137377896D02*
X65496829Y-137325778D01*
X66810636Y-138528521D02*
X66757789Y-138519605D01*
X67077063Y-138546352D02*
X67023639Y-138546352D01*
X65652575Y-137723924D02*
X65627419Y-137676785D01*
X66026891Y-138176112D02*
X65985892Y-138140763D01*
X66112770Y-138242834D02*
X66069191Y-138210149D01*
X66498298Y-138448279D02*
X66447672Y-138428665D01*
X65907892Y-138066290D02*
X65870937Y-138027245D01*
X65525784Y-137429423D02*
X65510448Y-137377896D01*
X65452485Y-137002897D02*
X65451537Y-136947762D01*
X65542814Y-137480318D02*
X65525784Y-137429423D01*
X67703125Y-138407267D02*
X67653030Y-138428665D01*
X66863690Y-138535653D02*
X66810636Y-138528521D01*
X67499740Y-138482159D02*
X67447795Y-138496424D01*
X65496829Y-137325778D02*
X65484952Y-137273109D01*
X336233638Y-107057715D02*
X336281860Y-107084462D01*
X68473283Y-137676785D02*
X68448127Y-137723924D01*
X336586586Y-107312694D02*
X336624912Y-107350547D01*
X68496861Y-137628816D02*
X68473283Y-137676785D01*
X337066293Y-108250559D02*
X337072810Y-108304642D01*
X336853518Y-107646646D02*
X336880230Y-107692913D01*
X68539186Y-137530542D02*
X68518836Y-137580055D01*
X337035975Y-108091059D02*
X337047853Y-108143728D01*
X336463613Y-107206688D02*
X336505914Y-107240725D01*
X337057967Y-108196908D02*
X337066293Y-108250559D01*
X68557888Y-137480318D02*
X68539186Y-137530542D01*
X68574918Y-137429423D02*
X68557888Y-137480318D01*
X68640707Y-137112195D02*
X68634190Y-137166278D01*
X336505914Y-107240725D02*
X336546912Y-107276073D01*
X68590254Y-137377896D02*
X68574918Y-137429423D01*
X336928963Y-107788021D02*
X336950939Y-107836782D01*
X336420035Y-107174003D02*
X336463613Y-107206688D01*
X68615750Y-137273109D02*
X68603873Y-137325778D01*
X336764278Y-107513476D02*
X336795519Y-107556888D01*
X337077493Y-108359115D02*
X337080320Y-108413939D01*
X337022357Y-108038941D02*
X337035975Y-108091059D01*
X337007021Y-107987414D02*
X337022357Y-108038941D01*
X336184745Y-107032751D02*
X336233638Y-107057715D01*
X336546912Y-107276073D02*
X336586586Y-107312694D01*
X68603873Y-137325778D02*
X68590254Y-137377896D01*
X336281860Y-107084462D02*
X336329135Y-107112850D01*
X336375201Y-107142711D02*
X336420035Y-107174003D01*
X68634190Y-137166278D02*
X68625864Y-137219929D01*
X68648217Y-137002897D02*
X68645390Y-137057722D01*
X68649164Y-136947762D02*
X68648217Y-137002897D01*
X336624912Y-107350547D02*
X336661868Y-107389592D01*
X-47286069Y-108469075D02*
X-47286069Y-108469075D01*
X336905386Y-107740051D02*
X336928963Y-107788021D01*
X337047853Y-108143728D02*
X337057967Y-108196908D01*
X336880230Y-107692913D02*
X336905386Y-107740051D01*
X336825273Y-107601291D02*
X336853518Y-107646646D01*
X68265327Y-137987049D02*
X68229765Y-138027245D01*
X336971289Y-107886295D02*
X336989991Y-107936519D01*
X68393170Y-137815545D02*
X68363416Y-137859949D01*
X67943098Y-138274126D02*
X67897032Y-138303987D01*
X67987932Y-138242834D02*
X67943098Y-138274126D01*
X68031511Y-138210149D02*
X67987932Y-138242834D01*
X336329135Y-107112850D02*
X336375201Y-107142711D01*
X336731574Y-107471096D02*
X336764278Y-107513476D01*
X336989991Y-107936519D02*
X337007021Y-107987414D01*
X336795519Y-107556888D02*
X336825273Y-107601291D01*
X68332175Y-137903360D02*
X68299471Y-137945741D01*
X68073811Y-138176112D02*
X68031511Y-138210149D01*
X337080320Y-108413939D02*
X337081267Y-108469075D01*
X68114810Y-138140763D02*
X68073811Y-138176112D01*
X68625864Y-137219929D02*
X68615750Y-137273109D01*
X336697429Y-107429788D02*
X336731574Y-107471096D01*
X68518836Y-137580055D02*
X68496861Y-137628816D01*
X336661868Y-107389592D02*
X336697429Y-107429788D01*
X68154484Y-138104143D02*
X68114810Y-138140763D01*
X68421415Y-137770190D02*
X68393170Y-137815545D01*
X336950939Y-107836782D02*
X336971289Y-107886295D01*
X68192810Y-138066290D02*
X68154484Y-138104143D01*
X68645390Y-137057722D02*
X68640707Y-137112195D01*
X68229765Y-138027245D02*
X68192810Y-138066290D01*
X68299471Y-137945741D02*
X68265327Y-137987049D01*
X68363416Y-137859949D02*
X68332175Y-137903360D01*
X68448127Y-137723924D02*
X68421415Y-137770190D01*
X337072810Y-108304642D02*
X337077493Y-108359115D01*
X46878647Y-66911098D02*
X46931863Y-66905748D01*
X48511818Y-67817935D02*
X48533793Y-67866696D01*
X46985195Y-66902182D02*
X47038596Y-66900399D01*
X46615919Y-66964592D02*
X46667863Y-66950327D01*
X47305023Y-66918230D02*
X47357869Y-66927146D01*
X258302236Y-68498989D02*
X258302236Y-68498989D01*
X48572845Y-67966433D02*
X48589875Y-68017328D01*
X48408127Y-67631205D02*
X48436372Y-67676560D01*
X129189382Y-108833359D02*
X129182865Y-108887442D01*
X129196892Y-108724061D02*
X129194065Y-108778886D01*
X48655664Y-68334556D02*
X48660347Y-68389029D01*
X48640821Y-68226822D02*
X48649147Y-68280473D01*
X46931863Y-66905748D02*
X46985195Y-66902182D01*
X48649147Y-68280473D02*
X48655664Y-68334556D01*
X48488240Y-67769965D02*
X48511818Y-67817935D01*
X48463084Y-67722827D02*
X48488240Y-67769965D01*
X48378373Y-67586802D02*
X48408127Y-67631205D01*
X48347132Y-67543390D02*
X48378373Y-67586802D01*
X48280284Y-67459702D02*
X48314428Y-67501010D01*
X48207767Y-67380461D02*
X48244722Y-67419506D01*
X48169441Y-67342608D02*
X48207767Y-67380461D01*
X48046468Y-67236602D02*
X48088768Y-67270639D01*
X47514697Y-66964592D02*
X47566248Y-66980640D01*
X46462629Y-67018086D02*
X46513255Y-66998472D01*
X46412534Y-67039484D02*
X46462629Y-67018086D01*
X47864714Y-67114376D02*
X47911989Y-67142764D01*
X47357869Y-66927146D02*
X47410461Y-66937845D01*
X46772746Y-66927146D02*
X46825593Y-66918230D01*
X48244722Y-67419506D02*
X48280284Y-67459702D01*
X47911989Y-67142764D02*
X47958055Y-67172625D01*
X47198752Y-66905748D02*
X47251968Y-66911098D01*
X47617360Y-66998472D02*
X47667987Y-67018086D01*
X48088768Y-67270639D02*
X48129767Y-67305987D01*
X47718082Y-67039484D02*
X47767599Y-67062665D01*
X47251968Y-66911098D02*
X47305023Y-66918230D01*
X47958055Y-67172625D02*
X48002889Y-67203917D01*
X47816492Y-67087629D02*
X47864714Y-67114376D01*
X46667863Y-66950327D02*
X46720155Y-66937845D01*
X46720155Y-66937845D02*
X46772746Y-66927146D01*
X46564367Y-66980640D02*
X46615919Y-66964592D01*
X47667987Y-67018086D02*
X47718082Y-67039484D01*
X48002889Y-67203917D02*
X48046468Y-67236602D01*
X129194065Y-108778886D02*
X129189382Y-108833359D01*
X129197839Y-108668926D02*
X129196892Y-108724061D01*
X47145421Y-66902182D02*
X47198752Y-66905748D01*
X48589875Y-68017328D02*
X48605211Y-68068855D01*
X48533793Y-67866696D02*
X48554143Y-67916209D01*
X48314428Y-67501010D02*
X48347132Y-67543390D01*
X48436372Y-67676560D02*
X48463084Y-67722827D01*
X48129767Y-67305987D02*
X48169441Y-67342608D01*
X47410461Y-66937845D02*
X47462752Y-66950327D01*
X47092020Y-66900399D02*
X47145421Y-66902182D01*
X46513255Y-66998472D02*
X46564367Y-66980640D01*
X48663174Y-68443853D02*
X48664121Y-68498989D01*
X47462752Y-66950327D02*
X47514697Y-66964592D01*
X48630707Y-68173642D02*
X48640821Y-68226822D01*
X48660347Y-68389029D02*
X48663174Y-68443853D01*
X48618830Y-68120973D02*
X48630707Y-68173642D01*
X48605211Y-68068855D02*
X48618830Y-68120973D01*
X48554143Y-67916209D02*
X48572845Y-67966433D01*
X46825593Y-66918230D02*
X46878647Y-66911098D01*
X47767599Y-67062665D02*
X47816492Y-67087629D01*
X47566248Y-66980640D02*
X47617360Y-66998472D01*
X47038596Y-66900399D02*
X47092020Y-66900399D01*
X319634504Y-109169461D02*
X319687720Y-109164111D01*
X320060880Y-109176593D02*
X320113726Y-109185509D01*
X319371776Y-109222955D02*
X319423720Y-109208690D01*
X320113726Y-109185509D02*
X320166318Y-109196208D01*
X319320224Y-109239004D02*
X319371776Y-109222955D01*
X319901278Y-109160545D02*
X319954609Y-109164111D01*
X321405004Y-110538837D02*
X321411521Y-110592920D01*
X321396678Y-110485186D02*
X321405004Y-110538837D01*
X320667846Y-109401128D02*
X320713912Y-109430988D01*
X319118874Y-109321029D02*
X319168391Y-109297848D01*
X321386564Y-110432006D02*
X321396678Y-110485186D01*
X321374687Y-110379336D02*
X321386564Y-110432006D01*
X321361068Y-110327219D02*
X321374687Y-110379336D01*
X321345732Y-110275692D02*
X321361068Y-110327219D01*
X320473939Y-109297848D02*
X320523456Y-109321029D01*
X321328702Y-110224797D02*
X321345732Y-110275692D01*
X321267675Y-110076299D02*
X321289650Y-110125060D01*
X321000579Y-109677869D02*
X321036141Y-109718066D01*
X319528603Y-109185509D02*
X319581450Y-109176593D01*
X321244097Y-110028329D02*
X321267675Y-110076299D01*
X320423844Y-109276450D02*
X320473939Y-109297848D01*
X320270554Y-109222955D02*
X320322105Y-109239004D01*
X321192229Y-109934924D02*
X321218941Y-109981191D01*
X321163984Y-109889569D02*
X321192229Y-109934924D01*
X319847877Y-109158762D02*
X319901278Y-109160545D01*
X320322105Y-109239004D02*
X320373217Y-109256835D01*
X321102989Y-109801754D02*
X321134230Y-109845166D01*
X320963624Y-109638824D02*
X321000579Y-109677869D01*
X319687720Y-109164111D02*
X319741052Y-109160545D01*
X320925298Y-109600972D02*
X320963624Y-109638824D01*
X320166318Y-109196208D02*
X320218609Y-109208690D01*
X320218609Y-109208690D02*
X320270554Y-109222955D01*
X319476012Y-109196208D02*
X319528603Y-109185509D01*
X319954609Y-109164111D02*
X320007825Y-109169461D01*
X320007825Y-109169461D02*
X320060880Y-109176593D01*
X320373217Y-109256835D02*
X320423844Y-109276450D01*
X320620571Y-109372740D02*
X320667846Y-109401128D01*
X319069981Y-109345993D02*
X319118874Y-109321029D01*
X319423720Y-109208690D02*
X319476012Y-109196208D01*
X319794453Y-109158762D02*
X319847877Y-109158762D01*
X321411521Y-110592920D02*
X321416204Y-110647393D01*
X320713912Y-109430988D02*
X320758746Y-109462281D01*
X319168391Y-109297848D02*
X319218486Y-109276450D01*
X320523456Y-109321029D02*
X320572349Y-109345993D01*
X321419978Y-110757353D02*
X321419978Y-110757353D01*
X321416204Y-110647393D02*
X321419031Y-110702217D01*
X320572349Y-109345993D02*
X320620571Y-109372740D01*
X320802325Y-109494966D02*
X320844625Y-109529002D01*
X319269112Y-109256835D02*
X319320224Y-109239004D01*
X321419031Y-110702217D02*
X321419978Y-110757353D01*
X321134230Y-109845166D02*
X321163984Y-109889569D01*
X321036141Y-109718066D02*
X321070285Y-109759374D01*
X319741052Y-109160545D02*
X319794453Y-109158762D01*
X319581450Y-109176593D02*
X319634504Y-109169461D01*
X321310000Y-110174573D02*
X321328702Y-110224797D01*
X321289650Y-110125060D02*
X321310000Y-110174573D01*
X321218941Y-109981191D02*
X321244097Y-110028329D01*
X321070285Y-109759374D02*
X321102989Y-109801754D01*
X320758746Y-109462281D02*
X320802325Y-109494966D01*
X319218486Y-109276450D02*
X319269112Y-109256835D01*
X320885624Y-109564351D02*
X320925298Y-109600972D01*
X320844625Y-109529002D02*
X320885624Y-109564351D01*
X318840005Y-112019740D02*
X318797705Y-111985703D01*
X318245652Y-110485186D02*
X318255766Y-110432006D01*
X318332330Y-111340133D02*
X318313628Y-111289909D01*
X318398233Y-111486376D02*
X318374655Y-111438407D01*
X318508100Y-111669540D02*
X318478346Y-111625136D01*
X319069981Y-112168713D02*
X319021758Y-112141966D01*
X318539341Y-111712951D02*
X318508100Y-111669540D01*
X319021758Y-109372740D02*
X319069981Y-109345993D01*
X318974484Y-109401128D02*
X319021758Y-109372740D01*
X318223299Y-110702217D02*
X318226126Y-110647393D01*
X318756706Y-111950354D02*
X318717032Y-111913734D01*
X318226126Y-110867313D02*
X318223299Y-110812488D01*
X318883584Y-109462281D02*
X318928418Y-109430988D01*
X318223299Y-110812488D02*
X318222351Y-110757353D01*
X318928418Y-109430988D02*
X318974484Y-109401128D01*
X318797705Y-111985703D02*
X318756706Y-111950354D01*
X318840005Y-109494966D02*
X318883584Y-109462281D01*
X318756706Y-109564351D02*
X318797705Y-109529002D01*
X318296598Y-110275692D02*
X318313628Y-110224797D01*
X318641751Y-111836836D02*
X318606189Y-111796640D01*
X318974484Y-112113578D02*
X318928418Y-112083717D01*
X318678706Y-109638824D02*
X318717032Y-109600972D01*
X318423389Y-109981191D02*
X318450101Y-109934924D01*
X318374655Y-111438407D02*
X318352680Y-111389646D01*
X318928418Y-112083717D02*
X318883584Y-112052425D01*
X318717032Y-109600972D02*
X318756706Y-109564351D01*
X318641751Y-109677869D02*
X318678706Y-109638824D01*
X318352680Y-110125060D02*
X318374655Y-110076299D01*
X318572045Y-111755332D02*
X318539341Y-111712951D01*
X318606189Y-109718066D02*
X318641751Y-109677869D01*
X318450101Y-111579781D02*
X318423389Y-111533515D01*
X318478346Y-109889569D02*
X318508100Y-109845166D01*
X318281262Y-110327219D02*
X318296598Y-110275692D01*
X318230809Y-110921786D02*
X318226126Y-110867313D01*
X318508100Y-109845166D02*
X318539341Y-109801754D01*
X318267643Y-111135369D02*
X318255766Y-111082700D01*
X318267643Y-110379336D02*
X318281262Y-110327219D01*
X318222351Y-110757353D02*
X318223299Y-110702217D01*
X318281262Y-111187487D02*
X318267643Y-111135369D01*
X318398233Y-110028329D02*
X318423389Y-109981191D01*
X318606189Y-111796640D02*
X318572045Y-111755332D01*
X318296598Y-111239014D02*
X318281262Y-111187487D01*
X318226126Y-110647393D02*
X318230809Y-110592920D01*
X318883584Y-112052425D02*
X318840005Y-112019740D01*
X318797705Y-109529002D02*
X318840005Y-109494966D01*
X318572045Y-109759374D02*
X318606189Y-109718066D01*
X318539341Y-109801754D02*
X318572045Y-109759374D01*
X318678706Y-111875881D02*
X318641751Y-111836836D01*
X318450101Y-109934924D02*
X318478346Y-109889569D01*
X318717032Y-111913734D02*
X318678706Y-111875881D01*
X318237326Y-110538837D02*
X318245652Y-110485186D01*
X318374655Y-110076299D02*
X318398233Y-110028329D01*
X318313628Y-110224797D02*
X318332330Y-110174573D01*
X318352680Y-111389646D02*
X318332330Y-111340133D01*
X318478346Y-111625136D02*
X318450101Y-111579781D01*
X318313628Y-111289909D02*
X318296598Y-111239014D01*
X319021758Y-112141966D02*
X318974484Y-112113578D01*
X318423389Y-111533515D02*
X318398233Y-111486376D01*
X318230809Y-110592920D02*
X318237326Y-110538837D01*
X318245652Y-111029520D02*
X318237326Y-110975869D01*
X318237326Y-110975869D02*
X318230809Y-110921786D01*
X318255766Y-111082700D02*
X318245652Y-111029520D01*
X318332330Y-110174573D02*
X318352680Y-110125060D01*
X318255766Y-110432006D02*
X318267643Y-110379336D01*
X319218486Y-112238256D02*
X319168391Y-112216858D01*
X319634504Y-112345244D02*
X319581450Y-112338112D01*
X321328702Y-111289909D02*
X321310000Y-111340133D01*
X321374687Y-111135369D02*
X321361068Y-111187487D01*
X320270554Y-112291750D02*
X320218609Y-112306015D01*
X321411521Y-110921786D02*
X321405004Y-110975869D01*
X321416204Y-110867313D02*
X321411521Y-110921786D01*
X319794453Y-112355943D02*
X319741052Y-112354160D01*
X319269112Y-112257870D02*
X319218486Y-112238256D01*
X319687720Y-112350594D02*
X319634504Y-112345244D01*
X319320224Y-112275702D02*
X319269112Y-112257870D01*
X321102989Y-111712951D02*
X321070285Y-111755332D01*
X320667846Y-112113578D02*
X320620571Y-112141966D01*
X321070285Y-111755332D02*
X321036141Y-111796640D01*
X320802325Y-112019740D02*
X320758746Y-112052425D01*
X320113726Y-112329196D02*
X320060880Y-112338112D01*
X319423720Y-112306015D02*
X319371776Y-112291750D01*
X320844625Y-111985703D02*
X320802325Y-112019740D01*
X320925298Y-111913734D02*
X320885624Y-111950354D01*
X319528603Y-112329196D02*
X319476012Y-112318497D01*
X319847877Y-112355943D02*
X319794453Y-112355943D01*
X319901278Y-112354160D02*
X319847877Y-112355943D01*
X320423844Y-112238256D02*
X320373217Y-112257870D01*
X320963624Y-111875881D02*
X320925298Y-111913734D01*
X321361068Y-111187487D02*
X321345732Y-111239014D01*
X319741052Y-112354160D02*
X319687720Y-112350594D01*
X320007825Y-112345244D02*
X319954609Y-112350594D01*
X321419978Y-76782780D02*
X321419978Y-76782780D01*
X321419031Y-110812488D02*
X321416204Y-110867313D01*
X320620571Y-112141966D02*
X320572349Y-112168713D01*
X321396678Y-111029520D02*
X321386564Y-111082700D01*
X320166318Y-112318497D02*
X320113726Y-112329196D01*
X320218609Y-112306015D02*
X320166318Y-112318497D01*
X321134230Y-111669540D02*
X321102989Y-111712951D01*
X320322105Y-112275702D02*
X320270554Y-112291750D01*
X321244097Y-111486376D02*
X321218941Y-111533515D01*
X320713912Y-112083717D02*
X320667846Y-112113578D01*
X321000579Y-111836836D02*
X320963624Y-111875881D01*
X321267675Y-111438407D02*
X321244097Y-111486376D01*
X319168391Y-112216858D02*
X319118874Y-112193677D01*
X321419978Y-110757353D02*
X321419031Y-110812488D01*
X321289650Y-111389646D02*
X321267675Y-111438407D01*
X319954609Y-112350594D02*
X319901278Y-112354160D01*
X320373217Y-112257870D02*
X320322105Y-112275702D01*
X320523456Y-112193677D02*
X320473939Y-112216858D01*
X320758746Y-112052425D02*
X320713912Y-112083717D01*
X319118874Y-112193677D02*
X319069981Y-112168713D01*
X319371776Y-112291750D02*
X319320224Y-112275702D01*
X319476012Y-112318497D02*
X319423720Y-112306015D01*
X319581450Y-112338112D02*
X319528603Y-112329196D01*
X320473939Y-112216858D02*
X320423844Y-112238256D01*
X320572349Y-112168713D02*
X320523456Y-112193677D01*
X321345732Y-111239014D02*
X321328702Y-111289909D01*
X321405004Y-110975869D02*
X321396678Y-111029520D01*
X320060880Y-112338112D02*
X320007825Y-112345244D01*
X321310000Y-111340133D02*
X321289650Y-111389646D01*
X321386564Y-111082700D02*
X321374687Y-111135369D01*
X321036141Y-111796640D02*
X321000579Y-111836836D01*
X321192229Y-111579781D02*
X321163984Y-111625136D01*
X321163984Y-111625136D02*
X321134230Y-111669540D01*
X321218941Y-111533515D02*
X321192229Y-111579781D01*
X320885624Y-111950354D02*
X320844625Y-111985703D01*
X250073359Y-109372740D02*
X250121582Y-109345993D01*
X250475322Y-109208690D02*
X250527613Y-109196208D01*
X249935185Y-109462281D02*
X249980019Y-109430988D01*
X250527613Y-109196208D02*
X250580205Y-109185509D01*
X250320714Y-109256835D02*
X250371826Y-109239004D01*
X250899479Y-109158762D02*
X250952880Y-109160545D01*
X251059427Y-109169461D02*
X251112482Y-109176593D01*
X250846054Y-109158762D02*
X250899479Y-109158762D01*
X250686106Y-109169461D02*
X250739322Y-109164111D01*
X249891607Y-109494966D02*
X249935185Y-109462281D01*
X250270087Y-109276450D02*
X250320714Y-109256835D01*
X250739322Y-109164111D02*
X250792653Y-109160545D01*
X250952880Y-109160545D02*
X251006211Y-109164111D01*
X250121582Y-109345993D02*
X250170475Y-109321029D01*
X250580205Y-109185509D02*
X250633051Y-109176593D01*
X249980019Y-109430988D02*
X250026085Y-109401128D01*
X250633051Y-109176593D02*
X250686106Y-109169461D01*
X251112482Y-109176593D02*
X251165328Y-109185509D01*
X250371826Y-109239004D02*
X250423377Y-109222955D01*
X250423377Y-109222955D02*
X250475322Y-109208690D01*
X250792653Y-109160545D02*
X250846054Y-109158762D01*
X250219992Y-109297848D02*
X250270087Y-109276450D01*
X251006211Y-109164111D02*
X251059427Y-109169461D01*
X250026085Y-109401128D02*
X250073359Y-109372740D01*
X250170475Y-109321029D02*
X250219992Y-109297848D01*
X249449834Y-111486376D02*
X249426257Y-111438407D01*
X249474990Y-109981191D02*
X249501702Y-109934924D01*
X249383931Y-110174573D02*
X249404281Y-110125060D01*
X249274900Y-110812488D02*
X249273952Y-110757353D01*
X249623646Y-111755332D02*
X249590942Y-111712951D01*
X249297253Y-111029520D02*
X249288927Y-110975869D01*
X249307367Y-111082700D02*
X249297253Y-111029520D01*
X249449834Y-110028329D02*
X249474990Y-109981191D01*
X249365229Y-110224797D02*
X249383931Y-110174573D01*
X249282410Y-110592920D02*
X249288927Y-110538837D01*
X249404281Y-111389646D02*
X249383931Y-111340133D01*
X249297253Y-110485186D02*
X249307367Y-110432006D01*
X249891607Y-112019740D02*
X249849306Y-111985703D01*
X250121582Y-112168713D02*
X250073359Y-112141966D01*
X250270087Y-112238256D02*
X250219992Y-112216858D01*
X249426257Y-111438407D02*
X249404281Y-111389646D01*
X249288927Y-110538837D02*
X249297253Y-110485186D01*
X250320714Y-112257870D02*
X250270087Y-112238256D01*
X249307367Y-110432006D02*
X249319245Y-110379336D01*
X249348199Y-111239014D02*
X249332863Y-111187487D01*
X249529947Y-111625136D02*
X249501702Y-111579781D01*
X249426257Y-110076299D02*
X249449834Y-110028329D01*
X249849306Y-111985703D02*
X249808308Y-111950354D01*
X249849306Y-109529002D02*
X249891607Y-109494966D01*
X249501702Y-111579781D02*
X249474990Y-111533515D01*
X249657791Y-109718066D02*
X249693352Y-109677869D01*
X249590942Y-109801754D02*
X249623646Y-109759374D01*
X249808308Y-109564351D02*
X249849306Y-109529002D01*
X249319245Y-111135369D02*
X249307367Y-111082700D01*
X249282410Y-110921786D02*
X249277727Y-110867313D01*
X249808308Y-111950354D02*
X249768634Y-111913734D01*
X249768634Y-109600972D02*
X249808308Y-109564351D01*
X249730308Y-109638824D02*
X249768634Y-109600972D01*
X249348199Y-110275692D02*
X249365229Y-110224797D01*
X249332863Y-110327219D02*
X249348199Y-110275692D01*
X249501702Y-109934924D02*
X249529947Y-109889569D01*
X250170475Y-112193677D02*
X250121582Y-112168713D01*
X249590942Y-111712951D02*
X249559701Y-111669540D01*
X249693352Y-109677869D02*
X249730308Y-109638824D01*
X249559701Y-109845166D02*
X249590942Y-109801754D01*
X249332863Y-111187487D02*
X249319245Y-111135369D01*
X249404281Y-110125060D02*
X249426257Y-110076299D01*
X249277727Y-110647393D02*
X249282410Y-110592920D01*
X249474990Y-111533515D02*
X249449834Y-111486376D01*
X249274900Y-110702217D02*
X249277727Y-110647393D01*
X250219992Y-112216858D02*
X250170475Y-112193677D01*
X249273952Y-110757353D02*
X249274900Y-110702217D01*
X249365229Y-111289909D02*
X249348199Y-111239014D01*
X249319245Y-110379336D02*
X249332863Y-110327219D01*
X249383931Y-111340133D02*
X249365229Y-111289909D01*
X249277727Y-110867313D02*
X249274900Y-110812488D01*
X249657791Y-111796640D02*
X249623646Y-111755332D01*
X250073359Y-112141966D02*
X250026085Y-112113578D01*
X249288927Y-110975869D02*
X249282410Y-110921786D01*
X249559701Y-111669540D02*
X249529947Y-111625136D01*
X249935185Y-112052425D02*
X249891607Y-112019740D01*
X249693352Y-111836836D02*
X249657791Y-111796640D01*
X249730308Y-111875881D02*
X249693352Y-111836836D01*
X249768634Y-111913734D02*
X249730308Y-111875881D01*
X249980019Y-112083717D02*
X249935185Y-112052425D01*
X250026085Y-112113578D02*
X249980019Y-112083717D01*
X249623646Y-109759374D02*
X249657791Y-109718066D01*
X250371826Y-112275702D02*
X250320714Y-112257870D01*
X249529947Y-109889569D02*
X249559701Y-109845166D01*
X250686106Y-112345244D02*
X250633051Y-112338112D01*
X250739322Y-112350594D02*
X250686106Y-112345244D01*
X250952880Y-112354160D02*
X250899479Y-112355943D01*
X251006211Y-112350594D02*
X250952880Y-112354160D01*
X251059427Y-112345244D02*
X251006211Y-112350594D01*
X321405004Y-76564264D02*
X321411521Y-76618347D01*
X321411521Y-76618347D02*
X321416204Y-76672820D01*
X265901528Y-82488519D02*
X304372736Y-82488519D01*
X321419031Y-76727644D02*
X321419978Y-76782780D01*
X321416204Y-76672820D02*
X321419031Y-76727644D01*
X321386564Y-76457433D02*
X321396678Y-76510613D01*
X321396678Y-76510613D02*
X321405004Y-76564264D01*
X321374687Y-76404763D02*
X321386564Y-76457433D01*
X250423377Y-112291750D02*
X250371826Y-112275702D01*
X250475322Y-112306015D02*
X250423377Y-112291750D01*
X250580205Y-112329196D02*
X250527613Y-112318497D01*
X250792653Y-112354160D02*
X250739322Y-112350594D01*
X250846054Y-112355943D02*
X250792653Y-112354160D01*
X250899479Y-112355943D02*
X250846054Y-112355943D01*
X250527613Y-112318497D02*
X250475322Y-112306015D01*
X250633051Y-112338112D02*
X250580205Y-112329196D01*
X318255766Y-76457433D02*
X318267643Y-76404763D01*
X318245652Y-76510613D02*
X318255766Y-76457433D01*
X318606189Y-75743493D02*
X318641751Y-75703296D01*
X318572045Y-75784801D02*
X318606189Y-75743493D01*
X318332330Y-77365560D02*
X318313628Y-77315336D01*
X318223299Y-76727644D02*
X318226126Y-76672820D01*
X318508100Y-75870593D02*
X318539341Y-75827181D01*
X318478346Y-75914996D02*
X318508100Y-75870593D01*
X318423389Y-76006618D02*
X318450101Y-75960351D01*
X318450101Y-77605208D02*
X318423389Y-77558942D01*
X318352680Y-76150487D02*
X318374655Y-76101726D01*
X318296598Y-76301119D02*
X318313628Y-76250224D01*
X318230809Y-76947213D02*
X318226126Y-76892740D01*
X318267643Y-77160796D02*
X318255766Y-77108127D01*
X318398233Y-77511803D02*
X318374655Y-77463834D01*
X318296598Y-77264441D02*
X318281262Y-77212914D01*
X318313628Y-77315336D02*
X318296598Y-77264441D01*
X318398233Y-76053756D02*
X318423389Y-76006618D01*
X318539341Y-77738378D02*
X318508100Y-77694967D01*
X318281262Y-76352646D02*
X318296598Y-76301119D01*
X318267643Y-76404763D02*
X318281262Y-76352646D01*
X318222351Y-76782780D02*
X318223299Y-76727644D01*
X318226126Y-76892740D02*
X318223299Y-76837915D01*
X318237326Y-77001296D02*
X318230809Y-76947213D01*
X318508100Y-77694967D02*
X318478346Y-77650563D01*
X318245652Y-77054947D02*
X318237326Y-77001296D01*
X318226126Y-76672820D02*
X318230809Y-76618347D01*
X318281262Y-77212914D02*
X318267643Y-77160796D01*
X318374655Y-76101726D02*
X318398233Y-76053756D01*
X318255766Y-77108127D02*
X318245652Y-77054947D01*
X318237326Y-76564264D02*
X318245652Y-76510613D01*
X318223299Y-76837915D02*
X318222351Y-76782780D01*
X318374655Y-77463834D02*
X318352680Y-77415073D01*
X318539341Y-75827181D02*
X318572045Y-75784801D01*
X318313628Y-76250224D02*
X318332330Y-76200000D01*
X318450101Y-75960351D02*
X318478346Y-75914996D01*
X318352680Y-77415073D02*
X318332330Y-77365560D01*
X318423389Y-77558942D02*
X318398233Y-77511803D01*
X318230809Y-76618347D02*
X318237326Y-76564264D01*
X318332330Y-76200000D02*
X318352680Y-76150487D01*
X318478346Y-77650563D02*
X318450101Y-77605208D01*
X319954609Y-78376021D02*
X319901278Y-78379587D01*
X321218941Y-77558942D02*
X321192229Y-77605208D01*
X319476012Y-78343924D02*
X319423720Y-78331442D01*
X320270554Y-78317177D02*
X320218609Y-78331442D01*
X321192229Y-77605208D02*
X321163984Y-77650563D01*
X321289650Y-77415073D02*
X321267675Y-77463834D01*
X319528603Y-78354623D02*
X319476012Y-78343924D01*
X318797705Y-78011130D02*
X318756706Y-77975781D01*
X318883584Y-78077852D02*
X318840005Y-78045167D01*
X318928418Y-78109144D02*
X318883584Y-78077852D01*
X319847877Y-78381370D02*
X319794453Y-78381370D01*
X318974484Y-78139005D02*
X318928418Y-78109144D01*
X319021758Y-78167393D02*
X318974484Y-78139005D01*
X320523456Y-78219104D02*
X320473939Y-78242285D01*
X319901278Y-78379587D02*
X319847877Y-78381370D01*
X320963624Y-77901308D02*
X320925298Y-77939161D01*
X320844625Y-78011130D02*
X320802325Y-78045167D01*
X319687720Y-78376021D02*
X319634504Y-78370671D01*
X320113726Y-78354623D02*
X320060880Y-78363539D01*
X320572349Y-78194140D02*
X320523456Y-78219104D01*
X321000579Y-77862263D02*
X320963624Y-77901308D01*
X321102989Y-77738378D02*
X321070285Y-77780759D01*
X319218486Y-78263683D02*
X319168391Y-78242285D01*
X320060880Y-78363539D02*
X320007825Y-78370671D01*
X321310000Y-77365560D02*
X321289650Y-77415073D01*
X321070285Y-77780759D02*
X321036141Y-77822067D01*
X320925298Y-77939161D02*
X320885624Y-77975781D01*
X319371776Y-78317177D02*
X319320224Y-78301129D01*
X319581450Y-78363539D02*
X319528603Y-78354623D01*
X320758746Y-78077852D02*
X320713912Y-78109144D01*
X321163984Y-77650563D02*
X321134230Y-77694967D01*
X321134230Y-77694967D02*
X321102989Y-77738378D01*
X320802325Y-78045167D02*
X320758746Y-78077852D01*
X321267675Y-77463834D02*
X321244097Y-77511803D01*
X321244097Y-77511803D02*
X321218941Y-77558942D01*
X321036141Y-77822067D02*
X321000579Y-77862263D01*
X318641751Y-77862263D02*
X318606189Y-77822067D01*
X320218609Y-78331442D02*
X320166318Y-78343924D01*
X320667846Y-78139005D02*
X320620571Y-78167393D01*
X321328702Y-77315336D02*
X321310000Y-77365560D01*
X319634504Y-78370671D02*
X319581450Y-78363539D01*
X318572045Y-77780759D02*
X318539341Y-77738378D01*
X320007825Y-78370671D02*
X319954609Y-78376021D01*
X320620571Y-78167393D02*
X320572349Y-78194140D01*
X318606189Y-77822067D02*
X318572045Y-77780759D01*
X318678706Y-77901308D02*
X318641751Y-77862263D01*
X318840005Y-78045167D02*
X318797705Y-78011130D01*
X319741052Y-78379587D02*
X319687720Y-78376021D01*
X319069981Y-78194140D02*
X319021758Y-78167393D01*
X319794453Y-78381370D02*
X319741052Y-78379587D01*
X319168391Y-78242285D02*
X319118874Y-78219104D01*
X320322105Y-78301129D02*
X320270554Y-78317177D01*
X319320224Y-78301129D02*
X319269112Y-78283297D01*
X320885624Y-77975781D02*
X320844625Y-78011130D01*
X319423720Y-78331442D02*
X319371776Y-78317177D01*
X320166318Y-78343924D02*
X320113726Y-78354623D01*
X320713912Y-78109144D02*
X320667846Y-78139005D01*
X320373217Y-78283297D02*
X320322105Y-78301129D01*
X320423844Y-78263683D02*
X320373217Y-78283297D01*
X320473939Y-78242285D02*
X320423844Y-78263683D01*
X318717032Y-77939161D02*
X318678706Y-77901308D01*
X318756706Y-77975781D02*
X318717032Y-77939161D01*
X319118874Y-78219104D02*
X319069981Y-78194140D01*
X319269112Y-78283297D02*
X319218486Y-78263683D01*
X-24835152Y-131333908D02*
X-24499187Y-130997944D01*
X-14488474Y-128973250D02*
X-14041413Y-129155688D01*
X321419031Y-76837915D02*
X321416204Y-76892740D01*
X-24147015Y-130678849D02*
X-23779298Y-130377288D01*
X-21730751Y-129155688D02*
X-21283690Y-128973250D01*
X321345732Y-77264441D02*
X321328702Y-77315336D01*
X304372736Y-102473562D02*
X304372736Y-82488519D01*
X321361068Y-77212914D02*
X321345732Y-77264441D01*
X304372736Y-102473562D02*
X265901528Y-102473562D01*
X-8410935Y-136440059D02*
X-8345997Y-136935009D01*
X321374687Y-77160796D02*
X321361068Y-77212914D01*
X321386564Y-77108127D02*
X321374687Y-77160796D01*
X-24499187Y-130997944D02*
X-24147015Y-130678849D01*
X321396678Y-77054947D02*
X321386564Y-77108127D01*
X321405004Y-77001296D02*
X321396678Y-77054947D01*
X-8306548Y-137437549D02*
X-8293252Y-137947014D01*
X-8345997Y-136935009D02*
X-8306548Y-137437549D01*
X-8912318Y-134549406D02*
X-8752053Y-135007371D01*
X321411521Y-76947213D02*
X321405004Y-77001296D01*
X-12375464Y-130093924D02*
X-11992865Y-130377288D01*
X-12772280Y-129829418D02*
X-12375464Y-130093924D01*
X-14041413Y-129155688D02*
X-13605918Y-129359638D01*
X-19879735Y-128561632D02*
X-19393036Y-128471868D01*
X321416204Y-76892740D02*
X321411521Y-76947213D01*
X-10617917Y-131686081D02*
X-10316356Y-132053797D01*
X-13182653Y-129584435D02*
X-12772280Y-129829418D01*
X-21283690Y-128973250D02*
X-20825724Y-128812986D01*
X-25455808Y-132053797D02*
X-25154247Y-131686081D01*
X-10316356Y-132053797D02*
X-10032992Y-132436396D01*
X-17886082Y-128354184D02*
X-17376616Y-128367481D01*
X-22589511Y-129584435D02*
X-22166246Y-129359638D01*
X-18898086Y-128406930D02*
X-18395547Y-128367481D01*
X-11992865Y-130377288D02*
X-11625149Y-130678849D01*
X-16874077Y-128406930D02*
X-16379127Y-128471868D01*
X-22166246Y-129359638D02*
X-21730751Y-129155688D01*
X310518137Y-129286495D02*
X310518137Y-130852323D01*
X321419978Y-76782780D02*
X321419031Y-76837915D01*
X-13605918Y-129359638D02*
X-13182653Y-129584435D01*
X-15892429Y-128561632D02*
X-15414645Y-128675559D01*
X-17376616Y-128367481D02*
X-16874077Y-128406930D01*
X-18395547Y-128367481D02*
X-17886082Y-128354184D01*
X-9094756Y-134102345D02*
X-8912318Y-134549406D01*
X-9768486Y-132833212D02*
X-9523503Y-133243585D01*
X-15414645Y-128675559D02*
X-14946439Y-128812986D01*
X-22999883Y-129829418D02*
X-22589511Y-129584435D01*
X-8500699Y-135953361D02*
X-8410935Y-136440059D01*
X-8752053Y-135007371D02*
X-8614626Y-135475577D01*
X-8614626Y-135475577D02*
X-8500699Y-135953361D01*
X-9523503Y-133243585D02*
X-9298705Y-133666850D01*
X-8293252Y-137947014D02*
X-8293252Y-137947014D01*
X-20825724Y-128812986D02*
X-20357519Y-128675559D01*
X-23396700Y-130093924D02*
X-22999883Y-129829418D01*
X-10937012Y-131333908D02*
X-10617917Y-131686081D01*
X265901528Y-82488519D02*
X265901528Y-102473562D01*
X-20357519Y-128675559D02*
X-19879735Y-128561632D01*
X-9298705Y-133666850D02*
X-9094756Y-134102345D01*
X-10032992Y-132436396D02*
X-9768486Y-132833212D01*
X-11272976Y-130997944D02*
X-10937012Y-131333908D01*
X-11625149Y-130678849D02*
X-11272976Y-130997944D01*
X-14946439Y-128812986D02*
X-14488474Y-128973250D01*
X-25154247Y-131686081D02*
X-24835152Y-131333908D01*
X-16379127Y-128471868D02*
X-15892429Y-128561632D01*
X-19393036Y-128471868D02*
X-18898086Y-128406930D01*
X-23779298Y-130377288D02*
X-23396700Y-130093924D01*
X-24510843Y-144885263D02*
X-24740799Y-144658148D01*
X-23242540Y-145905159D02*
X-23511541Y-145717405D01*
X-20891709Y-147057060D02*
X-21198381Y-146950072D01*
X-19956990Y-147313832D02*
X-20270736Y-147238940D01*
X-22966146Y-146084321D02*
X-23242540Y-145905159D01*
X-18686747Y-147506411D02*
X-19006041Y-147474314D01*
X-18366758Y-147527808D02*
X-18686747Y-147506411D01*
X-26859846Y-134549406D02*
X-26677408Y-134102345D01*
X-27020111Y-135007371D02*
X-26859846Y-134549406D01*
X-27426167Y-136935009D02*
X-27361229Y-136440059D01*
X-16447799Y-147431519D02*
X-16766123Y-147474314D01*
X-27465616Y-137437549D02*
X-27426167Y-136935009D01*
X-27271465Y-135953361D02*
X-27157538Y-135475577D01*
X-27478913Y-137947014D02*
X-27465616Y-137437549D01*
X-27428167Y-138933608D02*
X-27456266Y-138606769D01*
X-27125453Y-140527806D02*
X-27207162Y-140215100D01*
X-27339109Y-139580008D02*
X-27389068Y-139258101D01*
X-27389068Y-139258101D02*
X-27428167Y-138933608D01*
X-24026810Y-145317078D02*
X-24272800Y-145104987D01*
X-17405406Y-147527808D02*
X-17725810Y-147538507D01*
X-27033438Y-140836964D02*
X-27125453Y-140527806D01*
X-26696946Y-141740751D02*
X-26819046Y-141443677D01*
X-27207162Y-140215100D02*
X-27278427Y-139899087D01*
X-25380763Y-143934856D02*
X-25576987Y-143680577D01*
X-20270736Y-147238940D02*
X-20582402Y-147153350D01*
X-26819046Y-141443677D02*
X-26931256Y-141142334D01*
X-26931256Y-141142334D02*
X-27033438Y-140836964D01*
X-24740799Y-144658148D02*
X-24962531Y-144423882D01*
X-18046354Y-147538507D02*
X-18366758Y-147527808D01*
X-26423631Y-142321133D02*
X-26565095Y-142033316D01*
X-19324365Y-147431519D02*
X-19641441Y-147378025D01*
X-26565095Y-142033316D02*
X-26696946Y-141740751D01*
X-23773010Y-145521298D02*
X-24026810Y-145317078D01*
X-25764430Y-143420108D02*
X-25942955Y-143153689D01*
X-25942955Y-143153689D02*
X-26112423Y-142881560D01*
X-22099809Y-146564915D02*
X-22393165Y-146415131D01*
X-27473228Y-138277824D02*
X-27478913Y-137947014D01*
X-23511541Y-145717405D02*
X-23773010Y-145521298D01*
X-21802709Y-146703999D02*
X-22099809Y-146564915D01*
X-25175898Y-144182704D02*
X-25380763Y-143934856D01*
X-17725810Y-147538507D02*
X-18046354Y-147538507D01*
X-21502140Y-146832385D02*
X-21802709Y-146703999D01*
X-25739172Y-132436396D02*
X-25455808Y-132053797D01*
X-26003678Y-132833212D02*
X-25739172Y-132436396D01*
X-26248661Y-133243585D02*
X-26003678Y-132833212D01*
X-27361229Y-136440059D02*
X-27271465Y-135953361D01*
X-26677408Y-134102345D02*
X-26473459Y-133666850D01*
X-17085417Y-147506411D02*
X-17405406Y-147527808D01*
X-27456266Y-138606769D02*
X-27473228Y-138277824D01*
X-16766123Y-147474314D02*
X-17085417Y-147506411D01*
X-22682498Y-146254649D02*
X-22966146Y-146084321D01*
X-27278427Y-139899087D02*
X-27339109Y-139580008D01*
X-24962531Y-144423882D02*
X-25175898Y-144182704D01*
X-20582402Y-147153350D02*
X-20891709Y-147057060D01*
X-19006041Y-147474314D02*
X-19324365Y-147431519D01*
X-24272800Y-145104987D02*
X-24510843Y-144885263D01*
X-21198381Y-146950072D02*
X-21502140Y-146832385D01*
X-19641441Y-147378025D02*
X-19956990Y-147313832D01*
X-26473459Y-133666850D02*
X-26248661Y-133243585D01*
X-27157538Y-135475577D02*
X-27020111Y-135007371D01*
X-26272695Y-142603961D02*
X-26423631Y-142321133D01*
X-22393165Y-146415131D02*
X-22682498Y-146254649D01*
X-26112423Y-142881560D02*
X-26272695Y-142603961D01*
X-25576987Y-143680577D02*
X-25764430Y-143420108D01*
X-15815174Y-147313832D02*
X-16130723Y-147378025D01*
X-8383096Y-139258101D02*
X-8433055Y-139580008D01*
X-13969455Y-146703999D02*
X-14270024Y-146832385D01*
X314158119Y-130922363D02*
X313928598Y-130721488D01*
X312642016Y-129889794D02*
X312359461Y-129760974D01*
X315146661Y-132075976D02*
X314971378Y-131826775D01*
X314784518Y-131586388D02*
X314586444Y-131355239D01*
X-16130723Y-147378025D02*
X-16447799Y-147431519D01*
X-11499364Y-145104987D02*
X-11745354Y-145317078D01*
X310840579Y-129327916D02*
X310518137Y-129286495D01*
X-15501428Y-147238940D02*
X-15815174Y-147313832D01*
X311157285Y-129384968D02*
X310840579Y-129327916D01*
X-15189762Y-147153350D02*
X-15501428Y-147238940D01*
X-14880455Y-147057060D02*
X-15189762Y-147153350D01*
X-11999154Y-145521298D02*
X-12260623Y-145717405D01*
X-11745354Y-145317078D02*
X-11999154Y-145521298D01*
X311467892Y-129457227D02*
X311157285Y-129384968D01*
X-10596266Y-144182704D02*
X-10809634Y-144423882D01*
X313182983Y-130186231D02*
X312916645Y-130031688D01*
X-12260623Y-145717405D02*
X-12529624Y-145905159D01*
X-8738726Y-140836964D02*
X-8840908Y-141142334D01*
X-8646711Y-140527806D02*
X-8738726Y-140836964D01*
X-8433055Y-139580008D02*
X-8493737Y-139899087D01*
X-14573783Y-146950072D02*
X-14880455Y-147057060D01*
X-9348533Y-142321133D02*
X-9499469Y-142603961D01*
X-14270024Y-146832385D02*
X-14573783Y-146950072D01*
X-8565002Y-140215100D02*
X-8646711Y-140527806D01*
X314377523Y-131133755D02*
X314158119Y-130922363D01*
X-13672355Y-146564915D02*
X-13969455Y-146703999D01*
X-13378999Y-146415131D02*
X-13672355Y-146564915D01*
X-13089667Y-146254649D02*
X-13378999Y-146415131D01*
X-9499469Y-142603961D02*
X-9659741Y-142881560D01*
X-8840908Y-141142334D02*
X-8953118Y-141443677D01*
X-12806018Y-146084321D02*
X-13089667Y-146254649D01*
X309219109Y-130852323D02*
X309219109Y-129286495D01*
X312359461Y-129760974D02*
X312069345Y-129645656D01*
X-11261321Y-144885263D02*
X-11499364Y-145104987D01*
X-11031365Y-144658148D02*
X-11261321Y-144885263D01*
X-8493737Y-139899087D02*
X-8565002Y-140215100D01*
X-10391401Y-143934856D02*
X-10596266Y-144182704D01*
X-8298936Y-138277824D02*
X-8315898Y-138606769D01*
X-9829209Y-143153689D02*
X-10007734Y-143420108D01*
X-8315898Y-138606769D02*
X-8343997Y-138933608D01*
X313928598Y-130721488D02*
X313689324Y-130531557D01*
X311772034Y-129544265D02*
X311467892Y-129457227D01*
X309219109Y-130852323D02*
X310518137Y-130852323D01*
X-10809634Y-144423882D02*
X-11031365Y-144658148D01*
X-10007734Y-143420108D02*
X-10195177Y-143680577D01*
X313689324Y-130531557D02*
X313440665Y-130352996D01*
X-12529624Y-145905159D02*
X-12806018Y-146084321D01*
X-9207069Y-142033316D02*
X-9348533Y-142321133D01*
X287835113Y-129286495D02*
X287835113Y-130852323D01*
X312916645Y-130031688D02*
X312642016Y-129889794D01*
X315310000Y-132333562D02*
X315146661Y-132075976D01*
X-10195177Y-143680577D02*
X-10391401Y-143934856D01*
X313440665Y-130352996D02*
X313182983Y-130186231D01*
X312069345Y-129645656D02*
X311772034Y-129544265D01*
X314971378Y-131826775D02*
X314784518Y-131586388D01*
X-9075218Y-141740751D02*
X-9207069Y-142033316D01*
X-8343997Y-138933608D02*
X-8383096Y-139258101D01*
X-9659741Y-142881560D02*
X-9829209Y-143153689D01*
X-8953118Y-141443677D02*
X-9075218Y-141740751D01*
X-8293252Y-137947014D02*
X-8298936Y-138277824D01*
X314586444Y-131355239D02*
X314377523Y-131133755D01*
X316142925Y-134645025D02*
X316088281Y-134335690D01*
X316206157Y-135276921D02*
X316182339Y-134958911D01*
X316214015Y-135598629D02*
X316206157Y-135276921D01*
X316139958Y-136566964D02*
X316180705Y-136247750D01*
X308906381Y-141871071D02*
X309222753Y-141911155D01*
X316205546Y-135923610D02*
X316214015Y-135598629D01*
X315826056Y-137786830D02*
X315926355Y-137491186D01*
X307694146Y-141560962D02*
X307988404Y-141660182D01*
X312043101Y-141560962D02*
X312330812Y-141447924D01*
X316180705Y-136247750D02*
X316205546Y-135923610D01*
X316012376Y-137189069D02*
X316083713Y-136880866D01*
X315711886Y-138075616D02*
X315826056Y-137786830D01*
X315290222Y-138896953D02*
X315443562Y-138631064D01*
X314947220Y-139403130D02*
X315124639Y-139154438D01*
X314758371Y-139642644D02*
X314947220Y-139403130D01*
X314127321Y-140302250D02*
X314348015Y-140092591D01*
X310514494Y-141911155D02*
X310830865Y-141871071D01*
X313150600Y-141029774D02*
X313408058Y-140865333D01*
X312611570Y-141321456D02*
X312884968Y-141181944D01*
X306080311Y-140689008D02*
X306329189Y-140865333D01*
X311142319Y-141815623D02*
X311448447Y-141745197D01*
X308288800Y-141745197D02*
X308594928Y-141815623D01*
X304447025Y-138896953D02*
X304612608Y-139154438D01*
X306586647Y-141029774D02*
X306852279Y-141181944D01*
X305178746Y-139872593D02*
X305389232Y-140092591D01*
X305840421Y-140501185D02*
X306080311Y-140689008D01*
X312330812Y-141447924D02*
X312611570Y-141321456D01*
X307406435Y-141447924D02*
X307694146Y-141560962D01*
X316083713Y-136880866D02*
X316139958Y-136566964D01*
X315926355Y-137491186D02*
X316012376Y-137189069D01*
X315584252Y-138357156D02*
X315711886Y-138075616D01*
X315124639Y-139154438D02*
X315290222Y-138896953D01*
X307125677Y-141321456D02*
X307406435Y-141447924D01*
X314348015Y-140092591D02*
X314558501Y-139872593D01*
X313896826Y-140501185D02*
X314127321Y-140302250D01*
X308594928Y-141815623D02*
X308906381Y-141871071D01*
X306329189Y-140865333D02*
X306586647Y-141029774D01*
X313656936Y-140689008D02*
X313896826Y-140501185D01*
X309868623Y-141943687D02*
X310193611Y-141935490D01*
X305389232Y-140092591D02*
X305609926Y-140302250D01*
X304790027Y-139403130D02*
X304978876Y-139642644D01*
X304978876Y-139642644D02*
X305178746Y-139872593D01*
X315443562Y-138631064D02*
X315584252Y-138357156D01*
X313408058Y-140865333D02*
X313656936Y-140689008D01*
X312884968Y-141181944D02*
X313150600Y-141029774D01*
X309222753Y-141911155D02*
X309543636Y-141935490D01*
X304612608Y-139154438D02*
X304790027Y-139403130D01*
X306852279Y-141181944D02*
X307125677Y-141321456D01*
X307988404Y-141660182D02*
X308288800Y-141745197D01*
X314558501Y-139872593D02*
X314758371Y-139642644D01*
X305609926Y-140302250D02*
X305840421Y-140501185D01*
X315461030Y-132599110D02*
X315310000Y-132333562D01*
X311448447Y-141745197D02*
X311748843Y-141660182D01*
X315599387Y-132872191D02*
X315461030Y-132599110D01*
X315724705Y-133152380D02*
X315599387Y-132872191D01*
X315836618Y-133439250D02*
X315724705Y-133152380D01*
X315934762Y-133732376D02*
X315836618Y-133439250D01*
X311748843Y-141660182D02*
X312043101Y-141560962D01*
X316018772Y-134031332D02*
X315934762Y-133732376D01*
X310830865Y-141871071D02*
X311142319Y-141815623D01*
X309543636Y-141935490D02*
X309868623Y-141943687D01*
X316088281Y-134335690D02*
X316018772Y-134031332D01*
X316182339Y-134958911D02*
X316142925Y-134645025D01*
X310193611Y-141935490D02*
X310514494Y-141911155D01*
X290499959Y-130186231D02*
X290233621Y-130031688D01*
X303523232Y-135598629D02*
X303531700Y-135923610D01*
X303594321Y-134645025D02*
X303554908Y-134958911D01*
X306820602Y-130031688D02*
X306554264Y-130186231D01*
X291903420Y-131355239D02*
X291694499Y-131133755D01*
X303900628Y-133439250D02*
X303802484Y-133732376D01*
X304012542Y-133152380D02*
X303900628Y-133439250D01*
X303653534Y-136880866D02*
X303724871Y-137189069D01*
X304952729Y-131586388D02*
X304765868Y-131826775D01*
X286536085Y-130852323D02*
X286536085Y-129286495D01*
X289958992Y-129889794D02*
X289676437Y-129760974D01*
X303556542Y-136247750D02*
X303597289Y-136566964D01*
X308896668Y-129327916D02*
X308579962Y-129384968D01*
X304427247Y-132333562D02*
X304276216Y-132599110D01*
X305150803Y-131355239D02*
X304952729Y-131586388D01*
X290233621Y-130031688D02*
X289958992Y-129889794D01*
X286536085Y-130852323D02*
X287835113Y-130852323D01*
X265152089Y-129286495D02*
X265152089Y-130852323D01*
X306047922Y-130531557D02*
X305808649Y-130721488D01*
X289089010Y-129544265D02*
X288784868Y-129457227D01*
X291245574Y-130721488D02*
X291006300Y-130531557D01*
X303554908Y-134958911D02*
X303531089Y-135276921D01*
X308579962Y-129384968D02*
X308269355Y-129457227D01*
X305808649Y-130721488D02*
X305579128Y-130922363D01*
X291006300Y-130531557D02*
X290757641Y-130352996D01*
X304025361Y-138075616D02*
X304152995Y-138357156D01*
X303718475Y-134031332D02*
X303648966Y-134335690D01*
X288474261Y-129384968D02*
X288157555Y-129327916D01*
X304137859Y-132872191D02*
X304012542Y-133152380D01*
X308269355Y-129457227D02*
X307965213Y-129544265D01*
X292778006Y-132599110D02*
X292626976Y-132333562D01*
X304293685Y-138631064D02*
X304447025Y-138896953D01*
X304152995Y-138357156D02*
X304293685Y-138631064D01*
X303810892Y-137491186D02*
X303911191Y-137786830D01*
X303724871Y-137189069D02*
X303810892Y-137491186D01*
X303597289Y-136566964D02*
X303653534Y-136880866D01*
X306554264Y-130186231D02*
X306296582Y-130352996D01*
X291694499Y-131133755D02*
X291475095Y-130922363D01*
X303531089Y-135276921D02*
X303523232Y-135598629D01*
X304276216Y-132599110D02*
X304137859Y-132872191D01*
X288784868Y-129457227D02*
X288474261Y-129384968D01*
X303648966Y-134335690D02*
X303594321Y-134645025D01*
X305579128Y-130922363D02*
X305359724Y-131133755D01*
X290757641Y-130352996D02*
X290499959Y-130186231D01*
X303802484Y-133732376D02*
X303718475Y-134031332D01*
X304590586Y-132075976D02*
X304427247Y-132333562D01*
X304765868Y-131826775D02*
X304590586Y-132075976D01*
X289386321Y-129645656D02*
X289089010Y-129544265D01*
X306296582Y-130352996D02*
X306047922Y-130531557D01*
X289676437Y-129760974D02*
X289386321Y-129645656D01*
X307095231Y-129889794D02*
X306820602Y-130031688D01*
X292101494Y-131586388D02*
X291903420Y-131355239D01*
X307377786Y-129760974D02*
X307095231Y-129889794D01*
X307667902Y-129645656D02*
X307377786Y-129760974D01*
X307965213Y-129544265D02*
X307667902Y-129645656D01*
X309219109Y-129286495D02*
X308896668Y-129327916D01*
X291475095Y-130922363D02*
X291245574Y-130721488D01*
X292288354Y-131826775D02*
X292101494Y-131586388D01*
X292463637Y-132075976D02*
X292288354Y-131826775D01*
X292626976Y-132333562D02*
X292463637Y-132075976D01*
X288157555Y-129327916D02*
X287835113Y-129286495D01*
X303911191Y-137786830D02*
X304025361Y-138075616D01*
X303531700Y-135923610D02*
X303556542Y-136247750D01*
X305359724Y-131133755D02*
X305150803Y-131355239D01*
X287831470Y-141911155D02*
X288147841Y-141871071D01*
X290201944Y-141181944D02*
X290467576Y-141029774D01*
X293041681Y-133152380D02*
X292916363Y-132872191D01*
X293153594Y-133439250D02*
X293041681Y-133152380D01*
X293530991Y-135598629D02*
X293523133Y-135276921D01*
X293251738Y-133732376D02*
X293153594Y-133439250D01*
X293459901Y-134645025D02*
X293405257Y-134335690D01*
X293335748Y-134031332D02*
X293251738Y-133732376D01*
X293405257Y-134335690D02*
X293335748Y-134031332D01*
X285911904Y-141815623D02*
X286223357Y-141871071D01*
X293523133Y-135276921D02*
X293499315Y-134958911D01*
X293522522Y-135923610D02*
X293530991Y-135598629D01*
X293329352Y-137189069D02*
X293400689Y-136880866D01*
X291444297Y-140302250D02*
X291664991Y-140092591D01*
X291213802Y-140501185D02*
X291444297Y-140302250D01*
X286539729Y-141911155D02*
X286860612Y-141935490D01*
X286223357Y-141871071D02*
X286539729Y-141911155D01*
X284723411Y-141447924D02*
X285011122Y-141560962D01*
X290467576Y-141029774D02*
X290725034Y-140865333D01*
X286860612Y-141935490D02*
X287185599Y-141943687D01*
X287510587Y-141935490D02*
X287831470Y-141911155D01*
X281929584Y-139154438D02*
X282107003Y-139403130D01*
X281764001Y-138896953D02*
X281929584Y-139154438D01*
X292441615Y-139154438D02*
X292607198Y-138896953D01*
X282926902Y-140302250D02*
X283157397Y-140501185D01*
X293497681Y-136247750D02*
X293522522Y-135923610D01*
X290973912Y-140689008D02*
X291213802Y-140501185D01*
X281610661Y-138631064D02*
X281764001Y-138896953D01*
X292607198Y-138896953D02*
X292760538Y-138631064D01*
X291664991Y-140092591D02*
X291875477Y-139872593D01*
X288147841Y-141871071D02*
X288459295Y-141815623D01*
X283157397Y-140501185D02*
X283397287Y-140689008D01*
X282107003Y-139403130D02*
X282295852Y-139642644D01*
X288765423Y-141745197D02*
X289065819Y-141660182D01*
X293456934Y-136566964D02*
X293497681Y-136247750D01*
X293400689Y-136880866D02*
X293456934Y-136566964D01*
X293243331Y-137491186D02*
X293329352Y-137189069D01*
X293028862Y-138075616D02*
X293143032Y-137786830D01*
X290725034Y-140865333D02*
X290973912Y-140689008D01*
X289360077Y-141560962D02*
X289647788Y-141447924D01*
X288459295Y-141815623D02*
X288765423Y-141745197D01*
X292901228Y-138357156D02*
X293028862Y-138075616D01*
X283646165Y-140865333D02*
X283903623Y-141029774D01*
X284442653Y-141321456D02*
X284723411Y-141447924D01*
X289647788Y-141447924D02*
X289928546Y-141321456D01*
X285605776Y-141745197D02*
X285911904Y-141815623D01*
X285011122Y-141560962D02*
X285305380Y-141660182D01*
X285305380Y-141660182D02*
X285605776Y-141745197D01*
X283903623Y-141029774D02*
X284169255Y-141181944D01*
X293499315Y-134958911D02*
X293459901Y-134645025D01*
X293143032Y-137786830D02*
X293243331Y-137491186D01*
X292264196Y-139403130D02*
X292441615Y-139154438D01*
X282706208Y-140092591D02*
X282926902Y-140302250D01*
X292760538Y-138631064D02*
X292901228Y-138357156D01*
X287185599Y-141943687D02*
X287510587Y-141935490D01*
X292075347Y-139642644D02*
X292264196Y-139403130D01*
X291875477Y-139872593D02*
X292075347Y-139642644D01*
X289928546Y-141321456D02*
X290201944Y-141181944D01*
X282495722Y-139872593D02*
X282706208Y-140092591D01*
X289065819Y-141660182D02*
X289360077Y-141560962D01*
X284169255Y-141181944D02*
X284442653Y-141321456D01*
X283397287Y-140689008D02*
X283646165Y-140865333D01*
X282295852Y-139642644D02*
X282495722Y-139872593D01*
X292916363Y-132872191D02*
X292778006Y-132599110D01*
X269605331Y-131826775D02*
X269418470Y-131586388D01*
X267816935Y-130186231D02*
X267550597Y-130031688D01*
X281469971Y-138357156D02*
X281610661Y-138631064D01*
X280871884Y-134958911D02*
X280848065Y-135276921D01*
X282082845Y-131826775D02*
X281907562Y-132075976D01*
X284984878Y-129645656D02*
X284694762Y-129760974D01*
X280840208Y-135598629D02*
X280848676Y-135923610D01*
X282676700Y-131133755D02*
X282467779Y-131355239D01*
X281342337Y-138075616D02*
X281469971Y-138357156D01*
X282269705Y-131586388D02*
X282082845Y-131826775D01*
X281041847Y-137189069D02*
X281127868Y-137491186D01*
X280970510Y-136880866D02*
X281041847Y-137189069D01*
X280873518Y-136247750D02*
X280914265Y-136566964D01*
X281217605Y-133439250D02*
X281119461Y-133732376D01*
X281119461Y-133732376D02*
X281035451Y-134031332D01*
X284137578Y-130031688D02*
X283871240Y-130186231D01*
X281454836Y-132872191D02*
X281329518Y-133152380D01*
X281744223Y-132333562D02*
X281593193Y-132599110D01*
X282896104Y-130922363D02*
X282676700Y-131133755D01*
X266405986Y-129544265D02*
X266101844Y-129457227D01*
X266703297Y-129645656D02*
X266405986Y-129544265D01*
X267550597Y-130031688D02*
X267275968Y-129889794D01*
X269780613Y-132075976D02*
X269605331Y-131826775D01*
X283125625Y-130721488D02*
X282896104Y-130922363D01*
X285896938Y-129384968D02*
X285586331Y-129457227D01*
X281035451Y-134031332D02*
X280965942Y-134335690D01*
X266993413Y-129760974D02*
X266703297Y-129645656D01*
X270233340Y-132872191D02*
X270094983Y-132599110D01*
X280848676Y-135923610D02*
X280873518Y-136247750D01*
X282467779Y-131355239D02*
X282269705Y-131586388D01*
X284412207Y-129889794D02*
X284137578Y-130031688D01*
X269418470Y-131586388D02*
X269220396Y-131355239D01*
X266101844Y-129457227D02*
X265791237Y-129384968D01*
X269011475Y-131133755D02*
X268792071Y-130922363D01*
X284694762Y-129760974D02*
X284412207Y-129889794D01*
X285282189Y-129544265D02*
X284984878Y-129645656D01*
X280965942Y-134335690D02*
X280911298Y-134645025D01*
X283613558Y-130352996D02*
X283364898Y-130531557D01*
X267275968Y-129889794D02*
X266993413Y-129760974D01*
X268562550Y-130721488D02*
X268323277Y-130531557D01*
X269220396Y-131355239D02*
X269011475Y-131133755D01*
X283364898Y-130531557D02*
X283125625Y-130721488D01*
X286536085Y-129286495D02*
X286213644Y-129327916D01*
X263853061Y-130852323D02*
X263853061Y-129286495D01*
X268323277Y-130531557D02*
X268074617Y-130352996D01*
X285586331Y-129457227D02*
X285282189Y-129544265D01*
X281228167Y-137786830D02*
X281342337Y-138075616D01*
X281127868Y-137491186D02*
X281228167Y-137786830D01*
X281593193Y-132599110D02*
X281454836Y-132872191D01*
X286213644Y-129327916D02*
X285896938Y-129384968D01*
X270094983Y-132599110D02*
X269943952Y-132333562D01*
X280914265Y-136566964D02*
X280970510Y-136880866D01*
X280848065Y-135276921D02*
X280840208Y-135598629D01*
X280911298Y-134645025D02*
X280871884Y-134958911D01*
X269943952Y-132333562D02*
X269780613Y-132075976D01*
X281329518Y-133152380D02*
X281217605Y-133439250D01*
X283871240Y-130186231D02*
X283613558Y-130352996D01*
X17937107Y-66045825D02*
X17937107Y-67000111D01*
X265474531Y-129327916D02*
X265152089Y-129286495D01*
X268074617Y-130352996D02*
X267816935Y-130186231D01*
X281907562Y-132075976D02*
X281744223Y-132333562D01*
X265791237Y-129384968D02*
X265474531Y-129327916D01*
X268792071Y-130922363D02*
X268562550Y-130721488D01*
X263853061Y-130852323D02*
X265152089Y-130852323D01*
X258927637Y-138631064D02*
X259080977Y-138896953D01*
X266964764Y-141447924D02*
X267245522Y-141321456D01*
X264827563Y-141935490D02*
X265148446Y-141911155D01*
X259246560Y-139154438D02*
X259423979Y-139403130D01*
X260474373Y-140501185D02*
X260714263Y-140689008D01*
X270358657Y-133152380D02*
X270233340Y-132872191D01*
X270470571Y-133439250D02*
X270358657Y-133152380D01*
X270568715Y-133732376D02*
X270470571Y-133439250D01*
X270652724Y-134031332D02*
X270568715Y-133732376D01*
X270722233Y-134335690D02*
X270652724Y-134031332D01*
X270840110Y-135276921D02*
X270816291Y-134958911D01*
X266677053Y-141560962D02*
X266964764Y-141447924D01*
X259080977Y-138896953D02*
X259246560Y-139154438D01*
X270776878Y-134645025D02*
X270722233Y-134335690D01*
X270816291Y-134958911D02*
X270776878Y-134645025D01*
X270847967Y-135598629D02*
X270840110Y-135276921D01*
X270814657Y-136247750D02*
X270839498Y-135923610D01*
X270773910Y-136566964D02*
X270814657Y-136247750D01*
X270717665Y-136880866D02*
X270773910Y-136566964D01*
X270345838Y-138075616D02*
X270460008Y-137786830D01*
X270077514Y-138631064D02*
X270218204Y-138357156D01*
X269392323Y-139642644D02*
X269581172Y-139403130D01*
X261486231Y-141181944D02*
X261759629Y-141321456D01*
X263856705Y-141911155D02*
X264177588Y-141935490D01*
X263540333Y-141871071D02*
X263856705Y-141911155D01*
X268761273Y-140302250D02*
X268981967Y-140092591D01*
X265776271Y-141815623D02*
X266082399Y-141745197D01*
X260714263Y-140689008D02*
X260963141Y-140865333D01*
X269758591Y-139154438D02*
X269924174Y-138896953D01*
X268042010Y-140865333D02*
X268290888Y-140689008D01*
X260023184Y-140092591D02*
X260243878Y-140302250D01*
X262040387Y-141447924D02*
X262328098Y-141560962D01*
X268290888Y-140689008D02*
X268530778Y-140501185D01*
X262622356Y-141660182D02*
X262922752Y-141745197D01*
X260243878Y-140302250D02*
X260474373Y-140501185D01*
X269924174Y-138896953D02*
X270077514Y-138631064D01*
X265464817Y-141871071D02*
X265776271Y-141815623D01*
X265148446Y-141911155D02*
X265464817Y-141871071D01*
X264502575Y-141943687D02*
X264827563Y-141935490D01*
X263228880Y-141815623D02*
X263540333Y-141871071D01*
X262328098Y-141560962D02*
X262622356Y-141660182D01*
X270839498Y-135923610D02*
X270847967Y-135598629D01*
X270460008Y-137786830D02*
X270560307Y-137491186D01*
X267784552Y-141029774D02*
X268042010Y-140865333D01*
X259812698Y-139872593D02*
X260023184Y-140092591D01*
X270646328Y-137189069D02*
X270717665Y-136880866D01*
X270560307Y-137491186D02*
X270646328Y-137189069D01*
X270218204Y-138357156D02*
X270345838Y-138075616D01*
X268981967Y-140092591D02*
X269192453Y-139872593D01*
X267518920Y-141181944D02*
X267784552Y-141029774D01*
X260963141Y-140865333D02*
X261220599Y-141029774D01*
X259612828Y-139642644D02*
X259812698Y-139872593D01*
X264177588Y-141935490D02*
X264502575Y-141943687D01*
X269192453Y-139872593D02*
X269392323Y-139642644D01*
X261220599Y-141029774D02*
X261486231Y-141181944D01*
X269581172Y-139403130D02*
X269758591Y-139154438D01*
X268530778Y-140501185D02*
X268761273Y-140302250D01*
X267245522Y-141321456D02*
X267518920Y-141181944D01*
X266382795Y-141660182D02*
X266677053Y-141560962D01*
X266082399Y-141745197D02*
X266382795Y-141660182D01*
X258786947Y-138357156D02*
X258927637Y-138631064D01*
X262922752Y-141745197D02*
X263228880Y-141815623D01*
X261759629Y-141321456D02*
X262040387Y-141447924D01*
X259423979Y-139403130D02*
X259612828Y-139642644D01*
X21285922Y-67190002D02*
X20951454Y-66994427D01*
X258646494Y-133152380D02*
X258534581Y-133439250D01*
X20606515Y-66814712D02*
X20251561Y-66651393D01*
X22785204Y-68387006D02*
X22509945Y-68120176D01*
X18342557Y-66099507D02*
X17937107Y-66045825D01*
X23954184Y-69900073D02*
X23749553Y-69575392D01*
X258188860Y-134958911D02*
X258165041Y-135276921D01*
X258771812Y-132872191D02*
X258646494Y-133152380D01*
X259993676Y-131133755D02*
X259784755Y-131355239D01*
X24473275Y-70931740D02*
X24316502Y-70578783D01*
X258190494Y-136247750D02*
X258231241Y-136566964D01*
X258282918Y-134335690D02*
X258228274Y-134645025D01*
X20951454Y-66994427D02*
X20606515Y-66814712D01*
X258352427Y-134031332D02*
X258282918Y-134335690D01*
X259586681Y-131586388D02*
X259399821Y-131826775D01*
X259784755Y-131355239D02*
X259586681Y-131586388D01*
X16238378Y-67000111D02*
X16238378Y-66045825D01*
X260930534Y-130352996D02*
X260681874Y-130531557D01*
X258165652Y-135923610D02*
X258190494Y-136247750D01*
X259399821Y-131826775D02*
X259224538Y-132075976D01*
X258436437Y-133732376D02*
X258352427Y-134031332D01*
X262903307Y-129457227D02*
X262599165Y-129544265D01*
X16238378Y-67000111D02*
X17937107Y-67000111D01*
X23529882Y-69261209D02*
X23295630Y-68958059D01*
X23749553Y-69575392D02*
X23529882Y-69261209D01*
X258157184Y-135598629D02*
X258165652Y-135923610D01*
X24143319Y-70234716D02*
X23954184Y-69900073D01*
X21921617Y-67626587D02*
X21609462Y-67400901D01*
X258287486Y-136880866D02*
X258358823Y-137189069D01*
X258231241Y-136566964D02*
X258287486Y-136880866D01*
X19131178Y-66265175D02*
X18740733Y-66172802D01*
X262599165Y-129544265D02*
X262301854Y-129645656D01*
X258910169Y-132599110D02*
X258771812Y-132872191D01*
X259061199Y-132333562D02*
X258910169Y-132599110D01*
X18740733Y-66172802D02*
X18342557Y-66099507D01*
X258228274Y-134645025D02*
X258188860Y-134958911D01*
X258534581Y-133439250D02*
X258436437Y-133732376D01*
X22509945Y-68120176D02*
X22221930Y-67866524D01*
X22221930Y-67866524D02*
X21921617Y-67626587D01*
X23047251Y-68666480D02*
X22785204Y-68387006D01*
X260213080Y-130922363D02*
X259993676Y-131133755D01*
X21684313Y-108968701D02*
X21684313Y-108968701D01*
X262011738Y-129760974D02*
X261729183Y-129889794D01*
X261188216Y-130186231D02*
X260930534Y-130352996D01*
X19513435Y-66376089D02*
X19131178Y-66265175D01*
X24316502Y-70578783D02*
X24143319Y-70234716D01*
X260681874Y-130531557D02*
X260442601Y-130721488D01*
X260442601Y-130721488D02*
X260213080Y-130922363D01*
X261729183Y-129889794D02*
X261454554Y-130031688D01*
X258165041Y-135276921D02*
X258157184Y-135598629D01*
X263213914Y-129384968D02*
X262903307Y-129457227D01*
X19887049Y-66505007D02*
X19513435Y-66376089D01*
X23295630Y-68958059D02*
X23047251Y-68666480D01*
X259224538Y-132075976D02*
X259061199Y-132333562D01*
X258659313Y-138075616D02*
X258786947Y-138357156D01*
X258545143Y-137786830D02*
X258659313Y-138075616D01*
X258444844Y-137491186D02*
X258545143Y-137786830D01*
X258358823Y-137189069D02*
X258444844Y-137491186D01*
X263530620Y-129327916D02*
X263213914Y-129384968D01*
X261454554Y-130031688D02*
X261188216Y-130186231D01*
X21609462Y-67400901D02*
X21285922Y-67190002D01*
X262301854Y-129645656D02*
X262011738Y-129760974D01*
X263853061Y-129286495D02*
X263530620Y-129327916D01*
X20251561Y-66651393D02*
X19887049Y-66505007D01*
X321289650Y-76150487D02*
X321310000Y-76200000D01*
X321244097Y-76053756D02*
X321267675Y-76101726D01*
X320802325Y-75520393D02*
X320844625Y-75554429D01*
X320322105Y-75264431D02*
X320373217Y-75282262D01*
X319528603Y-75210936D02*
X319581450Y-75202020D01*
X321102989Y-75827181D02*
X321134230Y-75870593D01*
X319687720Y-75189538D02*
X319741052Y-75185972D01*
X319320224Y-75264431D02*
X319371776Y-75248382D01*
X321218941Y-76006618D02*
X321244097Y-76053756D01*
X321192229Y-75960351D02*
X321218941Y-76006618D01*
X321163984Y-75914996D02*
X321192229Y-75960351D01*
X321134230Y-75870593D02*
X321163984Y-75914996D01*
X319954609Y-75189538D02*
X320007825Y-75194888D01*
X321000579Y-75703296D02*
X321036141Y-75743493D01*
X320758746Y-75487708D02*
X320802325Y-75520393D01*
X318840005Y-75520393D02*
X318883584Y-75487708D01*
X318974484Y-75426555D02*
X319021758Y-75398167D01*
X320473939Y-75323275D02*
X320523456Y-75346456D01*
X319423720Y-75234117D02*
X319476012Y-75221635D01*
X319021758Y-75398167D02*
X319069981Y-75371420D01*
X318797705Y-75554429D02*
X318840005Y-75520393D01*
X318678706Y-75664251D02*
X318717032Y-75626399D01*
X320007825Y-75194888D02*
X320060880Y-75202020D01*
X319118874Y-75346456D02*
X319168391Y-75323275D01*
X320523456Y-75346456D02*
X320572349Y-75371420D01*
X318717032Y-75626399D02*
X318756706Y-75589778D01*
X318883584Y-75487708D02*
X318928418Y-75456415D01*
X319269112Y-75282262D02*
X319320224Y-75264431D01*
X320844625Y-75554429D02*
X320885624Y-75589778D01*
X320713912Y-75456415D02*
X320758746Y-75487708D01*
X320060880Y-75202020D02*
X320113726Y-75210936D01*
X318641751Y-75703296D02*
X318678706Y-75664251D01*
X319218486Y-75301877D02*
X319269112Y-75282262D01*
X321070285Y-75784801D02*
X321102989Y-75827181D01*
X319476012Y-75221635D02*
X319528603Y-75210936D01*
X318756706Y-75589778D02*
X318797705Y-75554429D01*
X319069981Y-75371420D02*
X319118874Y-75346456D01*
X320373217Y-75282262D02*
X320423844Y-75301877D01*
X320620571Y-75398167D02*
X320667846Y-75426555D01*
X321345732Y-76301119D02*
X321361068Y-76352646D01*
X321267675Y-76101726D02*
X321289650Y-76150487D01*
X321036141Y-75743493D02*
X321070285Y-75784801D01*
X320963624Y-75664251D02*
X321000579Y-75703296D01*
X320572349Y-75371420D02*
X320620571Y-75398167D01*
X320925298Y-75626399D02*
X320963624Y-75664251D01*
X320667846Y-75426555D02*
X320713912Y-75456415D01*
X319581450Y-75202020D02*
X319634504Y-75194888D01*
X319168391Y-75323275D02*
X319218486Y-75301877D01*
X319371776Y-75248382D02*
X319423720Y-75234117D01*
X320885624Y-75589778D02*
X320925298Y-75626399D01*
X320423844Y-75301877D02*
X320473939Y-75323275D01*
X320270554Y-75248382D02*
X320322105Y-75264431D01*
X319741052Y-75185972D02*
X319794453Y-75184189D01*
X318928418Y-75456415D02*
X318974484Y-75426555D01*
X320218609Y-75234117D02*
X320270554Y-75248382D01*
X319901278Y-75185972D02*
X319954609Y-75189538D01*
X320166318Y-75221635D02*
X320218609Y-75234117D01*
X320113726Y-75210936D02*
X320166318Y-75221635D01*
X319847877Y-75184189D02*
X319901278Y-75185972D01*
X319794453Y-75184189D02*
X319847877Y-75184189D01*
X319634504Y-75194888D02*
X319687720Y-75189538D01*
X321361068Y-76352646D02*
X321374687Y-76404763D01*
X321328702Y-76250224D02*
X321345732Y-76301119D01*
X321310000Y-76200000D02*
X321328702Y-76250224D01*
M02*
