  0
SECTION
  2
HEADER
  9
$ACADVER
  1
AC1015
  9
$ACADMAINTVER
 70
     6
  9
$DWGCODEPAGE
  3
ANSI_1252
  9
$INSBASE
 10
0.0
 20
0.0
 30
0.0
  9
$EXTMIN
 10
0.0
 20
0.0
 30
0.0
  9
$EXTMAX
 10
311.145508
 20
276.030487
 30
2.0
  9
$LIMMIN
 10
0.0
 20
0.0
  9
$LIMMAX
 10
420.0
 20
297.0
  9
$ORTHOMODE
 70
     0
  9
$REGENMODE
 70
     1
  9
$FILLMODE
 70
     1
  9
$QTEXTMODE
 70
     0
  9
$MIRRTEXT
 70
     1
  9
$LTSCALE
 40
1.0
  9
$ATTMODE
 70
     1
  9
$TEXTSIZE
 40
2.5
  9
$TRACEWID
 40
1.0
  9
$TEXTSTYLE
  7
Standard
  9
$CLAYER
  8
0
  9
$CELTYPE
  6
ByLayer
  9
$CECOLOR
 62
   256
  9
$CELTSCALE
 40
1.0
  9
$DISPSILH
 70
     0
  9
$DIMSCALE
 40
1.0
  9
$DIMASZ
 40
2.5
  9
$DIMEXO
 40
0.625
  9
$DIMDLI
 40
3.75
  9
$DIMRND
 40
0.0
  9
$DIMDLE
 40
0.0
  9
$DIMEXE
 40
1.25
  9
$DIMTP
 40
0.0
  9
$DIMTM
 40
0.0
  9
$DIMTXT
 40
2.5
  9
$DIMCEN
 40
2.5
  9
$DIMTSZ
 40
0.0
  9
$DIMTOL
 70
     0
  9
$DIMLIM
 70
     0
  9
$DIMTIH
 70
     0
  9
$DIMTOH
 70
     0
  9
$DIMSE1
 70
     0
  9
$DIMSE2
 70
     0
  9
$DIMTAD
 70
     1
  9
$DIMZIN
 70
     8
  9
$DIMBLK
  1

  9
$DIMASO
 70
     1
  9
$DIMSHO
 70
     1
  9
$DIMPOST
  1

  9
$DIMAPOST
  1

  9
$DIMALT
 70
     0
  9
$DIMALTD
 70
     3
  9
$DIMALTF
 40
0.03937
  9
$DIMLFAC
 40
1.0
  9
$DIMTOFL
 70
     1
  9
$DIMTVP
 40
0.0
  9
$DIMTIX
 70
     0
  9
$DIMSOXD
 70
     0
  9
$DIMSAH
 70
     0
  9
$DIMBLK1
  1

  9
$DIMBLK2
  1

  9
$DIMSTYLE
  2

  9
$DIMCLRD
 70
     0
  9
$DIMCLRE
 70
     0
  9
$DIMCLRT
 70
     0
  9
$DIMTFAC
 40
1.0
  9
$DIMGAP
 40
0.625
  9
$DIMJUST
 70
     0
  9
$DIMSD1
 70
     0
  9
$DIMSD2
 70
     0
  9
$DIMTOLJ
 70
     0
  9
$DIMTZIN
 70
     8
  9
$DIMALTZ
 70
     0
  9
$DIMALTTZ
 70
     0
  9
$DIMUPT
 70
     0
  9
$DIMDEC
 70
     2
  9
$DIMTDEC
 70
     2
  9
$DIMALTU
 70
     2
  9
$DIMALTTD
 70
     3
  9
$DIMTXSTY
  7
Standard
  9
$DIMAUNIT
 70
     0
  9
$DIMADEC
 70
     0
  9
$DIMALTRND
 40
0.0
  9
$DIMAZIN
 70
     0
  9
$DIMDSEP
 70
    44
  9
$DIMATFIT
 70
     0
  9
$DIMFRAC
 70
     0
  9
$DIMLDRBLK
  1

  9
$DIMLUNIT
 70
     2
  9
$DIMLWD
 70
    -2
  9
$DIMLWE
 70
    -2
  9
$DIMTMOVE
 70
     0
  9
$LUNITS
 70
     2
  9
$LUPREC
 70
     4
  9
$SKETCHINC
 40
1.0
  9
$FILLETRAD
 40
2.5
  9
$AUNITS
 70
     0
  9
$AUPREC
 70
     0
  9
$MENU
  1
.
  9
$ELEVATION
 40
0.0
  9
$PELEVATION
 40
0.0
  9
$THICKNESS
 40
0.0
  9
$LIMCHECK
 70
     0
  9
$CHAMFERA
 40
2.5
  9
$CHAMFERB
 40
2.5
  9
$CHAMFERC
 40
0.0
  9
$CHAMFERD
 40
0.0
  9
$SKPOLY
 70
     0
  9
$TDCREATE
 40
0.000000000
  9
$TDUCREATE
 40
0.000000000
  9
$TDUPDATE
 40
0.000000000
  9
$TDUUPDATE
 40
0.000000000
  9
$TDINDWG
 40
0.0000000000
  9
$TDUSRTIMER
 40
0.0000000000
  9
$USRTIMER
 70
     1
  9
$ANGBASE
 50
0.0
  9
$ANGDIR
 70
     0
  9
$PDMODE
 70
     0
  9
$PDSIZE
 40
0.0
  9
$PLINEWID
 40
0.0
  9
$SPLFRAME
 70
     0
  9
$SPLINETYPE
 70
     6
  9
$SPLINESEGS
 70
     8
  9
$HANDSEED
  5
66
  9
$SURFTAB1
 70
     6
  9
$SURFTAB2
 70
     6
  9
$SURFTYPE
 70
     6
  9
$SURFU
 70
     6
  9
$SURFV
 70
     6
  9
$UCSBASE
  2

  9
$UCSNAME
  2

  9
$UCSORG
 10
0.0
 20
0.0
 30
0.0
  9
$UCSXDIR
 10
1.0
 20
0.0
 30
0.0
  9
$UCSYDIR
 10
0.0
 20
1.0
 30
0.0
  9
$UCSORTHOREF
  2

  9
$UCSORTHOVIEW
 70
     1
  9
$UCSORGTOP
 10
0.0
 20
0.0
 30
0.0
  9
$UCSORGBOTTOM
 10
0.0
 20
0.0
 30
0.0
  9
$UCSORGLEFT
 10
0.0
 20
0.0
 30
0.0
  9
$UCSORGRIGHT
 10
0.0
 20
0.0
 30
0.0
  9
$UCSORGFRONT
 10
0.0
 20
0.0
 30
0.0
  9
$UCSORGBACK
 10
0.0
 20
0.0
 30
0.0
  9
$PUCSBASE
  2

  9
$PUCSNAME
  2

  9
$PUCSORG
 10
0.0
 20
0.0
 30
0.0
  9
$PUCSXDIR
 10
1.0
 20
0.0
 30
0.0
  9
$PUCSYDIR
 10
0.0
 20
1.0
 30
0.0
  9
$PUCSORTHOREF
  2

  9
$PUCSORTHOVIEW
 70
     0
  9
$PUCSORGTOP
 10
0.0
 20
0.0
 30
0.0
  9
$PUCSORGBOTTOM
 10
0.0
 20
0.0
 30
0.0
  9
$PUCSORGLEFT
 10
0.0
 20
0.0
 30
0.0
  9
$PUCSORGRIGHT
 10
0.0
 20
0.0
 30
0.0
  9
$PUCSORGFRONT
 10
0.0
 20
0.0
 30
0.0
  9
$PUCSORGBACK
 10
0.0
 20
0.0
 30
0.0
  9
$USERI1
 70
     0
  9
$USERI2
 70
     0
  9
$USERI3
 70
     0
  9
$USERI4
 70
     0
  9
$USERI5
 70
     0
  9
$USERR1
 40
0.0
  9
$USERR2
 40
0.0
  9
$USERR3
 40
0.0
  9
$USERR4
 40
0.0
  9
$USERR5
 40
0.0
  9
$WORLDVIEW
 70
     1
  9
$SHADEDGE
 70
     3
  9
$SHADEDIF
 70
    70
  9
$TILEMODE
 70
     1
  9
$MAXACTVP
 70
    48
  9
$PINSBASE
 10
0.0
 20
0.0
 30
0.0
  9
$PLIMCHECK
 70
     0
  9
$PEXTMIN
 10
0.0
 20
0.0
 30
0.0
  9
$PEXTMAX
 10
311.145508
 20
276.030487
 30
2.0
  9
$PLIMMIN
 10
0.0
 20
0.0
  9
$PLIMMAX
 10
420.0
 20
297.0
  9
$UNITMODE
 70
     0
  9
$VISRETAIN
 70
     0
  9
$PLINEGEN
 70
     0
  9
$PSLTSCALE
 70
     1
  9
$TREEDEPTH
 70
  3020
  9
$CMLSTYLE
  2
Standard
  9
$CMLJUST
 70
     0
  9
$CMLSCALE
 40
20.0
  9
$PROXYGRAPHICS
 70
     1
  9
$MEASUREMENT
 70
     1
  9
$CELWEIGHT
370
    -1
  9
$ENDCAPS
280
     0
  9
$JOINSTYLE
280
     0
  9
$LWDISPLAY
290
     0
  9
$INSUNITS
 70
     0
  9
$HYPERLINKBASE
  1

  9
$STYLESHEET
  1

  9
$XEDIT
290
     1
  9
$CEPSNTYPE
380
     0
  9
$PSTYLEMODE
290
     0
  9
$FINGERPRINTGUID
  2

  9
$VERSIONGUID
  2

  9
$EXTNAMES
290
     0
  9
$PSVPSCALE
 40
0.0
  0
ENDSEC
  0
SECTION
  2
CLASSES
  0
CLASS
  1
LWPOLYLINE
  2
AcDbPolyline
  3
AutoCAD 2000
 90
        0
280
     0
281
     1
  0
CLASS
  1
IMAGE
  2
AcDbRasterImage
  3
ISM
 90
      127
280
     0
281
     1
  0
CLASS
  1
OLE2FRAME
  2
AcDbOle2Frame
  3
AutoCAD 2000
 90
        0
280
     0
281
     1
  0
CLASS
  1
HATCH
  2
AcDbHatch
  3
AutoCAD 2000
 90
        0
280
     0
281
     1
  0
CLASS
  1
DICTIONARYVAR
  2
AcDbDictionaryVar
  3
AutoCAD 2000
 90
        0
280
     0
281
     0
  0
CLASS
  1
RASTERVARIABLES
  2
AcDbRasterVariables
  3
ISM
 90
        0
280
     0
281
     0
  0
CLASS
  1
IMAGEDEF
  2
AcDbRasterImageDef
  3
ISM
 90
        0
280
     0
281
     0
  0
CLASS
  1
IMAGEDEF_REACTOR
  2
AcDbRasterImageDefReactor
  3
ISM
 90
        1
280
     0
281
     0
  0
CLASS
  1
IDBUFFER
  2
AcDbIdBuffer
  3
AutoCAD 2000
 90
        0
280
     0
281
     0
  0
CLASS
  1
SPATIAL_FILTER
  2
AcDbSpatialFilter
  3
AutoCAD 2000
 90
        0
280
     0
281
     0
  0
CLASS
  1
XRECORD
  2
AcDbXrecord
  3
AutoCAD 2000
 90
        0
280
     0
281
     0
  0
CLASS
  1
SORTENTSTABLE
  2
AcDbSortentsTable
  3
AutoCAD 2000
 90
        0
280
     0
281
     0
  0
CLASS
  1
LAYER_INDEX
  2
AcDbLayerIndex
  3
AutoCAD 2000
 90
        0
280
     0
281
     0
  0
CLASS
  1
SPATIAL_INDEX
  2
AcDbSpatialIndex
  3
AutoCAD 2000
 90
        0
280
     0
281
     0
  0
CLASS
  1
OBJECT_PTR
  2
CAseDLPNTableRecord
  3
"ASE-LPNTableRecord"
 90
        1
280
     0
281
     0
  0
CLASS
  1
LAYOUT
  2
AcDbLayout
  3
AutoCAD 2000
 90
        0
280
     0
281
     0
  0
CLASS
  1
PLOTSETTINGS
  2
AcDbPlotSettings
  3
AutoCAD 2000
 90
        0
280
     0
281
     0
  0
CLASS
  1
ACDBDICTIONARYWDFLT
  2
AcDbDictionaryWithDefault
  3
AutoCAD 2000
 90
        0
280
     0
281
     0
  0
CLASS
  1
ACDBPLACEHOLDER
  2
AcDbPlaceHolder
  3
AutoCAD 2000
 90
        0
280
     0
281
     0
  0
CLASS
  1
VBA_PROJECT
  2
AcDbVbaProject
  3
acadvba
 90
        0
280
     0
281
     0
  0
CLASS
  1
WIPEOUT
  2
AcDbWipeout
  3
WipeOut|AutoCAD Express Tool|expresstools@autodesk.com
 90
      127
280
     0
281
     1
  0
CLASS
  1
WIPEOUTVARIABLES
  2
AcDbWipeoutVariables
  3
WipeOut|AutoCAD Express Tool|expresstools@autodesk.com
 90
        0
280
     0
281
     0
  0
CLASS
  1
RTEXT
  2
RText
  3
RText|AutoCAD Express Tool|expresstools@autodesk.com
 90
        0
280
     0
281
     1
  0
CLASS
  1
ARCALIGNEDTEXT
  2
AcDbArcAlignedText
  3
ATEXT|AutoCAD Express Tool|expresstools@autodesk.com
 90
        0
280
     0
281
     1
  0
ENDSEC
  0
SECTION
  2
TABLES
  0
TABLE
  2
VPORT
  5
7
100
AcDbSymbolTable
 70
     1
  0
VPORT
  5
15
100
AcDbSymbolTableRecord
100
AcDbViewportTableRecord
  2
*ACTIVE
 70
     0
 10
0.0
 20
0.0
 11
1.0
 21
1.0
 12
6.591288
 22
4.579184
 13
0.0
 23
0.0
 14
1.0
 24
1.0
 15
0.0
 25
0.0
 16
0.0
 26
0.0
 36
1.0
 17
0.0
 27
0.0
 37
0.0
 40
9.158369
 41
0.688564
 42
50.0
 43
0.0
 44
0.0
 50
0.0
 51
0.0
 71
     0
 72
   100
 73
     1
 74
     1
 75
     0
 76
     0
 77
     0
 78
     0
281
     0
 65
     0
110
0.0
120
0.0
130
0.0
111
1.0
121
0.0
131
0.0
112
0.0
122
1.0
132
0.0
345
0
346
0
 79
     0
146
0.0
  0
ENDTAB
  0
TABLE
  2
LTYPE
  5
4
100
AcDbSymbolTable
 70
     3
  0
LTYPE
  5
11
100
AcDbSymbolTableRecord
100
AcDbLinetypeTableRecord
  2
ByBlock
 70
    64
  3

 72
    65
 73
     0
 40
0.0
  0
LTYPE
  5
12
100
AcDbSymbolTableRecord
100
AcDbLinetypeTableRecord
  2
ByLayer
 70
    64
  3

 72
    65
 73
     0
 40
0.0
  0
LTYPE
  5
13
100
AcDbSymbolTableRecord
100
AcDbLinetypeTableRecord
  2
Continuous
 70
    64
  3
Solid line
 72
    65
 73
     0
 40
0.0
  0
ENDTAB
  0
TABLE
  2
LAYER
  5
2
100
AcDbSymbolTable
 70
     1
  0
LAYER
  5
14
100
AcDbSymbolTableRecord
100
AcDbLayerTableRecord
  2
0
 70
     0
 62
     7
  6
Continuous
290
     1
370
    -3
390
1D
  0
ENDTAB
  0
TABLE
  2
STYLE
  5
3
100
AcDbSymbolTable
 70
     1
  0
STYLE
  5
17
100
AcDbSymbolTableRecord
100
AcDbTextStyleTableRecord
  2
Standard
 70
     0
 40
0.0
 41
1.0
 50
0.0
 71
     0
 42
0.0
  3
txt
  4

  0
ENDTAB
  0
TABLE
  2
VIEW
  5
5
100
AcDbSymbolTable
 70
     0
  0
ENDTAB
  0
TABLE
  2
UCS
  5
6
100
AcDbSymbolTable
 70
     0
  0
ENDTAB
  0
TABLE
  2
APPID
  5
8
100
AcDbSymbolTable
 70
     1
  0
APPID
  5
16
100
AcDbSymbolTableRecord
100
AcDbRegAppTableRecord
  2
ACAD
 70
     0
  0
ENDTAB
  0
TABLE
  2
DIMSTYLE
  5
9
100
AcDbSymbolTable
 70
     1
100
AcDbDimStyleTable
 71
     0
  0
DIMSTYLE
105
18
100
AcDbSymbolTableRecord
100
AcDbDimStyleTableRecord
  2
Standard
 70
     0
  3

  4

 40
1.0
 41
0.18
 42
0.0625
 43
0.38
 44
0.18
 45
0.0
 46
0.0
 47
0.0
 48
0.0
 71
     0
 72
     0
 73
     1
 74
     1
 75
     0
 76
     0
 77
     0
 78
     0
 79
     0
140
0.18
141
0.09
142
0.0
143
25.4
144
1.0
145
0.0
146
1.0
147
0.09
148
0.0
170
     0
171
     2
172
     0
173
     0
174
     0
175
     0
176
     0
177
     0
178
     0
179
     0
271
     4
272
     4
273
     2
274
     2
275
     0
276
     0
277
     2
278
    46
279
     0
280
     0
281
     0
282
     0
283
     1
284
     0
285
     0
286
     0
288
     0
289
     3
340
17
341
0
342
0
343
0
344
0
371
    -2
372
    -2
  0
ENDTAB
  0
TABLE
  2
BLOCK_RECORD
  5
1
100
AcDbSymbolTable
 70
     0
  0
BLOCK_RECORD
  5
A
100
AcDbSymbolTableRecord
100
AcDbBlockTableRecord
  2
*MODEL_SPACE
340
20
  0
BLOCK_RECORD
  5
B
100
AcDbSymbolTableRecord
100
AcDbBlockTableRecord
  2
*PAPER_SPACE
340
21
  0
ENDTAB
  0
ENDSEC
  0
SECTION
  2
BLOCKS
  0
BLOCK
  5
D
100
AcDbEntity
  8
0
390
0
100
AcDbBlockBegin
  2
*MODEL_SPACE
 70
     0
 10
0.0
 20
0.0
 30
0.0
  3
*MODEL_SPACE
  1

  0
ENDBLK
  5
E
100
AcDbEntity
  8
0
390
0
100
AcDbBlockEnd
  0
BLOCK
  5
F
100
AcDbEntity
 67
     1
  8
0
390
0
100
AcDbBlockBegin
  2
*PAPER_SPACE
 70
     0
 10
0.0
 20
0.0
 30
0.0
  3
*PAPER_SPACE
  1

  0
ENDBLK
  5
10
100
AcDbEntity
 67
     1
  8
0
390
0
100
AcDbBlockEnd
  0
ENDSEC
  0
SECTION
  2
ENTITIES
  0
VIEWPORT
  5
65
100
AcDbEntity
 67
     1
  8
0
370
     0
390
0
 62
     0
 48
0.0
100
AcDbViewport
 10
0.0
 20
0.0
 30
0.0
 40
1000.0
 41
1000.0
 68
     1
 69
     1
 12
0.0
 22
0.0
 13
0.0
 23
0.0
 14
1.0
 24
1.0
 15
1.0
 25
1.0
 16
0.0
 26
0.0
 36
1.0
 17
0.0
 27
0.0
 37
0.0
 42
50.0
 43
0.0
 44
0.0
 45
1000.0
 50
0.0
 51
0.0
 72
   100
 90
        0
340
0
  1

281
     0
 71
     0
 74
     1
110
0.0
120
0.0
130
0.0
111
1.0
121
0.0
131
0.0
112
0.0
122
1.0
132
0.0
345
0
346
0
 79
     0
146
0.0
  0
LINE
  5
24
100
AcDbEntity
  8
0
370
    35
390
0
 62
     7
100
AcDbLine
 10
126.999496
 20
90.110497
 30
0.0
 11
294.061584
 21
90.110497
 31
0.0
210
0.0
220
0.0
230
1.0
  0
LINE
  5
25
100
AcDbEntity
  8
0
370
    35
390
0
 62
     7
100
AcDbLine
 10
126.999496
 20
90.110497
 30
0.0
 11
126.999496
 21
214.602493
 31
0.0
210
0.0
220
0.0
230
1.0
  0
ARC
  5
26
100
AcDbEntity
  8
0
370
    35
390
0
 62
     7
100
AcDbCircle
 10
240.487488
 20
268.030487
 30
0.0
 40
8.0
210
0.0
220
0.0
230
1.0
100
AcDbArc
 50
26.831357
 51
146.855884
  0
ARC
  5
27
100
AcDbEntity
  8
0
370
    35
390
0
 62
     7
100
AcDbCircle
 10
220.374542
 20
281.164032
 30
0.0
 40
16.021262
210
0.0
220
0.0
230
1.0
100
AcDbArc
 50
269.521379
 51
326.855889
  0
LINE
  5
28
100
AcDbEntity
  8
0
370
    35
390
0
 62
     7
100
AcDbLine
 10
220.240707
 20
265.143341
 30
0.0
 11
198.634766
 21
265.323822
 31
0.0
210
0.0
220
0.0
230
1.0
  0
ARC
  5
29
100
AcDbEntity
  8
0
370
    35
390
0
 62
     7
100
AcDbCircle
 10
198.934021
 20
301.14856
 30
0.0
 40
35.825967
210
0.0
220
0.0
230
1.0
100
AcDbArc
 50
235.559882
 51
269.521379
  0
ARC
  5
2A
100
AcDbEntity
  8
0
370
    35
390
0
 62
     7
100
AcDbCircle
 10
174.148499
 20
265.004486
 30
0.0
 40
8.0
210
0.0
220
0.0
230
1.0
100
AcDbArc
 50
55.559887
 51
179.80376
  0
ARC
  5
2B
100
AcDbEntity
  8
0
370
    35
390
0
 62
     7
100
AcDbCircle
 10
149.981125
 20
265.08728
 30
0.0
 40
16.167507
210
0.0
220
0.0
230
1.0
100
AcDbArc
 50
306.980899
 51
359.803761
  0
LINE
  5
2C
100
AcDbEntity
  8
0
370
    35
390
0
 62
     7
100
AcDbLine
 10
139.997665
 20
237.330582
 30
0.0
 11
159.706665
 21
252.172089
 31
0.0
210
0.0
220
0.0
230
1.0
  0
ARC
  5
2D
100
AcDbEntity
  8
0
370
    35
390
0
 62
     7
100
AcDbCircle
 10
125.183472
 20
257.003326
 30
0.0
 40
24.62676
210
0.0
220
0.0
230
1.0
100
AcDbArc
 50
263.253335
 51
306.980899
  0
ARC
  5
2E
100
AcDbEntity
  8
0
370
    35
390
0
 62
     7
100
AcDbCircle
 10
121.350494
 20
224.602493
 30
0.0
 40
8.0
210
0.0
220
0.0
230
1.0
100
AcDbArc
 50
83.25334
 51
218.83947
  0
ARC
  5
2F
100
AcDbEntity
  8
0
370
    35
390
0
 62
     7
100
AcDbCircle
 10
99.155228
 20
206.731873
 30
0.0
 40
20.49542
210
0.0
220
0.0
230
1.0
100
AcDbArc
 50
0.420269
 51
38.839468
  0
LINE
  5
30
100
AcDbEntity
  8
0
370
    35
390
0
 62
     7
100
AcDbLine
 10
119.650101
 20
206.882202
 30
0.0
 11
119.874039
 21
176.352615
 31
0.0
210
0.0
220
0.0
230
1.0
  0
ARC
  5
31
100
AcDbEntity
  8
0
370
    35
390
0
 62
     7
100
AcDbCircle
 10
108.082016
 20
176.266113
 30
0.0
 40
11.792343
210
0.0
220
0.0
230
1.0
100
AcDbArc
 50
296.779086
 51
0.420269
  0
ARC
  5
32
100
AcDbEntity
  8
0
370
    35
390
0
 62
     7
100
AcDbCircle
 10
116.999496
 20
158.596497
 30
0.0
 40
8.0
210
0.0
220
0.0
230
1.0
100
AcDbArc
 50
116.779091
 51
235.004465
  0
ARC
  5
33
100
AcDbEntity
  8
0
370
    35
390
0
 62
     7
100
AcDbCircle
 10
102.797592
 20
138.310699
 30
0.0
 40
16.763029
210
0.0
220
0.0
230
1.0
100
AcDbArc
 50
0.0
 51
55.004466
  0
LINE
  5
34
100
AcDbEntity
  8
0
370
    35
390
0
 62
     7
100
AcDbLine
 10
119.560608
 20
138.310699
 30
0.0
 11
119.560608
 21
112.649849
 31
0.0
210
0.0
220
0.0
230
1.0
  0
ARC
  5
35
100
AcDbEntity
  8
0
370
    35
390
0
 62
     7
100
AcDbCircle
 10
103.304901
 20
112.649849
 30
0.0
 40
16.255712
210
0.0
220
0.0
230
1.0
100
AcDbArc
 50
303.960036
 51
0.0
  0
ARC
  5
36
100
AcDbEntity
  8
0
370
    35
390
0
 62
     7
100
AcDbCircle
 10
116.854492
 20
92.531494
 30
0.0
 40
8.0
210
0.0
220
0.0
230
1.0
100
AcDbArc
 50
123.960038
 51
242.166888
  0
ARC
  5
37
100
AcDbEntity
  8
0
370
    35
390
0
 62
     7
100
AcDbCircle
 10
107.684067
 20
75.162582
 30
0.0
 40
11.641179
210
0.0
220
0.0
230
1.0
100
AcDbArc
 50
0.183086
 51
62.166886
  0
LINE
  5
38
100
AcDbEntity
  8
0
370
    35
390
0
 62
     7
 48
0.424614
100
AcDbLine
 10
119.325195
 20
75.199776
 30
0.0
 11
119.379456
 21
58.215294
 31
0.0
210
0.0
220
0.0
230
1.0
  0
ARC
  5
39
100
AcDbEntity
  8
0
370
    35
390
0
 62
     7
100
AcDbCircle
 10
158.208115
 20
58.339371
 30
0.0
 40
38.828844
210
0.0
220
0.0
230
1.0
100
AcDbArc
 50
180.183085
 51
210.276393
  0
ARC
  5
3A
100
AcDbEntity
  8
0
370
    35
390
0
 62
     7
100
AcDbCircle
 10
117.512329
 20
34.581161
 30
0.0
 40
8.294388
210
0.0
220
0.0
230
1.0
100
AcDbArc
 50
339.461681
 51
30.276395
  0
ARC
  5
3B
100
AcDbEntity
  8
0
370
    35
390
0
 62
     7
100
AcDbCircle
 10
132.809494
 20
28.969498
 30
0.0
 40
8.0
210
0.0
220
0.0
230
1.0
100
AcDbArc
 50
160.262302
 51
314.791599
  0
ARC
  5
3C
100
AcDbEntity
  8
0
370
    35
390
0
 62
     7
100
AcDbCircle
 10
153.053879
 20
8.577301
 30
0.0
 40
20.734588
210
0.0
220
0.0
230
1.0
100
AcDbArc
 50
89.434231
 51
134.791598
  0
LINE
  5
3D
100
AcDbEntity
  8
0
370
    35
390
0
 62
     7
100
AcDbLine
 10
153.258621
 20
29.310883
 30
0.0
 11
178.582077
 21
29.060822
 31
0.0
210
0.0
220
0.0
230
1.0
  0
ARC
  5
3E
100
AcDbEntity
  8
0
370
    35
390
0
 62
     7
100
AcDbCircle
 10
178.3358
 20
4.121063
 30
0.0
 40
24.940965
210
0.0
220
0.0
230
1.0
100
AcDbArc
 50
51.532312
 51
89.434231
  0
ARC
  5
3F
100
AcDbEntity
  8
0
370
    35
390
0
 62
     7
100
AcDbCircle
 10
198.827484
 20
29.912491
 30
0.0
 40
8.0
210
0.0
220
0.0
230
1.0
100
AcDbArc
 50
231.532311
 51
10.455065
  0
ARC
  5
40
100
AcDbEntity
  8
0
370
    35
390
0
 62
     7
100
AcDbCircle
 10
221.240997
 20
34.048416
 30
0.0
 40
14.791899
210
0.0
220
0.0
230
1.0
100
AcDbArc
 50
156.001111
 51
190.455061
  0
LINE
  5
41
100
AcDbEntity
  8
0
370
    35
390
0
 62
     7
100
AcDbLine
 10
207.727814
 20
40.06456
 30
0.0
 11
218.366821
 21
63.961441
 31
0.0
210
0.0
220
0.0
230
1.0
  0
ARC
  5
42
100
AcDbEntity
  8
0
370
    35
390
0
 62
     7
100
AcDbCircle
 10
232.635422
 20
57.608986
 30
0.0
 40
15.618782
210
0.0
220
0.0
230
1.0
100
AcDbArc
 50
90.033648
 51
156.001111
  0
LINE
  5
43
100
AcDbEntity
  8
0
370
    35
390
0
 62
     7
100
AcDbLine
 10
232.626251
 20
73.227768
 30
0.0
 11
279.695129
 21
73.255409
 31
0.0
210
0.0
220
0.0
230
1.0
  0
ARC
  5
44
100
AcDbEntity
  8
0
370
    35
390
0
 62
     7
100
AcDbCircle
 10
279.837341
 20
-168.914093
 30
0.0
 40
242.16955
210
0.0
220
0.0
230
1.0
100
AcDbArc
 50
86.871038
 51
90.033648
  0
ARC
  5
45
100
AcDbEntity
  8
0
370
    35
390
0
 62
     7
100
AcDbCircle
 10
293.492493
 20
80.882492
 30
0.0
 40
8.0
210
0.0
220
0.0
230
1.0
100
AcDbArc
 50
266.871033
 51
7.350557
  0
ARC
  5
46
100
AcDbEntity
  8
0
370
    35
390
0
 62
     7
100
AcDbCircle
 10
428.286621
 20
98.270927
 30
0.0
 40
127.911061
210
0.0
220
0.0
230
1.0
100
AcDbArc
 50
180.102489
 51
187.350563
  0
LINE
  5
47
100
AcDbEntity
  8
0
370
    35
390
0
 62
     7
 48
0.496571
100
AcDbLine
 10
300.34024
 20
117.904922
 30
0.0
 11
300.375763
 21
98.042122
 31
0.0
210
0.0
220
0.0
230
1.0
  0
ARC
  5
48
100
AcDbEntity
  8
0
370
    35
390
0
 62
     7
100
AcDbCircle
 10
314.53772
 20
117.930321
 30
0.0
 40
14.197488
210
0.0
220
0.0
230
1.0
100
AcDbArc
 50
121.412418
 51
180.102489
  0
ARC
  5
49
100
AcDbEntity
  8
0
370
    35
390
0
 62
     7
100
AcDbCircle
 10
302.968506
 20
136.874496
 30
0.0
 40
8.0
210
0.0
220
0.0
230
1.0
100
AcDbArc
 50
301.412427
 51
58.774276
  0
ARC
  5
4A
100
AcDbEntity
  8
0
370
    35
390
0
 62
     7
100
AcDbCircle
 10
314.217041
 20
155.429245
 30
0.0
 40
13.698126
210
0.0
220
0.0
230
1.0
100
AcDbArc
 50
180.155846
 51
238.774278
  0
LINE
  5
4B
100
AcDbEntity
  8
0
370
    35
390
0
 62
     7
 48
0.46309
100
AcDbLine
 10
300.518951
 20
155.391983
 30
0.0
 11
300.468567
 21
173.915527
 31
0.0
210
0.0
220
0.0
230
1.0
  0
ARC
  5
4C
100
AcDbEntity
  8
0
370
    35
390
0
 62
     7
100
AcDbCircle
 10
313.009979
 20
173.949646
 30
0.0
 40
12.54144
210
0.0
220
0.0
230
1.0
100
AcDbArc
 50
118.699986
 51
180.155846
  0
ARC
  5
4D
100
AcDbEntity
  8
0
370
    35
390
0
 62
     7
100
AcDbCircle
 10
303.145508
 20
191.967499
 30
0.0
 40
8.0
210
0.0
220
0.0
230
1.0
100
AcDbArc
 50
298.699988
 51
69.227922
  0
ARC
  5
4E
100
AcDbEntity
  8
0
370
    35
390
0
 62
     7
100
AcDbCircle
 10
308.615143
 20
206.387604
 30
0.0
 40
7.4226
210
0.0
220
0.0
230
1.0
100
AcDbArc
 50
188.482298
 51
249.227924
  0
ARC
  5
4F
100
AcDbEntity
  8
0
370
    35
390
0
 62
     7
100
AcDbCircle
 10
227.302383
 20
194.261017
 30
0.0
 40
74.789431
210
0.0
220
0.0
230
1.0
100
AcDbArc
 50
8.482298
 51
21.834305
  0
LINE
  5
50
100
AcDbEntity
  8
0
370
    35
390
0
 62
     7
 48
0.285003
100
AcDbLine
 10
296.726685
 20
222.076981
 30
0.0
 11
292.486694
 21
232.659271
 31
0.0
210
0.0
220
0.0
230
1.0
  0
ARC
  5
51
100
AcDbEntity
  8
0
370
    35
390
0
 62
     7
100
AcDbCircle
 10
301.074524
 20
236.100113
 30
0.0
 40
9.251477
210
0.0
220
0.0
230
1.0
100
AcDbArc
 50
137.928936
 51
201.834307
  0
ARC
  5
52
100
AcDbEntity
  8
0
370
    35
390
0
 62
     7
100
AcDbCircle
 10
288.268494
 20
247.659485
 30
0.0
 40
8.0
210
0.0
220
0.0
230
1.0
100
AcDbArc
 50
317.928931
 51
86.248166
  0
ARC
  5
53
100
AcDbEntity
  8
0
370
    35
390
0
 62
     7
100
AcDbCircle
 10
289.983643
 20
273.814575
 30
0.0
 40
18.211248
210
0.0
220
0.0
230
1.0
100
AcDbArc
 50
232.080119
 51
266.248161
  0
ARC
  5
54
100
AcDbEntity
  8
0
370
    35
390
0
 62
     7
100
AcDbCircle
 10
261.510071
 20
237.264832
 30
0.0
 40
28.120473
210
0.0
220
0.0
230
1.0
100
AcDbArc
 50
52.080121
 51
87.006194
  0
LINE
  5
55
100
AcDbEntity
  8
0
370
    35
390
0
 62
     7
 48
0.154874
100
AcDbLine
 10
262.978729
 20
265.346924
 30
0.0
 11
256.792206
 21
265.670471
 31
0.0
210
0.0
220
0.0
230
1.0
  0
ARC
  5
56
100
AcDbEntity
  8
0
370
    35
390
0
 62
     7
100
AcDbCircle
 10
257.36203
 20
276.56604
 30
0.0
 40
10.910456
210
0.0
220
0.0
230
1.0
100
AcDbArc
 50
206.831355
 51
267.006196
  0
LINE
  5
57
100
AcDbEntity
  8
0
370
    35
390
0
 62
     7
100
AcDbLine
 10
294.061584
 20
214.602493
 30
0.0
 11
126.999496
 21
214.602493
 31
0.0
210
0.0
220
0.0
230
1.0
  0
LINE
  5
58
100
AcDbEntity
  8
0
370
    35
390
0
 62
     7
100
AcDbLine
 10
294.061584
 20
214.602493
 30
0.0
 11
294.061584
 21
90.110497
 31
0.0
210
0.0
220
0.0
230
1.0
  0
CIRCLE
  5
59
100
AcDbEntity
  8
0
370
    35
390
0
 62
     7
100
AcDbCircle
 10
288.268494
 20
247.659485
 30
0.0
 40
3.1
210
0.0
220
0.0
230
1.0
  0
CIRCLE
  5
5A
100
AcDbEntity
  8
0
370
    35
390
0
 62
     7
100
AcDbCircle
 10
240.487488
 20
268.030487
 30
0.0
 40
3.1
210
0.0
220
0.0
230
1.0
  0
CIRCLE
  5
5B
100
AcDbEntity
  8
0
370
    35
390
0
 62
     7
100
AcDbCircle
 10
174.148499
 20
265.004486
 30
0.0
 40
3.1
210
0.0
220
0.0
230
1.0
  0
CIRCLE
  5
5C
100
AcDbEntity
  8
0
370
    35
390
0
 62
     7
100
AcDbCircle
 10
121.350494
 20
224.602493
 30
0.0
 40
3.1
210
0.0
220
0.0
230
1.0
  0
CIRCLE
  5
5D
100
AcDbEntity
  8
0
370
    35
390
0
 62
     7
100
AcDbCircle
 10
116.999496
 20
158.596497
 30
0.0
 40
3.1
210
0.0
220
0.0
230
1.0
  0
CIRCLE
  5
5E
100
AcDbEntity
  8
0
370
    35
390
0
 62
     7
100
AcDbCircle
 10
116.854492
 20
92.531494
 30
0.0
 40
3.1
210
0.0
220
0.0
230
1.0
  0
CIRCLE
  5
5F
100
AcDbEntity
  8
0
370
    35
390
0
 62
     7
100
AcDbCircle
 10
132.809494
 20
28.969498
 30
0.0
 40
3.1
210
0.0
220
0.0
230
1.0
  0
CIRCLE
  5
60
100
AcDbEntity
  8
0
370
    35
390
0
 62
     7
100
AcDbCircle
 10
198.827484
 20
29.912491
 30
0.0
 40
3.1
210
0.0
220
0.0
230
1.0
  0
CIRCLE
  5
61
100
AcDbEntity
  8
0
370
    35
390
0
 62
     7
100
AcDbCircle
 10
227.848495
 20
80.110497
 30
0.0
 40
3.1
210
0.0
220
0.0
230
1.0
  0
CIRCLE
  5
62
100
AcDbEntity
  8
0
370
    35
390
0
 62
     7
100
AcDbCircle
 10
293.492493
 20
80.882492
 30
0.0
 40
3.1
210
0.0
220
0.0
230
1.0
  0
CIRCLE
  5
63
100
AcDbEntity
  8
0
370
    35
390
0
 62
     7
100
AcDbCircle
 10
302.968506
 20
136.874496
 30
0.0
 40
3.1
210
0.0
220
0.0
230
1.0
  0
CIRCLE
  5
64
100
AcDbEntity
  8
0
370
    35
390
0
 62
     7
100
AcDbCircle
 10
303.145508
 20
191.967499
 30
0.0
 40
3.1
210
0.0
220
0.0
230
1.0
  0
ENDSEC
  0
SECTION
  2
OBJECTS
  0
DICTIONARY
  5
19
100
AcDbDictionary
280
     0
281
     1
  3
ACAD_GROUP
350
1A
  3
ACAD_MLINESTYLE
350
1B
  3
ACAD_LAYOUT
350
1E
  3
ACAD_PLOTSETTINGS
350
22
  3
ACAD_PLOTSTYLENAME
350
1F
  3
ACAD_WIPEOUT_VARS
350
23
  0
DICTIONARY
  5
1A
102
{ACAD_REACTORS
330
19
102
}
100
AcDbDictionary
280
     0
281
     1
  0
DICTIONARY
  5
1B
102
{ACAD_REACTORS
330
19
102
}
100
AcDbDictionary
280
     0
281
     1
  3
Standard
350
1C
  0
MLINESTYLE
  5
1C
102
{ACAD_REACTORS
330
1B
102
}
100
AcDbMlineStyle
  2
Standard
 70
     0
  3

 62
     0
 51
90.0
 52
90.0
 71
     2
 49
0.5
 62
   256
  6
ByLayer
 49
-0.5
 62
   256
  6
ByLayer
  0
ACDBDICTIONARYWDFLT
  5
1F
102
{ACAD_REACTORS
330
19
102
}
100
AcDbDictionary
281
     1
  3
Normal
350
1D
100
AcDbDictionaryWithDefault
340
1D
  0
ACDBPLACEHOLDER
  5
1D
102
{ACAD_REACTORS
330
1F
102
}
  0
LAYOUT
  5
20
102
{ACAD_REACTORS
330
1E
102
}
100
AcDbPlotSettings
  1

  2

  4

  6

 40
0.0
 41
0.0
 42
0.0
 43
0.0
 44
0.0
 45
0.0
 46
0.0
 47
0.0
 48
0.0
 49
0.0
140
0.0
141
0.0
142
1.0
143
1.0
 70
  1024
 72
     0
 73
     0
 74
     0
  7

 75
     0
147
1.0
148
0.0
149
0.0
100
AcDbLayout
  1
Model
 70
     0
 71
     0
 10
0.0
 20
0.0
 11
0.0
 21
0.0
 12
0.0
 22
0.0
 32
0.0
 14
0.0
 24
0.0
 34
0.0
 15
0.0
 25
0.0
 35
0.0
146
0.0
 13
0.0
 23
0.0
 33
0.0
 16
0.0
 26
0.0
 36
0.0
 17
0.0
 27
0.0
 37
0.0
 76
     0
330
A
331
0
345
0
346
0
  0
LAYOUT
  5
21
102
{ACAD_REACTORS
330
1E
102
}
100
AcDbPlotSettings
  1

  2

  4

  6

 40
0.0
 41
0.0
 42
0.0
 43
0.0
 44
0.0
 45
0.0
 46
0.0
 47
0.0
 48
0.0
 49
0.0
140
0.0
141
0.0
142
1.0
143
1.0
 70
     0
 72
     0
 73
     0
 74
     0
  7

 75
     0
147
1.0
148
0.0
149
0.0
100
AcDbLayout
  1
Layout1
 70
     0
 71
     0
 10
0.0
 20
0.0
 11
0.0
 21
0.0
 12
0.0
 22
0.0
 32
0.0
 14
0.0
 24
0.0
 34
0.0
 15
0.0
 25
0.0
 35
0.0
146
0.0
 13
0.0
 23
0.0
 33
0.0
 16
0.0
 26
0.0
 36
0.0
 17
0.0
 27
0.0
 37
0.0
 76
     0
330
B
331
0
345
0
346
0
  0
DICTIONARY
  5
1E
102
{ACAD_REACTORS
330
19
102
}
100
AcDbDictionary
280
     0
281
     1
  3
Layout1
350
21
  3
Model
350
20
  0
DICTIONARY
  5
22
102
{ACAD_REACTORS
330
19
102
}
100
AcDbDictionary
280
     0
281
     1
  0
WIPEOUTVARIABLES
  5
23
100
AcDbWipeoutVariables
 70
     1
  0
ENDSEC
  0
EOF
