<?xml version="1.0" encoding="utf-8" ?><!DOCTYPE svg PUBLIC "-//W3C//DTD SVG 1.1//EN" "http://www.w3.org/Graphics/SVG/1.1/DTD/svg11.dtd" 
[ <!ATTLIST svg 
  xmlns:dsy CDATA #FIXED "http://www.3ds.com/print"  
    dsy:text-version CDATA #IMPLIED > 

  <!ATTLIST text 
  xmlns:dsy CDATA #FIXED "http://www.3ds.com/print" 
    dsy:text-version CDATA #IMPLIED > 
]><svg xmlns="http://www.w3.org/2000/svg" xmlns:dsy="http://www.3ds.com/print" dsy:text-version="18000" width="297" height="210" viewBox="0 0 297 210" version="1.1"><g stroke="rgb(0, 0, 0)" stroke-width="0.13" stroke-linecap="butt" stroke-linejoin="miter" fill="none"><path d="M 105.073 136.546 L 116.762 136.546"/><path d="M 105.073 36.5462 L 116.762 36.5462"/><path d="M 38.0727 34.5462 L 38.0727 28.0895"/><path d="M 103.073 34.5462 L 103.073 28.0895"/><path d="M 235.404 134.559 L 248.161 134.559"/><path d="M 235.404 28.5586 L 248.161 28.5586"/><path d="M 162.404 26.5586 L 162.404 15.8652"/><path d="M 233.404 26.5586 L 233.404 15.8652"/></g><g stroke="rgb(0, 0, 0)" stroke-width="0.35" stroke-linecap="butt" stroke-linejoin="miter" fill="none"><path d="M 38.0727 36.5462 L 38.0727 136.546"/><path d="M 103.073 136.546 L 38.0727 136.546"/><path d="M 103.073 136.546 L 103.073 36.5462"/><path d="M 38.0727 36.5462 L 103.073 36.5462"/><path d="M 85.5727 120.546 L 85.5727 126.546"/><path d="M 93.5727 120.546 L 85.5727 120.546"/><path d="M 93.5727 126.546 L 85.5727 126.546"/><path d="M 93.5727 126.546 L 93.5727 120.546"/><path d="M 47.5727 120.546 L 47.5727 126.546"/><path d="M 55.5727 120.546 L 47.5727 120.546"/><path d="M 55.5727 126.546 L 47.5727 126.546"/><path d="M 55.5727 126.546 L 55.5727 120.546"/><path d="M 88.0727 63.5462 L 88.0727 69.5462"/><path d="M 88.0727 63.5462 L 96.0727 63.5462"/><path d="M 96.0727 69.5462 L 88.0727 69.5462"/><path d="M 96.0727 69.5462 L 96.0727 63.5462"/><path d="M 53.0727 69.5462 L 53.0727 63.5462"/><path d="M 53.0727 69.5462 L 45.0727 69.5462"/><path d="M 45.0727 63.5462 L 45.0727 69.5462"/><path d="M 45.0727 63.5462 L 53.0727 63.5462"/><path d="M 162.404 28.5586 L 162.404 134.559"/><path d="M 233.404 134.559 L 162.404 134.559"/><path d="M 233.404 134.559 L 233.404 28.5586"/><path d="M 162.404 28.5586 L 233.404 28.5586"/></g><g stroke="rgb(0, 0, 0)" stroke-width="0.13" stroke-linecap="butt" stroke-linejoin="miter" fill="none"><path d="M 71.2939 147.248 L 70.835 147.248 L 70.9358 147.783 L 71.188 148.176 L 71.5763 148.413 L 72.1008 148.499 L 72.6203 148.418 L 73.0086 148.196 L 73.2557 147.848 L 73.3465 147.389 L 73.2709 146.976 L 73.059 146.708 L 72.7161 146.532 L 72.2572 146.401 L 71.8638 146.305 L 71.6066 146.194 L 71.4603 146.033 L 71.4149 145.78 L 71.4603 145.553 L 71.5915 145.382 L 71.7932 145.266 L 72.0706 145.226 L 72.353 145.276 L 72.5749 145.412 L 72.7211 145.639 L 72.7917 145.947 L 73.2507 145.947 L 73.2507 145.937 L 73.17 145.463 L 72.933 145.11 L 72.5598 144.888 L 72.0554 144.812 L 71.6015 144.888 L 71.2485 145.1 L 71.0216 145.427 L 70.9409 145.851 L 71.0064 146.229 L 71.1981 146.486 L 71.5007 146.658 L 71.9142 146.789 L 72.3227 146.905 L 72.6304 147.016 L 72.817 147.177 L 72.8825 147.44 L 72.822 147.707 L 72.6657 147.909 L 72.4286 148.035 L 72.121 148.075 L 71.7781 148.02 L 71.5158 147.858 L 71.3494 147.596 L 71.2939 147.248 L 71.2939 147.248 z M 73.9517 147.051 L 74.0324 147.667 L 74.2644 148.12 L 74.6325 148.403 L 75.1268 148.499 L 75.616 148.403 L 75.9841 148.126 L 76.2161 147.672 L 76.3018 147.051 L 76.2161 146.436 L 75.9841 145.977 L 75.616 145.7 L 75.1268 145.599 L 74.6325 145.7 L 74.2644 145.982 L 74.0324 146.436 L 73.9517 147.051 L 73.9517 147.051 z M 74.4056 147.046 L 74.451 146.592 L 74.5922 146.265 L 74.8191 146.063 L 75.1268 145.992 L 75.4294 146.063 L 75.6563 146.26 L 75.7975 146.592 L 75.8479 147.046 L 75.7975 147.505 L 75.6563 147.838 L 75.4294 148.04 L 75.1268 148.105 L 74.8191 148.04 L 74.5922 147.838 L 74.451 147.505 L 74.4056 147.046 L 74.4056 147.046 z M 78.8436 146.592 L 79.2824 146.592 L 79.1916 146.189 L 78.9748 145.871 L 78.6369 145.674 L 78.1981 145.599 L 77.7139 145.7 L 77.3458 145.982 L 77.1138 146.441 L 77.0331 147.056 L 77.1088 147.667 L 77.3357 148.12 L 77.6938 148.403 L 78.183 148.499 L 78.6167 148.423 L 78.9546 148.211 L 79.1866 147.878 L 79.2874 147.435 L 78.8638 147.435 L 78.7882 147.717 L 78.6469 147.929 L 78.4452 148.06 L 78.1981 148.1 L 77.8905 148.035 L 77.6686 147.833 L 77.5324 147.505 L 77.487 147.041 L 77.5324 146.587 L 77.6736 146.26 L 77.9005 146.058 L 78.1981 145.987 L 78.4603 146.033 L 78.657 146.149 L 78.7882 146.34 L 78.8436 146.592 L 78.8436 146.592 z M 81.0374 145.155 L 81.0374 148.03 L 80.1246 148.03 L 80.1246 148.403 L 82.389 148.403 L 82.389 148.03 L 81.4812 148.03 L 81.4812 144.782 L 80.3415 144.782 L 80.3415 145.155 L 81.0374 145.155 L 81.0374 145.155 z M 83.5792 147.177 L 85.3544 147.177 L 85.3595 146.971 L 85.2788 146.391 L 85.0569 145.957 L 84.7039 145.695 L 84.2348 145.599 L 83.7759 145.7 L 83.4229 145.982 L 83.1959 146.441 L 83.1152 147.046 L 83.1909 147.667 L 83.4178 148.12 L 83.7658 148.403 L 84.2197 148.499 L 84.6131 148.433 L 84.9359 148.262 L 85.1729 147.989 L 85.3091 147.626 L 84.8703 147.626 L 84.7795 147.828 L 84.6484 147.979 L 84.2752 148.1 L 83.9877 148.045 L 83.7709 147.868 L 83.6297 147.581 L 83.5792 147.193 L 83.5792 147.177 L 83.5792 147.177 z M 83.5792 146.804 L 83.6347 146.456 L 83.7709 146.199 L 83.9776 146.043 L 84.25 145.987 L 84.5173 146.043 L 84.724 146.199 L 84.8501 146.456 L 84.8955 146.804 L 83.5792 146.804 L 83.5792 146.804 z" stroke="none" fill-rule="evenodd" fill="rgb(0, 0, 0)"/></g><g stroke="rgb(0, 0, 0)" stroke-width="0.13" stroke-linecap="butt" stroke-linejoin="miter" fill="none"><path d="M 72.9683 150.945 L 72.0907 153.925 L 71.188 150.945 L 70.7089 150.945 L 71.8386 154.45 L 72.3429 154.45 L 73.4474 150.945 L 72.9683 150.945 L 72.9683 150.945 z M 76.1707 151.741 L 75.7269 151.741 L 75.7269 153.305 L 75.6765 153.668 L 75.5302 153.93 L 75.3033 154.092 L 75.0057 154.142 L 74.7687 154.102 L 74.6174 153.981 L 74.5317 153.774 L 74.5115 153.481 L 74.5115 151.741 L 74.0677 151.741 L 74.0677 153.522 L 74.0828 153.88 L 74.1786 154.177 L 74.4711 154.45 L 74.9402 154.546 L 75.1923 154.51 L 75.4092 154.419 L 75.5958 154.263 L 75.7471 154.036 L 75.7471 154.45 L 76.1707 154.45 L 76.1707 151.741 L 76.1707 151.741 z M 77.5072 153.224 L 79.2824 153.224 L 79.2874 153.017 L 79.2067 152.437 L 78.9848 152.004 L 78.6318 151.741 L 78.1628 151.646 L 77.7039 151.747 L 77.3508 152.029 L 77.1239 152.488 L 77.0432 153.093 L 77.1188 153.713 L 77.3458 154.167 L 77.6938 154.45 L 78.1477 154.546 L 78.541 154.48 L 78.8638 154.309 L 79.1008 154.036 L 79.237 153.673 L 78.7982 153.673 L 78.7075 153.875 L 78.5763 154.026 L 78.2031 154.147 L 77.9157 154.092 L 77.6988 153.915 L 77.5576 153.628 L 77.5072 153.239 L 77.5072 153.224 L 77.5072 153.224 z M 77.5072 152.851 L 77.5627 152.503 L 77.6988 152.246 L 77.9056 152.089 L 78.1779 152.034 L 78.4452 152.089 L 78.652 152.246 L 78.7781 152.503 L 78.8235 152.851 L 77.5072 152.851 L 77.5072 152.851 z M 84.8552 154.031 L 84.8552 154.45 L 85.299 154.45 L 85.299 150.829 L 84.8602 150.829 L 84.8602 152.155 L 84.5223 151.772 L 84.3155 151.681 L 84.0785 151.646 L 83.6498 151.747 L 83.317 152.029 L 83.1001 152.483 L 83.0245 153.093 L 83.1001 153.703 L 83.317 154.162 L 83.6498 154.45 L 84.0785 154.546 L 84.3155 154.51 L 84.5274 154.419 L 84.8552 154.031 L 84.8552 154.031 z M 84.1542 152.044 L 84.4467 152.115 L 84.6686 152.311 L 84.7997 152.639 L 84.8501 153.093 L 84.7997 153.552 L 84.6686 153.88 L 84.4467 154.082 L 84.1542 154.147 L 83.8768 154.082 L 83.665 153.88 L 83.5238 153.547 L 83.4784 153.093 L 83.5238 152.644 L 83.665 152.316 L 83.8768 152.115 L 84.1542 152.044 L 84.1542 152.044 z M 86.6152 153.224 L 88.3905 153.224 L 88.3955 153.017 L 88.3148 152.437 L 88.0929 152.004 L 87.7399 151.741 L 87.2709 151.646 L 86.8119 151.747 L 86.4589 152.029 L 86.232 152.488 L 86.1513 153.093 L 86.2269 153.713 L 86.4539 154.167 L 86.8018 154.45 L 87.2557 154.546 L 87.6491 154.48 L 87.9719 154.309 L 88.2089 154.036 L 88.3451 153.673 L 87.9063 153.673 L 87.8155 153.875 L 87.6844 154.026 L 87.3112 154.147 L 87.0238 154.092 L 86.8069 153.915 L 86.6657 153.628 L 86.6152 153.239 L 86.6152 153.224 L 86.6152 153.224 z M 86.6152 152.851 L 86.6707 152.503 L 86.8069 152.246 L 87.0137 152.089 L 87.286 152.034 L 87.5533 152.089 L 87.7601 152.246 L 87.8861 152.503 L 87.9315 152.851 L 86.6152 152.851 L 86.6152 152.851 z M 92.9143 152.211 L 92.9143 154.45 L 93.3581 154.45 L 93.3581 152.211 L 94.3667 152.211 L 94.3667 151.832 L 93.3581 151.832 L 93.3581 151.666 L 93.3934 151.464 L 93.5094 151.328 L 93.706 151.247 L 93.9885 151.217 L 94.3667 151.237 L 94.3667 150.854 L 93.8876 150.829 L 93.4539 150.874 L 93.1513 151.01 L 92.9697 151.247 L 92.9143 151.585 L 92.9143 151.832 L 92.1023 151.832 L 92.1023 152.211 L 92.9143 152.211 L 92.9143 152.211 z M 96.9438 154.097 L 96.9438 154.112 L 96.969 154.283 L 97.0447 154.404 L 97.3624 154.5 L 97.6095 154.46 L 97.6095 154.117 L 97.5036 154.132 L 97.3624 154.066 L 97.3372 153.865 L 97.3372 152.463 L 97.2766 152.105 L 97.1001 151.852 L 96.7925 151.701 L 96.3588 151.646 L 95.9351 151.706 L 95.6225 151.878 L 95.4258 152.145 L 95.3602 152.498 L 95.3602 152.528 L 95.7586 152.528 L 95.7939 152.316 L 95.9049 152.165 L 96.0864 152.074 L 96.3437 152.039 L 96.5908 152.064 L 96.7673 152.14 L 96.8732 152.271 L 96.9085 152.453 L 96.8883 152.664 L 96.8076 152.77 L 96.6059 152.821 L 96.2277 152.861 L 95.7939 152.952 L 95.4863 153.113 L 95.3047 153.365 L 95.2493 153.739 L 95.2997 154.071 L 95.456 154.319 L 95.7082 154.475 L 96.0562 154.53 L 96.5252 154.424 L 96.9438 154.097 L 96.9438 154.097 z M 96.8934 153.502 L 96.8328 153.764 L 96.6715 153.966 L 96.4294 154.097 L 96.1318 154.142 L 95.9402 154.117 L 95.804 154.036 L 95.7183 153.895 L 95.6931 153.698 L 95.7132 153.522 L 95.7939 153.396 L 96.1167 153.254 L 96.5252 153.194 L 96.8934 153.073 L 96.8934 153.502 L 96.8934 153.502 z M 100.096 152.639 L 100.535 152.639 L 100.444 152.236 L 100.227 151.918 L 99.889 151.721 L 99.4503 151.646 L 98.9661 151.747 L 98.598 152.029 L 98.366 152.488 L 98.2853 153.103 L 98.3609 153.713 L 98.5879 154.167 L 98.946 154.45 L 99.4352 154.546 L 99.8689 154.47 L 100.207 154.258 L 100.439 153.925 L 100.54 153.481 L 100.116 153.481 L 100.04 153.764 L 99.8991 153.976 L 99.6974 154.107 L 99.4503 154.147 L 99.1426 154.082 L 98.9207 153.88 L 98.7846 153.552 L 98.7392 153.088 L 98.7846 152.634 L 98.9258 152.306 L 99.1527 152.105 L 99.4503 152.034 L 99.7125 152.079 L 99.9092 152.195 L 100.04 152.387 L 100.096 152.639 L 100.096 152.639 z M 101.795 153.224 L 103.571 153.224 L 103.576 153.017 L 103.495 152.437 L 103.273 152.004 L 102.92 151.741 L 102.451 151.646 L 101.992 151.747 L 101.639 152.029 L 101.412 152.488 L 101.331 153.093 L 101.407 153.713 L 101.634 154.167 L 101.982 154.45 L 102.436 154.546 L 102.829 154.48 L 103.152 154.309 L 103.389 154.036 L 103.525 153.673 L 103.086 153.673 L 102.996 153.875 L 102.865 154.026 L 102.491 154.147 L 102.204 154.092 L 101.987 153.915 L 101.846 153.628 L 101.795 153.239 L 101.795 153.224 L 101.795 153.224 z M 101.795 152.851 L 101.851 152.503 L 101.987 152.246 L 102.194 152.089 L 102.466 152.034 L 102.733 152.089 L 102.94 152.246 L 103.066 152.503 L 103.112 152.851 L 101.795 152.851 L 101.795 152.851 z" stroke="none" fill-rule="evenodd" fill="rgb(0, 0, 0)"/></g><g stroke="rgb(0, 0, 0)" stroke-width="0.13" stroke-linecap="butt" stroke-linejoin="miter" fill="none"><path d="M 71.0317 160.497 L 73.2507 160.497 L 73.2507 160.073 L 71.4956 160.073 L 71.4956 158.888 L 73.059 158.888 L 73.059 158.469 L 71.4956 158.469 L 71.4956 157.42 L 73.2103 157.42 L 73.2103 156.997 L 71.0317 156.997 L 71.0317 160.497 L 71.0317 160.497 z M 75.8076 158.686 L 76.2464 158.686 L 76.1556 158.283 L 75.9387 157.965 L 75.6008 157.768 L 75.1621 157.693 L 74.6779 157.793 L 74.3098 158.076 L 74.0778 158.535 L 73.9971 159.15 L 74.0727 159.76 L 74.2997 160.214 L 74.6577 160.497 L 75.1469 160.592 L 75.5807 160.517 L 75.9186 160.305 L 76.1505 159.972 L 76.2514 159.528 L 75.8278 159.528 L 75.7521 159.811 L 75.6109 160.022 L 75.4092 160.154 L 75.1621 160.194 L 74.8544 160.128 L 74.6325 159.927 L 74.4964 159.599 L 74.451 159.135 L 74.4964 158.681 L 74.6376 158.353 L 74.8645 158.151 L 75.1621 158.081 L 75.4243 158.126 L 75.621 158.242 L 75.7521 158.434 L 75.8076 158.686 L 75.8076 158.686 z M 77.1188 160.497 L 77.5627 160.497 L 77.5627 158.933 L 77.608 158.575 L 77.7543 158.313 L 77.9812 158.151 L 78.2838 158.091 L 78.5259 158.141 L 78.6772 158.278 L 78.7529 158.504 L 78.7781 158.807 L 78.7781 160.497 L 79.2219 160.497 L 79.2219 158.716 L 79.2017 158.358 L 79.1109 158.061 L 78.8134 157.788 L 78.3494 157.693 L 78.0972 157.728 L 77.8804 157.824 L 77.6988 157.975 L 77.5627 158.182 L 77.5627 156.875 L 77.1188 156.875 L 77.1188 160.497 L 77.1188 160.497 z M 80.5432 159.271 L 82.3184 159.271 L 82.3235 159.064 L 82.2428 158.484 L 82.0209 158.051 L 81.6678 157.788 L 81.1988 157.693 L 80.7399 157.793 L 80.3869 158.076 L 80.1599 158.535 L 80.0792 159.14 L 80.1549 159.76 L 80.3818 160.214 L 80.7298 160.497 L 81.1837 160.592 L 81.5771 160.527 L 81.8998 160.355 L 82.1369 160.083 L 82.273 159.72 L 81.8343 159.72 L 81.7435 159.922 L 81.6124 160.073 L 81.2392 160.194 L 80.9517 160.138 L 80.7348 159.962 L 80.5936 159.674 L 80.5432 159.286 L 80.5432 159.271 L 80.5432 159.271 z M 80.5432 158.898 L 80.5987 158.55 L 80.7348 158.293 L 80.9416 158.136 L 81.214 158.081 L 81.4812 158.136 L 81.688 158.293 L 81.8141 158.55 L 81.8595 158.898 L 80.5432 158.898 L 80.5432 158.898 z M 84.0735 157.249 L 84.0735 160.123 L 83.1606 160.123 L 83.1606 160.497 L 85.425 160.497 L 85.425 160.123 L 84.5173 160.123 L 84.5173 156.875 L 83.3775 156.875 L 83.3775 157.249 L 84.0735 157.249 L 84.0735 157.249 z M 87.1095 157.249 L 87.1095 160.123 L 86.1967 160.123 L 86.1967 160.497 L 88.4611 160.497 L 88.4611 160.123 L 87.5533 160.123 L 87.5533 156.875 L 86.4135 156.875 L 86.4135 157.249 L 87.1095 157.249 L 87.1095 157.249 z M 89.6513 159.271 L 91.4265 159.271 L 91.4315 159.064 L 91.3508 158.484 L 91.1289 158.051 L 90.7759 157.788 L 90.3069 157.693 L 89.848 157.793 L 89.4949 158.076 L 89.268 158.535 L 89.1873 159.14 L 89.2629 159.76 L 89.4899 160.214 L 89.8379 160.497 L 90.2918 160.592 L 90.6851 160.527 L 91.0079 160.355 L 91.2449 160.083 L 91.3811 159.72 L 90.9423 159.72 L 90.8516 159.922 L 90.7204 160.073 L 90.3472 160.194 L 90.0598 160.138 L 89.8429 159.962 L 89.7017 159.674 L 89.6513 159.286 L 89.6513 159.271 L 89.6513 159.271 z M 89.6513 158.898 L 89.7068 158.55 L 89.8429 158.293 L 90.0497 158.136 L 90.322 158.081 L 90.5893 158.136 L 90.7961 158.293 L 90.9222 158.55 L 90.9676 158.898 L 89.6513 158.898 L 89.6513 158.898 z M 96.031 160.497 L 96.7269 160.497 L 96.7269 159.745 L 96.031 159.745 L 96.031 160.497 L 96.031 160.497 z M 96.031 158.54 L 96.7269 158.54 L 96.7269 157.788 L 96.031 157.788 L 96.031 158.54 L 96.031 158.54 z" stroke="none" fill-rule="evenodd" fill="rgb(0, 0, 0)"/></g><g stroke="rgb(0, 0, 0)" stroke-width="0.13" stroke-linecap="butt" stroke-linejoin="miter" fill="none"><path d="M 105.396 160.497 L 105.855 160.497 L 105.855 156.971 L 105.512 156.971 L 105.421 157.279 L 105.24 157.486 L 104.963 157.607 L 104.579 157.647 L 104.579 158.005 L 105.396 158.005 L 105.396 160.497 L 105.396 160.497 z M 108.175 160.497 L 108.871 160.497 L 108.871 159.745 L 108.175 159.745 L 108.175 160.497 L 108.175 160.497 z M 108.175 158.54 L 108.871 158.54 L 108.871 157.788 L 108.175 157.788 L 108.175 158.54 L 108.175 158.54 z M 111.468 160.497 L 111.927 160.497 L 111.927 156.971 L 111.584 156.971 L 111.493 157.279 L 111.312 157.486 L 111.035 157.607 L 110.651 157.647 L 110.651 158.005 L 111.468 158.005 L 111.468 160.497 L 111.468 160.497 z" stroke="none" fill-rule="evenodd" fill="rgb(0, 0, 0)"/></g><g stroke="rgb(0, 0, 0)" stroke-width="0.13" stroke-linecap="butt" stroke-linejoin="miter" fill="none"><path d="M 112.762 90.3731 L 112.762 89.9141 L 109.237 89.9141 L 109.237 90.2571 L 109.545 90.3478 L 109.751 90.5294 L 109.872 90.8068 L 109.913 91.1901 L 110.271 91.1901 L 110.271 90.3731 L 112.762 90.3731 L 112.762 90.3731 z M 111.052 87.7617 L 111.844 87.686 L 112.409 87.449 L 112.752 87.0707 L 112.863 86.5462 L 112.752 86.0268 L 112.409 85.6486 L 111.844 85.4166 L 111.052 85.3359 L 110.266 85.4166 L 109.953 85.5124 L 109.696 85.6486 L 109.353 86.0268 L 109.237 86.5462 L 109.353 87.0707 L 109.701 87.449 L 110.266 87.686 L 111.052 87.7617 L 111.052 87.7617 z M 111.052 87.2775 L 110.442 87.2372 L 110.004 87.1111 L 109.746 86.8841 L 109.656 86.5462 L 109.746 86.2134 L 110.004 85.9865 L 110.442 85.8604 L 111.052 85.82 L 111.668 85.8604 L 112.107 85.9865 L 112.364 86.2134 L 112.449 86.5462 L 112.364 86.8841 L 112.107 87.1111 L 111.668 87.2372 L 111.052 87.2775 L 111.052 87.2775 z M 111.052 84.0256 L 111.844 83.95 L 112.409 83.713 L 112.752 83.3347 L 112.863 82.8102 L 112.752 82.2908 L 112.409 81.9125 L 111.844 81.6805 L 111.052 81.5999 L 110.266 81.6805 L 109.953 81.7764 L 109.696 81.9125 L 109.353 82.2908 L 109.237 82.8102 L 109.353 83.3347 L 109.701 83.713 L 110.266 83.95 L 111.052 84.0256 L 111.052 84.0256 z M 111.052 83.5415 L 110.442 83.5012 L 110.004 83.3751 L 109.746 83.1481 L 109.656 82.8102 L 109.746 82.4774 L 110.004 82.2504 L 110.442 82.1244 L 111.052 82.084 L 111.668 82.1244 L 112.107 82.2504 L 112.364 82.4774 L 112.449 82.8102 L 112.364 83.1481 L 112.107 83.3751 L 111.668 83.5012 L 111.052 83.5415 L 111.052 83.5415 z" stroke="none" fill-rule="evenodd" fill="rgb(0, 0, 0)"/><path d="M 114.245 134.614 L 114.762 136.546 L 115.28 134.614"/><path d="M 115.28 38.4781 L 114.762 36.5462 L 114.245 38.4781"/><path d="M 114.762 136.546 L 114.762 36.5462"/></g><g stroke="rgb(0, 0, 0)" stroke-width="0.13" stroke-linecap="butt" stroke-linejoin="miter" fill="none"><path d="M 69.9151 25.5326 L 69.8193 25.1241 L 69.5974 24.8215 L 69.2544 24.6298 L 68.8106 24.5643 L 68.5131 24.5996 L 68.2559 24.6954 L 68.0289 24.8517 L 67.8373 25.0736 L 67.686 25.351 L 67.575 25.6889 L 67.5044 26.0873 L 67.4843 26.5362 L 67.5649 27.2523 L 67.8121 27.7718 L 68.2105 28.0844 L 68.7551 28.1904 L 69.2443 28.0996 L 69.6175 27.8625 L 69.8596 27.4893 L 69.9454 27.0153 L 69.8596 26.5362 L 69.6276 26.168 L 69.2696 25.936 L 68.8258 25.8553 L 68.3466 25.9562 L 67.9886 26.2437 L 68.0642 25.6889 L 68.2256 25.2905 L 68.4727 25.0535 L 68.8157 24.9728 L 69.0678 25.0131 L 69.2595 25.119 L 69.3856 25.2955 L 69.4511 25.5326 L 69.9151 25.5326 L 69.9151 25.5326 z M 69.4562 27.0203 L 69.4007 27.3381 L 69.2595 27.5801 L 69.0325 27.7415 L 68.7501 27.7919 L 68.4526 27.7415 L 68.2256 27.5852 L 68.0794 27.3431 L 68.034 27.0254 L 68.0844 26.7127 L 68.2256 26.4757 L 68.4576 26.3244 L 68.7703 26.2689 L 69.0426 26.3244 L 69.2595 26.4706 L 69.4007 26.7076 L 69.4562 27.0203 L 69.4562 27.0203 z M 71.19 27.1767 L 71.301 27.5902 L 71.5481 27.913 L 71.9112 28.1147 L 72.3752 28.1904 L 72.8845 28.0996 L 73.283 27.8525 L 73.5351 27.4591 L 73.6309 26.9548 L 73.5452 26.4857 L 73.3031 26.1176 L 72.9249 25.8806 L 72.4357 25.7948 L 72.0575 25.8553 L 71.7649 26.0218 L 71.9062 25.0787 L 73.4393 25.0787 L 73.4393 24.6651 L 71.5683 24.6651 L 71.2909 26.521 L 71.6943 26.521 L 71.9868 26.284 L 72.36 26.1983 L 72.6828 26.2538 L 72.9299 26.4151 L 73.0863 26.6623 L 73.1417 26.98 L 73.0863 27.2977 L 72.9249 27.5448 L 72.6778 27.7012 L 72.36 27.7566 L 72.0928 27.7213 L 71.886 27.6053 L 71.7347 27.4238 L 71.659 27.1767 L 71.19 27.1767 L 71.19 27.1767 z" stroke="none" fill-rule="evenodd" fill="rgb(0, 0, 0)"/><path d="M 101.141 30.6071 L 103.073 30.0895 L 101.141 29.5719"/><path d="M 40.0046 29.5719 L 38.0727 30.0895 L 40.0046 30.6071"/><path d="M 38.0727 30.0895 L 103.073 30.0895"/></g><g stroke="rgb(0, 0, 0)" stroke-width="0.13" stroke-linecap="butt" stroke-linejoin="miter" fill="none"><path d="M 198.626 145.26 L 198.167 145.26 L 198.268 145.795 L 198.52 146.188 L 198.908 146.425 L 199.432 146.511 L 199.952 146.43 L 200.34 146.208 L 200.587 145.86 L 200.678 145.402 L 200.603 144.988 L 200.391 144.721 L 200.048 144.544 L 199.589 144.413 L 199.195 144.317 L 198.938 144.206 L 198.792 144.045 L 198.747 143.793 L 198.792 143.566 L 198.923 143.394 L 199.125 143.278 L 199.402 143.238 L 199.685 143.288 L 199.907 143.425 L 200.053 143.652 L 200.123 143.959 L 200.582 143.959 L 200.582 143.949 L 200.502 143.475 L 200.265 143.122 L 199.891 142.9 L 199.387 142.824 L 198.933 142.9 L 198.58 143.112 L 198.353 143.44 L 198.273 143.863 L 198.338 144.242 L 198.53 144.499 L 198.832 144.67 L 199.246 144.801 L 199.654 144.917 L 199.962 145.028 L 200.149 145.19 L 200.214 145.452 L 200.154 145.719 L 199.997 145.921 L 199.76 146.047 L 199.453 146.087 L 199.11 146.032 L 198.847 145.871 L 198.681 145.608 L 198.626 145.26 L 198.626 145.26 z M 201.283 145.064 L 201.364 145.679 L 201.596 146.133 L 201.964 146.415 L 202.458 146.511 L 202.948 146.415 L 203.316 146.138 L 203.548 145.684 L 203.633 145.064 L 203.548 144.448 L 203.316 143.989 L 202.948 143.712 L 202.458 143.611 L 201.964 143.712 L 201.596 143.994 L 201.364 144.448 L 201.283 145.064 L 201.283 145.064 z M 201.737 145.059 L 201.783 144.605 L 201.924 144.277 L 202.151 144.075 L 202.458 144.005 L 202.761 144.075 L 202.988 144.272 L 203.129 144.605 L 203.18 145.059 L 203.129 145.518 L 202.988 145.85 L 202.761 146.052 L 202.458 146.118 L 202.151 146.052 L 201.924 145.85 L 201.783 145.518 L 201.737 145.059 L 201.737 145.059 z M 206.538 143.707 L 206.095 143.707 L 206.095 145.27 L 206.044 145.634 L 205.898 145.896 L 205.671 146.057 L 205.373 146.108 L 205.136 146.067 L 204.985 145.946 L 204.899 145.739 L 204.879 145.447 L 204.879 143.707 L 204.435 143.707 L 204.435 145.487 L 204.451 145.845 L 204.546 146.143 L 204.839 146.415 L 205.308 146.511 L 205.56 146.476 L 205.777 146.385 L 205.963 146.229 L 206.115 146.002 L 206.115 146.415 L 206.538 146.415 L 206.538 143.707 L 206.538 143.707 z M 208.813 144.837 L 208.384 144.736 L 208.066 144.62 L 207.961 144.383 L 207.991 144.216 L 208.097 144.095 L 208.268 144.02 L 208.515 143.989 L 208.752 144.02 L 208.939 144.11 L 209.06 144.247 L 209.11 144.428 L 209.544 144.428 L 209.544 144.418 L 209.469 144.09 L 209.262 143.833 L 208.939 143.672 L 208.515 143.611 L 208.087 143.672 L 207.774 143.838 L 207.577 144.085 L 207.517 144.398 L 207.562 144.701 L 207.703 144.912 L 207.935 145.064 L 208.273 145.17 L 208.768 145.291 L 209.07 145.417 L 209.151 145.518 L 209.181 145.669 L 209.136 145.855 L 209.015 145.997 L 208.818 146.087 L 208.556 146.118 L 208.278 146.087 L 208.077 145.982 L 207.94 145.81 L 207.885 145.573 L 207.456 145.573 L 207.527 145.976 L 207.734 146.269 L 208.061 146.445 L 208.515 146.511 L 208.989 146.445 L 209.337 146.269 L 209.549 145.987 L 209.625 145.618 L 209.569 145.301 L 209.413 145.084 L 209.156 144.943 L 208.813 144.837 L 208.813 144.837 z M 210.956 145.26 L 212.177 145.26 L 212.177 144.862 L 210.956 144.862 L 210.956 145.26 L 210.956 145.26 z M 214.885 144.837 L 214.456 144.736 L 214.139 144.62 L 214.033 144.383 L 214.063 144.216 L 214.169 144.095 L 214.34 144.02 L 214.587 143.989 L 214.824 144.02 L 215.011 144.11 L 215.132 144.247 L 215.182 144.428 L 215.616 144.428 L 215.616 144.418 L 215.541 144.09 L 215.334 143.833 L 215.011 143.672 L 214.587 143.611 L 214.159 143.672 L 213.846 143.838 L 213.649 144.085 L 213.589 144.398 L 213.634 144.701 L 213.775 144.912 L 214.007 145.064 L 214.345 145.17 L 214.84 145.291 L 215.142 145.417 L 215.223 145.518 L 215.253 145.669 L 215.208 145.855 L 215.087 145.997 L 214.89 146.087 L 214.628 146.118 L 214.35 146.087 L 214.149 145.982 L 214.012 145.81 L 213.957 145.573 L 213.528 145.573 L 213.599 145.976 L 213.806 146.269 L 214.134 146.445 L 214.587 146.511 L 215.061 146.445 L 215.409 146.269 L 215.621 145.987 L 215.697 145.618 L 215.641 145.301 L 215.485 145.084 L 215.228 144.943 L 214.885 144.837 L 214.885 144.837 z M 216.463 145.064 L 216.544 145.679 L 216.776 146.133 L 217.144 146.415 L 217.639 146.511 L 218.128 146.415 L 218.496 146.138 L 218.728 145.684 L 218.814 145.064 L 218.728 144.448 L 218.496 143.989 L 218.128 143.712 L 217.639 143.611 L 217.144 143.712 L 216.776 143.994 L 216.544 144.448 L 216.463 145.064 L 216.463 145.064 z M 216.917 145.059 L 216.963 144.605 L 217.104 144.277 L 217.331 144.075 L 217.639 144.005 L 217.941 144.075 L 218.168 144.272 L 218.309 144.605 L 218.36 145.059 L 218.309 145.518 L 218.168 145.85 L 217.941 146.052 L 217.639 146.118 L 217.331 146.052 L 217.104 145.85 L 216.963 145.518 L 216.917 145.059 L 216.917 145.059 z M 221.355 144.605 L 221.794 144.605 L 221.703 144.201 L 221.487 143.884 L 221.149 143.687 L 220.71 143.611 L 220.226 143.712 L 219.858 143.994 L 219.626 144.453 L 219.545 145.069 L 219.621 145.679 L 219.847 146.133 L 220.206 146.415 L 220.695 146.511 L 221.128 146.435 L 221.466 146.224 L 221.698 145.891 L 221.799 145.447 L 221.376 145.447 L 221.3 145.729 L 221.159 145.941 L 220.957 146.072 L 220.71 146.113 L 220.402 146.047 L 220.18 145.845 L 220.044 145.518 L 219.999 145.054 L 220.044 144.6 L 220.185 144.272 L 220.412 144.07 L 220.71 144 L 220.972 144.045 L 221.169 144.161 L 221.3 144.353 L 221.355 144.605 L 221.355 144.605 z M 223.549 143.167 L 223.549 146.042 L 222.636 146.042 L 222.636 146.415 L 224.901 146.415 L 224.901 146.042 L 223.993 146.042 L 223.993 142.794 L 222.853 142.794 L 222.853 143.167 L 223.549 143.167 L 223.549 143.167 z M 226.091 145.19 L 227.866 145.19 L 227.871 144.983 L 227.791 144.403 L 227.569 143.969 L 227.216 143.707 L 226.747 143.611 L 226.288 143.712 L 225.935 143.994 L 225.708 144.453 L 225.627 145.059 L 225.703 145.679 L 225.93 146.133 L 226.278 146.415 L 226.732 146.511 L 227.125 146.445 L 227.448 146.274 L 227.685 146.002 L 227.821 145.639 L 227.382 145.639 L 227.291 145.84 L 227.16 145.992 L 226.787 146.113 L 226.5 146.057 L 226.283 145.881 L 226.141 145.593 L 226.091 145.205 L 226.091 145.19 L 226.091 145.19 z M 226.091 144.817 L 226.146 144.469 L 226.283 144.211 L 226.489 144.055 L 226.762 144 L 227.029 144.055 L 227.236 144.211 L 227.362 144.469 L 227.407 144.817 L 226.091 144.817 L 226.091 144.817 z" stroke="none" fill-rule="evenodd" fill="rgb(0, 0, 0)"/></g><g stroke="rgb(0, 0, 0)" stroke-width="0.13" stroke-linecap="butt" stroke-linejoin="miter" fill="none"><path d="M 200.3 148.957 L 199.422 151.938 L 198.52 148.957 L 198.041 148.957 L 199.17 152.462 L 199.675 152.462 L 200.779 148.957 L 200.3 148.957 L 200.3 148.957 z M 203.502 149.754 L 203.059 149.754 L 203.059 151.317 L 203.008 151.68 L 202.862 151.943 L 202.635 152.104 L 202.337 152.154 L 202.1 152.114 L 201.949 151.993 L 201.863 151.786 L 201.843 151.494 L 201.843 149.754 L 201.399 149.754 L 201.399 151.534 L 201.414 151.892 L 201.51 152.19 L 201.803 152.462 L 202.272 152.558 L 202.524 152.523 L 202.741 152.432 L 202.927 152.275 L 203.079 152.049 L 203.079 152.462 L 203.502 152.462 L 203.502 149.754 L 203.502 149.754 z M 204.839 151.237 L 206.614 151.237 L 206.619 151.03 L 206.538 150.45 L 206.316 150.016 L 205.963 149.754 L 205.494 149.658 L 205.036 149.759 L 204.682 150.041 L 204.456 150.5 L 204.375 151.105 L 204.451 151.726 L 204.677 152.18 L 205.025 152.462 L 205.479 152.558 L 205.873 152.492 L 206.195 152.321 L 206.432 152.049 L 206.569 151.685 L 206.13 151.685 L 206.039 151.887 L 205.908 152.038 L 205.535 152.159 L 205.247 152.104 L 205.03 151.927 L 204.889 151.64 L 204.839 151.252 L 204.839 151.237 L 204.839 151.237 z M 204.839 150.863 L 204.894 150.515 L 205.03 150.258 L 205.237 150.102 L 205.51 150.046 L 205.777 150.102 L 205.984 150.258 L 206.11 150.515 L 206.155 150.863 L 204.839 150.863 L 204.839 150.863 z M 212.187 152.043 L 212.187 152.462 L 212.631 152.462 L 212.631 148.841 L 212.192 148.841 L 212.192 150.167 L 211.854 149.784 L 211.647 149.693 L 211.41 149.658 L 210.981 149.759 L 210.649 150.041 L 210.432 150.495 L 210.356 151.105 L 210.432 151.716 L 210.649 152.175 L 210.981 152.462 L 211.41 152.558 L 211.647 152.523 L 211.859 152.432 L 212.187 152.043 L 212.187 152.043 z M 211.486 150.056 L 211.778 150.127 L 212 150.324 L 212.131 150.652 L 212.182 151.105 L 212.131 151.564 L 212 151.892 L 211.778 152.094 L 211.486 152.159 L 211.208 152.094 L 210.997 151.892 L 210.855 151.559 L 210.81 151.105 L 210.855 150.657 L 210.997 150.329 L 211.208 150.127 L 211.486 150.056 L 211.486 150.056 z M 213.947 151.237 L 215.722 151.237 L 215.727 151.03 L 215.646 150.45 L 215.425 150.016 L 215.072 149.754 L 214.603 149.658 L 214.144 149.759 L 213.791 150.041 L 213.564 150.5 L 213.483 151.105 L 213.559 151.726 L 213.786 152.18 L 214.134 152.462 L 214.587 152.558 L 214.981 152.492 L 215.304 152.321 L 215.541 152.049 L 215.677 151.685 L 215.238 151.685 L 215.147 151.887 L 215.016 152.038 L 214.643 152.159 L 214.355 152.104 L 214.139 151.927 L 213.997 151.64 L 213.947 151.252 L 213.947 151.237 L 213.947 151.237 z M 213.947 150.863 L 214.002 150.515 L 214.139 150.258 L 214.345 150.102 L 214.618 150.046 L 214.885 150.102 L 215.092 150.258 L 215.218 150.515 L 215.263 150.863 L 213.947 150.863 L 213.947 150.863 z M 220.246 150.223 L 220.246 152.462 L 220.69 152.462 L 220.69 150.223 L 221.698 150.223 L 221.698 149.845 L 220.69 149.845 L 220.69 149.678 L 220.725 149.476 L 220.841 149.34 L 221.038 149.26 L 221.32 149.229 L 221.698 149.25 L 221.698 148.866 L 221.219 148.841 L 220.786 148.886 L 220.483 149.023 L 220.301 149.26 L 220.246 149.598 L 220.246 149.845 L 219.434 149.845 L 219.434 150.223 L 220.246 150.223 L 220.246 150.223 z M 224.275 152.109 L 224.275 152.124 L 224.301 152.296 L 224.376 152.417 L 224.694 152.513 L 224.941 152.472 L 224.941 152.129 L 224.835 152.144 L 224.694 152.079 L 224.669 151.877 L 224.669 150.475 L 224.608 150.117 L 224.432 149.865 L 224.124 149.714 L 223.69 149.658 L 223.267 149.719 L 222.954 149.89 L 222.757 150.157 L 222.692 150.51 L 222.692 150.541 L 223.09 150.541 L 223.126 150.329 L 223.237 150.177 L 223.418 150.087 L 223.675 150.051 L 223.922 150.077 L 224.099 150.152 L 224.205 150.283 L 224.24 150.465 L 224.22 150.677 L 224.139 150.783 L 223.938 150.833 L 223.559 150.873 L 223.126 150.964 L 222.818 151.126 L 222.636 151.378 L 222.581 151.751 L 222.631 152.084 L 222.788 152.331 L 223.04 152.487 L 223.388 152.543 L 223.857 152.437 L 224.275 152.109 L 224.275 152.109 z M 224.225 151.514 L 224.165 151.776 L 224.003 151.978 L 223.761 152.109 L 223.463 152.154 L 223.272 152.129 L 223.136 152.049 L 223.05 151.907 L 223.025 151.711 L 223.045 151.534 L 223.126 151.408 L 223.448 151.267 L 223.857 151.206 L 224.225 151.085 L 224.225 151.514 L 224.225 151.514 z M 227.427 150.652 L 227.866 150.652 L 227.775 150.248 L 227.559 149.93 L 227.221 149.734 L 226.782 149.658 L 226.298 149.759 L 225.93 150.041 L 225.698 150.5 L 225.617 151.116 L 225.693 151.726 L 225.92 152.18 L 226.278 152.462 L 226.767 152.558 L 227.201 152.482 L 227.538 152.27 L 227.77 151.938 L 227.871 151.494 L 227.448 151.494 L 227.372 151.776 L 227.231 151.988 L 227.029 152.119 L 226.782 152.159 L 226.474 152.094 L 226.252 151.892 L 226.116 151.564 L 226.071 151.1 L 226.116 150.647 L 226.257 150.319 L 226.484 150.117 L 226.782 150.046 L 227.044 150.092 L 227.241 150.208 L 227.372 150.399 L 227.427 150.652 L 227.427 150.652 z M 229.127 151.237 L 230.902 151.237 L 230.907 151.03 L 230.827 150.45 L 230.605 150.016 L 230.252 149.754 L 229.783 149.658 L 229.324 149.759 L 228.971 150.041 L 228.744 150.5 L 228.663 151.105 L 228.739 151.726 L 228.966 152.18 L 229.314 152.462 L 229.768 152.558 L 230.161 152.492 L 230.484 152.321 L 230.721 152.049 L 230.857 151.685 L 230.418 151.685 L 230.327 151.887 L 230.196 152.038 L 229.823 152.159 L 229.536 152.104 L 229.319 151.927 L 229.177 151.64 L 229.127 151.252 L 229.127 151.237 L 229.127 151.237 z M 229.127 150.863 L 229.183 150.515 L 229.319 150.258 L 229.525 150.102 L 229.798 150.046 L 230.065 150.102 L 230.272 150.258 L 230.398 150.515 L 230.443 150.863 L 229.127 150.863 L 229.127 150.863 z" stroke="none" fill-rule="evenodd" fill="rgb(0, 0, 0)"/></g><g stroke="rgb(0, 0, 0)" stroke-width="0.13" stroke-linecap="butt" stroke-linejoin="miter" fill="none"><path d="M 198.363 158.509 L 200.582 158.509 L 200.582 158.085 L 198.827 158.085 L 198.827 156.9 L 200.391 156.9 L 200.391 156.482 L 198.827 156.482 L 198.827 155.433 L 200.542 155.433 L 200.542 155.009 L 198.363 155.009 L 198.363 158.509 L 198.363 158.509 z M 203.139 156.698 L 203.578 156.698 L 203.487 156.295 L 203.27 155.977 L 202.932 155.781 L 202.494 155.705 L 202.01 155.806 L 201.641 156.088 L 201.409 156.547 L 201.329 157.162 L 201.404 157.773 L 201.631 158.226 L 201.989 158.509 L 202.479 158.605 L 202.912 158.529 L 203.25 158.317 L 203.482 157.984 L 203.583 157.541 L 203.159 157.541 L 203.084 157.823 L 202.943 158.035 L 202.741 158.166 L 202.494 158.206 L 202.186 158.141 L 201.964 157.939 L 201.828 157.611 L 201.783 157.147 L 201.828 156.693 L 201.969 156.366 L 202.196 156.164 L 202.494 156.093 L 202.756 156.139 L 202.953 156.255 L 203.084 156.446 L 203.139 156.698 L 203.139 156.698 z M 204.451 158.509 L 204.894 158.509 L 204.894 156.945 L 204.94 156.587 L 205.086 156.325 L 205.313 156.164 L 205.615 156.103 L 205.858 156.154 L 206.009 156.29 L 206.085 156.517 L 206.11 156.819 L 206.11 158.509 L 206.554 158.509 L 206.554 156.729 L 206.533 156.371 L 206.443 156.073 L 206.145 155.801 L 205.681 155.705 L 205.429 155.74 L 205.212 155.836 L 205.03 155.987 L 204.894 156.194 L 204.894 154.888 L 204.451 154.888 L 204.451 158.509 L 204.451 158.509 z M 207.875 157.283 L 209.65 157.283 L 209.655 157.077 L 209.574 156.497 L 209.353 156.063 L 208.999 155.801 L 208.53 155.705 L 208.072 155.806 L 207.719 156.088 L 207.492 156.547 L 207.411 157.152 L 207.487 157.773 L 207.713 158.226 L 208.061 158.509 L 208.515 158.605 L 208.909 158.539 L 209.231 158.368 L 209.469 158.095 L 209.605 157.732 L 209.166 157.732 L 209.075 157.934 L 208.944 158.085 L 208.571 158.206 L 208.283 158.151 L 208.066 157.974 L 207.925 157.687 L 207.875 157.299 L 207.875 157.283 L 207.875 157.283 z M 207.875 156.91 L 207.93 156.562 L 208.066 156.305 L 208.273 156.149 L 208.546 156.093 L 208.813 156.149 L 209.02 156.305 L 209.146 156.562 L 209.191 156.91 L 207.875 156.91 L 207.875 156.91 z M 211.405 155.261 L 211.405 158.136 L 210.492 158.136 L 210.492 158.509 L 212.757 158.509 L 212.757 158.136 L 211.849 158.136 L 211.849 154.888 L 210.709 154.888 L 210.709 155.261 L 211.405 155.261 L 211.405 155.261 z M 214.441 155.261 L 214.441 158.136 L 213.528 158.136 L 213.528 158.509 L 215.793 158.509 L 215.793 158.136 L 214.885 158.136 L 214.885 154.888 L 213.745 154.888 L 213.745 155.261 L 214.441 155.261 L 214.441 155.261 z M 216.983 157.283 L 218.758 157.283 L 218.763 157.077 L 218.683 156.497 L 218.461 156.063 L 218.108 155.801 L 217.639 155.705 L 217.18 155.806 L 216.827 156.088 L 216.6 156.547 L 216.519 157.152 L 216.595 157.773 L 216.822 158.226 L 217.17 158.509 L 217.623 158.605 L 218.017 158.539 L 218.34 158.368 L 218.577 158.095 L 218.713 157.732 L 218.274 157.732 L 218.183 157.934 L 218.052 158.085 L 217.679 158.206 L 217.391 158.151 L 217.175 157.974 L 217.033 157.687 L 216.983 157.299 L 216.983 157.283 L 216.983 157.283 z M 216.983 156.91 L 217.038 156.562 L 217.175 156.305 L 217.381 156.149 L 217.654 156.093 L 217.921 156.149 L 218.128 156.305 L 218.254 156.562 L 218.299 156.91 L 216.983 156.91 L 216.983 156.91 z M 223.363 158.509 L 224.059 158.509 L 224.059 157.757 L 223.363 157.757 L 223.363 158.509 L 223.363 158.509 z M 223.363 156.552 L 224.059 156.552 L 224.059 155.801 L 223.363 155.801 L 223.363 156.552 L 223.363 156.552 z" stroke="none" fill-rule="evenodd" fill="rgb(0, 0, 0)"/></g><g stroke="rgb(0, 0, 0)" stroke-width="0.13" stroke-linecap="butt" stroke-linejoin="miter" fill="none"><path d="M 232.728 158.509 L 233.187 158.509 L 233.187 154.984 L 232.844 154.984 L 232.753 155.291 L 232.572 155.498 L 232.294 155.619 L 231.911 155.659 L 231.911 156.018 L 232.728 156.018 L 232.728 158.509 L 232.728 158.509 z M 235.507 158.509 L 236.203 158.509 L 236.203 157.757 L 235.507 157.757 L 235.507 158.509 L 235.507 158.509 z M 235.507 156.552 L 236.203 156.552 L 236.203 155.801 L 235.507 155.801 L 235.507 156.552 L 235.507 156.552 z M 238.8 158.509 L 239.259 158.509 L 239.259 154.984 L 238.916 154.984 L 238.825 155.291 L 238.644 155.498 L 238.366 155.619 L 237.983 155.659 L 237.983 156.018 L 238.8 156.018 L 238.8 158.509 L 238.8 158.509 z" stroke="none" fill-rule="evenodd" fill="rgb(0, 0, 0)"/></g><g stroke="rgb(0, 0, 0)" stroke-width="0.13" stroke-linecap="butt" stroke-linejoin="miter" fill="none"><path d="M 244.161 85.3854 L 244.161 84.9265 L 240.636 84.9265 L 240.636 85.2694 L 240.944 85.3602 L 241.15 85.5417 L 241.271 85.8191 L 241.312 86.2024 L 241.67 86.2024 L 241.67 85.3854 L 244.161 85.3854 L 244.161 85.3854 z M 242.452 82.774 L 243.243 82.6984 L 243.808 82.4613 L 244.151 82.0831 L 244.262 81.5586 L 244.151 81.0392 L 243.808 80.6609 L 243.243 80.4289 L 242.452 80.3482 L 241.665 80.4289 L 241.352 80.5247 L 241.095 80.6609 L 240.752 81.0392 L 240.636 81.5586 L 240.752 82.0831 L 241.1 82.4613 L 241.665 82.6984 L 242.452 82.774 L 242.452 82.774 z M 242.452 82.2899 L 241.841 82.2495 L 241.403 82.1235 L 241.145 81.8965 L 241.055 81.5586 L 241.145 81.2258 L 241.403 80.9988 L 241.841 80.8727 L 242.452 80.8324 L 243.067 80.8727 L 243.506 80.9988 L 243.763 81.2258 L 243.849 81.5586 L 243.763 81.8965 L 243.506 82.1235 L 243.067 82.2495 L 242.452 82.2899 L 242.452 82.2899 z M 241.604 76.6122 L 241.196 76.708 L 240.893 76.9299 L 240.702 77.2729 L 240.636 77.7167 L 240.671 78.0142 L 240.767 78.2714 L 240.923 78.4984 L 241.145 78.69 L 241.423 78.8413 L 241.761 78.9523 L 242.159 79.0229 L 242.608 79.0431 L 243.324 78.9624 L 243.843 78.7152 L 244.156 78.3168 L 244.262 77.7722 L 244.171 77.283 L 243.934 76.9098 L 243.561 76.6677 L 243.087 76.582 L 242.608 76.6677 L 242.24 76.8997 L 242.008 77.2578 L 241.927 77.7016 L 242.028 78.1807 L 242.315 78.5387 L 241.761 78.4631 L 241.362 78.3017 L 241.125 78.0546 L 241.044 77.7116 L 241.085 77.4595 L 241.191 77.2678 L 241.367 77.1418 L 241.604 77.0762 L 241.604 76.6122 L 241.604 76.6122 z M 243.092 77.0712 L 243.41 77.1266 L 243.652 77.2678 L 243.813 77.4948 L 243.864 77.7772 L 243.813 78.0748 L 243.657 78.3017 L 243.415 78.448 L 243.097 78.4933 L 242.784 78.4429 L 242.547 78.3017 L 242.396 78.0697 L 242.341 77.757 L 242.396 77.4847 L 242.542 77.2678 L 242.779 77.1266 L 243.092 77.0712 L 243.092 77.0712 z" stroke="none" fill-rule="evenodd" fill="rgb(0, 0, 0)"/><path d="M 245.644 132.627 L 246.161 134.559 L 246.679 132.627"/><path d="M 246.679 30.4905 L 246.161 28.5586 L 245.644 30.4905"/><path d="M 246.161 134.559 L 246.161 28.5586"/></g><g stroke="rgb(0, 0, 0)" stroke-width="0.13" stroke-linecap="butt" stroke-linejoin="miter" fill="none"><path d="M 195.335 15.8652 L 195.845 15.8652 L 196.011 15.0331 L 196.304 14.2565 L 196.717 13.5353 L 197.257 12.8595 L 197.257 12.4409 L 194.856 12.4409 L 194.856 12.8998 L 196.773 12.8998 L 196.218 13.5807 L 195.799 14.2918 L 195.507 15.0482 L 195.335 15.8652 L 195.335 15.8652 z M 199.682 15.8652 L 200.141 15.8652 L 200.141 12.34 L 199.798 12.34 L 199.707 12.6477 L 199.525 12.8544 L 199.248 12.9755 L 198.865 13.0158 L 198.865 13.3739 L 199.682 13.3739 L 199.682 15.8652 L 199.682 15.8652 z" stroke="none" fill-rule="evenodd" fill="rgb(0, 0, 0)"/><path d="M 231.473 18.3829 L 233.404 17.8652 L 231.473 17.3476"/><path d="M 164.336 17.3476 L 162.404 17.8652 L 164.336 18.3829"/><path d="M 162.404 17.8652 L 233.404 17.8652"/></g></svg>