<?xml version="1.0" encoding="utf-8" ?><!DOCTYPE svg PUBLIC "-//W3C//DTD SVG 1.1//EN" "http://www.w3.org/Graphics/SVG/1.1/DTD/svg11.dtd" 
[ <!ATTLIST svg 
  xmlns:dsy CDATA #FIXED "http://www.3ds.com/print"  
    dsy:text-version CDATA #IMPLIED > 

  <!ATTLIST text 
  xmlns:dsy CDATA #FIXED "http://www.3ds.com/print" 
    dsy:text-version CDATA #IMPLIED > 
]><svg xmlns="http://www.w3.org/2000/svg" xmlns:dsy="http://www.3ds.com/print" dsy:text-version="18000" width="297" height="210" viewBox="0 0 297 210" version="1.1"><g stroke="rgb(0, 0, 0)" stroke-width="0.13" stroke-linecap="butt" stroke-linejoin="miter" fill="none"><path d="M 271.495 151.736 L 282.913 151.736"/><path d="M 271.495 45.7363 L 282.913 45.7363"/><path d="M 198.495 43.7363 L 198.495 37.4049"/><path d="M 269.495 43.7363 L 269.495 37.4049"/><path d="M 112.191 46.5819 L 112.191 36.4323"/><path d="M 177.191 46.5819 L 177.191 36.4323"/><path d="M 179.191 108.582 L 189.285 108.582"/><path d="M 179.191 48.5819 L 189.285 48.5819"/><path d="M 81.3541 147.949 L 90.9454 147.949"/><path d="M 81.3541 41.9492 L 90.9454 41.9492"/><path d="M 19.3541 39.9492 L 19.3541 27.1706"/><path d="M 79.3541 39.9492 L 79.3541 27.1706"/></g><g stroke="rgb(0, 0, 0)" stroke-width="0.35" stroke-linecap="butt" stroke-linejoin="miter" fill="none"><path d="M 198.495 45.7363 L 198.495 151.736"/><path d="M 269.495 151.736 L 198.495 151.736"/><path d="M 269.495 151.736 L 269.495 45.7363"/><path d="M 198.495 45.7363 L 269.495 45.7363"/><path d="M 112.191 48.5819 L 112.191 108.582"/><path d="M 177.191 108.582 L 112.191 108.582"/><path d="M 177.191 108.582 L 177.191 48.5819"/><path d="M 112.191 48.5819 L 177.191 48.5819"/><path d="M 19.3541 41.9492 L 19.3541 147.949"/><path d="M 79.3541 147.949 L 19.3541 147.949"/><path d="M 79.3541 147.949 L 79.3541 41.9492"/><path d="M 19.3541 41.9492 L 79.3541 41.9492"/></g><g stroke="rgb(0, 0, 0)" stroke-width="0.13" stroke-linecap="butt" stroke-linejoin="miter" fill="none"><path d="M 278.913 102.563 L 278.913 102.104 L 275.387 102.104 L 275.387 102.447 L 275.695 102.538 L 275.902 102.719 L 276.023 102.997 L 276.063 103.38 L 276.421 103.38 L 276.421 102.563 L 278.913 102.563 L 278.913 102.563 z M 277.203 99.9517 L 277.995 99.876 L 278.56 99.639 L 278.902 99.2608 L 279.013 98.7363 L 278.902 98.2168 L 278.56 97.8386 L 277.995 97.6066 L 277.203 97.5259 L 276.416 97.6066 L 276.103 97.7024 L 275.846 97.8386 L 275.503 98.2168 L 275.387 98.7363 L 275.503 99.2608 L 275.851 99.639 L 276.416 99.876 L 277.203 99.9517 L 277.203 99.9517 z M 277.203 99.4675 L 276.593 99.4272 L 276.154 99.3011 L 275.897 99.0742 L 275.806 98.7363 L 275.897 98.4034 L 276.154 98.1765 L 276.593 98.0504 L 277.203 98.01 L 277.818 98.0504 L 278.257 98.1765 L 278.514 98.4034 L 278.6 98.7363 L 278.514 99.0742 L 278.257 99.3011 L 277.818 99.4272 L 277.203 99.4675 L 277.203 99.4675 z M 276.356 93.7898 L 275.947 93.8857 L 275.645 94.1076 L 275.453 94.4505 L 275.387 94.8943 L 275.423 95.1919 L 275.518 95.4491 L 275.675 95.676 L 275.897 95.8677 L 276.174 96.019 L 276.512 96.1299 L 276.91 96.2005 L 277.359 96.2207 L 278.075 96.14 L 278.595 95.8929 L 278.908 95.4945 L 279.013 94.9498 L 278.923 94.4606 L 278.686 94.0874 L 278.312 93.8453 L 277.838 93.7596 L 277.359 93.8453 L 276.991 94.0773 L 276.759 94.4354 L 276.678 94.8792 L 276.779 95.3583 L 277.067 95.7164 L 276.512 95.6407 L 276.114 95.4793 L 275.877 95.2322 L 275.796 94.8893 L 275.836 94.6371 L 275.942 94.4455 L 276.119 94.3194 L 276.356 94.2538 L 276.356 93.7898 L 276.356 93.7898 z M 277.843 94.2488 L 278.161 94.3043 L 278.403 94.4455 L 278.565 94.6724 L 278.615 94.9548 L 278.565 95.2524 L 278.408 95.4793 L 278.166 95.6256 L 277.848 95.671 L 277.536 95.6206 L 277.299 95.4793 L 277.147 95.2474 L 277.092 94.9347 L 277.147 94.6623 L 277.294 94.4455 L 277.531 94.3043 L 277.843 94.2488 L 277.843 94.2488 z" stroke="none" fill-rule="evenodd" fill="rgb(0, 0, 0)"/><path d="M 280.395 149.804 L 280.913 151.736 L 281.43 149.804"/><path d="M 281.43 47.6681 L 280.913 45.7363 L 280.395 47.6681"/><path d="M 280.913 151.736 L 280.913 45.7363"/></g><g stroke="rgb(0, 0, 0)" stroke-width="0.13" stroke-linecap="butt" stroke-linejoin="miter" fill="none"><path d="M 231.426 37.4049 L 231.935 37.4049 L 232.101 36.5727 L 232.394 35.7961 L 232.808 35.0749 L 233.347 34.3991 L 233.347 33.9805 L 230.947 33.9805 L 230.947 34.4394 L 232.863 34.4394 L 232.308 35.1203 L 231.89 35.8314 L 231.597 36.5879 L 231.426 37.4049 L 231.426 37.4049 z M 235.772 37.4049 L 236.231 37.4049 L 236.231 33.8796 L 235.888 33.8796 L 235.797 34.1873 L 235.616 34.394 L 235.338 34.5151 L 234.955 34.5554 L 234.955 34.9135 L 235.772 34.9135 L 235.772 37.4049 L 235.772 37.4049 z" stroke="none" fill-rule="evenodd" fill="rgb(0, 0, 0)"/><path d="M 267.563 39.9225 L 269.495 39.4049 L 267.563 38.8872"/><path d="M 200.427 38.8872 L 198.495 39.4049 L 200.427 39.9225"/><path d="M 198.495 39.4049 L 269.495 39.4049"/></g><g stroke="rgb(0, 0, 0)" stroke-width="0.13" stroke-linecap="butt" stroke-linejoin="miter" fill="none"><path d="M 235.422 163.593 L 235.881 163.593 L 235.881 160.068 L 235.538 160.068 L 235.447 160.375 L 235.266 160.582 L 234.988 160.703 L 234.605 160.743 L 234.605 161.102 L 235.422 161.102 L 235.422 163.593 L 235.422 163.593 z M 240.864 163.593 L 241.56 162.539 L 242.276 163.593 L 242.81 163.593 L 241.842 162.196 L 242.755 160.885 L 242.24 160.885 L 241.58 161.868 L 240.919 160.885 L 240.395 160.885 L 241.292 162.201 L 240.344 163.593 L 240.864 163.593 L 240.864 163.593 z M 248.534 160.088 L 247.657 163.068 L 246.754 160.088 L 246.275 160.088 L 247.405 163.593 L 247.909 163.593 L 249.014 160.088 L 248.534 160.088 L 248.534 160.088 z M 251.006 163.22 L 251.006 160.975 L 249.866 160.975 L 249.866 161.354 L 250.562 161.354 L 250.562 163.22 L 249.654 163.22 L 249.654 163.593 L 251.923 163.593 L 251.923 163.22 L 251.006 163.22 L 251.006 163.22 z M 251.021 159.972 L 250.552 159.972 L 250.552 160.476 L 251.021 160.476 L 251.021 159.972 L 251.021 159.972 z M 253.28 161.354 L 253.28 162.71 L 253.31 163.149 L 253.452 163.452 L 253.734 163.628 L 254.213 163.689 L 254.738 163.664 L 254.738 163.28 L 254.354 163.31 L 254.006 163.27 L 253.82 163.144 L 253.739 162.932 L 253.724 162.635 L 253.724 161.354 L 254.738 161.354 L 254.738 160.975 L 253.724 160.975 L 253.724 160.184 L 253.28 160.184 L 253.28 160.975 L 252.514 160.975 L 252.514 161.354 L 253.28 161.354 L 253.28 161.354 z M 255.887 163.593 L 256.331 163.593 L 256.331 162.045 L 256.377 161.671 L 256.513 161.404 L 256.735 161.243 L 257.032 161.187 L 257.254 161.223 L 257.421 161.323 L 257.522 161.495 L 257.557 161.727 L 258.006 161.727 L 257.945 161.318 L 257.779 161.026 L 257.501 160.849 L 257.123 160.789 L 256.866 160.829 L 256.644 160.93 L 256.447 161.102 L 256.291 161.334 L 256.291 160.885 L 255.887 160.885 L 255.887 163.593 L 255.887 163.593 z M 259.145 162.367 L 260.921 162.367 L 260.926 162.161 L 260.845 161.581 L 260.623 161.147 L 260.27 160.885 L 259.801 160.789 L 259.342 160.89 L 258.989 161.172 L 258.762 161.631 L 258.681 162.236 L 258.757 162.857 L 258.984 163.31 L 259.332 163.593 L 259.786 163.689 L 260.179 163.623 L 260.502 163.452 L 260.739 163.179 L 260.875 162.816 L 260.437 162.816 L 260.346 163.018 L 260.215 163.169 L 259.841 163.29 L 259.554 163.235 L 259.337 163.058 L 259.196 162.771 L 259.145 162.383 L 259.145 162.367 L 259.145 162.367 z M 259.145 161.994 L 259.201 161.646 L 259.337 161.389 L 259.544 161.233 L 259.816 161.177 L 260.083 161.233 L 260.29 161.389 L 260.416 161.646 L 260.462 161.994 L 259.145 161.994 L 259.145 161.994 z M 264.602 162.493 L 264.602 162.529 L 264.683 163.013 L 264.92 163.376 L 265.293 163.608 L 265.787 163.694 L 266.312 163.608 L 266.705 163.386 L 266.957 163.033 L 267.048 162.579 L 267.008 162.282 L 266.897 162.04 L 266.715 161.853 L 266.473 161.717 L 266.801 161.444 L 266.917 161.011 L 266.841 160.617 L 266.625 160.32 L 266.272 160.133 L 265.787 160.068 L 265.334 160.148 L 264.986 160.37 L 264.759 160.723 L 264.683 161.192 L 264.683 161.228 L 265.132 161.228 L 265.172 160.905 L 265.303 160.673 L 265.515 160.532 L 265.813 160.481 L 266.075 160.522 L 266.267 160.627 L 266.383 160.799 L 266.428 161.031 L 266.383 161.278 L 266.261 161.444 L 266.05 161.545 L 265.762 161.576 L 265.566 161.571 L 265.566 161.969 L 265.813 161.959 L 266.13 162.004 L 266.367 162.125 L 266.509 162.322 L 266.559 162.579 L 266.504 162.872 L 266.357 163.089 L 266.125 163.225 L 265.818 163.27 L 265.5 163.22 L 265.268 163.068 L 265.122 162.826 L 265.066 162.493 L 264.602 162.493 L 264.602 162.493 z" stroke="none" fill-rule="evenodd" fill="rgb(0, 0, 0)"/></g><g stroke="rgb(0, 0, 0)" stroke-width="0.13" stroke-linecap="butt" stroke-linejoin="miter" fill="none"><path d="M 236.39 166.135 L 235.513 169.115 L 234.61 166.135 L 234.131 166.135 L 235.261 169.64 L 235.765 169.64 L 236.869 166.135 L 236.39 166.135 L 236.39 166.135 z M 239.593 166.931 L 239.149 166.931 L 239.149 168.495 L 239.098 168.858 L 238.952 169.12 L 238.725 169.282 L 238.428 169.332 L 238.191 169.292 L 238.039 169.171 L 237.954 168.964 L 237.934 168.671 L 237.934 166.931 L 237.49 166.931 L 237.49 168.712 L 237.505 169.07 L 237.601 169.367 L 237.893 169.64 L 238.362 169.736 L 238.614 169.7 L 238.831 169.609 L 239.018 169.453 L 239.169 169.226 L 239.169 169.64 L 239.593 169.64 L 239.593 166.931 L 239.593 166.931 z M 240.929 168.414 L 242.704 168.414 L 242.709 168.207 L 242.629 167.627 L 242.407 167.194 L 242.054 166.931 L 241.585 166.836 L 241.126 166.937 L 240.773 167.219 L 240.546 167.678 L 240.465 168.283 L 240.541 168.903 L 240.768 169.357 L 241.116 169.64 L 241.57 169.736 L 241.963 169.67 L 242.286 169.499 L 242.523 169.226 L 242.659 168.863 L 242.22 168.863 L 242.129 169.065 L 241.998 169.216 L 241.625 169.337 L 241.338 169.282 L 241.121 169.105 L 240.98 168.818 L 240.929 168.429 L 240.929 168.414 L 240.929 168.414 z M 240.929 168.041 L 240.985 167.693 L 241.121 167.436 L 241.328 167.279 L 241.6 167.224 L 241.867 167.279 L 242.074 167.436 L 242.2 167.693 L 242.245 168.041 L 240.929 168.041 L 240.929 168.041 z M 248.277 169.221 L 248.277 169.64 L 248.721 169.64 L 248.721 166.019 L 248.282 166.019 L 248.282 167.345 L 247.944 166.962 L 247.738 166.871 L 247.501 166.836 L 247.072 166.937 L 246.739 167.219 L 246.522 167.673 L 246.447 168.283 L 246.522 168.893 L 246.739 169.352 L 247.072 169.64 L 247.501 169.736 L 247.738 169.7 L 247.949 169.609 L 248.277 169.221 L 248.277 169.221 z M 247.576 167.234 L 247.869 167.305 L 248.091 167.501 L 248.222 167.829 L 248.272 168.283 L 248.222 168.742 L 248.091 169.07 L 247.869 169.272 L 247.576 169.337 L 247.299 169.272 L 247.087 169.07 L 246.946 168.737 L 246.9 168.283 L 246.946 167.834 L 247.087 167.506 L 247.299 167.305 L 247.576 167.234 L 247.576 167.234 z M 250.037 168.414 L 251.813 168.414 L 251.818 168.207 L 251.737 167.627 L 251.515 167.194 L 251.162 166.931 L 250.693 166.836 L 250.234 166.937 L 249.881 167.219 L 249.654 167.678 L 249.573 168.283 L 249.649 168.903 L 249.876 169.357 L 250.224 169.64 L 250.678 169.736 L 251.071 169.67 L 251.394 169.499 L 251.631 169.226 L 251.767 168.863 L 251.328 168.863 L 251.238 169.065 L 251.106 169.216 L 250.733 169.337 L 250.446 169.282 L 250.229 169.105 L 250.088 168.818 L 250.037 168.429 L 250.037 168.414 L 250.037 168.414 z M 250.037 168.041 L 250.093 167.693 L 250.229 167.436 L 250.436 167.279 L 250.708 167.224 L 250.975 167.279 L 251.182 167.436 L 251.308 167.693 L 251.354 168.041 L 250.037 168.041 L 250.037 168.041 z M 256.336 167.401 L 256.336 169.64 L 256.78 169.64 L 256.78 167.401 L 257.789 167.401 L 257.789 167.022 L 256.78 167.022 L 256.78 166.856 L 256.815 166.654 L 256.931 166.518 L 257.128 166.437 L 257.411 166.407 L 257.789 166.427 L 257.789 166.044 L 257.31 166.019 L 256.876 166.064 L 256.573 166.2 L 256.392 166.437 L 256.336 166.775 L 256.336 167.022 L 255.524 167.022 L 255.524 167.401 L 256.336 167.401 L 256.336 167.401 z M 260.366 169.287 L 260.366 169.302 L 260.391 169.473 L 260.467 169.594 L 260.785 169.69 L 261.032 169.65 L 261.032 169.307 L 260.926 169.322 L 260.785 169.256 L 260.759 169.055 L 260.759 167.653 L 260.699 167.295 L 260.522 167.042 L 260.215 166.891 L 259.781 166.836 L 259.357 166.896 L 259.045 167.068 L 258.848 167.335 L 258.782 167.688 L 258.782 167.718 L 259.181 167.718 L 259.216 167.506 L 259.327 167.355 L 259.509 167.264 L 259.766 167.229 L 260.013 167.254 L 260.189 167.33 L 260.295 167.461 L 260.331 167.643 L 260.31 167.854 L 260.23 167.96 L 260.028 168.011 L 259.65 168.051 L 259.216 168.142 L 258.908 168.303 L 258.727 168.555 L 258.671 168.929 L 258.722 169.261 L 258.878 169.509 L 259.13 169.665 L 259.478 169.72 L 259.947 169.615 L 260.366 169.287 L 260.366 169.287 z M 260.315 168.692 L 260.255 168.954 L 260.094 169.156 L 259.852 169.287 L 259.554 169.332 L 259.362 169.307 L 259.226 169.226 L 259.14 169.085 L 259.115 168.888 L 259.135 168.712 L 259.216 168.586 L 259.539 168.444 L 259.947 168.384 L 260.315 168.263 L 260.315 168.692 L 260.315 168.692 z M 263.518 167.829 L 263.957 167.829 L 263.866 167.426 L 263.649 167.108 L 263.311 166.911 L 262.872 166.836 L 262.388 166.937 L 262.02 167.219 L 261.788 167.678 L 261.707 168.293 L 261.783 168.903 L 262.01 169.357 L 262.368 169.64 L 262.857 169.736 L 263.291 169.66 L 263.629 169.448 L 263.861 169.115 L 263.962 168.671 L 263.538 168.671 L 263.462 168.954 L 263.321 169.166 L 263.12 169.297 L 262.872 169.337 L 262.565 169.272 L 262.343 169.07 L 262.207 168.742 L 262.161 168.278 L 262.207 167.824 L 262.348 167.496 L 262.575 167.295 L 262.872 167.224 L 263.135 167.269 L 263.331 167.385 L 263.462 167.577 L 263.518 167.829 L 263.518 167.829 z M 265.218 168.414 L 266.993 168.414 L 266.998 168.207 L 266.917 167.627 L 266.695 167.194 L 266.342 166.931 L 265.873 166.836 L 265.414 166.937 L 265.061 167.219 L 264.834 167.678 L 264.754 168.283 L 264.829 168.903 L 265.056 169.357 L 265.404 169.64 L 265.858 169.736 L 266.251 169.67 L 266.574 169.499 L 266.811 169.226 L 266.947 168.863 L 266.509 168.863 L 266.418 169.065 L 266.287 169.216 L 265.914 169.337 L 265.626 169.282 L 265.409 169.105 L 265.268 168.818 L 265.218 168.429 L 265.218 168.414 L 265.218 168.414 z M 265.218 168.041 L 265.273 167.693 L 265.409 167.436 L 265.616 167.279 L 265.888 167.224 L 266.156 167.279 L 266.362 167.436 L 266.488 167.693 L 266.534 168.041 L 265.218 168.041 L 265.218 168.041 z" stroke="none" fill-rule="evenodd" fill="rgb(0, 0, 0)"/></g><g stroke="rgb(0, 0, 0)" stroke-width="0.13" stroke-linecap="butt" stroke-linejoin="miter" fill="none"><path d="M 234.454 175.687 L 236.673 175.687 L 236.673 175.263 L 234.918 175.263 L 234.918 174.078 L 236.481 174.078 L 236.481 173.659 L 234.918 173.659 L 234.918 172.61 L 236.632 172.61 L 236.632 172.187 L 234.454 172.187 L 234.454 175.687 L 234.454 175.687 z M 239.23 173.876 L 239.668 173.876 L 239.578 173.473 L 239.361 173.155 L 239.023 172.958 L 238.584 172.883 L 238.1 172.983 L 237.732 173.266 L 237.5 173.725 L 237.419 174.34 L 237.495 174.95 L 237.722 175.404 L 238.08 175.687 L 238.569 175.782 L 239.003 175.707 L 239.341 175.495 L 239.573 175.162 L 239.673 174.718 L 239.25 174.718 L 239.174 175.001 L 239.033 175.212 L 238.831 175.344 L 238.584 175.384 L 238.276 175.318 L 238.055 175.117 L 237.918 174.789 L 237.873 174.325 L 237.918 173.871 L 238.06 173.543 L 238.287 173.341 L 238.584 173.271 L 238.846 173.316 L 239.043 173.432 L 239.174 173.624 L 239.23 173.876 L 239.23 173.876 z M 240.541 175.687 L 240.985 175.687 L 240.985 174.123 L 241.03 173.765 L 241.176 173.503 L 241.403 173.341 L 241.706 173.281 L 241.948 173.331 L 242.099 173.468 L 242.175 173.694 L 242.2 173.997 L 242.2 175.687 L 242.644 175.687 L 242.644 173.906 L 242.624 173.548 L 242.533 173.251 L 242.235 172.978 L 241.771 172.883 L 241.519 172.918 L 241.302 173.014 L 241.121 173.165 L 240.985 173.372 L 240.985 172.066 L 240.541 172.066 L 240.541 175.687 L 240.541 175.687 z M 243.965 174.461 L 245.74 174.461 L 245.746 174.254 L 245.665 173.674 L 245.443 173.241 L 245.09 172.978 L 244.621 172.883 L 244.162 172.983 L 243.809 173.266 L 243.582 173.725 L 243.501 174.33 L 243.577 174.95 L 243.804 175.404 L 244.152 175.687 L 244.606 175.782 L 244.999 175.717 L 245.322 175.545 L 245.559 175.273 L 245.695 174.91 L 245.256 174.91 L 245.166 175.112 L 245.034 175.263 L 244.661 175.384 L 244.374 175.328 L 244.157 175.152 L 244.016 174.865 L 243.965 174.476 L 243.965 174.461 L 243.965 174.461 z M 243.965 174.088 L 244.021 173.74 L 244.157 173.483 L 244.364 173.326 L 244.636 173.271 L 244.903 173.326 L 245.11 173.483 L 245.236 173.74 L 245.282 174.088 L 243.965 174.088 L 243.965 174.088 z M 247.496 172.439 L 247.496 175.313 L 246.583 175.313 L 246.583 175.687 L 248.847 175.687 L 248.847 175.313 L 247.939 175.313 L 247.939 172.066 L 246.8 172.066 L 246.8 172.439 L 247.496 172.439 L 247.496 172.439 z M 250.532 172.439 L 250.532 175.313 L 249.619 175.313 L 249.619 175.687 L 251.883 175.687 L 251.883 175.313 L 250.975 175.313 L 250.975 172.066 L 249.836 172.066 L 249.836 172.439 L 250.532 172.439 L 250.532 172.439 z M 253.073 174.461 L 254.849 174.461 L 254.854 174.254 L 254.773 173.674 L 254.551 173.241 L 254.198 172.978 L 253.729 172.883 L 253.27 172.983 L 252.917 173.266 L 252.69 173.725 L 252.609 174.33 L 252.685 174.95 L 252.912 175.404 L 253.26 175.687 L 253.714 175.782 L 254.107 175.717 L 254.43 175.545 L 254.667 175.273 L 254.803 174.91 L 254.364 174.91 L 254.274 175.112 L 254.143 175.263 L 253.769 175.384 L 253.482 175.328 L 253.265 175.152 L 253.124 174.865 L 253.073 174.476 L 253.073 174.461 L 253.073 174.461 z M 253.073 174.088 L 253.129 173.74 L 253.265 173.483 L 253.472 173.326 L 253.744 173.271 L 254.011 173.326 L 254.218 173.483 L 254.344 173.74 L 254.39 174.088 L 253.073 174.088 L 253.073 174.088 z M 259.453 175.687 L 260.149 175.687 L 260.149 174.935 L 259.453 174.935 L 259.453 175.687 L 259.453 175.687 z M 259.453 173.73 L 260.149 173.73 L 260.149 172.978 L 259.453 172.978 L 259.453 173.73 L 259.453 173.73 z" stroke="none" fill-rule="evenodd" fill="rgb(0, 0, 0)"/></g><g stroke="rgb(0, 0, 0)" stroke-width="0.13" stroke-linecap="butt" stroke-linejoin="miter" fill="none"><path d="M 268.818 175.687 L 269.277 175.687 L 269.277 172.161 L 268.934 172.161 L 268.843 172.469 L 268.662 172.676 L 268.385 172.797 L 268.001 172.837 L 268.001 173.195 L 268.818 173.195 L 268.818 175.687 L 268.818 175.687 z M 271.597 175.687 L 272.293 175.687 L 272.293 174.935 L 271.597 174.935 L 271.597 175.687 L 271.597 175.687 z M 271.597 173.73 L 272.293 173.73 L 272.293 172.978 L 271.597 172.978 L 271.597 173.73 L 271.597 173.73 z M 274.89 175.687 L 275.349 175.687 L 275.349 172.161 L 275.006 172.161 L 274.916 172.469 L 274.734 172.676 L 274.457 172.797 L 274.073 172.837 L 274.073 173.195 L 274.89 173.195 L 274.89 175.687 L 274.89 175.687 z" stroke="none" fill-rule="evenodd" fill="rgb(0, 0, 0)"/></g><g stroke="rgb(0, 0, 0)" stroke-width="0.13" stroke-linecap="butt" stroke-linejoin="miter" fill="none"><path d="M 144.033 33.8754 L 143.937 33.4669 L 143.715 33.1643 L 143.372 32.9727 L 142.929 32.9071 L 142.631 32.9424 L 142.374 33.0383 L 142.147 33.1946 L 141.955 33.4165 L 141.804 33.6939 L 141.693 34.0318 L 141.622 34.4302 L 141.602 34.879 L 141.683 35.5952 L 141.93 36.1146 L 142.328 36.4273 L 142.873 36.5332 L 143.362 36.4424 L 143.735 36.2054 L 143.978 35.8322 L 144.063 35.3581 L 143.978 34.879 L 143.746 34.5109 L 143.388 34.2789 L 142.944 34.1982 L 142.465 34.2991 L 142.107 34.5865 L 142.182 34.0318 L 142.344 33.6333 L 142.591 33.3963 L 142.934 33.3156 L 143.186 33.356 L 143.377 33.4619 L 143.504 33.6384 L 143.569 33.8754 L 144.033 33.8754 L 144.033 33.8754 z M 143.574 35.3632 L 143.519 35.6809 L 143.377 35.923 L 143.15 36.0844 L 142.868 36.1348 L 142.571 36.0844 L 142.344 35.928 L 142.197 35.6859 L 142.152 35.3682 L 142.202 35.0555 L 142.344 34.8185 L 142.576 34.6672 L 142.888 34.6117 L 143.161 34.6672 L 143.377 34.8135 L 143.519 35.0505 L 143.574 35.3632 L 143.574 35.3632 z M 145.308 35.5195 L 145.419 35.9331 L 145.666 36.2558 L 146.029 36.4576 L 146.493 36.5332 L 147.003 36.4424 L 147.401 36.1953 L 147.653 35.8019 L 147.749 35.2976 L 147.663 34.8286 L 147.421 34.4604 L 147.043 34.2234 L 146.554 34.1377 L 146.175 34.1982 L 145.883 34.3646 L 146.024 33.4215 L 147.557 33.4215 L 147.557 33.008 L 145.686 33.008 L 145.409 34.8639 L 145.812 34.8639 L 146.105 34.6269 L 146.478 34.5411 L 146.801 34.5966 L 147.048 34.758 L 147.204 35.0051 L 147.26 35.3228 L 147.204 35.6405 L 147.043 35.8877 L 146.796 36.044 L 146.478 36.0995 L 146.211 36.0642 L 146.004 35.9482 L 145.853 35.7666 L 145.777 35.5195 L 145.308 35.5195 L 145.308 35.5195 z" stroke="none" fill-rule="evenodd" fill="rgb(0, 0, 0)"/><path d="M 175.259 38.95 L 177.191 38.4323 L 175.259 37.9147"/><path d="M 114.123 37.9147 L 112.191 38.4323 L 114.123 38.95"/><path d="M 112.191 38.4323 L 177.191 38.4323"/></g><g stroke="rgb(0, 0, 0)" stroke-width="0.13" stroke-linecap="butt" stroke-linejoin="miter" fill="none"><path d="M 182.728 79.2395 L 182.32 79.3353 L 182.017 79.5572 L 181.825 79.9002 L 181.76 80.344 L 181.795 80.6415 L 181.891 80.8987 L 182.047 81.1257 L 182.269 81.3173 L 182.546 81.4686 L 182.884 81.5796 L 183.283 81.6502 L 183.732 81.6703 L 184.448 81.5897 L 184.967 81.3425 L 185.28 80.9441 L 185.386 80.3994 L 185.295 79.9103 L 185.058 79.5371 L 184.685 79.295 L 184.211 79.2092 L 183.732 79.295 L 183.364 79.527 L 183.132 79.885 L 183.051 80.3288 L 183.152 80.808 L 183.439 81.166 L 182.884 81.0904 L 182.486 80.929 L 182.249 80.6819 L 182.168 80.3389 L 182.209 80.0868 L 182.315 79.8951 L 182.491 79.769 L 182.728 79.7035 L 182.728 79.2395 L 182.728 79.2395 z M 184.216 79.6984 L 184.534 79.7539 L 184.776 79.8951 L 184.937 80.1221 L 184.987 80.4045 L 184.937 80.702 L 184.781 80.929 L 184.539 81.0752 L 184.221 81.1206 L 183.908 81.0702 L 183.671 80.929 L 183.52 80.697 L 183.464 80.3843 L 183.52 80.112 L 183.666 79.8951 L 183.903 79.7539 L 184.216 79.6984 L 184.216 79.6984 z M 183.575 77.9293 L 184.367 77.8536 L 184.932 77.6166 L 185.275 77.2384 L 185.386 76.7139 L 185.275 76.1944 L 184.932 75.8162 L 184.367 75.5842 L 183.575 75.5035 L 182.789 75.5842 L 182.476 75.68 L 182.219 75.8162 L 181.876 76.1944 L 181.76 76.7139 L 181.876 77.2384 L 182.224 77.6166 L 182.789 77.8536 L 183.575 77.9293 L 183.575 77.9293 z M 183.575 77.4451 L 182.965 77.4048 L 182.526 77.2787 L 182.269 77.0518 L 182.178 76.7139 L 182.269 76.381 L 182.526 76.1541 L 182.965 76.028 L 183.575 75.9876 L 184.191 76.028 L 184.629 76.1541 L 184.887 76.381 L 184.972 76.7139 L 184.887 77.0518 L 184.629 77.2787 L 184.191 77.4048 L 183.575 77.4451 L 183.575 77.4451 z" stroke="none" fill-rule="evenodd" fill="rgb(0, 0, 0)"/><path d="M 186.767 106.65 L 187.285 108.582 L 187.803 106.65"/><path d="M 187.803 50.5137 L 187.285 48.5819 L 186.767 50.5137"/><path d="M 187.285 108.582 L 187.285 48.5819"/></g><g stroke="rgb(0, 0, 0)" stroke-width="0.13" stroke-linecap="butt" stroke-linejoin="miter" fill="none"><path d="M 134.24 129.711 L 136.646 129.711 L 136.646 129.278 L 134.744 129.278 L 134.85 129.041 L 135.032 128.844 L 135.592 128.486 L 135.889 128.334 L 136.222 128.118 L 136.459 127.865 L 136.595 127.568 L 136.646 127.23 L 136.56 126.806 L 136.323 126.474 L 135.96 126.262 L 135.491 126.186 L 135.007 126.272 L 134.638 126.509 L 134.401 126.887 L 134.321 127.386 L 134.321 127.457 L 134.78 127.457 L 134.78 127.417 L 134.825 127.074 L 134.961 126.822 L 135.178 126.66 L 135.466 126.605 L 135.758 126.655 L 135.975 126.781 L 136.116 126.978 L 136.167 127.225 L 136.131 127.457 L 136.035 127.654 L 135.874 127.825 L 135.652 127.976 L 135.355 128.138 L 134.86 128.45 L 134.512 128.783 L 134.306 129.187 L 134.24 129.696 L 134.24 129.711 L 134.24 129.711 z M 140.821 129.711 L 141.517 128.657 L 142.234 129.711 L 142.768 129.711 L 141.8 128.314 L 142.713 127.003 L 142.198 127.003 L 141.538 127.986 L 140.877 127.003 L 140.352 127.003 L 141.25 128.319 L 140.302 129.711 L 140.821 129.711 L 140.821 129.711 z M 148.492 126.206 L 147.615 129.187 L 146.712 126.206 L 146.233 126.206 L 147.363 129.711 L 147.867 129.711 L 148.971 126.206 L 148.492 126.206 L 148.492 126.206 z M 150.963 129.338 L 150.963 127.094 L 149.824 127.094 L 149.824 127.472 L 150.52 127.472 L 150.52 129.338 L 149.612 129.338 L 149.612 129.711 L 151.881 129.711 L 151.881 129.338 L 150.963 129.338 L 150.963 129.338 z M 150.979 126.09 L 150.509 126.09 L 150.509 126.595 L 150.979 126.595 L 150.979 126.09 L 150.979 126.09 z M 153.238 127.472 L 153.238 128.829 L 153.268 129.267 L 153.409 129.57 L 153.692 129.747 L 154.171 129.807 L 154.695 129.782 L 154.695 129.399 L 154.312 129.429 L 153.964 129.389 L 153.777 129.262 L 153.697 129.051 L 153.682 128.753 L 153.682 127.472 L 154.695 127.472 L 154.695 127.094 L 153.682 127.094 L 153.682 126.302 L 153.238 126.302 L 153.238 127.094 L 152.471 127.094 L 152.471 127.472 L 153.238 127.472 L 153.238 127.472 z M 155.845 129.711 L 156.289 129.711 L 156.289 128.163 L 156.334 127.79 L 156.471 127.523 L 156.692 127.361 L 156.99 127.306 L 157.212 127.341 L 157.378 127.442 L 157.479 127.613 L 157.515 127.845 L 157.963 127.845 L 157.903 127.437 L 157.736 127.144 L 157.459 126.968 L 157.081 126.907 L 156.824 126.948 L 156.602 127.048 L 156.405 127.22 L 156.249 127.452 L 156.249 127.003 L 155.845 127.003 L 155.845 129.711 L 155.845 129.711 z M 159.103 128.486 L 160.878 128.486 L 160.883 128.279 L 160.803 127.699 L 160.581 127.265 L 160.228 127.003 L 159.759 126.907 L 159.3 127.008 L 158.947 127.291 L 158.72 127.749 L 158.639 128.355 L 158.715 128.975 L 158.942 129.429 L 159.29 129.711 L 159.744 129.807 L 160.137 129.742 L 160.46 129.57 L 160.697 129.298 L 160.833 128.935 L 160.394 128.935 L 160.303 129.136 L 160.172 129.288 L 159.799 129.409 L 159.512 129.353 L 159.295 129.177 L 159.154 128.889 L 159.103 128.501 L 159.103 128.486 L 159.103 128.486 z M 159.103 128.113 L 159.159 127.765 L 159.295 127.507 L 159.502 127.351 L 159.774 127.296 L 160.041 127.351 L 160.248 127.507 L 160.374 127.765 L 160.419 128.113 L 159.103 128.113 L 159.103 128.113 z M 164.6 129.711 L 167.006 129.711 L 167.006 129.278 L 165.105 129.278 L 165.21 129.041 L 165.392 128.844 L 165.952 128.486 L 166.249 128.334 L 166.582 128.118 L 166.819 127.865 L 166.955 127.568 L 167.006 127.23 L 166.92 126.806 L 166.683 126.474 L 166.32 126.262 L 165.851 126.186 L 165.367 126.272 L 164.999 126.509 L 164.762 126.887 L 164.681 127.386 L 164.681 127.457 L 165.14 127.457 L 165.14 127.417 L 165.185 127.074 L 165.321 126.822 L 165.538 126.66 L 165.826 126.605 L 166.118 126.655 L 166.335 126.781 L 166.476 126.978 L 166.527 127.225 L 166.491 127.457 L 166.396 127.654 L 166.234 127.825 L 166.012 127.976 L 165.715 128.138 L 165.221 128.45 L 164.873 128.783 L 164.666 129.187 L 164.6 129.696 L 164.6 129.711 L 164.6 129.711 z" stroke="none" fill-rule="evenodd" fill="rgb(0, 0, 0)"/></g><g stroke="rgb(0, 0, 0)" stroke-width="0.13" stroke-linecap="butt" stroke-linejoin="miter" fill="none"><path d="M 136.348 132.253 L 135.471 135.234 L 134.568 132.253 L 134.089 132.253 L 135.218 135.758 L 135.723 135.758 L 136.827 132.253 L 136.348 132.253 L 136.348 132.253 z M 139.551 133.05 L 139.107 133.05 L 139.107 134.613 L 139.056 134.976 L 138.91 135.239 L 138.683 135.4 L 138.386 135.45 L 138.149 135.41 L 137.997 135.289 L 137.911 135.082 L 137.891 134.79 L 137.891 133.05 L 137.448 133.05 L 137.448 134.83 L 137.463 135.188 L 137.558 135.486 L 137.851 135.758 L 138.32 135.854 L 138.572 135.819 L 138.789 135.728 L 138.976 135.572 L 139.127 135.345 L 139.127 135.758 L 139.551 135.758 L 139.551 133.05 L 139.551 133.05 z M 140.887 134.533 L 142.662 134.533 L 142.667 134.326 L 142.587 133.746 L 142.365 133.312 L 142.012 133.05 L 141.543 132.954 L 141.084 133.055 L 140.731 133.337 L 140.504 133.796 L 140.423 134.401 L 140.499 135.022 L 140.726 135.476 L 141.074 135.758 L 141.527 135.854 L 141.921 135.788 L 142.244 135.617 L 142.481 135.345 L 142.617 134.981 L 142.178 134.981 L 142.087 135.183 L 141.956 135.334 L 141.583 135.456 L 141.295 135.4 L 141.079 135.224 L 140.937 134.936 L 140.887 134.548 L 140.887 134.533 L 140.887 134.533 z M 140.887 134.159 L 140.942 133.811 L 141.079 133.554 L 141.285 133.398 L 141.558 133.342 L 141.825 133.398 L 142.032 133.554 L 142.158 133.811 L 142.203 134.159 L 140.887 134.159 L 140.887 134.159 z M 148.235 135.34 L 148.235 135.758 L 148.679 135.758 L 148.679 132.137 L 148.24 132.137 L 148.24 133.463 L 147.902 133.08 L 147.695 132.989 L 147.458 132.954 L 147.03 133.055 L 146.697 133.337 L 146.48 133.791 L 146.404 134.401 L 146.48 135.012 L 146.697 135.471 L 147.03 135.758 L 147.458 135.854 L 147.695 135.819 L 147.907 135.728 L 148.235 135.34 L 148.235 135.34 z M 147.534 133.352 L 147.826 133.423 L 148.048 133.62 L 148.18 133.948 L 148.23 134.401 L 148.18 134.86 L 148.048 135.188 L 147.826 135.39 L 147.534 135.456 L 147.257 135.39 L 147.045 135.188 L 146.904 134.855 L 146.858 134.401 L 146.904 133.953 L 147.045 133.625 L 147.257 133.423 L 147.534 133.352 L 147.534 133.352 z M 149.995 134.533 L 151.77 134.533 L 151.775 134.326 L 151.695 133.746 L 151.473 133.312 L 151.12 133.05 L 150.651 132.954 L 150.192 133.055 L 149.839 133.337 L 149.612 133.796 L 149.531 134.401 L 149.607 135.022 L 149.834 135.476 L 150.182 135.758 L 150.636 135.854 L 151.029 135.788 L 151.352 135.617 L 151.589 135.345 L 151.725 134.981 L 151.286 134.981 L 151.195 135.183 L 151.064 135.334 L 150.691 135.456 L 150.404 135.4 L 150.187 135.224 L 150.046 134.936 L 149.995 134.548 L 149.995 134.533 L 149.995 134.533 z M 149.995 134.159 L 150.051 133.811 L 150.187 133.554 L 150.393 133.398 L 150.666 133.342 L 150.933 133.398 L 151.14 133.554 L 151.266 133.811 L 151.311 134.159 L 149.995 134.159 L 149.995 134.159 z M 156.294 133.519 L 156.294 135.758 L 156.738 135.758 L 156.738 133.519 L 157.747 133.519 L 157.747 133.141 L 156.738 133.141 L 156.738 132.974 L 156.773 132.773 L 156.889 132.636 L 157.086 132.556 L 157.368 132.525 L 157.747 132.546 L 157.747 132.162 L 157.267 132.137 L 156.834 132.182 L 156.531 132.319 L 156.35 132.556 L 156.294 132.894 L 156.294 133.141 L 155.482 133.141 L 155.482 133.519 L 156.294 133.519 L 156.294 133.519 z M 160.324 135.405 L 160.324 135.42 L 160.349 135.592 L 160.424 135.713 L 160.742 135.809 L 160.989 135.768 L 160.989 135.425 L 160.883 135.44 L 160.742 135.375 L 160.717 135.173 L 160.717 133.771 L 160.656 133.413 L 160.48 133.161 L 160.172 133.01 L 159.739 132.954 L 159.315 133.015 L 159.002 133.186 L 158.806 133.453 L 158.74 133.806 L 158.74 133.837 L 159.138 133.837 L 159.174 133.625 L 159.285 133.474 L 159.466 133.383 L 159.723 133.347 L 159.971 133.373 L 160.147 133.448 L 160.253 133.579 L 160.288 133.761 L 160.268 133.973 L 160.187 134.079 L 159.986 134.129 L 159.607 134.169 L 159.174 134.26 L 158.866 134.422 L 158.685 134.674 L 158.629 135.047 L 158.68 135.38 L 158.836 135.627 L 159.088 135.783 L 159.436 135.839 L 159.905 135.733 L 160.324 135.405 L 160.324 135.405 z M 160.273 134.81 L 160.213 135.072 L 160.051 135.274 L 159.809 135.405 L 159.512 135.45 L 159.32 135.425 L 159.184 135.345 L 159.098 135.203 L 159.073 135.007 L 159.093 134.83 L 159.174 134.704 L 159.497 134.563 L 159.905 134.502 L 160.273 134.381 L 160.273 134.81 L 160.273 134.81 z M 163.476 133.948 L 163.914 133.948 L 163.824 133.544 L 163.607 133.226 L 163.269 133.03 L 162.83 132.954 L 162.346 133.055 L 161.978 133.337 L 161.746 133.796 L 161.665 134.412 L 161.741 135.022 L 161.968 135.476 L 162.326 135.758 L 162.815 135.854 L 163.249 135.778 L 163.587 135.566 L 163.819 135.234 L 163.919 134.79 L 163.496 134.79 L 163.42 135.072 L 163.279 135.284 L 163.077 135.415 L 162.83 135.456 L 162.522 135.39 L 162.301 135.188 L 162.164 134.86 L 162.119 134.396 L 162.164 133.943 L 162.306 133.615 L 162.533 133.413 L 162.83 133.342 L 163.092 133.388 L 163.289 133.504 L 163.42 133.695 L 163.476 133.948 L 163.476 133.948 z M 165.175 134.533 L 166.95 134.533 L 166.955 134.326 L 166.875 133.746 L 166.653 133.312 L 166.3 133.05 L 165.831 132.954 L 165.372 133.055 L 165.019 133.337 L 164.792 133.796 L 164.711 134.401 L 164.787 135.022 L 165.014 135.476 L 165.362 135.758 L 165.816 135.854 L 166.209 135.788 L 166.532 135.617 L 166.769 135.345 L 166.905 134.981 L 166.466 134.981 L 166.375 135.183 L 166.244 135.334 L 165.871 135.456 L 165.584 135.4 L 165.367 135.224 L 165.226 134.936 L 165.175 134.548 L 165.175 134.533 L 165.175 134.533 z M 165.175 134.159 L 165.231 133.811 L 165.367 133.554 L 165.574 133.398 L 165.846 133.342 L 166.113 133.398 L 166.32 133.554 L 166.446 133.811 L 166.491 134.159 L 165.175 134.159 L 165.175 134.159 z" stroke="none" fill-rule="evenodd" fill="rgb(0, 0, 0)"/></g><g stroke="rgb(0, 0, 0)" stroke-width="0.13" stroke-linecap="butt" stroke-linejoin="miter" fill="none"><path d="M 134.411 141.805 L 136.63 141.805 L 136.63 141.381 L 134.875 141.381 L 134.875 140.196 L 136.439 140.196 L 136.439 139.778 L 134.875 139.778 L 134.875 138.729 L 136.59 138.729 L 136.59 138.305 L 134.411 138.305 L 134.411 141.805 L 134.411 141.805 z M 139.187 139.994 L 139.626 139.994 L 139.535 139.591 L 139.319 139.273 L 138.981 139.077 L 138.542 139.001 L 138.058 139.102 L 137.69 139.384 L 137.458 139.843 L 137.377 140.458 L 137.453 141.069 L 137.679 141.523 L 138.038 141.805 L 138.527 141.901 L 138.96 141.825 L 139.298 141.613 L 139.53 141.28 L 139.631 140.837 L 139.208 140.837 L 139.132 141.119 L 138.991 141.331 L 138.789 141.462 L 138.542 141.502 L 138.234 141.437 L 138.012 141.235 L 137.876 140.907 L 137.831 140.443 L 137.876 139.989 L 138.017 139.662 L 138.244 139.46 L 138.542 139.389 L 138.804 139.435 L 139.001 139.551 L 139.132 139.742 L 139.187 139.994 L 139.187 139.994 z M 140.499 141.805 L 140.942 141.805 L 140.942 140.242 L 140.988 139.883 L 141.134 139.621 L 141.361 139.46 L 141.664 139.399 L 141.906 139.45 L 142.057 139.586 L 142.133 139.813 L 142.158 140.115 L 142.158 141.805 L 142.602 141.805 L 142.602 140.025 L 142.582 139.667 L 142.491 139.369 L 142.193 139.097 L 141.729 139.001 L 141.477 139.036 L 141.26 139.132 L 141.079 139.283 L 140.942 139.49 L 140.942 138.184 L 140.499 138.184 L 140.499 141.805 L 140.499 141.805 z M 143.923 140.579 L 145.698 140.579 L 145.703 140.373 L 145.623 139.793 L 145.401 139.359 L 145.048 139.097 L 144.579 139.001 L 144.12 139.102 L 143.767 139.384 L 143.54 139.843 L 143.459 140.448 L 143.535 141.069 L 143.762 141.523 L 144.11 141.805 L 144.564 141.901 L 144.957 141.835 L 145.28 141.664 L 145.517 141.391 L 145.653 141.028 L 145.214 141.028 L 145.123 141.23 L 144.992 141.381 L 144.619 141.502 L 144.332 141.447 L 144.115 141.27 L 143.973 140.983 L 143.923 140.595 L 143.923 140.579 L 143.923 140.579 z M 143.923 140.206 L 143.978 139.858 L 144.115 139.601 L 144.321 139.445 L 144.594 139.389 L 144.861 139.445 L 145.068 139.601 L 145.194 139.858 L 145.239 140.206 L 143.923 140.206 L 143.923 140.206 z M 147.453 138.557 L 147.453 141.432 L 146.54 141.432 L 146.54 141.805 L 148.805 141.805 L 148.805 141.432 L 147.897 141.432 L 147.897 138.184 L 146.757 138.184 L 146.757 138.557 L 147.453 138.557 L 147.453 138.557 z M 150.489 138.557 L 150.489 141.432 L 149.576 141.432 L 149.576 141.805 L 151.841 141.805 L 151.841 141.432 L 150.933 141.432 L 150.933 138.184 L 149.793 138.184 L 149.793 138.557 L 150.489 138.557 L 150.489 138.557 z M 153.031 140.579 L 154.806 140.579 L 154.811 140.373 L 154.731 139.793 L 154.509 139.359 L 154.156 139.097 L 153.687 139.001 L 153.228 139.102 L 152.875 139.384 L 152.648 139.843 L 152.567 140.448 L 152.643 141.069 L 152.87 141.523 L 153.218 141.805 L 153.672 141.901 L 154.065 141.835 L 154.388 141.664 L 154.625 141.391 L 154.761 141.028 L 154.322 141.028 L 154.231 141.23 L 154.1 141.381 L 153.727 141.502 L 153.44 141.447 L 153.223 141.27 L 153.082 140.983 L 153.031 140.595 L 153.031 140.579 L 153.031 140.579 z M 153.031 140.206 L 153.087 139.858 L 153.223 139.601 L 153.43 139.445 L 153.702 139.389 L 153.969 139.445 L 154.176 139.601 L 154.302 139.858 L 154.347 140.206 L 153.031 140.206 L 153.031 140.206 z M 159.411 141.805 L 160.107 141.805 L 160.107 141.053 L 159.411 141.053 L 159.411 141.805 L 159.411 141.805 z M 159.411 139.848 L 160.107 139.848 L 160.107 139.097 L 159.411 139.097 L 159.411 139.848 L 159.411 139.848 z" stroke="none" fill-rule="evenodd" fill="rgb(0, 0, 0)"/></g><g stroke="rgb(0, 0, 0)" stroke-width="0.13" stroke-linecap="butt" stroke-linejoin="miter" fill="none"><path d="M 168.776 141.805 L 169.235 141.805 L 169.235 138.28 L 168.892 138.28 L 168.801 138.587 L 168.62 138.794 L 168.342 138.915 L 167.959 138.956 L 167.959 139.314 L 168.776 139.314 L 168.776 141.805 L 168.776 141.805 z M 171.555 141.805 L 172.251 141.805 L 172.251 141.053 L 171.555 141.053 L 171.555 141.805 L 171.555 141.805 z M 171.555 139.848 L 172.251 139.848 L 172.251 139.097 L 171.555 139.097 L 171.555 139.848 L 171.555 139.848 z M 174.848 141.805 L 175.307 141.805 L 175.307 138.28 L 174.964 138.28 L 174.873 138.587 L 174.692 138.794 L 174.414 138.915 L 174.031 138.956 L 174.031 139.314 L 174.848 139.314 L 174.848 141.805 L 174.848 141.805 z" stroke="none" fill-rule="evenodd" fill="rgb(0, 0, 0)"/></g><g stroke="rgb(0, 0, 0)" stroke-width="0.13" stroke-linecap="butt" stroke-linejoin="miter" fill="none"><path d="M 86.9454 98.776 L 86.9454 98.317 L 83.4202 98.317 L 83.4202 98.66 L 83.7278 98.7508 L 83.9346 98.9323 L 84.0556 99.2097 L 84.096 99.593 L 84.454 99.593 L 84.454 98.776 L 86.9454 98.776 L 86.9454 98.776 z M 85.2357 96.1646 L 86.0275 96.089 L 86.5924 95.8519 L 86.9353 95.4737 L 87.0463 94.9492 L 86.9353 94.4297 L 86.5924 94.0515 L 86.0275 93.8195 L 85.2357 93.7388 L 84.449 93.8195 L 84.1363 93.9153 L 83.8791 94.0515 L 83.5362 94.4297 L 83.4202 94.9492 L 83.5362 95.4737 L 83.8842 95.8519 L 84.449 96.089 L 85.2357 96.1646 L 85.2357 96.1646 z M 85.2357 95.6805 L 84.6255 95.6401 L 84.1868 95.514 L 83.9296 95.2871 L 83.8388 94.9492 L 83.9296 94.6163 L 84.1868 94.3894 L 84.6255 94.2633 L 85.2357 94.223 L 85.851 94.2633 L 86.2898 94.3894 L 86.547 94.6163 L 86.6327 94.9492 L 86.547 95.2871 L 86.2898 95.514 L 85.851 95.6401 L 85.2357 95.6805 L 85.2357 95.6805 z M 84.3885 90.0028 L 83.98 90.0986 L 83.6774 90.3205 L 83.4857 90.6634 L 83.4202 91.1073 L 83.4555 91.4048 L 83.5513 91.662 L 83.7076 91.889 L 83.9296 92.0806 L 84.2069 92.2319 L 84.5448 92.3428 L 84.9432 92.4134 L 85.3921 92.4336 L 86.1082 92.3529 L 86.6277 92.1058 L 86.9404 91.7074 L 87.0463 91.1627 L 86.9555 90.6735 L 86.7185 90.3003 L 86.3453 90.0583 L 85.8712 89.9725 L 85.3921 90.0583 L 85.0239 90.2903 L 84.7919 90.6483 L 84.7113 91.0921 L 84.8121 91.5712 L 85.0996 91.9293 L 84.5448 91.8537 L 84.1464 91.6923 L 83.9094 91.4451 L 83.8287 91.1022 L 83.869 90.85 L 83.9749 90.6584 L 84.1515 90.5323 L 84.3885 90.4668 L 84.3885 90.0028 L 84.3885 90.0028 z M 85.8762 90.4617 L 86.194 90.5172 L 86.436 90.6584 L 86.5974 90.8854 L 86.6478 91.1678 L 86.5974 91.4653 L 86.4411 91.6923 L 86.199 91.8385 L 85.8813 91.8839 L 85.5686 91.8335 L 85.3316 91.6923 L 85.1803 91.4603 L 85.1248 91.1476 L 85.1803 90.8753 L 85.3265 90.6584 L 85.5636 90.5172 L 85.8762 90.4617 L 85.8762 90.4617 z" stroke="none" fill-rule="evenodd" fill="rgb(0, 0, 0)"/><path d="M 88.4278 146.017 L 88.9454 147.949 L 89.463 146.017"/><path d="M 89.463 43.881 L 88.9454 41.9492 L 88.4278 43.881"/><path d="M 88.9454 147.949 L 88.9454 41.9492"/></g><g stroke="rgb(0, 0, 0)" stroke-width="0.13" stroke-linecap="butt" stroke-linejoin="miter" fill="none"><path d="M 48.6965 24.6136 L 48.6006 24.2051 L 48.3787 23.9026 L 48.0358 23.7109 L 47.592 23.6453 L 47.2944 23.6806 L 47.0372 23.7765 L 46.8103 23.9328 L 46.6186 24.1547 L 46.4674 24.4321 L 46.3564 24.77 L 46.2858 25.1684 L 46.2656 25.6172 L 46.3463 26.3334 L 46.5934 26.8528 L 46.9918 27.1655 L 47.5365 27.2714 L 48.0257 27.1806 L 48.3989 26.9436 L 48.641 26.5704 L 48.7267 26.0964 L 48.641 25.6172 L 48.409 25.2491 L 48.0509 25.0171 L 47.6071 24.9364 L 47.128 25.0373 L 46.7699 25.3247 L 46.8456 24.77 L 47.007 24.3716 L 47.2541 24.1345 L 47.597 24.0538 L 47.8492 24.0942 L 48.0408 24.2001 L 48.1669 24.3766 L 48.2325 24.6136 L 48.6965 24.6136 L 48.6965 24.6136 z M 48.2375 26.1014 L 48.182 26.4191 L 48.0408 26.6612 L 47.8139 26.8226 L 47.5315 26.873 L 47.2339 26.8226 L 47.007 26.6662 L 46.8607 26.4242 L 46.8153 26.1064 L 46.8658 25.7938 L 47.007 25.5567 L 47.239 25.4054 L 47.5516 25.35 L 47.824 25.4054 L 48.0408 25.5517 L 48.182 25.7887 L 48.2375 26.1014 L 48.2375 26.1014 z M 50.0067 25.4609 L 50.0823 26.2527 L 50.3194 26.8175 L 50.6976 27.1605 L 51.2221 27.2714 L 51.7416 27.1605 L 52.1198 26.8175 L 52.3518 26.2527 L 52.4325 25.4609 L 52.3518 24.6742 L 52.256 24.3615 L 52.1198 24.1043 L 51.7416 23.7613 L 51.2221 23.6453 L 50.6976 23.7613 L 50.3194 24.1093 L 50.0823 24.6742 L 50.0067 25.4609 L 50.0067 25.4609 z M 50.4908 25.4609 L 50.5312 24.8507 L 50.6573 24.4119 L 50.8842 24.1547 L 51.2221 24.0639 L 51.555 24.1547 L 51.7819 24.4119 L 51.908 24.8507 L 51.9483 25.4609 L 51.908 26.0762 L 51.7819 26.5149 L 51.555 26.7721 L 51.2221 26.8579 L 50.8842 26.7721 L 50.6573 26.5149 L 50.5312 26.0762 L 50.4908 25.4609 L 50.4908 25.4609 z" stroke="none" fill-rule="evenodd" fill="rgb(0, 0, 0)"/><path d="M 77.4222 29.6882 L 79.3541 29.1706 L 77.4222 28.6529"/><path d="M 21.2859 28.6529 L 19.3541 29.1706 L 21.2859 29.6882"/><path d="M 19.3541 29.1706 L 79.3541 29.1706"/></g><g stroke="rgb(0, 0, 0)" stroke-width="0.13" stroke-linecap="butt" stroke-linejoin="miter" fill="none"><path d="M 34.2804 167.846 L 36.6861 167.846 L 36.6861 167.412 L 34.7848 167.412 L 34.8907 167.175 L 35.0722 166.978 L 35.632 166.62 L 35.9296 166.469 L 36.2624 166.252 L 36.4995 166 L 36.6356 165.702 L 36.6861 165.364 L 36.6003 164.941 L 36.3633 164.608 L 36.0002 164.396 L 35.5312 164.32 L 35.047 164.406 L 34.6788 164.643 L 34.4418 165.021 L 34.3611 165.521 L 34.3611 165.591 L 34.8201 165.591 L 34.8201 165.551 L 34.8654 165.208 L 35.0016 164.956 L 35.2185 164.794 L 35.5059 164.739 L 35.7984 164.789 L 36.0153 164.916 L 36.1565 165.112 L 36.2069 165.359 L 36.1716 165.591 L 36.0758 165.788 L 35.9144 165.959 L 35.6925 166.111 L 35.395 166.272 L 34.9007 166.585 L 34.5528 166.918 L 34.346 167.321 L 34.2804 167.831 L 34.2804 167.846 L 34.2804 167.846 z M 40.8618 167.846 L 41.5578 166.792 L 42.2739 167.846 L 42.8085 167.846 L 41.8402 166.449 L 42.7531 165.137 L 42.2386 165.137 L 41.578 166.121 L 40.9173 165.137 L 40.3928 165.137 L 41.2905 166.454 L 40.3424 167.846 L 40.8618 167.846 L 40.8618 167.846 z M 48.5326 164.341 L 47.6551 167.321 L 46.7523 164.341 L 46.2732 164.341 L 47.4029 167.846 L 47.9072 167.846 L 49.0117 164.341 L 48.5326 164.341 L 48.5326 164.341 z M 51.0038 167.472 L 51.0038 165.228 L 49.864 165.228 L 49.864 165.606 L 50.56 165.606 L 50.56 167.472 L 49.6522 167.472 L 49.6522 167.846 L 51.9216 167.846 L 51.9216 167.472 L 51.0038 167.472 L 51.0038 167.472 z M 51.0189 164.225 L 50.5499 164.225 L 50.5499 164.729 L 51.0189 164.729 L 51.0189 164.225 L 51.0189 164.225 z M 53.2783 165.606 L 53.2783 166.963 L 53.3085 167.402 L 53.4497 167.704 L 53.7322 167.881 L 54.2113 167.941 L 54.7358 167.916 L 54.7358 167.533 L 54.3525 167.563 L 54.0045 167.523 L 53.8179 167.397 L 53.7372 167.185 L 53.7221 166.887 L 53.7221 165.606 L 54.7358 165.606 L 54.7358 165.228 L 53.7221 165.228 L 53.7221 164.436 L 53.2783 164.436 L 53.2783 165.228 L 52.5117 165.228 L 52.5117 165.606 L 53.2783 165.606 L 53.2783 165.606 z M 55.8856 167.846 L 56.3294 167.846 L 56.3294 166.297 L 56.3748 165.924 L 56.511 165.657 L 56.7329 165.495 L 57.0304 165.44 L 57.2523 165.475 L 57.4188 165.576 L 57.5196 165.748 L 57.5549 165.98 L 58.0038 165.98 L 57.9433 165.571 L 57.7768 165.279 L 57.4994 165.102 L 57.1212 165.042 L 56.864 165.082 L 56.6421 165.183 L 56.4454 165.354 L 56.2891 165.586 L 56.2891 165.137 L 55.8856 165.137 L 55.8856 167.846 L 55.8856 167.846 z M 59.1435 166.62 L 60.9188 166.62 L 60.9238 166.413 L 60.8431 165.833 L 60.6212 165.4 L 60.2682 165.137 L 59.7992 165.042 L 59.3402 165.142 L 58.9872 165.425 L 58.7603 165.884 L 58.6796 166.489 L 58.7552 167.109 L 58.9822 167.563 L 59.3301 167.846 L 59.784 167.941 L 60.1774 167.876 L 60.5002 167.704 L 60.7372 167.432 L 60.8734 167.069 L 60.4346 167.069 L 60.3438 167.271 L 60.2127 167.422 L 59.8395 167.543 L 59.552 167.488 L 59.3352 167.311 L 59.194 167.024 L 59.1435 166.635 L 59.1435 166.62 L 59.1435 166.62 z M 59.1435 166.247 L 59.199 165.899 L 59.3352 165.642 L 59.542 165.485 L 59.8143 165.43 L 60.0816 165.485 L 60.2884 165.642 L 60.4144 165.899 L 60.4598 166.247 L 59.1435 166.247 L 59.1435 166.247 z M 65.7804 167.846 L 66.2394 167.846 L 66.2394 164.32 L 65.8964 164.32 L 65.8056 164.628 L 65.6241 164.835 L 65.3467 164.956 L 64.9634 164.996 L 64.9634 165.354 L 65.7804 165.354 L 65.7804 167.846 L 65.7804 167.846 z" stroke="none" fill-rule="evenodd" fill="rgb(0, 0, 0)"/></g><g stroke="rgb(0, 0, 0)" stroke-width="0.13" stroke-linecap="butt" stroke-linejoin="miter" fill="none"><path d="M 36.3885 170.387 L 35.511 173.368 L 34.6082 170.387 L 34.1291 170.387 L 35.2588 173.892 L 35.7631 173.892 L 36.8676 170.387 L 36.3885 170.387 L 36.3885 170.387 z M 39.591 171.184 L 39.1471 171.184 L 39.1471 172.748 L 39.0967 173.111 L 38.9505 173.373 L 38.7235 173.534 L 38.426 173.585 L 38.1889 173.544 L 38.0376 173.423 L 37.9519 173.217 L 37.9317 172.924 L 37.9317 171.184 L 37.4879 171.184 L 37.4879 172.965 L 37.5031 173.323 L 37.5989 173.62 L 37.8914 173.892 L 38.3604 173.988 L 38.6126 173.953 L 38.8294 173.862 L 39.016 173.706 L 39.1673 173.479 L 39.1673 173.892 L 39.591 173.892 L 39.591 171.184 L 39.591 171.184 z M 40.9274 172.667 L 42.7026 172.667 L 42.7077 172.46 L 42.627 171.88 L 42.4051 171.447 L 42.052 171.184 L 41.583 171.088 L 41.1241 171.189 L 40.7711 171.472 L 40.5441 171.931 L 40.4634 172.536 L 40.5391 173.156 L 40.766 173.61 L 41.114 173.892 L 41.5679 173.988 L 41.9613 173.923 L 42.284 173.751 L 42.5211 173.479 L 42.6572 173.116 L 42.2185 173.116 L 42.1277 173.318 L 41.9966 173.469 L 41.6234 173.59 L 41.3359 173.534 L 41.119 173.358 L 40.9778 173.07 L 40.9274 172.682 L 40.9274 172.667 L 40.9274 172.667 z M 40.9274 172.294 L 40.9829 171.946 L 41.119 171.689 L 41.3258 171.532 L 41.5982 171.477 L 41.8654 171.532 L 42.0722 171.689 L 42.1983 171.946 L 42.2437 172.294 L 40.9274 172.294 L 40.9274 172.294 z M 48.2754 173.474 L 48.2754 173.892 L 48.7192 173.892 L 48.7192 170.271 L 48.2804 170.271 L 48.2804 171.598 L 47.9425 171.215 L 47.7358 171.124 L 47.4987 171.088 L 47.0701 171.189 L 46.7372 171.472 L 46.5203 171.926 L 46.4447 172.536 L 46.5203 173.146 L 46.7372 173.605 L 47.0701 173.892 L 47.4987 173.988 L 47.7358 173.953 L 47.9476 173.862 L 48.2754 173.474 L 48.2754 173.474 z M 47.5744 171.487 L 47.8669 171.557 L 48.0888 171.754 L 48.2199 172.082 L 48.2703 172.536 L 48.2199 172.995 L 48.0888 173.323 L 47.8669 173.524 L 47.5744 173.59 L 47.297 173.524 L 47.0852 173.323 L 46.944 172.99 L 46.8986 172.536 L 46.944 172.087 L 47.0852 171.759 L 47.297 171.557 L 47.5744 171.487 L 47.5744 171.487 z M 50.0355 172.667 L 51.8107 172.667 L 51.8157 172.46 L 51.735 171.88 L 51.5131 171.447 L 51.1601 171.184 L 50.6911 171.088 L 50.2322 171.189 L 49.8791 171.472 L 49.6522 171.931 L 49.5715 172.536 L 49.6471 173.156 L 49.8741 173.61 L 50.2221 173.892 L 50.676 173.988 L 51.0693 173.923 L 51.3921 173.751 L 51.6291 173.479 L 51.7653 173.116 L 51.3265 173.116 L 51.2358 173.318 L 51.1046 173.469 L 50.7314 173.59 L 50.444 173.534 L 50.2271 173.358 L 50.0859 173.07 L 50.0355 172.682 L 50.0355 172.667 L 50.0355 172.667 z M 50.0355 172.294 L 50.0909 171.946 L 50.2271 171.689 L 50.4339 171.532 L 50.7062 171.477 L 50.9735 171.532 L 51.1803 171.689 L 51.3064 171.946 L 51.3518 172.294 L 50.0355 172.294 L 50.0355 172.294 z M 56.3345 171.653 L 56.3345 173.892 L 56.7783 173.892 L 56.7783 171.653 L 57.7869 171.653 L 57.7869 171.275 L 56.7783 171.275 L 56.7783 171.109 L 56.8136 170.907 L 56.9296 170.771 L 57.1262 170.69 L 57.4087 170.66 L 57.7869 170.68 L 57.7869 170.297 L 57.3078 170.271 L 56.8741 170.317 L 56.5715 170.453 L 56.3899 170.69 L 56.3345 171.028 L 56.3345 171.275 L 55.5225 171.275 L 55.5225 171.653 L 56.3345 171.653 L 56.3345 171.653 z M 60.364 173.539 L 60.364 173.555 L 60.3892 173.726 L 60.4649 173.847 L 60.7826 173.943 L 61.0297 173.903 L 61.0297 173.56 L 60.9238 173.575 L 60.7826 173.509 L 60.7574 173.307 L 60.7574 171.905 L 60.6969 171.547 L 60.5203 171.295 L 60.2127 171.144 L 59.779 171.088 L 59.3554 171.149 L 59.0427 171.32 L 58.846 171.588 L 58.7804 171.941 L 58.7804 171.971 L 59.1788 171.971 L 59.2141 171.759 L 59.3251 171.608 L 59.5067 171.517 L 59.7639 171.482 L 60.011 171.507 L 60.1875 171.583 L 60.2934 171.714 L 60.3287 171.895 L 60.3085 172.107 L 60.2278 172.213 L 60.0261 172.264 L 59.6479 172.304 L 59.2141 172.395 L 58.9065 172.556 L 58.725 172.808 L 58.6695 173.181 L 58.7199 173.514 L 58.8762 173.761 L 59.1284 173.918 L 59.4764 173.973 L 59.9454 173.867 L 60.364 173.539 L 60.364 173.539 z M 60.3136 172.944 L 60.253 173.207 L 60.0917 173.408 L 59.8496 173.539 L 59.552 173.585 L 59.3604 173.56 L 59.2242 173.479 L 59.1385 173.338 L 59.1133 173.141 L 59.1335 172.965 L 59.2141 172.838 L 59.5369 172.697 L 59.9454 172.637 L 60.3136 172.516 L 60.3136 172.944 L 60.3136 172.944 z M 63.516 172.082 L 63.9548 172.082 L 63.864 171.678 L 63.6471 171.361 L 63.3092 171.164 L 62.8705 171.088 L 62.3863 171.189 L 62.0182 171.472 L 61.7862 171.931 L 61.7055 172.546 L 61.7811 173.156 L 62.0081 173.61 L 62.3662 173.892 L 62.8554 173.988 L 63.2891 173.913 L 63.627 173.701 L 63.859 173.368 L 63.9598 172.924 L 63.5362 172.924 L 63.4605 173.207 L 63.3193 173.418 L 63.1176 173.55 L 62.8705 173.59 L 62.5628 173.524 L 62.3409 173.323 L 62.2048 172.995 L 62.1594 172.531 L 62.2048 172.077 L 62.346 171.749 L 62.5729 171.547 L 62.8705 171.477 L 63.1327 171.522 L 63.3294 171.638 L 63.4605 171.83 L 63.516 172.082 L 63.516 172.082 z M 65.2156 172.667 L 66.9908 172.667 L 66.9958 172.46 L 66.9152 171.88 L 66.6933 171.447 L 66.3402 171.184 L 65.8712 171.088 L 65.4123 171.189 L 65.0592 171.472 L 64.8323 171.931 L 64.7516 172.536 L 64.8273 173.156 L 65.0542 173.61 L 65.4022 173.892 L 65.8561 173.988 L 66.2495 173.923 L 66.5722 173.751 L 66.8092 173.479 L 66.9454 173.116 L 66.5067 173.116 L 66.4159 173.318 L 66.2848 173.469 L 65.9116 173.59 L 65.6241 173.534 L 65.4072 173.358 L 65.266 173.07 L 65.2156 172.682 L 65.2156 172.667 L 65.2156 172.667 z M 65.2156 172.294 L 65.2711 171.946 L 65.4072 171.689 L 65.614 171.532 L 65.8863 171.477 L 66.1536 171.532 L 66.3604 171.689 L 66.4865 171.946 L 66.5319 172.294 L 65.2156 172.294 L 65.2156 172.294 z" stroke="none" fill-rule="evenodd" fill="rgb(0, 0, 0)"/></g><g stroke="rgb(0, 0, 0)" stroke-width="0.13" stroke-linecap="butt" stroke-linejoin="miter" fill="none"><path d="M 34.4519 179.939 L 36.6709 179.939 L 36.6709 179.516 L 34.9159 179.516 L 34.9159 178.331 L 36.4793 178.331 L 36.4793 177.912 L 34.9159 177.912 L 34.9159 176.863 L 36.6306 176.863 L 36.6306 176.439 L 34.4519 176.439 L 34.4519 179.939 L 34.4519 179.939 z M 39.2278 178.129 L 39.6666 178.129 L 39.5758 177.725 L 39.359 177.408 L 39.0211 177.211 L 38.5823 177.135 L 38.0982 177.236 L 37.73 177.519 L 37.498 177.977 L 37.4173 178.593 L 37.493 179.203 L 37.7199 179.657 L 38.078 179.939 L 38.5672 180.035 L 39.0009 179.959 L 39.3388 179.748 L 39.5708 179.415 L 39.6716 178.971 L 39.248 178.971 L 39.1724 179.253 L 39.0312 179.465 L 38.8294 179.596 L 38.5823 179.637 L 38.2747 179.571 L 38.0528 179.369 L 37.9166 179.042 L 37.8712 178.578 L 37.9166 178.124 L 38.0578 177.796 L 38.2848 177.594 L 38.5823 177.524 L 38.8446 177.569 L 39.0412 177.685 L 39.1724 177.877 L 39.2278 178.129 L 39.2278 178.129 z M 40.5391 179.939 L 40.9829 179.939 L 40.9829 178.376 L 41.0283 178.018 L 41.1745 177.756 L 41.4015 177.594 L 41.7041 177.534 L 41.9461 177.584 L 42.0974 177.72 L 42.1731 177.947 L 42.1983 178.25 L 42.1983 179.939 L 42.6421 179.939 L 42.6421 178.159 L 42.6219 177.801 L 42.5312 177.503 L 42.2336 177.231 L 41.7696 177.135 L 41.5175 177.171 L 41.3006 177.266 L 41.119 177.418 L 40.9829 177.624 L 40.9829 176.318 L 40.5391 176.318 L 40.5391 179.939 L 40.5391 179.939 z M 43.9634 178.714 L 45.7386 178.714 L 45.7437 178.507 L 45.663 177.927 L 45.4411 177.493 L 45.0881 177.231 L 44.619 177.135 L 44.1601 177.236 L 43.8071 177.519 L 43.5801 177.977 L 43.4995 178.583 L 43.5751 179.203 L 43.802 179.657 L 44.15 179.939 L 44.6039 180.035 L 44.9973 179.97 L 45.3201 179.798 L 45.5571 179.526 L 45.6933 179.163 L 45.2545 179.163 L 45.1637 179.364 L 45.0326 179.516 L 44.6594 179.637 L 44.3719 179.581 L 44.1551 179.405 L 44.0139 179.117 L 43.9634 178.729 L 43.9634 178.714 L 43.9634 178.714 z M 43.9634 178.341 L 44.0189 177.993 L 44.1551 177.735 L 44.3618 177.579 L 44.6342 177.524 L 44.9015 177.579 L 45.1082 177.735 L 45.2343 177.993 L 45.2797 178.341 L 43.9634 178.341 L 43.9634 178.341 z M 47.4937 176.691 L 47.4937 179.566 L 46.5809 179.566 L 46.5809 179.939 L 48.8453 179.939 L 48.8453 179.566 L 47.9375 179.566 L 47.9375 176.318 L 46.7977 176.318 L 46.7977 176.691 L 47.4937 176.691 L 47.4937 176.691 z M 50.5297 176.691 L 50.5297 179.566 L 49.6169 179.566 L 49.6169 179.939 L 51.8813 179.939 L 51.8813 179.566 L 50.9735 179.566 L 50.9735 176.318 L 49.8337 176.318 L 49.8337 176.691 L 50.5297 176.691 L 50.5297 176.691 z M 53.0715 178.714 L 54.8467 178.714 L 54.8518 178.507 L 54.7711 177.927 L 54.5492 177.493 L 54.1961 177.231 L 53.7271 177.135 L 53.2682 177.236 L 52.9152 177.519 L 52.6882 177.977 L 52.6075 178.583 L 52.6832 179.203 L 52.9101 179.657 L 53.2581 179.939 L 53.712 180.035 L 54.1054 179.97 L 54.4281 179.798 L 54.6652 179.526 L 54.8013 179.163 L 54.3626 179.163 L 54.2718 179.364 L 54.1407 179.516 L 53.7675 179.637 L 53.48 179.581 L 53.2631 179.405 L 53.1219 179.117 L 53.0715 178.729 L 53.0715 178.714 L 53.0715 178.714 z M 53.0715 178.341 L 53.127 177.993 L 53.2631 177.735 L 53.4699 177.579 L 53.7422 177.524 L 54.0095 177.579 L 54.2163 177.735 L 54.3424 177.993 L 54.3878 178.341 L 53.0715 178.341 L 53.0715 178.341 z M 59.4512 179.939 L 60.1471 179.939 L 60.1471 179.188 L 59.4512 179.188 L 59.4512 179.939 L 59.4512 179.939 z M 59.4512 177.983 L 60.1471 177.983 L 60.1471 177.231 L 59.4512 177.231 L 59.4512 177.983 L 59.4512 177.983 z" stroke="none" fill-rule="evenodd" fill="rgb(0, 0, 0)"/></g><g stroke="rgb(0, 0, 0)" stroke-width="0.13" stroke-linecap="butt" stroke-linejoin="miter" fill="none"><path d="M 68.8165 179.939 L 69.2754 179.939 L 69.2754 176.414 L 68.9324 176.414 L 68.8417 176.722 L 68.6601 176.928 L 68.3827 177.05 L 67.9995 177.09 L 67.9995 177.448 L 68.8165 177.448 L 68.8165 179.939 L 68.8165 179.939 z M 71.5953 179.939 L 72.2912 179.939 L 72.2912 179.188 L 71.5953 179.188 L 71.5953 179.939 L 71.5953 179.939 z M 71.5953 177.983 L 72.2912 177.983 L 72.2912 177.231 L 71.5953 177.231 L 71.5953 177.983 L 71.5953 177.983 z M 74.8885 179.939 L 75.3474 179.939 L 75.3474 176.414 L 75.0045 176.414 L 74.9137 176.722 L 74.7322 176.928 L 74.4548 177.05 L 74.0715 177.09 L 74.0715 177.448 L 74.8885 177.448 L 74.8885 179.939 L 74.8885 179.939 z" stroke="none" fill-rule="evenodd" fill="rgb(0, 0, 0)"/></g></svg>