<?xml version="1.0" encoding="utf-8" ?><!DOCTYPE svg PUBLIC "-//W3C//DTD SVG 1.1//EN" "http://www.w3.org/Graphics/SVG/1.1/DTD/svg11.dtd" 
[ <!ATTLIST svg 
  xmlns:dsy CDATA #FIXED "http://www.3ds.com/print"  
    dsy:text-version CDATA #IMPLIED > 

  <!ATTLIST text 
  xmlns:dsy CDATA #FIXED "http://www.3ds.com/print" 
    dsy:text-version CDATA #IMPLIED > 
]><svg xmlns="http://www.w3.org/2000/svg" xmlns:dsy="http://www.3ds.com/print" dsy:text-version="18000" width="841" height="594" viewBox="0 0 841 594" version="1.1"><g stroke="rgb(0, 0, 0)" stroke-width="0.13" stroke-linecap="butt" stroke-linejoin="miter" fill="none"><path d="M 7.33575 8.18298 L 3.22437 8.19006"/><path d="M 8.32647 584.278 L 4.21509 584.285"/></g><g stroke="rgb(0, 0, 0)" stroke-width="0.35" stroke-linecap="butt" stroke-linejoin="miter" fill="none"><circle cx="215.013" cy="423.445" r="3.2"/><circle cx="26.8372" cy="338.965" r="3.2"/><circle cx="26.8372" cy="38.9346" r="3.2"/><circle cx="192.061" cy="397.021" r="6"/><circle cx="106.025" cy="299.278" r="3.2"/><path d="M 26.7625 17.662 L 25.8372 18.0414"/><path d="M 35.4869 38.9432 L 26.7625 17.662"/><path d="M 34.5616 39.3224 L 35.4869 38.9432"/><path d="M 25.8372 18.0414 L 34.5616 39.3224"/><path d="M 17.7044 37.0865 L 23.6793 47.4932"/><path d="M 23.6793 47.4932 L 22.8121 47.9911"/><path d="M 22.8121 47.9911 L 16.8372 37.5844"/><path d="M 16.8372 37.5844 L 17.7044 37.0865"/><path d="M 18.3061 325.378 L 17.8372 326.262"/><path d="M 35.9712 334.756 L 18.3061 325.378"/><path d="M 35.5023 335.639 L 35.9712 334.756"/><path d="M 17.8372 326.262 L 35.5023 335.639"/><path d="M 29.0851 348.335 L 29.4336 347.398"/><path d="M 17.8372 344.154 L 29.0851 348.335"/><path d="M 18.1857 343.216 L 17.8372 344.154"/><path d="M 29.4336 347.398 L 18.1857 343.216"/><path d="M 33.8193 14.5276 A 10 10 0 0 0 14.8372 18.9234"/><path d="M 14.8372 345.74 A 10 10 0 0 0 20.7416 354.863"/><path d="M 20.7416 354.863 L 225.717 446.885"/><path d="M 225.717 446.885 A 10 10 0 0 0 238.795 433.366"/><path d="M 14.8372 279.165 L 14.8372 345.74"/><path d="M 15.0372 278.965 A 0.200001 0.200001 0 0 0 14.8372 279.165"/><path d="M 34.6372 278.965 L 15.0372 278.965"/><path d="M 34.6372 278.965 A 0.200001 0.200001 0 0 0 34.8372 278.765"/><path d="M 34.8372 278.765 L 34.8372 273.265"/><path d="M 34.8372 273.265 A 0.200001 0.200001 0 0 0 34.6372 273.065"/><path d="M 15.0372 273.065 L 34.6372 273.065"/><path d="M 14.8372 272.865 A 0.200001 0.200001 0 0 0 15.0372 273.065"/><path d="M 14.8372 105.035 L 14.8372 272.865"/><path d="M 15.0372 104.835 A 0.200001 0.200001 0 0 0 14.8372 105.035"/><path d="M 34.6372 104.835 L 15.0372 104.835"/><path d="M 34.6372 104.835 A 0.200001 0.200001 0 0 0 34.8372 104.635"/><path d="M 34.8372 104.635 L 34.8372 99.1346"/><path d="M 34.8372 99.1346 A 0.200001 0.200001 0 0 0 34.6372 98.9346"/><path d="M 14.8372 18.9234 L 14.8372 98.7346"/><path d="M 15.0372 98.9346 L 34.6372 98.9346"/><path d="M 14.8372 98.7346 A 0.200001 0.200001 0 0 0 15.0372 98.9347"/><path d="M 59.8372 231.912 A 0.299997 0.299997 0 0 0 60.1372 232.212"/><path d="M 59.8372 231.912 L 59.8372 227.512"/><path d="M 60.1372 227.212 A 0.299997 0.299997 0 0 0 59.8372 227.512"/><path d="M 84.5372 232.212 L 60.1372 232.212"/><path d="M 84.5372 232.212 A 0.299997 0.299997 0 0 0 84.8372 231.912"/><path d="M 60.1372 227.212 L 84.5372 227.212"/><path d="M 84.8372 227.512 L 84.8372 231.912"/><path d="M 84.8372 227.512 A 0.299997 0.299997 0 0 0 84.5372 227.212"/><path d="M 84.5372 222.212 A 0.299997 0.299997 0 0 0 84.8372 221.912"/><path d="M 84.5372 212.212 A 0.299997 0.299997 0 0 0 84.8372 211.912"/><path d="M 84.8372 217.512 L 84.8372 221.912"/><path d="M 84.8372 217.512 A 0.299997 0.299997 0 0 0 84.5372 217.212"/><path d="M 84.8372 207.512 L 84.8372 211.912"/><path d="M 84.8372 207.512 A 0.299997 0.299997 0 0 0 84.5372 207.212"/><path d="M 84.5372 222.212 L 60.1372 222.212"/><path d="M 59.8372 221.912 A 0.299997 0.299997 0 0 0 60.1372 222.212"/><path d="M 84.5372 212.212 L 60.1372 212.212"/><path d="M 59.8372 211.912 A 0.299997 0.299997 0 0 0 60.1372 212.212"/><path d="M 60.1372 217.212 L 84.5372 217.212"/><path d="M 59.8372 221.912 L 59.8372 217.512"/><path d="M 60.1372 217.212 A 0.299997 0.299997 0 0 0 59.8372 217.512"/><path d="M 60.1372 207.212 L 84.5372 207.212"/><path d="M 59.8372 211.912 L 59.8372 207.512"/><path d="M 60.1372 207.212 A 0.299997 0.299997 0 0 0 59.8372 207.512"/><path d="M 238.795 433.366 L 108.321 166.762"/><path d="M 108.321 166.762 A 0.299997 0.299997 0 0 0 107.752 166.894"/><path d="M 102.721 155.319 L 33.8193 14.5276"/><path d="M 102.752 155.451 A 0.299997 0.299997 0 0 0 102.721 155.319"/><path d="M 102.752 155.451 L 102.752 180.082"/><path d="M 102.752 180.082 A 0.299997 0.299997 0 0 0 103.052 180.382"/><path d="M 107.752 180.082 L 107.752 166.894"/><path d="M 103.052 180.382 L 107.452 180.382"/><path d="M 107.452 180.382 A 0.299997 0.299997 0 0 0 107.752 180.082"/><circle cx="43.6675" cy="389.894" r="3.2"/><circle cx="128.147" cy="578.069" r="3.2"/><circle cx="428.177" cy="578.069" r="3.2"/><circle cx="70.0914" cy="412.845" r="6"/><circle cx="167.835" cy="498.882" r="3.2"/><path d="M 449.45 578.144 L 449.071 579.069"/><path d="M 428.169 569.419 L 449.45 578.144"/><path d="M 427.79 570.345 L 428.169 569.419"/><path d="M 449.071 579.069 L 427.79 570.345"/><path d="M 430.026 587.202 L 419.619 581.227"/><path d="M 419.619 581.227 L 419.121 582.094"/><path d="M 419.121 582.094 L 429.528 588.069"/><path d="M 429.528 588.069 L 430.026 587.202"/><path d="M 141.734 586.6 L 140.85 587.069"/><path d="M 132.356 568.935 L 141.734 586.6"/><path d="M 131.473 569.404 L 132.356 568.935"/><path d="M 140.85 587.069 L 131.473 569.404"/><path d="M 118.777 575.821 L 119.714 575.473"/><path d="M 122.958 587.069 L 118.777 575.821"/><path d="M 123.896 586.721 L 122.958 587.069"/><path d="M 119.714 575.473 L 123.896 586.721"/><path d="M 448.189 590.069 A 10 10 0 0 0 452.584 571.087"/><path d="M 112.249 584.165 A 10 10 0 0 0 121.372 590.069"/><path d="M 112.249 584.165 L 20.2272 379.189"/><path d="M 33.7457 366.111 A 10 10 0 0 0 20.2272 379.189"/><path d="M 187.947 590.069 L 121.372 590.069"/><path d="M 187.947 590.069 A 0.199997 0.199997 0 0 0 188.147 589.869"/><path d="M 188.147 570.269 L 188.147 589.869"/><path d="M 188.347 570.069 A 0.199997 0.199997 0 0 0 188.147 570.269"/><path d="M 188.347 570.069 L 193.847 570.069"/><path d="M 194.047 570.269 A 0.199997 0.199997 0 0 0 193.847 570.069"/><path d="M 194.047 589.869 L 194.047 570.269"/><path d="M 194.047 589.869 A 0.199997 0.199997 0 0 0 194.247 590.069"/><path d="M 362.077 590.069 L 194.247 590.069"/><path d="M 362.077 590.069 A 0.199997 0.199997 0 0 0 362.277 589.869"/><path d="M 362.277 570.269 L 362.277 589.869"/><path d="M 362.478 570.069 A 0.199997 0.199997 0 0 0 362.278 570.269"/><path d="M 362.478 570.069 L 367.978 570.069"/><path d="M 368.177 570.269 A 0.199997 0.199997 0 0 0 367.978 570.069"/><path d="M 448.189 590.069 L 368.377 590.069"/><path d="M 368.177 589.869 L 368.177 570.269"/><path d="M 368.177 589.869 A 0.199997 0.199997 0 0 0 368.377 590.069"/><path d="M 234.9 544.769 A 0.300003 0.300003 0 0 0 235.2 545.069"/><path d="M 235.2 545.069 L 239.6 545.069"/><path d="M 239.6 545.069 A 0.300003 0.300003 0 0 0 239.9 544.769"/><path d="M 234.9 520.369 L 234.9 544.769"/><path d="M 235.2 520.069 A 0.300003 0.300003 0 0 0 234.9 520.369"/><path d="M 239.9 544.769 L 239.9 520.369"/><path d="M 239.6 520.069 L 235.2 520.069"/><path d="M 239.9 520.369 A 0.300003 0.300003 0 0 0 239.6 520.069"/><path d="M 245.2 520.069 A 0.300003 0.300003 0 0 0 244.9 520.369"/><path d="M 255.2 520.069 A 0.300003 0.300003 0 0 0 254.9 520.369"/><path d="M 249.6 520.069 L 245.2 520.069"/><path d="M 249.9 520.369 A 0.300003 0.300003 0 0 0 249.6 520.069"/><path d="M 259.6 520.069 L 255.2 520.069"/><path d="M 259.9 520.369 A 0.300003 0.300003 0 0 0 259.6 520.069"/><path d="M 244.9 520.369 L 244.9 544.769"/><path d="M 244.9 544.769 A 0.300003 0.300003 0 0 0 245.2 545.069"/><path d="M 254.9 520.369 L 254.9 544.769"/><path d="M 254.9 544.769 A 0.300003 0.300003 0 0 0 255.2 545.069"/><path d="M 249.9 544.769 L 249.9 520.369"/><path d="M 245.2 545.069 L 249.6 545.069"/><path d="M 249.6 545.069 A 0.300003 0.300003 0 0 0 249.9 544.769"/><path d="M 259.9 544.769 L 259.9 520.369"/><path d="M 255.2 545.069 L 259.6 545.069"/><path d="M 259.6 545.069 A 0.300003 0.300003 0 0 0 259.9 544.769"/><path d="M 33.7457 366.111 L 300.35 496.585"/><path d="M 300.218 497.154 A 0.300003 0.300003 0 0 0 300.35 496.585"/><path d="M 311.793 502.185 L 452.584 571.087"/><path d="M 311.793 502.185 A 0.300003 0.300003 0 0 0 311.661 502.154"/><path d="M 311.661 502.154 L 287.03 502.154"/><path d="M 286.73 501.854 A 0.300003 0.300003 0 0 0 287.03 502.154"/><path d="M 287.03 497.154 L 300.218 497.154"/><path d="M 286.73 501.854 L 286.73 497.454"/><path d="M 287.03 497.154 A 0.300003 0.300003 0 0 0 286.73 497.454"/><circle cx="383.028" cy="23.3218" r="3.2"/><circle cx="83.4389" cy="39.0225" r="3.2"/><circle cx="256.319" cy="412.433" r="3.2"/><circle cx="244.535" cy="187.595" r="3.2"/><circle cx="249.936" cy="290.654" r="6.00001"/><path d="M 388.021 29.6834 L 393.597 15.7582"/><path d="M 393.597 15.7582 L 394.525 16.13"/><path d="M 394.525 16.13 L 388.949 30.0551"/><path d="M 388.949 30.0551 L 388.021 29.6834"/><path d="M 377.694 15.8873 L 374.247 29.4564"/><path d="M 374.247 29.4564 L 373.278 29.2102"/><path d="M 373.278 29.2102 L 376.725 15.6411"/><path d="M 376.725 15.6411 L 377.694 15.8873"/><path d="M 88.8184 30.7296 L 87.8852 31.0889"/><path d="M 94.2081 44.7279 L 88.8184 30.7296"/><path d="M 93.2749 45.0872 L 94.2081 44.7279"/><path d="M 87.8852 31.0889 L 93.2749 45.0872"/><path d="M 71.966 32.6142 L 80.5901 48.4137"/><path d="M 80.5901 48.4137 L 79.7124 48.8928"/><path d="M 79.7124 48.8928 L 71.0882 33.0933"/><path d="M 71.0882 33.0933 L 71.966 32.6142"/><path d="M 74.4792 27.4756 A 10 10 0 0 0 65.9279 41.6633"/><path d="M 248.381 435.751 L 65.9279 41.6633"/><path d="M 248.381 435.751 A 10 10 0 0 0 266.964 434.646"/><path d="M 400.689 23.988 A 10 10 0 0 0 390.657 10.9055"/><path d="M 335.493 13.7964 L 390.657 10.9055"/><path d="M 335.493 13.7964 A 0.200011 0.200011 0 0 0 335.304 14.0067"/><path d="M 336.33 33.5798 L 335.304 14.0067"/><path d="M 336.141 33.7899 A 0.200011 0.200011 0 0 0 336.33 33.5797"/><path d="M 330.648 34.0778 L 336.141 33.79"/><path d="M 330.438 33.8886 A 0.200011 0.200011 0 0 0 330.648 34.0778"/><path d="M 329.412 14.3154 L 330.438 33.8885"/><path d="M 329.412 14.3154 A 0.200011 0.200011 0 0 0 329.202 14.1262"/><path d="M 195.631 21.1263 L 329.202 14.1262"/><path d="M 195.631 21.1263 A 0.200011 0.200011 0 0 0 195.442 21.3365"/><path d="M 195.442 21.3365 L 196.468 40.9097"/><path d="M 196.278 41.1198 A 0.200011 0.200011 0 0 0 196.468 40.9096"/><path d="M 190.786 41.4077 L 196.278 41.1199"/><path d="M 190.576 41.2184 A 0.200011 0.200011 0 0 0 190.786 41.4077"/><path d="M 74.4792 27.4756 L 189.34 21.4561"/><path d="M 190.576 41.2184 L 189.55 21.6453"/><path d="M 189.55 21.6453 A 0.200011 0.200011 0 0 0 189.34 21.4561"/><path d="M 353.023 170.365 L 266.964 434.646"/><path d="M 353.023 170.365 A 0.200011 0.200011 0 0 0 352.823 170.104"/><path d="M 325.275 171.547 L 352.823 170.104"/><path d="M 325.065 171.358 A 0.200011 0.200011 0 0 0 325.275 171.547"/><path d="M 324.824 166.764 L 325.065 171.358"/><path d="M 325.013 166.554 A 0.200011 0.200011 0 0 0 324.824 166.764"/><path d="M 400.689 23.988 L 354.815 164.864"/><path d="M 354.635 165.002 L 325.013 166.554"/><path d="M 354.635 165.002 A 0.200011 0.200011 0 0 0 354.815 164.864"/><path d="M 241.709 133.669 A 0.200011 0.200011 0 0 0 241.919 133.858"/><path d="M 246.513 133.618 L 241.919 133.858"/><path d="M 246.513 133.618 A 0.200011 0.200011 0 0 0 246.702 133.407"/><path d="M 246.702 133.407 L 245.415 108.841"/><path d="M 245.415 108.841 A 0.200011 0.200011 0 0 0 245.205 108.652"/><path d="M 240.611 108.892 A 0.200011 0.200011 0 0 0 240.422 109.103"/><path d="M 240.611 108.893 L 245.205 108.652"/><path d="M 240.422 109.103 L 241.709 133.669"/><circle cx="286.618" cy="462.127" r="3.19998"/><circle cx="586.618" cy="462.127" r="3.19998"/><circle cx="433.518" cy="80.1804" r="3.19998"/><circle cx="433.518" cy="305.327" r="3.19998"/><circle cx="433.518" cy="202.127" r="6"/><path d="M 281.965 455.513 L 275.668 469.127"/><path d="M 275.668 469.127 L 274.761 468.707"/><path d="M 274.761 468.707 L 281.058 455.093"/><path d="M 281.058 455.093 L 281.965 455.513"/><path d="M 291.556 469.831 L 295.708 456.46"/><path d="M 295.708 456.46 L 296.663 456.757"/><path d="M 296.663 456.757 L 292.511 470.127"/><path d="M 292.511 470.127 L 291.556 469.831"/><path d="M 580.812 470.127 L 581.763 469.817"/><path d="M 576.163 455.866 L 580.812 470.127"/><path d="M 577.113 455.556 L 576.163 455.866"/><path d="M 581.763 469.817 L 577.113 455.556"/><path d="M 597.74 469.127 L 589.955 452.898"/><path d="M 589.955 452.898 L 590.856 452.465"/><path d="M 590.856 452.465 L 598.642 468.695"/><path d="M 598.642 468.695 L 597.74 469.127"/><path d="M 594.962 474.127 A 10 10 0 0 0 604.244 460.407"/><path d="M 442.666 57.3099 L 604.244 460.407"/><path d="M 442.666 57.3099 A 10 10 0 0 0 424.05 57.4408"/><path d="M 269.016 460.537 A 10 10 0 0 0 278.349 474.127"/><path d="M 333.589 474.127 L 278.349 474.127"/><path d="M 333.589 474.127 A 0.199982 0.199982 0 0 0 333.789 473.927"/><path d="M 333.789 454.327 L 333.789 473.927"/><path d="M 333.989 454.127 A 0.199982 0.199982 0 0 0 333.789 454.327"/><path d="M 339.389 454.127 L 333.989 454.127"/><path d="M 339.589 454.327 A 0.199982 0.199982 0 0 0 339.389 454.127"/><path d="M 339.589 473.927 L 339.589 454.327"/><path d="M 339.589 473.927 A 0.199982 0.199982 0 0 0 339.789 474.127"/><path d="M 473.743 474.127 L 339.789 474.127"/><path d="M 473.743 474.127 A 0.199982 0.199982 0 0 0 473.943 473.927"/><path d="M 473.943 473.927 L 473.943 454.327"/><path d="M 474.143 454.127 A 0.199982 0.199982 0 0 0 473.943 454.327"/><path d="M 479.543 454.127 L 474.143 454.127"/><path d="M 479.743 454.327 A 0.199982 0.199982 0 0 0 479.543 454.127"/><path d="M 594.962 474.127 L 479.943 474.127"/><path d="M 479.743 454.327 L 479.743 473.927"/><path d="M 479.743 473.927 A 0.199982 0.199982 0 0 0 479.943 474.127"/><path d="M 324.277 316.855 L 424.05 57.4407"/><path d="M 324.277 316.855 A 0.199982 0.199982 0 0 0 324.464 317.127"/><path d="M 352.05 317.127 L 324.464 317.127"/><path d="M 352.25 317.327 A 0.199982 0.199982 0 0 0 352.05 317.127"/><path d="M 352.25 321.927 L 352.25 317.327"/><path d="M 352.05 322.127 A 0.199982 0.199982 0 0 0 352.25 321.927"/><path d="M 269.016 460.537 L 322.2 322.255"/><path d="M 322.387 322.127 L 352.05 322.127"/><path d="M 322.387 322.127 A 0.199982 0.199982 0 0 0 322.2 322.255"/><path d="M 433.518 359.327 A 0.199982 0.199982 0 0 0 433.318 359.127"/><path d="M 428.718 359.127 L 433.318 359.127"/><path d="M 428.718 359.127 A 0.199982 0.199982 0 0 0 428.518 359.327"/><path d="M 428.518 359.327 L 428.518 383.927"/><path d="M 428.518 383.927 A 0.199982 0.199982 0 0 0 428.718 384.127"/><path d="M 433.318 384.127 A 0.199982 0.199982 0 0 0 433.518 383.927"/><path d="M 433.318 384.127 L 428.718 384.127"/><path d="M 433.518 383.927 L 433.518 359.327"/><path d="M 458.082 20.6954 A 15 15 0 0 0 445.771 44.9562"/><circle cx="748.021" cy="405.196" r="3.20001"/><circle cx="748.021" cy="105.166" r="3.20001"/><circle cx="457.564" cy="35.6864" r="3.20001"/><circle cx="748.021" cy="55.1664" r="3.20001"/><circle cx="522.47" cy="57.3817" r="6"/><circle cx="599.204" cy="117.632" r="3.20001"/><path d="M 633.021 174.587 L 636.021 174.587"/><path d="M 636.021 174.587 L 636.021 184.587"/><path d="M 636.021 184.587 L 633.021 184.587"/><path d="M 633.021 184.587 L 633.021 174.587"/><path d="M 658.021 184.587 L 658.021 174.587"/><path d="M 658.021 184.587 L 655.021 184.587"/><path d="M 655.021 174.587 L 655.021 184.587"/><path d="M 655.021 174.587 L 658.021 174.587"/><path d="M 752.876 435.645 A 4 4 0 0 0 760.021 433.173"/><path d="M 458.082 20.6953 L 756.159 30.9991"/><path d="M 760.021 34.9967 A 4 4 0 0 0 756.159 30.9991"/><path d="M 633.021 139.666 A 0.5 0.5 0 0 0 633.521 140.166"/><path d="M 633.021 151.038 A 0.5 0.5 0 0 0 633.349 151.508"/><path d="M 649.42 157.357 L 633.349 151.508"/><path d="M 649.42 158.297 A 0.5 0.5 0 0 0 649.42 157.357"/><path d="M 633.021 168.872 A 0.5 0.5 0 0 0 633.692 169.342"/><path d="M 633.349 164.146 L 649.42 158.297"/><path d="M 633.021 168.872 L 633.021 164.616"/><path d="M 633.349 164.146 A 0.5 0.5 0 0 0 633.021 164.616"/><path d="M 633.021 151.038 L 633.021 146.781"/><path d="M 633.692 146.311 A 0.5 0.5 0 0 0 633.021 146.781"/><path d="M 633.021 139.666 L 633.021 135.666"/><path d="M 633.521 135.166 A 0.5 0.5 0 0 0 633.021 135.666"/><path d="M 633.692 146.311 L 657.692 155.047"/><path d="M 658.021 155.516 A 0.5 0.5 0 0 0 657.692 155.047"/><path d="M 633.521 135.166 L 657.521 135.166"/><path d="M 658.021 135.666 A 0.5 0.5 0 0 0 657.521 135.166"/><path d="M 657.692 160.607 L 633.692 169.342"/><path d="M 658.021 155.516 L 658.021 160.137"/><path d="M 657.692 160.607 A 0.5 0.5 0 0 0 658.021 160.137"/><path d="M 657.521 140.166 L 633.521 140.166"/><path d="M 658.021 135.666 L 658.021 139.666"/><path d="M 657.521 140.166 A 0.5 0.5 0 0 0 658.021 139.666"/><path d="M 654.127 310.021 L 445.771 44.9562"/><path d="M 654.127 310.021 A 0.5 0.5 0 0 0 655.021 309.712"/><path d="M 752.876 435.645 L 660.127 317.654"/><path d="M 660.021 317.345 A 0.5 0.5 0 0 0 660.127 317.654"/><path d="M 660.021 317.345 L 660.021 293.018"/><path d="M 660.021 293.018 A 0.5 0.5 0 0 0 659.521 292.518"/><path d="M 655.021 293.018 L 655.021 309.712"/><path d="M 659.521 292.518 L 655.521 292.518"/><path d="M 655.521 292.518 A 0.5 0.5 0 0 0 655.021 293.018"/><path d="M 759.721 339.296 A 0.299988 0.299988 0 0 0 760.021 338.996"/><path d="M 759.721 339.296 L 740.321 339.296"/><path d="M 740.321 339.296 A 0.299988 0.299988 0 0 0 740.021 339.596"/><path d="M 740.021 339.596 L 740.021 344.896"/><path d="M 740.021 344.896 A 0.299988 0.299988 0 0 0 740.321 345.196"/><path d="M 760.021 345.496 L 760.021 433.173"/><path d="M 740.321 345.196 L 759.721 345.196"/><path d="M 760.021 345.496 A 0.299988 0.299988 0 0 0 759.721 345.196"/><path d="M 741.875 409.851 A 0.299988 0.299988 0 0 0 741.797 410.268"/><path d="M 742.205 409.625 L 741.875 409.851"/><path d="M 742.622 409.703 A 0.299988 0.299988 0 0 0 742.205 409.625"/><path d="M 741.797 410.268 L 756.026 431.06"/><path d="M 756.026 431.06 A 0.299988 0.299988 0 0 0 756.443 431.139"/><path d="M 756.851 430.496 L 742.622 409.703"/><path d="M 756.443 431.139 L 756.773 430.913"/><path d="M 756.773 430.913 A 0.299988 0.299988 0 0 0 756.851 430.496"/><path d="M 757.297 403.998 A 0.299988 0.299988 0 0 0 757.32 403.575"/><path d="M 751.036 396.584 L 757.32 403.575"/><path d="M 751.036 396.584 A 0.299988 0.299988 0 0 0 750.612 396.562"/><path d="M 750.315 396.829 L 750.612 396.562"/><path d="M 750.315 396.829 A 0.299988 0.299988 0 0 0 750.292 397.253"/><path d="M 757.297 403.998 L 757 404.266"/><path d="M 756.576 404.243 L 750.292 397.253"/><path d="M 756.576 404.243 A 0.299988 0.299988 0 0 0 757 404.266"/><path d="M 740.021 180.766 A 0.299988 0.299988 0 0 0 740.321 181.066"/><path d="M 760.021 181.366 L 760.021 338.996"/><path d="M 759.721 181.066 L 740.321 181.066"/><path d="M 760.021 181.366 A 0.299988 0.299988 0 0 0 759.721 181.066"/><path d="M 760.021 34.9967 L 760.021 174.866"/><path d="M 759.721 175.166 A 0.299988 0.299988 0 0 0 760.021 174.866"/><path d="M 740.021 175.466 L 740.021 180.766"/><path d="M 740.321 175.166 L 759.721 175.166"/><path d="M 740.321 175.166 A 0.299988 0.299988 0 0 0 740.021 175.466"/><path d="M 747.522 115.276 A 0.299988 0.299988 0 0 0 747.168 115.509"/><path d="M 739.862 97.7365 A 0.299988 0.299988 0 0 0 739.916 98.1573"/><path d="M 747.168 115.509 L 747.087 115.9"/><path d="M 747.087 115.9 A 0.299988 0.299988 0 0 0 747.319 116.255"/><path d="M 740.012 60.7415 A 0.299988 0.299988 0 0 0 739.892 61.1485"/><path d="M 751.518 46.1489 A 0.299988 0.299988 0 0 0 751.576 46.5691"/><path d="M 751.518 46.1488 L 751.759 45.83"/><path d="M 752.179 45.772 A 0.299988 0.299988 0 0 0 751.759 45.83"/><path d="M 740.363 60.5499 L 740.012 60.7415"/><path d="M 740.77 60.6697 A 0.299988 0.299988 0 0 0 740.363 60.55"/><path d="M 739.862 97.7365 L 750.525 83.9863"/><path d="M 750.946 83.9331 A 0.299988 0.299988 0 0 0 750.525 83.9863"/><path d="M 756.727 117.183 L 747.522 115.276"/><path d="M 756.96 117.538 A 0.299988 0.299988 0 0 0 756.727 117.183"/><path d="M 750.058 77.7019 L 740.77 60.6697"/><path d="M 749.938 78.1089 A 0.299988 0.299988 0 0 0 750.058 77.702"/><path d="M 752.179 45.7719 L 757.281 49.6357"/><path d="M 757.339 50.0561 A 0.299988 0.299988 0 0 0 757.281 49.6359"/><path d="M 747.319 116.255 L 756.524 118.162"/><path d="M 756.878 117.93 L 756.96 117.538"/><path d="M 756.524 118.163 A 0.299988 0.299988 0 0 0 756.878 117.93"/><path d="M 756.678 50.433 L 751.576 46.5691"/><path d="M 757.339 50.056 L 757.098 50.375"/><path d="M 756.678 50.433 A 0.299988 0.299988 0 0 0 757.098 50.3749"/><path d="M 739.892 61.1484 L 749.18 78.1807"/><path d="M 749.587 78.3004 L 749.938 78.109"/><path d="M 749.18 78.1807 A 0.299988 0.299988 0 0 0 749.587 78.3005"/><path d="M 750.946 83.9331 L 751.262 84.1782"/><path d="M 751.315 84.5991 A 0.299988 0.299988 0 0 0 751.262 84.1782"/><path d="M 740.232 98.4025 A 0.299988 0.299988 0 0 0 740.653 98.3492"/><path d="M 740.232 98.4025 L 739.916 98.1573"/><path d="M 751.315 84.5991 L 740.653 98.3492"/><path d="M 554.217 213.243 A 1 1 0 0 0 554.68 212.229"/><path d="M 554.217 213.243 L 552.196 214.488"/><path d="M 550.871 214.236 A 1 1 0 0 0 552.196 214.488"/><path d="M 550.871 214.236 A 9.99998 9.99998 0 0 0 533.912 224.68"/><path d="M 533.54 225.976 A 1 1 0 0 0 533.912 224.68"/><path d="M 533.54 225.976 L 531.682 227.121"/><path d="M 530.392 226.912 A 1 1 0 0 0 531.682 227.121"/><path d="M 530.392 226.912 L 521.071 215.803"/><path d="M 520.986 215.685 A 1 1 0 0 0 521.071 215.803"/><path d="M 520.986 215.685 L 496.228 175.483"/><path d="M 496.555 174.107 A 1 1 0 0 0 496.228 175.483"/><path d="M 526.711 156.71 A 1 1 0 0 0 525.335 156.383"/><path d="M 552.437 198.628 L 554.68 212.229"/><path d="M 552.437 198.628 A 1 1 0 0 0 552.302 198.266"/><path d="M 517.927 160.945 L 525.335 156.383"/><path d="M 517.927 160.945 A 0.300011 0.300011 0 0 0 517.829 161.358"/><path d="M 525.6 185.228 A 0.300011 0.300011 0 0 0 526.013 185.326"/><path d="M 517.17 190.42 A 0.300011 0.300011 0 0 0 517.583 190.518"/><path d="M 496.555 174.107 L 503.963 169.545"/><path d="M 504.376 169.643 L 517.17 190.42"/><path d="M 504.376 169.643 A 0.300011 0.300011 0 0 0 503.963 169.545"/><path d="M 512.805 164.452 L 525.6 185.228"/><path d="M 512.805 164.452 A 0.300011 0.300011 0 0 0 512.393 164.354"/><path d="M 509.498 166.137 L 512.393 164.354"/><path d="M 509.498 166.137 A 0.300011 0.300011 0 0 0 509.399 166.549"/><path d="M 525.932 199.117 A 0.300011 0.300011 0 0 0 526.345 199.215"/><path d="M 529.554 204.997 A 0.300011 0.300011 0 0 0 529.87 205.134"/><path d="M 525.198 197.925 L 525.932 199.117"/><path d="M 525.296 197.512 A 0.300011 0.300011 0 0 0 525.198 197.925"/><path d="M 528.822 203.809 L 529.554 204.997"/><path d="M 528.842 203.465 A 0.300011 0.300011 0 0 0 528.822 203.809"/><path d="M 533.3 192.583 L 525.296 197.512"/><path d="M 533.713 192.681 A 0.300011 0.300011 0 0 0 533.3 192.583"/><path d="M 535.052 195.623 L 528.842 203.465"/><path d="M 535.542 195.652 A 0.300011 0.300011 0 0 0 535.052 195.623"/><path d="M 538.833 201.371 L 531.742 202.83"/><path d="M 539.149 201.507 A 0.300011 0.300011 0 0 0 538.833 201.371"/><path d="M 526.345 199.215 L 534.349 194.286"/><path d="M 534.447 193.873 L 533.713 192.681"/><path d="M 534.349 194.286 A 0.300011 0.300011 0 0 0 534.447 193.873"/><path d="M 531.742 202.83 L 536.236 197.154"/><path d="M 536.256 196.811 L 535.542 195.652"/><path d="M 536.236 197.154 A 0.300011 0.300011 0 0 0 536.256 196.811"/><path d="M 529.87 205.134 L 539.668 203.118"/><path d="M 539.862 202.667 L 539.149 201.507"/><path d="M 539.668 203.118 A 0.300011 0.300011 0 0 0 539.862 202.667"/><path d="M 530.624 182.134 L 517.829 161.358"/><path d="M 526.013 185.326 L 530.526 182.547"/><path d="M 530.526 182.547 A 0.300011 0.300011 0 0 0 530.624 182.134"/><path d="M 517.583 190.518 L 522.096 187.739"/><path d="M 522.194 187.326 L 509.4 166.549"/><path d="M 522.096 187.739 A 0.300011 0.300011 0 0 0 522.194 187.326"/><path d="M 548.368 191.877 L 552.302 198.266"/><path d="M 548.368 191.877 A 0.300011 0.300011 0 0 0 547.955 191.779"/><path d="M 526.711 156.71 L 547.004 189.663"/><path d="M 546.906 190.076 A 0.300011 0.300011 0 0 0 547.004 189.663"/><path d="M 542.505 195.135 L 547.955 191.779"/><path d="M 542.093 195.037 A 0.300011 0.300011 0 0 0 542.505 195.135"/><path d="M 541.457 193.432 A 0.300011 0.300011 0 0 0 541.359 193.845"/><path d="M 546.906 190.076 L 541.457 193.432"/><path d="M 541.359 193.845 L 542.093 195.037"/><path d="M 81.663 538.441 A 1 1 0 0 0 81.7506 537.33"/><path d="M 81.663 538.441 L 80.189 540.303"/><path d="M 78.8581 540.519 A 1 1 0 0 0 80.189 540.303"/><path d="M 78.8581 540.519 A 10 10 0 0 0 66.4937 556.134"/><path d="M 66.5882 557.479 A 1 1 0 0 0 66.4937 556.134"/><path d="M 66.5882 557.479 L 65.2336 559.189"/><path d="M 63.9496 559.435 A 1 1 0 0 0 65.2336 559.19"/><path d="M 63.9496 559.435 L 51.3914 552.184"/><path d="M 51.2706 552.102 A 1 1 0 0 0 51.3914 552.184"/><path d="M 51.2706 552.102 L 14.2561 522.792"/><path d="M 14.0929 521.387 A 1 1 0 0 0 14.2561 522.792"/><path d="M 36.4804 494.726 A 1 1 0 0 0 35.0756 494.889"/><path d="M 74.9917 525.316 L 81.7506 537.33"/><path d="M 74.9917 525.316 A 1 1 0 0 0 74.741 525.023"/><path d="M 29.6747 501.71 L 35.0756 494.889"/><path d="M 29.6747 501.71 A 0.299999 0.299999 0 0 0 29.7237 502.131"/><path d="M 45.1901 521.904 A 0.299999 0.299999 0 0 0 45.6115 521.855"/><path d="M 39.0442 529.665 A 0.299999 0.299999 0 0 0 39.4656 529.616"/><path d="M 14.0929 521.387 L 19.4938 514.567"/><path d="M 19.9152 514.518 L 39.0442 529.665"/><path d="M 19.9152 514.518 A 0.299999 0.299999 0 0 0 19.4938 514.567"/><path d="M 26.061 506.757 L 45.1901 521.904"/><path d="M 26.061 506.757 A 0.299999 0.299999 0 0 0 25.6396 506.806"/><path d="M 23.5289 509.471 L 25.6396 506.806"/><path d="M 23.5289 509.471 A 0.299999 0.299999 0 0 0 23.5779 509.892"/><path d="M 50.2522 534.841 A 0.299999 0.299999 0 0 0 50.6737 534.792"/><path d="M 55.6665 539.128 A 0.299999 0.299999 0 0 0 56.01 539.149"/><path d="M 49.1547 533.972 L 50.2522 534.841"/><path d="M 49.1057 533.551 A 0.299999 0.299999 0 0 0 49.1547 533.972"/><path d="M 54.572 538.262 L 55.6665 539.128"/><path d="M 54.4735 537.932 A 0.299999 0.299999 0 0 0 54.572 538.262"/><path d="M 54.9411 526.181 L 49.1057 533.551"/><path d="M 55.3626 526.132 A 0.299999 0.299999 0 0 0 54.9411 526.181"/><path d="M 57.6267 528.439 L 54.4735 537.932"/><path d="M 58.0977 528.298 A 0.299999 0.299999 0 0 0 57.6267 528.439"/><path d="M 63.1457 532.547 L 56.9816 536.343"/><path d="M 63.4892 532.567 A 0.299999 0.299999 0 0 0 63.1457 532.547"/><path d="M 50.6737 534.792 L 56.5091 527.423"/><path d="M 56.4601 527.001 L 55.3626 526.132"/><path d="M 56.5091 527.423 A 0.299999 0.299999 0 0 0 56.4601 527.001"/><path d="M 56.9816 536.343 L 59.2635 529.473"/><path d="M 59.165 529.143 L 58.0977 528.298"/><path d="M 59.2635 529.473 A 0.299999 0.299999 0 0 0 59.165 529.143"/><path d="M 56.01 539.149 L 64.5277 533.903"/><path d="M 64.5566 533.413 L 63.4892 532.567"/><path d="M 64.5277 533.903 A 0.299999 0.299999 0 0 0 64.5566 533.413"/><path d="M 48.8527 517.278 L 29.7237 502.131"/><path d="M 45.6115 521.855 L 48.9017 517.7"/><path d="M 48.9017 517.7 A 0.299999 0.299999 0 0 0 48.8527 517.278"/><path d="M 39.4656 529.616 L 42.7558 525.461"/><path d="M 42.7069 525.04 L 23.5779 509.892"/><path d="M 42.7558 525.461 A 0.299999 0.299999 0 0 0 42.7069 525.04"/><path d="M 68.8586 520.365 L 74.741 525.023"/><path d="M 68.8586 520.365 A 0.299999 0.299999 0 0 0 68.4372 520.414"/><path d="M 36.4804 494.726 L 66.8203 518.751"/><path d="M 66.8692 519.172 A 0.299999 0.299999 0 0 0 66.8203 518.75"/><path d="M 64.4641 525.431 L 68.4372 520.414"/><path d="M 64.0427 525.48 A 0.299999 0.299999 0 0 0 64.4641 525.431"/><path d="M 62.8962 524.189 A 0.299999 0.299999 0 0 0 62.9451 524.611"/><path d="M 66.8692 519.172 L 62.8962 524.189"/><path d="M 62.9451 524.611 L 64.0427 525.48"/><path d="M 532.415 264.566 A 1 1 0 0 0 532.502 265.677"/><path d="M 532.502 265.677 L 533.976 267.539"/><path d="M 533.976 267.539 A 1 1 0 0 0 535.307 267.755"/><path d="M 547.672 283.37 A 10 10 0 0 0 535.307 267.755"/><path d="M 547.671 283.37 A 1 1 0 0 0 547.577 284.715"/><path d="M 547.577 284.715 L 548.932 286.426"/><path d="M 548.932 286.426 A 1 1 0 0 0 550.216 286.671"/><path d="M 550.216 286.671 L 562.774 279.42"/><path d="M 562.774 279.42 A 1 1 0 0 0 562.895 279.338"/><path d="M 562.895 279.338 L 599.909 250.028"/><path d="M 599.909 250.028 A 1 1 0 0 0 600.072 248.624"/><path d="M 579.09 222.125 A 1 1 0 0 0 577.685 221.962"/><path d="M 539.173 252.552 L 532.415 264.566"/><path d="M 539.424 252.259 A 1 1 0 0 0 539.174 252.552"/><path d="M 584.49 228.946 L 579.09 222.125"/><path d="M 584.441 229.367 A 0.299988 0.299988 0 0 0 584.49 228.946"/><path d="M 568.554 249.091 A 0.299988 0.299988 0 0 0 568.975 249.14"/><path d="M 574.7 256.852 A 0.299988 0.299988 0 0 0 575.121 256.901"/><path d="M 600.072 248.624 L 594.671 241.803"/><path d="M 594.25 241.754 L 575.121 256.901"/><path d="M 594.671 241.803 A 0.299988 0.299988 0 0 0 594.25 241.754"/><path d="M 588.104 233.993 L 568.975 249.14"/><path d="M 588.526 234.042 A 0.299988 0.299988 0 0 0 588.104 233.993"/><path d="M 590.636 236.707 L 588.526 234.042"/><path d="M 590.587 237.129 A 0.299988 0.299988 0 0 0 590.636 236.707"/><path d="M 563.492 262.028 A 0.299988 0.299988 0 0 0 563.913 262.077"/><path d="M 558.155 266.385 A 0.299988 0.299988 0 0 0 558.499 266.365"/><path d="M 565.01 261.208 L 563.913 262.077"/><path d="M 565.01 261.208 A 0.299988 0.299988 0 0 0 565.059 260.787"/><path d="M 559.593 265.498 L 558.499 266.365"/><path d="M 559.593 265.498 A 0.299988 0.299988 0 0 0 559.692 265.168"/><path d="M 559.224 253.417 L 565.06 260.787"/><path d="M 559.224 253.417 A 0.299988 0.299988 0 0 0 558.803 253.368"/><path d="M 556.538 255.675 L 559.692 265.168"/><path d="M 556.538 255.675 A 0.299988 0.299988 0 0 0 556.068 255.534"/><path d="M 551.02 259.783 L 557.184 263.579"/><path d="M 551.019 259.783 A 0.299988 0.299988 0 0 0 550.676 259.804"/><path d="M 563.492 262.028 L 557.656 254.659"/><path d="M 557.705 254.238 L 558.803 253.368"/><path d="M 557.705 254.238 A 0.299988 0.299988 0 0 0 557.656 254.659"/><path d="M 557.184 263.579 L 554.902 256.709"/><path d="M 555 256.379 L 556.068 255.534"/><path d="M 555 256.379 A 0.299988 0.299988 0 0 0 554.902 256.709"/><path d="M 558.155 266.385 L 549.638 261.139"/><path d="M 549.609 260.649 L 550.676 259.804"/><path d="M 549.609 260.649 A 0.299988 0.299988 0 0 0 549.638 261.139"/><path d="M 565.312 244.515 L 584.441 229.367"/><path d="M 568.554 249.091 L 565.263 244.936"/><path d="M 565.313 244.515 A 0.299988 0.299988 0 0 0 565.264 244.936"/><path d="M 574.7 256.852 L 571.409 252.697"/><path d="M 571.458 252.276 L 590.587 237.129"/><path d="M 571.458 252.276 A 0.299988 0.299988 0 0 0 571.409 252.697"/><path d="M 545.307 247.601 L 539.424 252.259"/><path d="M 545.728 247.65 A 0.299988 0.299988 0 0 0 545.307 247.601"/><path d="M 577.685 221.962 L 547.345 245.987"/><path d="M 547.345 245.987 A 0.299988 0.299988 0 0 0 547.296 246.408"/><path d="M 549.701 252.667 L 545.728 247.65"/><path d="M 549.701 252.667 A 0.299988 0.299988 0 0 0 550.122 252.716"/><path d="M 551.22 251.847 L 550.122 252.716"/><path d="M 547.296 246.408 L 551.269 251.426"/><path d="M 551.22 251.847 A 0.299988 0.299988 0 0 0 551.269 251.426"/><path d="M 555.533 306.826 A 1 1 0 0 0 555.621 307.937"/><path d="M 555.621 307.937 L 557.095 309.799"/><path d="M 557.095 309.799 A 1 1 0 0 0 558.426 310.015"/><path d="M 570.79 325.63 A 10 10 0 0 0 558.426 310.015"/><path d="M 570.79 325.63 A 1 1 0 0 0 570.696 326.975"/><path d="M 570.696 326.975 L 572.05 328.685"/><path d="M 572.05 328.685 A 1 1 0 0 0 573.334 328.931"/><path d="M 573.334 328.931 L 585.893 321.68"/><path d="M 585.893 321.68 A 1 1 0 0 0 586.013 321.598"/><path d="M 586.013 321.598 L 623.028 292.288"/><path d="M 623.028 292.288 A 1 1 0 0 0 623.191 290.883"/><path d="M 602.208 264.385 A 1 1 0 0 0 600.804 264.222"/><path d="M 562.292 294.812 L 555.533 306.826"/><path d="M 562.543 294.518 A 1 1 0 0 0 562.292 294.812"/><path d="M 607.609 271.206 L 602.208 264.385"/><path d="M 607.56 271.627 A 0.299988 0.299988 0 0 0 607.609 271.206"/><path d="M 591.672 291.351 A 0.299988 0.299988 0 0 0 592.094 291.4"/><path d="M 597.818 299.112 A 0.299988 0.299988 0 0 0 598.24 299.161"/><path d="M 623.191 290.883 L 617.79 284.063"/><path d="M 617.369 284.014 L 598.24 299.161"/><path d="M 617.79 284.063 A 0.299988 0.299988 0 0 0 617.369 284.014"/><path d="M 611.223 276.252 L 592.094 291.4"/><path d="M 611.644 276.301 A 0.299988 0.299988 0 0 0 611.223 276.252"/><path d="M 613.755 278.967 L 611.644 276.301"/><path d="M 613.706 279.388 A 0.299988 0.299988 0 0 0 613.755 278.967"/><path d="M 586.61 304.288 A 0.299988 0.299988 0 0 0 587.032 304.337"/><path d="M 581.274 308.645 A 0.299988 0.299988 0 0 0 581.617 308.624"/><path d="M 588.129 303.468 L 587.032 304.337"/><path d="M 588.129 303.468 A 0.299988 0.299988 0 0 0 588.178 303.047"/><path d="M 582.712 307.758 L 581.617 308.624"/><path d="M 582.712 307.758 A 0.299988 0.299988 0 0 0 582.81 307.428"/><path d="M 582.343 295.677 L 588.178 303.046"/><path d="M 582.343 295.677 A 0.299988 0.299988 0 0 0 581.921 295.628"/><path d="M 579.657 297.935 L 582.81 307.428"/><path d="M 579.657 297.935 A 0.299988 0.299988 0 0 0 579.186 297.794"/><path d="M 574.138 302.043 L 580.302 305.839"/><path d="M 574.138 302.043 A 0.299988 0.299988 0 0 0 573.795 302.063"/><path d="M 586.61 304.288 L 580.775 296.919"/><path d="M 580.824 296.497 L 581.921 295.628"/><path d="M 580.824 296.497 A 0.299988 0.299988 0 0 0 580.775 296.919"/><path d="M 580.302 305.839 L 578.02 298.969"/><path d="M 578.119 298.639 L 579.186 297.794"/><path d="M 578.119 298.639 A 0.299988 0.299988 0 0 0 578.021 298.969"/><path d="M 581.274 308.645 L 572.756 303.399"/><path d="M 572.727 302.908 L 573.795 302.063"/><path d="M 572.727 302.908 A 0.299988 0.299988 0 0 0 572.756 303.399"/><path d="M 588.431 286.774 L 607.56 271.627"/><path d="M 591.672 291.351 L 588.382 287.196"/><path d="M 588.431 286.774 A 0.299988 0.299988 0 0 0 588.382 287.196"/><path d="M 597.818 299.112 L 594.528 294.957"/><path d="M 594.577 294.536 L 613.706 279.388"/><path d="M 594.577 294.536 A 0.299988 0.299988 0 0 0 594.528 294.957"/><path d="M 568.425 289.86 L 562.543 294.518"/><path d="M 568.847 289.909 A 0.299988 0.299988 0 0 0 568.425 289.86"/><path d="M 600.804 264.222 L 570.464 288.246"/><path d="M 570.464 288.246 A 0.299988 0.299988 0 0 0 570.415 288.668"/><path d="M 572.82 294.927 L 568.847 289.909"/><path d="M 572.82 294.927 A 0.299988 0.299988 0 0 0 573.241 294.976"/><path d="M 574.339 294.107 L 573.241 294.976"/><path d="M 570.415 288.668 L 574.388 293.685"/><path d="M 574.339 294.107 A 0.299988 0.299988 0 0 0 574.388 293.685"/><path d="M 595.16 335.467 A 0.5 0.5 0 0 0 595.004 336.143"/><path d="M 574.082 349.793 A 12.5 12.5 0 0 0 595.004 336.143"/><path d="M 574.082 349.793 A 0.5 0.5 0 0 0 573.401 349.664"/><path d="M 595.16 335.467 L 598.539 333.262"/><path d="M 598.955 333.35 A 0.299988 0.299988 0 0 0 598.539 333.262"/><path d="M 570.734 351.403 L 573.401 349.664"/><path d="M 570.734 351.404 A 0.299988 0.299988 0 0 0 570.647 351.819"/><path d="M 610.055 412.22 L 570.647 351.819"/><path d="M 610.055 412.22 A 0.5 0.5 0 0 0 610.747 412.366"/><path d="M 638.217 394.443 A 0.5 0.5 0 0 0 638.363 393.751"/><path d="M 598.955 333.35 L 608.353 347.755"/><path d="M 608.207 348.447 A 0.5 0.5 0 0 0 608.353 347.755"/><path d="M 608.207 348.447 L 604.857 350.633"/><path d="M 604.857 350.633 A 0.5 0.5 0 0 0 604.712 351.324"/><path d="M 604.712 351.324 L 605.805 352.999"/><path d="M 605.805 353 A 0.5 0.5 0 0 0 606.497 353.145"/><path d="M 610.539 351.105 L 638.363 393.751"/><path d="M 606.497 353.145 L 609.847 350.959"/><path d="M 610.539 351.105 A 0.5 0.5 0 0 0 609.847 350.959"/><path d="M 597.592 368.412 A 0.5 0.5 0 0 0 597.446 369.104"/><path d="M 597.446 369.104 L 597.993 369.941"/><path d="M 597.993 369.941 A 0.5 0.5 0 0 0 598.685 370.087"/><path d="M 605.129 363.494 L 597.592 368.412"/><path d="M 605.821 363.64 A 0.5 0.5 0 0 0 605.129 363.494"/><path d="M 598.685 370.087 L 606.222 365.169"/><path d="M 606.368 364.477 L 605.821 363.64"/><path d="M 606.222 365.169 A 0.5 0.5 0 0 0 606.368 364.477"/><path d="M 605.21 386.128 A 0.200012 0.200012 0 0 0 605.152 386.405"/><path d="M 618.536 407.284 L 610.747 412.366"/><path d="M 605.152 386.405 L 618.594 407.007"/><path d="M 618.536 407.284 A 0.200012 0.200012 0 0 0 618.594 407.007"/><path d="M 626.827 401.875 A 0.200012 0.200012 0 0 0 626.885 401.598"/><path d="M 613.443 380.995 L 626.885 401.598"/><path d="M 613.501 380.718 A 0.200012 0.200012 0 0 0 613.443 380.995"/><path d="M 626.827 401.875 L 623.812 403.842"/><path d="M 623.535 403.784 A 0.200012 0.200012 0 0 0 623.812 403.842"/><path d="M 638.217 394.443 L 632.103 398.432"/><path d="M 631.826 398.374 A 0.200012 0.200012 0 0 0 632.103 398.432"/><path d="M 618.108 377.713 L 613.501 380.718"/><path d="M 631.826 398.374 L 618.385 377.771"/><path d="M 618.385 377.771 A 0.200012 0.200012 0 0 0 618.108 377.713"/><path d="M 609.816 383.122 L 605.21 386.128"/><path d="M 623.535 403.783 L 610.093 383.181"/><path d="M 610.093 383.181 A 0.200012 0.200012 0 0 0 609.816 383.122"/><path d="M 639.356 310.738 A 0.5 0.5 0 0 0 639.2 311.414"/><path d="M 618.278 325.064 A 12.5 12.5 0 0 0 639.2 311.414"/><path d="M 618.278 325.064 A 0.5 0.5 0 0 0 617.597 324.934"/><path d="M 639.356 310.738 L 642.736 308.533"/><path d="M 643.151 308.62 A 0.299927 0.299927 0 0 0 642.736 308.533"/><path d="M 614.93 326.674 L 617.597 324.934"/><path d="M 614.93 326.674 A 0.299927 0.299927 0 0 0 614.843 327.089"/><path d="M 654.251 387.491 L 614.843 327.089"/><path d="M 654.251 387.491 A 0.5 0.5 0 0 0 654.943 387.637"/><path d="M 682.413 369.714 A 0.5 0.5 0 0 0 682.559 369.022"/><path d="M 643.151 308.62 L 652.549 323.026"/><path d="M 652.404 323.718 A 0.5 0.5 0 0 0 652.549 323.026"/><path d="M 652.404 323.718 L 649.054 325.903"/><path d="M 649.054 325.903 A 0.5 0.5 0 0 0 648.908 326.595"/><path d="M 648.908 326.595 L 650.001 328.27"/><path d="M 650.001 328.27 A 0.5 0.5 0 0 0 650.693 328.416"/><path d="M 654.735 326.376 L 682.559 369.022"/><path d="M 650.693 328.416 L 654.043 326.23"/><path d="M 654.735 326.376 A 0.5 0.5 0 0 0 654.043 326.23"/><path d="M 641.788 343.683 A 0.5 0.5 0 0 0 641.642 344.375"/><path d="M 641.642 344.375 L 642.189 345.212"/><path d="M 642.189 345.212 A 0.5 0.5 0 0 0 642.881 345.358"/><path d="M 649.326 338.765 L 641.788 343.683"/><path d="M 650.018 338.91 A 0.5 0.5 0 0 0 649.326 338.765"/><path d="M 642.881 345.358 L 650.418 340.44"/><path d="M 650.564 339.748 L 650.018 338.91"/><path d="M 650.418 340.44 A 0.5 0.5 0 0 0 650.564 339.748"/><path d="M 649.406 361.399 A 0.199982 0.199982 0 0 0 649.348 361.675"/><path d="M 662.732 382.555 L 654.943 387.637"/><path d="M 649.348 361.675 L 662.79 382.278"/><path d="M 662.732 382.555 A 0.199982 0.199982 0 0 0 662.79 382.278"/><path d="M 671.023 377.145 A 0.199982 0.199982 0 0 0 671.081 376.868"/><path d="M 657.639 356.266 L 671.081 376.868"/><path d="M 657.698 355.989 A 0.199982 0.199982 0 0 0 657.639 356.266"/><path d="M 671.023 377.145 L 668.008 379.112"/><path d="M 667.731 379.054 A 0.199982 0.199982 0 0 0 668.008 379.112"/><path d="M 682.413 369.714 L 676.299 373.703"/><path d="M 676.023 373.645 A 0.199982 0.199982 0 0 0 676.299 373.703"/><path d="M 662.304 352.984 L 657.698 355.989"/><path d="M 676.023 373.645 L 662.581 353.042"/><path d="M 662.581 353.042 A 0.199982 0.199982 0 0 0 662.304 352.984"/><path d="M 654.013 358.393 L 649.406 361.398"/><path d="M 667.731 379.054 L 654.289 358.451"/><path d="M 654.289 358.451 A 0.199982 0.199982 0 0 0 654.013 358.393"/><circle cx="9.33575" cy="8.17957" r="2.6406"/><circle cx="10.3265" cy="584.274" r="4.08802"/><circle cx="789.512" cy="9.38409" r="4.32898"/><circle cx="26.8372" cy="193.415" r="2.96947"/><circle cx="278.704" cy="578.069" r="3.70288"/><circle cx="565.262" cy="268.701" r="2.12012"/><circle cx="587.943" cy="311.562" r="1.80157"/><circle cx="588.759" cy="362.699" r="2.5"/><circle cx="633.591" cy="339.296" r="2.69095"/></g><g stroke="rgb(0, 0, 0)" stroke-width="0.1" stroke-linecap="butt" stroke-linejoin="miter" fill="none"><path d="M 9.14825 8.36707 L 9.52325 8.36707 L 9.52325 7.99207 L 9.14825 7.99207 L 9.14825 8.36707 z" stroke="none" fill-rule="evenodd" fill="rgb(0, 0, 0)"/></g><g stroke="rgb(0, 0, 0)" stroke-width="0.1" stroke-linecap="butt" stroke-linejoin="miter" fill="none"><path d="M 10.139 584.462 L 10.514 584.462 L 10.514 584.087 L 10.139 584.087 L 10.139 584.462 z" stroke="none" fill-rule="evenodd" fill="rgb(0, 0, 0)"/></g><g stroke="rgb(0, 0, 0)" stroke-width="0.1" stroke-linecap="butt" stroke-linejoin="miter" fill="none"><path d="M 789.324 9.57159 L 789.699 9.57159 L 789.699 9.19659 L 789.324 9.19659 L 789.324 9.57159 z" stroke="none" fill-rule="evenodd" fill="rgb(0, 0, 0)"/></g><g stroke="rgb(0, 0, 0)" stroke-width="0.13" stroke-linecap="butt" stroke-linejoin="miter" fill="none"><path d="M 8.61754 287.506 L 8.20419 287.618 L 7.88185 287.866 L 7.68074 288.229 L 7.60589 288.693 L 7.69755 289.202 L 7.94535 289.6 L 8.33916 289.852 L 8.84364 289.947 L 9.31251 289.86 L 9.68025 289.617 L 9.91663 289.239 L 10.0015 288.749 L 9.94036 288.371 L 9.77343 288.079 L 10.7168 288.219 L 10.7194 289.752 L 11.1329 289.751 L 11.1297 287.88 L 9.27333 287.606 L 9.27403 288.009 L 9.51156 288.301 L 9.59794 288.674 L 9.54302 288.997 L 9.38206 289.245 L 9.13521 289.402 L 8.81758 289.458 L 8.49977 289.403 L 8.25237 289.242 L 8.09561 288.995 L 8.03958 288.677 L 8.07443 288.41 L 8.19007 288.203 L 8.37136 288.051 L 8.61835 287.975 L 8.61754 287.506 L 8.61754 287.506 z M 7.71209 291.793 L 7.71297 292.303 L 8.54538 292.468 L 9.32254 292.759 L 10.0444 293.171 L 10.7212 293.71 L 11.1397 293.709 L 11.1356 291.308 L 10.6767 291.309 L 10.68 293.226 L 9.99819 292.672 L 9.28637 292.255 L 8.52939 291.964 L 7.71209 291.793 L 7.71209 291.793 z M 10.2787 297.436 L 10.6871 297.34 L 10.9893 297.118 L 11.1803 296.774 L 11.2451 296.33 L 11.2093 296.033 L 11.113 295.776 L 10.9563 295.549 L 10.7341 295.358 L 10.4564 295.207 L 10.1184 295.097 L 9.71982 295.027 L 9.27094 295.007 L 8.55494 295.089 L 8.03591 295.337 L 7.72392 295.736 L 7.61894 296.281 L 7.71056 296.77 L 7.94824 297.143 L 8.32185 297.384 L 8.79606 297.469 L 9.27502 297.383 L 9.64278 297.15 L 9.87415 296.792 L 9.95408 296.348 L 9.85239 295.869 L 9.56431 295.511 L 10.1192 295.586 L 10.5179 295.747 L 10.7553 295.993 L 10.8366 296.336 L 10.7967 296.588 L 10.6911 296.78 L 10.5148 296.907 L 10.2779 296.973 L 10.2787 297.436 L 10.2787 297.436 z M 8.79018 296.98 L 8.47236 296.925 L 8.23004 296.784 L 8.06827 296.558 L 8.01735 296.275 L 8.06727 295.978 L 8.22322 295.751 L 8.46504 295.604 L 8.78269 295.558 L 9.09546 295.608 L 9.33273 295.749 L 9.48442 295.98 L 9.54044 296.293 L 9.48543 296.565 L 9.33955 296.782 L 9.10276 296.924 L 8.79018 296.98 L 8.79018 296.98 z M 7.72555 299.619 L 7.72675 300.315 L 8.47819 300.313 L 8.47699 299.617 L 7.72555 299.619 L 7.72555 299.619 z M 7.73242 303.612 L 7.73321 304.071 L 11.2584 304.065 L 11.2578 303.722 L 10.95 303.631 L 10.743 303.45 L 10.6214 303.173 L 10.5804 302.79 L 10.2224 302.79 L 10.2238 303.607 L 7.73242 303.612 L 7.73242 303.612 z" stroke="none" fill-rule="evenodd" fill="rgb(0, 0, 0)"/><path d="M 5.69413 582.35 L 6.21509 584.281 L 6.7294 582.348"/><path d="M 5.74532 10.1176 L 5.22437 8.18665 L 4.71005 10.1194"/><path d="M 5.22437 8.18665 L 6.21509 584.281"/></g><g stroke="rgb(0, 0, 0)" stroke-width="0.13" stroke-linecap="butt" stroke-linejoin="miter" fill="none"><path d="M 389.388 5.64478 L 389.897 5.64557 L 390.065 4.81366 L 390.358 4.03748 L 390.773 3.31689 L 391.314 2.64197 L 391.314 2.22339 L 388.914 2.21967 L 388.913 2.67859 L 390.829 2.68158 L 390.274 3.36151 L 389.854 4.07196 L 389.56 4.828 L 389.388 5.64478 L 389.388 5.64478 z M 393.202 3.76453 L 392.945 3.90533 L 392.768 4.10175 L 392.657 4.34869 L 392.621 4.64618 L 392.701 5.09515 L 392.932 5.44348 L 393.31 5.66595 L 393.824 5.7525 L 394.334 5.66754 L 394.712 5.44623 L 394.945 5.09863 L 395.031 4.6499 L 394.992 4.35229 L 394.886 4.10498 L 394.705 3.90802 L 394.453 3.76642 L 394.655 3.64569 L 394.796 3.47949 L 394.882 3.27789 L 394.913 3.03082 L 394.833 2.67267 L 394.621 2.38483 L 394.279 2.19769 L 393.83 2.1264 L 393.376 2.19635 L 393.033 2.38239 L 392.815 2.66956 L 392.739 3.02747 L 392.764 3.27466 L 392.849 3.4765 L 393.202 3.76453 L 393.202 3.76453 z M 393.105 4.63684 L 393.151 4.36963 L 393.297 4.16809 L 393.524 4.03735 L 393.827 3.99243 L 394.125 4.03827 L 394.351 4.16974 L 394.497 4.3717 L 394.547 4.63904 L 394.496 4.92645 L 394.35 5.14307 L 394.123 5.28394 L 393.825 5.32886 L 393.522 5.28302 L 393.296 5.14148 L 393.15 4.92438 L 393.105 4.63684 L 393.105 4.63684 z M 393.218 3.06854 L 393.259 2.84674 L 393.38 2.67542 L 393.572 2.56982 L 393.829 2.52991 L 394.081 2.57062 L 394.273 2.67682 L 394.394 2.84845 L 394.439 3.07043 L 394.393 3.2973 L 394.272 3.47363 L 394.08 3.58936 L 393.828 3.62427 L 393.571 3.5835 L 393.379 3.47229 L 393.258 3.29559 L 393.218 3.06854 L 393.218 3.06854 z M 396.348 3.94592 L 396.422 4.73779 L 396.658 5.30304 L 397.036 5.64655 L 397.56 5.7583 L 398.08 5.64813 L 398.459 5.30579 L 398.692 4.74133 L 398.774 3.94965 L 398.694 3.16278 L 398.599 2.84998 L 398.463 2.59253 L 398.085 2.24902 L 397.566 2.1322 L 397.041 2.24744 L 396.663 2.59479 L 396.425 3.1593 L 396.348 3.94592 L 396.348 3.94592 z M 396.832 3.94666 L 396.873 3.33649 L 397 2.89795 L 397.227 2.64105 L 397.565 2.55078 L 397.898 2.64209 L 398.125 2.89966 L 398.25 3.33862 L 398.289 3.94891 L 398.248 4.56409 L 398.121 5.00269 L 397.894 5.25952 L 397.561 5.34473 L 397.223 5.25848 L 396.997 5.00092 L 396.871 4.56201 L 396.832 3.94666 L 396.832 3.94666 z M 400.949 5.66272 L 401.645 5.66376 L 401.646 4.91235 L 400.95 4.91125 L 400.949 5.66272 L 400.949 5.66272 z M 404.942 5.66888 L 405.401 5.66962 L 405.406 2.14441 L 405.063 2.14386 L 404.972 2.45135 L 404.79 2.65784 L 404.513 2.77844 L 404.129 2.81824 L 404.129 3.17627 L 404.946 3.17755 L 404.942 5.66888 L 404.942 5.66888 z M 408.146 3.78772 L 407.889 3.92853 L 407.712 4.12494 L 407.601 4.37189 L 407.565 4.66937 L 407.645 5.11835 L 407.876 5.46667 L 408.254 5.68915 L 408.768 5.7757 L 409.278 5.69073 L 409.657 5.46942 L 409.889 5.12183 L 409.975 4.6731 L 409.936 4.37549 L 409.83 4.12817 L 409.649 3.93121 L 409.397 3.78961 L 409.599 3.66888 L 409.74 3.50269 L 409.826 3.30109 L 409.857 3.05402 L 409.777 2.69586 L 409.565 2.40802 L 409.223 2.22089 L 408.774 2.1496 L 408.32 2.21954 L 407.977 2.40558 L 407.76 2.69275 L 407.683 3.05066 L 407.708 3.29785 L 407.794 3.49969 L 408.146 3.78772 L 408.146 3.78772 z M 408.049 4.66003 L 408.095 4.39282 L 408.241 4.19128 L 408.469 4.06055 L 408.771 4.01563 L 409.069 4.06146 L 409.295 4.19293 L 409.441 4.3949 L 409.491 4.66223 L 409.44 4.94965 L 409.294 5.16626 L 409.067 5.30713 L 408.769 5.35205 L 408.467 5.30621 L 408.24 5.16467 L 408.094 4.94757 L 408.049 4.66003 L 408.049 4.66003 z M 408.162 3.09174 L 408.203 2.86993 L 408.324 2.69861 L 408.516 2.59302 L 408.773 2.5531 L 409.026 2.59381 L 409.217 2.70001 L 409.338 2.87164 L 409.383 3.09363 L 409.337 3.3205 L 409.216 3.49683 L 409.024 3.61255 L 408.772 3.64746 L 408.515 3.60669 L 408.323 3.49548 L 408.202 3.31879 L 408.162 3.09174 L 408.162 3.09174 z" stroke="none" fill-rule="evenodd" fill="rgb(0, 0, 0)"/><path d="M 787.581 8.77716 L 789.513 8.26251 L 787.582 7.74188"/><path d="M 11.2701 6.54333 L 9.33748 7.05798 L 11.2685 7.57861"/><path d="M 9.33748 7.05798 L 789.513 8.26251"/></g></svg>