<?xml version="1.0" encoding="utf-8" ?><!DOCTYPE svg PUBLIC "-//W3C//DTD SVG 1.1//EN" "http://www.w3.org/Graphics/SVG/1.1/DTD/svg11.dtd" 
[ <!ATTLIST svg 
  xmlns:dsy CDATA #FIXED "http://www.3ds.com/print"  
    dsy:text-version CDATA #IMPLIED > 

  <!ATTLIST text 
  xmlns:dsy CDATA #FIXED "http://www.3ds.com/print" 
    dsy:text-version CDATA #IMPLIED > 
]><svg xmlns="http://www.w3.org/2000/svg" xmlns:dsy="http://www.3ds.com/print" dsy:text-version="18000" width="594" height="420" viewBox="0 0 594 420" version="1.1"><g stroke="rgb(0, 0, 0)" stroke-width="0.13" stroke-linecap="butt" stroke-linejoin="miter" fill="none"><path d="M 36.2473 194.322 L 36.2473 402.015"/><path d="M 464.551 189.322 L 464.551 402.015"/></g><g stroke="rgb(0, 0, 0)" stroke-width="0.35" stroke-linecap="butt" stroke-linejoin="miter" fill="none"><circle cx="48.2473" cy="45.4216" r="3.20001"/><circle cx="48.2473" cy="345.422" r="3.20001"/><circle cx="430.194" cy="192.322" r="3.20001"/><circle cx="205.047" cy="192.322" r="3.20001"/><circle cx="308.247" cy="192.322" r="6"/><path d="M 54.8616 40.7684 L 41.2473 34.4714"/><path d="M 41.2473 34.4714 L 41.6671 33.5638"/><path d="M 41.6671 33.5638 L 55.2814 39.8608"/><path d="M 55.2814 39.8608 L 54.8616 40.7684"/><path d="M 40.5439 50.3591 L 53.914 54.5112"/><path d="M 53.914 54.5112 L 53.6174 55.4662"/><path d="M 53.6174 55.4662 L 40.2473 51.3141"/><path d="M 40.2473 51.3141 L 40.5439 50.3591"/><path d="M 40.2473 339.615 L 40.5573 340.566"/><path d="M 54.5085 334.966 L 40.2473 339.615"/><path d="M 54.8185 335.917 L 54.5085 334.966"/><path d="M 40.5573 340.566 L 54.8185 335.917"/><path d="M 41.2473 356.543 L 57.4765 348.758"/><path d="M 57.4765 348.758 L 57.909 349.66"/><path d="M 57.909 349.66 L 41.6799 357.445"/><path d="M 41.6799 357.445 L 41.2473 356.543"/><path d="M 36.2473 353.765 A 10 10 0 0 0 49.968 363.047"/><path d="M 453.065 201.469 L 49.968 363.047"/><path d="M 453.065 201.469 A 10 10 0 0 0 452.934 182.853"/><path d="M 49.8371 27.8191 A 10 10 0 0 0 36.2473 37.1525"/><path d="M 36.2473 92.3923 L 36.2473 37.1525"/><path d="M 36.2473 92.3923 A 0.200012 0.200012 0 0 0 36.4473 92.5923"/><path d="M 56.0473 92.5923 L 36.4473 92.5923"/><path d="M 56.2473 92.7923 A 0.200012 0.200012 0 0 0 56.0473 92.5923"/><path d="M 56.2473 98.1923 L 56.2473 92.7923"/><path d="M 56.0473 98.3923 A 0.200012 0.200012 0 0 0 56.2473 98.1923"/><path d="M 36.4473 98.3923 L 56.0473 98.3923"/><path d="M 36.4473 98.3923 A 0.200012 0.200012 0 0 0 36.2473 98.5923"/><path d="M 36.2473 232.547 L 36.2473 98.5923"/><path d="M 36.2473 232.547 A 0.200012 0.200012 0 0 0 36.4473 232.747"/><path d="M 36.4473 232.747 L 56.0473 232.747"/><path d="M 56.2473 232.947 A 0.200012 0.200012 0 0 0 56.0473 232.747"/><path d="M 56.2473 238.347 L 56.2473 232.947"/><path d="M 56.0473 238.547 A 0.200012 0.200012 0 0 0 56.2473 238.347"/><path d="M 36.2473 353.765 L 36.2473 238.747"/><path d="M 56.0473 238.547 L 36.4473 238.547"/><path d="M 36.4473 238.547 A 0.200012 0.200012 0 0 0 36.2473 238.747"/><path d="M 193.519 83.0804 L 452.934 182.853"/><path d="M 193.519 83.0804 A 0.200012 0.200012 0 0 0 193.247 83.2671"/><path d="M 193.247 110.853 L 193.247 83.2671"/><path d="M 193.047 111.053 A 0.200012 0.200012 0 0 0 193.247 110.853"/><path d="M 188.447 111.053 L 193.047 111.053"/><path d="M 188.247 110.853 A 0.200012 0.200012 0 0 0 188.447 111.053"/><path d="M 49.8371 27.819 L 188.119 81.0035"/><path d="M 188.247 81.1902 L 188.247 110.853"/><path d="M 188.247 81.1902 A 0.200012 0.200012 0 0 0 188.119 81.0035"/><path d="M 151.047 192.322 A 0.200012 0.200012 0 0 0 151.247 192.122"/><path d="M 151.247 187.522 L 151.247 192.122"/><path d="M 151.247 187.522 A 0.200012 0.200012 0 0 0 151.047 187.322"/><path d="M 151.047 187.322 L 126.447 187.322"/><path d="M 126.447 187.322 A 0.200012 0.200012 0 0 0 126.247 187.522"/><path d="M 126.447 192.322 L 151.047 192.322"/><path d="M 126.247 192.122 L 126.247 187.522"/><path d="M 126.247 192.122 A 0.200012 0.200012 0 0 0 126.447 192.322"/><circle cx="50.7785" cy="172.349" r="4.01172"/></g><g stroke="rgb(0, 0, 0)" stroke-width="0.13" stroke-linecap="butt" stroke-linejoin="miter" fill="none"><path d="M 243.205 398.015 L 243.658 398.015 L 243.658 397.148 L 244.158 397.148 L 244.158 396.744 L 243.658 396.744 L 243.658 394.591 L 243.199 394.591 L 241.666 396.704 L 241.666 397.148 L 243.205 397.148 L 243.205 398.015 L 243.205 398.015 z M 242.09 396.744 L 243.205 395.176 L 243.205 396.744 L 242.09 396.744 L 242.09 396.744 z M 245.433 398.015 L 247.838 398.015 L 247.838 397.582 L 245.937 397.582 L 246.043 397.345 L 246.224 397.148 L 246.784 396.79 L 247.082 396.639 L 247.415 396.422 L 247.652 396.17 L 247.788 395.872 L 247.838 395.534 L 247.753 395.11 L 247.516 394.778 L 247.152 394.566 L 246.683 394.49 L 246.199 394.576 L 245.831 394.813 L 245.594 395.191 L 245.513 395.69 L 245.513 395.761 L 245.972 395.761 L 245.972 395.721 L 246.018 395.378 L 246.154 395.126 L 246.371 394.964 L 246.658 394.909 L 246.951 394.959 L 247.168 395.085 L 247.309 395.282 L 247.359 395.529 L 247.324 395.761 L 247.228 395.958 L 247.067 396.129 L 246.845 396.28 L 246.547 396.442 L 246.053 396.755 L 245.705 397.087 L 245.498 397.491 L 245.433 398 L 245.433 398.015 L 245.433 398.015 z M 249.774 396.129 L 249.517 396.27 L 249.34 396.467 L 249.229 396.714 L 249.194 397.012 L 249.275 397.461 L 249.507 397.809 L 249.885 398.03 L 250.399 398.116 L 250.909 398.03 L 251.287 397.809 L 251.519 397.461 L 251.605 397.012 L 251.564 396.714 L 251.458 396.467 L 251.277 396.27 L 251.025 396.129 L 251.226 396.008 L 251.368 395.842 L 251.453 395.64 L 251.484 395.393 L 251.403 395.035 L 251.191 394.747 L 250.848 394.561 L 250.399 394.49 L 249.945 394.561 L 249.602 394.747 L 249.386 395.035 L 249.31 395.393 L 249.335 395.64 L 249.421 395.842 L 249.774 396.129 L 249.774 396.129 z M 249.678 397.002 L 249.723 396.734 L 249.87 396.533 L 250.097 396.402 L 250.399 396.356 L 250.697 396.402 L 250.924 396.533 L 251.07 396.734 L 251.12 397.002 L 251.07 397.289 L 250.924 397.506 L 250.697 397.647 L 250.399 397.693 L 250.097 397.647 L 249.87 397.506 L 249.723 397.289 L 249.678 397.002 L 249.678 397.002 z M 249.789 395.433 L 249.829 395.211 L 249.95 395.04 L 250.142 394.934 L 250.399 394.894 L 250.651 394.934 L 250.843 395.04 L 250.964 395.211 L 251.009 395.433 L 250.964 395.66 L 250.843 395.837 L 250.651 395.953 L 250.399 395.988 L 250.142 395.948 L 249.95 395.837 L 249.829 395.66 L 249.789 395.433 L 249.789 395.433 z M 253.787 398.015 L 254.483 398.015 L 254.483 397.264 L 253.787 397.264 L 253.787 398.015 L 253.787 398.015 z M 256.6 396.916 L 256.6 396.951 L 256.681 397.435 L 256.918 397.798 L 257.291 398.03 L 257.786 398.116 L 258.31 398.03 L 258.703 397.809 L 258.956 397.456 L 259.046 397.002 L 259.006 396.704 L 258.895 396.462 L 258.714 396.275 L 258.471 396.139 L 258.799 395.867 L 258.915 395.433 L 258.84 395.04 L 258.623 394.742 L 258.27 394.556 L 257.786 394.49 L 257.332 394.571 L 256.984 394.793 L 256.757 395.146 L 256.681 395.615 L 256.681 395.65 L 257.13 395.65 L 257.17 395.327 L 257.301 395.095 L 257.513 394.954 L 257.811 394.904 L 258.073 394.944 L 258.265 395.05 L 258.381 395.221 L 258.426 395.453 L 258.381 395.701 L 258.26 395.867 L 258.048 395.968 L 257.76 395.998 L 257.564 395.993 L 257.564 396.391 L 257.811 396.381 L 258.129 396.427 L 258.366 396.548 L 258.507 396.744 L 258.557 397.002 L 258.502 397.294 L 258.355 397.511 L 258.123 397.647 L 257.816 397.693 L 257.498 397.642 L 257.266 397.491 L 257.12 397.249 L 257.064 396.916 L 256.6 396.916 L 256.6 396.916 z" stroke="none" fill-rule="evenodd" fill="rgb(0, 0, 0)"/><path d="M 462.619 400.533 L 464.551 400.015 L 462.619 399.498"/><path d="M 38.1792 399.498 L 36.2473 400.015 L 38.1792 400.533"/><path d="M 36.2473 400.015 L 464.551 400.015"/></g></svg>