<?xml version="1.0" encoding="utf-8" ?><!DOCTYPE svg PUBLIC "-//W3C//DTD SVG 1.1//EN" "http://www.w3.org/Graphics/SVG/1.1/DTD/svg11.dtd" 
[ <!ATTLIST svg 
  xmlns:dsy CDATA #FIXED "http://www.3ds.com/print"  
    dsy:text-version CDATA #IMPLIED > 

  <!ATTLIST text 
  xmlns:dsy CDATA #FIXED "http://www.3ds.com/print" 
    dsy:text-version CDATA #IMPLIED > 
]><svg xmlns="http://www.w3.org/2000/svg" xmlns:dsy="http://www.3ds.com/print" dsy:text-version="18000" width="841" height="594" viewBox="0 0 841 594" version="1.1"><g stroke="rgb(0, 0, 0)" stroke-width="0.13" stroke-linecap="butt" stroke-linejoin="miter" fill="none"><path d="M 9.77253 6.84857 L 9.77253 10.0081"/><path d="M 790.299 5.8316 L 790.299 10.0081"/><path d="M 7.77253 4.84961 L 5.12622 4.85095"/><path d="M 8.07263 584.319 L 5.42632 584.32"/></g><g stroke="rgb(0, 0, 0)" stroke-width="0.35" stroke-linecap="butt" stroke-linejoin="miter" fill="none"><path d="M 327.13 36.1382 A 15 15 0 0 0 314.819 11.8774"/><circle cx="24.8803" cy="396.378" r="3.19997"/><circle cx="24.8803" cy="96.3484" r="3.19997"/><circle cx="315.337" cy="26.8684" r="3.19997"/><circle cx="24.8803" cy="46.3484" r="3.19997"/><circle cx="250.431" cy="48.5637" r="6"/><circle cx="173.697" cy="108.814" r="3.19997"/><path d="M 139.88 165.769 L 136.88 165.769"/><path d="M 136.88 165.769 L 136.88 175.769"/><path d="M 136.88 175.769 L 139.88 175.769"/><path d="M 139.88 175.769 L 139.88 165.769"/><path d="M 12.8803 424.355 A 4 4 0 0 0 20.025 426.827"/><path d="M 314.819 11.8773 L 16.7421 22.1812"/><path d="M 16.7421 22.1811 A 4 4 0 0 0 12.8803 26.1787"/><path d="M 139.38 131.348 A 0.5 0.5 0 0 0 139.88 130.848"/><path d="M 139.551 142.69 A 0.5 0.5 0 0 0 139.88 142.22"/><path d="M 123.481 148.539 L 139.551 142.69"/><path d="M 123.481 148.539 A 0.5 0.5 0 0 0 123.481 149.479"/><path d="M 139.209 160.524 A 0.5 0.5 0 0 0 139.88 160.054"/><path d="M 139.551 155.328 L 123.481 149.479"/><path d="M 139.88 160.054 L 139.88 155.798"/><path d="M 139.88 155.798 A 0.5 0.5 0 0 0 139.551 155.328"/><path d="M 139.88 142.22 L 139.88 137.963"/><path d="M 139.88 137.963 A 0.5 0.5 0 0 0 139.209 137.493"/><path d="M 139.88 130.848 L 139.88 126.848"/><path d="M 139.88 126.848 A 0.5 0.5 0 0 0 139.38 126.348"/><path d="M 139.209 137.493 L 115.209 146.229"/><path d="M 115.209 146.229 A 0.5 0.5 0 0 0 114.88 146.698"/><path d="M 139.38 126.348 L 115.38 126.348"/><path d="M 115.38 126.348 A 0.5 0.5 0 0 0 114.88 126.848"/><path d="M 115.209 151.789 L 139.209 160.524"/><path d="M 114.88 146.698 L 114.88 151.319"/><path d="M 114.88 151.319 A 0.5 0.5 0 0 0 115.209 151.789"/><path d="M 115.38 131.348 L 139.38 131.348"/><path d="M 114.88 126.848 L 114.88 130.848"/><path d="M 114.88 130.848 A 0.5 0.5 0 0 0 115.38 131.348"/><path d="M 118.773 301.203 L 327.13 36.1382"/><path d="M 117.88 300.894 A 0.5 0.5 0 0 0 118.773 301.203"/><path d="M 20.025 426.827 L 112.773 308.836"/><path d="M 112.773 308.836 A 0.5 0.5 0 0 0 112.88 308.527"/><path d="M 112.88 308.527 L 112.88 284.2"/><path d="M 113.38 283.7 A 0.5 0.5 0 0 0 112.88 284.2"/><path d="M 117.88 284.2 L 117.88 300.894"/><path d="M 113.38 283.7 L 117.38 283.7"/><path d="M 117.88 284.2 A 0.5 0.5 0 0 0 117.38 283.7"/><path d="M 12.8803 330.178 A 0.300003 0.300003 0 0 0 13.1803 330.478"/><path d="M 13.1803 330.478 L 32.5803 330.478"/><path d="M 32.8803 330.778 A 0.300003 0.300003 0 0 0 32.5803 330.478"/><path d="M 32.8803 330.778 L 32.8803 336.078"/><path d="M 32.5803 336.378 A 0.300003 0.300003 0 0 0 32.8803 336.078"/><path d="M 12.8803 336.678 L 12.8803 424.355"/><path d="M 32.5803 336.378 L 13.1803 336.378"/><path d="M 13.1803 336.378 A 0.300003 0.300003 0 0 0 12.8803 336.678"/><path d="M 31.1037 401.45 A 0.300003 0.300003 0 0 0 31.0256 401.033"/><path d="M 30.6955 400.807 L 31.0256 401.033"/><path d="M 30.6955 400.807 A 0.300003 0.300003 0 0 0 30.2785 400.885"/><path d="M 31.1037 401.45 L 16.875 422.242"/><path d="M 16.458 422.321 A 0.300003 0.300003 0 0 0 16.875 422.242"/><path d="M 16.0497 421.678 L 30.2785 400.885"/><path d="M 16.458 422.321 L 16.1279 422.095"/><path d="M 16.0497 421.678 A 0.300003 0.300003 0 0 0 16.1279 422.095"/><path d="M 15.5808 394.757 A 0.300003 0.300003 0 0 0 15.6034 395.18"/><path d="M 21.8651 387.766 L 15.5808 394.757"/><path d="M 22.2888 387.744 A 0.300003 0.300003 0 0 0 21.8651 387.766"/><path d="M 22.5862 388.011 L 22.2888 387.744"/><path d="M 22.6088 388.435 A 0.300003 0.300003 0 0 0 22.5862 388.011"/><path d="M 15.6034 395.18 L 15.9009 395.448"/><path d="M 16.3245 395.425 L 22.6088 388.435"/><path d="M 15.9009 395.448 A 0.300003 0.300003 0 0 0 16.3245 395.425"/><path d="M 32.5803 172.248 A 0.300003 0.300003 0 0 0 32.8803 171.948"/><path d="M 12.8803 172.548 L 12.8803 330.178"/><path d="M 13.1803 172.248 L 32.5803 172.248"/><path d="M 13.1803 172.248 A 0.300003 0.300003 0 0 0 12.8803 172.548"/><path d="M 12.8803 26.1787 L 12.8803 166.048"/><path d="M 12.8803 166.048 A 0.300003 0.300003 0 0 0 13.1803 166.348"/><path d="M 32.8803 166.648 L 32.8803 171.948"/><path d="M 32.5803 166.348 L 13.1803 166.348"/><path d="M 32.8803 166.648 A 0.300003 0.300003 0 0 0 32.5803 166.348"/><path d="M 25.429 107.198 A 0.300003 0.300003 0 0 0 25.221 106.828"/><path d="M 33.4275 89.8932 A 0.300003 0.300003 0 0 0 33.467 89.4708"/><path d="M 25.429 107.198 L 25.3211 107.583"/><path d="M 24.9513 107.791 A 0.300003 0.300003 0 0 0 25.3211 107.583"/><path d="M 33.0084 52.3305 A 0.300003 0.300003 0 0 0 32.8886 51.9235"/><path d="M 21.3252 37.7511 A 0.300003 0.300003 0 0 0 21.3832 37.3309"/><path d="M 21.3832 37.3308 L 21.1417 37.012"/><path d="M 21.1417 37.012 A 0.300003 0.300003 0 0 0 20.7214 36.954"/><path d="M 32.5374 51.7319 L 32.8886 51.9235"/><path d="M 32.5374 51.732 A 0.300003 0.300003 0 0 0 32.1304 51.8517"/><path d="M 33.467 89.4708 L 22.3631 76.0745"/><path d="M 22.3631 76.0744 A 0.300003 0.300003 0 0 0 21.9406 76.0349"/><path d="M 16.1692 104.294 L 25.221 106.828"/><path d="M 16.1692 104.294 A 0.300003 0.300003 0 0 0 15.7994 104.502"/><path d="M 22.8427 68.8839 L 32.1305 51.8517"/><path d="M 22.8427 68.884 A 0.300003 0.300003 0 0 0 22.9624 69.291"/><path d="M 20.7214 36.9539 L 15.6194 40.8177"/><path d="M 15.6194 40.8179 A 0.300003 0.300003 0 0 0 15.5614 41.2382"/><path d="M 24.9513 107.791 L 15.8995 105.257"/><path d="M 15.6915 104.887 L 15.7994 104.502"/><path d="M 15.6915 104.887 A 0.300003 0.300003 0 0 0 15.8995 105.257"/><path d="M 16.2232 41.615 L 21.3252 37.7511"/><path d="M 15.5614 41.238 L 15.8029 41.557"/><path d="M 15.8029 41.557 A 0.300003 0.300003 0 0 0 16.2232 41.615"/><path d="M 33.0084 52.3304 L 23.7206 69.3627"/><path d="M 23.3136 69.4824 L 22.9624 69.291"/><path d="M 23.3136 69.4825 A 0.300003 0.300003 0 0 0 23.7206 69.3627"/><path d="M 21.9407 76.0349 L 21.6327 76.2902"/><path d="M 21.6327 76.2902 A 0.300003 0.300003 0 0 0 21.5932 76.7126"/><path d="M 32.6971 90.1089 A 0.300003 0.300003 0 0 0 33.1196 90.1485"/><path d="M 33.1196 90.1484 L 33.4275 89.8932"/><path d="M 21.5932 76.7126 L 32.6971 90.109"/><path d="M 26.4366 428.879 A 15 15 0 0 0 38.7476 453.14"/><circle cx="328.686" cy="68.6392" r="3.20001"/><circle cx="328.686" cy="368.669" r="3.20001"/><circle cx="38.2294" cy="438.149" r="3.20001"/><circle cx="328.686" cy="418.669" r="3.20001"/><circle cx="103.135" cy="416.454" r="6"/><circle cx="179.87" cy="356.203" r="3.20001"/><path d="M 213.686 299.249 L 216.686 299.249"/><path d="M 216.686 299.249 L 216.686 289.249"/><path d="M 216.686 289.249 L 213.686 289.249"/><path d="M 213.686 289.249 L 213.686 299.249"/><path d="M 238.686 289.249 L 238.686 299.249"/><path d="M 238.686 289.249 L 235.686 289.249"/><path d="M 235.686 299.249 L 235.686 289.249"/><path d="M 235.686 299.249 L 238.686 299.249"/><path d="M 340.686 40.6621 A 4 4 0 0 0 333.541 38.1901"/><path d="M 38.7476 453.14 L 336.824 442.836"/><path d="M 336.824 442.836 A 4 4 0 0 0 340.686 438.839"/><path d="M 214.186 333.669 A 0.5 0.5 0 0 0 213.686 334.169"/><path d="M 214.015 322.328 A 0.5 0.5 0 0 0 213.686 322.798"/><path d="M 230.086 316.479 L 214.015 322.328"/><path d="M 230.086 316.479 A 0.5 0.5 0 0 0 230.086 315.539"/><path d="M 214.357 304.493 A 0.5 0.5 0 0 0 213.686 304.963"/><path d="M 214.015 309.69 L 230.086 315.539"/><path d="M 213.686 304.963 L 213.686 309.22"/><path d="M 213.686 309.22 A 0.5 0.5 0 0 0 214.015 309.69"/><path d="M 213.686 322.798 L 213.686 327.054"/><path d="M 213.686 327.054 A 0.5 0.5 0 0 0 214.357 327.524"/><path d="M 213.686 334.169 L 213.686 338.169"/><path d="M 213.686 338.169 A 0.5 0.5 0 0 0 214.186 338.669"/><path d="M 214.357 327.524 L 238.357 318.789"/><path d="M 238.357 318.789 A 0.5 0.5 0 0 0 238.686 318.319"/><path d="M 214.186 338.669 L 238.186 338.669"/><path d="M 238.186 338.669 A 0.5 0.5 0 0 0 238.686 338.169"/><path d="M 238.357 313.229 L 214.357 304.493"/><path d="M 238.686 318.319 L 238.686 313.698"/><path d="M 238.686 313.698 A 0.5 0.5 0 0 0 238.357 313.229"/><path d="M 238.186 333.669 L 214.186 333.669"/><path d="M 238.686 338.169 L 238.686 334.169"/><path d="M 238.686 334.169 A 0.5 0.5 0 0 0 238.186 333.669"/><path d="M 234.793 163.815 L 26.4366 428.879"/><path d="M 235.686 164.124 A 0.5 0.5 0 0 0 234.793 163.815"/><path d="M 333.541 38.1902 L 240.793 156.182"/><path d="M 240.793 156.182 A 0.5 0.5 0 0 0 240.686 156.491"/><path d="M 240.686 156.491 L 240.686 180.818"/><path d="M 240.186 181.318 A 0.5 0.5 0 0 0 240.686 180.818"/><path d="M 235.686 180.818 L 235.686 164.124"/><path d="M 240.186 181.318 L 236.186 181.318"/><path d="M 235.686 180.818 A 0.5 0.5 0 0 0 236.186 181.318"/><path d="M 340.686 134.839 A 0.299988 0.299988 0 0 0 340.386 134.539"/><path d="M 340.386 134.539 L 320.986 134.539"/><path d="M 320.686 134.239 A 0.299988 0.299988 0 0 0 320.986 134.539"/><path d="M 320.686 134.239 L 320.686 128.939"/><path d="M 320.986 128.639 A 0.299988 0.299988 0 0 0 320.686 128.939"/><path d="M 340.686 128.339 L 340.686 40.6621"/><path d="M 320.986 128.639 L 340.386 128.639"/><path d="M 340.386 128.639 A 0.299988 0.299988 0 0 0 340.686 128.339"/><path d="M 322.463 63.5679 A 0.299988 0.299988 0 0 0 322.541 63.9849"/><path d="M 322.871 64.2108 L 322.541 63.9849"/><path d="M 322.871 64.2107 A 0.299988 0.299988 0 0 0 323.288 64.1326"/><path d="M 322.463 63.5679 L 336.691 42.7751"/><path d="M 337.108 42.697 A 0.299988 0.299988 0 0 0 336.691 42.7751"/><path d="M 337.517 43.3398 L 323.288 64.1326"/><path d="M 337.108 42.697 L 337.438 42.9229"/><path d="M 337.517 43.34 A 0.299988 0.299988 0 0 0 337.438 42.923"/><path d="M 337.985 70.261 A 0.299988 0.299988 0 0 0 337.963 69.8373"/><path d="M 331.701 77.2515 L 337.985 70.261"/><path d="M 331.278 77.274 A 0.299988 0.299988 0 0 0 331.701 77.2515"/><path d="M 330.98 77.0066 L 331.278 77.274"/><path d="M 330.958 76.583 A 0.299988 0.299988 0 0 0 330.98 77.0067"/><path d="M 337.963 69.8373 L 337.665 69.5698"/><path d="M 337.242 69.5924 L 330.958 76.583"/><path d="M 337.665 69.5699 A 0.299988 0.299988 0 0 0 337.242 69.5924"/><path d="M 320.986 292.769 A 0.299988 0.299988 0 0 0 320.686 293.069"/><path d="M 340.686 292.469 L 340.686 134.839"/><path d="M 340.386 292.769 L 320.986 292.769"/><path d="M 340.386 292.769 A 0.299988 0.299988 0 0 0 340.686 292.469"/><path d="M 340.686 438.839 L 340.686 298.969"/><path d="M 340.686 298.969 A 0.299988 0.299988 0 0 0 340.386 298.669"/><path d="M 320.686 298.369 L 320.686 293.069"/><path d="M 320.986 298.669 L 340.386 298.669"/><path d="M 320.686 298.369 A 0.299988 0.299988 0 0 0 320.986 298.669"/><path d="M 327.833 358.327 A 0.299988 0.299988 0 0 0 328.188 358.56"/><path d="M 320.581 375.678 A 0.299988 0.299988 0 0 0 320.528 376.099"/><path d="M 327.833 358.327 L 327.752 357.935"/><path d="M 327.985 357.581 A 0.299988 0.299988 0 0 0 327.752 357.935"/><path d="M 320.558 412.687 A 0.299988 0.299988 0 0 0 320.678 413.094"/><path d="M 332.241 427.266 A 0.299988 0.299988 0 0 0 332.183 427.687"/><path d="M 332.183 427.687 L 332.425 428.006"/><path d="M 332.425 428.006 A 0.299988 0.299988 0 0 0 332.845 428.064"/><path d="M 321.029 413.286 L 320.678 413.094"/><path d="M 321.029 413.286 A 0.299988 0.299988 0 0 0 321.436 413.166"/><path d="M 320.528 376.099 L 331.19 389.849"/><path d="M 331.191 389.849 A 0.299988 0.299988 0 0 0 331.611 389.902"/><path d="M 337.392 356.652 L 328.188 358.56"/><path d="M 337.392 356.652 A 0.299988 0.299988 0 0 0 337.625 356.298"/><path d="M 330.724 396.134 L 321.436 413.166"/><path d="M 330.724 396.134 A 0.299988 0.299988 0 0 0 330.604 395.727"/><path d="M 332.845 428.064 L 337.947 424.2"/><path d="M 337.947 424.2 A 0.299988 0.299988 0 0 0 338.005 423.779"/><path d="M 327.985 357.581 L 337.189 355.673"/><path d="M 337.544 355.906 L 337.625 356.298"/><path d="M 337.544 355.906 A 0.299988 0.299988 0 0 0 337.189 355.673"/><path d="M 337.343 423.403 L 332.241 427.266"/><path d="M 338.005 423.78 L 337.763 423.461"/><path d="M 337.763 423.461 A 0.299988 0.299988 0 0 0 337.343 423.403"/><path d="M 320.558 412.687 L 329.846 395.655"/><path d="M 330.253 395.535 L 330.604 395.727"/><path d="M 330.253 395.535 A 0.299988 0.299988 0 0 0 329.846 395.655"/><path d="M 331.611 389.902 L 331.928 389.657"/><path d="M 331.928 389.657 A 0.299988 0.299988 0 0 0 331.981 389.236"/><path d="M 331.981 389.236 L 321.318 375.486"/><path d="M 320.897 375.433 L 320.581 375.678"/><path d="M 321.318 375.486 A 0.299988 0.299988 0 0 0 320.897 375.433"/><path d="M 346.427 315.609 A 15 15 0 0 0 370.687 327.92"/><circle cx="730.928" cy="25.6704" r="3.20007"/><circle cx="430.898" cy="25.6704" r="3.20007"/><circle cx="361.418" cy="316.127" r="3.20007"/><circle cx="380.898" cy="25.6704" r="3.20007"/><circle cx="383.113" cy="251.221" r="6"/><circle cx="443.364" cy="174.487" r="3.20007"/><path d="M 500.318 140.67 L 500.318 137.67"/><path d="M 500.318 137.67 L 510.318 137.67"/><path d="M 510.318 137.67 L 510.318 140.67"/><path d="M 510.318 140.67 L 500.318 140.67"/><path d="M 761.377 20.8152 A 4 4 0 0 0 758.905 13.6704"/><path d="M 346.427 315.609 L 356.73 17.5322"/><path d="M 360.728 13.6704 A 4 4 0 0 0 356.73 17.5322"/><path d="M 465.398 140.67 A 0.5 0.5 0 0 0 465.898 140.17"/><path d="M 476.769 140.67 A 0.5 0.5 0 0 0 477.239 140.341"/><path d="M 483.088 124.271 L 477.239 140.341"/><path d="M 484.028 124.271 A 0.5 0.5 0 0 0 483.088 124.271"/><path d="M 494.604 140.67 A 0.5 0.5 0 0 0 495.073 139.999"/><path d="M 489.877 140.341 L 484.028 124.271"/><path d="M 494.604 140.67 L 490.347 140.67"/><path d="M 489.877 140.341 A 0.5 0.5 0 0 0 490.347 140.67"/><path d="M 476.769 140.67 L 472.512 140.67"/><path d="M 472.043 139.999 A 0.5 0.5 0 0 0 472.512 140.67"/><path d="M 465.398 140.67 L 461.398 140.67"/><path d="M 460.898 140.17 A 0.5 0.5 0 0 0 461.398 140.67"/><path d="M 472.043 139.999 L 480.778 115.999"/><path d="M 481.248 115.67 A 0.5 0.5 0 0 0 480.778 115.999"/><path d="M 460.898 140.17 L 460.898 116.17"/><path d="M 461.398 115.67 A 0.5 0.5 0 0 0 460.898 116.17"/><path d="M 486.338 115.999 L 495.074 139.999"/><path d="M 481.248 115.67 L 485.868 115.67"/><path d="M 486.338 115.999 A 0.5 0.5 0 0 0 485.868 115.67"/><path d="M 465.898 116.17 L 465.898 140.17"/><path d="M 461.398 115.67 L 465.398 115.67"/><path d="M 465.898 116.17 A 0.5 0.5 0 0 0 465.398 115.67"/><path d="M 635.752 119.563 L 370.687 327.92"/><path d="M 635.752 119.563 A 0.5 0.5 0 0 0 635.443 118.67"/><path d="M 761.377 20.8151 L 643.385 113.563"/><path d="M 643.076 113.67 A 0.5 0.5 0 0 0 643.385 113.563"/><path d="M 643.076 113.67 L 618.749 113.67"/><path d="M 618.749 113.67 A 0.5 0.5 0 0 0 618.249 114.17"/><path d="M 618.749 118.67 L 635.443 118.67"/><path d="M 618.249 114.17 L 618.249 118.17"/><path d="M 618.249 118.17 A 0.5 0.5 0 0 0 618.749 118.67"/><path d="M 665.028 13.9704 A 0.300049 0.300049 0 0 0 664.728 13.6703"/><path d="M 665.028 13.9704 L 665.028 33.3704"/><path d="M 665.028 33.3704 A 0.300049 0.300049 0 0 0 665.328 33.6704"/><path d="M 665.328 33.6704 L 670.628 33.6704"/><path d="M 670.628 33.6704 A 0.300049 0.300049 0 0 0 670.928 33.3704"/><path d="M 671.228 13.6704 L 758.905 13.6704"/><path d="M 670.928 33.3704 L 670.928 13.9704"/><path d="M 671.228 13.6703 A 0.300049 0.300049 0 0 0 670.928 13.9704"/><path d="M 735.582 31.8157 A 0.300049 0.300049 0 0 0 735.999 31.8939"/><path d="M 735.356 31.4856 L 735.582 31.8157"/><path d="M 735.434 31.0685 A 0.300049 0.300049 0 0 0 735.356 31.4856"/><path d="M 735.999 31.8939 L 756.792 17.665"/><path d="M 756.792 17.6651 A 0.300049 0.300049 0 0 0 756.87 17.248"/><path d="M 756.227 16.8398 L 735.434 31.0686"/><path d="M 756.87 17.248 L 756.644 16.918"/><path d="M 756.644 16.918 A 0.300049 0.300049 0 0 0 756.227 16.8398"/><path d="M 729.729 16.3934 A 0.300049 0.300049 0 0 0 729.306 16.3709"/><path d="M 722.315 22.6552 L 729.306 16.371"/><path d="M 722.315 22.6552 A 0.300049 0.300049 0 0 0 722.293 23.0789"/><path d="M 722.56 23.3763 L 722.293 23.0789"/><path d="M 722.56 23.3764 A 0.300049 0.300049 0 0 0 722.984 23.3989"/><path d="M 729.729 16.3935 L 729.997 16.691"/><path d="M 729.974 17.1146 L 722.984 23.3989"/><path d="M 729.974 17.1147 A 0.300049 0.300049 0 0 0 729.997 16.6909"/><path d="M 506.498 33.6704 A 0.300049 0.300049 0 0 0 506.798 33.3704"/><path d="M 507.098 13.6704 L 664.728 13.6704"/><path d="M 506.798 13.9704 L 506.798 33.3704"/><path d="M 507.098 13.6703 A 0.300049 0.300049 0 0 0 506.798 13.9704"/><path d="M 360.728 13.6704 L 500.598 13.6704"/><path d="M 500.898 13.9704 A 0.300049 0.300049 0 0 0 500.598 13.6703"/><path d="M 501.198 33.6704 L 506.498 33.6704"/><path d="M 500.898 33.3704 L 500.898 13.9704"/><path d="M 500.898 33.3704 A 0.300049 0.300049 0 0 0 501.198 33.6704"/><path d="M 441.378 26.0111 A 0.300049 0.300049 0 0 0 441.747 26.2191"/><path d="M 424.02 34.2572 A 0.300049 0.300049 0 0 0 424.442 34.2177"/><path d="M 441.747 26.2191 L 442.133 26.1112"/><path d="M 442.133 26.1113 A 0.300049 0.300049 0 0 0 442.341 25.7414"/><path d="M 386.473 33.6788 A 0.300049 0.300049 0 0 0 386.88 33.7986"/><path d="M 371.88 22.1733 A 0.300049 0.300049 0 0 0 372.3 22.1153"/><path d="M 371.88 22.1733 L 371.561 21.9318"/><path d="M 371.503 21.5115 A 0.300049 0.300049 0 0 0 371.561 21.9318"/><path d="M 386.281 33.3275 L 386.473 33.6787"/><path d="M 386.401 32.9205 A 0.300049 0.300049 0 0 0 386.281 33.3276"/><path d="M 424.02 34.2571 L 410.624 23.1532"/><path d="M 410.584 22.7308 A 0.300049 0.300049 0 0 0 410.624 23.1533"/><path d="M 438.843 16.9593 L 441.378 26.0111"/><path d="M 439.051 16.5894 A 0.300049 0.300049 0 0 0 438.843 16.9593"/><path d="M 403.433 23.6328 L 386.401 32.9205"/><path d="M 403.84 23.7525 A 0.300049 0.300049 0 0 0 403.433 23.6328"/><path d="M 371.503 21.5115 L 375.367 16.4095"/><path d="M 375.787 16.3515 A 0.300049 0.300049 0 0 0 375.367 16.4095"/><path d="M 442.341 25.7415 L 439.806 16.6896"/><path d="M 439.436 16.4816 L 439.051 16.5895"/><path d="M 439.806 16.6896 A 0.300049 0.300049 0 0 0 439.436 16.4816"/><path d="M 376.164 17.0133 L 372.3 22.1152"/><path d="M 375.787 16.3515 L 376.106 16.593"/><path d="M 376.164 17.0133 A 0.300049 0.300049 0 0 0 376.106 16.593"/><path d="M 386.88 33.7985 L 403.912 24.5107"/><path d="M 404.032 24.1038 L 403.84 23.7526"/><path d="M 403.912 24.5107 A 0.300049 0.300049 0 0 0 404.032 24.1036"/><path d="M 410.584 22.7308 L 410.839 22.4228"/><path d="M 411.262 22.3832 A 0.300049 0.300049 0 0 0 410.839 22.4228"/><path d="M 411.262 22.3833 L 424.658 33.4872"/><path d="M 424.698 33.9097 L 424.442 34.2177"/><path d="M 424.698 33.9097 A 0.300049 0.300049 0 0 0 424.658 33.4872"/><circle cx="781.115" cy="390.333" r="3.2"/><circle cx="698.424" cy="101.954" r="3.2"/><circle cx="373.473" cy="354.402" r="3.2"/><circle cx="589.898" cy="292.343" r="3.2"/><circle cx="490.696" cy="320.789" r="6"/><path d="M 776.04 396.629 L 790.862 398.929"/><path d="M 790.862 398.929 L 790.709 399.917"/><path d="M 790.709 399.917 L 775.886 397.617"/><path d="M 775.886 397.617 L 776.04 396.629"/><path d="M 787.159 383.463 L 773.162 383.157"/><path d="M 773.162 383.157 L 773.184 382.157"/><path d="M 773.184 382.157 L 787.181 382.463"/><path d="M 787.181 382.463 L 787.159 383.463"/><path d="M 707.714 105.33 L 707.154 104.502"/><path d="M 695.287 113.731 L 707.714 105.33"/><path d="M 694.727 112.902 L 695.287 113.731"/><path d="M 707.154 104.502 L 694.727 112.902"/><path d="M 702.087 89.3337 L 688.633 101.291"/><path d="M 688.633 101.291 L 687.968 100.543"/><path d="M 687.968 100.543 L 701.423 88.5862"/><path d="M 701.423 88.5862 L 702.087 89.3337"/><path d="M 707.659 90.6266 A 10 10 0 0 0 691.912 85.486"/><path d="M 348.967 351.913 L 691.912 85.486"/><path d="M 348.967 351.913 A 10 10 0 0 0 354.224 369.771"/><path d="M 784.439 407.692 A 10 10 0 0 0 794.93 394.974"/><path d="M 779.703 341.874 L 794.93 394.974"/><path d="M 779.703 341.874 A 0.200002 0.200002 0 0 0 779.456 341.737"/><path d="M 760.615 347.139 L 779.456 341.737"/><path d="M 760.368 347.002 A 0.200002 0.200002 0 0 0 760.615 347.139"/><path d="M 758.852 341.715 L 760.368 347.002"/><path d="M 758.989 341.468 A 0.200002 0.200002 0 0 0 758.852 341.715"/><path d="M 777.83 336.065 L 758.989 341.468"/><path d="M 777.83 336.065 A 0.200002 0.200002 0 0 0 777.967 335.818"/><path d="M 741.099 207.245 L 777.967 335.818"/><path d="M 741.099 207.245 A 0.200002 0.200002 0 0 0 740.852 207.108"/><path d="M 740.852 207.108 L 722.011 212.51"/><path d="M 721.764 212.373 A 0.200002 0.200002 0 0 0 722.011 212.51"/><path d="M 720.248 207.086 L 721.764 212.373"/><path d="M 720.385 206.839 A 0.200002 0.200002 0 0 0 720.248 207.086"/><path d="M 707.659 90.6266 L 739.363 201.189"/><path d="M 720.385 206.839 L 739.226 201.436"/><path d="M 739.226 201.436 A 0.200002 0.200002 0 0 0 739.363 201.189"/><path d="M 631.091 394.175 L 354.224 369.771"/><path d="M 631.091 394.175 A 0.200002 0.200002 0 0 0 631.301 393.921"/><path d="M 623.697 367.404 L 631.301 393.921"/><path d="M 623.834 367.156 A 0.200002 0.200002 0 0 0 623.697 367.404"/><path d="M 628.256 365.888 L 623.834 367.156"/><path d="M 628.503 366.025 A 0.200002 0.200002 0 0 0 628.256 365.888"/><path d="M 784.439 407.691 L 636.854 394.683"/><path d="M 636.679 394.539 L 628.503 366.025"/><path d="M 636.679 394.539 A 0.200002 0.200002 0 0 0 636.854 394.683"/><path d="M 641.806 277.459 A 0.200002 0.200002 0 0 0 641.669 277.706"/><path d="M 642.937 282.128 L 641.669 277.706"/><path d="M 642.937 282.128 A 0.200002 0.200002 0 0 0 643.184 282.265"/><path d="M 643.184 282.265 L 666.831 275.484"/><path d="M 666.831 275.484 A 0.200002 0.200002 0 0 0 666.969 275.237"/><path d="M 665.453 270.678 L 641.806 277.459"/><path d="M 665.701 270.815 L 666.969 275.237"/><path d="M 665.701 270.815 A 0.200002 0.200002 0 0 0 665.453 270.678"/><circle cx="790.299" cy="3.8316" r="2.53375"/><circle cx="9.77253" cy="4.84857" r="1.96214"/><circle cx="10.0726" cy="584.318" r="1.87917"/><circle cx="325.26" cy="206.914" r="4.03644"/><circle cx="586.302" cy="27.8288" r="4.05029"/><circle cx="744.022" cy="273.191" r="3.89443"/></g><g stroke="rgb(0, 0, 0)" stroke-width="0.1" stroke-linecap="butt" stroke-linejoin="miter" fill="none"><path d="M 9.58503 5.03607 L 9.96003 5.03607 L 9.96003 4.66107 L 9.58503 4.66107 L 9.58503 5.03607 z" stroke="none" fill-rule="evenodd" fill="rgb(0, 0, 0)"/></g><g stroke="rgb(0, 0, 0)" stroke-width="0.1" stroke-linecap="butt" stroke-linejoin="miter" fill="none"><path d="M 9.88513 584.505 L 10.2601 584.505 L 10.2601 584.13 L 9.88513 584.13 L 9.88513 584.505 z" stroke="none" fill-rule="evenodd" fill="rgb(0, 0, 0)"/></g><g stroke="rgb(0, 0, 0)" stroke-width="0.1" stroke-linecap="butt" stroke-linejoin="miter" fill="none"><path d="M 790.112 4.0191 L 790.487 4.0191 L 790.487 3.6441 L 790.112 3.6441 L 790.112 4.0191 z" stroke="none" fill-rule="evenodd" fill="rgb(0, 0, 0)"/></g><g stroke="rgb(0, 0, 0)" stroke-width="0.13" stroke-linecap="butt" stroke-linejoin="miter" fill="none"><path d="M 389.995 6.00812 L 390.504 6.00812 L 390.671 5.17596 L 390.963 4.39935 L 391.377 3.67816 L 391.916 3.00238 L 391.916 2.58374 L 389.516 2.58374 L 389.516 3.04272 L 391.432 3.04272 L 390.877 3.72351 L 390.459 4.43463 L 390.166 5.1911 L 389.995 6.00812 L 389.995 6.00812 z M 393.807 4.12195 L 393.549 4.26318 L 393.373 4.45984 L 393.262 4.70697 L 393.227 5.00452 L 393.307 5.45337 L 393.539 5.80133 L 393.917 6.02325 L 394.432 6.10901 L 394.941 6.02325 L 395.319 5.80133 L 395.551 5.45337 L 395.637 5.00452 L 395.597 4.70697 L 395.491 4.45984 L 395.309 4.26318 L 395.057 4.12195 L 395.259 4.00092 L 395.4 3.83447 L 395.486 3.63275 L 395.516 3.38562 L 395.435 3.02759 L 395.224 2.74011 L 394.881 2.55353 L 394.432 2.48291 L 393.978 2.55353 L 393.635 2.74011 L 393.418 3.02759 L 393.343 3.38562 L 393.368 3.63275 L 393.453 3.83447 L 393.807 4.12195 L 393.807 4.12195 z M 393.711 4.99445 L 393.756 4.72711 L 393.902 4.52539 L 394.129 4.39429 L 394.432 4.34888 L 394.729 4.39429 L 394.956 4.52539 L 395.103 4.72711 L 395.153 4.99445 L 395.103 5.28192 L 394.956 5.49878 L 394.729 5.63995 L 394.432 5.68536 L 394.129 5.63995 L 393.902 5.49878 L 393.756 5.28192 L 393.711 4.99445 L 393.711 4.99445 z M 393.822 3.42596 L 393.862 3.2041 L 393.983 3.03259 L 394.175 2.9267 L 394.432 2.88635 L 394.684 2.9267 L 394.876 3.03259 L 394.997 3.2041 L 395.042 3.42596 L 394.997 3.65295 L 394.876 3.82947 L 394.684 3.94543 L 394.432 3.98071 L 394.175 3.94037 L 393.983 3.82947 L 393.862 3.65295 L 393.822 3.42596 L 393.822 3.42596 z M 396.952 4.29846 L 397.028 5.09027 L 397.265 5.65509 L 397.643 5.99805 L 398.168 6.10901 L 398.687 5.99805 L 399.066 5.65509 L 399.298 5.09027 L 399.378 4.29846 L 399.298 3.51172 L 399.202 3.19904 L 399.066 2.94183 L 398.687 2.59888 L 398.168 2.48291 L 397.643 2.59888 L 397.265 2.9469 L 397.028 3.51172 L 396.952 4.29846 L 396.952 4.29846 z M 397.437 4.29846 L 397.477 3.68823 L 397.603 3.24945 L 397.83 2.99225 L 398.168 2.90149 L 398.501 2.99225 L 398.728 3.24945 L 398.854 3.68823 L 398.894 4.29846 L 398.854 4.91376 L 398.728 5.35248 L 398.501 5.60968 L 398.168 5.69543 L 397.83 5.60968 L 397.603 5.35248 L 397.477 4.91376 L 397.437 4.29846 L 397.437 4.29846 z M 401.556 6.00812 L 402.252 6.00812 L 402.252 5.25665 L 401.556 5.25665 L 401.556 6.00812 L 401.556 6.00812 z M 404.389 5.09528 L 404.5 5.50885 L 404.747 5.8316 L 405.11 6.03333 L 405.574 6.10901 L 406.084 6.01819 L 406.482 5.77106 L 406.734 5.37769 L 406.83 4.87341 L 406.744 4.40436 L 406.502 4.03619 L 406.124 3.79919 L 405.635 3.71344 L 405.257 3.77399 L 404.964 3.94037 L 405.105 2.99731 L 406.639 2.99731 L 406.639 2.58374 L 404.767 2.58374 L 404.49 4.4397 L 404.894 4.4397 L 405.186 4.20264 L 405.559 4.11688 L 405.882 4.17236 L 406.129 4.33374 L 406.285 4.58087 L 406.341 4.89862 L 406.285 5.21631 L 406.124 5.46344 L 405.877 5.61981 L 405.559 5.67529 L 405.292 5.63995 L 405.085 5.52399 L 404.934 5.34241 L 404.858 5.09528 L 404.389 5.09528 L 404.389 5.09528 z M 408.105 4.90869 L 408.105 4.94397 L 408.186 5.42816 L 408.423 5.79126 L 408.796 6.02325 L 409.29 6.10901 L 409.815 6.02325 L 410.208 5.80133 L 410.46 5.4483 L 410.551 4.99445 L 410.511 4.6969 L 410.4 4.45477 L 410.218 4.26819 L 409.976 4.13202 L 410.304 3.85968 L 410.42 3.42596 L 410.344 3.03259 L 410.127 2.73505 L 409.774 2.54846 L 409.29 2.48291 L 408.836 2.5636 L 408.488 2.78552 L 408.261 3.13855 L 408.186 3.60754 L 408.186 3.64282 L 408.635 3.64282 L 408.675 3.32007 L 408.806 3.08807 L 409.018 2.9469 L 409.315 2.89642 L 409.578 2.93677 L 409.769 3.04272 L 409.885 3.21417 L 409.931 3.44617 L 409.885 3.6933 L 409.764 3.85968 L 409.552 3.96057 L 409.265 3.99084 L 409.068 3.98578 L 409.068 4.38422 L 409.315 4.37408 L 409.633 4.41949 L 409.87 4.54053 L 410.011 4.73724 L 410.062 4.99445 L 410.006 5.28693 L 409.86 5.50378 L 409.628 5.63995 L 409.32 5.68536 L 409.003 5.63495 L 408.771 5.48364 L 408.625 5.24158 L 408.569 4.90869 L 408.105 4.90869 L 408.105 4.90869 z" stroke="none" fill-rule="evenodd" fill="rgb(0, 0, 0)"/><path d="M 11.7044 7.49048 L 9.77253 8.00812 L 11.7044 8.52576"/><path d="M 788.367 8.52576 L 790.299 8.00812 L 788.367 7.49048"/><path d="M 9.77253 8.00812 L 790.299 8.00812"/></g><g stroke="rgb(0, 0, 0)" stroke-width="0.13" stroke-linecap="butt" stroke-linejoin="miter" fill="none"><path d="M 4.36893 305.177 L 4.78242 305.066 L 5.10506 304.818 L 5.3066 304.455 L 5.38201 303.991 L 5.29097 303.482 L 5.04364 303.083 L 4.65014 302.831 L 4.14577 302.736 L 3.67679 302.822 L 3.30876 303.064 L 3.07193 303.443 L 2.98644 303.932 L 3.04716 304.31 L 3.21374 304.602 L 2.27058 304.462 L 2.26979 302.928 L 1.85624 302.929 L 1.85721 304.8 L 3.71326 305.076 L 3.71305 304.673 L 3.47587 304.38 L 3.38994 304.007 L 3.44525 303.684 L 3.60651 303.437 L 3.85354 303.281 L 4.17124 303.225 L 4.48899 303.28 L 4.73619 303.442 L 4.89266 303.689 L 4.9483 304.006 L 4.91314 304.274 L 4.79725 304.48 L 4.61577 304.632 L 4.36869 304.708 L 4.36893 305.177 L 4.36893 305.177 z M 5.27954 300.89 L 5.27928 300.381 L 4.44706 300.215 L 3.67025 299.923 L 2.94885 299.51 L 2.27278 298.971 L 1.85419 298.971 L 1.85544 301.371 L 2.31437 301.371 L 2.31338 299.455 L 2.9945 300.009 L 3.70581 300.427 L 4.46245 300.719 L 5.27954 300.89 L 5.27954 300.89 z M 4.41043 297.664 L 4.80881 297.588 L 5.11633 297.371 L 5.3078 297.028 L 5.37817 296.574 L 5.34271 296.277 L 5.25179 296.01 L 5.09534 295.783 L 4.87334 295.591 L 4.59588 295.44 L 4.25288 295.329 L 3.85948 295.264 L 3.40557 295.239 L 2.69452 295.325 L 2.1752 295.573 L 1.86272 295.966 L 1.75205 296.506 L 1.84308 297 L 2.08535 297.373 L 2.45868 297.615 L 2.92774 297.695 L 3.41185 297.614 L 3.77988 297.377 L 4.01169 297.024 L 4.0871 296.575 L 3.99103 296.101 L 3.69834 295.743 L 4.25818 295.824 L 4.65668 295.985 L 4.89384 296.232 L 4.96966 296.57 L 4.9345 296.832 L 4.82365 297.024 L 4.6472 297.15 L 4.41019 297.2 L 4.41043 297.664 L 4.41043 297.664 z M 2.92244 297.206 L 2.60974 297.156 L 2.36255 297.015 L 2.20609 296.793 L 2.15047 296.505 L 2.20579 296.208 L 2.36201 295.981 L 2.60401 295.84 L 2.91666 295.784 L 3.23442 295.839 L 3.47152 295.98 L 3.61789 296.212 L 3.66849 296.52 L 3.6182 296.797 L 3.47206 297.014 L 3.24014 297.156 L 2.92244 297.206 L 2.92244 297.206 z M 5.27549 293.065 L 5.27513 292.369 L 4.52368 292.37 L 4.52404 293.066 L 5.27549 293.065 L 5.27549 293.065 z M 5.27323 288.704 L 5.27299 288.25 L 4.40556 288.251 L 4.4053 287.751 L 4.00184 287.752 L 4.0021 288.251 L 1.84864 288.252 L 1.84888 288.711 L 3.96278 290.243 L 4.40659 290.243 L 4.40579 288.704 L 5.27323 288.704 L 5.27323 288.704 z M 4.00291 289.819 L 2.43389 288.706 L 4.00233 288.705 L 4.00291 289.819 L 4.00291 289.819 z M 5.2718 285.946 L 5.27154 285.437 L 4.43932 285.271 L 3.66251 284.979 L 2.94111 284.566 L 2.26504 284.026 L 1.84645 284.027 L 1.8477 286.427 L 2.30663 286.427 L 2.30564 284.511 L 2.98676 285.065 L 3.69807 285.483 L 4.45471 285.775 L 5.2718 285.946 L 5.2718 285.946 z" stroke="none" fill-rule="evenodd" fill="rgb(0, 0, 0)"/><path d="M 7.64486 6.78156 L 7.12622 4.84991 L 6.60959 6.78204"/><path d="M 6.90768 582.387 L 7.42632 584.319 L 7.94296 582.387"/><path d="M 7.12622 4.84991 L 7.42632 584.319"/></g></svg>