<?xml version="1.0" encoding="utf-8" ?><!DOCTYPE svg PUBLIC "-//W3C//DTD SVG 1.1//EN" "http://www.w3.org/Graphics/SVG/1.1/DTD/svg11.dtd" 
[ <!ATTLIST svg 
  xmlns:dsy CDATA #FIXED "http://www.3ds.com/print"  
    dsy:text-version CDATA #IMPLIED > 

  <!ATTLIST text 
  xmlns:dsy CDATA #FIXED "http://www.3ds.com/print" 
    dsy:text-version CDATA #IMPLIED > 
]><svg xmlns="http://www.w3.org/2000/svg" xmlns:dsy="http://www.3ds.com/print" dsy:text-version="18000" width="841" height="594" viewBox="0 0 841 594" version="1.1"><g stroke="rgb(0, 0, 0)" stroke-width="0.13" stroke-linecap="butt" stroke-linejoin="miter" fill="none"><path d="M 7.84115 3.83374 L 4.94231 3.83405"/><path d="M 7.90422 584.858 L 5.00539 584.858"/><path d="M 9.90422 5.8335 L 9.90422 10.8662"/><path d="M 795.699 5.8335 L 795.699 10.8662"/></g><g stroke="rgb(0, 0, 0)" stroke-width="0.35" stroke-linecap="butt" stroke-linejoin="miter" fill="none"><circle cx="43.4664" cy="568.13" r="3.2"/><circle cx="343.466" cy="568.13" r="3.2"/><circle cx="193.506" cy="326.943" r="3.2"/><circle cx="193.506" cy="448.13" r="3.2"/><circle cx="193.506" cy="368.13" r="6"/><path d="M 201.997 308.402 A 10 10 0 0 0 185.013 308.4"/><path d="M 352.953 580.13 A 10 10 0 0 0 361.445 564.85"/><path d="M 25.4795 564.848 L 185.013 308.4"/><path d="M 25.4795 564.848 A 10 10 0 0 0 33.9706 580.13"/><path d="M 203.206 508.13 A 0.300003 0.300003 0 0 0 203.506 507.83"/><path d="M 198.806 508.13 L 203.206 508.13"/><path d="M 198.506 507.83 A 0.300003 0.300003 0 0 0 198.806 508.13"/><path d="M 203.506 507.83 L 203.506 483.43"/><path d="M 203.506 483.43 A 0.300003 0.300003 0 0 0 203.206 483.13"/><path d="M 198.506 483.43 L 198.506 507.83"/><path d="M 203.206 483.13 L 198.806 483.13"/><path d="M 198.806 483.13 A 0.300003 0.300003 0 0 0 198.506 483.43"/><path d="M 193.506 483.43 A 0.300003 0.300003 0 0 0 193.206 483.13"/><path d="M 193.506 483.43 L 193.506 507.83"/><path d="M 193.206 508.13 A 0.300003 0.300003 0 0 0 193.506 507.83"/><path d="M 193.206 508.13 L 188.806 508.13"/><path d="M 188.506 507.83 A 0.300003 0.300003 0 0 0 188.806 508.13"/><path d="M 188.806 483.13 L 193.206 483.13"/><path d="M 188.506 507.83 L 188.506 483.43"/><path d="M 188.806 483.13 A 0.300003 0.300003 0 0 0 188.506 483.43"/><path d="M 208.806 488.13 A 0.300003 0.300003 0 0 0 208.506 488.43"/><path d="M 208.806 488.13 L 220.206 488.13"/><path d="M 220.506 488.43 A 0.300003 0.300003 0 0 0 220.206 488.13"/><path d="M 220.506 490.83 L 220.506 488.43"/><path d="M 220.206 491.13 A 0.300003 0.300003 0 0 0 220.506 490.83"/><path d="M 208.506 488.43 L 208.506 490.83"/><path d="M 220.206 491.13 L 208.806 491.13"/><path d="M 208.506 490.83 A 0.300003 0.300003 0 0 0 208.806 491.13"/><path d="M 115.673 580.13 L 33.9706 580.13"/><path d="M 115.673 580.13 A 0.300003 0.300003 0 0 0 115.973 579.83"/><path d="M 115.973 579.83 L 115.973 560.43"/><path d="M 116.273 560.13 A 0.300003 0.300003 0 0 0 115.973 560.43"/><path d="M 116.273 560.13 L 121.573 560.13"/><path d="M 121.873 560.43 A 0.300003 0.300003 0 0 0 121.573 560.13"/><path d="M 121.873 560.43 L 121.873 579.83"/><path d="M 121.873 579.83 A 0.300003 0.300003 0 0 0 122.173 580.13"/><path d="M 264.746 580.13 L 122.173 580.13"/><path d="M 264.746 580.13 A 0.300003 0.300003 0 0 0 265.046 579.83"/><path d="M 265.046 579.83 L 265.046 560.43"/><path d="M 265.346 560.13 A 0.300003 0.300003 0 0 0 265.046 560.43"/><path d="M 265.346 560.13 L 270.646 560.13"/><path d="M 270.946 560.43 A 0.300003 0.300003 0 0 0 270.646 560.13"/><path d="M 352.953 580.13 L 271.246 580.13"/><path d="M 270.946 560.43 L 270.946 579.83"/><path d="M 270.946 579.83 A 0.300003 0.300003 0 0 0 271.246 580.13"/><path d="M 308.858 480.272 L 361.445 564.85"/><path d="M 308.858 480.272 A 0.300003 0.300003 0 0 0 308.603 480.13"/><path d="M 308.603 480.13 L 275.961 480.13"/><path d="M 275.661 479.83 A 0.300003 0.300003 0 0 0 275.961 480.13"/><path d="M 275.661 479.83 L 275.661 475.43"/><path d="M 275.961 475.13 A 0.300003 0.300003 0 0 0 275.661 475.43"/><path d="M 201.997 308.402 L 305.376 474.672"/><path d="M 275.961 475.13 L 305.121 475.13"/><path d="M 305.121 475.13 A 0.300003 0.300003 0 0 0 305.376 474.672"/><path d="M 334.568 566.367 A 0.199997 0.199997 0 0 0 334.298 566.284"/><path d="M 333.768 566.567 L 334.298 566.285"/><path d="M 333.768 566.567 A 0.199997 0.199997 0 0 0 333.686 566.838"/><path d="M 348.043 562.201 A 0.199997 0.199997 0 0 0 347.997 562.48"/><path d="M 348.531 561.851 L 348.043 562.201"/><path d="M 348.81 561.897 A 0.199997 0.199997 0 0 0 348.531 561.851"/><path d="M 347.997 562.48 L 357.674 575.968"/><path d="M 357.674 575.968 A 0.199997 0.199997 0 0 0 357.953 576.014"/><path d="M 339.618 577.954 L 333.686 566.838"/><path d="M 339.618 577.954 A 0.199997 0.199997 0 0 0 339.889 578.036"/><path d="M 334.568 566.367 L 340.501 577.483"/><path d="M 340.418 577.754 L 339.889 578.036"/><path d="M 340.418 577.754 A 0.199997 0.199997 0 0 0 340.501 577.483"/><path d="M 358.487 575.385 L 348.81 561.897"/><path d="M 357.953 576.014 L 358.441 575.664"/><path d="M 358.441 575.664 A 0.199997 0.199997 0 0 0 358.487 575.385"/><path d="M 50.4491 576.928 A 0.199997 0.199997 0 0 0 50.6487 577.129"/><path d="M 51.2487 577.13 L 50.6487 577.129"/><path d="M 51.2487 577.13 A 0.199997 0.199997 0 0 0 51.4491 576.93"/><path d="M 29.4234 576.52 A 0.199997 0.199997 0 0 0 29.7006 576.464"/><path d="M 29.4234 576.52 L 28.9233 576.188"/><path d="M 28.867 575.911 A 0.199997 0.199997 0 0 0 28.9233 576.188"/><path d="M 50.4694 565.328 L 50.4491 576.928"/><path d="M 50.6697 565.129 A 0.199997 0.199997 0 0 0 50.4694 565.328"/><path d="M 28.867 575.911 L 37.484 562.907"/><path d="M 37.7612 562.851 A 0.199997 0.199997 0 0 0 37.484 562.907"/><path d="M 51.4491 576.93 L 51.4694 565.33"/><path d="M 50.6697 565.129 L 51.2697 565.13"/><path d="M 51.4694 565.33 A 0.199997 0.199997 0 0 0 51.2697 565.13"/><path d="M 38.3176 563.459 A 0.199997 0.199997 0 0 0 38.2614 563.182"/><path d="M 38.3176 563.459 L 29.7006 576.464"/><path d="M 37.7612 562.851 L 38.2614 563.182"/><circle cx="65.4474" cy="422.965" r="1.5"/><path d="M 44.3741 453.183 A 0.5 0.5 0 0 0 44.9896 452.864"/><path d="M 68.9452 459.949 A 12.5 12.5 0 0 0 44.9896 452.864"/><path d="M 68.9452 459.949 A 0.5 0.5 0 0 0 69.288 460.552"/><path d="M 73.1779 461.702 L 69.288 460.552"/><path d="M 73.1779 461.702 A 0.5 0.5 0 0 0 73.7992 461.365"/><path d="M 44.3741 453.183 L 35.0123 450.414"/><path d="M 34.6746 449.793 A 0.5 0.5 0 0 0 35.0123 450.414"/><path d="M 93.9235 393.324 L 73.7992 461.365"/><path d="M 93.9235 393.324 A 0.5 0.5 0 0 0 93.5859 392.703"/><path d="M 55.4202 381.414 A 0.5 0.5 0 0 0 54.7989 381.752"/><path d="M 41.7652 425.82 L 54.7989 381.752"/><path d="M 41.7652 425.82 A 0.5 0.5 0 0 0 42.1028 426.441"/><path d="M 34.6746 449.793 L 40.6307 429.655"/><path d="M 41.252 429.318 A 0.5 0.5 0 0 0 40.6307 429.655"/><path d="M 41.252 429.318 L 45.0877 430.452"/><path d="M 45.0877 430.452 A 0.5 0.5 0 0 0 45.709 430.114"/><path d="M 45.9386 427.575 L 42.1028 426.441"/><path d="M 45.709 430.114 L 46.2762 428.197"/><path d="M 46.2762 428.197 A 0.5 0.5 0 0 0 45.9386 427.575"/><path d="M 81.8868 389.242 L 93.5859 392.703"/><path d="M 81.8868 389.242 A 0.299999 0.299999 0 0 0 81.5141 389.445"/><path d="M 74.5937 412.843 L 81.5141 389.445"/><path d="M 74.2209 413.046 A 0.299999 0.299999 0 0 0 74.5937 412.843"/><path d="M 69.1385 411.542 L 74.2209 413.046"/><path d="M 68.9359 411.17 A 0.299999 0.299999 0 0 0 69.1385 411.542"/><path d="M 75.8563 387.772 L 68.9359 411.17"/><path d="M 75.8563 387.772 A 0.299999 0.299999 0 0 0 75.6537 387.399"/><path d="M 72.3934 386.435 L 75.6537 387.399"/><path d="M 72.3934 386.435 A 0.299999 0.299999 0 0 0 72.0206 386.637"/><path d="M 65.1002 410.035 L 72.0206 386.637"/><path d="M 64.7274 410.238 A 0.299999 0.299999 0 0 0 65.1002 410.035"/><path d="M 59.6451 408.735 L 64.7274 410.238"/><path d="M 59.4425 408.362 A 0.299999 0.299999 0 0 0 59.6451 408.735"/><path d="M 55.4202 381.414 L 66.1603 384.591"/><path d="M 66.3629 384.964 L 59.4425 408.362"/><path d="M 66.3629 384.964 A 0.299999 0.299999 0 0 0 66.1603 384.591"/><path d="M 64.3953 435.689 A 0.299999 0.299999 0 0 0 64.7681 435.486"/><path d="M 55.3813 433.023 L 64.3953 435.689"/><path d="M 55.1787 432.65 A 0.299999 0.299999 0 0 0 55.3813 433.023"/><path d="M 55.5758 431.307 L 55.1787 432.65"/><path d="M 55.9486 431.105 A 0.299999 0.299999 0 0 0 55.5758 431.307"/><path d="M 64.7681 435.486 L 65.1652 434.144"/><path d="M 64.9626 433.771 L 55.9486 431.105"/><path d="M 65.1652 434.144 A 0.299999 0.299999 0 0 0 64.9626 433.771"/><path d="M 65.9553 430.415 A 0.299999 0.299999 0 0 0 66.328 430.212"/><path d="M 56.9413 427.749 L 65.9553 430.415"/><path d="M 56.7387 427.376 A 0.299999 0.299999 0 0 0 56.9413 427.749"/><path d="M 57.1357 426.033 L 56.7387 427.376"/><path d="M 57.5085 425.831 A 0.299999 0.299999 0 0 0 57.1357 426.033"/><path d="M 66.7251 428.87 A 0.299999 0.299999 0 0 0 66.5225 428.497"/><path d="M 66.328 430.212 L 66.7251 428.869"/><path d="M 66.5225 428.497 L 57.5085 425.831"/><circle cx="65.4621" cy="313.413" r="1.49999"/><circle cx="59.5003" cy="312.736" r="1.49999"/><path d="M 48.0129 346.376 A 0.499999 0.499999 0 0 0 48.5636 345.955"/><path d="M 73.3857 348.773 A 12.5 12.5 0 0 0 48.5636 345.955"/><path d="M 73.3857 348.773 A 0.499999 0.499999 0 0 0 73.8279 349.307"/><path d="M 78.8346 349.875 L 73.8279 349.307"/><path d="M 78.8346 349.875 A 0.499999 0.499999 0 0 0 79.3878 349.435"/><path d="M 48.0129 346.376 L 39.2886 345.386"/><path d="M 38.8482 344.833 A 0.499999 0.499999 0 0 0 39.2886 345.386"/><path d="M 87.3649 279.165 L 79.3878 349.435"/><path d="M 87.3649 279.165 A 0.499999 0.499999 0 0 0 86.9245 278.612"/><path d="M 47.3785 274.122 A 0.499999 0.499999 0 0 0 46.8253 274.563"/><path d="M 41.6681 319.992 L 46.8253 274.563"/><path d="M 41.6681 319.992 A 0.499999 0.499999 0 0 0 42.1085 320.545"/><path d="M 38.8482 344.833 L 41.2169 323.967"/><path d="M 41.7701 323.526 A 0.499999 0.499999 0 0 0 41.2169 323.967"/><path d="M 41.7701 323.526 L 45.7446 323.977"/><path d="M 45.7446 323.977 A 0.499999 0.499999 0 0 0 46.2978 323.537"/><path d="M 46.083 320.996 L 42.1085 320.545"/><path d="M 46.2978 323.537 L 46.5234 321.55"/><path d="M 46.5234 321.55 A 0.499999 0.499999 0 0 0 46.083 320.996"/><path d="M 74.8023 277.236 L 86.9245 278.612"/><path d="M 74.8023 277.236 A 0.299993 0.299993 0 0 0 74.4704 277.5"/><path d="M 71.7182 301.744 L 74.4704 277.5"/><path d="M 71.3863 302.008 A 0.299993 0.299993 0 0 0 71.7182 301.744"/><path d="M 66.1201 301.41 L 71.3863 302.008"/><path d="M 65.8558 301.079 A 0.299993 0.299993 0 0 0 66.1201 301.41"/><path d="M 68.6081 276.834 L 65.8558 301.079"/><path d="M 68.6081 276.834 A 0.299993 0.299993 0 0 0 68.3438 276.502"/><path d="M 64.9655 276.119 L 68.3438 276.502"/><path d="M 64.9655 276.119 A 0.299993 0.299993 0 0 0 64.6336 276.383"/><path d="M 61.8814 300.627 L 64.6336 276.383"/><path d="M 61.5494 300.892 A 0.299993 0.299993 0 0 0 61.8813 300.627"/><path d="M 56.2833 300.294 L 61.5494 300.892"/><path d="M 56.019 299.962 A 0.299993 0.299993 0 0 0 56.2833 300.294"/><path d="M 47.3785 274.122 L 58.507 275.386"/><path d="M 58.7712 275.718 L 56.019 299.962"/><path d="M 58.7712 275.718 A 0.299993 0.299993 0 0 0 58.507 275.386"/><path d="M 65.6419 326.014 A 0.299993 0.299993 0 0 0 65.9738 325.749"/><path d="M 56.3019 324.953 L 65.6419 326.014"/><path d="M 56.0376 324.621 A 0.299993 0.299993 0 0 0 56.3019 324.953"/><path d="M 56.1955 323.23 L 56.0376 324.621"/><path d="M 56.5275 322.966 A 0.299993 0.299993 0 0 0 56.1956 323.23"/><path d="M 65.9738 325.749 L 66.1317 324.358"/><path d="M 65.8675 324.026 L 56.5275 322.966"/><path d="M 66.1317 324.358 A 0.299993 0.299993 0 0 0 65.8675 324.026"/><path d="M 66.2623 320.549 A 0.299993 0.299993 0 0 0 66.5942 320.284"/><path d="M 56.9223 319.488 L 66.2623 320.549"/><path d="M 56.658 319.156 A 0.299993 0.299993 0 0 0 56.9223 319.488"/><path d="M 56.8159 317.765 L 56.658 319.156"/><path d="M 57.1478 317.501 A 0.299993 0.299993 0 0 0 56.8159 317.765"/><path d="M 66.7521 318.893 A 0.299993 0.299993 0 0 0 66.4879 318.561"/><path d="M 66.5942 320.284 L 66.7521 318.893"/><path d="M 66.4879 318.561 L 57.1478 317.501"/><circle cx="341.646" cy="24.4568" r="3.2"/><circle cx="41.6462" cy="24.4568" r="3.2"/><circle cx="191.606" cy="265.644" r="3.2"/><circle cx="191.606" cy="144.457" r="3.2"/><circle cx="191.606" cy="224.457" r="6"/><path d="M 183.116 284.185 A 10 10 0 0 0 200.1 284.187"/><path d="M 32.16 12.4568 A 10 10 0 0 0 23.6676 27.7369"/><path d="M 359.633 27.739 L 200.1 284.187"/><path d="M 359.633 27.739 A 10 10 0 0 0 351.142 12.4568"/><path d="M 181.906 84.4568 A 0.300003 0.300003 0 0 0 181.606 84.7568"/><path d="M 186.306 84.4568 L 181.906 84.4568"/><path d="M 186.606 84.7568 A 0.300003 0.300003 0 0 0 186.306 84.4568"/><path d="M 181.606 84.7568 L 181.606 109.157"/><path d="M 181.606 109.157 A 0.300003 0.300003 0 0 0 181.906 109.457"/><path d="M 186.606 109.157 L 186.606 84.7568"/><path d="M 181.906 109.457 L 186.306 109.457"/><path d="M 186.306 109.457 A 0.300003 0.300003 0 0 0 186.606 109.157"/><path d="M 191.606 109.157 A 0.300003 0.300003 0 0 0 191.906 109.457"/><path d="M 191.606 109.157 L 191.606 84.7568"/><path d="M 191.906 84.4568 A 0.300003 0.300003 0 0 0 191.606 84.7568"/><path d="M 191.906 84.4568 L 196.306 84.4568"/><path d="M 196.606 84.7568 A 0.300003 0.300003 0 0 0 196.306 84.4568"/><path d="M 196.306 109.457 L 191.906 109.457"/><path d="M 196.606 84.7568 L 196.606 109.157"/><path d="M 196.306 109.457 A 0.300003 0.300003 0 0 0 196.606 109.157"/><path d="M 176.606 89.7568 A 0.300003 0.300003 0 0 0 176.306 89.4568"/><path d="M 176.606 101.757 A 0.300003 0.300003 0 0 0 176.306 101.457"/><path d="M 176.606 89.7568 L 176.606 92.1568"/><path d="M 176.306 92.4568 A 0.300003 0.300003 0 0 0 176.606 92.1568"/><path d="M 176.606 101.757 L 176.606 104.157"/><path d="M 176.306 104.457 A 0.300003 0.300003 0 0 0 176.606 104.157"/><path d="M 176.306 104.457 L 164.906 104.457"/><path d="M 164.606 104.157 A 0.300003 0.300003 0 0 0 164.906 104.457"/><path d="M 164.906 89.4568 L 176.306 89.4568"/><path d="M 164.906 89.4568 A 0.300003 0.300003 0 0 0 164.606 89.7568"/><path d="M 164.906 101.457 L 176.306 101.457"/><path d="M 164.606 104.157 L 164.606 101.757"/><path d="M 164.906 101.457 A 0.300003 0.300003 0 0 0 164.606 101.757"/><path d="M 176.306 92.4568 L 164.906 92.4568"/><path d="M 164.606 92.1568 L 164.606 89.7568"/><path d="M 164.606 92.1568 A 0.300003 0.300003 0 0 0 164.906 92.4568"/><path d="M 269.44 12.4568 L 351.142 12.4568"/><path d="M 269.44 12.4568 A 0.300003 0.300003 0 0 0 269.14 12.7568"/><path d="M 269.14 12.7568 L 269.14 32.1568"/><path d="M 268.84 32.4568 A 0.300003 0.300003 0 0 0 269.14 32.1568"/><path d="M 268.84 32.4568 L 263.54 32.4568"/><path d="M 263.24 32.1568 A 0.300003 0.300003 0 0 0 263.54 32.4568"/><path d="M 263.24 32.1568 L 263.24 12.7568"/><path d="M 263.24 12.7568 A 0.300003 0.300003 0 0 0 262.94 12.4568"/><path d="M 120.367 12.4568 L 262.94 12.4568"/><path d="M 120.367 12.4568 A 0.300003 0.300003 0 0 0 120.067 12.7568"/><path d="M 120.067 12.7568 L 120.067 32.1568"/><path d="M 119.767 32.4568 A 0.300003 0.300003 0 0 0 120.067 32.1568"/><path d="M 119.767 32.4568 L 114.467 32.4568"/><path d="M 114.167 32.1568 A 0.300003 0.300003 0 0 0 114.467 32.4568"/><path d="M 32.16 12.4568 L 113.867 12.4568"/><path d="M 114.167 32.1568 L 114.167 12.7568"/><path d="M 114.167 12.7568 A 0.300003 0.300003 0 0 0 113.867 12.4568"/><path d="M 76.2548 112.315 L 23.6676 27.737"/><path d="M 76.2548 112.315 A 0.300003 0.300003 0 0 0 76.5096 112.457"/><path d="M 76.5096 112.457 L 109.152 112.457"/><path d="M 109.452 112.757 A 0.300003 0.300003 0 0 0 109.152 112.457"/><path d="M 109.452 112.757 L 109.452 117.157"/><path d="M 109.152 117.457 A 0.300003 0.300003 0 0 0 109.452 117.157"/><path d="M 183.116 284.185 L 79.7367 117.915"/><path d="M 109.152 117.457 L 79.9914 117.457"/><path d="M 79.9914 117.457 A 0.300003 0.300003 0 0 0 79.7367 117.915"/><path d="M 45.4538 14.6332 A 0.199997 0.199997 0 0 0 45.1832 14.551"/><path d="M 51.386 25.7494 L 45.4538 14.6332"/><path d="M 51.3037 26.02 A 0.199997 0.199997 0 0 0 51.386 25.7494"/><path d="M 50.7744 26.3025 L 51.3037 26.02"/><path d="M 50.5038 26.2203 A 0.199997 0.199997 0 0 0 50.7744 26.3026"/><path d="M 45.1832 14.551 L 44.6539 14.8334"/><path d="M 44.5716 15.1041 L 50.5038 26.2202"/><path d="M 44.6539 14.8334 A 0.199997 0.199997 0 0 0 44.5716 15.1041"/><path d="M 26.6176 16.9232 A 0.199997 0.199997 0 0 0 26.5717 17.2022"/><path d="M 27.1051 16.5734 L 26.6176 16.9232"/><path d="M 27.3842 16.6193 A 0.199997 0.199997 0 0 0 27.1051 16.5734"/><path d="M 37.0608 30.1072 L 27.3842 16.6193"/><path d="M 37.0149 30.3863 A 0.199997 0.199997 0 0 0 37.0608 30.1072"/><path d="M 26.5717 17.2023 L 36.2483 30.6901"/><path d="M 36.5274 30.7361 L 37.0149 30.3863"/><path d="M 36.2483 30.6901 A 0.199997 0.199997 0 0 0 36.5274 30.736"/><path d="M 333.402 28.2329 A 0.199997 0.199997 0 0 0 333.59 28.4448"/><path d="M 347.758 30.0198 A 0.199997 0.199997 0 0 0 347.92 30.2523"/><path d="M 334.172 15.6564 L 333.402 28.2329"/><path d="M 334.384 15.469 A 0.199997 0.199997 0 0 0 334.172 15.6564"/><path d="M 350.361 15.6536 L 347.759 30.0198"/><path d="M 350.593 15.4925 A 0.199997 0.199997 0 0 0 350.361 15.6536"/><path d="M 351.184 15.5994 L 350.593 15.4924"/><path d="M 351.345 15.8318 A 0.199997 0.199997 0 0 0 351.184 15.5994"/><path d="M 334.983 15.5057 L 334.384 15.469"/><path d="M 335.17 15.7175 A 0.199997 0.199997 0 0 0 334.983 15.5057"/><path d="M 347.92 30.2523 L 348.51 30.3592"/><path d="M 348.742 30.1981 L 351.345 15.8318"/><path d="M 348.51 30.3592 A 0.199997 0.199997 0 0 0 348.742 30.1981"/><path d="M 334.188 28.4814 A 0.199997 0.199997 0 0 0 334.4 28.2939"/><path d="M 333.59 28.4447 L 334.188 28.4814"/><path d="M 334.4 28.294 L 335.17 15.7175"/><circle cx="250.197" cy="312.986" r="3.20001"/><circle cx="550.197" cy="312.986" r="3.20001"/><circle cx="400.237" cy="554.174" r="3.20001"/><circle cx="400.237" cy="432.986" r="3.20001"/><circle cx="400.237" cy="512.986" r="6"/><path d="M 391.743 572.717 A 10 10 0 0 0 408.727 572.714"/><path d="M 568.175 316.267 A 10 10 0 0 0 559.683 300.986"/><path d="M 232.21 316.269 L 391.743 572.717"/><path d="M 240.701 300.986 A 10 10 0 0 0 232.21 316.269"/><path d="M 410.237 373.286 A 0.299988 0.299988 0 0 0 409.937 372.986"/><path d="M 405.537 372.986 L 409.937 372.986"/><path d="M 405.537 372.986 A 0.299988 0.299988 0 0 0 405.237 373.286"/><path d="M 410.237 373.286 L 410.237 397.686"/><path d="M 409.937 397.986 A 0.299988 0.299988 0 0 0 410.237 397.686"/><path d="M 405.237 397.686 L 405.237 373.286"/><path d="M 409.937 397.986 L 405.537 397.986"/><path d="M 405.237 397.686 A 0.299988 0.299988 0 0 0 405.537 397.986"/><path d="M 399.937 397.986 A 0.299988 0.299988 0 0 0 400.237 397.686"/><path d="M 400.237 397.686 L 400.237 373.286"/><path d="M 400.237 373.286 A 0.299988 0.299988 0 0 0 399.937 372.986"/><path d="M 399.937 372.986 L 395.537 372.986"/><path d="M 395.537 372.986 A 0.299988 0.299988 0 0 0 395.237 373.286"/><path d="M 395.537 397.986 L 399.937 397.986"/><path d="M 395.237 373.286 L 395.237 397.686"/><path d="M 395.237 397.686 A 0.299988 0.299988 0 0 0 395.537 397.986"/><path d="M 415.237 392.686 A 0.299988 0.299988 0 0 0 415.537 392.986"/><path d="M 415.537 392.986 L 426.937 392.986"/><path d="M 426.937 392.986 A 0.299988 0.299988 0 0 0 427.237 392.686"/><path d="M 427.237 390.286 L 427.237 392.686"/><path d="M 427.237 390.286 A 0.299988 0.299988 0 0 0 426.937 389.986"/><path d="M 415.237 392.686 L 415.237 390.286"/><path d="M 426.937 389.986 L 415.537 389.986"/><path d="M 415.537 389.986 A 0.299988 0.299988 0 0 0 415.237 390.286"/><path d="M 322.403 300.986 L 240.701 300.986"/><path d="M 322.703 301.286 A 0.299988 0.299988 0 0 0 322.403 300.986"/><path d="M 322.703 301.286 L 322.703 320.686"/><path d="M 322.703 320.686 A 0.299988 0.299988 0 0 0 323.003 320.986"/><path d="M 323.003 320.986 L 328.303 320.986"/><path d="M 328.303 320.986 A 0.299988 0.299988 0 0 0 328.603 320.686"/><path d="M 328.603 320.686 L 328.603 301.286"/><path d="M 328.903 300.986 A 0.299988 0.299988 0 0 0 328.603 301.286"/><path d="M 471.476 300.986 L 328.903 300.986"/><path d="M 471.776 301.286 A 0.299988 0.299988 0 0 0 471.476 300.986"/><path d="M 471.776 301.286 L 471.776 320.686"/><path d="M 471.776 320.686 A 0.299988 0.299988 0 0 0 472.076 320.986"/><path d="M 472.076 320.986 L 477.376 320.986"/><path d="M 477.376 320.986 A 0.299988 0.299988 0 0 0 477.676 320.686"/><path d="M 559.683 300.986 L 477.976 300.986"/><path d="M 477.676 320.686 L 477.676 301.286"/><path d="M 477.976 300.986 A 0.299988 0.299988 0 0 0 477.676 301.286"/><path d="M 515.588 400.845 L 568.175 316.267"/><path d="M 515.333 400.986 A 0.299988 0.299988 0 0 0 515.588 400.845"/><path d="M 515.333 400.986 L 482.691 400.986"/><path d="M 482.691 400.986 A 0.299988 0.299988 0 0 0 482.391 401.286"/><path d="M 482.391 401.286 L 482.391 405.686"/><path d="M 482.391 405.686 A 0.299988 0.299988 0 0 0 482.691 405.986"/><path d="M 408.727 572.715 L 512.106 406.445"/><path d="M 482.691 405.986 L 511.851 405.986"/><path d="M 512.106 406.445 A 0.299988 0.299988 0 0 0 511.851 405.986"/><path d="M 541.028 314.832 A 0.200012 0.200012 0 0 0 541.298 314.75"/><path d="M 540.499 314.55 L 541.028 314.832"/><path d="M 540.416 314.279 A 0.200012 0.200012 0 0 0 540.498 314.55"/><path d="M 554.727 318.637 A 0.200012 0.200012 0 0 0 554.773 318.916"/><path d="M 555.261 319.266 L 554.773 318.916"/><path d="M 555.261 319.266 A 0.200012 0.200012 0 0 0 555.54 319.22"/><path d="M 554.727 318.637 L 564.404 305.149"/><path d="M 564.683 305.103 A 0.200012 0.200012 0 0 0 564.404 305.149"/><path d="M 546.348 303.163 L 540.416 314.279"/><path d="M 546.619 303.081 A 0.200012 0.200012 0 0 0 546.348 303.163"/><path d="M 541.298 314.75 L 547.231 303.634"/><path d="M 547.148 303.363 L 546.619 303.081"/><path d="M 547.231 303.634 A 0.200012 0.200012 0 0 0 547.148 303.363"/><path d="M 565.217 305.732 L 555.54 319.22"/><path d="M 564.683 305.103 L 565.171 305.453"/><path d="M 565.217 305.732 A 0.200012 0.200012 0 0 0 565.171 305.453"/><path d="M 257.379 303.988 A 0.200012 0.200012 0 0 0 257.179 304.188"/><path d="M 257.979 303.987 L 257.379 303.988"/><path d="M 258.179 304.186 A 0.200012 0.200012 0 0 0 257.979 303.987"/><path d="M 236.431 304.653 A 0.200012 0.200012 0 0 0 236.153 304.597"/><path d="M 236.154 304.597 L 235.653 304.928"/><path d="M 235.653 304.928 A 0.200012 0.200012 0 0 0 235.597 305.206"/><path d="M 257.199 315.788 L 257.179 304.188"/><path d="M 257.199 315.788 A 0.200012 0.200012 0 0 0 257.4 315.988"/><path d="M 235.597 305.206 L 244.214 318.21"/><path d="M 244.214 318.21 A 0.200012 0.200012 0 0 0 244.491 318.266"/><path d="M 258.179 304.186 L 258.199 315.786"/><path d="M 257.4 315.988 L 258 315.987"/><path d="M 258 315.987 A 0.200012 0.200012 0 0 0 258.199 315.786"/><path d="M 244.491 318.266 L 244.991 317.934"/><path d="M 245.048 317.657 L 236.431 304.653"/><path d="M 244.991 317.934 A 0.200012 0.200012 0 0 0 245.048 317.657"/><circle cx="127.465" cy="311.664" r="1.5"/><path d="M 106.392 341.883 A 0.5 0.5 0 0 0 107.007 341.563"/><path d="M 130.963 348.649 A 12.5 12.5 0 0 0 107.007 341.563"/><path d="M 130.963 348.649 A 0.5 0.5 0 0 0 131.306 349.252"/><path d="M 135.196 350.402 L 131.306 349.252"/><path d="M 135.196 350.402 A 0.5 0.5 0 0 0 135.817 350.064"/><path d="M 106.392 341.883 L 97.0299 339.114"/><path d="M 96.6923 338.493 A 0.5 0.5 0 0 0 97.0299 339.114"/><path d="M 155.941 282.024 L 135.817 350.064"/><path d="M 155.941 282.024 A 0.5 0.5 0 0 0 155.604 281.402"/><path d="M 117.438 270.114 A 0.5 0.5 0 0 0 116.817 270.452"/><path d="M 103.783 314.519 L 116.817 270.452"/><path d="M 103.783 314.519 A 0.5 0.5 0 0 0 104.121 315.14"/><path d="M 96.6923 338.493 L 102.648 318.355"/><path d="M 103.27 318.017 A 0.5 0.5 0 0 0 102.648 318.355"/><path d="M 103.27 318.017 L 107.105 319.152"/><path d="M 107.105 319.152 A 0.5 0.5 0 0 0 107.727 318.814"/><path d="M 107.956 316.275 L 104.121 315.14"/><path d="M 107.727 318.814 L 108.294 316.896"/><path d="M 108.294 316.896 A 0.5 0.5 0 0 0 107.956 316.275"/><path d="M 143.904 277.942 L 155.604 281.402"/><path d="M 143.904 277.942 A 0.300003 0.300003 0 0 0 143.532 278.145"/><path d="M 136.611 301.543 L 143.532 278.145"/><path d="M 136.239 301.745 A 0.300003 0.300003 0 0 0 136.611 301.543"/><path d="M 131.156 300.242 L 136.239 301.745"/><path d="M 130.954 299.869 A 0.300003 0.300003 0 0 0 131.156 300.242"/><path d="M 137.874 276.471 L 130.954 299.869"/><path d="M 137.874 276.471 A 0.300003 0.300003 0 0 0 137.671 276.099"/><path d="M 134.411 275.134 L 137.671 276.099"/><path d="M 134.411 275.134 A 0.300003 0.300003 0 0 0 134.038 275.337"/><path d="M 127.118 298.735 L 134.038 275.337"/><path d="M 126.745 298.937 A 0.300003 0.300003 0 0 0 127.118 298.735"/><path d="M 121.663 297.434 L 126.745 298.937"/><path d="M 121.46 297.062 A 0.300003 0.300003 0 0 0 121.663 297.434"/><path d="M 117.438 270.114 L 128.178 273.291"/><path d="M 128.381 273.663 L 121.46 297.061"/><path d="M 128.381 273.663 A 0.300003 0.300003 0 0 0 128.178 273.291"/><path d="M 126.413 324.388 A 0.300003 0.300003 0 0 0 126.786 324.186"/><path d="M 117.399 321.722 L 126.413 324.388"/><path d="M 117.196 321.35 A 0.300003 0.300003 0 0 0 117.399 321.722"/><path d="M 117.593 320.007 L 117.196 321.35"/><path d="M 117.966 319.804 A 0.300003 0.300003 0 0 0 117.593 320.007"/><path d="M 126.786 324.186 L 127.183 322.843"/><path d="M 126.98 322.471 L 117.966 319.804"/><path d="M 127.183 322.843 A 0.300003 0.300003 0 0 0 126.98 322.471"/><path d="M 127.973 319.114 A 0.300003 0.300003 0 0 0 128.346 318.912"/><path d="M 118.959 316.448 L 127.973 319.114"/><path d="M 118.756 316.075 A 0.300003 0.300003 0 0 0 118.959 316.448"/><path d="M 119.153 314.733 L 118.756 316.075"/><path d="M 119.526 314.53 A 0.300003 0.300003 0 0 0 119.153 314.733"/><path d="M 128.54 317.196 L 119.526 314.53"/><path d="M 128.346 318.912 L 128.743 317.569"/><path d="M 128.743 317.569 A 0.300003 0.300003 0 0 0 128.54 317.196"/><circle cx="71.648" cy="209.066" r="1.5"/><circle cx="71.2793" cy="203.078" r="1.5"/><path d="M 36.1555 197.607 A 0.500001 0.500001 0 0 0 36.6661 198.076"/><path d="M 38.2014 223.01 A 12.5 12.5 0 0 0 36.6661 198.076"/><path d="M 38.2014 223.01 A 0.500001 0.500001 0 0 0 37.7522 223.538"/><path d="M 38.0619 228.567 L 37.7522 223.538"/><path d="M 38.0619 228.567 A 0.500001 0.500001 0 0 0 38.5917 229.036"/><path d="M 36.1555 197.607 L 35.6159 188.843"/><path d="M 36.0842 188.313 A 0.500001 0.500001 0 0 0 35.6159 188.843"/><path d="M 109.179 224.689 L 38.5917 229.036"/><path d="M 109.179 224.689 A 0.500001 0.500001 0 0 0 109.647 224.16"/><path d="M 107.201 184.435 A 0.500001 0.500001 0 0 0 106.672 183.967"/><path d="M 61.037 186.776 L 106.672 183.967"/><path d="M 61.037 186.776 A 0.500001 0.500001 0 0 0 60.5687 187.306"/><path d="M 36.0842 188.313 L 57.0445 187.022"/><path d="M 57.5743 187.491 A 0.500001 0.500001 0 0 0 57.0445 187.022"/><path d="M 57.5743 187.491 L 57.8202 191.483"/><path d="M 57.8202 191.483 A 0.500001 0.500001 0 0 0 58.3499 191.951"/><path d="M 60.8145 191.299 L 60.5687 187.306"/><path d="M 58.3499 191.951 L 60.3462 191.828"/><path d="M 60.3462 191.828 A 0.500001 0.500001 0 0 0 60.8145 191.299"/><path d="M 108.898 211.983 L 109.647 224.16"/><path d="M 108.898 211.983 A 0.299998 0.299998 0 0 0 108.58 211.702"/><path d="M 84.2259 213.201 L 108.58 211.702"/><path d="M 83.9081 212.92 A 0.299998 0.299998 0 0 0 84.2259 213.201"/><path d="M 83.5823 207.63 L 83.9081 212.92"/><path d="M 83.8633 207.312 A 0.299998 0.299998 0 0 0 83.5823 207.63"/><path d="M 108.217 205.813 L 83.8633 207.312"/><path d="M 108.217 205.813 A 0.299998 0.299998 0 0 0 108.498 205.495"/><path d="M 108.289 202.101 L 108.498 205.495"/><path d="M 108.289 202.101 A 0.299998 0.299998 0 0 0 107.971 201.82"/><path d="M 83.6175 203.32 L 107.971 201.82"/><path d="M 83.2996 203.039 A 0.299998 0.299998 0 0 0 83.6175 203.32"/><path d="M 82.9739 197.749 L 83.2996 203.039"/><path d="M 83.2549 197.431 A 0.299998 0.299998 0 0 0 82.9739 197.749"/><path d="M 107.201 184.435 L 107.89 195.614"/><path d="M 107.609 195.932 L 83.2549 197.431"/><path d="M 107.609 195.932 A 0.299998 0.299998 0 0 0 107.89 195.614"/><path d="M 59.27 211.432 A 0.299998 0.299998 0 0 0 59.5879 211.713"/><path d="M 58.6923 202.049 L 59.27 211.432"/><path d="M 58.9733 201.732 A 0.299998 0.299998 0 0 0 58.6923 202.049"/><path d="M 60.3707 201.646 L 58.9733 201.732"/><path d="M 60.6885 201.927 A 0.299998 0.299998 0 0 0 60.3707 201.646"/><path d="M 59.5879 211.713 L 60.9852 211.627"/><path d="M 61.2662 211.309 L 60.6885 201.927"/><path d="M 60.9852 211.627 A 0.299998 0.299998 0 0 0 61.2662 211.309"/><path d="M 64.7596 211.094 A 0.299998 0.299998 0 0 0 65.0775 211.375"/><path d="M 64.1819 201.711 L 64.7596 211.094"/><path d="M 64.4629 201.394 A 0.299998 0.299998 0 0 0 64.1819 201.711"/><path d="M 65.8603 201.308 L 64.4629 201.394"/><path d="M 66.1781 201.589 A 0.299998 0.299998 0 0 0 65.8603 201.308"/><path d="M 66.7558 210.971 L 66.1781 201.589"/><path d="M 65.0775 211.375 L 66.4748 211.289"/><path d="M 66.4748 211.289 A 0.299998 0.299998 0 0 0 66.7558 210.971"/><circle cx="541.143" cy="280.602" r="3.20001"/><circle cx="241.144" cy="280.602" r="3.20001"/><circle cx="391.104" cy="39.4152" r="3.20001"/><circle cx="391.104" cy="160.602" r="3.20001"/><circle cx="391.104" cy="80.6022" r="6"/><path d="M 399.597 20.8721 A 10 10 0 0 0 382.613 20.8742"/><path d="M 223.165 277.322 A 10 10 0 0 0 231.657 292.602"/><path d="M 559.13 277.32 L 399.597 20.8722"/><path d="M 550.639 292.602 A 10 10 0 0 0 559.13 277.32"/><path d="M 381.104 220.302 A 0.299988 0.299988 0 0 0 381.404 220.602"/><path d="M 385.804 220.602 L 381.404 220.602"/><path d="M 385.804 220.602 A 0.299988 0.299988 0 0 0 386.104 220.302"/><path d="M 381.104 220.302 L 381.104 195.902"/><path d="M 381.404 195.602 A 0.299988 0.299988 0 0 0 381.104 195.902"/><path d="M 386.104 195.902 L 386.104 220.302"/><path d="M 381.404 195.602 L 385.804 195.602"/><path d="M 386.104 195.902 A 0.299988 0.299988 0 0 0 385.804 195.602"/><path d="M 391.404 195.602 A 0.299988 0.299988 0 0 0 391.104 195.902"/><path d="M 391.104 195.902 L 391.104 220.302"/><path d="M 391.104 220.302 A 0.299988 0.299988 0 0 0 391.404 220.602"/><path d="M 391.404 220.602 L 395.804 220.602"/><path d="M 395.804 220.602 A 0.299988 0.299988 0 0 0 396.104 220.302"/><path d="M 395.804 195.602 L 391.404 195.602"/><path d="M 396.104 220.302 L 396.104 195.902"/><path d="M 396.104 195.902 A 0.299988 0.299988 0 0 0 395.804 195.602"/><path d="M 375.804 215.602 A 0.299988 0.299988 0 0 0 376.104 215.302"/><path d="M 375.804 203.602 A 0.299988 0.299988 0 0 0 376.104 203.302"/><path d="M 376.104 215.302 L 376.104 212.902"/><path d="M 376.104 212.902 A 0.299988 0.299988 0 0 0 375.804 212.602"/><path d="M 376.104 203.302 L 376.104 200.902"/><path d="M 376.104 200.902 A 0.299988 0.299988 0 0 0 375.804 200.602"/><path d="M 375.804 200.602 L 364.404 200.602"/><path d="M 364.404 200.602 A 0.299988 0.299988 0 0 0 364.104 200.902"/><path d="M 364.404 215.602 L 375.804 215.602"/><path d="M 364.104 215.302 A 0.299988 0.299988 0 0 0 364.404 215.602"/><path d="M 364.404 203.602 L 375.804 203.602"/><path d="M 364.104 200.902 L 364.104 203.302"/><path d="M 364.104 203.302 A 0.299988 0.299988 0 0 0 364.404 203.602"/><path d="M 375.804 212.602 L 364.404 212.602"/><path d="M 364.104 212.902 L 364.104 215.302"/><path d="M 364.404 212.602 A 0.299988 0.299988 0 0 0 364.104 212.902"/><path d="M 468.937 292.602 L 550.639 292.602"/><path d="M 468.637 292.302 A 0.299988 0.299988 0 0 0 468.937 292.602"/><path d="M 468.637 292.302 L 468.637 272.902"/><path d="M 468.637 272.902 A 0.299988 0.299988 0 0 0 468.337 272.602"/><path d="M 468.337 272.602 L 463.037 272.602"/><path d="M 463.037 272.602 A 0.299988 0.299988 0 0 0 462.737 272.902"/><path d="M 462.737 272.902 L 462.737 292.302"/><path d="M 462.437 292.602 A 0.299988 0.299988 0 0 0 462.737 292.302"/><path d="M 319.864 292.602 L 462.437 292.602"/><path d="M 319.564 292.302 A 0.299988 0.299988 0 0 0 319.864 292.602"/><path d="M 319.564 292.302 L 319.564 272.902"/><path d="M 319.564 272.902 A 0.299988 0.299988 0 0 0 319.264 272.602"/><path d="M 319.264 272.602 L 313.964 272.602"/><path d="M 313.964 272.602 A 0.299988 0.299988 0 0 0 313.664 272.902"/><path d="M 231.657 292.602 L 313.364 292.602"/><path d="M 313.664 272.902 L 313.664 292.302"/><path d="M 313.364 292.602 A 0.299988 0.299988 0 0 0 313.664 292.302"/><path d="M 275.752 192.744 L 223.165 277.322"/><path d="M 276.007 192.602 A 0.299988 0.299988 0 0 0 275.752 192.744"/><path d="M 276.007 192.602 L 308.649 192.602"/><path d="M 308.649 192.602 A 0.299988 0.299988 0 0 0 308.949 192.302"/><path d="M 308.949 192.302 L 308.949 187.902"/><path d="M 308.949 187.902 A 0.299988 0.299988 0 0 0 308.649 187.602"/><path d="M 382.613 20.8742 L 279.234 187.144"/><path d="M 308.649 187.602 L 279.489 187.602"/><path d="M 279.234 187.144 A 0.299988 0.299988 0 0 0 279.489 187.602"/><path d="M 244.681 290.508 A 0.200012 0.200012 0 0 0 244.951 290.426"/><path d="M 250.883 279.31 L 244.951 290.426"/><path d="M 250.883 279.31 A 0.200012 0.200012 0 0 0 250.801 279.039"/><path d="M 250.272 278.757 L 250.801 279.039"/><path d="M 250.272 278.757 A 0.200012 0.200012 0 0 0 250.001 278.839"/><path d="M 244.681 290.508 L 244.151 290.226"/><path d="M 244.069 289.955 L 250.001 278.839"/><path d="M 244.069 289.955 A 0.200012 0.200012 0 0 0 244.151 290.226"/><path d="M 226.069 287.857 A 0.200012 0.200012 0 0 0 226.115 288.136"/><path d="M 226.602 288.486 L 226.115 288.136"/><path d="M 226.602 288.486 A 0.200012 0.200012 0 0 0 226.882 288.44"/><path d="M 236.558 274.952 L 226.882 288.44"/><path d="M 236.558 274.952 A 0.200012 0.200012 0 0 0 236.512 274.673"/><path d="M 226.069 287.857 L 235.746 274.369"/><path d="M 236.025 274.323 L 236.512 274.673"/><path d="M 236.025 274.323 A 0.200012 0.200012 0 0 0 235.746 274.369"/><path d="M 533.087 276.614 A 0.200012 0.200012 0 0 0 532.899 276.826"/><path d="M 547.417 274.807 A 0.200012 0.200012 0 0 0 547.256 275.039"/><path d="M 533.669 289.403 L 532.899 276.826"/><path d="M 533.669 289.403 A 0.200012 0.200012 0 0 0 533.881 289.59"/><path d="M 549.858 289.405 L 547.256 275.039"/><path d="M 549.858 289.405 A 0.200012 0.200012 0 0 0 550.091 289.567"/><path d="M 550.681 289.46 L 550.091 289.567"/><path d="M 550.681 289.46 A 0.200012 0.200012 0 0 0 550.842 289.227"/><path d="M 534.48 289.553 L 533.881 289.59"/><path d="M 534.48 289.553 A 0.200012 0.200012 0 0 0 534.668 289.342"/><path d="M 547.417 274.807 L 548.007 274.7"/><path d="M 548.24 274.861 L 550.842 289.227"/><path d="M 548.24 274.861 A 0.200012 0.200012 0 0 0 548.007 274.7"/><path d="M 533.898 276.765 L 534.667 289.341"/><path d="M 533.087 276.614 L 533.686 276.578"/><path d="M 533.898 276.765 A 0.200012 0.200012 0 0 0 533.686 276.578"/><circle cx="452.259" cy="566.966" r="3.20003"/><circle cx="658.526" cy="566.327" r="3.20003"/><circle cx="780.56" cy="292.236" r="3.20003"/><circle cx="483.974" cy="552.161" r="5.99997"/><circle cx="602.327" cy="497.863" r="3.20003"/><path d="M 789.28 272.833 L 789.971 273.556"/><path d="M 772.654 288.726 L 789.28 272.833"/><path d="M 773.345 289.449 L 772.654 288.726"/><path d="M 789.971 273.556 L 773.345 289.449"/><path d="M 789.655 294.262 L 779.963 301.339"/><path d="M 779.963 301.339 L 780.553 302.147"/><path d="M 780.553 302.147 L 790.244 295.07"/><path d="M 790.244 295.07 L 789.655 294.262"/><path d="M 671.846 557.385 L 671.915 558.383"/><path d="M 651.894 558.767 L 671.846 557.385"/><path d="M 651.963 559.765 L 651.894 558.767"/><path d="M 671.915 558.383 L 651.963 559.765"/><path d="M 652.661 573.973 L 652.724 572.975"/><path d="M 664.638 574.728 L 652.661 573.973"/><path d="M 664.701 573.73 L 664.638 574.728"/><path d="M 652.724 572.975 L 664.701 573.73"/><path d="M 799.661 278.836 A 9.99997 9.99997 0 0 0 784.108 267.099"/><path d="M 657.629 583.33 A 9.99997 9.99997 0 0 0 666.733 577.397"/><path d="M 657.629 583.33 L 432.946 584.026"/><path d="M 426.497 566.357 A 9.99997 9.99997 0 0 0 432.946 584.026"/><path d="M 693.812 516.578 L 666.733 577.397"/><path d="M 693.812 516.578 A 0.200014 0.200014 0 0 0 693.71 516.314"/><path d="M 675.805 508.342 L 693.71 516.314"/><path d="M 675.704 508.078 A 0.200014 0.200014 0 0 0 675.805 508.342"/><path d="M 675.704 508.078 L 677.941 503.053"/><path d="M 678.205 502.952 A 0.200014 0.200014 0 0 0 677.941 503.053"/><path d="M 696.11 510.924 L 678.205 502.952"/><path d="M 696.11 510.924 A 0.200014 0.200014 0 0 0 696.374 510.823"/><path d="M 764.637 357.502 L 696.374 510.823"/><path d="M 764.637 357.502 A 0.200014 0.200014 0 0 0 764.536 357.238"/><path d="M 746.63 349.266 L 764.536 357.238"/><path d="M 746.529 349.002 A 0.200014 0.200014 0 0 0 746.63 349.266"/><path d="M 746.529 349.002 L 748.766 343.978"/><path d="M 749.03 343.876 A 0.200014 0.200014 0 0 0 748.766 343.978"/><path d="M 799.661 278.836 L 767.199 351.747"/><path d="M 766.935 351.848 L 749.03 343.876"/><path d="M 766.935 351.848 A 0.200014 0.200014 0 0 0 767.199 351.747"/><path d="M 671.526 455.259 A 0.299987 0.299987 0 0 0 671.922 455.107"/><path d="M 671.922 455.107 L 673.711 451.088"/><path d="M 673.711 451.088 A 0.299987 0.299987 0 0 0 673.559 450.692"/><path d="M 649.235 445.335 L 671.526 455.259"/><path d="M 649.083 444.939 A 0.299987 0.299987 0 0 0 649.235 445.335"/><path d="M 673.559 450.692 L 651.269 440.767"/><path d="M 650.873 440.919 L 649.083 444.939"/><path d="M 651.269 440.767 A 0.299987 0.299987 0 0 0 650.873 440.919"/><path d="M 653.15 435.803 A 0.299987 0.299987 0 0 0 653.302 436.199"/><path d="M 657.218 426.668 A 0.299987 0.299987 0 0 0 657.37 427.064"/><path d="M 654.94 431.784 L 653.15 435.803"/><path d="M 655.336 431.632 A 0.299987 0.299987 0 0 0 654.94 431.784"/><path d="M 659.007 422.648 L 657.218 426.668"/><path d="M 659.404 422.496 A 0.299987 0.299987 0 0 0 659.007 422.648"/><path d="M 653.302 436.2 L 675.593 446.124"/><path d="M 675.593 446.124 A 0.299987 0.299987 0 0 0 675.989 445.972"/><path d="M 657.37 427.064 L 679.66 436.988"/><path d="M 679.66 436.988 A 0.299987 0.299987 0 0 0 680.056 436.836"/><path d="M 677.627 441.556 L 655.336 431.632"/><path d="M 675.989 445.972 L 677.779 441.952"/><path d="M 677.779 441.952 A 0.299987 0.299987 0 0 0 677.627 441.556"/><path d="M 681.694 432.421 L 659.404 422.496"/><path d="M 680.056 436.836 L 681.846 432.817"/><path d="M 681.846 432.817 A 0.299987 0.299987 0 0 0 681.694 432.421"/><path d="M 426.497 566.357 L 654.128 375.87"/><path d="M 654.595 376.222 A 0.299987 0.299987 0 0 0 654.128 375.87"/><path d="M 663.898 367.694 L 784.108 267.099"/><path d="M 663.898 367.694 A 0.299987 0.299987 0 0 0 663.817 367.802"/><path d="M 663.817 367.802 L 653.798 390.303"/><path d="M 653.402 390.455 A 0.299987 0.299987 0 0 0 653.798 390.303"/><path d="M 649.231 388.269 A 0.299987 0.299987 0 0 0 649.383 388.666"/><path d="M 653.402 390.455 L 649.383 388.666"/><path d="M 649.231 388.269 L 654.595 376.222"/><circle cx="726.195" cy="49.6425" r="3.20002"/><circle cx="775.476" cy="249.938" r="3.20002"/><circle cx="539.049" cy="434.655" r="3.20002"/><circle cx="719.503" cy="83.9967" r="5.99998"/><circle cx="695.45" cy="211.971" r="3.20002"/><path d="M 522.332 447.81 L 523.201 448.306"/><path d="M 533.731 427.833 L 522.332 447.81"/><path d="M 534.599 428.329 L 533.731 427.833"/><path d="M 523.201 448.306 L 534.599 428.329"/><path d="M 543.216 442.989 L 547.738 431.874"/><path d="M 547.738 431.874 L 548.664 432.251"/><path d="M 548.664 432.251 L 544.142 443.366"/><path d="M 544.142 443.366 L 543.216 442.989"/><path d="M 770.022 265.025 L 771.007 264.85"/><path d="M 766.536 245.331 L 770.022 265.025"/><path d="M 767.521 245.157 L 766.536 245.331"/><path d="M 771.007 264.85 L 767.521 245.157"/><path d="M 781.476 242.397 L 780.523 242.7"/><path d="M 785.106 253.835 L 781.476 242.397"/><path d="M 784.153 254.137 L 785.106 253.835"/><path d="M 780.523 242.7 L 784.153 254.137"/><path d="M 515.518 444.179 A 9.99997 9.99997 0 0 0 530.668 456.431"/><path d="M 788.203 255.223 A 9.99997 9.99997 0 0 0 791.757 244.953"/><path d="M 791.757 244.953 L 738.076 26.7759"/><path d="M 738.076 26.7759 A 9.99997 9.99997 0 0 0 719.372 24.7934"/><path d="M 735.741 296.21 L 788.203 255.223"/><path d="M 735.46 296.176 A 0.200005 0.200005 0 0 0 735.741 296.21"/><path d="M 723.393 280.731 L 735.46 296.176"/><path d="M 723.393 280.731 A 0.200005 0.200005 0 0 0 723.113 280.696"/><path d="M 723.113 280.696 L 718.779 284.083"/><path d="M 718.779 284.083 A 0.200005 0.200005 0 0 0 718.744 284.363"/><path d="M 730.811 299.808 L 718.744 284.363"/><path d="M 730.777 300.089 A 0.200005 0.200005 0 0 0 730.811 299.808"/><path d="M 598.525 403.415 L 730.777 300.089"/><path d="M 598.244 403.381 A 0.200005 0.200005 0 0 0 598.525 403.415"/><path d="M 586.177 387.936 L 598.244 403.381"/><path d="M 586.177 387.936 A 0.200005 0.200005 0 0 0 585.896 387.901"/><path d="M 585.896 387.901 L 581.562 391.288"/><path d="M 581.562 391.288 A 0.200005 0.200005 0 0 0 581.528 391.568"/><path d="M 530.668 456.431 L 593.56 407.294"/><path d="M 593.595 407.013 L 581.528 391.568"/><path d="M 593.56 407.294 A 0.200005 0.200005 0 0 0 593.595 407.013"/><path d="M 670.801 289.842 A 0.299977 0.299977 0 0 0 670.852 289.42"/><path d="M 670.801 289.842 L 667.333 292.55"/><path d="M 666.912 292.499 A 0.299977 0.299977 0 0 0 667.333 292.55"/><path d="M 655.83 270.193 L 670.852 289.42"/><path d="M 655.83 270.193 A 0.299977 0.299977 0 0 0 655.409 270.141"/><path d="M 666.912 292.499 L 651.89 273.271"/><path d="M 651.942 272.85 L 655.409 270.141"/><path d="M 651.942 272.85 A 0.299977 0.299977 0 0 0 651.89 273.271"/><path d="M 647.95 276.35 A 0.299977 0.299977 0 0 0 647.529 276.298"/><path d="M 640.07 282.506 A 0.299977 0.299977 0 0 0 639.649 282.454"/><path d="M 644.062 279.007 L 647.529 276.298"/><path d="M 644.062 279.007 A 0.299977 0.299977 0 0 0 644.01 279.428"/><path d="M 636.182 285.163 L 639.649 282.454"/><path d="M 636.182 285.163 A 0.299977 0.299977 0 0 0 636.13 285.585"/><path d="M 647.95 276.35 L 662.972 295.577"/><path d="M 662.921 295.998 A 0.299977 0.299977 0 0 0 662.972 295.577"/><path d="M 640.07 282.506 L 655.092 301.734"/><path d="M 655.04 302.155 A 0.299977 0.299977 0 0 0 655.092 301.734"/><path d="M 659.032 298.655 L 644.01 279.428"/><path d="M 662.921 295.998 L 659.453 298.707"/><path d="M 659.032 298.655 A 0.299977 0.299977 0 0 0 659.453 298.707"/><path d="M 651.152 304.812 L 636.13 285.585"/><path d="M 655.04 302.155 L 651.573 304.864"/><path d="M 651.152 304.812 A 0.299977 0.299977 0 0 0 651.573 304.864"/><path d="M 719.372 24.7933 L 589.612 291.746"/><path d="M 589.612 291.746 A 0.299977 0.299977 0 0 0 590.067 292.113"/><path d="M 584.043 303.203 L 515.518 444.179"/><path d="M 584.128 303.098 A 0.299977 0.299977 0 0 0 584.043 303.203"/><path d="M 584.128 303.098 L 603.537 287.934"/><path d="M 603.537 287.934 A 0.299977 0.299977 0 0 0 603.589 287.513"/><path d="M 600.88 284.046 A 0.299977 0.299977 0 0 0 600.459 283.994"/><path d="M 603.589 287.513 L 600.88 284.046"/><path d="M 600.459 283.994 L 590.067 292.113"/><path d="M 583.015 210.765 A 0.5 0.5 0 0 0 583.693 210.889"/><path d="M 583.015 210.765 A 10 10 0 0 0 566.303 221.711"/><path d="M 566.146 222.383 A 0.5 0.5 0 0 0 566.303 221.711"/><path d="M 566.146 222.383 L 562.076 225.049"/><path d="M 561.384 224.905 A 0.5 0.5 0 0 0 562.076 225.049"/><path d="M 561.384 224.905 L 525.243 169.729"/><path d="M 525.387 169.037 A 0.5 0.5 0 0 0 525.243 169.729"/><path d="M 553.518 151.209 A 0.5 0.5 0 0 0 552.825 151.065"/><path d="M 589.514 207.077 L 583.693 210.889"/><path d="M 589.514 207.077 A 0.5 0.5 0 0 0 589.658 206.384"/><path d="M 562.396 202.724 A 0.5 0.5 0 0 0 563.088 202.868"/><path d="M 559.656 198.541 A 0.5 0.5 0 0 0 560.348 198.686"/><path d="M 557.609 194.503 L 565.388 189.407"/><path d="M 556.916 194.359 A 0.5 0.5 0 0 0 557.609 194.503"/><path d="M 556.369 193.522 L 556.916 194.359"/><path d="M 556.513 192.83 A 0.5 0.5 0 0 0 556.369 193.522"/><path d="M 565.388 189.407 L 564.566 188.153"/><path d="M 563.874 188.008 L 556.513 192.83"/><path d="M 564.566 188.153 A 0.5 0.5 0 0 0 563.874 188.008"/><path d="M 567.306 192.335 A 0.5 0.5 0 0 0 566.614 192.191"/><path d="M 570.046 196.518 A 0.5 0.5 0 0 0 569.354 196.373"/><path d="M 559.108 197.705 L 559.656 198.541"/><path d="M 566.614 192.191 L 559.253 197.013"/><path d="M 559.252 197.013 A 0.5 0.5 0 0 0 559.108 197.705"/><path d="M 562.396 202.724 L 561.848 201.887"/><path d="M 561.992 201.195 L 569.354 196.373"/><path d="M 561.992 201.195 A 0.5 0.5 0 0 0 561.848 201.887"/><path d="M 570.449 198.047 L 563.088 202.868"/><path d="M 570.046 196.518 L 570.594 197.354"/><path d="M 570.449 198.047 A 0.5 0.5 0 0 0 570.594 197.354"/><path d="M 560.348 198.686 L 567.71 193.864"/><path d="M 567.854 193.172 L 567.306 192.335"/><path d="M 567.71 193.864 A 0.5 0.5 0 0 0 567.854 193.172"/><path d="M 579.248 190.491 L 589.658 206.384"/><path d="M 579.248 190.491 A 0.5 0.5 0 0 0 578.555 190.346"/><path d="M 553.518 151.209 L 577.604 187.981"/><path d="M 577.459 188.673 A 0.5 0.5 0 0 0 577.604 187.981"/><path d="M 578.555 190.346 L 575.209 192.538"/><path d="M 574.517 192.394 A 0.5 0.5 0 0 0 575.209 192.538"/><path d="M 574.113 190.865 L 577.459 188.673"/><path d="M 574.517 192.394 L 573.969 191.557"/><path d="M 574.113 190.865 A 0.5 0.5 0 0 0 573.969 191.557"/><path d="M 560.082 176.197 A 0.200012 0.200012 0 0 0 560.14 175.92"/><path d="M 546.719 155.064 L 552.825 151.065"/><path d="M 560.14 175.92 L 546.661 155.341"/><path d="M 546.719 155.064 A 0.200012 0.200012 0 0 0 546.661 155.341"/><path d="M 541.726 158.574 A 0.200012 0.200012 0 0 0 541.449 158.516"/><path d="M 538.437 160.489 L 541.449 158.516"/><path d="M 538.437 160.489 A 0.200012 0.200012 0 0 0 538.379 160.766"/><path d="M 551.859 181.344 L 538.379 160.766"/><path d="M 551.801 181.621 A 0.200012 0.200012 0 0 0 551.859 181.344"/><path d="M 525.387 169.037 L 533.167 163.941"/><path d="M 533.444 163.999 A 0.200012 0.200012 0 0 0 533.167 163.941"/><path d="M 555.482 179.21 L 560.082 176.197"/><path d="M 541.726 158.574 L 555.205 179.153"/><path d="M 555.205 179.153 A 0.200012 0.200012 0 0 0 555.482 179.21"/><path d="M 546.923 184.577 A 0.200012 0.200012 0 0 0 547.2 184.635"/><path d="M 547.2 184.635 L 551.801 181.621"/><path d="M 533.444 163.999 L 546.923 184.577"/><path d="M 643.162 160.472 A 0.5 0.5 0 0 0 643.812 160.24"/><path d="M 643.162 160.472 A 10 10 0 0 0 634.162 178.307"/><path d="M 634.362 178.968 A 0.5 0.5 0 0 0 634.162 178.307"/><path d="M 634.362 178.968 L 632.17 183.312"/><path d="M 631.499 183.533 A 0.5 0.5 0 0 0 632.17 183.312"/><path d="M 631.499 183.533 L 572.612 153.82"/><path d="M 572.391 153.148 A 0.5 0.5 0 0 0 572.612 153.82"/><path d="M 587.839 123.643 A 0.5 0.5 0 0 0 587.167 123.865"/><path d="M 646.946 154.028 L 643.812 160.24"/><path d="M 646.946 154.028 A 0.5 0.5 0 0 0 646.725 153.357"/><path d="M 621.285 163.818 A 0.5 0.5 0 0 0 621.957 163.597"/><path d="M 616.821 161.565 A 0.5 0.5 0 0 0 617.493 161.344"/><path d="M 613.029 159.092 L 617.218 150.789"/><path d="M 612.357 159.313 A 0.5 0.5 0 0 0 613.029 159.092"/><path d="M 611.464 158.863 L 612.357 159.313"/><path d="M 611.243 158.191 A 0.5 0.5 0 0 0 611.464 158.863"/><path d="M 617.218 150.789 L 615.879 150.113"/><path d="M 615.207 150.334 L 611.243 158.191"/><path d="M 615.879 150.113 A 0.5 0.5 0 0 0 615.207 150.334"/><path d="M 620.343 152.366 A 0.5 0.5 0 0 0 619.671 152.587"/><path d="M 624.807 154.618 A 0.5 0.5 0 0 0 624.135 154.839"/><path d="M 615.928 161.115 L 616.821 161.565"/><path d="M 619.671 152.587 L 615.707 160.443"/><path d="M 615.707 160.443 A 0.5 0.5 0 0 0 615.928 161.115"/><path d="M 621.285 163.818 L 620.392 163.367"/><path d="M 620.171 162.696 L 624.135 154.839"/><path d="M 620.171 162.696 A 0.5 0.5 0 0 0 620.392 163.367"/><path d="M 625.921 155.74 L 621.957 163.597"/><path d="M 624.807 154.618 L 625.7 155.069"/><path d="M 625.921 155.74 A 0.5 0.5 0 0 0 625.7 155.069"/><path d="M 617.493 161.344 L 621.457 153.488"/><path d="M 621.236 152.816 L 620.343 152.366"/><path d="M 621.457 153.488 A 0.5 0.5 0 0 0 621.236 152.816"/><path d="M 629.762 144.797 L 646.725 153.357"/><path d="M 629.762 144.797 A 0.5 0.5 0 0 0 629.091 145.019"/><path d="M 587.839 123.643 L 627.084 143.446"/><path d="M 627.305 144.118 A 0.5 0.5 0 0 0 627.084 143.446"/><path d="M 629.091 145.019 L 627.289 148.59"/><path d="M 626.617 148.811 A 0.5 0.5 0 0 0 627.289 148.59"/><path d="M 625.503 147.689 L 627.305 144.118"/><path d="M 626.617 148.811 L 625.724 148.36"/><path d="M 625.503 147.689 A 0.5 0.5 0 0 0 625.724 148.36"/><path d="M 606.018 142.001 A 0.200012 0.200012 0 0 0 605.929 141.733"/><path d="M 583.878 130.382 L 587.167 123.865"/><path d="M 605.929 141.733 L 583.967 130.651"/><path d="M 583.878 130.382 A 0.200012 0.200012 0 0 0 583.967 130.651"/><path d="M 581.309 135.918 A 0.200012 0.200012 0 0 0 581.04 136.007"/><path d="M 579.419 139.221 L 581.04 136.007"/><path d="M 579.419 139.221 A 0.200012 0.200012 0 0 0 579.507 139.489"/><path d="M 601.47 150.571 L 579.507 139.489"/><path d="M 601.558 150.84 A 0.200012 0.200012 0 0 0 601.47 150.571"/><path d="M 572.391 153.148 L 576.581 144.845"/><path d="M 576.849 144.757 A 0.200012 0.200012 0 0 0 576.581 144.845"/><path d="M 603.54 146.911 L 606.018 142.001"/><path d="M 581.309 135.918 L 603.272 147"/><path d="M 603.272 147 A 0.200012 0.200012 0 0 0 603.54 146.911"/><path d="M 598.812 155.839 A 0.200012 0.200012 0 0 0 599.08 155.75"/><path d="M 599.08 155.75 L 601.558 150.84"/><path d="M 576.849 144.757 L 598.812 155.839"/><path d="M 425.794 20.6008 A 0.5 0.5 0 0 0 426.242 21.1263"/><path d="M 425.118 41.0719 A 10 10 0 0 0 426.242 21.1262"/><path d="M 425.118 41.0719 A 0.5 0.5 0 0 0 424.614 41.5438"/><path d="M 424.614 41.5438 L 424.34 46.4018"/><path d="M 424.34 46.4018 A 0.5 0.5 0 0 0 424.811 46.9291"/><path d="M 424.811 46.9291 L 490.665 50.64"/><path d="M 490.665 50.64 A 0.5 0.5 0 0 0 491.193 50.1689"/><path d="M 493.038 17.4209 A 0.5 0.5 0 0 0 492.567 16.8936"/><path d="M 426.186 13.6537 L 425.794 20.6008"/><path d="M 426.713 13.1827 A 0.5 0.5 0 0 0 426.186 13.6537"/><path d="M 443.043 34.4351 A 0.5 0.5 0 0 0 443.514 34.9624"/><path d="M 448.035 34.7164 A 0.5 0.5 0 0 0 448.506 35.2437"/><path d="M 453.027 34.9977 L 453.551 25.7124"/><path d="M 453.027 34.9977 A 0.5 0.5 0 0 0 453.499 35.525"/><path d="M 454.497 35.5813 L 453.499 35.525"/><path d="M 454.497 35.5813 A 0.5 0.5 0 0 0 455.024 35.1102"/><path d="M 453.551 25.7124 L 455.048 25.7968"/><path d="M 455.519 26.3242 L 455.024 35.1102"/><path d="M 455.519 26.3242 A 0.5 0.5 0 0 0 455.048 25.7968"/><path d="M 450.527 26.0428 A 0.5 0.5 0 0 0 450.056 25.5155"/><path d="M 445.535 25.7615 A 0.5 0.5 0 0 0 445.064 25.2342"/><path d="M 449.505 35.3 L 448.506 35.2437"/><path d="M 450.527 26.0428 L 450.032 34.8289"/><path d="M 449.505 35.3 A 0.5 0.5 0 0 0 450.032 34.8289"/><path d="M 443.514 34.9624 L 444.513 35.0187"/><path d="M 445.04 34.5476 L 445.535 25.7615"/><path d="M 444.513 35.0187 A 0.5 0.5 0 0 0 445.04 34.5476"/><path d="M 443.538 25.649 L 443.043 34.4351"/><path d="M 445.064 25.2342 L 444.066 25.1779"/><path d="M 444.066 25.1779 A 0.5 0.5 0 0 0 443.538 25.649"/><path d="M 448.035 34.7164 L 448.53 25.9303"/><path d="M 449.058 25.4592 L 450.056 25.5155"/><path d="M 449.058 25.4592 A 0.5 0.5 0 0 0 448.53 25.9303"/><path d="M 445.683 14.2516 L 426.713 13.1827"/><path d="M 446.154 14.779 A 0.5 0.5 0 0 0 445.683 14.2516"/><path d="M 492.567 16.8936 L 448.678 14.4204"/><path d="M 448.678 14.4204 A 0.5 0.5 0 0 0 448.151 14.8915"/><path d="M 446.154 14.7789 L 445.929 18.7726"/><path d="M 445.929 18.7726 A 0.5 0.5 0 0 0 446.4 19.3"/><path d="M 447.926 18.8851 L 448.151 14.8915"/><path d="M 446.4 19.3 L 447.399 19.3562"/><path d="M 447.398 19.3562 A 0.5 0.5 0 0 0 447.926 18.8851"/><path d="M 467.855 23.5137 A 0.200012 0.200012 0 0 0 467.644 23.7022"/><path d="M 492.627 24.7094 L 493.038 17.4209"/><path d="M 467.855 23.5137 L 492.416 24.8978"/><path d="M 492.416 24.8978 A 0.200012 0.200012 0 0 0 492.627 24.7093"/><path d="M 492.273 30.9993 A 0.200012 0.200012 0 0 0 492.084 30.7884"/><path d="M 492.07 34.5937 L 492.273 30.9994"/><path d="M 491.859 34.7821 A 0.200012 0.200012 0 0 0 492.07 34.5936"/><path d="M 467.298 33.3981 L 491.859 34.7821"/><path d="M 467.298 33.398 A 0.200012 0.200012 0 0 0 467.087 33.5865"/><path d="M 491.193 50.1689 L 491.716 40.8837"/><path d="M 491.716 40.8837 A 0.200012 0.200012 0 0 0 491.527 40.6727"/><path d="M 467.335 29.1935 L 467.644 23.7021"/><path d="M 492.084 30.7885 L 467.523 29.4044"/><path d="M 467.335 29.1935 A 0.200012 0.200012 0 0 0 467.523 29.4044"/><path d="M 491.527 40.6727 L 466.966 39.2887"/><path d="M 466.778 39.0778 L 467.087 33.5865"/><path d="M 466.778 39.0778 A 0.200012 0.200012 0 0 0 466.966 39.2888"/><path d="M 506.183 23.2341 A 0.5 0.5 0 0 0 506.63 23.7595"/><path d="M 505.506 43.7051 A 10 10 0 0 0 506.63 23.7595"/><path d="M 505.506 43.7051 A 0.5 0.5 0 0 0 505.003 44.177"/><path d="M 505.003 44.177 L 504.729 49.035"/><path d="M 504.729 49.035 A 0.5 0.5 0 0 0 505.2 49.5624"/><path d="M 505.2 49.5624 L 571.054 53.2733"/><path d="M 571.054 53.2733 A 0.5 0.5 0 0 0 571.581 52.8022"/><path d="M 573.426 20.0541 A 0.5 0.5 0 0 0 572.955 19.5268"/><path d="M 506.574 16.287 L 506.183 23.2341"/><path d="M 507.102 15.8159 A 0.5 0.5 0 0 0 506.574 16.287"/><path d="M 523.432 37.0683 A 0.5 0.5 0 0 0 523.903 37.5956"/><path d="M 528.424 37.3496 A 0.5 0.5 0 0 0 528.895 37.877"/><path d="M 533.416 37.6309 L 533.939 28.3456"/><path d="M 533.416 37.6309 A 0.5 0.5 0 0 0 533.887 38.1583"/><path d="M 534.885 38.2145 L 533.887 38.1583"/><path d="M 534.885 38.2145 A 0.5 0.5 0 0 0 535.413 37.7435"/><path d="M 533.939 28.3456 L 535.437 28.4301"/><path d="M 535.908 28.9574 L 535.413 37.7435"/><path d="M 535.908 28.9574 A 0.5 0.5 0 0 0 535.437 28.4301"/><path d="M 530.916 28.6761 A 0.5 0.5 0 0 0 530.445 28.1487"/><path d="M 525.924 28.3948 A 0.5 0.5 0 0 0 525.453 27.8674"/><path d="M 529.893 37.9332 L 528.895 37.877"/><path d="M 530.916 28.6761 L 530.421 37.4622"/><path d="M 529.893 37.9332 A 0.5 0.5 0 0 0 530.421 37.4622"/><path d="M 523.903 37.5956 L 524.901 37.6519"/><path d="M 525.429 37.1808 L 525.924 28.3948"/><path d="M 524.901 37.6519 A 0.5 0.5 0 0 0 525.429 37.1808"/><path d="M 523.927 28.2822 L 523.432 37.0683"/><path d="M 525.453 27.8674 L 524.454 27.8112"/><path d="M 524.454 27.8112 A 0.5 0.5 0 0 0 523.927 28.2822"/><path d="M 528.424 37.3496 L 528.919 28.5635"/><path d="M 529.446 28.0925 L 530.445 28.1487"/><path d="M 529.446 28.0925 A 0.5 0.5 0 0 0 528.919 28.5635"/><path d="M 526.071 16.8849 L 507.102 15.8159"/><path d="M 526.543 17.4122 A 0.5 0.5 0 0 0 526.071 16.8849"/><path d="M 572.955 19.5268 L 529.067 17.0536"/><path d="M 529.067 17.0536 A 0.5 0.5 0 0 0 528.539 17.5247"/><path d="M 526.543 17.4122 L 526.318 21.4059"/><path d="M 526.318 21.4059 A 0.5 0.5 0 0 0 526.789 21.9332"/><path d="M 528.314 21.5184 L 528.539 17.5247"/><path d="M 526.789 21.9332 L 527.787 21.9894"/><path d="M 527.787 21.9894 A 0.5 0.5 0 0 0 528.314 21.5184"/><path d="M 548.244 26.147 A 0.200012 0.200012 0 0 0 548.033 26.3354"/><path d="M 573.016 27.3426 L 573.426 20.0541"/><path d="M 548.244 26.147 L 572.805 27.531"/><path d="M 572.805 27.531 A 0.200012 0.200012 0 0 0 573.016 27.3425"/><path d="M 572.661 33.6326 A 0.200012 0.200012 0 0 0 572.473 33.4216"/><path d="M 572.459 37.2269 L 572.661 33.6326"/><path d="M 572.248 37.4153 A 0.200012 0.200012 0 0 0 572.459 37.2269"/><path d="M 547.687 36.0313 L 572.248 37.4153"/><path d="M 547.687 36.0313 A 0.200012 0.200012 0 0 0 547.476 36.2197"/><path d="M 571.581 52.8022 L 572.104 43.5169"/><path d="M 572.104 43.5169 A 0.200012 0.200012 0 0 0 571.916 43.306"/><path d="M 547.723 31.8267 L 548.033 26.3354"/><path d="M 572.473 33.4217 L 547.912 32.0377"/><path d="M 547.723 31.8267 A 0.200012 0.200012 0 0 0 547.912 32.0377"/><path d="M 571.916 43.306 L 547.355 41.9219"/><path d="M 547.166 41.711 L 547.476 36.2197"/><path d="M 547.166 41.7111 A 0.200012 0.200012 0 0 0 547.355 41.922"/><path d="M 608.395 25.3699 A 0.5 0.5 0 0 0 608.902 25.8426"/><path d="M 610.262 50.787 A 12.5 12.5 0 0 0 608.902 25.8425"/><path d="M 610.262 50.787 A 0.5 0.5 0 0 0 609.809 51.3121"/><path d="M 608.395 25.3699 L 608.175 21.3408"/><path d="M 608.458 21.0248 A 0.299988 0.299988 0 0 0 608.175 21.3408"/><path d="M 609.983 54.4915 L 609.809 51.3121"/><path d="M 609.983 54.4915 A 0.299988 0.299988 0 0 0 610.299 54.7747"/><path d="M 682.312 50.8472 L 610.299 54.7747"/><path d="M 682.312 50.8472 A 0.5 0.5 0 0 0 682.784 50.3207"/><path d="M 680.998 17.5693 A 0.5 0.5 0 0 0 680.471 17.0973"/><path d="M 608.458 21.0248 L 625.633 20.0882"/><path d="M 626.159 20.5602 A 0.5 0.5 0 0 0 625.633 20.0882"/><path d="M 626.159 20.5602 L 626.377 24.5543"/><path d="M 626.377 24.5543 A 0.5 0.5 0 0 0 626.903 25.0263"/><path d="M 626.903 25.0263 L 628.9 24.9174"/><path d="M 628.9 24.9174 A 0.5 0.5 0 0 0 629.372 24.3909"/><path d="M 629.627 19.8704 L 680.471 17.0974"/><path d="M 629.372 24.3909 L 629.155 20.3969"/><path d="M 629.627 19.8704 A 0.5 0.5 0 0 0 629.155 20.3969"/><path d="M 638.141 39.7361 A 0.5 0.5 0 0 0 638.668 40.2082"/><path d="M 638.668 40.2081 L 639.667 40.1537"/><path d="M 639.667 40.1537 A 0.5 0.5 0 0 0 640.139 39.6272"/><path d="M 637.651 30.7495 L 638.141 39.7361"/><path d="M 638.123 30.223 A 0.5 0.5 0 0 0 637.651 30.7495"/><path d="M 640.139 39.6272 L 639.648 30.6406"/><path d="M 639.122 30.1685 L 638.123 30.223"/><path d="M 639.648 30.6406 A 0.5 0.5 0 0 0 639.122 30.1685"/><path d="M 657.293 41.9965 A 0.199982 0.199982 0 0 0 657.504 42.1854"/><path d="M 682.278 41.0345 L 682.784 50.3207"/><path d="M 657.504 42.1854 L 682.067 40.8457"/><path d="M 682.278 41.0345 A 0.199982 0.199982 0 0 0 682.067 40.8457"/><path d="M 681.739 31.1492 A 0.199982 0.199982 0 0 0 681.528 30.9604"/><path d="M 656.964 32.3 L 681.528 30.9604"/><path d="M 656.754 32.1112 A 0.199982 0.199982 0 0 0 656.964 32.3"/><path d="M 681.739 31.1492 L 681.935 34.7438"/><path d="M 681.746 34.9545 A 0.199982 0.199982 0 0 0 681.935 34.7439"/><path d="M 680.998 17.5693 L 681.396 24.8585"/><path d="M 681.207 25.0692 A 0.199982 0.199982 0 0 0 681.396 24.8586"/><path d="M 656.454 26.6194 L 656.754 32.1112"/><path d="M 681.207 25.0691 L 656.643 26.4088"/><path d="M 656.643 26.4088 A 0.199982 0.199982 0 0 0 656.454 26.6194"/><path d="M 657.182 36.2941 A 0.199982 0.199982 0 0 0 656.993 36.5046"/><path d="M 681.746 34.9545 L 657.182 36.2941"/><path d="M 656.994 36.5047 L 657.293 41.9965"/><path d="M 496.62 85.4561 A 0.5 0.5 0 0 0 497.128 85.9288"/><path d="M 498.488 110.873 A 12.5 12.5 0 0 0 497.128 85.9289"/><path d="M 498.488 110.873 A 0.5 0.5 0 0 0 498.035 111.398"/><path d="M 496.621 85.4561 L 496.401 81.427"/><path d="M 496.684 81.1111 A 0.299988 0.299988 0 0 0 496.401 81.4271"/><path d="M 498.209 114.578 L 498.035 111.398"/><path d="M 498.209 114.578 A 0.299988 0.299988 0 0 0 498.525 114.861"/><path d="M 570.538 110.933 L 498.525 114.861"/><path d="M 570.538 110.933 A 0.5 0.5 0 0 0 571.01 110.407"/><path d="M 569.224 77.6556 A 0.5 0.5 0 0 0 568.697 77.1836"/><path d="M 496.684 81.1111 L 513.858 80.1744"/><path d="M 514.385 80.6465 A 0.5 0.5 0 0 0 513.858 80.1744"/><path d="M 514.385 80.6465 L 514.603 84.6406"/><path d="M 514.603 84.6406 A 0.5 0.5 0 0 0 515.129 85.1126"/><path d="M 515.129 85.1126 L 517.126 85.0037"/><path d="M 517.126 85.0037 A 0.5 0.5 0 0 0 517.598 84.4772"/><path d="M 517.853 79.9566 L 568.697 77.1836"/><path d="M 517.598 84.4772 L 517.38 80.4831"/><path d="M 517.853 79.9566 A 0.5 0.5 0 0 0 517.38 80.4831"/><path d="M 526.367 99.8224 A 0.5 0.5 0 0 0 526.894 100.294"/><path d="M 526.894 100.294 L 527.892 100.24"/><path d="M 527.892 100.24 A 0.5 0.5 0 0 0 528.364 99.7135"/><path d="M 525.877 90.8358 L 526.367 99.8224"/><path d="M 526.349 90.3093 A 0.5 0.5 0 0 0 525.877 90.8358"/><path d="M 528.364 99.7135 L 527.874 90.7268"/><path d="M 527.348 90.2548 L 526.349 90.3093"/><path d="M 527.874 90.7269 A 0.5 0.5 0 0 0 527.348 90.2548"/><path d="M 545.519 102.083 A 0.200012 0.200012 0 0 0 545.729 102.272"/><path d="M 570.504 101.121 L 571.01 110.407"/><path d="M 545.729 102.272 L 570.293 100.932"/><path d="M 570.504 101.121 A 0.200012 0.200012 0 0 0 570.293 100.932"/><path d="M 569.964 91.2354 A 0.200012 0.200012 0 0 0 569.754 91.0466"/><path d="M 545.19 92.3863 L 569.754 91.0466"/><path d="M 544.98 92.1975 A 0.200012 0.200012 0 0 0 545.19 92.3863"/><path d="M 569.964 91.2355 L 570.161 94.8301"/><path d="M 569.972 95.0407 A 0.200012 0.200012 0 0 0 570.161 94.8301"/><path d="M 569.224 77.6556 L 569.621 84.9448"/><path d="M 569.433 85.1554 A 0.200012 0.200012 0 0 0 569.621 84.9448"/><path d="M 544.68 86.7057 L 544.98 92.1975"/><path d="M 569.433 85.1554 L 544.869 86.4951"/><path d="M 544.869 86.4951 A 0.200012 0.200012 0 0 0 544.68 86.7057"/><path d="M 545.408 96.3804 A 0.200012 0.200012 0 0 0 545.219 96.591"/><path d="M 569.972 95.0407 L 545.408 96.3804"/><path d="M 545.219 96.591 L 545.519 102.083"/><circle cx="9.90422" cy="584.857" r="1.58174"/><circle cx="9.90422" cy="3.8335" r="2.35525"/><circle cx="400.237" cy="313.96" r="2.95078"/><circle cx="135.809" cy="321.294" r="1.48535"/><circle cx="63.7949" cy="218.735" r="1.61041"/><circle cx="391.104" cy="279.167" r="3.10971"/><circle cx="448.715" cy="42.2111" r="1.7666"/><circle cx="528.94" cy="45.2744" r="1.82629"/></g><g stroke="rgb(0, 0, 0)" stroke-width="0.1" stroke-linecap="butt" stroke-linejoin="miter" fill="none"><path d="M 9.65365 4.021 L 10.0286 4.021 L 10.0286 3.646 L 9.65365 3.646 L 9.65365 4.021 z" stroke="none" fill-rule="evenodd" fill="rgb(0, 0, 0)"/></g><g stroke="rgb(0, 0, 0)" stroke-width="0.1" stroke-linecap="butt" stroke-linejoin="miter" fill="none"><path d="M 9.71672 585.045 L 10.0917 585.045 L 10.0917 584.67 L 9.71672 584.67 L 9.71672 585.045 z" stroke="none" fill-rule="evenodd" fill="rgb(0, 0, 0)"/></g><g stroke="rgb(0, 0, 0)" stroke-width="0.1" stroke-linecap="butt" stroke-linejoin="miter" fill="none"><path d="M 795.511 4.021 L 795.886 4.021 L 795.886 3.646 L 795.511 3.646 L 795.511 4.021 z" stroke="none" fill-rule="evenodd" fill="rgb(0, 0, 0)"/></g><g stroke="rgb(0, 0, 0)" stroke-width="0.13" stroke-linecap="butt" stroke-linejoin="miter" fill="none"><path d="M 4.06217 304.937 L 4.47571 304.826 L 4.79845 304.579 L 5.00014 304.216 L 5.07573 303.752 L 4.9849 303.242 L 4.73774 302.844 L 4.34434 302.592 L 3.84001 302.496 L 3.371 302.582 L 3.00287 302.824 L 2.76588 303.202 L 2.68019 303.691 L 2.74075 304.07 L 2.90721 304.362 L 1.96411 304.221 L 1.96395 302.688 L 1.5504 302.688 L 1.55061 304.559 L 3.40654 304.836 L 3.4065 304.433 L 3.16944 304.14 L 3.08366 303.767 L 3.1391 303.444 L 3.30046 303.197 L 3.54756 303.041 L 3.86528 302.985 L 4.18301 303.041 L 4.43014 303.202 L 4.58651 303.449 L 4.64202 303.767 L 4.60674 304.034 L 4.49077 304.241 L 4.30923 304.392 L 4.06212 304.468 L 4.06217 304.937 L 4.06217 304.937 z M 3.08836 300.576 L 3.2296 300.833 L 3.4263 301.009 L 3.67343 301.12 L 3.97099 301.155 L 4.41982 301.075 L 4.76778 300.843 L 4.98964 300.464 L 5.07532 299.95 L 4.98953 299.441 L 4.76759 299.062 L 4.41958 298.831 L 3.97072 298.745 L 3.67318 298.785 L 3.42607 298.891 L 3.22941 299.073 L 3.08822 299.325 L 2.96716 299.123 L 2.80072 298.982 L 2.59898 298.896 L 2.35186 298.866 L 1.9938 298.947 L 1.70636 299.159 L 1.5198 299.502 L 1.44924 299.95 L 1.5199 300.404 L 1.70653 300.747 L 1.99402 300.964 L 2.3521 301.04 L 2.59921 301.014 L 2.80093 300.929 L 3.08836 300.576 L 3.08836 300.576 z M 3.96085 300.671 L 3.69355 300.626 L 3.49181 300.48 L 3.36066 300.253 L 3.31524 299.95 L 3.36059 299.653 L 3.49169 299.426 L 3.6934 299.279 L 3.96069 299.229 L 4.24816 299.279 L 4.46503 299.426 L 4.60627 299.653 L 4.65169 299.95 L 4.60633 300.253 L 4.46515 300.48 L 4.24831 300.626 L 3.96085 300.671 L 3.96085 300.671 z M 2.39239 300.561 L 2.17048 300.52 L 1.999 300.399 L 1.89307 300.208 L 1.8527 299.95 L 1.89302 299.698 L 1.9989 299.507 L 2.17036 299.385 L 2.39226 299.34 L 2.61921 299.385 L 2.79573 299.506 L 2.91175 299.698 L 2.94708 299.95 L 2.90676 300.207 L 2.79583 300.399 L 2.61933 300.52 L 2.39239 300.561 L 2.39239 300.561 z M 4.97406 296.305 L 4.97401 295.846 L 1.4488 295.846 L 1.44883 296.189 L 1.75648 296.28 L 1.96327 296.461 L 2.08434 296.739 L 2.12473 297.122 L 2.4828 297.122 L 2.48271 296.305 L 4.97406 296.305 L 4.97406 296.305 z M 4.97368 292.826 L 4.97361 292.13 L 4.22217 292.13 L 4.22224 292.826 L 4.97368 292.826 L 4.97368 292.826 z M 3.26372 289.958 L 4.0555 289.882 L 4.62031 289.645 L 4.96321 289.266 L 5.07411 288.742 L 4.9631 288.223 L 4.62012 287.844 L 4.05525 287.612 L 3.26346 287.532 L 2.47672 287.613 L 2.16405 287.708 L 1.90686 287.845 L 1.56396 288.223 L 1.44803 288.742 L 1.56408 289.267 L 1.9121 289.645 L 2.47697 289.882 L 3.26372 289.958 L 3.26372 289.958 z M 3.26367 289.473 L 2.65343 289.433 L 2.21466 289.307 L 1.95743 289.08 L 1.86661 288.742 L 1.95736 288.409 L 2.21453 288.182 L 2.65328 288.056 L 3.26351 288.016 L 3.87879 288.056 L 4.31756 288.182 L 4.57479 288.409 L 4.66056 288.742 L 4.57486 289.08 L 4.31768 289.307 L 3.87894 289.433 L 3.26367 289.473 L 3.26367 289.473 z M 4.97297 286.236 L 4.97271 283.831 L 4.53899 283.831 L 4.5392 285.732 L 4.30215 285.626 L 4.10545 285.445 L 3.74732 284.885 L 3.59599 284.587 L 3.37909 284.255 L 3.12691 284.018 L 2.82934 283.882 L 2.49144 283.831 L 2.06782 283.917 L 1.73499 284.154 L 1.52322 284.517 L 1.44762 284.986 L 1.53341 285.47 L 1.77048 285.838 L 2.14874 286.075 L 2.64803 286.156 L 2.71864 286.156 L 2.71859 285.697 L 2.67824 285.697 L 2.3353 285.652 L 2.08312 285.516 L 1.92172 285.299 L 1.86621 285.011 L 1.91661 284.719 L 2.04267 284.502 L 2.23934 284.361 L 2.48645 284.31 L 2.71844 284.346 L 2.91514 284.441 L 3.08663 284.603 L 3.23795 284.825 L 3.39936 285.122 L 3.7121 285.616 L 4.04499 285.964 L 4.44847 286.171 L 4.95784 286.236 L 4.97297 286.236 L 4.97297 286.236 z" stroke="none" fill-rule="evenodd" fill="rgb(0, 0, 0)"/><path d="M 7.46016 5.76563 L 6.94231 3.8338 L 6.42488 5.76575"/><path d="M 6.48754 582.926 L 7.00539 584.858 L 7.52281 582.926"/><path d="M 6.94231 3.8338 L 7.00539 584.858"/></g><g stroke="rgb(0, 0, 0)" stroke-width="0.13" stroke-linecap="butt" stroke-linejoin="miter" fill="none"><path d="M 392.761 6.86621 L 393.27 6.86621 L 393.436 6.03406 L 393.729 5.25745 L 394.142 4.53625 L 394.682 3.86047 L 394.682 3.44183 L 392.281 3.44183 L 392.281 3.90082 L 394.198 3.90082 L 393.643 4.5816 L 393.225 5.29272 L 392.932 6.04919 L 392.761 6.86621 L 392.761 6.86621 z M 396.572 4.98004 L 396.315 5.12128 L 396.138 5.31793 L 396.028 5.56506 L 395.992 5.86261 L 396.073 6.31146 L 396.305 6.65942 L 396.683 6.88135 L 397.198 6.9671 L 397.707 6.88135 L 398.085 6.65942 L 398.317 6.31146 L 398.403 5.86261 L 398.363 5.56506 L 398.257 5.31793 L 398.075 5.12128 L 397.823 4.98004 L 398.025 4.85901 L 398.166 4.69257 L 398.252 4.49084 L 398.282 4.24371 L 398.201 3.88568 L 397.989 3.59821 L 397.646 3.41162 L 397.198 3.341 L 396.744 3.41162 L 396.401 3.59821 L 396.184 3.88568 L 396.108 4.24371 L 396.133 4.49084 L 396.219 4.69257 L 396.572 4.98004 L 396.572 4.98004 z M 396.476 5.85254 L 396.522 5.58521 L 396.668 5.38348 L 396.895 5.25238 L 397.198 5.20697 L 397.495 5.25238 L 397.722 5.38348 L 397.868 5.58521 L 397.919 5.85254 L 397.868 6.14001 L 397.722 6.35687 L 397.495 6.49805 L 397.198 6.54346 L 396.895 6.49805 L 396.668 6.35687 L 396.522 6.14001 L 396.476 5.85254 L 396.476 5.85254 z M 396.587 4.28406 L 396.628 4.06219 L 396.749 3.89069 L 396.94 3.78479 L 397.198 3.74445 L 397.45 3.78479 L 397.641 3.89069 L 397.762 4.06219 L 397.808 4.28406 L 397.762 4.51105 L 397.641 4.68756 L 397.45 4.80353 L 397.198 4.83881 L 396.94 4.79846 L 396.749 4.68756 L 396.628 4.51105 L 396.587 4.28406 L 396.587 4.28406 z M 399.683 5.95337 L 399.794 6.36694 L 400.041 6.6897 L 400.404 6.89142 L 400.868 6.9671 L 401.377 6.87628 L 401.776 6.62915 L 402.028 6.23578 L 402.124 5.73151 L 402.038 5.26245 L 401.796 4.89429 L 401.418 4.65729 L 400.929 4.57153 L 400.55 4.63208 L 400.258 4.79846 L 400.399 3.85541 L 401.932 3.85541 L 401.932 3.44183 L 400.061 3.44183 L 399.784 5.29779 L 400.187 5.29779 L 400.48 5.06073 L 400.853 4.97498 L 401.176 5.03046 L 401.423 5.19183 L 401.579 5.43896 L 401.635 5.75671 L 401.579 6.0744 L 401.418 6.32153 L 401.171 6.47791 L 400.853 6.53339 L 400.586 6.49805 L 400.379 6.38208 L 400.228 6.2005 L 400.152 5.95337 L 399.683 5.95337 L 399.683 5.95337 z M 404.322 6.86621 L 405.018 6.86621 L 405.018 6.11475 L 404.322 6.11475 L 404.322 6.86621 L 404.322 6.86621 z M 407.705 6.86621 L 408.214 6.86621 L 408.38 6.03406 L 408.673 5.25745 L 409.086 4.53625 L 409.626 3.86047 L 409.626 3.44183 L 407.226 3.44183 L 407.226 3.90082 L 409.142 3.90082 L 408.587 4.5816 L 408.169 5.29272 L 407.876 6.04919 L 407.705 6.86621 L 407.705 6.86621 z M 410.931 5.99878 L 411.007 6.39722 L 411.224 6.70483 L 411.567 6.89648 L 412.021 6.9671 L 412.318 6.93176 L 412.585 6.841 L 412.812 6.68463 L 413.004 6.46277 L 413.155 6.18536 L 413.266 5.84241 L 413.332 5.44904 L 413.357 4.99518 L 413.271 4.28406 L 413.024 3.76465 L 412.631 3.45197 L 412.091 3.341 L 411.597 3.43176 L 411.224 3.67383 L 410.982 4.04706 L 410.901 4.51605 L 410.982 5.00024 L 411.219 5.36835 L 411.572 5.60034 L 412.021 5.67603 L 412.495 5.5802 L 412.853 5.28766 L 412.772 5.84747 L 412.611 6.24591 L 412.364 6.48291 L 412.026 6.55859 L 411.763 6.52325 L 411.572 6.41229 L 411.446 6.23578 L 411.395 5.99878 L 410.931 5.99878 L 410.931 5.99878 z M 411.39 4.51105 L 411.441 4.19836 L 411.582 3.95123 L 411.804 3.79486 L 412.091 3.73938 L 412.389 3.79486 L 412.616 3.95123 L 412.757 4.1933 L 412.812 4.50598 L 412.757 4.82373 L 412.616 5.06073 L 412.384 5.20697 L 412.076 5.25745 L 411.799 5.20697 L 411.582 5.06073 L 411.441 4.82874 L 411.39 4.51105 L 411.39 4.51105 z" stroke="none" fill-rule="evenodd" fill="rgb(0, 0, 0)"/><path d="M 11.8361 8.34857 L 9.90422 8.86621 L 11.8361 9.38385"/><path d="M 793.767 9.38385 L 795.699 8.86621 L 793.767 8.34857"/><path d="M 9.90422 8.86621 L 795.699 8.86621"/></g></svg>