<?xml version="1.0" encoding="utf-8" ?><!DOCTYPE svg PUBLIC "-//W3C//DTD SVG 1.1//EN" "http://www.w3.org/Graphics/SVG/1.1/DTD/svg11.dtd" 
[ <!ATTLIST svg 
  xmlns:dsy CDATA #FIXED "http://www.3ds.com/print"  
    dsy:text-version CDATA #IMPLIED > 

  <!ATTLIST text 
  xmlns:dsy CDATA #FIXED "http://www.3ds.com/print" 
    dsy:text-version CDATA #IMPLIED > 
]><svg xmlns="http://www.w3.org/2000/svg" xmlns:dsy="http://www.3ds.com/print" dsy:text-version="18000" width="594" height="420" viewBox="0 0 594 420" version="1.1"><g stroke="rgb(0, 0, 0)" stroke-width="0.35" stroke-linecap="butt" stroke-linejoin="miter" fill="none"><path d="M 278.115 239.225 A 8 8 0 0 0 267.092 248.067"/><path d="M 278.115 239.225 A 42 42 0 0 0 318.244 235.446"/><path d="M 330.724 242.074 A 8 8 0 0 0 318.244 235.446"/><path d="M 330.724 242.074 L 330.724 292.564"/><path d="M 322.724 300.564 A 8 8 0 0 0 330.724 292.564"/><path d="M 283.691 300.564 L 322.724 300.564"/><path d="M 275.832 294.057 A 8 8 0 0 0 283.691 300.564"/><path d="M 267.092 248.067 L 275.832 294.057"/><path d="M 331.724 135.436 A 16 16 0 0 0 315.724 119.436"/><path d="M 315.724 119.436 L 280.66 119.436"/><path d="M 331.724 135.436 L 331.724 159.918"/><path d="M 319.084 166.435 A 8 8 0 0 0 331.724 159.918"/><path d="M 319.084 166.435 A 42 42 0 0 0 274.188 164.012"/><path d="M 262.322 156.173 A 8 8 0 0 0 274.188 164.012"/><path d="M 264.753 133.714 L 262.322 156.173"/><path d="M 280.66 119.436 A 16 16 0 0 0 264.753 133.714"/></g><g stroke="rgb(0, 0, 0)" stroke-width="0.13" stroke-linecap="butt" stroke-linejoin="miter" fill="none"><path d="M 299.396 308.915 L 298.518 311.896 L 297.615 308.915 L 297.136 308.915 L 298.266 312.42 L 298.77 312.42 L 299.875 308.915 L 299.396 308.915 L 299.396 308.915 z M 302.598 309.712 L 302.154 309.712 L 302.154 311.276 L 302.104 311.639 L 301.958 311.901 L 301.731 312.062 L 301.433 312.113 L 301.196 312.072 L 301.045 311.951 L 300.959 311.745 L 300.939 311.452 L 300.939 309.712 L 300.495 309.712 L 300.495 311.492 L 300.51 311.851 L 300.606 312.148 L 300.898 312.42 L 301.367 312.516 L 301.62 312.481 L 301.836 312.39 L 302.023 312.234 L 302.174 312.007 L 302.174 312.42 L 302.598 312.42 L 302.598 309.712 L 302.598 309.712 z M 303.934 311.195 L 305.71 311.195 L 305.715 310.988 L 305.634 310.408 L 305.412 309.974 L 305.059 309.712 L 304.59 309.616 L 304.131 309.717 L 303.778 310 L 303.551 310.459 L 303.47 311.064 L 303.546 311.684 L 303.773 312.138 L 304.121 312.42 L 304.575 312.516 L 304.968 312.451 L 305.291 312.279 L 305.528 312.007 L 305.664 311.644 L 305.226 311.644 L 305.135 311.846 L 305.004 311.997 L 304.63 312.118 L 304.343 312.062 L 304.126 311.886 L 303.985 311.598 L 303.934 311.21 L 303.934 311.195 L 303.934 311.195 z M 303.934 310.822 L 303.99 310.474 L 304.126 310.217 L 304.333 310.06 L 304.605 310.005 L 304.873 310.06 L 305.079 310.217 L 305.205 310.474 L 305.251 310.822 L 303.934 310.822 L 303.934 310.822 z M 311.283 312.002 L 311.283 312.42 L 311.726 312.42 L 311.726 308.799 L 311.288 308.799 L 311.288 310.126 L 310.95 309.742 L 310.743 309.652 L 310.506 309.616 L 310.077 309.717 L 309.744 310 L 309.527 310.454 L 309.452 311.064 L 309.527 311.674 L 309.744 312.133 L 310.077 312.42 L 310.506 312.516 L 310.743 312.481 L 310.955 312.39 L 311.283 312.002 L 311.283 312.002 z M 310.581 310.015 L 310.874 310.085 L 311.096 310.282 L 311.227 310.61 L 311.277 311.064 L 311.227 311.523 L 311.096 311.851 L 310.874 312.052 L 310.581 312.118 L 310.304 312.052 L 310.092 311.851 L 309.951 311.518 L 309.906 311.064 L 309.951 310.615 L 310.092 310.287 L 310.304 310.085 L 310.581 310.015 L 310.581 310.015 z M 313.043 311.195 L 314.818 311.195 L 314.823 310.988 L 314.742 310.408 L 314.52 309.974 L 314.167 309.712 L 313.698 309.616 L 313.239 309.717 L 312.886 310 L 312.659 310.459 L 312.579 311.064 L 312.654 311.684 L 312.881 312.138 L 313.229 312.42 L 313.683 312.516 L 314.076 312.451 L 314.399 312.279 L 314.636 312.007 L 314.772 311.644 L 314.334 311.644 L 314.243 311.846 L 314.112 311.997 L 313.739 312.118 L 313.451 312.062 L 313.234 311.886 L 313.093 311.598 L 313.043 311.21 L 313.043 311.195 L 313.043 311.195 z M 313.043 310.822 L 313.098 310.474 L 313.234 310.217 L 313.441 310.06 L 313.713 310.005 L 313.981 310.06 L 314.187 310.217 L 314.314 310.474 L 314.359 310.822 L 313.043 310.822 L 313.043 310.822 z M 319.342 310.181 L 319.342 312.42 L 319.785 312.42 L 319.785 310.181 L 320.794 310.181 L 320.794 309.803 L 319.785 309.803 L 319.785 309.637 L 319.821 309.435 L 319.937 309.299 L 320.133 309.218 L 320.416 309.188 L 320.794 309.208 L 320.794 308.825 L 320.315 308.799 L 319.881 308.845 L 319.579 308.981 L 319.397 309.218 L 319.342 309.556 L 319.342 309.803 L 318.53 309.803 L 318.53 310.181 L 319.342 310.181 L 319.342 310.181 z M 323.371 312.067 L 323.371 312.083 L 323.396 312.254 L 323.472 312.375 L 323.79 312.471 L 324.037 312.431 L 324.037 312.088 L 323.931 312.103 L 323.79 312.037 L 323.765 311.835 L 323.765 310.433 L 323.704 310.075 L 323.528 309.823 L 323.22 309.672 L 322.786 309.616 L 322.363 309.677 L 322.05 309.848 L 321.853 310.116 L 321.788 310.469 L 321.788 310.499 L 322.186 310.499 L 322.221 310.287 L 322.332 310.136 L 322.514 310.045 L 322.771 310.01 L 323.018 310.035 L 323.195 310.111 L 323.301 310.242 L 323.336 310.423 L 323.316 310.635 L 323.235 310.741 L 323.033 310.791 L 322.655 310.832 L 322.221 310.923 L 321.914 311.084 L 321.732 311.336 L 321.677 311.709 L 321.727 312.042 L 321.883 312.289 L 322.136 312.446 L 322.484 312.501 L 322.953 312.395 L 323.371 312.067 L 323.371 312.067 z M 323.321 311.472 L 323.26 311.735 L 323.099 311.936 L 322.857 312.067 L 322.559 312.113 L 322.368 312.088 L 322.231 312.007 L 322.146 311.866 L 322.12 311.669 L 322.141 311.492 L 322.221 311.366 L 322.544 311.225 L 322.953 311.165 L 323.321 311.044 L 323.321 311.472 L 323.321 311.472 z M 326.523 310.61 L 326.962 310.61 L 326.871 310.206 L 326.654 309.889 L 326.316 309.692 L 325.878 309.616 L 325.394 309.717 L 325.025 310 L 324.793 310.459 L 324.713 311.074 L 324.788 311.684 L 325.015 312.138 L 325.373 312.42 L 325.863 312.516 L 326.296 312.441 L 326.634 312.229 L 326.866 311.896 L 326.967 311.452 L 326.543 311.452 L 326.468 311.735 L 326.327 311.946 L 326.125 312.077 L 325.878 312.118 L 325.57 312.052 L 325.348 311.851 L 325.212 311.523 L 325.167 311.059 L 325.212 310.605 L 325.353 310.277 L 325.58 310.075 L 325.878 310.005 L 326.14 310.05 L 326.337 310.166 L 326.468 310.358 L 326.523 310.61 L 326.523 310.61 z M 328.223 311.195 L 329.998 311.195 L 330.003 310.988 L 329.922 310.408 L 329.7 309.974 L 329.347 309.712 L 328.878 309.616 L 328.419 309.717 L 328.066 310 L 327.84 310.459 L 327.759 311.064 L 327.834 311.684 L 328.061 312.138 L 328.409 312.42 L 328.863 312.516 L 329.257 312.451 L 329.579 312.279 L 329.816 312.007 L 329.953 311.644 L 329.514 311.644 L 329.423 311.846 L 329.292 311.997 L 328.919 312.118 L 328.631 312.062 L 328.414 311.886 L 328.273 311.598 L 328.223 311.21 L 328.223 311.195 L 328.223 311.195 z M 328.223 310.822 L 328.278 310.474 L 328.414 310.217 L 328.621 310.06 L 328.894 310.005 L 329.161 310.06 L 329.368 310.217 L 329.494 310.474 L 329.539 310.822 L 328.223 310.822 L 328.223 310.822 z" stroke="none" fill-rule="evenodd" fill="rgb(0, 0, 0)"/></g><g stroke="rgb(0, 0, 0)" stroke-width="0.13" stroke-linecap="butt" stroke-linejoin="miter" fill="none"><path d="M 297.459 318.467 L 299.678 318.467 L 299.678 318.044 L 297.923 318.044 L 297.923 316.858 L 299.486 316.858 L 299.486 316.44 L 297.923 316.44 L 297.923 315.391 L 299.638 315.391 L 299.638 314.967 L 297.459 314.967 L 297.459 318.467 L 297.459 318.467 z M 302.235 316.657 L 302.674 316.657 L 302.583 316.253 L 302.366 315.936 L 302.028 315.739 L 301.589 315.663 L 301.105 315.764 L 300.737 316.047 L 300.505 316.505 L 300.424 317.121 L 300.5 317.731 L 300.727 318.185 L 301.085 318.467 L 301.574 318.563 L 302.008 318.487 L 302.346 318.276 L 302.578 317.943 L 302.679 317.499 L 302.255 317.499 L 302.179 317.781 L 302.038 317.993 L 301.836 318.124 L 301.589 318.165 L 301.282 318.099 L 301.06 317.897 L 300.924 317.57 L 300.878 317.106 L 300.924 316.652 L 301.065 316.324 L 301.292 316.122 L 301.589 316.052 L 301.852 316.097 L 302.048 316.213 L 302.179 316.405 L 302.235 316.657 L 302.235 316.657 z M 303.546 318.467 L 303.99 318.467 L 303.99 316.904 L 304.035 316.546 L 304.182 316.284 L 304.409 316.122 L 304.711 316.062 L 304.953 316.112 L 305.105 316.248 L 305.18 316.475 L 305.205 316.778 L 305.205 318.467 L 305.649 318.467 L 305.649 316.687 L 305.629 316.329 L 305.538 316.031 L 305.241 315.759 L 304.777 315.663 L 304.525 315.699 L 304.308 315.794 L 304.126 315.946 L 303.99 316.152 L 303.99 314.846 L 303.546 314.846 L 303.546 318.467 L 303.546 318.467 z M 306.971 317.242 L 308.746 317.242 L 308.751 317.035 L 308.67 316.455 L 308.448 316.021 L 308.095 315.759 L 307.626 315.663 L 307.167 315.764 L 306.814 316.047 L 306.587 316.505 L 306.507 317.111 L 306.582 317.731 L 306.809 318.185 L 307.157 318.467 L 307.611 318.563 L 308.004 318.498 L 308.327 318.326 L 308.564 318.054 L 308.7 317.691 L 308.262 317.691 L 308.171 317.892 L 308.04 318.044 L 307.666 318.165 L 307.379 318.109 L 307.162 317.933 L 307.021 317.645 L 306.971 317.257 L 306.971 317.242 L 306.971 317.242 z M 306.971 316.869 L 307.026 316.521 L 307.162 316.263 L 307.369 316.107 L 307.641 316.052 L 307.909 316.107 L 308.115 316.263 L 308.241 316.521 L 308.287 316.869 L 306.971 316.869 L 306.971 316.869 z M 310.501 315.219 L 310.501 318.094 L 309.588 318.094 L 309.588 318.467 L 311.852 318.467 L 311.852 318.094 L 310.945 318.094 L 310.945 314.846 L 309.805 314.846 L 309.805 315.219 L 310.501 315.219 L 310.501 315.219 z M 313.537 315.219 L 313.537 318.094 L 312.624 318.094 L 312.624 318.467 L 314.888 318.467 L 314.888 318.094 L 313.981 318.094 L 313.981 314.846 L 312.841 314.846 L 312.841 315.219 L 313.537 315.219 L 313.537 315.219 z M 316.079 317.242 L 317.854 317.242 L 317.859 317.035 L 317.778 316.455 L 317.556 316.021 L 317.203 315.759 L 316.734 315.663 L 316.275 315.764 L 315.922 316.047 L 315.695 316.505 L 315.615 317.111 L 315.69 317.731 L 315.917 318.185 L 316.265 318.467 L 316.719 318.563 L 317.113 318.498 L 317.435 318.326 L 317.672 318.054 L 317.808 317.691 L 317.37 317.691 L 317.279 317.892 L 317.148 318.044 L 316.775 318.165 L 316.487 318.109 L 316.27 317.933 L 316.129 317.645 L 316.079 317.257 L 316.079 317.242 L 316.079 317.242 z M 316.079 316.869 L 316.134 316.521 L 316.27 316.263 L 316.477 316.107 L 316.749 316.052 L 317.017 316.107 L 317.223 316.263 L 317.35 316.521 L 317.395 316.869 L 316.079 316.869 L 316.079 316.869 z M 322.458 318.467 L 323.154 318.467 L 323.154 317.716 L 322.458 317.716 L 322.458 318.467 L 322.458 318.467 z M 322.458 316.51 L 323.154 316.51 L 323.154 315.759 L 322.458 315.759 L 322.458 316.51 L 322.458 316.51 z" stroke="none" fill-rule="evenodd" fill="rgb(0, 0, 0)"/></g><g stroke="rgb(0, 0, 0)" stroke-width="0.13" stroke-linecap="butt" stroke-linejoin="miter" fill="none"><path d="M 331.824 318.467 L 332.282 318.467 L 332.282 314.942 L 331.94 314.942 L 331.849 315.25 L 331.667 315.456 L 331.39 315.577 L 331.007 315.618 L 331.007 315.976 L 331.824 315.976 L 331.824 318.467 L 331.824 318.467 z M 334.602 318.467 L 335.298 318.467 L 335.298 317.716 L 334.602 317.716 L 334.602 318.467 L 334.602 318.467 z M 334.602 316.51 L 335.298 316.51 L 335.298 315.759 L 334.602 315.759 L 334.602 316.51 L 334.602 316.51 z M 337.896 318.467 L 338.355 318.467 L 338.355 314.942 L 338.012 314.942 L 337.921 315.25 L 337.739 315.456 L 337.462 315.577 L 337.079 315.618 L 337.079 315.976 L 337.896 315.976 L 337.896 318.467 L 337.896 318.467 z" stroke="none" fill-rule="evenodd" fill="rgb(0, 0, 0)"/></g></svg>