<?xml version="1.0" encoding="utf-8" ?><!DOCTYPE svg PUBLIC "-//W3C//DTD SVG 1.1//EN" "http://www.w3.org/Graphics/SVG/1.1/DTD/svg11.dtd" 
[ <!ATTLIST svg 
  xmlns:dsy CDATA #FIXED "http://www.3ds.com/print"  
    dsy:text-version CDATA #IMPLIED > 

  <!ATTLIST text 
  xmlns:dsy CDATA #FIXED "http://www.3ds.com/print" 
    dsy:text-version CDATA #IMPLIED > 
]><svg xmlns="http://www.w3.org/2000/svg" xmlns:dsy="http://www.3ds.com/print" dsy:text-version="18000" width="594" height="420" viewBox="0 0 594 420" version="1.1"><g stroke="rgb(0, 0, 0)" stroke-width="0.35" stroke-linecap="butt" stroke-linejoin="miter" fill="none"><path d="M 301.907 282.119 L 278.691 246.471"/><path d="M 278.691 246.471 A 8 8 0 0 0 264.122 249.371"/><path d="M 264.122 249.371 L 257.479 285.02"/><path d="M 257.479 285.02 A 8 8 0 0 0 265.344 294.485"/><path d="M 265.344 294.485 L 295.204 294.485"/><path d="M 295.204 294.485 A 8 8 0 0 0 301.907 282.119"/><path d="M 329.438 256.364 A 8 8 0 0 0 319.701 245.999"/><path d="M 301.043 247.004 A 42 42 0 0 0 319.701 245.999"/><path d="M 301.043 247.004 A 8 8 0 0 0 292.982 259.254"/><path d="M 307.092 280.918 L 292.982 259.254"/><path d="M 307.092 280.918 A 8 8 0 0 0 321.336 279.225"/><path d="M 321.336 279.225 L 329.438 256.364"/><path d="M 272.609 125.515 A 8 8 0 0 0 264.651 134.333"/><path d="M 264.651 134.333 L 268.121 168.088"/><path d="M 268.121 168.088 A 8 8 0 0 0 281.214 173.404"/><path d="M 325.378 167.3 A 42 42 0 0 0 281.214 173.404"/><path d="M 325.378 167.3 A 8 8 0 0 0 336.538 158.631"/><path d="M 331.93 132.144 L 336.538 158.631"/><path d="M 331.93 132.144 A 8 8 0 0 0 324.049 125.515"/><path d="M 272.609 125.515 L 324.049 125.515"/></g><g stroke="rgb(0, 0, 0)" stroke-width="0.13" stroke-linecap="butt" stroke-linejoin="miter" fill="none"><path d="M 299.396 302.837 L 298.518 305.817 L 297.615 302.837 L 297.136 302.837 L 298.266 306.342 L 298.77 306.342 L 299.875 302.837 L 299.396 302.837 L 299.396 302.837 z M 302.598 303.634 L 302.154 303.634 L 302.154 305.197 L 302.104 305.56 L 301.958 305.822 L 301.731 305.984 L 301.433 306.034 L 301.196 305.994 L 301.045 305.873 L 300.959 305.666 L 300.939 305.373 L 300.939 303.634 L 300.495 303.634 L 300.495 305.414 L 300.51 305.772 L 300.606 306.069 L 300.898 306.342 L 301.367 306.438 L 301.62 306.402 L 301.836 306.311 L 302.023 306.155 L 302.174 305.928 L 302.174 306.342 L 302.598 306.342 L 302.598 303.634 L 302.598 303.634 z M 303.934 305.116 L 305.71 305.116 L 305.715 304.909 L 305.634 304.329 L 305.412 303.896 L 305.059 303.634 L 304.59 303.538 L 304.131 303.639 L 303.778 303.921 L 303.551 304.38 L 303.47 304.985 L 303.546 305.605 L 303.773 306.059 L 304.121 306.342 L 304.575 306.438 L 304.968 306.372 L 305.291 306.201 L 305.528 305.928 L 305.664 305.565 L 305.226 305.565 L 305.135 305.767 L 305.004 305.918 L 304.63 306.039 L 304.343 305.984 L 304.126 305.807 L 303.985 305.52 L 303.934 305.131 L 303.934 305.116 L 303.934 305.116 z M 303.934 304.743 L 303.99 304.395 L 304.126 304.138 L 304.333 303.982 L 304.605 303.926 L 304.873 303.982 L 305.079 304.138 L 305.205 304.395 L 305.251 304.743 L 303.934 304.743 L 303.934 304.743 z M 311.283 305.923 L 311.283 306.342 L 311.726 306.342 L 311.726 302.721 L 311.288 302.721 L 311.288 304.047 L 310.95 303.664 L 310.743 303.573 L 310.506 303.538 L 310.077 303.639 L 309.744 303.921 L 309.527 304.375 L 309.452 304.985 L 309.527 305.595 L 309.744 306.054 L 310.077 306.342 L 310.506 306.438 L 310.743 306.402 L 310.955 306.311 L 311.283 305.923 L 311.283 305.923 z M 310.581 303.936 L 310.874 304.007 L 311.096 304.203 L 311.227 304.531 L 311.277 304.985 L 311.227 305.444 L 311.096 305.772 L 310.874 305.974 L 310.581 306.039 L 310.304 305.974 L 310.092 305.772 L 309.951 305.439 L 309.906 304.985 L 309.951 304.536 L 310.092 304.208 L 310.304 304.007 L 310.581 303.936 L 310.581 303.936 z M 313.043 305.116 L 314.818 305.116 L 314.823 304.909 L 314.742 304.329 L 314.52 303.896 L 314.167 303.634 L 313.698 303.538 L 313.239 303.639 L 312.886 303.921 L 312.659 304.38 L 312.579 304.985 L 312.654 305.605 L 312.881 306.059 L 313.229 306.342 L 313.683 306.438 L 314.076 306.372 L 314.399 306.201 L 314.636 305.928 L 314.772 305.565 L 314.334 305.565 L 314.243 305.767 L 314.112 305.918 L 313.739 306.039 L 313.451 305.984 L 313.234 305.807 L 313.093 305.52 L 313.043 305.131 L 313.043 305.116 L 313.043 305.116 z M 313.043 304.743 L 313.098 304.395 L 313.234 304.138 L 313.441 303.982 L 313.713 303.926 L 313.981 303.982 L 314.187 304.138 L 314.314 304.395 L 314.359 304.743 L 313.043 304.743 L 313.043 304.743 z M 319.342 304.103 L 319.342 306.342 L 319.785 306.342 L 319.785 304.103 L 320.794 304.103 L 320.794 303.724 L 319.785 303.724 L 319.785 303.558 L 319.821 303.356 L 319.937 303.22 L 320.133 303.139 L 320.416 303.109 L 320.794 303.129 L 320.794 302.746 L 320.315 302.721 L 319.881 302.766 L 319.579 302.902 L 319.397 303.139 L 319.342 303.477 L 319.342 303.724 L 318.53 303.724 L 318.53 304.103 L 319.342 304.103 L 319.342 304.103 z M 323.371 305.989 L 323.371 306.004 L 323.396 306.175 L 323.472 306.296 L 323.79 306.392 L 324.037 306.352 L 324.037 306.009 L 323.931 306.024 L 323.79 305.958 L 323.765 305.757 L 323.765 304.355 L 323.704 303.997 L 323.528 303.744 L 323.22 303.593 L 322.786 303.538 L 322.363 303.598 L 322.05 303.77 L 321.853 304.037 L 321.788 304.39 L 321.788 304.42 L 322.186 304.42 L 322.221 304.208 L 322.332 304.057 L 322.514 303.966 L 322.771 303.931 L 323.018 303.956 L 323.195 304.032 L 323.301 304.163 L 323.336 304.345 L 323.316 304.556 L 323.235 304.662 L 323.033 304.713 L 322.655 304.753 L 322.221 304.844 L 321.914 305.005 L 321.732 305.257 L 321.677 305.631 L 321.727 305.964 L 321.883 306.211 L 322.136 306.367 L 322.484 306.422 L 322.953 306.317 L 323.371 305.989 L 323.371 305.989 z M 323.321 305.394 L 323.26 305.656 L 323.099 305.858 L 322.857 305.989 L 322.559 306.034 L 322.368 306.009 L 322.231 305.928 L 322.146 305.787 L 322.12 305.59 L 322.141 305.414 L 322.221 305.288 L 322.544 305.146 L 322.953 305.086 L 323.321 304.965 L 323.321 305.394 L 323.321 305.394 z M 326.523 304.531 L 326.962 304.531 L 326.871 304.128 L 326.654 303.81 L 326.316 303.613 L 325.878 303.538 L 325.394 303.639 L 325.025 303.921 L 324.793 304.38 L 324.713 304.995 L 324.788 305.605 L 325.015 306.059 L 325.373 306.342 L 325.863 306.438 L 326.296 306.362 L 326.634 306.15 L 326.866 305.817 L 326.967 305.373 L 326.543 305.373 L 326.468 305.656 L 326.327 305.868 L 326.125 305.999 L 325.878 306.039 L 325.57 305.974 L 325.348 305.772 L 325.212 305.444 L 325.167 304.98 L 325.212 304.526 L 325.353 304.198 L 325.58 303.997 L 325.878 303.926 L 326.14 303.971 L 326.337 304.087 L 326.468 304.279 L 326.523 304.531 L 326.523 304.531 z M 328.223 305.116 L 329.998 305.116 L 330.003 304.909 L 329.922 304.329 L 329.7 303.896 L 329.347 303.634 L 328.878 303.538 L 328.419 303.639 L 328.066 303.921 L 327.84 304.38 L 327.759 304.985 L 327.834 305.605 L 328.061 306.059 L 328.409 306.342 L 328.863 306.438 L 329.257 306.372 L 329.579 306.201 L 329.816 305.928 L 329.953 305.565 L 329.514 305.565 L 329.423 305.767 L 329.292 305.918 L 328.919 306.039 L 328.631 305.984 L 328.414 305.807 L 328.273 305.52 L 328.223 305.131 L 328.223 305.116 L 328.223 305.116 z M 328.223 304.743 L 328.278 304.395 L 328.414 304.138 L 328.621 303.982 L 328.894 303.926 L 329.161 303.982 L 329.368 304.138 L 329.494 304.395 L 329.539 304.743 L 328.223 304.743 L 328.223 304.743 z" stroke="none" fill-rule="evenodd" fill="rgb(0, 0, 0)"/></g><g stroke="rgb(0, 0, 0)" stroke-width="0.13" stroke-linecap="butt" stroke-linejoin="miter" fill="none"><path d="M 297.459 312.389 L 299.678 312.389 L 299.678 311.965 L 297.923 311.965 L 297.923 310.78 L 299.486 310.78 L 299.486 310.361 L 297.923 310.361 L 297.923 309.312 L 299.638 309.312 L 299.638 308.889 L 297.459 308.889 L 297.459 312.389 L 297.459 312.389 z M 302.235 310.578 L 302.674 310.578 L 302.583 310.175 L 302.366 309.857 L 302.028 309.66 L 301.589 309.585 L 301.105 309.685 L 300.737 309.968 L 300.505 310.427 L 300.424 311.042 L 300.5 311.652 L 300.727 312.106 L 301.085 312.389 L 301.574 312.484 L 302.008 312.409 L 302.346 312.197 L 302.578 311.864 L 302.679 311.42 L 302.255 311.42 L 302.179 311.703 L 302.038 311.915 L 301.836 312.046 L 301.589 312.086 L 301.282 312.02 L 301.06 311.819 L 300.924 311.491 L 300.878 311.027 L 300.924 310.573 L 301.065 310.245 L 301.292 310.043 L 301.589 309.973 L 301.852 310.018 L 302.048 310.134 L 302.179 310.326 L 302.235 310.578 L 302.235 310.578 z M 303.546 312.389 L 303.99 312.389 L 303.99 310.825 L 304.035 310.467 L 304.182 310.205 L 304.409 310.043 L 304.711 309.983 L 304.953 310.033 L 305.105 310.17 L 305.18 310.396 L 305.205 310.699 L 305.205 312.389 L 305.649 312.389 L 305.649 310.608 L 305.629 310.25 L 305.538 309.953 L 305.241 309.68 L 304.777 309.585 L 304.525 309.62 L 304.308 309.716 L 304.126 309.867 L 303.99 310.074 L 303.99 308.768 L 303.546 308.768 L 303.546 312.389 L 303.546 312.389 z M 306.971 311.163 L 308.746 311.163 L 308.751 310.956 L 308.67 310.376 L 308.448 309.943 L 308.095 309.68 L 307.626 309.585 L 307.167 309.685 L 306.814 309.968 L 306.587 310.427 L 306.507 311.032 L 306.582 311.652 L 306.809 312.106 L 307.157 312.389 L 307.611 312.484 L 308.004 312.419 L 308.327 312.247 L 308.564 311.975 L 308.7 311.612 L 308.262 311.612 L 308.171 311.814 L 308.04 311.965 L 307.666 312.086 L 307.379 312.031 L 307.162 311.854 L 307.021 311.567 L 306.971 311.178 L 306.971 311.163 L 306.971 311.163 z M 306.971 310.79 L 307.026 310.442 L 307.162 310.185 L 307.369 310.028 L 307.641 309.973 L 307.909 310.028 L 308.115 310.185 L 308.241 310.442 L 308.287 310.79 L 306.971 310.79 L 306.971 310.79 z M 310.501 309.141 L 310.501 312.015 L 309.588 312.015 L 309.588 312.389 L 311.852 312.389 L 311.852 312.015 L 310.945 312.015 L 310.945 308.768 L 309.805 308.768 L 309.805 309.141 L 310.501 309.141 L 310.501 309.141 z M 313.537 309.141 L 313.537 312.015 L 312.624 312.015 L 312.624 312.389 L 314.888 312.389 L 314.888 312.015 L 313.981 312.015 L 313.981 308.768 L 312.841 308.768 L 312.841 309.141 L 313.537 309.141 L 313.537 309.141 z M 316.079 311.163 L 317.854 311.163 L 317.859 310.956 L 317.778 310.376 L 317.556 309.943 L 317.203 309.68 L 316.734 309.585 L 316.275 309.685 L 315.922 309.968 L 315.695 310.427 L 315.615 311.032 L 315.69 311.652 L 315.917 312.106 L 316.265 312.389 L 316.719 312.484 L 317.113 312.419 L 317.435 312.247 L 317.672 311.975 L 317.808 311.612 L 317.37 311.612 L 317.279 311.814 L 317.148 311.965 L 316.775 312.086 L 316.487 312.031 L 316.27 311.854 L 316.129 311.567 L 316.079 311.178 L 316.079 311.163 L 316.079 311.163 z M 316.079 310.79 L 316.134 310.442 L 316.27 310.185 L 316.477 310.028 L 316.749 309.973 L 317.017 310.028 L 317.223 310.185 L 317.35 310.442 L 317.395 310.79 L 316.079 310.79 L 316.079 310.79 z M 322.458 312.389 L 323.154 312.389 L 323.154 311.637 L 322.458 311.637 L 322.458 312.389 L 322.458 312.389 z M 322.458 310.432 L 323.154 310.432 L 323.154 309.68 L 322.458 309.68 L 322.458 310.432 L 322.458 310.432 z" stroke="none" fill-rule="evenodd" fill="rgb(0, 0, 0)"/></g><g stroke="rgb(0, 0, 0)" stroke-width="0.13" stroke-linecap="butt" stroke-linejoin="miter" fill="none"><path d="M 331.824 312.389 L 332.282 312.389 L 332.282 308.863 L 331.94 308.863 L 331.849 309.171 L 331.667 309.378 L 331.39 309.499 L 331.007 309.539 L 331.007 309.897 L 331.824 309.897 L 331.824 312.389 L 331.824 312.389 z M 334.602 312.389 L 335.298 312.389 L 335.298 311.637 L 334.602 311.637 L 334.602 312.389 L 334.602 312.389 z M 334.602 310.432 L 335.298 310.432 L 335.298 309.68 L 334.602 309.68 L 334.602 310.432 L 334.602 310.432 z M 337.896 312.389 L 338.355 312.389 L 338.355 308.863 L 338.012 308.863 L 337.921 309.171 L 337.739 309.378 L 337.462 309.499 L 337.079 309.539 L 337.079 309.897 L 337.896 309.897 L 337.896 312.389 L 337.896 312.389 z" stroke="none" fill-rule="evenodd" fill="rgb(0, 0, 0)"/></g></svg>