<?xml version="1.0" encoding="utf-8" ?><!DOCTYPE svg PUBLIC "-//W3C//DTD SVG 1.1//EN" "http://www.w3.org/Graphics/SVG/1.1/DTD/svg11.dtd" 
[ <!ATTLIST svg 
  xmlns:dsy CDATA #FIXED "http://www.3ds.com/print"  
    dsy:text-version CDATA #IMPLIED > 

  <!ATTLIST text 
  xmlns:dsy CDATA #FIXED "http://www.3ds.com/print" 
    dsy:text-version CDATA #IMPLIED > 
]><svg xmlns="http://www.w3.org/2000/svg" xmlns:dsy="http://www.3ds.com/print" dsy:text-version="18000" width="594" height="420" viewBox="0 0 594 420" version="1.1"><g stroke="rgb(0, 0, 0)" stroke-width="0.13" stroke-linecap="butt" stroke-linejoin="miter" fill="none"><path d="M 12.8431 212.551 L 12.8431 380.653"/><path d="M 581.006 47.2223 L 581.006 380.653"/></g><g stroke="rgb(0, 0, 0)" stroke-width="0.35" stroke-linecap="butt" stroke-linejoin="miter" fill="none"><path d="M 12.8431 210.551 L 44.3082 137.572"/><path d="M 12.8431 210.551 L 155.037 247.231"/><path d="M 155.037 247.231 L 162.531 218.182"/><path d="M 162.531 218.182 L 168.341 219.681"/><path d="M 168.341 219.681 L 160.847 248.73"/><path d="M 160.847 248.73 L 302.155 285.182"/><path d="M 302.155 285.182 L 339.919 306.985"/><path d="M 339.919 306.985 L 354.919 281.004"/><path d="M 354.919 281.004 L 360.115 284.004"/><path d="M 360.115 284.004 L 345.115 309.985"/><path d="M 345.115 309.985 L 391.241 336.615"/><path d="M 391.241 336.615 L 396.501 327.888"/><path d="M 405.281 323.053 A 10 10 0 0 0 396.501 327.888"/><path d="M 405.281 323.053 L 430.482 336.044"/><path d="M 573.62 88.1202 L 430.482 336.044"/><path d="M 562.372 78.6548 L 573.62 88.1202"/><path d="M 571.656 61.4167 A 10 10 0 0 0 562.372 78.6549"/><path d="M 571.656 61.4167 L 581.006 45.2223"/><path d="M 581.006 45.2223 L 533.42 17.7489"/><path d="M 484.732 102.079 L 533.42 17.7489"/><path d="M 510.713 117.079 L 484.732 102.079"/><path d="M 507.713 122.276 L 510.713 117.079"/><path d="M 481.732 107.276 L 507.713 122.276"/><path d="M 456.406 151.142 L 481.732 107.276"/><path d="M 44.3082 137.572 L 456.406 151.142"/><path d="M 31.2466 201.026 L 35.6312 197.078"/><path d="M 35.6312 197.078 L 39.5121 201.388"/><path d="M 39.5121 201.388 L 35.1276 205.336"/><path d="M 35.1276 205.336 L 31.2466 201.026"/><path d="M 52.0546 182.29 L 56.4392 178.342"/><path d="M 56.4392 178.342 L 60.3202 182.653"/><path d="M 60.3202 182.653 L 55.9356 186.6"/><path d="M 55.9356 186.6 L 52.0546 182.29"/><path d="M 49.3162 158.625 L 44.9316 162.573"/><path d="M 53.1971 162.935 L 49.3162 158.625"/><path d="M 48.8126 166.883 L 53.1971 162.935"/><path d="M 44.9316 162.573 L 48.8126 166.883"/><path d="M 229.08 177.072 L 232.03 171.963"/><path d="M 237.053 174.863 L 232.03 171.963"/><path d="M 237.053 174.863 L 234.103 179.972"/><path d="M 229.08 177.072 L 234.103 179.972"/><path d="M 316.931 226.084 L 319.881 220.974"/><path d="M 324.904 223.874 L 319.881 220.974"/><path d="M 324.904 223.874 L 321.954 228.984"/><path d="M 316.931 226.084 L 321.954 228.984"/><path d="M 258.32 194.379 L 261.479 189.396"/><path d="M 266.377 192.501 L 261.479 189.396"/><path d="M 266.377 192.501 L 263.219 197.484"/><path d="M 258.32 194.379 L 263.219 197.484"/><path d="M 269.975 201.767 L 273.134 196.784"/><path d="M 278.033 199.889 L 273.134 196.784"/><path d="M 278.033 199.889 L 274.874 204.872"/><path d="M 269.975 201.767 L 274.874 204.872"/><path d="M 458.143 229.438 L 461.269 224.434"/><path d="M 466.188 227.508 L 461.269 224.434"/><path d="M 466.188 227.508 L 463.061 232.511"/><path d="M 458.143 229.438 L 463.061 232.511"/><path d="M 469.846 236.75 L 472.972 231.747"/><path d="M 477.891 234.82 L 472.972 231.747"/><path d="M 477.891 234.82 L 474.861 239.67"/><path d="M 469.846 236.75 L 474.861 239.67"/></g><g stroke="rgb(0, 0, 0)" stroke-width="0.13" stroke-linecap="butt" stroke-linejoin="miter" fill="none"><path d="M 299.32 344.967 L 298.442 347.947 L 297.54 344.967 L 297.061 344.967 L 298.19 348.472 L 298.695 348.472 L 299.799 344.967 L 299.32 344.967 L 299.32 344.967 z M 302.522 345.764 L 302.079 345.764 L 302.079 347.327 L 302.028 347.69 L 301.882 347.952 L 301.655 348.114 L 301.357 348.164 L 301.12 348.124 L 300.969 348.003 L 300.883 347.796 L 300.863 347.504 L 300.863 345.764 L 300.419 345.764 L 300.419 347.544 L 300.434 347.902 L 300.53 348.2 L 300.823 348.472 L 301.292 348.568 L 301.544 348.532 L 301.761 348.442 L 301.947 348.285 L 302.099 348.058 L 302.099 348.472 L 302.522 348.472 L 302.522 345.764 L 302.522 345.764 z M 303.859 347.246 L 305.634 347.246 L 305.639 347.04 L 305.558 346.46 L 305.336 346.026 L 304.983 345.764 L 304.514 345.668 L 304.056 345.769 L 303.702 346.051 L 303.476 346.51 L 303.395 347.115 L 303.47 347.736 L 303.697 348.19 L 304.045 348.472 L 304.499 348.568 L 304.893 348.502 L 305.215 348.331 L 305.452 348.058 L 305.589 347.695 L 305.15 347.695 L 305.059 347.897 L 304.928 348.048 L 304.555 348.169 L 304.267 348.114 L 304.05 347.937 L 303.909 347.65 L 303.859 347.262 L 303.859 347.246 L 303.859 347.246 z M 303.859 346.873 L 303.914 346.525 L 304.05 346.268 L 304.257 346.112 L 304.53 346.056 L 304.797 346.112 L 305.004 346.268 L 305.13 346.525 L 305.175 346.873 L 303.859 346.873 L 303.859 346.873 z M 311.207 348.053 L 311.207 348.472 L 311.651 348.472 L 311.651 344.851 L 311.212 344.851 L 311.212 346.177 L 310.874 345.794 L 310.667 345.703 L 310.43 345.668 L 310.002 345.769 L 309.669 346.051 L 309.452 346.505 L 309.376 347.115 L 309.452 347.726 L 309.669 348.184 L 310.002 348.472 L 310.43 348.568 L 310.667 348.532 L 310.879 348.442 L 311.207 348.053 L 311.207 348.053 z M 310.506 346.066 L 310.798 346.137 L 311.02 346.334 L 311.151 346.661 L 311.202 347.115 L 311.151 347.574 L 311.02 347.902 L 310.798 348.104 L 310.506 348.169 L 310.228 348.104 L 310.017 347.902 L 309.875 347.569 L 309.83 347.115 L 309.875 346.666 L 310.017 346.339 L 310.228 346.137 L 310.506 346.066 L 310.506 346.066 z M 312.967 347.246 L 314.742 347.246 L 314.747 347.04 L 314.667 346.46 L 314.445 346.026 L 314.092 345.764 L 313.623 345.668 L 313.164 345.769 L 312.811 346.051 L 312.584 346.51 L 312.503 347.115 L 312.579 347.736 L 312.806 348.19 L 313.154 348.472 L 313.607 348.568 L 314.001 348.502 L 314.324 348.331 L 314.561 348.058 L 314.697 347.695 L 314.258 347.695 L 314.167 347.897 L 314.036 348.048 L 313.663 348.169 L 313.375 348.114 L 313.159 347.937 L 313.017 347.65 L 312.967 347.262 L 312.967 347.246 L 312.967 347.246 z M 312.967 346.873 L 313.022 346.525 L 313.159 346.268 L 313.365 346.112 L 313.638 346.056 L 313.905 346.112 L 314.112 346.268 L 314.238 346.525 L 314.283 346.873 L 312.967 346.873 L 312.967 346.873 z M 319.266 346.233 L 319.266 348.472 L 319.71 348.472 L 319.71 346.233 L 320.718 346.233 L 320.718 345.854 L 319.71 345.854 L 319.71 345.688 L 319.745 345.486 L 319.861 345.35 L 320.058 345.269 L 320.34 345.239 L 320.718 345.259 L 320.718 344.876 L 320.239 344.851 L 319.806 344.896 L 319.503 345.032 L 319.321 345.269 L 319.266 345.607 L 319.266 345.854 L 318.454 345.854 L 318.454 346.233 L 319.266 346.233 L 319.266 346.233 z M 323.296 348.119 L 323.296 348.134 L 323.321 348.306 L 323.396 348.427 L 323.714 348.522 L 323.961 348.482 L 323.961 348.139 L 323.855 348.154 L 323.714 348.089 L 323.689 347.887 L 323.689 346.485 L 323.628 346.127 L 323.452 345.875 L 323.144 345.723 L 322.711 345.668 L 322.287 345.728 L 321.974 345.9 L 321.778 346.167 L 321.712 346.52 L 321.712 346.55 L 322.11 346.55 L 322.146 346.339 L 322.257 346.187 L 322.438 346.097 L 322.695 346.061 L 322.943 346.086 L 323.119 346.162 L 323.225 346.293 L 323.26 346.475 L 323.24 346.687 L 323.159 346.793 L 322.958 346.843 L 322.579 346.883 L 322.146 346.974 L 321.838 347.135 L 321.656 347.388 L 321.601 347.761 L 321.651 348.094 L 321.808 348.341 L 322.06 348.497 L 322.408 348.553 L 322.877 348.447 L 323.296 348.119 L 323.296 348.119 z M 323.245 347.524 L 323.185 347.786 L 323.023 347.988 L 322.781 348.119 L 322.484 348.164 L 322.292 348.139 L 322.156 348.058 L 322.07 347.917 L 322.045 347.72 L 322.065 347.544 L 322.146 347.418 L 322.468 347.277 L 322.877 347.216 L 323.245 347.095 L 323.245 347.524 L 323.245 347.524 z M 326.448 346.661 L 326.886 346.661 L 326.796 346.258 L 326.579 345.94 L 326.241 345.744 L 325.802 345.668 L 325.318 345.769 L 324.95 346.051 L 324.718 346.51 L 324.637 347.125 L 324.713 347.736 L 324.94 348.19 L 325.298 348.472 L 325.787 348.568 L 326.221 348.492 L 326.559 348.28 L 326.79 347.947 L 326.891 347.504 L 326.468 347.504 L 326.392 347.786 L 326.251 347.998 L 326.049 348.129 L 325.802 348.169 L 325.494 348.104 L 325.272 347.902 L 325.136 347.574 L 325.091 347.11 L 325.136 346.656 L 325.278 346.329 L 325.504 346.127 L 325.802 346.056 L 326.064 346.102 L 326.261 346.218 L 326.392 346.409 L 326.448 346.661 L 326.448 346.661 z M 328.147 347.246 L 329.922 347.246 L 329.927 347.04 L 329.847 346.46 L 329.625 346.026 L 329.272 345.764 L 328.803 345.668 L 328.344 345.769 L 327.991 346.051 L 327.764 346.51 L 327.683 347.115 L 327.759 347.736 L 327.986 348.19 L 328.334 348.472 L 328.788 348.568 L 329.181 348.502 L 329.504 348.331 L 329.741 348.058 L 329.877 347.695 L 329.438 347.695 L 329.347 347.897 L 329.216 348.048 L 328.843 348.169 L 328.556 348.114 L 328.339 347.937 L 328.198 347.65 L 328.147 347.262 L 328.147 347.246 L 328.147 347.246 z M 328.147 346.873 L 328.203 346.525 L 328.339 346.268 L 328.546 346.112 L 328.818 346.056 L 329.085 346.112 L 329.292 346.268 L 329.418 346.525 L 329.463 346.873 L 328.147 346.873 L 328.147 346.873 z" stroke="none" fill-rule="evenodd" fill="rgb(0, 0, 0)"/></g><g stroke="rgb(0, 0, 0)" stroke-width="0.13" stroke-linecap="butt" stroke-linejoin="miter" fill="none"><path d="M 297.383 354.519 L 299.602 354.519 L 299.602 354.095 L 297.847 354.095 L 297.847 352.91 L 299.411 352.91 L 299.411 352.491 L 297.847 352.491 L 297.847 351.442 L 299.562 351.442 L 299.562 351.019 L 297.383 351.019 L 297.383 354.519 L 297.383 354.519 z M 302.159 352.708 L 302.598 352.708 L 302.507 352.305 L 302.29 351.987 L 301.952 351.79 L 301.514 351.715 L 301.03 351.816 L 300.661 352.098 L 300.429 352.557 L 300.349 353.172 L 300.424 353.782 L 300.651 354.236 L 301.009 354.519 L 301.499 354.615 L 301.932 354.539 L 302.27 354.327 L 302.502 353.994 L 302.603 353.55 L 302.179 353.55 L 302.104 353.833 L 301.963 354.045 L 301.761 354.176 L 301.514 354.216 L 301.206 354.151 L 300.984 353.949 L 300.848 353.621 L 300.803 353.157 L 300.848 352.703 L 300.989 352.375 L 301.216 352.174 L 301.514 352.103 L 301.776 352.148 L 301.973 352.264 L 302.104 352.456 L 302.159 352.708 L 302.159 352.708 z M 303.47 354.519 L 303.914 354.519 L 303.914 352.955 L 303.96 352.597 L 304.106 352.335 L 304.333 352.174 L 304.635 352.113 L 304.878 352.164 L 305.029 352.3 L 305.104 352.527 L 305.13 352.829 L 305.13 354.519 L 305.574 354.519 L 305.574 352.738 L 305.553 352.38 L 305.463 352.083 L 305.165 351.811 L 304.701 351.715 L 304.449 351.75 L 304.232 351.846 L 304.05 351.997 L 303.914 352.204 L 303.914 350.898 L 303.47 350.898 L 303.47 354.519 L 303.47 354.519 z M 306.895 353.293 L 308.67 353.293 L 308.675 353.086 L 308.594 352.507 L 308.373 352.073 L 308.02 351.811 L 307.55 351.715 L 307.092 351.816 L 306.739 352.098 L 306.512 352.557 L 306.431 353.162 L 306.507 353.782 L 306.733 354.236 L 307.081 354.519 L 307.535 354.615 L 307.929 354.549 L 308.251 354.378 L 308.489 354.105 L 308.625 353.742 L 308.186 353.742 L 308.095 353.944 L 307.964 354.095 L 307.591 354.216 L 307.303 354.161 L 307.087 353.984 L 306.945 353.697 L 306.895 353.308 L 306.895 353.293 L 306.895 353.293 z M 306.895 352.92 L 306.95 352.572 L 307.087 352.315 L 307.293 352.159 L 307.566 352.103 L 307.833 352.159 L 308.04 352.315 L 308.166 352.572 L 308.211 352.92 L 306.895 352.92 L 306.895 352.92 z M 310.425 351.271 L 310.425 354.146 L 309.512 354.146 L 309.512 354.519 L 311.777 354.519 L 311.777 354.146 L 310.869 354.146 L 310.869 350.898 L 309.729 350.898 L 309.729 351.271 L 310.425 351.271 L 310.425 351.271 z M 313.461 351.271 L 313.461 354.146 L 312.548 354.146 L 312.548 354.519 L 314.813 354.519 L 314.813 354.146 L 313.905 354.146 L 313.905 350.898 L 312.765 350.898 L 312.765 351.271 L 313.461 351.271 L 313.461 351.271 z M 316.003 353.293 L 317.778 353.293 L 317.783 353.086 L 317.703 352.507 L 317.481 352.073 L 317.128 351.811 L 316.659 351.715 L 316.2 351.816 L 315.847 352.098 L 315.62 352.557 L 315.539 353.162 L 315.615 353.782 L 315.842 354.236 L 316.19 354.519 L 316.643 354.615 L 317.037 354.549 L 317.36 354.378 L 317.597 354.105 L 317.733 353.742 L 317.294 353.742 L 317.203 353.944 L 317.072 354.095 L 316.699 354.216 L 316.411 354.161 L 316.195 353.984 L 316.053 353.697 L 316.003 353.308 L 316.003 353.293 L 316.003 353.293 z M 316.003 352.92 L 316.058 352.572 L 316.195 352.315 L 316.401 352.159 L 316.674 352.103 L 316.941 352.159 L 317.148 352.315 L 317.274 352.572 L 317.319 352.92 L 316.003 352.92 L 316.003 352.92 z M 322.383 354.519 L 323.079 354.519 L 323.079 353.767 L 322.383 353.767 L 322.383 354.519 L 322.383 354.519 z M 322.383 352.562 L 323.079 352.562 L 323.079 351.811 L 322.383 351.811 L 322.383 352.562 L 322.383 352.562 z" stroke="none" fill-rule="evenodd" fill="rgb(0, 0, 0)"/></g><g stroke="rgb(0, 0, 0)" stroke-width="0.13" stroke-linecap="butt" stroke-linejoin="miter" fill="none"><path d="M 331.748 354.519 L 332.207 354.519 L 332.207 350.994 L 331.864 350.994 L 331.773 351.301 L 331.592 351.508 L 331.314 351.629 L 330.931 351.669 L 330.931 352.027 L 331.748 352.027 L 331.748 354.519 L 331.748 354.519 z M 334.527 354.519 L 335.223 354.519 L 335.223 353.767 L 334.527 353.767 L 334.527 354.519 L 334.527 354.519 z M 334.527 352.562 L 335.223 352.562 L 335.223 351.811 L 334.527 351.811 L 334.527 352.562 L 334.527 352.562 z M 337.82 354.519 L 338.279 354.519 L 338.279 350.994 L 337.936 350.994 L 337.845 351.301 L 337.664 351.508 L 337.386 351.629 L 337.003 351.669 L 337.003 352.027 L 337.82 352.027 L 337.82 354.519 L 337.82 354.519 z" stroke="none" fill-rule="evenodd" fill="rgb(0, 0, 0)"/></g><g stroke="rgb(0, 0, 0)" stroke-width="0.13" stroke-linecap="butt" stroke-linejoin="miter" fill="none"><path d="M 286.334 375.74 L 286.444 376.154 L 286.692 376.476 L 287.055 376.678 L 287.519 376.754 L 288.028 376.663 L 288.426 376.416 L 288.679 376.022 L 288.774 375.518 L 288.689 375.049 L 288.447 374.681 L 288.068 374.444 L 287.579 374.358 L 287.201 374.419 L 286.908 374.585 L 287.05 373.642 L 288.583 373.642 L 288.583 373.229 L 286.712 373.229 L 286.434 375.084 L 286.838 375.084 L 287.13 374.847 L 287.504 374.762 L 287.826 374.817 L 288.073 374.979 L 288.23 375.226 L 288.285 375.543 L 288.23 375.861 L 288.068 376.108 L 287.821 376.265 L 287.504 376.32 L 287.236 376.285 L 287.03 376.169 L 286.878 375.987 L 286.803 375.74 L 286.334 375.74 L 286.334 375.74 z M 292.531 374.096 L 292.435 373.687 L 292.213 373.385 L 291.87 373.193 L 291.426 373.128 L 291.129 373.163 L 290.871 373.259 L 290.645 373.415 L 290.453 373.637 L 290.302 373.914 L 290.191 374.252 L 290.12 374.651 L 290.1 375.1 L 290.181 375.816 L 290.428 376.335 L 290.826 376.648 L 291.371 376.754 L 291.86 376.663 L 292.233 376.426 L 292.475 376.053 L 292.561 375.579 L 292.475 375.1 L 292.243 374.731 L 291.885 374.499 L 291.441 374.419 L 290.962 374.52 L 290.604 374.807 L 290.68 374.252 L 290.841 373.854 L 291.088 373.617 L 291.431 373.536 L 291.683 373.577 L 291.875 373.682 L 292.001 373.859 L 292.067 374.096 L 292.531 374.096 L 292.531 374.096 z M 292.072 375.584 L 292.016 375.901 L 291.875 376.144 L 291.648 376.305 L 291.366 376.355 L 291.068 376.305 L 290.841 376.149 L 290.695 375.906 L 290.65 375.589 L 290.7 375.276 L 290.841 375.039 L 291.073 374.888 L 291.386 374.832 L 291.658 374.888 L 291.875 375.034 L 292.016 375.271 L 292.072 375.584 L 292.072 375.584 z M 294.431 374.767 L 294.174 374.908 L 293.997 375.105 L 293.886 375.352 L 293.851 375.649 L 293.932 376.098 L 294.164 376.446 L 294.542 376.668 L 295.056 376.754 L 295.566 376.668 L 295.944 376.446 L 296.176 376.098 L 296.262 375.649 L 296.221 375.352 L 296.115 375.105 L 295.934 374.908 L 295.682 374.767 L 295.883 374.646 L 296.025 374.479 L 296.11 374.278 L 296.141 374.03 L 296.06 373.672 L 295.848 373.385 L 295.505 373.198 L 295.056 373.128 L 294.602 373.198 L 294.259 373.385 L 294.043 373.672 L 293.967 374.03 L 293.992 374.278 L 294.078 374.479 L 294.431 374.767 L 294.431 374.767 z M 294.335 375.639 L 294.381 375.372 L 294.527 375.17 L 294.754 375.039 L 295.056 374.994 L 295.354 375.039 L 295.581 375.17 L 295.727 375.372 L 295.777 375.639 L 295.727 375.927 L 295.581 376.144 L 295.354 376.285 L 295.056 376.33 L 294.754 376.285 L 294.527 376.144 L 294.381 375.927 L 294.335 375.639 L 294.335 375.639 z M 294.446 374.071 L 294.486 373.849 L 294.607 373.677 L 294.799 373.571 L 295.056 373.531 L 295.308 373.571 L 295.5 373.677 L 295.621 373.849 L 295.667 374.071 L 295.621 374.298 L 295.5 374.474 L 295.308 374.59 L 295.056 374.625 L 294.799 374.585 L 294.607 374.474 L 294.486 374.298 L 294.446 374.071 L 294.446 374.071 z M 298.444 376.653 L 299.14 376.653 L 299.14 375.901 L 298.444 375.901 L 298.444 376.653 L 298.444 376.653 z M 302.438 376.653 L 302.897 376.653 L 302.897 373.128 L 302.554 373.128 L 302.463 373.435 L 302.281 373.642 L 302.004 373.763 L 301.621 373.803 L 301.621 374.162 L 302.438 374.162 L 302.438 376.653 L 302.438 376.653 z M 307.475 374.096 L 307.379 373.687 L 307.157 373.385 L 306.814 373.193 L 306.37 373.128 L 306.073 373.163 L 305.816 373.259 L 305.589 373.415 L 305.397 373.637 L 305.246 373.914 L 305.135 374.252 L 305.064 374.651 L 305.044 375.1 L 305.125 375.816 L 305.372 376.335 L 305.77 376.648 L 306.315 376.754 L 306.804 376.663 L 307.177 376.426 L 307.419 376.053 L 307.505 375.579 L 307.419 375.1 L 307.187 374.731 L 306.829 374.499 L 306.385 374.419 L 305.906 374.52 L 305.548 374.807 L 305.624 374.252 L 305.785 373.854 L 306.032 373.617 L 306.375 373.536 L 306.628 373.577 L 306.819 373.682 L 306.945 373.859 L 307.011 374.096 L 307.475 374.096 L 307.475 374.096 z M 307.016 375.584 L 306.96 375.901 L 306.819 376.144 L 306.592 376.305 L 306.31 376.355 L 306.012 376.305 L 305.785 376.149 L 305.639 375.906 L 305.594 375.589 L 305.644 375.276 L 305.785 375.039 L 306.017 374.888 L 306.33 374.832 L 306.602 374.888 L 306.819 375.034 L 306.96 375.271 L 307.016 375.584 L 307.016 375.584 z" stroke="none" fill-rule="evenodd" fill="rgb(0, 0, 0)"/><path d="M 14.775 378.135 L 12.8431 378.653 L 14.775 379.171"/><path d="M 579.074 379.171 L 581.006 378.653 L 579.074 378.135"/><path d="M 12.8431 378.653 L 581.006 378.653"/></g></svg>