<?xml version="1.0" encoding="utf-8" ?><!DOCTYPE svg PUBLIC "-//W3C//DTD SVG 1.1//EN" "http://www.w3.org/Graphics/SVG/1.1/DTD/svg11.dtd" 
[ <!ATTLIST svg 
  xmlns:dsy CDATA #FIXED "http://www.3ds.com/print"  
    dsy:text-version CDATA #IMPLIED > 

  <!ATTLIST text 
  xmlns:dsy CDATA #FIXED "http://www.3ds.com/print" 
    dsy:text-version CDATA #IMPLIED > 
]><svg xmlns="http://www.w3.org/2000/svg" xmlns:dsy="http://www.3ds.com/print" dsy:text-version="18000" width="594" height="420" viewBox="0 0 594 420" version="1.1"><g stroke="rgb(0, 0, 0)" stroke-width="0.13" stroke-linecap="butt" stroke-linejoin="miter" fill="none"><path d="M 18.4615 276.101 L 18.4615 409.058"/><path d="M 586.624 110.773 L 586.624 409.058"/></g><g stroke="rgb(0, 0, 0)" stroke-width="0.35" stroke-linecap="butt" stroke-linejoin="miter" fill="none"><path d="M 18.4615 274.101 L 49.9266 201.122"/><path d="M 18.4615 274.101 L 160.656 310.782"/><path d="M 160.656 310.782 L 168.149 281.733"/><path d="M 168.149 281.733 L 173.959 283.231"/><path d="M 173.959 283.231 L 166.466 312.28"/><path d="M 166.466 312.28 L 307.773 348.732"/><path d="M 307.773 348.732 L 345.537 370.535"/><path d="M 345.537 370.535 L 360.537 344.554"/><path d="M 360.537 344.554 L 365.733 347.554"/><path d="M 365.733 347.554 L 350.733 373.535"/><path d="M 350.733 373.535 L 396.859 400.166"/><path d="M 396.859 400.166 L 402.12 391.438"/><path d="M 410.9 386.603 A 10 10 0 0 0 402.12 391.438"/><path d="M 410.9 386.603 L 436.1 399.594"/><path d="M 579.239 151.671 L 436.1 399.594"/><path d="M 567.991 142.205 L 579.239 151.671"/><path d="M 577.274 124.967 A 10 10 0 0 0 567.991 142.205"/><path d="M 577.274 124.967 L 586.624 108.773"/><path d="M 586.624 108.773 L 539.039 81.2993"/><path d="M 490.35 165.63 L 539.039 81.2993"/><path d="M 516.331 180.63 L 490.35 165.63"/><path d="M 513.331 185.826 L 516.331 180.63"/><path d="M 487.35 170.826 L 513.331 185.826"/><path d="M 462.024 214.692 L 487.35 170.826"/><path d="M 49.9266 201.122 L 462.024 214.692"/><path d="M 36.865 264.576 L 41.2496 260.628"/><path d="M 41.2496 260.628 L 45.1305 264.939"/><path d="M 45.1305 264.939 L 40.746 268.886"/><path d="M 40.746 268.886 L 36.865 264.576"/><path d="M 57.6731 245.841 L 62.0576 241.893"/><path d="M 62.0576 241.893 L 65.9386 246.203"/><path d="M 65.9386 246.203 L 61.554 250.151"/><path d="M 61.554 250.151 L 57.6731 245.841"/><path d="M 54.9346 222.175 L 50.55 226.123"/><path d="M 58.8155 226.486 L 54.9346 222.175"/><path d="M 54.431 230.434 L 58.8155 226.486"/><path d="M 50.55 226.123 L 54.431 230.434"/><path d="M 234.698 240.622 L 237.648 235.513"/><path d="M 242.671 238.413 L 237.648 235.513"/><path d="M 242.671 238.413 L 239.721 243.522"/><path d="M 234.698 240.622 L 239.721 243.522"/><path d="M 322.55 289.634 L 325.5 284.525"/><path d="M 330.523 287.425 L 325.5 284.525"/><path d="M 330.523 287.425 L 327.573 292.534"/><path d="M 322.55 289.634 L 327.573 292.534"/><path d="M 263.938 257.929 L 267.097 252.946"/><path d="M 271.996 256.051 L 267.097 252.946"/><path d="M 271.996 256.051 L 268.837 261.034"/><path d="M 263.938 257.929 L 268.837 261.034"/><path d="M 275.594 265.318 L 278.753 260.334"/><path d="M 283.651 263.44 L 278.753 260.334"/><path d="M 283.651 263.44 L 280.492 268.423"/><path d="M 275.594 265.318 L 280.492 268.423"/><path d="M 463.761 292.988 L 466.888 287.984"/><path d="M 471.806 291.058 L 466.888 287.984"/><path d="M 471.806 291.058 L 468.68 296.061"/><path d="M 463.761 292.988 L 468.68 296.061"/><path d="M 475.464 300.301 L 478.591 295.297"/><path d="M 483.509 298.371 L 478.591 295.297"/><path d="M 483.509 298.371 L 480.479 303.22"/><path d="M 475.464 300.301 L 480.479 303.22"/><path d="M 448.972 66.5576 L 516.972 66.5576"/><path d="M 516.972 66.5576 L 516.972 52.5576"/><path d="M 516.972 52.5576 L 524.972 52.5576"/><path d="M 524.972 52.5576 L 524.972 46.5576"/><path d="M 524.972 46.5576 L 516.972 46.5576"/><path d="M 516.972 46.5576 L 516.972 31.5576"/><path d="M 516.972 31.5576 L 506.972 31.5576"/><path d="M 458.972 31.5576 A 24 24 0 1 0 506.972 31.5576"/><path d="M 458.972 31.5576 L 448.972 31.5576"/><path d="M 448.972 31.5576 L 448.972 46.5576"/><path d="M 448.972 46.5576 L 440.972 46.5576"/><path d="M 440.972 46.5576 L 440.972 52.5576"/><path d="M 440.972 52.5576 L 448.972 52.5576"/><path d="M 448.972 52.5576 L 448.972 66.5576"/><path d="M 45.1792 27.9983 L 45.1792 77.9983"/><path d="M 45.1792 77.9983 L 55.1792 77.9983"/><path d="M 55.1792 77.9983 L 55.1792 57.9983"/><path d="M 60.8792 57.9983 L 55.1792 57.9983"/><path d="M 60.8792 57.9983 L 60.8792 97.9983"/><path d="M 60.8792 97.9983 L 128.879 97.9983"/><path d="M 128.879 57.9983 L 128.879 97.9983"/><path d="M 134.579 57.9983 L 128.879 57.9983"/><path d="M 134.579 74.6524 L 134.579 57.9983"/><path d="M 134.579 74.6524 L 134.579 77.9983"/><path d="M 134.579 77.9983 L 144.579 77.9983"/><path d="M 144.579 27.9983 L 144.579 77.9983"/><path d="M 45.1792 27.9983 L 144.579 27.9983"/><path d="M 173.931 28.6593 L 173.931 78.6593"/><path d="M 173.931 78.6593 L 183.931 78.6593"/><path d="M 183.931 78.6593 L 183.931 58.6593"/><path d="M 189.631 58.6593 L 183.931 58.6593"/><path d="M 189.631 58.6593 L 189.631 98.6593"/><path d="M 189.631 98.6593 L 257.631 98.6593"/><path d="M 257.631 58.6593 L 257.631 98.6593"/><path d="M 263.331 58.6593 L 257.631 58.6593"/><path d="M 263.331 75.3133 L 263.331 58.6593"/><path d="M 263.331 75.3133 L 263.331 78.6593"/><path d="M 263.331 78.6593 L 273.331 78.6593"/><path d="M 273.331 28.6593 L 273.331 78.6593"/><path d="M 173.931 28.6593 L 273.331 28.6593"/><path d="M 297.382 28.2373 L 297.382 78.2373"/><path d="M 297.382 78.2373 L 307.382 78.2373"/><path d="M 307.382 78.2373 L 307.382 58.2373"/><path d="M 313.082 58.2373 L 307.382 58.2373"/><path d="M 313.082 58.2373 L 313.082 98.2373"/><path d="M 313.082 98.2373 L 381.082 98.2373"/><path d="M 381.082 58.2373 L 381.082 98.2373"/><path d="M 386.782 58.2373 L 381.082 58.2373"/><path d="M 386.782 74.8913 L 386.782 58.2373"/><path d="M 386.782 74.8913 L 386.782 78.2373"/><path d="M 386.782 78.2373 L 396.782 78.2373"/><path d="M 396.782 28.2373 L 396.782 78.2373"/><path d="M 297.382 28.2373 L 396.782 28.2373"/></g><g stroke="rgb(0, 0, 0)" stroke-width="0.13" stroke-linecap="butt" stroke-linejoin="miter" fill="none"><path d="M 291.952 404.145 L 292.063 404.559 L 292.31 404.882 L 292.673 405.083 L 293.137 405.159 L 293.646 405.068 L 294.045 404.821 L 294.297 404.428 L 294.393 403.923 L 294.307 403.454 L 294.065 403.086 L 293.687 402.849 L 293.198 402.763 L 292.819 402.824 L 292.527 402.99 L 292.668 402.047 L 294.201 402.047 L 294.201 401.634 L 292.33 401.634 L 292.053 403.49 L 292.456 403.49 L 292.749 403.253 L 293.122 403.167 L 293.445 403.222 L 293.692 403.384 L 293.848 403.631 L 293.904 403.949 L 293.848 404.266 L 293.687 404.513 L 293.44 404.67 L 293.122 404.725 L 292.855 404.69 L 292.648 404.574 L 292.497 404.392 L 292.421 404.145 L 291.952 404.145 L 291.952 404.145 z M 298.149 402.501 L 298.053 402.093 L 297.831 401.79 L 297.488 401.598 L 297.045 401.533 L 296.747 401.568 L 296.49 401.664 L 296.263 401.82 L 296.071 402.042 L 295.92 402.32 L 295.809 402.658 L 295.738 403.056 L 295.718 403.505 L 295.799 404.221 L 296.046 404.74 L 296.444 405.053 L 296.989 405.159 L 297.478 405.068 L 297.852 404.831 L 298.094 404.458 L 298.179 403.984 L 298.094 403.505 L 297.862 403.137 L 297.504 402.905 L 297.06 402.824 L 296.581 402.925 L 296.223 403.212 L 296.298 402.658 L 296.46 402.259 L 296.707 402.022 L 297.05 401.941 L 297.302 401.982 L 297.493 402.088 L 297.62 402.264 L 297.685 402.501 L 298.149 402.501 L 298.149 402.501 z M 297.69 403.989 L 297.635 404.307 L 297.493 404.549 L 297.267 404.71 L 296.984 404.761 L 296.687 404.71 L 296.46 404.554 L 296.313 404.312 L 296.268 403.994 L 296.318 403.681 L 296.46 403.444 L 296.692 403.293 L 297.004 403.238 L 297.277 403.293 L 297.493 403.439 L 297.635 403.676 L 297.69 403.989 L 297.69 403.989 z M 300.049 403.172 L 299.792 403.313 L 299.616 403.51 L 299.505 403.757 L 299.469 404.055 L 299.55 404.503 L 299.782 404.851 L 300.16 405.073 L 300.675 405.159 L 301.184 405.073 L 301.562 404.851 L 301.794 404.503 L 301.88 404.055 L 301.84 403.757 L 301.734 403.51 L 301.552 403.313 L 301.3 403.172 L 301.502 403.051 L 301.643 402.885 L 301.729 402.683 L 301.759 402.436 L 301.678 402.078 L 301.467 401.79 L 301.124 401.604 L 300.675 401.533 L 300.221 401.604 L 299.878 401.79 L 299.661 402.078 L 299.585 402.436 L 299.611 402.683 L 299.696 402.885 L 300.049 403.172 L 300.049 403.172 z M 299.954 404.044 L 299.999 403.777 L 300.145 403.575 L 300.372 403.444 L 300.675 403.399 L 300.972 403.444 L 301.199 403.575 L 301.345 403.777 L 301.396 404.044 L 301.345 404.332 L 301.199 404.549 L 300.972 404.69 L 300.675 404.735 L 300.372 404.69 L 300.145 404.549 L 299.999 404.332 L 299.954 404.044 L 299.954 404.044 z M 300.064 402.476 L 300.105 402.254 L 300.226 402.083 L 300.418 401.977 L 300.675 401.936 L 300.927 401.977 L 301.119 402.083 L 301.24 402.254 L 301.285 402.476 L 301.24 402.703 L 301.119 402.879 L 300.927 402.995 L 300.675 403.031 L 300.418 402.99 L 300.226 402.879 L 300.105 402.703 L 300.064 402.476 L 300.064 402.476 z M 304.063 405.058 L 304.759 405.058 L 304.759 404.307 L 304.063 404.307 L 304.063 405.058 L 304.063 405.058 z M 308.056 405.058 L 308.515 405.058 L 308.515 401.533 L 308.172 401.533 L 308.081 401.841 L 307.9 402.047 L 307.622 402.168 L 307.239 402.209 L 307.239 402.567 L 308.056 402.567 L 308.056 405.058 L 308.056 405.058 z M 313.093 402.501 L 312.997 402.093 L 312.775 401.79 L 312.432 401.598 L 311.989 401.533 L 311.691 401.568 L 311.434 401.664 L 311.207 401.82 L 311.015 402.042 L 310.864 402.32 L 310.753 402.658 L 310.682 403.056 L 310.662 403.505 L 310.743 404.221 L 310.99 404.74 L 311.389 405.053 L 311.933 405.159 L 312.422 405.068 L 312.796 404.831 L 313.038 404.458 L 313.123 403.984 L 313.038 403.505 L 312.806 403.137 L 312.448 402.905 L 312.004 402.824 L 311.525 402.925 L 311.167 403.212 L 311.242 402.658 L 311.404 402.259 L 311.651 402.022 L 311.994 401.941 L 312.246 401.982 L 312.438 402.088 L 312.564 402.264 L 312.629 402.501 L 313.093 402.501 L 313.093 402.501 z M 312.634 403.989 L 312.579 404.307 L 312.438 404.549 L 312.211 404.71 L 311.928 404.761 L 311.631 404.71 L 311.404 404.554 L 311.257 404.312 L 311.212 403.994 L 311.262 403.681 L 311.404 403.444 L 311.636 403.293 L 311.948 403.238 L 312.221 403.293 L 312.438 403.439 L 312.579 403.676 L 312.634 403.989 L 312.634 403.989 z" stroke="none" fill-rule="evenodd" fill="rgb(0, 0, 0)"/><path d="M 20.3934 406.541 L 18.4615 407.058 L 20.3934 407.576"/><path d="M 584.692 407.576 L 586.624 407.058 L 584.692 406.541"/><path d="M 18.4615 407.058 L 586.624 407.058"/></g></svg>