<?xml version="1.0" encoding="utf-8" ?><!DOCTYPE svg PUBLIC "-//W3C//DTD SVG 1.1//EN" "http://www.w3.org/Graphics/SVG/1.1/DTD/svg11.dtd" 
[ <!ATTLIST svg 
  xmlns:dsy CDATA #FIXED "http://www.3ds.com/print"  
    dsy:text-version CDATA #IMPLIED > 

  <!ATTLIST text 
  xmlns:dsy CDATA #FIXED "http://www.3ds.com/print" 
    dsy:text-version CDATA #IMPLIED > 
]><svg xmlns="http://www.w3.org/2000/svg" xmlns:dsy="http://www.3ds.com/print" dsy:text-version="18000" width="594" height="420" viewBox="0 0 594 420" version="1.1"><g stroke="rgb(0, 0, 0)" stroke-width="0.13" stroke-linecap="butt" stroke-linejoin="miter" fill="none"><path d="M 8.79494 253.048 L 8.79494 408.73"/><path d="M 579.663 76.8385 L 579.663 408.73"/></g><g stroke="rgb(0, 0, 0)" stroke-width="0.35" stroke-linecap="butt" stroke-linejoin="miter" fill="none"><path d="M 390.04 365.995 L 395.159 357.504"/><path d="M 403.939 352.669 A 9.99997 9.99997 0 0 0 395.159 357.504"/><path d="M 403.939 352.669 L 429.139 365.66"/><path d="M 572.278 117.736 L 429.139 365.66"/><path d="M 561.029 108.271 L 572.278 117.736"/><path d="M 570.313 91.0329 A 9.99997 9.99997 0 0 0 561.029 108.271"/><path d="M 570.313 91.0329 L 579.663 74.8385"/><path d="M 579.663 74.8385 L 526.123 43.9275"/><path d="M 449.114 177.312 L 526.123 43.9275"/><path d="M 36.3458 179.597 L 449.114 177.312"/><path d="M 8.79494 251.048 L 36.3458 179.597"/><path d="M 300.402 314.243 L 8.79494 251.048"/><path d="M 390.04 365.995 L 300.402 314.243"/><path d="M 425.52 228.683 L 428.47 223.573"/><path d="M 433.493 226.473 L 428.47 223.573"/><path d="M 433.493 226.473 L 430.543 231.583"/><path d="M 425.52 228.683 L 430.543 231.583"/><path d="M 383.743 312.643 L 378.72 309.743"/><path d="M 378.72 309.743 L 381.67 304.633"/><path d="M 386.693 307.533 L 381.67 304.633"/><path d="M 386.693 307.533 L 383.743 312.643"/><path d="M 29.9037 230.642 L 34.2883 226.694"/><path d="M 34.2883 226.694 L 38.1692 231.004"/><path d="M 38.1692 231.004 L 33.7847 234.952"/><path d="M 33.7847 234.952 L 29.9037 230.642"/><path d="M 50.7118 211.906 L 55.0963 207.959"/><path d="M 55.0963 207.959 L 58.9773 212.269"/><path d="M 58.9773 212.269 L 54.5927 216.217"/><path d="M 54.5927 216.217 L 50.7118 211.906"/><path d="M 47.9733 188.241 L 43.5887 192.189"/><path d="M 51.8542 192.552 L 47.9733 188.241"/><path d="M 47.4697 196.499 L 51.8542 192.552"/><path d="M 43.5887 192.189 L 47.4697 196.499"/><path d="M 180.091 230.611 L 183.041 225.501"/><path d="M 188.064 228.401 L 183.041 225.501"/><path d="M 188.064 228.401 L 185.114 233.511"/><path d="M 180.091 230.611 L 185.114 233.511"/><path d="M 315.588 255.7 L 318.538 250.591"/><path d="M 323.561 253.491 L 318.538 250.591"/><path d="M 323.561 253.491 L 320.611 258.6"/><path d="M 315.588 255.7 L 320.611 258.6"/><path d="M 387.439 295.575 L 390.389 290.466"/><path d="M 395.412 293.366 L 390.389 290.466"/><path d="M 395.412 293.366 L 392.462 298.475"/><path d="M 387.439 295.575 L 392.462 298.475"/><path d="M 419.81 239.507 L 422.76 234.397"/><path d="M 427.783 237.297 L 422.76 234.397"/><path d="M 427.783 237.297 L 424.833 242.407"/><path d="M 419.81 239.507 L 424.833 242.407"/><path d="M 256.977 223.995 L 260.136 219.012"/><path d="M 265.035 222.117 L 260.136 219.012"/><path d="M 265.035 222.117 L 261.876 227.1"/><path d="M 256.977 223.995 L 261.876 227.1"/><path d="M 268.632 231.383 L 271.791 226.4"/><path d="M 276.69 229.506 L 271.791 226.4"/><path d="M 276.69 229.506 L 273.531 234.489"/><path d="M 268.632 231.383 L 273.531 234.489"/><path d="M 456.8 259.054 L 459.926 254.05"/><path d="M 464.845 257.124 L 459.926 254.05"/><path d="M 464.845 257.124 L 461.719 262.127"/><path d="M 456.8 259.054 L 461.719 262.127"/><path d="M 468.503 266.367 L 471.63 261.363"/><path d="M 476.548 264.437 L 471.63 261.363"/><path d="M 476.548 264.437 L 473.518 269.286"/><path d="M 468.503 266.367 L 473.518 269.286"/></g><g stroke="rgb(0, 0, 0)" stroke-width="0.13" stroke-linecap="butt" stroke-linejoin="miter" fill="none"><path d="M 296.624 374.347 L 295.747 377.328 L 294.844 374.347 L 294.365 374.347 L 295.495 377.852 L 295.999 377.852 L 297.103 374.347 L 296.624 374.347 L 296.624 374.347 z M 299.827 375.144 L 299.383 375.144 L 299.383 376.707 L 299.333 377.07 L 299.186 377.333 L 298.959 377.494 L 298.662 377.544 L 298.425 377.504 L 298.273 377.383 L 298.188 377.176 L 298.168 376.884 L 298.168 375.144 L 297.724 375.144 L 297.724 376.924 L 297.739 377.282 L 297.835 377.58 L 298.127 377.852 L 298.596 377.948 L 298.848 377.913 L 299.065 377.822 L 299.252 377.665 L 299.403 377.438 L 299.403 377.852 L 299.827 377.852 L 299.827 375.144 L 299.827 375.144 z M 301.163 376.627 L 302.939 376.627 L 302.944 376.42 L 302.863 375.84 L 302.641 375.406 L 302.288 375.144 L 301.819 375.048 L 301.36 375.149 L 301.007 375.431 L 300.78 375.89 L 300.699 376.495 L 300.775 377.116 L 301.002 377.57 L 301.35 377.852 L 301.804 377.948 L 302.197 377.882 L 302.52 377.711 L 302.757 377.438 L 302.893 377.075 L 302.454 377.075 L 302.364 377.277 L 302.232 377.428 L 301.859 377.549 L 301.572 377.494 L 301.355 377.317 L 301.214 377.03 L 301.163 376.642 L 301.163 376.627 L 301.163 376.627 z M 301.163 376.253 L 301.219 375.905 L 301.355 375.648 L 301.562 375.492 L 301.834 375.436 L 302.101 375.492 L 302.308 375.648 L 302.434 375.905 L 302.48 376.253 L 301.163 376.253 L 301.163 376.253 z M 308.511 377.433 L 308.511 377.852 L 308.955 377.852 L 308.955 374.231 L 308.516 374.231 L 308.516 375.557 L 308.178 375.174 L 307.972 375.083 L 307.735 375.048 L 307.306 375.149 L 306.973 375.431 L 306.756 375.885 L 306.681 376.495 L 306.756 377.106 L 306.973 377.565 L 307.306 377.852 L 307.735 377.948 L 307.972 377.913 L 308.184 377.822 L 308.511 377.433 L 308.511 377.433 z M 307.81 375.446 L 308.103 375.517 L 308.325 375.714 L 308.456 376.042 L 308.506 376.495 L 308.456 376.954 L 308.325 377.282 L 308.103 377.484 L 307.81 377.549 L 307.533 377.484 L 307.321 377.282 L 307.18 376.949 L 307.135 376.495 L 307.18 376.047 L 307.321 375.719 L 307.533 375.517 L 307.81 375.446 L 307.81 375.446 z M 310.271 376.627 L 312.047 376.627 L 312.052 376.42 L 311.971 375.84 L 311.749 375.406 L 311.396 375.144 L 310.927 375.048 L 310.468 375.149 L 310.115 375.431 L 309.888 375.89 L 309.807 376.495 L 309.883 377.116 L 310.11 377.57 L 310.458 377.852 L 310.912 377.948 L 311.305 377.882 L 311.628 377.711 L 311.865 377.438 L 312.001 377.075 L 311.563 377.075 L 311.472 377.277 L 311.341 377.428 L 310.967 377.549 L 310.68 377.494 L 310.463 377.317 L 310.322 377.03 L 310.271 376.642 L 310.271 376.627 L 310.271 376.627 z M 310.271 376.253 L 310.327 375.905 L 310.463 375.648 L 310.67 375.492 L 310.942 375.436 L 311.209 375.492 L 311.416 375.648 L 311.542 375.905 L 311.588 376.253 L 310.271 376.253 L 310.271 376.253 z M 316.57 375.613 L 316.57 377.852 L 317.014 377.852 L 317.014 375.613 L 318.023 375.613 L 318.023 375.235 L 317.014 375.235 L 317.014 375.068 L 317.05 374.866 L 317.166 374.73 L 317.362 374.65 L 317.645 374.619 L 318.023 374.639 L 318.023 374.256 L 317.544 374.231 L 317.11 374.276 L 316.807 374.413 L 316.626 374.65 L 316.57 374.987 L 316.57 375.235 L 315.758 375.235 L 315.758 375.613 L 316.57 375.613 L 316.57 375.613 z M 320.6 377.499 L 320.6 377.514 L 320.625 377.686 L 320.701 377.807 L 321.019 377.902 L 321.266 377.862 L 321.266 377.519 L 321.16 377.534 L 321.019 377.469 L 320.993 377.267 L 320.993 375.865 L 320.933 375.507 L 320.756 375.255 L 320.449 375.103 L 320.015 375.048 L 319.591 375.109 L 319.279 375.28 L 319.082 375.547 L 319.016 375.9 L 319.016 375.931 L 319.415 375.931 L 319.45 375.719 L 319.561 375.567 L 319.743 375.477 L 320 375.441 L 320.247 375.467 L 320.423 375.542 L 320.529 375.673 L 320.565 375.855 L 320.545 376.067 L 320.464 376.173 L 320.262 376.223 L 319.884 376.263 L 319.45 376.354 L 319.143 376.516 L 318.961 376.768 L 318.905 377.141 L 318.956 377.474 L 319.112 377.721 L 319.364 377.877 L 319.712 377.933 L 320.181 377.827 L 320.6 377.499 L 320.6 377.499 z M 320.55 376.904 L 320.489 377.166 L 320.328 377.368 L 320.086 377.499 L 319.788 377.544 L 319.596 377.519 L 319.46 377.438 L 319.375 377.297 L 319.349 377.101 L 319.369 376.924 L 319.45 376.798 L 319.773 376.657 L 320.181 376.596 L 320.55 376.475 L 320.55 376.904 L 320.55 376.904 z M 323.752 376.042 L 324.191 376.042 L 324.1 375.638 L 323.883 375.32 L 323.545 375.124 L 323.107 375.048 L 322.622 375.149 L 322.254 375.431 L 322.022 375.89 L 321.942 376.505 L 322.017 377.116 L 322.244 377.57 L 322.602 377.852 L 323.091 377.948 L 323.525 377.872 L 323.863 377.66 L 324.095 377.328 L 324.196 376.884 L 323.772 376.884 L 323.697 377.166 L 323.555 377.378 L 323.354 377.509 L 323.107 377.549 L 322.799 377.484 L 322.577 377.282 L 322.441 376.954 L 322.395 376.49 L 322.441 376.036 L 322.582 375.709 L 322.809 375.507 L 323.107 375.436 L 323.369 375.482 L 323.565 375.598 L 323.697 375.789 L 323.752 376.042 L 323.752 376.042 z M 325.452 376.627 L 327.227 376.627 L 327.232 376.42 L 327.151 375.84 L 326.929 375.406 L 326.576 375.144 L 326.107 375.048 L 325.648 375.149 L 325.295 375.431 L 325.068 375.89 L 324.988 376.495 L 325.063 377.116 L 325.29 377.57 L 325.638 377.852 L 326.092 377.948 L 326.486 377.882 L 326.808 377.711 L 327.045 377.438 L 327.181 377.075 L 326.743 377.075 L 326.652 377.277 L 326.521 377.428 L 326.148 377.549 L 325.86 377.494 L 325.643 377.317 L 325.502 377.03 L 325.452 376.642 L 325.452 376.627 L 325.452 376.627 z M 325.452 376.253 L 325.507 375.905 L 325.643 375.648 L 325.85 375.492 L 326.122 375.436 L 326.39 375.492 L 326.596 375.648 L 326.723 375.905 L 326.768 376.253 L 325.452 376.253 L 325.452 376.253 z" stroke="none" fill-rule="evenodd" fill="rgb(0, 0, 0)"/></g><g stroke="rgb(0, 0, 0)" stroke-width="0.13" stroke-linecap="butt" stroke-linejoin="miter" fill="none"><path d="M 294.688 383.899 L 296.907 383.899 L 296.907 383.475 L 295.152 383.475 L 295.152 382.29 L 296.715 382.29 L 296.715 381.871 L 295.152 381.871 L 295.152 380.822 L 296.866 380.822 L 296.866 380.399 L 294.688 380.399 L 294.688 383.899 L 294.688 383.899 z M 299.464 382.088 L 299.902 382.088 L 299.812 381.685 L 299.595 381.367 L 299.257 381.17 L 298.818 381.095 L 298.334 381.196 L 297.966 381.478 L 297.734 381.937 L 297.653 382.552 L 297.729 383.163 L 297.956 383.616 L 298.314 383.899 L 298.803 383.995 L 299.237 383.919 L 299.575 383.707 L 299.807 383.374 L 299.908 382.931 L 299.484 382.931 L 299.408 383.213 L 299.267 383.425 L 299.065 383.556 L 298.818 383.596 L 298.511 383.531 L 298.289 383.329 L 298.152 383.001 L 298.107 382.537 L 298.152 382.083 L 298.294 381.755 L 298.521 381.554 L 298.818 381.483 L 299.08 381.529 L 299.277 381.645 L 299.408 381.836 L 299.464 382.088 L 299.464 382.088 z M 300.775 383.899 L 301.219 383.899 L 301.219 382.335 L 301.264 381.977 L 301.41 381.715 L 301.637 381.554 L 301.94 381.493 L 302.182 381.544 L 302.333 381.68 L 302.409 381.907 L 302.434 382.209 L 302.434 383.899 L 302.878 383.899 L 302.878 382.119 L 302.858 381.761 L 302.767 381.463 L 302.469 381.191 L 302.006 381.095 L 301.753 381.13 L 301.536 381.226 L 301.355 381.377 L 301.219 381.584 L 301.219 380.278 L 300.775 380.278 L 300.775 383.899 L 300.775 383.899 z M 304.199 382.673 L 305.975 382.673 L 305.98 382.467 L 305.899 381.887 L 305.677 381.453 L 305.324 381.191 L 304.855 381.095 L 304.396 381.196 L 304.043 381.478 L 303.816 381.937 L 303.735 382.542 L 303.811 383.163 L 304.038 383.616 L 304.386 383.899 L 304.84 383.995 L 305.233 383.929 L 305.556 383.758 L 305.793 383.485 L 305.929 383.122 L 305.49 383.122 L 305.4 383.324 L 305.268 383.475 L 304.895 383.596 L 304.608 383.541 L 304.391 383.364 L 304.25 383.077 L 304.199 382.688 L 304.199 382.673 L 304.199 382.673 z M 304.199 382.3 L 304.255 381.952 L 304.391 381.695 L 304.598 381.539 L 304.87 381.483 L 305.137 381.539 L 305.344 381.695 L 305.47 381.952 L 305.516 382.3 L 304.199 382.3 L 304.199 382.3 z M 307.73 380.651 L 307.73 383.526 L 306.817 383.526 L 306.817 383.899 L 309.081 383.899 L 309.081 383.526 L 308.173 383.526 L 308.173 380.278 L 307.034 380.278 L 307.034 380.651 L 307.73 380.651 L 307.73 380.651 z M 310.766 380.651 L 310.766 383.526 L 309.853 383.526 L 309.853 383.899 L 312.117 383.899 L 312.117 383.526 L 311.209 383.526 L 311.209 380.278 L 310.07 380.278 L 310.07 380.651 L 310.766 380.651 L 310.766 380.651 z M 313.307 382.673 L 315.083 382.673 L 315.088 382.467 L 315.007 381.887 L 314.785 381.453 L 314.432 381.191 L 313.963 381.095 L 313.504 381.196 L 313.151 381.478 L 312.924 381.937 L 312.843 382.542 L 312.919 383.163 L 313.146 383.616 L 313.494 383.899 L 313.948 383.995 L 314.341 383.929 L 314.664 383.758 L 314.901 383.485 L 315.037 383.122 L 314.599 383.122 L 314.508 383.324 L 314.377 383.475 L 314.003 383.596 L 313.716 383.541 L 313.499 383.364 L 313.358 383.077 L 313.307 382.688 L 313.307 382.673 L 313.307 382.673 z M 313.307 382.3 L 313.363 381.952 L 313.499 381.695 L 313.706 381.539 L 313.978 381.483 L 314.246 381.539 L 314.452 381.695 L 314.578 381.952 L 314.624 382.3 L 313.307 382.3 L 313.307 382.3 z M 319.687 383.899 L 320.383 383.899 L 320.383 383.147 L 319.687 383.147 L 319.687 383.899 L 319.687 383.899 z M 319.687 381.942 L 320.383 381.942 L 320.383 381.191 L 319.687 381.191 L 319.687 381.942 L 319.687 381.942 z" stroke="none" fill-rule="evenodd" fill="rgb(0, 0, 0)"/></g><g stroke="rgb(0, 0, 0)" stroke-width="0.13" stroke-linecap="butt" stroke-linejoin="miter" fill="none"><path d="M 329.052 383.899 L 329.511 383.899 L 329.511 380.374 L 329.168 380.374 L 329.078 380.681 L 328.896 380.888 L 328.619 381.009 L 328.235 381.049 L 328.235 381.407 L 329.052 381.407 L 329.052 383.899 L 329.052 383.899 z M 331.831 383.899 L 332.527 383.899 L 332.527 383.147 L 331.831 383.147 L 331.831 383.899 L 331.831 383.899 z M 331.831 381.942 L 332.527 381.942 L 332.527 381.191 L 331.831 381.191 L 331.831 381.942 L 331.831 381.942 z M 335.124 383.899 L 335.583 383.899 L 335.583 380.374 L 335.24 380.374 L 335.15 380.681 L 334.968 380.888 L 334.691 381.009 L 334.307 381.049 L 334.307 381.407 L 335.124 381.407 L 335.124 383.899 L 335.124 383.899 z" stroke="none" fill-rule="evenodd" fill="rgb(0, 0, 0)"/></g><g stroke="rgb(0, 0, 0)" stroke-width="0.13" stroke-linecap="butt" stroke-linejoin="miter" fill="none"><path d="M 283.638 403.818 L 283.749 404.231 L 283.996 404.554 L 284.359 404.756 L 284.823 404.831 L 285.333 404.741 L 285.731 404.493 L 285.983 404.1 L 286.079 403.596 L 285.993 403.127 L 285.751 402.759 L 285.373 402.522 L 284.884 402.436 L 284.505 402.496 L 284.213 402.663 L 284.354 401.72 L 285.887 401.72 L 285.887 401.306 L 284.016 401.306 L 283.739 403.162 L 284.142 403.162 L 284.435 402.925 L 284.808 402.839 L 285.131 402.895 L 285.378 403.056 L 285.534 403.303 L 285.59 403.621 L 285.534 403.939 L 285.373 404.186 L 285.126 404.342 L 284.808 404.398 L 284.541 404.362 L 284.334 404.246 L 284.183 404.065 L 284.107 403.818 L 283.638 403.818 L 283.638 403.818 z M 287.924 404.73 L 288.433 404.73 L 288.6 403.898 L 288.892 403.122 L 289.306 402.4 L 289.845 401.725 L 289.845 401.306 L 287.445 401.306 L 287.445 401.765 L 289.361 401.765 L 288.806 402.446 L 288.388 403.157 L 288.095 403.913 L 287.924 404.73 L 287.924 404.73 z M 291.145 403.021 L 291.221 403.813 L 291.458 404.377 L 291.836 404.72 L 292.361 404.831 L 292.88 404.72 L 293.258 404.377 L 293.49 403.813 L 293.571 403.021 L 293.49 402.234 L 293.395 401.921 L 293.258 401.664 L 292.88 401.321 L 292.361 401.205 L 291.836 401.321 L 291.458 401.669 L 291.221 402.234 L 291.145 403.021 L 291.145 403.021 z M 291.63 403.021 L 291.67 402.411 L 291.796 401.972 L 292.023 401.715 L 292.361 401.624 L 292.694 401.715 L 292.921 401.972 L 293.047 402.411 L 293.087 403.021 L 293.047 403.636 L 292.921 404.075 L 292.694 404.332 L 292.361 404.418 L 292.023 404.332 L 291.796 404.075 L 291.67 403.636 L 291.63 403.021 L 291.63 403.021 z M 295.749 404.73 L 296.445 404.73 L 296.445 403.979 L 295.749 403.979 L 295.749 404.73 L 295.749 404.73 z M 299.207 402.844 L 298.95 402.986 L 298.774 403.182 L 298.663 403.429 L 298.628 403.727 L 298.708 404.176 L 298.94 404.524 L 299.318 404.746 L 299.833 404.831 L 300.342 404.746 L 300.72 404.524 L 300.952 404.176 L 301.038 403.727 L 300.998 403.429 L 300.892 403.182 L 300.71 402.986 L 300.458 402.844 L 300.66 402.723 L 300.801 402.557 L 300.887 402.355 L 300.917 402.108 L 300.836 401.75 L 300.625 401.462 L 300.282 401.276 L 299.833 401.205 L 299.379 401.276 L 299.036 401.462 L 298.819 401.75 L 298.743 402.108 L 298.769 402.355 L 298.854 402.557 L 299.207 402.844 L 299.207 402.844 z M 299.112 403.717 L 299.157 403.449 L 299.303 403.248 L 299.53 403.117 L 299.833 403.071 L 300.13 403.117 L 300.357 403.248 L 300.504 403.449 L 300.554 403.717 L 300.504 404.004 L 300.357 404.221 L 300.13 404.362 L 299.833 404.408 L 299.53 404.362 L 299.303 404.221 L 299.157 404.004 L 299.112 403.717 L 299.112 403.717 z M 299.223 402.148 L 299.263 401.926 L 299.384 401.755 L 299.576 401.649 L 299.833 401.609 L 300.085 401.649 L 300.277 401.755 L 300.398 401.926 L 300.443 402.148 L 300.398 402.375 L 300.277 402.552 L 300.085 402.668 L 299.833 402.703 L 299.576 402.663 L 299.384 402.552 L 299.263 402.375 L 299.223 402.148 L 299.223 402.148 z M 302.868 404.73 L 303.377 404.73 L 303.544 403.898 L 303.836 403.122 L 304.25 402.4 L 304.789 401.725 L 304.789 401.306 L 302.389 401.306 L 302.389 401.765 L 304.305 401.765 L 303.75 402.446 L 303.332 403.157 L 303.039 403.913 L 302.868 404.73 L 302.868 404.73 z" stroke="none" fill-rule="evenodd" fill="rgb(0, 0, 0)"/><path d="M 577.731 407.248 L 579.663 406.73 L 577.731 406.213"/><path d="M 10.7268 406.213 L 8.79494 406.73 L 10.7268 407.248"/><path d="M 8.79494 406.73 L 579.663 406.73"/></g></svg>