<?xml version="1.0" encoding="utf-8" ?><!DOCTYPE svg PUBLIC "-//W3C//DTD SVG 1.1//EN" "http://www.w3.org/Graphics/SVG/1.1/DTD/svg11.dtd" 
[ <!ATTLIST svg 
  xmlns:dsy CDATA #FIXED "http://www.3ds.com/print"  
    dsy:text-version CDATA #IMPLIED > 

  <!ATTLIST text 
  xmlns:dsy CDATA #FIXED "http://www.3ds.com/print" 
    dsy:text-version CDATA #IMPLIED > 
]><svg xmlns="http://www.w3.org/2000/svg" xmlns:dsy="http://www.3ds.com/print" dsy:text-version="18000" width="594" height="420" viewBox="0 0 594 420" version="1.1"><g stroke="rgb(0, 0, 0)" stroke-width="0.13" stroke-linecap="butt" stroke-linejoin="miter" fill="none"><path d="M 128.178 38.7469 L 128.178 67.9217"/><path d="M 366.553 43.8286 L 366.553 67.9217"/></g><g stroke="rgb(0, 0, 0)" stroke-width="0.35" stroke-linecap="butt" stroke-linejoin="miter" fill="none"><path d="M 91.5448 46.0499 L 23.5448 46.0499"/><path d="M 23.5448 46.0499 L 23.5448 36.0499"/><path d="M 23.5448 36.0499 L 15.5448 36.0499"/><path d="M 15.5448 36.0499 L 15.5448 30.0499"/><path d="M 15.5448 30.0499 L 23.5448 30.0499"/><path d="M 23.5448 30.0499 L 23.5448 20.0499"/><path d="M 23.5448 20.0499 L 91.5448 20.0499"/><path d="M 91.5448 20.0499 L 91.5448 30.0499"/><path d="M 91.5448 30.0499 L 99.5448 30.0499"/><path d="M 99.5448 30.0499 L 99.5448 36.0499"/><path d="M 99.5448 36.0499 L 91.5448 36.0499"/><path d="M 91.5448 36.0499 L 91.5448 46.0499"/><path d="M 90.8926 90.9991 L 22.8926 90.9991"/><path d="M 22.8926 90.9991 L 22.8926 80.9991"/><path d="M 22.8926 80.9991 L 14.8926 80.9991"/><path d="M 14.8926 80.9991 L 14.8926 74.9991"/><path d="M 14.8926 74.9991 L 22.8926 74.9991"/><path d="M 22.8926 74.9991 L 22.8926 64.9991"/><path d="M 22.8926 64.9991 L 90.8926 64.9991"/><path d="M 90.8926 64.9991 L 90.8926 74.9991"/><path d="M 90.8926 74.9991 L 98.8926 74.9991"/><path d="M 98.8926 74.9991 L 98.8926 80.9991"/><path d="M 98.8926 80.9991 L 90.8926 80.9991"/><path d="M 90.8926 80.9991 L 90.8926 90.9991"/><path d="M 92.1382 135.458 L 24.1382 135.458"/><path d="M 24.1382 135.458 L 24.1382 125.458"/><path d="M 24.1382 125.458 L 16.1382 125.458"/><path d="M 16.1382 125.458 L 16.1382 119.458"/><path d="M 16.1382 119.458 L 24.1382 119.458"/><path d="M 24.1382 119.458 L 24.1382 109.458"/><path d="M 24.1382 109.458 L 92.1382 109.458"/><path d="M 92.1382 109.458 L 92.1382 119.458"/><path d="M 92.1382 119.458 L 100.138 119.458"/><path d="M 100.138 119.458 L 100.138 125.458"/><path d="M 100.138 125.458 L 92.1382 125.458"/><path d="M 92.1382 125.458 L 92.1382 135.458"/><path d="M 90.3472 182.35 L 22.3472 182.35"/><path d="M 22.3472 182.35 L 22.3472 172.35"/><path d="M 22.3472 172.35 L 14.3472 172.35"/><path d="M 14.3472 172.35 L 14.3472 166.35"/><path d="M 14.3472 166.35 L 22.3472 166.35"/><path d="M 22.3472 166.35 L 22.3472 156.35"/><path d="M 22.3472 156.35 L 90.3472 156.35"/><path d="M 90.3472 156.35 L 90.3472 166.35"/><path d="M 90.3472 166.35 L 98.3472 166.35"/><path d="M 98.3472 166.35 L 98.3472 172.35"/><path d="M 98.3472 172.35 L 90.3472 172.35"/><path d="M 90.3472 172.35 L 90.3472 182.35"/><path d="M 366.553 41.8286 L 136.178 41.8286"/><path d="M 136.178 36.7469 L 136.178 41.8286"/><path d="M 128.178 36.7469 L 136.178 36.7469"/><path d="M 128.178 30.7469 L 128.178 36.7469"/><path d="M 136.178 30.7469 L 128.178 30.7469"/><path d="M 136.178 22.7469 L 136.178 30.7469"/><path d="M 128.178 22.7469 L 136.178 22.7469"/><path d="M 128.178 16.7469 L 128.178 22.7469"/><path d="M 136.178 16.7469 L 128.178 16.7469"/><path d="M 136.178 10.0827 L 136.178 16.7469"/><path d="M 136.178 10.0827 L 366.553 10.0827"/><path d="M 366.553 10.0827 L 366.553 13.4556"/><path d="M 366.553 13.4556 A 12.5 12.5 0 0 0 366.553 38.4556"/><path d="M 366.553 38.4556 L 366.553 41.8286"/><path d="M 263.918 105.326 L 151.43 105.326"/><path d="M 151.43 100.244 L 151.43 105.326"/><path d="M 143.43 100.244 L 151.43 100.244"/><path d="M 143.43 94.2444 L 143.43 100.244"/><path d="M 151.43 94.2444 L 143.43 94.2444"/><path d="M 151.43 86.2444 L 151.43 94.2444"/><path d="M 143.43 86.2444 L 151.43 86.2444"/><path d="M 143.43 80.2444 L 143.43 86.2444"/><path d="M 151.43 80.2444 L 143.43 80.2444"/><path d="M 151.43 74.5031 L 151.43 80.2444"/><path d="M 151.43 74.5031 L 263.918 74.5031"/><path d="M 263.918 74.5031 L 263.918 77.6528"/><path d="M 263.918 77.6528 A 12.5 12.5 0 0 0 263.918 102.647"/><path d="M 263.918 102.647 L 263.918 105.326"/><path d="M 156.367 180.491 L 224.367 180.491"/><path d="M 224.367 180.491 L 224.367 166.491"/><path d="M 224.367 166.491 L 232.367 166.491"/><path d="M 232.367 166.491 L 232.367 160.491"/><path d="M 232.367 160.491 L 224.367 160.491"/><path d="M 224.367 160.491 L 224.367 145.491"/><path d="M 224.367 145.491 L 214.367 145.491"/><path d="M 166.367 145.491 A 24 24 0 1 0 214.367 145.491"/><path d="M 166.367 145.491 L 156.367 145.491"/><path d="M 156.367 145.491 L 156.367 160.491"/><path d="M 156.367 160.491 L 148.367 160.491"/><path d="M 148.367 160.491 L 148.367 166.491"/><path d="M 148.367 166.491 L 156.367 166.491"/><path d="M 156.367 166.491 L 156.367 180.491"/><path d="M 385.99 406.835 L 391.109 398.343"/><path d="M 399.889 393.508 A 9.99997 9.99997 0 0 0 391.109 398.343"/><path d="M 399.889 393.508 L 425.089 406.499"/><path d="M 568.228 158.576 L 425.089 406.499"/><path d="M 556.979 149.11 L 568.228 158.576"/><path d="M 563.9 131.47 A 9.99997 9.99997 0 0 0 556.979 149.11"/><path d="M 563.9 131.471 L 594.01 79.3193"/><path d="M 594.01 78.0474 L 541.021 47.4541"/><path d="M 442.461 218.165 L 541.021 47.454"/><path d="M 32.2959 220.437 L 442.461 218.165"/><path d="M -0.0099833 288.881 A 86.2985 86.2985 0 0 0 32.2959 220.437"/><path d="M 296.353 355.082 L -0.00976563 291.387"/><path d="M 385.99 406.835 L 296.352 355.082"/><path d="M 421.47 269.522 L 424.42 264.412"/><path d="M 429.443 267.312 L 424.42 264.412"/><path d="M 429.443 267.312 L 426.493 272.422"/><path d="M 421.47 269.522 L 426.493 272.422"/><path d="M 379.693 353.482 L 374.67 350.582"/><path d="M 374.67 350.582 L 377.62 345.472"/><path d="M 382.643 348.372 L 377.62 345.472"/><path d="M 382.643 348.372 L 379.693 353.482"/><path d="M 25.8538 271.481 L 30.2384 267.533"/><path d="M 30.2384 267.533 L 34.1193 271.844"/><path d="M 34.1193 271.844 L 29.7348 275.792"/><path d="M 29.7348 275.792 L 25.8538 271.481"/><path d="M 46.6619 252.746 L 51.0464 248.798"/><path d="M 51.0464 248.798 L 54.9274 253.108"/><path d="M 54.9274 253.108 L 50.5428 257.056"/><path d="M 50.5428 257.056 L 46.6619 252.746"/><path d="M 43.9234 229.08 L 39.5388 233.028"/><path d="M 47.8043 233.391 L 43.9234 229.08"/><path d="M 43.4198 237.339 L 47.8043 233.391"/><path d="M 39.5388 233.028 L 43.4198 237.339"/><path d="M 176.042 271.45 L 178.992 266.34"/><path d="M 184.015 269.24 L 178.992 266.34"/><path d="M 184.015 269.24 L 181.065 274.35"/><path d="M 176.042 271.45 L 181.065 274.35"/><path d="M 311.538 296.539 L 314.488 291.43"/><path d="M 319.511 294.33 L 314.488 291.43"/><path d="M 319.511 294.33 L 316.561 299.439"/><path d="M 311.538 296.539 L 316.561 299.439"/><path d="M 383.389 336.415 L 386.339 331.305"/><path d="M 391.362 334.205 L 386.339 331.305"/><path d="M 391.362 334.205 L 388.412 339.315"/><path d="M 383.389 336.415 L 388.412 339.315"/><path d="M 415.76 280.346 L 418.71 275.236"/><path d="M 423.733 278.136 L 418.71 275.236"/><path d="M 423.733 278.136 L 420.783 283.246"/><path d="M 415.76 280.346 L 420.783 283.246"/><path d="M 252.927 264.834 L 256.086 259.851"/><path d="M 260.985 262.956 L 256.086 259.851"/><path d="M 260.985 262.956 L 257.826 267.939"/><path d="M 252.927 264.834 L 257.826 267.939"/><path d="M 264.583 272.223 L 267.741 267.239"/><path d="M 272.64 270.345 L 267.741 267.239"/><path d="M 272.64 270.345 L 269.481 275.328"/><path d="M 264.583 272.223 L 269.481 275.328"/><path d="M 452.75 299.893 L 455.877 294.889"/><path d="M 460.795 297.963 L 455.877 294.889"/><path d="M 460.795 297.963 L 457.669 302.966"/><path d="M 452.75 299.893 L 457.669 302.966"/><path d="M 464.453 307.206 L 467.58 302.202"/><path d="M 472.498 305.276 L 467.58 302.202"/><path d="M 472.498 305.276 L 469.468 310.125"/><path d="M 464.453 307.206 L 469.468 310.125"/></g><g stroke="rgb(0, 0, 0)" stroke-width="0.13" stroke-linecap="butt" stroke-linejoin="miter" fill="none"><path d="M 373.368 63.9217 L 375.773 63.9217 L 375.773 63.488 L 373.872 63.488 L 373.978 63.251 L 374.16 63.0543 L 374.719 62.6962 L 375.017 62.5449 L 375.35 62.3281 L 375.587 62.0759 L 375.723 61.7784 L 375.773 61.4405 L 375.688 61.0168 L 375.451 60.684 L 375.088 60.4722 L 374.619 60.3965 L 374.134 60.4822 L 373.766 60.7193 L 373.529 61.0975 L 373.449 61.5968 L 373.449 61.6674 L 373.907 61.6674 L 373.907 61.627 L 373.953 61.2841 L 374.089 61.032 L 374.306 60.8706 L 374.593 60.8151 L 374.886 60.8655 L 375.103 60.9916 L 375.244 61.1883 L 375.294 61.4354 L 375.259 61.6674 L 375.163 61.8641 L 375.002 62.0356 L 374.78 62.1869 L 374.482 62.3482 L 373.988 62.6609 L 373.64 62.9938 L 373.433 63.3972 L 373.368 63.9066 L 373.368 63.9217 L 373.368 63.9217 z M 377.064 62.8223 L 377.064 62.8576 L 377.144 63.3418 L 377.381 63.7049 L 377.754 63.9369 L 378.249 64.0226 L 378.773 63.9369 L 379.167 63.7149 L 379.419 63.3619 L 379.509 62.908 L 379.469 62.6105 L 379.358 62.3684 L 379.177 62.1818 L 378.935 62.0457 L 379.262 61.7733 L 379.378 61.3396 L 379.303 60.9462 L 379.086 60.6487 L 378.733 60.4621 L 378.249 60.3965 L 377.795 60.4772 L 377.447 60.6991 L 377.22 61.0521 L 377.144 61.5211 L 377.144 61.5565 L 377.593 61.5565 L 377.633 61.2337 L 377.764 61.0017 L 377.976 60.8605 L 378.274 60.8101 L 378.536 60.8504 L 378.728 60.9563 L 378.844 61.1278 L 378.889 61.3598 L 378.844 61.6069 L 378.723 61.7733 L 378.511 61.8742 L 378.223 61.9044 L 378.027 61.8994 L 378.027 62.2978 L 378.274 62.2877 L 378.592 62.3331 L 378.829 62.4541 L 378.97 62.6508 L 379.02 62.908 L 378.965 63.2005 L 378.819 63.4174 L 378.587 63.5536 L 378.279 63.599 L 377.961 63.5485 L 377.729 63.3972 L 377.583 63.1552 L 377.527 62.8223 L 377.064 62.8223 L 377.064 62.8223 z M 381.445 62.0356 L 381.188 62.1768 L 381.011 62.3734 L 380.9 62.6206 L 380.865 62.9181 L 380.946 63.367 L 381.178 63.7149 L 381.556 63.9369 L 382.07 64.0226 L 382.58 63.9369 L 382.958 63.7149 L 383.19 63.367 L 383.276 62.9181 L 383.235 62.6206 L 383.129 62.3734 L 382.948 62.1768 L 382.696 62.0356 L 382.897 61.9145 L 383.039 61.7481 L 383.124 61.5464 L 383.155 61.2993 L 383.074 60.9412 L 382.862 60.6537 L 382.519 60.4671 L 382.07 60.3965 L 381.617 60.4671 L 381.274 60.6537 L 381.057 60.9412 L 380.981 61.2993 L 381.006 61.5464 L 381.092 61.7481 L 381.445 62.0356 L 381.445 62.0356 z M 381.349 62.908 L 381.395 62.6407 L 381.541 62.439 L 381.768 62.3079 L 382.07 62.2625 L 382.368 62.3079 L 382.595 62.439 L 382.741 62.6407 L 382.792 62.908 L 382.741 63.1955 L 382.595 63.4124 L 382.368 63.5536 L 382.07 63.599 L 381.768 63.5536 L 381.541 63.4124 L 381.395 63.1955 L 381.349 62.908 L 381.349 62.908 z M 381.46 61.3396 L 381.501 61.1177 L 381.622 60.9462 L 381.813 60.8403 L 382.07 60.8 L 382.323 60.8403 L 382.514 60.9462 L 382.635 61.1177 L 382.681 61.3396 L 382.635 61.5665 L 382.514 61.743 L 382.323 61.859 L 382.07 61.8943 L 381.813 61.854 L 381.622 61.743 L 381.501 61.5665 L 381.46 61.3396 L 381.46 61.3396 z M 385.458 63.9217 L 386.154 63.9217 L 386.154 63.1703 L 385.458 63.1703 L 385.458 63.9217 L 385.458 63.9217 z M 388.272 62.8223 L 388.272 62.8576 L 388.352 63.3418 L 388.589 63.7049 L 388.962 63.9369 L 389.457 64.0226 L 389.981 63.9369 L 390.375 63.7149 L 390.627 63.3619 L 390.718 62.908 L 390.677 62.6105 L 390.566 62.3684 L 390.385 62.1818 L 390.143 62.0457 L 390.47 61.7733 L 390.586 61.3396 L 390.511 60.9462 L 390.294 60.6487 L 389.941 60.4621 L 389.457 60.3965 L 389.003 60.4772 L 388.655 60.6991 L 388.428 61.0521 L 388.352 61.5211 L 388.352 61.5565 L 388.801 61.5565 L 388.841 61.2337 L 388.973 61.0017 L 389.184 60.8605 L 389.482 60.8101 L 389.744 60.8504 L 389.936 60.9563 L 390.052 61.1278 L 390.097 61.3598 L 390.052 61.6069 L 389.931 61.7733 L 389.719 61.8742 L 389.432 61.9044 L 389.235 61.8994 L 389.235 62.2978 L 389.482 62.2877 L 389.8 62.3331 L 390.037 62.4541 L 390.178 62.6508 L 390.228 62.908 L 390.173 63.2005 L 390.027 63.4174 L 389.795 63.5536 L 389.487 63.599 L 389.169 63.5485 L 388.937 63.3972 L 388.791 63.1552 L 388.736 62.8223 L 388.272 62.8223 L 388.272 62.8223 z M 392.653 62.0356 L 392.396 62.1768 L 392.219 62.3734 L 392.108 62.6206 L 392.073 62.9181 L 392.154 63.367 L 392.386 63.7149 L 392.764 63.9369 L 393.278 64.0226 L 393.788 63.9369 L 394.166 63.7149 L 394.398 63.367 L 394.484 62.9181 L 394.443 62.6206 L 394.338 62.3734 L 394.156 62.1768 L 393.904 62.0356 L 394.106 61.9145 L 394.247 61.7481 L 394.333 61.5464 L 394.363 61.2993 L 394.282 60.9412 L 394.07 60.6537 L 393.727 60.4671 L 393.278 60.3965 L 392.825 60.4671 L 392.482 60.6537 L 392.265 60.9412 L 392.189 61.2993 L 392.214 61.5464 L 392.3 61.7481 L 392.653 62.0356 L 392.653 62.0356 z M 392.557 62.908 L 392.603 62.6407 L 392.749 62.439 L 392.976 62.3079 L 393.278 62.2625 L 393.576 62.3079 L 393.803 62.439 L 393.949 62.6407 L 394 62.908 L 393.949 63.1955 L 393.803 63.4124 L 393.576 63.5536 L 393.278 63.599 L 392.976 63.5536 L 392.749 63.4124 L 392.603 63.1955 L 392.557 62.908 L 392.557 62.908 z M 392.668 61.3396 L 392.709 61.1177 L 392.83 60.9462 L 393.021 60.8403 L 393.278 60.8 L 393.531 60.8403 L 393.722 60.9462 L 393.843 61.1177 L 393.889 61.3396 L 393.843 61.5665 L 393.722 61.743 L 393.531 61.859 L 393.278 61.8943 L 393.021 61.854 L 392.83 61.743 L 392.709 61.5665 L 392.668 61.3396 L 392.668 61.3396 z" stroke="none" fill-rule="evenodd" fill="rgb(0, 0, 0)"/><path d="M 130.11 65.4041 L 128.178 65.9217 L 130.11 66.4394"/><path d="M 364.622 66.4394 L 366.553 65.9217 L 364.622 65.4041"/><path d="M 128.178 65.9217 L 394.796 65.9217"/></g><g stroke="rgb(0, 0, 0)" stroke-width="0.13" stroke-linecap="butt" stroke-linejoin="miter" fill="none"><path d="M 298.4 415.186 L 297.523 418.167 L 296.62 415.186 L 296.141 415.186 L 297.271 418.691 L 297.775 418.691 L 298.88 415.186 L 298.4 415.186 L 298.4 415.186 z M 301.603 415.983 L 301.159 415.983 L 301.159 417.546 L 301.109 417.909 L 300.962 418.172 L 300.735 418.333 L 300.438 418.384 L 300.201 418.343 L 300.05 418.222 L 299.964 418.015 L 299.944 417.723 L 299.944 415.983 L 299.5 415.983 L 299.5 417.763 L 299.515 418.121 L 299.611 418.419 L 299.903 418.691 L 300.372 418.787 L 300.625 418.752 L 300.841 418.661 L 301.028 418.505 L 301.179 418.278 L 301.179 418.691 L 301.603 418.691 L 301.603 415.983 L 301.603 415.983 z M 302.939 417.466 L 304.715 417.466 L 304.72 417.259 L 304.639 416.679 L 304.417 416.245 L 304.064 415.983 L 303.595 415.887 L 303.136 415.988 L 302.783 416.27 L 302.556 416.729 L 302.475 417.335 L 302.551 417.955 L 302.778 418.409 L 303.126 418.691 L 303.58 418.787 L 303.973 418.721 L 304.296 418.55 L 304.533 418.278 L 304.669 417.915 L 304.23 417.915 L 304.14 418.116 L 304.009 418.268 L 303.635 418.389 L 303.348 418.333 L 303.131 418.157 L 302.99 417.869 L 302.939 417.481 L 302.939 417.466 L 302.939 417.466 z M 302.939 417.092 L 302.995 416.744 L 303.131 416.487 L 303.338 416.331 L 303.61 416.275 L 303.877 416.331 L 304.084 416.487 L 304.21 416.744 L 304.256 417.092 L 302.939 417.092 L 302.939 417.092 z M 310.287 418.273 L 310.287 418.691 L 310.731 418.691 L 310.731 415.07 L 310.292 415.07 L 310.292 416.396 L 309.955 416.013 L 309.748 415.922 L 309.511 415.887 L 309.082 415.988 L 308.749 416.27 L 308.532 416.724 L 308.457 417.335 L 308.532 417.945 L 308.749 418.404 L 309.082 418.691 L 309.511 418.787 L 309.748 418.752 L 309.96 418.661 L 310.287 418.273 L 310.287 418.273 z M 309.586 416.286 L 309.879 416.356 L 310.101 416.553 L 310.232 416.881 L 310.282 417.335 L 310.232 417.793 L 310.101 418.121 L 309.879 418.323 L 309.586 418.389 L 309.309 418.323 L 309.097 418.121 L 308.956 417.788 L 308.911 417.335 L 308.956 416.886 L 309.097 416.558 L 309.309 416.356 L 309.586 416.286 L 309.586 416.286 z M 312.048 417.466 L 313.823 417.466 L 313.828 417.259 L 313.747 416.679 L 313.525 416.245 L 313.172 415.983 L 312.703 415.887 L 312.244 415.988 L 311.891 416.27 L 311.664 416.729 L 311.584 417.335 L 311.659 417.955 L 311.886 418.409 L 312.234 418.691 L 312.688 418.787 L 313.081 418.721 L 313.404 418.55 L 313.641 418.278 L 313.777 417.915 L 313.339 417.915 L 313.248 418.116 L 313.117 418.268 L 312.743 418.389 L 312.456 418.333 L 312.239 418.157 L 312.098 417.869 L 312.048 417.481 L 312.048 417.466 L 312.048 417.466 z M 312.048 417.092 L 312.103 416.744 L 312.239 416.487 L 312.446 416.331 L 312.718 416.275 L 312.986 416.331 L 313.192 416.487 L 313.318 416.744 L 313.364 417.092 L 312.048 417.092 L 312.048 417.092 z M 318.347 416.452 L 318.347 418.691 L 318.79 418.691 L 318.79 416.452 L 319.799 416.452 L 319.799 416.074 L 318.79 416.074 L 318.79 415.907 L 318.826 415.706 L 318.942 415.569 L 319.138 415.489 L 319.421 415.458 L 319.799 415.479 L 319.799 415.095 L 319.32 415.07 L 318.886 415.116 L 318.584 415.252 L 318.402 415.489 L 318.347 415.827 L 318.347 416.074 L 317.535 416.074 L 317.535 416.452 L 318.347 416.452 L 318.347 416.452 z M 322.376 418.338 L 322.376 418.353 L 322.401 418.525 L 322.477 418.646 L 322.795 418.742 L 323.042 418.701 L 323.042 418.358 L 322.936 418.373 L 322.795 418.308 L 322.769 418.106 L 322.769 416.704 L 322.709 416.346 L 322.532 416.094 L 322.225 415.943 L 321.791 415.887 L 321.367 415.948 L 321.055 416.119 L 320.858 416.386 L 320.793 416.739 L 320.793 416.77 L 321.191 416.77 L 321.226 416.558 L 321.337 416.407 L 321.519 416.316 L 321.776 416.28 L 322.023 416.306 L 322.2 416.381 L 322.305 416.512 L 322.341 416.694 L 322.321 416.906 L 322.24 417.012 L 322.038 417.062 L 321.66 417.103 L 321.226 417.193 L 320.919 417.355 L 320.737 417.607 L 320.682 417.98 L 320.732 418.313 L 320.888 418.56 L 321.141 418.716 L 321.488 418.772 L 321.958 418.666 L 322.376 418.338 L 322.376 418.338 z M 322.326 417.743 L 322.265 418.005 L 322.104 418.207 L 321.862 418.338 L 321.564 418.384 L 321.372 418.358 L 321.236 418.278 L 321.151 418.136 L 321.125 417.94 L 321.146 417.763 L 321.226 417.637 L 321.549 417.496 L 321.958 417.435 L 322.326 417.314 L 322.326 417.743 L 322.326 417.743 z M 325.528 416.881 L 325.967 416.881 L 325.876 416.477 L 325.659 416.159 L 325.321 415.963 L 324.883 415.887 L 324.398 415.988 L 324.03 416.27 L 323.798 416.729 L 323.718 417.345 L 323.793 417.955 L 324.02 418.409 L 324.378 418.691 L 324.867 418.787 L 325.301 418.711 L 325.639 418.5 L 325.871 418.167 L 325.972 417.723 L 325.548 417.723 L 325.473 418.005 L 325.331 418.217 L 325.13 418.348 L 324.883 418.389 L 324.575 418.323 L 324.353 418.121 L 324.217 417.793 L 324.172 417.329 L 324.217 416.876 L 324.358 416.548 L 324.585 416.346 L 324.883 416.275 L 325.145 416.321 L 325.342 416.437 L 325.473 416.628 L 325.528 416.881 L 325.528 416.881 z M 327.228 417.466 L 329.003 417.466 L 329.008 417.259 L 328.927 416.679 L 328.705 416.245 L 328.352 415.983 L 327.883 415.887 L 327.424 415.988 L 327.071 416.27 L 326.844 416.729 L 326.764 417.335 L 326.839 417.955 L 327.066 418.409 L 327.414 418.691 L 327.868 418.787 L 328.262 418.721 L 328.584 418.55 L 328.821 418.278 L 328.958 417.915 L 328.519 417.915 L 328.428 418.116 L 328.297 418.268 L 327.924 418.389 L 327.636 418.333 L 327.419 418.157 L 327.278 417.869 L 327.228 417.481 L 327.228 417.466 L 327.228 417.466 z M 327.228 417.092 L 327.283 416.744 L 327.419 416.487 L 327.626 416.331 L 327.898 416.275 L 328.166 416.331 L 328.373 416.487 L 328.499 416.744 L 328.544 417.092 L 327.228 417.092 L 327.228 417.092 z" stroke="none" fill-rule="evenodd" fill="rgb(0, 0, 0)"/></g></svg>