<?xml version="1.0" encoding="utf-8" ?><!DOCTYPE svg PUBLIC "-//W3C//DTD SVG 1.1//EN" "http://www.w3.org/Graphics/SVG/1.1/DTD/svg11.dtd" 
[ <!ATTLIST svg 
  xmlns:dsy CDATA #FIXED "http://www.3ds.com/print"  
    dsy:text-version CDATA #IMPLIED > 

  <!ATTLIST text 
  xmlns:dsy CDATA #FIXED "http://www.3ds.com/print" 
    dsy:text-version CDATA #IMPLIED > 
]><svg xmlns="http://www.w3.org/2000/svg" xmlns:dsy="http://www.3ds.com/print" dsy:text-version="18000" width="594" height="420" viewBox="0 0 594 420" version="1.1"><g stroke="rgb(0, 0, 0)" stroke-width="0.13" stroke-linecap="butt" stroke-linejoin="miter" fill="none"><path d="M 128.178 38.7469 L 128.178 67.9217"/><path d="M 366.553 43.8286 L 366.553 67.9217"/><path d="M 5.79803 229.118 L 5.79803 410.305"/><path d="M 588.289 96.2863 L 588.289 410.305"/></g><g stroke="rgb(0, 0, 0)" stroke-width="0.35" stroke-linecap="butt" stroke-linejoin="miter" fill="none"><path d="M 91.5448 34.9512 L 23.5448 34.9512"/><path d="M 23.5448 34.9512 L 23.5448 24.9512"/><path d="M 23.5448 24.9512 L 15.5448 24.9512"/><path d="M 15.5448 24.9512 L 15.5448 18.9512"/><path d="M 15.5448 18.9512 L 23.5448 18.9512"/><path d="M 23.5448 18.9512 L 23.5448 8.9512"/><path d="M 23.5448 8.9512 L 91.5448 8.9512"/><path d="M 91.5448 8.9512 L 91.5448 18.9512"/><path d="M 91.5448 18.9512 L 99.5448 18.9512"/><path d="M 99.5448 18.9512 L 99.5448 24.9512"/><path d="M 99.5448 24.9512 L 91.5448 24.9512"/><path d="M 91.5448 24.9512 L 91.5448 34.9512"/><path d="M 92.0352 68.8836 L 24.0352 68.8836"/><path d="M 24.0352 68.8836 L 24.0352 58.8836"/><path d="M 24.0352 58.8836 L 16.0352 58.8836"/><path d="M 16.0352 58.8836 L 16.0352 52.8836"/><path d="M 16.0352 52.8836 L 24.0352 52.8836"/><path d="M 24.0352 52.8836 L 24.0352 42.8836"/><path d="M 24.0352 42.8836 L 92.0352 42.8836"/><path d="M 92.0352 42.8836 L 92.0352 52.8836"/><path d="M 92.0352 52.8836 L 100.035 52.8836"/><path d="M 100.035 52.8836 L 100.035 58.8836"/><path d="M 100.035 58.8836 L 92.0352 58.8836"/><path d="M 92.0352 58.8836 L 92.0352 68.8836"/><path d="M 92.1382 102.667 L 24.1382 102.667"/><path d="M 24.1382 102.667 L 24.1382 92.6666"/><path d="M 24.1382 92.6666 L 16.1382 92.6666"/><path d="M 16.1382 92.6666 L 16.1382 86.6666"/><path d="M 16.1382 86.6666 L 24.1382 86.6666"/><path d="M 24.1382 86.6666 L 24.1382 76.6666"/><path d="M 24.1382 76.6666 L 92.1382 76.6666"/><path d="M 92.1382 76.6666 L 92.1382 86.6666"/><path d="M 92.1382 86.6666 L 100.138 86.6666"/><path d="M 100.138 86.6666 L 100.138 92.6666"/><path d="M 100.138 92.6666 L 92.1382 92.6666"/><path d="M 92.1382 92.6666 L 92.1382 102.667"/><path d="M 92.357 139.985 L 24.357 139.985"/><path d="M 24.357 139.985 L 24.357 129.985"/><path d="M 24.357 129.985 L 16.357 129.985"/><path d="M 16.357 129.985 L 16.357 123.985"/><path d="M 16.357 123.985 L 24.357 123.985"/><path d="M 24.357 123.985 L 24.357 113.985"/><path d="M 24.357 113.985 L 92.357 113.985"/><path d="M 92.357 113.985 L 92.357 123.985"/><path d="M 92.357 123.985 L 100.357 123.985"/><path d="M 100.357 123.985 L 100.357 129.985"/><path d="M 100.357 129.985 L 92.357 129.985"/><path d="M 92.357 129.985 L 92.357 139.985"/><path d="M 366.553 41.8286 L 136.178 41.8286"/><path d="M 136.178 36.7469 L 136.178 41.8286"/><path d="M 128.178 36.7469 L 136.178 36.7469"/><path d="M 128.178 30.7469 L 128.178 36.7469"/><path d="M 136.178 30.7469 L 128.178 30.7469"/><path d="M 136.178 22.7469 L 136.178 30.7469"/><path d="M 128.178 22.7469 L 136.178 22.7469"/><path d="M 128.178 16.7469 L 128.178 22.7469"/><path d="M 136.178 16.7469 L 128.178 16.7469"/><path d="M 136.178 10.0827 L 136.178 16.7469"/><path d="M 136.178 10.0827 L 366.553 10.0827"/><path d="M 366.553 10.0827 L 366.553 13.4556"/><path d="M 366.553 13.4556 A 12.5 12.5 0 0 0 366.553 38.4556"/><path d="M 366.553 38.4556 L 366.553 41.8286"/><path d="M 263.918 105.326 L 151.43 105.326"/><path d="M 151.43 100.244 L 151.43 105.326"/><path d="M 143.43 100.244 L 151.43 100.244"/><path d="M 143.43 94.2444 L 143.43 100.244"/><path d="M 151.43 94.2444 L 143.43 94.2444"/><path d="M 151.43 86.2444 L 151.43 94.2444"/><path d="M 143.43 86.2444 L 151.43 86.2444"/><path d="M 143.43 80.2444 L 143.43 86.2444"/><path d="M 151.43 80.2444 L 143.43 80.2444"/><path d="M 151.43 74.5031 L 151.43 80.2444"/><path d="M 151.43 74.5031 L 263.918 74.5031"/><path d="M 263.918 74.5031 L 263.918 77.6528"/><path d="M 263.918 77.6528 A 12.5 12.5 0 0 0 263.918 102.647"/><path d="M 263.918 102.647 L 263.918 105.326"/><path d="M 156.367 180.491 L 224.367 180.491"/><path d="M 224.367 180.491 L 224.367 166.491"/><path d="M 224.367 166.491 L 232.367 166.491"/><path d="M 232.367 166.491 L 232.367 160.491"/><path d="M 232.367 160.491 L 224.367 160.491"/><path d="M 224.367 160.491 L 224.367 145.491"/><path d="M 224.367 145.491 L 214.367 145.491"/><path d="M 166.367 145.491 A 24 24 0 1 0 214.367 145.491"/><path d="M 166.367 145.491 L 156.367 145.491"/><path d="M 156.367 145.491 L 156.367 160.491"/><path d="M 156.367 160.491 L 148.367 160.491"/><path d="M 148.367 160.491 L 148.367 166.491"/><path d="M 148.367 166.491 L 156.367 166.491"/><path d="M 156.367 166.491 L 156.367 180.491"/><path d="M 315.595 384.456 L 306.916 379.662"/><path d="M 306.916 379.662 A 10 10 0 0 0 296.895 379.865"/><path d="M 296.895 379.865 L 281.566 403.715"/><path d="M 33.6427 260.577 L 281.566 403.715"/><path d="M 38.6513 246.755 L 33.6427 260.577"/><path d="M 38.6513 246.755 A 10 10 0 0 0 21.9924 236.468"/><path d="M 21.9924 236.468 L 5.79803 227.118"/><path d="M 5.79803 227.118 L 36.709 173.579"/><path d="M 170.093 250.588 L 36.709 173.579"/><path d="M 528.704 46.1839 L 170.093 250.588"/><path d="M 588.289 94.2863 L 528.704 46.1839"/><path d="M 367.347 294.819 L 588.289 94.2863"/><path d="M 315.595 384.456 L 367.347 294.819"/><path d="M 216.212 283.28 L 211.102 280.33"/><path d="M 208.202 285.353 L 211.102 280.33"/><path d="M 208.202 285.353 L 213.312 288.303"/><path d="M 216.212 283.28 L 213.312 288.303"/><path d="M 294.372 335.103 L 297.272 330.08"/><path d="M 297.272 330.08 L 292.162 327.13"/><path d="M 289.262 332.153 L 292.162 327.13"/><path d="M 289.262 332.153 L 294.372 335.103"/><path d="M 559.805 87.1688 L 554.034 85.9421"/><path d="M 554.034 85.9421 L 552.828 91.6154"/><path d="M 552.828 91.6154 L 558.599 92.8421"/><path d="M 558.599 92.8421 L 559.805 87.1688"/><path d="M 532.417 81.3473 L 526.646 80.1206"/><path d="M 526.646 80.1206 L 525.44 85.7939"/><path d="M 525.44 85.7939 L 531.211 87.0205"/><path d="M 531.211 87.0205 L 532.417 81.3473"/><path d="M 522.956 59.4835 L 528.727 60.7101"/><path d="M 521.75 65.1567 L 522.956 59.4835"/><path d="M 527.521 66.3834 L 521.75 65.1567"/><path d="M 528.727 60.7101 L 527.521 66.3834"/><path d="M 429.723 162.235 L 424.613 159.285"/><path d="M 421.713 164.308 L 424.613 159.285"/><path d="M 421.713 164.308 L 426.823 167.258"/><path d="M 429.723 162.235 L 426.823 167.258"/><path d="M 324.924 251.712 L 319.814 248.762"/><path d="M 316.914 253.785 L 319.814 248.762"/><path d="M 316.914 253.785 L 322.024 256.735"/><path d="M 324.924 251.712 L 322.024 256.735"/><path d="M 282.637 322.17 L 277.528 319.22"/><path d="M 274.628 324.243 L 277.528 319.22"/><path d="M 274.628 324.243 L 279.737 327.193"/><path d="M 282.637 322.17 L 279.737 327.193"/><path d="M 226.568 289.799 L 221.459 286.849"/><path d="M 218.559 291.872 L 221.459 286.849"/><path d="M 218.559 291.872 L 223.668 294.822"/><path d="M 226.568 289.799 L 223.668 294.822"/><path d="M 359.83 194.949 L 354.603 192.213"/><path d="M 351.913 197.351 L 354.603 192.213"/><path d="M 351.913 197.351 L 357.141 200.087"/><path d="M 359.83 194.949 L 357.141 200.087"/><path d="M 353.431 207.175 L 348.203 204.439"/><path d="M 345.514 209.578 L 348.203 204.439"/><path d="M 345.514 209.578 L 350.741 212.314"/><path d="M 353.431 207.175 L 350.741 212.314"/><path d="M 204.308 325.222 L 199.098 322.452"/><path d="M 196.376 327.573 L 199.098 322.452"/><path d="M 196.376 327.573 L 201.585 330.343"/><path d="M 204.308 325.222 L 201.585 330.343"/><path d="M 197.829 337.407 L 192.62 334.637"/><path d="M 189.897 339.758 L 192.62 334.637"/><path d="M 189.897 339.758 L 194.946 342.443"/><path d="M 197.829 337.407 L 194.946 342.443"/></g><g stroke="rgb(0, 0, 0)" stroke-width="0.13" stroke-linecap="butt" stroke-linejoin="miter" fill="none"><path d="M 373.368 63.9217 L 375.773 63.9217 L 375.773 63.488 L 373.872 63.488 L 373.978 63.251 L 374.16 63.0543 L 374.719 62.6962 L 375.017 62.5449 L 375.35 62.3281 L 375.587 62.0759 L 375.723 61.7784 L 375.773 61.4405 L 375.688 61.0168 L 375.451 60.684 L 375.088 60.4722 L 374.619 60.3965 L 374.134 60.4822 L 373.766 60.7193 L 373.529 61.0975 L 373.449 61.5968 L 373.449 61.6674 L 373.907 61.6674 L 373.907 61.627 L 373.953 61.2841 L 374.089 61.032 L 374.306 60.8706 L 374.593 60.8151 L 374.886 60.8655 L 375.103 60.9916 L 375.244 61.1883 L 375.294 61.4354 L 375.259 61.6674 L 375.163 61.8641 L 375.002 62.0356 L 374.78 62.1869 L 374.482 62.3482 L 373.988 62.6609 L 373.64 62.9938 L 373.433 63.3972 L 373.368 63.9066 L 373.368 63.9217 L 373.368 63.9217 z M 377.064 62.8223 L 377.064 62.8576 L 377.144 63.3418 L 377.381 63.7049 L 377.754 63.9369 L 378.249 64.0226 L 378.773 63.9369 L 379.167 63.7149 L 379.419 63.3619 L 379.509 62.908 L 379.469 62.6105 L 379.358 62.3684 L 379.177 62.1818 L 378.935 62.0457 L 379.262 61.7733 L 379.378 61.3396 L 379.303 60.9462 L 379.086 60.6487 L 378.733 60.4621 L 378.249 60.3965 L 377.795 60.4772 L 377.447 60.6991 L 377.22 61.0521 L 377.144 61.5211 L 377.144 61.5565 L 377.593 61.5565 L 377.633 61.2337 L 377.764 61.0017 L 377.976 60.8605 L 378.274 60.8101 L 378.536 60.8504 L 378.728 60.9563 L 378.844 61.1278 L 378.889 61.3598 L 378.844 61.6069 L 378.723 61.7733 L 378.511 61.8742 L 378.223 61.9044 L 378.027 61.8994 L 378.027 62.2978 L 378.274 62.2877 L 378.592 62.3331 L 378.829 62.4541 L 378.97 62.6508 L 379.02 62.908 L 378.965 63.2005 L 378.819 63.4174 L 378.587 63.5536 L 378.279 63.599 L 377.961 63.5485 L 377.729 63.3972 L 377.583 63.1552 L 377.527 62.8223 L 377.064 62.8223 L 377.064 62.8223 z M 381.445 62.0356 L 381.188 62.1768 L 381.011 62.3734 L 380.9 62.6206 L 380.865 62.9181 L 380.946 63.367 L 381.178 63.7149 L 381.556 63.9369 L 382.07 64.0226 L 382.58 63.9369 L 382.958 63.7149 L 383.19 63.367 L 383.276 62.9181 L 383.235 62.6206 L 383.129 62.3734 L 382.948 62.1768 L 382.696 62.0356 L 382.897 61.9145 L 383.039 61.7481 L 383.124 61.5464 L 383.155 61.2993 L 383.074 60.9412 L 382.862 60.6537 L 382.519 60.4671 L 382.07 60.3965 L 381.617 60.4671 L 381.274 60.6537 L 381.057 60.9412 L 380.981 61.2993 L 381.006 61.5464 L 381.092 61.7481 L 381.445 62.0356 L 381.445 62.0356 z M 381.349 62.908 L 381.395 62.6407 L 381.541 62.439 L 381.768 62.3079 L 382.07 62.2625 L 382.368 62.3079 L 382.595 62.439 L 382.741 62.6407 L 382.792 62.908 L 382.741 63.1955 L 382.595 63.4124 L 382.368 63.5536 L 382.07 63.599 L 381.768 63.5536 L 381.541 63.4124 L 381.395 63.1955 L 381.349 62.908 L 381.349 62.908 z M 381.46 61.3396 L 381.501 61.1177 L 381.622 60.9462 L 381.813 60.8403 L 382.07 60.8 L 382.323 60.8403 L 382.514 60.9462 L 382.635 61.1177 L 382.681 61.3396 L 382.635 61.5665 L 382.514 61.743 L 382.323 61.859 L 382.07 61.8943 L 381.813 61.854 L 381.622 61.743 L 381.501 61.5665 L 381.46 61.3396 L 381.46 61.3396 z M 385.458 63.9217 L 386.154 63.9217 L 386.154 63.1703 L 385.458 63.1703 L 385.458 63.9217 L 385.458 63.9217 z M 388.272 62.8223 L 388.272 62.8576 L 388.352 63.3418 L 388.589 63.7049 L 388.962 63.9369 L 389.457 64.0226 L 389.981 63.9369 L 390.375 63.7149 L 390.627 63.3619 L 390.718 62.908 L 390.677 62.6105 L 390.566 62.3684 L 390.385 62.1818 L 390.143 62.0457 L 390.47 61.7733 L 390.586 61.3396 L 390.511 60.9462 L 390.294 60.6487 L 389.941 60.4621 L 389.457 60.3965 L 389.003 60.4772 L 388.655 60.6991 L 388.428 61.0521 L 388.352 61.5211 L 388.352 61.5565 L 388.801 61.5565 L 388.841 61.2337 L 388.973 61.0017 L 389.184 60.8605 L 389.482 60.8101 L 389.744 60.8504 L 389.936 60.9563 L 390.052 61.1278 L 390.097 61.3598 L 390.052 61.6069 L 389.931 61.7733 L 389.719 61.8742 L 389.432 61.9044 L 389.235 61.8994 L 389.235 62.2978 L 389.482 62.2877 L 389.8 62.3331 L 390.037 62.4541 L 390.178 62.6508 L 390.228 62.908 L 390.173 63.2005 L 390.027 63.4174 L 389.795 63.5536 L 389.487 63.599 L 389.169 63.5485 L 388.937 63.3972 L 388.791 63.1552 L 388.736 62.8223 L 388.272 62.8223 L 388.272 62.8223 z M 392.653 62.0356 L 392.396 62.1768 L 392.219 62.3734 L 392.108 62.6206 L 392.073 62.9181 L 392.154 63.367 L 392.386 63.7149 L 392.764 63.9369 L 393.278 64.0226 L 393.788 63.9369 L 394.166 63.7149 L 394.398 63.367 L 394.484 62.9181 L 394.443 62.6206 L 394.338 62.3734 L 394.156 62.1768 L 393.904 62.0356 L 394.106 61.9145 L 394.247 61.7481 L 394.333 61.5464 L 394.363 61.2993 L 394.282 60.9412 L 394.07 60.6537 L 393.727 60.4671 L 393.278 60.3965 L 392.825 60.4671 L 392.482 60.6537 L 392.265 60.9412 L 392.189 61.2993 L 392.214 61.5464 L 392.3 61.7481 L 392.653 62.0356 L 392.653 62.0356 z M 392.557 62.908 L 392.603 62.6407 L 392.749 62.439 L 392.976 62.3079 L 393.278 62.2625 L 393.576 62.3079 L 393.803 62.439 L 393.949 62.6407 L 394 62.908 L 393.949 63.1955 L 393.803 63.4124 L 393.576 63.5536 L 393.278 63.599 L 392.976 63.5536 L 392.749 63.4124 L 392.603 63.1955 L 392.557 62.908 L 392.557 62.908 z M 392.668 61.3396 L 392.709 61.1177 L 392.83 60.9462 L 393.021 60.8403 L 393.278 60.8 L 393.531 60.8403 L 393.722 60.9462 L 393.843 61.1177 L 393.889 61.3396 L 393.843 61.5665 L 393.722 61.743 L 393.531 61.859 L 393.278 61.8943 L 393.021 61.854 L 392.83 61.743 L 392.709 61.5665 L 392.668 61.3396 L 392.668 61.3396 z" stroke="none" fill-rule="evenodd" fill="rgb(0, 0, 0)"/><path d="M 130.11 65.4041 L 128.178 65.9217 L 130.11 66.4394"/><path d="M 364.622 66.4394 L 366.553 65.9217 L 364.622 65.4041"/><path d="M 128.178 65.9217 L 394.796 65.9217"/></g><g stroke="rgb(0, 0, 0)" stroke-width="0.13" stroke-linecap="butt" stroke-linejoin="miter" fill="none"><path d="M 299.439 412.067 L 298.561 415.047 L 297.659 412.067 L 297.18 412.067 L 298.309 415.572 L 298.814 415.572 L 299.918 412.067 L 299.439 412.067 L 299.439 412.067 z M 302.641 412.864 L 302.198 412.864 L 302.198 414.427 L 302.147 414.79 L 302.001 415.053 L 301.774 415.214 L 301.476 415.264 L 301.239 415.224 L 301.088 415.103 L 301.002 414.896 L 300.982 414.604 L 300.982 412.864 L 300.538 412.864 L 300.538 414.644 L 300.553 415.002 L 300.649 415.3 L 300.942 415.572 L 301.411 415.668 L 301.663 415.632 L 301.88 415.542 L 302.066 415.385 L 302.218 415.158 L 302.218 415.572 L 302.641 415.572 L 302.641 412.864 L 302.641 412.864 z M 303.978 414.346 L 305.753 414.346 L 305.758 414.14 L 305.677 413.56 L 305.456 413.126 L 305.102 412.864 L 304.633 412.768 L 304.175 412.869 L 303.822 413.151 L 303.595 413.61 L 303.514 414.215 L 303.59 414.836 L 303.816 415.29 L 304.164 415.572 L 304.618 415.668 L 305.012 415.602 L 305.334 415.431 L 305.572 415.158 L 305.708 414.795 L 305.269 414.795 L 305.178 414.997 L 305.047 415.148 L 304.674 415.269 L 304.386 415.214 L 304.169 415.037 L 304.028 414.75 L 303.978 414.362 L 303.978 414.346 L 303.978 414.346 z M 303.978 413.973 L 304.033 413.625 L 304.169 413.368 L 304.376 413.212 L 304.649 413.156 L 304.916 413.212 L 305.123 413.368 L 305.249 413.625 L 305.294 413.973 L 303.978 413.973 L 303.978 413.973 z M 311.326 415.153 L 311.326 415.572 L 311.77 415.572 L 311.77 411.951 L 311.331 411.951 L 311.331 413.277 L 310.993 412.894 L 310.786 412.803 L 310.549 412.768 L 310.121 412.869 L 309.788 413.151 L 309.571 413.605 L 309.495 414.215 L 309.571 414.826 L 309.788 415.285 L 310.121 415.572 L 310.549 415.668 L 310.786 415.632 L 310.998 415.542 L 311.326 415.153 L 311.326 415.153 z M 310.625 413.166 L 310.917 413.237 L 311.139 413.434 L 311.27 413.761 L 311.321 414.215 L 311.27 414.674 L 311.139 415.002 L 310.917 415.204 L 310.625 415.269 L 310.347 415.204 L 310.136 415.002 L 309.994 414.669 L 309.949 414.215 L 309.994 413.766 L 310.136 413.439 L 310.347 413.237 L 310.625 413.166 L 310.625 413.166 z M 313.086 414.346 L 314.861 414.346 L 314.866 414.14 L 314.786 413.56 L 314.564 413.126 L 314.211 412.864 L 313.742 412.768 L 313.283 412.869 L 312.93 413.151 L 312.703 413.61 L 312.622 414.215 L 312.698 414.836 L 312.925 415.29 L 313.273 415.572 L 313.726 415.668 L 314.12 415.602 L 314.443 415.431 L 314.68 415.158 L 314.816 414.795 L 314.377 414.795 L 314.286 414.997 L 314.155 415.148 L 313.782 415.269 L 313.494 415.214 L 313.278 415.037 L 313.136 414.75 L 313.086 414.362 L 313.086 414.346 L 313.086 414.346 z M 313.086 413.973 L 313.141 413.625 L 313.278 413.368 L 313.484 413.212 L 313.757 413.156 L 314.024 413.212 L 314.231 413.368 L 314.357 413.625 L 314.402 413.973 L 313.086 413.973 L 313.086 413.973 z M 319.385 413.333 L 319.385 415.572 L 319.829 415.572 L 319.829 413.333 L 320.837 413.333 L 320.837 412.955 L 319.829 412.955 L 319.829 412.788 L 319.864 412.586 L 319.98 412.45 L 320.177 412.37 L 320.459 412.339 L 320.837 412.359 L 320.837 411.976 L 320.358 411.951 L 319.925 411.996 L 319.622 412.132 L 319.44 412.37 L 319.385 412.707 L 319.385 412.955 L 318.573 412.955 L 318.573 413.333 L 319.385 413.333 L 319.385 413.333 z M 323.415 415.219 L 323.415 415.234 L 323.44 415.406 L 323.515 415.527 L 323.833 415.622 L 324.08 415.582 L 324.08 415.239 L 323.974 415.254 L 323.833 415.189 L 323.808 414.987 L 323.808 413.585 L 323.747 413.227 L 323.571 412.975 L 323.263 412.823 L 322.83 412.768 L 322.406 412.828 L 322.093 413 L 321.897 413.267 L 321.831 413.62 L 321.831 413.65 L 322.229 413.65 L 322.265 413.439 L 322.376 413.287 L 322.557 413.197 L 322.814 413.161 L 323.062 413.187 L 323.238 413.262 L 323.344 413.393 L 323.379 413.575 L 323.359 413.787 L 323.278 413.893 L 323.077 413.943 L 322.698 413.983 L 322.265 414.074 L 321.957 414.236 L 321.776 414.488 L 321.72 414.861 L 321.77 415.194 L 321.927 415.441 L 322.179 415.597 L 322.527 415.653 L 322.996 415.547 L 323.415 415.219 L 323.415 415.219 z M 323.364 414.624 L 323.304 414.886 L 323.142 415.088 L 322.9 415.219 L 322.603 415.264 L 322.411 415.239 L 322.275 415.158 L 322.189 415.017 L 322.164 414.821 L 322.184 414.644 L 322.265 414.518 L 322.587 414.377 L 322.996 414.316 L 323.364 414.195 L 323.364 414.624 L 323.364 414.624 z M 326.567 413.761 L 327.005 413.761 L 326.915 413.358 L 326.698 413.04 L 326.36 412.844 L 325.921 412.768 L 325.437 412.869 L 325.069 413.151 L 324.837 413.61 L 324.756 414.225 L 324.832 414.836 L 325.059 415.29 L 325.417 415.572 L 325.906 415.668 L 326.34 415.592 L 326.678 415.38 L 326.91 415.047 L 327.01 414.604 L 326.587 414.604 L 326.511 414.886 L 326.37 415.098 L 326.168 415.229 L 325.921 415.269 L 325.613 415.204 L 325.392 415.002 L 325.255 414.674 L 325.21 414.21 L 325.255 413.756 L 325.397 413.429 L 325.624 413.227 L 325.921 413.156 L 326.183 413.202 L 326.38 413.318 L 326.511 413.509 L 326.567 413.761 L 326.567 413.761 z M 328.266 414.346 L 330.041 414.346 L 330.046 414.14 L 329.966 413.56 L 329.744 413.126 L 329.391 412.864 L 328.922 412.768 L 328.463 412.869 L 328.11 413.151 L 327.883 413.61 L 327.802 414.215 L 327.878 414.836 L 328.105 415.29 L 328.453 415.572 L 328.907 415.668 L 329.3 415.602 L 329.623 415.431 L 329.86 415.158 L 329.996 414.795 L 329.557 414.795 L 329.466 414.997 L 329.335 415.148 L 328.962 415.269 L 328.675 415.214 L 328.458 415.037 L 328.317 414.75 L 328.266 414.362 L 328.266 414.346 L 328.266 414.346 z M 328.266 413.973 L 328.322 413.625 L 328.458 413.368 L 328.665 413.212 L 328.937 413.156 L 329.204 413.212 L 329.411 413.368 L 329.537 413.625 L 329.582 413.973 L 328.266 413.973 L 328.266 413.973 z" stroke="none" fill-rule="evenodd" fill="rgb(0, 0, 0)"/></g><g stroke="rgb(0, 0, 0)" stroke-width="0.13" stroke-linecap="butt" stroke-linejoin="miter" fill="none"><path d="M 297.966 420.01 L 299.53 420.01 L 299.53 419.591 L 297.966 419.591 L 297.966 418.542 L 299.681 418.542 L 299.681 418.119 L 297.502 418.119 L 297.502 420.01 L 297.966 420.01 z M 302.278 419.808 L 302.717 419.808 L 302.626 419.405 L 302.409 419.087 L 302.071 418.891 L 301.633 418.815 L 301.148 418.916 L 300.78 419.198 L 300.548 419.657 L 300.502 420.01 L 300.946 420.01 L 300.967 419.803 L 301.108 419.476 L 301.335 419.274 L 301.633 419.203 L 301.895 419.249 L 302.092 419.364 L 302.223 419.556 L 302.278 419.808 z M 304.079 419.697 L 304.225 419.435 L 304.452 419.274 L 304.754 419.213 L 304.997 419.264 L 305.148 419.4 L 305.224 419.627 L 305.249 419.929 L 305.249 420.01 L 305.692 420.01 L 305.692 419.838 L 305.672 419.48 L 305.582 419.183 L 305.284 418.911 L 304.82 418.815 L 304.568 418.85 L 304.351 418.946 L 304.169 419.097 L 304.033 419.304 L 304.033 417.998 L 303.589 417.998 L 303.589 420.01 L 304.039 420.01 L 304.079 419.697 z M 308.77 420.01 L 308.713 419.606 L 308.492 419.173 L 308.139 418.911 L 307.669 418.815 L 307.21 418.916 L 306.857 419.198 L 306.63 419.657 L 306.583 420.01 L 308.77 420.01 z M 308.285 419.672 L 308.329 420.01 L 307.015 420.01 L 307.069 419.672 L 307.206 419.415 L 307.412 419.259 L 307.685 419.203 L 307.952 419.259 L 308.159 419.415 L 308.285 419.672 z M 310.988 417.998 L 309.848 417.998 L 309.848 418.371 L 310.544 418.371 L 310.544 420.01 L 310.988 420.01 L 310.988 417.998 z M 314.024 417.998 L 312.884 417.998 L 312.884 418.371 L 313.58 418.371 L 313.58 420.01 L 314.024 420.01 L 314.024 417.998 z M 317.878 420.01 L 317.822 419.606 L 317.6 419.173 L 317.247 418.911 L 316.778 418.815 L 316.319 418.916 L 315.966 419.198 L 315.739 419.657 L 315.692 420.01 L 317.878 420.01 z M 317.393 419.672 L 317.437 420.01 L 316.124 420.01 L 316.178 419.672 L 316.313 419.415 L 316.521 419.259 L 316.793 419.203 L 317.06 419.259 L 317.267 419.415 L 317.393 419.672 z M 322.502 419.662 L 323.198 419.662 L 323.198 418.911 L 322.502 418.911 L 322.502 419.662 L 322.502 419.662 z" stroke="none" fill-rule="evenodd" fill="rgb(0, 0, 0)"/></g><g stroke="rgb(0, 0, 0)" stroke-width="0.13" stroke-linecap="butt" stroke-linejoin="miter" fill="none"><path d="M 332.326 418.094 L 331.983 418.094 L 331.892 418.401 L 331.71 418.608 L 331.433 418.729 L 331.05 418.77 L 331.05 419.127 L 331.867 419.127 L 331.867 420.01 L 332.326 420.01 L 332.326 418.094 z M 334.646 419.662 L 335.342 419.662 L 335.342 418.911 L 334.646 418.911 L 334.646 419.662 L 334.646 419.662 z M 338.398 418.094 L 338.055 418.094 L 337.964 418.401 L 337.783 418.608 L 337.505 418.729 L 337.122 418.77 L 337.122 419.127 L 337.939 419.127 L 337.939 420.01 L 338.398 420.01 L 338.398 418.094 z" stroke="none" fill-rule="evenodd" fill="rgb(0, 0, 0)"/></g><g stroke="rgb(0, 0, 0)" stroke-width="0.13" stroke-linecap="butt" stroke-linejoin="miter" fill="none"><path d="M 286.453 405.392 L 286.564 405.806 L 286.811 406.129 L 287.174 406.33 L 287.638 406.406 L 288.147 406.315 L 288.546 406.068 L 288.798 405.675 L 288.893 405.17 L 288.808 404.701 L 288.566 404.333 L 288.187 404.096 L 287.698 404.01 L 287.32 404.071 L 287.027 404.237 L 287.169 403.294 L 288.702 403.294 L 288.702 402.881 L 286.831 402.881 L 286.553 404.737 L 286.957 404.737 L 287.249 404.5 L 287.623 404.414 L 287.945 404.469 L 288.192 404.631 L 288.349 404.878 L 288.404 405.196 L 288.349 405.513 L 288.187 405.76 L 287.94 405.917 L 287.623 405.972 L 287.355 405.937 L 287.149 405.821 L 286.997 405.639 L 286.922 405.392 L 286.453 405.392 L 286.453 405.392 z M 290.814 404.419 L 290.557 404.56 L 290.38 404.757 L 290.269 405.004 L 290.234 405.301 L 290.315 405.75 L 290.547 406.098 L 290.925 406.32 L 291.439 406.406 L 291.949 406.32 L 292.327 406.098 L 292.559 405.75 L 292.645 405.301 L 292.604 405.004 L 292.498 404.757 L 292.317 404.56 L 292.065 404.419 L 292.266 404.298 L 292.408 404.131 L 292.493 403.93 L 292.524 403.683 L 292.443 403.325 L 292.231 403.037 L 291.888 402.85 L 291.439 402.78 L 290.985 402.85 L 290.642 403.037 L 290.426 403.325 L 290.35 403.683 L 290.375 403.93 L 290.461 404.131 L 290.814 404.419 L 290.814 404.419 z M 290.718 405.291 L 290.764 405.024 L 290.91 404.822 L 291.137 404.691 L 291.439 404.646 L 291.737 404.691 L 291.964 404.822 L 292.11 405.024 L 292.16 405.291 L 292.11 405.579 L 291.964 405.796 L 291.737 405.937 L 291.439 405.982 L 291.137 405.937 L 290.91 405.796 L 290.764 405.579 L 290.718 405.291 L 290.718 405.291 z M 290.829 403.723 L 290.869 403.501 L 290.99 403.33 L 291.182 403.224 L 291.439 403.183 L 291.691 403.224 L 291.883 403.33 L 292.004 403.501 L 292.05 403.723 L 292.004 403.95 L 291.883 404.126 L 291.691 404.242 L 291.439 404.278 L 291.182 404.237 L 290.99 404.126 L 290.869 403.95 L 290.829 403.723 L 290.829 403.723 z M 293.945 406.305 L 296.35 406.305 L 296.35 405.871 L 294.449 405.871 L 294.555 405.634 L 294.737 405.438 L 295.296 405.08 L 295.594 404.928 L 295.927 404.711 L 296.164 404.459 L 296.3 404.162 L 296.35 403.824 L 296.265 403.4 L 296.028 403.067 L 295.665 402.856 L 295.195 402.78 L 294.711 402.866 L 294.343 403.103 L 294.106 403.481 L 294.025 403.98 L 294.025 404.051 L 294.484 404.051 L 294.484 404.01 L 294.53 403.667 L 294.666 403.415 L 294.883 403.254 L 295.17 403.198 L 295.463 403.249 L 295.68 403.375 L 295.821 403.572 L 295.871 403.819 L 295.836 404.051 L 295.74 404.247 L 295.579 404.419 L 295.357 404.57 L 295.059 404.732 L 294.565 405.044 L 294.217 405.377 L 294.01 405.781 L 293.945 406.29 L 293.945 406.305 L 293.945 406.305 z M 298.563 406.305 L 299.259 406.305 L 299.259 405.554 L 298.563 405.554 L 298.563 406.305 L 298.563 406.305 z M 302.925 406.305 L 303.379 406.305 L 303.379 405.438 L 303.878 405.438 L 303.878 405.034 L 303.379 405.034 L 303.379 402.881 L 302.92 402.881 L 301.387 404.994 L 301.387 405.438 L 302.925 405.438 L 302.925 406.305 L 302.925 406.305 z M 301.81 405.034 L 302.925 403.466 L 302.925 405.034 L 301.81 405.034 L 301.81 405.034 z M 305.173 405.438 L 305.249 405.836 L 305.466 406.144 L 305.808 406.335 L 306.262 406.406 L 306.56 406.371 L 306.827 406.28 L 307.054 406.124 L 307.246 405.902 L 307.397 405.624 L 307.508 405.281 L 307.574 404.888 L 307.599 404.434 L 307.513 403.723 L 307.266 403.204 L 306.873 402.891 L 306.333 402.78 L 305.839 402.871 L 305.466 403.113 L 305.223 403.486 L 305.143 403.955 L 305.223 404.439 L 305.46 404.807 L 305.814 405.039 L 306.262 405.115 L 306.736 405.019 L 307.095 404.727 L 307.014 405.286 L 306.852 405.685 L 306.605 405.922 L 306.267 405.997 L 306.005 405.962 L 305.814 405.851 L 305.687 405.675 L 305.637 405.438 L 305.173 405.438 L 305.173 405.438 z M 305.632 403.95 L 305.682 403.637 L 305.824 403.39 L 306.046 403.234 L 306.333 403.178 L 306.631 403.234 L 306.857 403.39 L 306.999 403.632 L 307.054 403.945 L 306.999 404.263 L 306.857 404.5 L 306.625 404.646 L 306.318 404.696 L 306.04 404.646 L 305.824 404.5 L 305.682 404.268 L 305.632 403.95 L 305.632 403.95 z" stroke="none" fill-rule="evenodd" fill="rgb(0, 0, 0)"/><path d="M 7.72988 407.787 L 5.79803 408.305 L 7.72988 408.823"/><path d="M 586.357 408.823 L 588.289 408.305 L 586.357 407.787"/><path d="M 5.79803 408.305 L 588.289 408.305"/></g></svg>