<?xml version="1.0" encoding="utf-8" ?><!DOCTYPE svg PUBLIC "-//W3C//DTD SVG 1.1//EN" "http://www.w3.org/Graphics/SVG/1.1/DTD/svg11.dtd" 
[ <!ATTLIST svg 
  xmlns:dsy CDATA #FIXED "http://www.3ds.com/print"  
    dsy:text-version CDATA #IMPLIED > 

  <!ATTLIST text 
  xmlns:dsy CDATA #FIXED "http://www.3ds.com/print" 
    dsy:text-version CDATA #IMPLIED > 
]><svg xmlns="http://www.w3.org/2000/svg" xmlns:dsy="http://www.3ds.com/print" dsy:text-version="18000" width="594" height="420" viewBox="0 0 594 420" version="1.1"><g stroke="rgb(0, 0, 0)" stroke-width="0.13" stroke-linecap="butt" stroke-linejoin="miter" fill="none"><path d="M 592.868 42.1809 L 592.868 413.007"/></g><g stroke="rgb(0, 0, 0)" stroke-width="0.35" stroke-linecap="butt" stroke-linejoin="miter" fill="none"><path d="M 384.297 368.65 L 389.416 360.159"/><path d="M 398.196 355.324 A 10 10 0 0 0 389.416 360.159"/><path d="M 398.196 355.324 L 423.396 368.315"/><path d="M 566.535 120.391 L 423.396 368.315"/><path d="M 555.287 110.926 L 566.535 120.391"/><path d="M 562.207 93.2863 A 10 10 0 0 0 555.287 110.926"/><path d="M 562.207 93.2863 L 592.868 40.1809"/><path d="M 592.868 40.1809 L 539.328 9.2699"/><path d="M 440.768 179.981 L 539.328 9.2699"/><path d="M 30.6033 182.253 L 440.768 179.981"/><path d="M -0.0100112 249.304 A 86.2985 86.2985 0 0 0 30.6032 182.253"/><path d="M 294.66 316.898 L -0.00976563 253.567"/><path d="M 384.297 368.65 L 294.66 316.898"/><path d="M 419.777 231.338 L 422.727 226.228"/><path d="M 427.75 229.128 L 422.727 226.228"/><path d="M 427.75 229.128 L 424.8 234.238"/><path d="M 419.777 231.338 L 424.8 234.238"/><path d="M 378 315.298 L 372.977 312.398"/><path d="M 372.977 312.398 L 375.927 307.288"/><path d="M 380.95 310.188 L 375.927 307.288"/><path d="M 380.95 310.188 L 378 315.298"/><path d="M 24.1612 233.297 L 28.5458 229.349"/><path d="M 28.5458 229.349 L 32.4267 233.66"/><path d="M 32.4267 233.66 L 28.0422 237.607"/><path d="M 28.0422 237.607 L 24.1612 233.297"/><path d="M 44.9693 214.562 L 49.3538 210.614"/><path d="M 49.3538 210.614 L 53.2348 214.924"/><path d="M 53.2348 214.924 L 48.8502 218.872"/><path d="M 48.8502 218.872 L 44.9693 214.562"/><path d="M 42.2308 190.896 L 37.8462 194.844"/><path d="M 46.1117 195.207 L 42.2308 190.896"/><path d="M 41.7272 199.154 L 46.1117 195.207"/><path d="M 37.8462 194.844 L 41.7272 199.154"/><path d="M 174.349 233.266 L 177.299 228.156"/><path d="M 182.322 231.056 L 177.299 228.156"/><path d="M 182.322 231.056 L 179.372 236.166"/><path d="M 174.349 233.266 L 179.372 236.166"/><path d="M 309.846 258.355 L 312.796 253.246"/><path d="M 317.819 256.146 L 312.796 253.246"/><path d="M 317.819 256.146 L 314.869 261.255"/><path d="M 309.846 258.355 L 314.869 261.255"/><path d="M 381.696 298.231 L 384.646 293.121"/><path d="M 389.669 296.021 L 384.646 293.121"/><path d="M 389.669 296.021 L 386.719 301.131"/><path d="M 381.696 298.231 L 386.719 301.131"/><path d="M 414.068 242.162 L 417.018 237.052"/><path d="M 422.041 239.952 L 417.018 237.052"/><path d="M 422.041 239.952 L 419.091 245.062"/><path d="M 414.068 242.162 L 419.091 245.062"/><path d="M 251.234 226.65 L 254.393 221.667"/><path d="M 259.292 224.772 L 254.393 221.667"/><path d="M 259.292 224.772 L 256.133 229.755"/><path d="M 251.234 226.65 L 256.133 229.755"/><path d="M 262.89 234.038 L 266.049 229.055"/><path d="M 270.948 232.161 L 266.049 229.055"/><path d="M 270.948 232.161 L 267.789 237.144"/><path d="M 262.89 234.038 L 267.789 237.144"/><path d="M 451.057 261.709 L 454.184 256.705"/><path d="M 459.103 259.779 L 454.184 256.705"/><path d="M 459.103 259.779 L 455.976 264.782"/><path d="M 451.057 261.709 L 455.976 264.782"/><path d="M 462.76 269.022 L 465.887 264.018"/><path d="M 470.806 267.092 L 465.887 264.018"/><path d="M 470.806 267.092 L 467.775 271.941"/><path d="M 462.76 269.022 L 467.775 271.941"/></g><g stroke="rgb(0, 0, 0)" stroke-width="0.13" stroke-linecap="butt" stroke-linejoin="miter" fill="none"><path d="M 296.708 377.002 L 295.83 379.983 L 294.928 377.002 L 294.448 377.002 L 295.578 380.507 L 296.082 380.507 L 297.187 377.002 L 296.708 377.002 L 296.708 377.002 z M 299.91 377.799 L 299.467 377.799 L 299.467 379.362 L 299.416 379.725 L 299.27 379.988 L 299.043 380.149 L 298.745 380.199 L 298.508 380.159 L 298.357 380.038 L 298.271 379.831 L 298.251 379.539 L 298.251 377.799 L 297.807 377.799 L 297.807 379.579 L 297.822 379.937 L 297.918 380.235 L 298.211 380.507 L 298.68 380.603 L 298.932 380.568 L 299.149 380.477 L 299.335 380.32 L 299.487 380.094 L 299.487 380.507 L 299.91 380.507 L 299.91 377.799 L 299.91 377.799 z M 301.247 379.282 L 303.022 379.282 L 303.027 379.075 L 302.946 378.495 L 302.724 378.061 L 302.371 377.799 L 301.902 377.703 L 301.443 377.804 L 301.09 378.086 L 300.863 378.545 L 300.783 379.15 L 300.858 379.771 L 301.085 380.225 L 301.433 380.507 L 301.887 380.603 L 302.281 380.537 L 302.603 380.366 L 302.84 380.094 L 302.977 379.73 L 302.538 379.73 L 302.447 379.932 L 302.316 380.083 L 301.943 380.204 L 301.655 380.149 L 301.438 379.972 L 301.297 379.685 L 301.247 379.297 L 301.247 379.282 L 301.247 379.282 z M 301.247 378.908 L 301.302 378.56 L 301.438 378.303 L 301.645 378.147 L 301.918 378.091 L 302.185 378.147 L 302.392 378.303 L 302.518 378.56 L 302.563 378.908 L 301.247 378.908 L 301.247 378.908 z M 308.595 380.088 L 308.595 380.507 L 309.039 380.507 L 309.039 376.886 L 308.6 376.886 L 308.6 378.212 L 308.262 377.829 L 308.055 377.738 L 307.818 377.703 L 307.389 377.804 L 307.057 378.086 L 306.84 378.54 L 306.764 379.15 L 306.84 379.761 L 307.057 380.22 L 307.389 380.507 L 307.818 380.603 L 308.055 380.568 L 308.267 380.477 L 308.595 380.088 L 308.595 380.088 z M 307.894 378.101 L 308.186 378.172 L 308.408 378.369 L 308.539 378.697 L 308.59 379.15 L 308.539 379.609 L 308.408 379.937 L 308.186 380.139 L 307.894 380.204 L 307.616 380.139 L 307.405 379.937 L 307.263 379.604 L 307.218 379.15 L 307.263 378.702 L 307.405 378.374 L 307.616 378.172 L 307.894 378.101 L 307.894 378.101 z M 310.355 379.282 L 312.13 379.282 L 312.135 379.075 L 312.054 378.495 L 311.833 378.061 L 311.48 377.799 L 311.011 377.703 L 310.552 377.804 L 310.199 378.086 L 309.972 378.545 L 309.891 379.15 L 309.967 379.771 L 310.194 380.225 L 310.542 380.507 L 310.995 380.603 L 311.389 380.537 L 311.712 380.366 L 311.949 380.094 L 312.085 379.73 L 311.646 379.73 L 311.555 379.932 L 311.424 380.083 L 311.051 380.204 L 310.763 380.149 L 310.547 379.972 L 310.405 379.685 L 310.355 379.297 L 310.355 379.282 L 310.355 379.282 z M 310.355 378.908 L 310.41 378.56 L 310.547 378.303 L 310.753 378.147 L 311.026 378.091 L 311.293 378.147 L 311.5 378.303 L 311.626 378.56 L 311.671 378.908 L 310.355 378.908 L 310.355 378.908 z M 316.654 378.268 L 316.654 380.507 L 317.098 380.507 L 317.098 378.268 L 318.106 378.268 L 318.106 377.89 L 317.098 377.89 L 317.098 377.723 L 317.133 377.521 L 317.249 377.385 L 317.446 377.305 L 317.728 377.274 L 318.106 377.295 L 318.106 376.911 L 317.627 376.886 L 317.194 376.931 L 316.891 377.068 L 316.709 377.305 L 316.654 377.643 L 316.654 377.89 L 315.842 377.89 L 315.842 378.268 L 316.654 378.268 L 316.654 378.268 z M 320.684 380.154 L 320.684 380.169 L 320.709 380.341 L 320.784 380.462 L 321.102 380.558 L 321.349 380.517 L 321.349 380.174 L 321.243 380.189 L 321.102 380.124 L 321.077 379.922 L 321.077 378.52 L 321.016 378.162 L 320.84 377.91 L 320.532 377.759 L 320.098 377.703 L 319.675 377.764 L 319.362 377.935 L 319.165 378.202 L 319.1 378.555 L 319.1 378.586 L 319.498 378.586 L 319.534 378.374 L 319.645 378.222 L 319.826 378.132 L 320.083 378.096 L 320.33 378.122 L 320.507 378.197 L 320.613 378.328 L 320.648 378.51 L 320.628 378.722 L 320.547 378.828 L 320.346 378.878 L 319.967 378.918 L 319.534 379.009 L 319.226 379.171 L 319.044 379.423 L 318.989 379.796 L 319.039 380.129 L 319.196 380.376 L 319.448 380.532 L 319.796 380.588 L 320.265 380.482 L 320.684 380.154 L 320.684 380.154 z M 320.633 379.559 L 320.573 379.821 L 320.411 380.023 L 320.169 380.154 L 319.872 380.199 L 319.68 380.174 L 319.544 380.094 L 319.458 379.952 L 319.433 379.756 L 319.453 379.579 L 319.534 379.453 L 319.856 379.312 L 320.265 379.251 L 320.633 379.13 L 320.633 379.559 L 320.633 379.559 z M 323.836 378.697 L 324.274 378.697 L 324.184 378.293 L 323.967 377.975 L 323.629 377.779 L 323.19 377.703 L 322.706 377.804 L 322.338 378.086 L 322.106 378.545 L 322.025 379.161 L 322.101 379.771 L 322.328 380.225 L 322.686 380.507 L 323.175 380.603 L 323.609 380.527 L 323.947 380.315 L 324.178 379.983 L 324.279 379.539 L 323.856 379.539 L 323.78 379.821 L 323.639 380.033 L 323.437 380.164 L 323.19 380.204 L 322.882 380.139 L 322.66 379.937 L 322.524 379.609 L 322.479 379.145 L 322.524 378.692 L 322.665 378.364 L 322.892 378.162 L 323.19 378.091 L 323.452 378.137 L 323.649 378.253 L 323.78 378.444 L 323.836 378.697 L 323.836 378.697 z M 325.535 379.282 L 327.31 379.282 L 327.315 379.075 L 327.235 378.495 L 327.013 378.061 L 326.66 377.799 L 326.191 377.703 L 325.732 377.804 L 325.379 378.086 L 325.152 378.545 L 325.071 379.15 L 325.147 379.771 L 325.374 380.225 L 325.722 380.507 L 326.176 380.603 L 326.569 380.537 L 326.892 380.366 L 327.129 380.094 L 327.265 379.73 L 326.826 379.73 L 326.735 379.932 L 326.604 380.083 L 326.231 380.204 L 325.944 380.149 L 325.727 379.972 L 325.586 379.685 L 325.535 379.297 L 325.535 379.282 L 325.535 379.282 z M 325.535 378.908 L 325.591 378.56 L 325.727 378.303 L 325.934 378.147 L 326.206 378.091 L 326.473 378.147 L 326.68 378.303 L 326.806 378.56 L 326.851 378.908 L 325.535 378.908 L 325.535 378.908 z" stroke="none" fill-rule="evenodd" fill="rgb(0, 0, 0)"/></g><g stroke="rgb(0, 0, 0)" stroke-width="0.13" stroke-linecap="butt" stroke-linejoin="miter" fill="none"><path d="M 294.771 386.554 L 296.99 386.554 L 296.99 386.13 L 295.235 386.13 L 295.235 384.945 L 296.799 384.945 L 296.799 384.527 L 295.235 384.527 L 295.235 383.478 L 296.95 383.478 L 296.95 383.054 L 294.771 383.054 L 294.771 386.554 L 294.771 386.554 z M 299.547 384.743 L 299.986 384.743 L 299.895 384.34 L 299.678 384.022 L 299.34 383.826 L 298.902 383.75 L 298.418 383.851 L 298.049 384.133 L 297.817 384.592 L 297.737 385.207 L 297.812 385.818 L 298.039 386.271 L 298.397 386.554 L 298.887 386.65 L 299.32 386.574 L 299.658 386.362 L 299.89 386.029 L 299.991 385.586 L 299.567 385.586 L 299.492 385.868 L 299.351 386.08 L 299.149 386.211 L 298.902 386.251 L 298.594 386.186 L 298.372 385.984 L 298.236 385.656 L 298.191 385.192 L 298.236 384.738 L 298.377 384.411 L 298.604 384.209 L 298.902 384.138 L 299.164 384.184 L 299.361 384.3 L 299.492 384.491 L 299.547 384.743 L 299.547 384.743 z M 300.858 386.554 L 301.302 386.554 L 301.302 384.991 L 301.348 384.632 L 301.494 384.37 L 301.721 384.209 L 302.023 384.148 L 302.266 384.199 L 302.417 384.335 L 302.492 384.562 L 302.518 384.864 L 302.518 386.554 L 302.961 386.554 L 302.961 384.774 L 302.941 384.416 L 302.851 384.118 L 302.553 383.846 L 302.089 383.75 L 301.837 383.785 L 301.62 383.881 L 301.438 384.032 L 301.302 384.239 L 301.302 382.933 L 300.858 382.933 L 300.858 386.554 L 300.858 386.554 z M 304.283 385.328 L 306.058 385.328 L 306.063 385.122 L 305.982 384.542 L 305.76 384.108 L 305.407 383.846 L 304.938 383.75 L 304.48 383.851 L 304.126 384.133 L 303.9 384.592 L 303.819 385.197 L 303.895 385.818 L 304.121 386.271 L 304.469 386.554 L 304.923 386.65 L 305.317 386.584 L 305.639 386.413 L 305.876 386.14 L 306.013 385.777 L 305.574 385.777 L 305.483 385.979 L 305.352 386.13 L 304.979 386.251 L 304.691 386.196 L 304.474 386.019 L 304.333 385.732 L 304.283 385.344 L 304.283 385.328 L 304.283 385.328 z M 304.283 384.955 L 304.338 384.607 L 304.474 384.35 L 304.681 384.194 L 304.954 384.138 L 305.221 384.194 L 305.428 384.35 L 305.554 384.607 L 305.599 384.955 L 304.283 384.955 L 304.283 384.955 z M 307.813 383.306 L 307.813 386.181 L 306.9 386.181 L 306.9 386.554 L 309.165 386.554 L 309.165 386.181 L 308.257 386.181 L 308.257 382.933 L 307.117 382.933 L 307.117 383.306 L 307.813 383.306 L 307.813 383.306 z M 310.849 383.306 L 310.849 386.181 L 309.936 386.181 L 309.936 386.554 L 312.201 386.554 L 312.201 386.181 L 311.293 386.181 L 311.293 382.933 L 310.153 382.933 L 310.153 383.306 L 310.849 383.306 L 310.849 383.306 z M 313.391 385.328 L 315.166 385.328 L 315.171 385.122 L 315.091 384.542 L 314.869 384.108 L 314.516 383.846 L 314.047 383.75 L 313.588 383.851 L 313.235 384.133 L 313.008 384.592 L 312.927 385.197 L 313.003 385.818 L 313.23 386.271 L 313.578 386.554 L 314.031 386.65 L 314.425 386.584 L 314.748 386.413 L 314.985 386.14 L 315.121 385.777 L 314.682 385.777 L 314.591 385.979 L 314.46 386.13 L 314.087 386.251 L 313.799 386.196 L 313.583 386.019 L 313.441 385.732 L 313.391 385.344 L 313.391 385.328 L 313.391 385.328 z M 313.391 384.955 L 313.446 384.607 L 313.583 384.35 L 313.789 384.194 L 314.062 384.138 L 314.329 384.194 L 314.536 384.35 L 314.662 384.607 L 314.707 384.955 L 313.391 384.955 L 313.391 384.955 z M 319.771 386.554 L 320.467 386.554 L 320.467 385.802 L 319.771 385.802 L 319.771 386.554 L 319.771 386.554 z M 319.771 384.597 L 320.467 384.597 L 320.467 383.846 L 319.771 383.846 L 319.771 384.597 L 319.771 384.597 z" stroke="none" fill-rule="evenodd" fill="rgb(0, 0, 0)"/></g><g stroke="rgb(0, 0, 0)" stroke-width="0.13" stroke-linecap="butt" stroke-linejoin="miter" fill="none"><path d="M 329.136 386.554 L 329.595 386.554 L 329.595 383.029 L 329.252 383.029 L 329.161 383.336 L 328.98 383.543 L 328.702 383.664 L 328.319 383.704 L 328.319 384.063 L 329.136 384.063 L 329.136 386.554 L 329.136 386.554 z M 331.915 386.554 L 332.611 386.554 L 332.611 385.802 L 331.915 385.802 L 331.915 386.554 L 331.915 386.554 z M 331.915 384.597 L 332.611 384.597 L 332.611 383.846 L 331.915 383.846 L 331.915 384.597 L 331.915 384.597 z M 335.208 386.554 L 335.667 386.554 L 335.667 383.029 L 335.324 383.029 L 335.233 383.336 L 335.052 383.543 L 334.774 383.664 L 334.391 383.704 L 334.391 384.063 L 335.208 384.063 L 335.208 386.554 L 335.208 386.554 z" stroke="none" fill-rule="evenodd" fill="rgb(0, 0, 0)"/></g><g stroke="rgb(0, 0, 0)" stroke-width="0.13" stroke-linecap="butt" stroke-linejoin="miter" fill="none"><path d="M 283.722 408.094 L 283.833 408.508 L 284.08 408.83 L 284.443 409.032 L 284.907 409.108 L 285.416 409.017 L 285.815 408.77 L 286.067 408.376 L 286.162 407.872 L 286.077 407.403 L 285.835 407.035 L 285.456 406.798 L 284.967 406.712 L 284.589 406.773 L 284.297 406.939 L 284.438 405.996 L 285.971 405.996 L 285.971 405.583 L 284.1 405.583 L 283.822 407.438 L 284.226 407.438 L 284.518 407.201 L 284.892 407.116 L 285.214 407.171 L 285.461 407.333 L 285.618 407.58 L 285.673 407.897 L 285.618 408.215 L 285.456 408.462 L 285.209 408.619 L 284.892 408.674 L 284.624 408.639 L 284.418 408.523 L 284.266 408.341 L 284.191 408.094 L 283.722 408.094 L 283.722 408.094 z M 287.498 408.139 L 287.574 408.538 L 287.79 408.845 L 288.133 409.037 L 288.587 409.108 L 288.885 409.072 L 289.152 408.982 L 289.379 408.825 L 289.571 408.603 L 289.722 408.326 L 289.833 407.983 L 289.898 407.59 L 289.924 407.136 L 289.838 406.425 L 289.591 405.905 L 289.198 405.593 L 288.658 405.482 L 288.164 405.572 L 287.79 405.815 L 287.548 406.188 L 287.468 406.657 L 287.548 407.141 L 287.785 407.509 L 288.138 407.741 L 288.587 407.817 L 289.061 407.721 L 289.419 407.428 L 289.339 407.988 L 289.177 408.387 L 288.93 408.624 L 288.592 408.699 L 288.33 408.664 L 288.138 408.553 L 288.012 408.376 L 287.962 408.139 L 287.498 408.139 L 287.498 408.139 z M 287.957 406.652 L 288.007 406.339 L 288.149 406.092 L 288.37 405.936 L 288.658 405.88 L 288.955 405.936 L 289.182 406.092 L 289.324 406.334 L 289.379 406.647 L 289.324 406.964 L 289.182 407.201 L 288.95 407.348 L 288.643 407.398 L 288.365 407.348 L 288.149 407.201 L 288.007 406.969 L 287.957 406.652 L 287.957 406.652 z M 291.743 409.007 L 292.253 409.007 L 292.419 408.175 L 292.712 407.398 L 293.125 406.677 L 293.665 406.001 L 293.665 405.583 L 291.264 405.583 L 291.264 406.041 L 293.181 406.041 L 292.626 406.722 L 292.207 407.433 L 291.915 408.19 L 291.743 409.007 L 291.743 409.007 z M 295.832 409.007 L 296.528 409.007 L 296.528 408.255 L 295.832 408.255 L 295.832 409.007 L 295.832 409.007 z M 299.826 409.007 L 300.285 409.007 L 300.285 405.482 L 299.942 405.482 L 299.851 405.789 L 299.669 405.996 L 299.392 406.117 L 299.009 406.157 L 299.009 406.516 L 299.826 406.516 L 299.826 409.007 L 299.826 409.007 z M 303.562 409.007 L 304.021 409.007 L 304.021 405.482 L 303.678 405.482 L 303.587 405.789 L 303.405 405.996 L 303.128 406.117 L 302.745 406.157 L 302.745 406.516 L 303.562 406.516 L 303.562 409.007 L 303.562 409.007 z" stroke="none" fill-rule="evenodd" fill="rgb(0, 0, 0)"/><path d="M 590.936 411.525 L 592.868 411.007 L 590.936 410.489"/><path d="M -0.00976563 411.007 L 592.868 411.007"/></g></svg>