<svg xmlns="http://www.w3.org/2000/svg" viewBox="0 0 363.15 156.68"><defs><style>.cls-1{fill:#000003;fill-rule:evenodd;}</style></defs><title>logo_optimus_logo</title><g id="Calque_2" data-name="Calque 2"><g id="Plan_1" data-name="Plan 1"><path class="cls-1" d="M124.4,70.08,125,66.2l3.23,1,4.13,6.7-15.55,0-1.24-9,8.79,5.17Zm-31-8.28-14.1-7.46L90.14,35.79l-16.83.33-18.87.48L10.45,63,40.64,56.9,21.93,91.54l-11,20.09-8.74,15.6c31.5-22.66,60.65-41.82,91.24-65.43ZM49.44,106l1.48-.7,2.86,13.78-5,3.35-17.46,12.2-12.15,8.22.42-1.32L35.27,123.1,49.44,106Zm81-13.44L145,101.24a125.46,125.46,0,0,0-9.51-10.58l-5.05,1.91ZM110.73,28.2l8.12,1.89,5.64.46.16-.33-10.3-20.5-3.92,18.34.3.14ZM74.53,47.09l6.09,2.35-15,3.77-.89-7.32,10.57-4,5.15.33-5.9,4.92Zm34.72,43.08L95.05,69.05,74.58,82.64l-.86,19.85,17.4,24.81-2.9-17.78,35.38,20.74L109.25,90.17ZM29.92,17.89l14,4.73,8.63-5.83-24.21.39,1.59.71Zm78.86,2.81-5.13,8.1L25,37.06,64.87,20.19l.37-.7L47.76,4.4,81.44,13,89.29,0,108.9,20.3l-.12.4Zm32.31,119L114.16,91.18l11,.81,15.91,47.67ZM133.18,156,98.06,120l13.88,6.58,19.16,19,3,11.08-.94-.7ZM64.13,129.63l-7.4-32.24L68.1,84.05l2.54,25.58,35.78,46.84L64.13,129.63Zm0,0,0,0,0,0ZM0,95,27.44,64.61,22.57,81.8,0,95ZM110.05,37.54l-5.11-2.63-9.46.14L102.74,41l5.68-2.08,1.87,6L112,39.41l14.77-3.9,10.42,8.88-.22,4.52-4.32.08-2.86,9.18-1.23-9.63-16.7,11,3.27,20.73,6.46,4.81,2.65-7.74,2.58,7.46,4.91.14,1.79-7.39,2.71,7.86,1.07-2-1.73-16.5L146.29,52l-3-2.64-2.05,7.4L139,49.09l.46-4.29,6.41-5.16-5.32-3.89-2,3.63-2.27-2.56L137.44,35l-10.91-.79-16.48,3.34Zm36.42-1.37,216.68.61L342,102.58l-187,.36-11.36-7.19-8.13-5.09,5.77-7.1L139.56,69,148.65,51l1.27-8.69-3.45-6.16ZM320.76,51v0H309.32L301,76.3a38,38,0,0,1-2,5.46,1.92,1.92,0,0,1-1.79.85c-.79,0-1.19-.27-1.19-.82a29.82,29.82,0,0,1,1.43-5.21L305.83,51H294.4l-8.3,25.38c-1.06,3.25-1.7,5.4-1.93,6.49-.31,1.52-.25,5,1.7,5.54a20,20,0,0,0,8.3,0c1.48-.38,2.67-1.61,3.88-2.88l-1.24,3.13h11.65L320.76,51Zm-58.33,0H251.17l-12.3,37.62H250l8.53-26.09c.59-1.81,1-3,1.22-3.55a3.29,3.29,0,0,1,1.06-1.42,2.42,2.42,0,0,1,1.5-.58c.81,0,1.19.37,1.12,1.1a47.06,47.06,0,0,1-1.89,6.64l-7.81,23.9h11.08l8-24.54a33.59,33.59,0,0,1,2.3-6A2.2,2.2,0,0,1,277,56.94c.8,0,1.18.38,1.14,1.15a33.26,33.26,0,0,1-1.62,6l-8,24.54h11.07l8.74-26.75A32,32,0,0,0,290,55.16c.09-1.38-.11-2.87-1.32-3.48-2.33-1.18-5.58-1.14-8.72-.34-1.55.38-2.88,1.78-4.3,3.2-1.4-4.84-8.12-4.17-10.36-3.2a13.42,13.42,0,0,0-4.21,3.2L262.43,51Zm-14,0H236.69l-12.3,37.62h11.79L248.48,51Zm2.71-8.31H239.4l-2,6h11.78l2-6Zm-16,0H223.7l-3.43,9.25h-2.44l-2,6h2.44L212.09,77a52.43,52.43,0,0,0-2,7.11,3.62,3.62,0,0,0,.72,2.69c1.87,2.57,4.4,1.83,8,1.83h4.63l2-6q-2.86,0-3.12-.42t1-4.14l6.57-20.1H233l1.95-6h-3.2l3.44-9.26ZM202.5,61.91a22.73,22.73,0,0,0,1.13-4.23c0-.49-.4-.73-1.19-.73a2,2,0,0,0-1.75.85A18.37,18.37,0,0,0,199,61.91L193.93,77.5a16.64,16.64,0,0,0-1.05,4.25c0,.57.45.85,1.21.85a1.85,1.85,0,0,0,1.64-.79A18.92,18.92,0,0,0,197.25,78l5.25-16.13ZM187.82,96.19h-.07l3.63-10.88a5.33,5.33,0,0,0,2.35,3A10,10,0,0,0,206,84.53a38.63,38.63,0,0,0,3-7.3l5.19-15.86A31.7,31.7,0,0,0,215.72,55a4,4,0,0,0-1.34-3.31c-1.45-1.39-6.58-1.12-8.5-.44a13.49,13.49,0,0,0-4.36,3L202.8,51H191.16L176,97.25l11.87-1.06Zm125.91-8.87c1.13,2.08,3,1.7,9.25,1.76s11,0,13-5.75a25.06,25.06,0,0,0,2.67-5.88c.9-2.73,1.06-4.83.49-6.26s-2.23-3-5-4.6a19.06,19.06,0,0,1-4-2.81,2.54,2.54,0,0,1-.86-1.78,9.76,9.76,0,0,1,.58-2.53c.42-1.33,1.22-2.56,2.76-2.56.79,0,1.22.24,1.26.7a11.17,11.17,0,0,1-.78,3.3L332.43,63h10.11l.71-2.19a22.93,22.93,0,0,0,1.06-4.17,4.67,4.67,0,0,0-.74-2.89,6.37,6.37,0,0,0-3.21-2.52,16.39,16.39,0,0,0-6-.94,20.59,20.59,0,0,0-7,1.17,12.21,12.21,0,0,0-5.12,3.31,19,19,0,0,0-3.37,6.65,12.06,12.06,0,0,0-.69,5.49c.23,1.55,1.71,3.26,4.46,5.14q4.89,3.34,5.33,4c.26.46.09,1.57-.49,3.38A6.45,6.45,0,0,1,326.12,82a2.73,2.73,0,0,1-1.9.61c-.75,0-1.15-.31-1.22-.9a13.08,13.08,0,0,1,.91-3.93l.76-2.37H314.52l-.6,1.8q-1.55,4.71-1.14,7c.2,1.1.09,2.19,1,3.09ZM164,88.9h0c3.65-.35,9.8.25,12.36-.63a7.24,7.24,0,0,0,1.6-2.08l13.57-41.45c.49-1.49-.26-2.7-1.67-2.7H166.51a4,4,0,0,0-3.45,2.7L149.48,86.2c-.49,1.49.26,2.7,1.67,2.7ZM175.86,53h0a17,17,0,0,0,1.08-4.33c0-.62-.38-.94-1.1-.94a2.22,2.22,0,0,0-1.64.77,15.64,15.64,0,0,0-2,4.5l-7.53,23.13a25.94,25.94,0,0,0-1.41,5.19c0,.67.38,1,1.14,1a2.13,2.13,0,0,0,1.89-1.13,30.88,30.88,0,0,0,2.12-5.41Z"/></g></g></svg>