<svg xmlns="http://www.w3.org/2000/svg" viewBox="0 0 499.72 107.61"><defs><style>.cls-1{fill:#fff;stroke:#1a1a18;stroke-miterlimit:22.93;stroke-width:0.57px;}.cls-1,.cls-2,.cls-3{fill-rule:evenodd;}.cls-2{fill:#000003;}.cls-3{fill:#e3000f;}</style></defs><title>logo_epsa</title><g id="Calque_2" data-name="Calque 2"><g id="Plan_1" data-name="Plan 1"><polygon class="cls-1" points="9.24 83.93 489.58 83.93 480.75 107.33 0.41 107.33 9.24 83.93"/><path class="cls-2" d="M33.67,90.2,32,94.53H43.82L43,96.78H31.15l-1.85,4.84H41.45l-.88,2.3H25.42l6.14-16H46.71l-.89,2.32Zm13.28,3-2,5.21c-.49,1.29-1.06,3.3,0,4.46s3.68,1.26,5.15,1.26h2.4a13.41,13.41,0,0,0,5.92-1,6.74,6.74,0,0,0,3-3.74L62,97.85H58.92l-.07.25-.09.27c0,.14-.1.29-.16.43a4.51,4.51,0,0,1-1.76,2.39,9.06,9.06,0,0,1-3.87.62H51.38a12.59,12.59,0,0,1-2.61-.16,2,2,0,0,1-1-.48.94.94,0,0,1-.3-.77,8.55,8.55,0,0,1,.63-2.19l1.67-4.37a10.65,10.65,0,0,1,1.07-2.23,3.34,3.34,0,0,1,1.08-.93,5.07,5.07,0,0,1,1.53-.54A16.31,16.31,0,0,1,56.17,90h1.59c.73,0,2.67,0,3.25.55s.14,1.5,0,2l-.34.9H63.7l.34-.9c.47-1.21.78-2.8-.33-3.76S60,87.69,58.53,87.69h-2.4a12.2,12.2,0,0,0-6,1.21A8.21,8.21,0,0,0,47,93.17Zm21.79-5.29h3l-4,10.54a7.49,7.49,0,0,0-.56,2,.9.9,0,0,0,.26.69,2.06,2.06,0,0,0,1,.44,14.1,14.1,0,0,0,2.52.14h2.16a16.75,16.75,0,0,0,2.65-.14,4.85,4.85,0,0,0,1.43-.49,2.86,2.86,0,0,0,1-.84,9.69,9.69,0,0,0,1-2L83,87.88h3L81.93,98.62a8.07,8.07,0,0,1-3.27,4.27,12.62,12.62,0,0,1-6.1,1.21H70.08c-1.5,0-4.18-.1-5.29-1.27s-.57-3.14-.07-4.45l4-10.5Zm32.27,9a4.28,4.28,0,0,0,2.75-2.69l.89-2.32c.39-1,.64-2.37-.38-3.13s-3.43-.84-4.68-.84H90.08l-6.14,16h3l2.29-6h7c.49,0,1.89,0,2.24.46s-.06,1.48-.21,1.88l-1.39,3.64H100l1.5-3.92a3.31,3.31,0,0,0,.21-2.41,1.71,1.71,0,0,0-.73-.73Zm2.7,7.06,6.13-16h3l-6.14,16Zm15.5-13.72h12.15l.89-2.32H117.1l-6.13,16h15.15l.88-2.3H114.85l1.84-4.84H128.5l.86-2.25h-11.8l1.65-4.33ZM153.41,98l-2.28,6h-3l6.14-16h8.89c1.24,0,3.64.05,4.68.84s.77,2.1.37,3.13l-.88,2.32a5.22,5.22,0,0,1-2.53,3,13.1,13.1,0,0,1-5.23.81Zm13.23,6h3l6.14-16h-3l-6.14,16Zm11.14-3a.65.65,0,0,0,.37.62,4.29,4.29,0,0,0,1.29.26c1.35.12,2.85.09,4.21.09a16.69,16.69,0,0,0,2.73-.17,4.14,4.14,0,0,0,1.52-.51,1.7,1.7,0,0,0,.54-.59,7.42,7.42,0,0,0,.61-1.27c.1-.27.57-1.57.39-1.84s-1.07-.35-1.36-.37l-6.2-.37c-1.11-.07-3-.26-3.77-1.18s-.37-2.38,0-3.37a8.11,8.11,0,0,1,1.24-2.25,5.62,5.62,0,0,1,1.78-1.43,6.27,6.27,0,0,1,2.07-.62,29,29,0,0,1,4.07-.18H188a26,26,0,0,1,4.42.23,4.45,4.45,0,0,1,2,.86,1.74,1.74,0,0,1,.6,1.31,5.05,5.05,0,0,1-.39,1.84l-.19.48-.14.3-.09.19h-3l.33-.85a5.06,5.06,0,0,0,.34-1.21.53.53,0,0,0-.07-.39,2.53,2.53,0,0,0-1.15-.34,34.46,34.46,0,0,0-4.07-.13,11.57,11.57,0,0,0-4,.5,3.56,3.56,0,0,0-1.48,2c-.12.32-.42,1.18-.2,1.5s1.21.42,1.56.44l6.31.41c1,.06,2.71.27,3.41,1.17s.31,2.32-.05,3.28a10.35,10.35,0,0,1-1.18,2.35,5.29,5.29,0,0,1-1.44,1.35,7,7,0,0,1-2.47.92,28,28,0,0,1-4.76.26h-1a22.27,22.27,0,0,1-4-.22,3.77,3.77,0,0,1-1.84-.83,2.15,2.15,0,0,1-.75-1.58,6,6,0,0,1,.48-2.29l.37-1h3l-.29.75a6,6,0,0,0-.47,1.89ZM206.05,90.2l-5.24,13.72h-3L203,90.2H196.5l.88-2.32h16.13l-.88,2.32Zm6.22,3-2,5.21c-.51,1.33-1,3.32.14,4.47s4,1.25,5.58,1.25h2.6a13.79,13.79,0,0,0,6.38-1.2,7.88,7.88,0,0,0,3.36-4.28l2-5.2c.51-1.32,1.06-3.34-.11-4.48s-4.07-1.25-5.61-1.25H222a13.86,13.86,0,0,0-6.39,1.21,7.92,7.92,0,0,0-3.35,4.27ZM245.63,101l5-13.12h3l-6.13,16h-4L237.9,90.77l-5,13.15h-3l6.13-16h4L245.63,101Zm26.85-2.77h3l-.29.75a5.71,5.71,0,0,0-.47,1.89.65.65,0,0,0,.37.62,4.29,4.29,0,0,0,1.29.26c1.35.12,2.85.09,4.2.09a16.74,16.74,0,0,0,2.74-.17,4.14,4.14,0,0,0,1.52-.51,1.7,1.7,0,0,0,.54-.59A7.42,7.42,0,0,0,286,99.3c.1-.27.57-1.57.39-1.84s-1.07-.35-1.36-.37l-6.2-.37c-1.11-.07-3-.26-3.77-1.18s-.37-2.38,0-3.37a8.11,8.11,0,0,1,1.24-2.25,5.62,5.62,0,0,1,1.78-1.43,6.2,6.2,0,0,1,2.07-.62,29,29,0,0,1,4.06-.18H285a26,26,0,0,1,4.42.23,4.45,4.45,0,0,1,2,.86,1.74,1.74,0,0,1,.6,1.31,5.05,5.05,0,0,1-.39,1.84l-.19.48-.14.3-.09.19h-3l.33-.85a5.06,5.06,0,0,0,.34-1.21.59.59,0,0,0-.07-.39,2.53,2.53,0,0,0-1.15-.34,34.46,34.46,0,0,0-4.07-.13,11.57,11.57,0,0,0-4,.5,3.56,3.56,0,0,0-1.48,2c-.12.32-.42,1.18-.2,1.5s1.21.42,1.56.44l6.31.41c1.05.06,2.71.27,3.41,1.17s.31,2.32-.06,3.28a9.92,9.92,0,0,1-1.17,2.35,5.29,5.29,0,0,1-1.44,1.35,7,7,0,0,1-2.47.92,28,28,0,0,1-4.76.26h-1a22.27,22.27,0,0,1-4-.22,3.73,3.73,0,0,1-1.84-.83,2.15,2.15,0,0,1-.75-1.58,6,6,0,0,1,.48-2.29l.37-1ZM296.3,98h6.15a13,13,0,0,0,5.23-.81,5.15,5.15,0,0,0,2.53-3l.89-2.32c.4-1,.64-2.37-.37-3.13s-3.44-.84-4.68-.84h-8.9l-6.13,16h3l2.28-6ZM313,93.17a7.87,7.87,0,0,1,3.35-4.27,13.81,13.81,0,0,1,6.39-1.21h2.59c1.55,0,4.43.09,5.61,1.25s.62,3.16.12,4.48l-2,5.2a7.86,7.86,0,0,1-3.35,4.28,13.83,13.83,0,0,1-6.39,1.2h-2.59c-1.55,0-4.39-.09-5.58-1.25s-.66-3.14-.15-4.47l2-5.21Zm34.66,3.69a4.28,4.28,0,0,0,2.75-2.69l.89-2.32c.39-1,.64-2.37-.38-3.13s-3.43-.84-4.68-.84h-9.51l-6.14,16h3l2.29-6h7.05c.49,0,1.89,0,2.24.46s-.06,1.48-.21,1.88l-1.39,3.64h3.11l1.5-3.92a3.31,3.31,0,0,0,.21-2.41,1.71,1.71,0,0,0-.73-.73Zm14.2-6.66-5.24,13.72h-3l5.25-13.72h-6.54l.88-2.32h16.13l-.88,2.32Zm36,9.79H388l-3.42,3.93h-3.26l14.06-16h4.21l1.84,16h-3L397.9,100Zm9.75.38a.88.88,0,0,0,.27.69,2,2,0,0,0,1,.44,14,14,0,0,0,2.51.14h2.16a16.88,16.88,0,0,0,2.66-.14,4.89,4.89,0,0,0,1.42-.49,2.86,2.86,0,0,0,1-.84,9.21,9.21,0,0,0,1-2l3.94-10.29h3l-4.11,10.74a8.07,8.07,0,0,1-3.27,4.27,12.67,12.67,0,0,1-6.1,1.21h-2.49c-1.5,0-4.18-.1-5.29-1.27s-.56-3.14-.06-4.45l4-10.5h3l-4,10.54a7.9,7.9,0,0,0-.56,2ZM436.42,90.2l-5.25,13.72h-3L433.4,90.2h-6.54l.89-2.32h16.13L443,90.2Zm6.22,3-2,5.21c-.51,1.33-1,3.32.15,4.47s4,1.25,5.58,1.25H449a13.83,13.83,0,0,0,6.39-1.2,7.92,7.92,0,0,0,3.36-4.28l2-5.2c.5-1.32,1.05-3.34-.12-4.48s-4.06-1.25-5.6-1.25h-2.6A13.81,13.81,0,0,0,446,88.9a7.87,7.87,0,0,0-3.35,4.27Zm-350.45-3h6.32c.58,0,2.53,0,3,.39s.13,1,0,1.31l-.68,1.8a2.67,2.67,0,0,1-1.27,1.51,9.48,9.48,0,0,1-3.4.44H90.1l2.09-5.45Zm64.19,0-2.09,5.45h5.87a8.54,8.54,0,0,0,3-.39,2.34,2.34,0,0,0,1.13-1.34l.86-2.25c.11-.29.31-.89,0-1.13a7.35,7.35,0,0,0-2.66-.34ZM223.32,90h-1.27a18.54,18.54,0,0,0-3.07.17,6.09,6.09,0,0,0-1.67.56,3.28,3.28,0,0,0-1.14,1,10,10,0,0,0-1.08,2.2l-1.66,4.35a7.75,7.75,0,0,0-.59,2.14.89.89,0,0,0,.33.78,2.6,2.6,0,0,0,1.16.52,16,16,0,0,0,2.93.16h1.27a18.6,18.6,0,0,0,3.08-.17,6,6,0,0,0,1.7-.55,3.15,3.15,0,0,0,1.1-.92,10,10,0,0,0,1.07-2.2l1.67-4.38a7.9,7.9,0,0,0,.6-2.16,1,1,0,0,0-.32-.79,2.74,2.74,0,0,0-1.16-.5,16.12,16.12,0,0,0-3-.16Zm75.95.22h6.13a7.35,7.35,0,0,1,2.66.34c.31.24.11.84,0,1.13l-.86,2.25a2.34,2.34,0,0,1-1.13,1.34,8.54,8.54,0,0,1-3,.39h-5.87l2.09-5.45ZM324.05,90h-1.27a18.48,18.48,0,0,0-3.07.17,6.15,6.15,0,0,0-1.68.56,3.37,3.37,0,0,0-1.14,1,10,10,0,0,0-1.07,2.2l-1.67,4.35a7.75,7.75,0,0,0-.59,2.14.94.94,0,0,0,.33.78,2.64,2.64,0,0,0,1.17.52,15.86,15.86,0,0,0,2.93.16h1.26a18.78,18.78,0,0,0,3.09-.17,6,6,0,0,0,1.69-.55,3.28,3.28,0,0,0,1.11-.92A9.92,9.92,0,0,0,326.2,98l1.68-4.38a8.27,8.27,0,0,0,.6-2.16,1,1,0,0,0-.33-.79,2.74,2.74,0,0,0-1.16-.5,16.06,16.06,0,0,0-2.94-.16Zm14.79.22h6.32c.58,0,2.53,0,3,.39s.13,1,0,1.31l-.68,1.8a2.67,2.67,0,0,1-1.27,1.51,9.48,9.48,0,0,1-3.4.44h-6.05l2.08-5.45Zm51.08,7.58h7.75l-.85-7.58h-.27l-6.63,7.58ZM453.69,90h-1.27a18.48,18.48,0,0,0-3.07.17,6.15,6.15,0,0,0-1.68.56,3.37,3.37,0,0,0-1.14,1,10,10,0,0,0-1.07,2.2l-1.67,4.35a8.11,8.11,0,0,0-.59,2.14.94.94,0,0,0,.33.78,2.69,2.69,0,0,0,1.17.52,15.86,15.86,0,0,0,2.93.16h1.26a18.78,18.78,0,0,0,3.09-.17,6,6,0,0,0,1.69-.55,3.28,3.28,0,0,0,1.11-.92,9.92,9.92,0,0,0,1.06-2.2l1.68-4.38a8.27,8.27,0,0,0,.6-2.16,1,1,0,0,0-.33-.79,2.68,2.68,0,0,0-1.16-.5A16.06,16.06,0,0,0,453.69,90Z"/><polygon class="cls-3" points="57.86 0 159.25 0 152.67 18.11 51.28 18.11 57.86 0"/><polygon class="cls-3" points="36.93 50.64 74.32 50.64 71.9 57.32 34.51 57.32 36.93 50.64"/><polygon class="cls-3" points="49.99 20.69 87.38 20.69 84.95 27.37 47.56 27.37 49.99 20.69"/><polygon class="cls-3" points="149.9 50.64 187.29 50.64 184.87 57.32 147.48 57.32 149.9 50.64"/><polygon class="cls-3" points="162.96 20.69 200.34 20.69 197.92 27.37 160.53 27.37 162.96 20.69"/><polygon class="cls-3" points="330.35 50.64 367.74 50.64 365.31 57.32 327.92 57.32 330.35 50.64"/><polygon class="cls-3" points="278.46 20.69 315.85 20.69 313.43 27.37 276.04 27.37 278.46 20.69"/><polygon class="cls-3" points="380.56 50.64 417.95 50.64 415.53 57.32 378.14 57.32 380.56 50.64"/><polygon class="cls-3" points="393.62 20.69 431.01 20.69 428.58 27.37 391.19 27.37 393.62 20.69"/><polygon class="cls-3" points="446 50.64 483.39 50.64 480.96 57.32 443.58 57.32 446 50.64"/><polygon class="cls-3" points="459.06 20.69 496.44 20.69 494.02 27.37 456.63 27.37 459.06 20.69"/><polygon class="cls-3" points="227.51 20.69 264.9 20.69 262.48 27.37 225.09 27.37 227.51 20.69"/><polygon class="cls-3" points="45.43 29.95 139.04 29.95 132.46 48.06 38.85 48.06 45.43 29.95"/><polygon class="cls-3" points="33 59.9 134.39 59.9 127.81 78.01 26.42 78.01 33 59.9"/><path class="cls-3" d="M172.26,0h90c6.28,0,9.55,5.14,7.27,11.43l-2.43,6.68H165.68Z"/><path class="cls-3" d="M298.55,0h90l-6.58,18.11H280.54L283,11.43C285.25,5.14,292.27,0,298.55,0Z"/><path class="cls-3" d="M413.18,0h78.54C498,0,501.28,5.14,499,11.43l-2.42,6.68H395.18l2.42-6.68C399.89,5.14,406.9,0,413.18,0Z"/><path class="cls-3" d="M159.83,30H261.22l-2.42,6.68c-2.29,6.28-9.3,11.43-15.58,11.43h-90Z"/><path class="cls-3" d="M274.69,30h90c6.28,0,9.55,5.14,7.27,11.43l-2.43,6.68h-90c-6.28,0-9.56-5.15-7.27-11.43Z"/><polygon class="cls-3" points="389.32 29.95 490.72 29.95 484.14 48.06 382.75 48.06 389.32 29.95"/><polygon class="cls-3" points="147.4 59.9 182.43 59.9 175.85 78.01 140.82 78.01 147.4 59.9"/><path class="cls-3" d="M262.26,59.9H363.65l-2.42,6.68C358.94,72.87,351.93,78,345.65,78h-90Z"/><polygon class="cls-3" points="377.35 59.9 412.38 59.9 405.8 78.01 370.76 78.01 377.35 59.9"/><polygon class="cls-3" points="443.25 59.9 478.28 59.9 471.7 78.01 436.67 78.01 443.25 59.9"/></g></g></svg>