<svg xmlns="http://www.w3.org/2000/svg" viewBox="0 0 77.09 100.67"><defs><style>.cls-1{fill:#000003;fill-rule:evenodd;}</style></defs><title>logo_optimus</title><g id="Calque_2" data-name="Calque 2"><g id="Plan_1" data-name="Plan 1"><path class="cls-1" d="M62,86.47,58.18,98H54.61l.38-1a2.72,2.72,0,0,1-1.19.88,5.88,5.88,0,0,1-2.54,0c-.6-.16-.62-1.23-.52-1.7a18.92,18.92,0,0,1,.59-2l2.54-7.79h3.51l-2.57,7.85a9.36,9.36,0,0,0-.44,1.6c0,.17.12.26.37.26a.59.59,0,0,0,.55-.27,13.22,13.22,0,0,0,.62-1.67l2.54-7.77Z"/><path class="cls-1" d="M44.06,86.47l-.41,1.1a4,4,0,0,1,1.3-1c.68-.3,2.74-.51,3.17,1a3.25,3.25,0,0,1,1.32-1,4,4,0,0,1,2.68.1,1,1,0,0,1,.4,1.07,9.73,9.73,0,0,1-.5,2L49.34,98h-3.4l2.46-7.52a10.44,10.44,0,0,0,.49-1.83c0-.24-.1-.35-.35-.35a.66.66,0,0,0-.59.34,10.33,10.33,0,0,0-.71,1.84L44.78,98h-3.4l2.39-7.33a15.45,15.45,0,0,0,.59-2c0-.22-.1-.33-.35-.33a.71.71,0,0,0-.46.17,1.07,1.07,0,0,0-.32.44c-.07.17-.2.53-.38,1.09l-2.61,8h-3.4l3.77-11.54Z"/><polygon class="cls-1" points="39.78 86.47 36.01 98.01 32.4 98.01 36.17 86.47 39.78 86.47"/><polygon class="cls-1" points="40.62 83.92 40.02 85.76 36.4 85.76 37 83.92 40.62 83.92"/><path class="cls-1" d="M35.69,83.92l-1,2.84h1L35,88.59H34l-2,6.17a3.45,3.45,0,0,0-.3,1.27c.05.08.37.13,1,.13L32.08,98H30.66c-1.09,0-1.86.23-2.44-.56a1.19,1.19,0,0,1-.22-.83,18.37,18.37,0,0,1,.62-2.18l1.91-5.85h-.74l.6-1.83h.74l1.06-2.84Z"/><path class="cls-1" d="M25.68,89.83a6.41,6.41,0,0,0,.35-1.3c0-.15-.13-.22-.37-.22a.59.59,0,0,0-.53.26,5.35,5.35,0,0,0-.52,1.26l-1.56,4.78a5.06,5.06,0,0,0-.32,1.3c0,.18.14.27.37.27a.56.56,0,0,0,.5-.24,5.87,5.87,0,0,0,.46-1.16l1.62-5Zm-4.5,10.51h0l-3.64.33,4.66-14.2h3.57l-.39,1a4.39,4.39,0,0,1,1.34-.93c.59-.2,2.16-.29,2.6.14a1.2,1.2,0,0,1,.41,1,9.19,9.19,0,0,1-.49,2l-1.59,4.87a11.74,11.74,0,0,1-.91,2.24A3.06,3.06,0,0,1,23,97.92a1.61,1.61,0,0,1-.72-.91l-1.12,3.34Zm38.73-2.57a2.16,2.16,0,0,1-.4-1.09,4.91,4.91,0,0,1,.35-2.16L60,94h3.11l-.23.73a4,4,0,0,0-.28,1.2c0,.18.14.28.37.28a.86.86,0,0,0,.58-.19A1.93,1.93,0,0,0,64,95.2c.18-.55.23-.89.15-1a10.21,10.21,0,0,0-1.64-1.24c-.84-.58-1.3-1.1-1.37-1.58a3.75,3.75,0,0,1,.21-1.68,5.81,5.81,0,0,1,1-2,3.7,3.7,0,0,1,1.57-1,6.4,6.4,0,0,1,2.14-.35,5,5,0,0,1,1.85.29,1.91,1.91,0,0,1,1,.77,1.49,1.49,0,0,1,.23.89,7.25,7.25,0,0,1-.33,1.28l-.22.67h-3.1l.21-.63a3.86,3.86,0,0,0,.24-1q0-.21-.39-.21c-.47,0-.72.37-.85.78a3.1,3.1,0,0,0-.18.78.77.77,0,0,0,.27.54,5.58,5.58,0,0,0,1.22.86,3.4,3.4,0,0,1,1.54,1.41,2.89,2.89,0,0,1-.15,1.92,7.27,7.27,0,0,1-.81,1.8c-1.84,2.77-3.05,2.25-4.07,2.2S61,99.19,59.91,97.77Z"/><path class="cls-1" d="M13.44,99.29H9.5c-.43,0-.67-.37-.51-.83l4.59-13.9a1.24,1.24,0,0,1,1.06-.83h7.17c.43,0,.66.38.51.83l-4.6,13.9a2,2,0,0,1-.49.64,25.7,25.7,0,0,1-3.79.19ZM17.51,87.1h0a5,5,0,0,0,.33-1.33c0-.19-.12-.29-.33-.29a.7.7,0,0,0-.51.24,4.71,4.71,0,0,0-.6,1.38l-2.74,8.28A8.68,8.68,0,0,0,13.22,97c0,.2.12.3.35.3a.65.65,0,0,0,.58-.34,9.55,9.55,0,0,0,.65-1.66Z"/><path class="cls-1" d="M66.1,35.87l-.81-2,1.36.17,1,.48,1.15,1.73.51,1.88-1,1.92-1.21-.36-.85-.7-.9-2.12-1.63,2.63-2.54-1.28-.8-3.06L62,34.57l1.57-.24,2.56,1.54ZM26.78,50.24l7.66-6.17.62-.55.58-.33L35.9,43l.17-.13,0,0,.51-.46.39-.28.66-.44.54-.34.2-.19.41-.45.8-.62.46-.41.52-.38.56-.33.47-.4,1.52-1.16.52-.38.79-.53.25-.2L46,35.34l.34-.46.66-.45.3-.35,1-1,1.12-.41,0-.48h.19l.4-.28.57-.25-.28-.8-.92-.11-.86-.1-.67-.33-2-.32-2.11-.25,0-.21-.25,0L42,29.38l-.74-.1-.64-.14,0-.74.67-.82.38-.94-.05-.37H42l.77-1.45.12-.26.46-.87,1-1.64.1-.2.25-.79.46-.87.2-.46.1-.2.07-.1.16-.14,0-.37h-.38l-.7.07-2.22.18-2.21.13-.82.16-2.58.23-10,.9-.27.18-1,.66-.49.33-.55.31-1.15.87-6.32,4.4L14.58,29.1,9.51,32.61l-5.06,3.5,1.72-.35.17-.12.23-.08L7,35.45l.88-.24L8.83,35l.79-.29,1.77-.46,1.77-.53L15.78,33l.49-.1.05,0,.05,0,.25-.11,3.49-1,.13.05-.77,1.79-2.24,5-2.57,5.49-1.42,3-1.13,2.5-.6,1.25-1.19,2.42L10,54.1l-.19.4-.11.43-.61,1.12-.54,1.18-.31.56L8,58.36,6.34,61.85l-4.1,8.57L26.78,50.24Zm-.2,7.31.77-.43.3.68.28.62.2.88.06.1.19.67.08.6.34.32.25,1.46.29,1.88-.36.19-.48.38-.77.58-.9.79-.71.55-1.22.93-2.14,1.78-.46.35-.87.81-.28.18-.74.6-.93.76L18.35,73l0,0-.32.27-.93.77-.52.37-1,.7-.91.66-.05,0,0,0-.12.09-.71.82-1.89,1.31L12,77.4l1.24-1.64.2-.31,1.47-2.08.49-.47,1.24-1.65L18.35,69l.39-.67.92-1.2,1.23-1.65,1.21-1.68,1-1.17.57-.84.34-.62,2.6-3.58Zm42.49-9.9.19.19,1.71.9.44.28.58.3,1.22.57.73.39.25.11.47.28.31.12,1,.47,1.12.48L76.35,51l-.27-.47-.16-.2-.25-.19-.37-.38-.41-.32-.81-.74-.28-.49-1.29-1-1.66-1.43-1.78,1.9ZM56.4,14.21l.74.12.06,0,.77.22.06,0,.23.09,2.51.24,3,.05.07-.18-.64-1.13-.59-1.11,0-.1,0-.05-.19-.34-.4-.63L60.48,8.9l-.32-.63L60,8,59,6.43,58,4.76l-.34-.47-.32.93-.18,1.26-1,7.67.17.06ZM40.89,22.86,38.61,24.8l-.75.66.23.16,2.25.44.66.24.17.2-.34.25-.45.09v.1l-1.8.58-2.65.84-.8.31L33.34,29l-.71-3.46v-.38l3.56-1.76,1.9-.75h2.74l.07.2Zm17.63,27.5L57,46.92l-.7-1.07-.78-1-.24-.44-.55-.7L54.16,43l-.52-.72-.26-.4-.3-.37-1.31-1.88-1.94-2.74-.34-.44-.21.06-1.1.79-.62.49-2.91,2.2L41,42.69l-1.93,1.62,0,7.19.27,3.36.14.1.73,1.1,6.67,8.32,2.18,2.82.36.2-1.61-7-.3-1.09-.12-.64-.12-.62.26,0,1.62.75,5,2.32.78.39,5.7,2.72,2,.9,2,.9.89.37-.37-.86-.66-1.48-.34-.83-.8-2L61.44,57l-.18-.4-1.33-3-.36-1L58.81,51l-.29-.61ZM13.22,11.52l2.85.78,1.24.29,1.14.33,2.35.62,1-.32,1.07-.92.9-.8.46-.34.66-.66.31-.34-3,.25-9.81.78.86.33ZM55.11,10.3l-.61,1.11-1.67,2.93-.16.43-.15.2L51,15.35l-6.93,1.11-.49.09-.23.06-.24.13L42,16.8l-.91.22-6.35,1.05-1.84.3-9.13,1.52-3.6.6-5.54.87-.89.14-.41.07-.44.14-1.41.19-.17,0-.06,0,2.48-1.2.92-.54,1.07-.59,1.94-.91L20.85,17,25.8,14.5l6-3,.17-.38-1.2-.88-.58-.45L27.1,7.53,23.43,4.77l-1.21-1,7.9,1.5,1.16.23,9.09,1.7.85-1.79.27-.34.16-.35,1-1.9L43.94.29,44.08,0,45,.8,46.47,2l3.78,3.64.49.47,0,0,3.6,3.19.79.77-.06.22ZM64,52.78l-4.1-6,4.24.51,1.57.13.22.1.33,0,.32.42,1,2.37,1.49,3.6L70,56.38l.58,1.19.2.61.5,1.2.12.33.42.82.64,1.57.42,1,0,0,.16.47.28.76.46,1,.59,2-1.19-1.56-.6-.8L72,64.29,71.22,63,71,62.68l-.72-1-.39-.49-.7-1.07L67.69,58,67,57l-.7-1-1.12-1.58-.56-.77L64,52.78Zm8.7,28.39-4.24-3.81L68.05,77,65.7,74.92l-.77-.71-.78-.71L62.6,72.1,60.22,70l-6.49-5.73-.44-.48-.46-.51,4.09,1.56,0,.05.05,0,.15.09,3.24,1.27,1.12.46.78.3,1.63.6,2.31.94,1.59.6.13.11,1.07.87.33.77.47,1.14.47,1.24.14.38L70.89,75l.33.78.32.8.17.33.21.39.17.95.34.77.11.39.66,2.14-.52-.34ZM35.18,69.56,34.6,68.1l-.08-.33-1.59-4.54-1.55-4.52L30.1,55l0-2.22,1.67-2.33,2.57-3.49.89-1.12.18-.31.26-.21L36.2,48l.49,2.91.44,2.89.82,5,.37.5.15.17.2.13,1.62,1.88L42,63.24l1.32,1.62,2.27,2.46.68.88.65.76,1.31,1.53L52.1,74.9l.34.41,1,1,2.58,3,1.31,1.51,1.22,1.53-2.86-1.51L48.56,77l-.72-.38-3.47-1.93-5.63-3.1-2.85-1.5-.62-.4-.09-.09Zm0-.11Zm.06,0h0Zm0,0h0Zm0,0Zm0,0h0Zm0,0h0Zm0,0h0Zm0,0h0Zm0,0h0Zm0,0h0Zm0,0h0Zm0,0h0Zm0,0h0Zm0,0h0Zm-.16.15v0Zm0,0v0Zm0,0v0ZM7.5,43.68l.32-.41.32-.5.43-.38.37-.51.83-.94,0,0,.24-.43,2.66-3.26.35-.47.45-.38v.54l-.09.21-.26,2.14-.09.16L11.88,44.1l-.08.74-.29.8-.48.48-.31.18-.55.29-1,.68-.6.31-.71.54-.49.4-.85.42-.8.59,0,0-.85.64-.71.54-1,.69-.53.35-.51.31-.5.38L0,53.41l.14-.29.54-.71.71-.91,1.87-2.43,1.06-1.39.4-.6L6,45.7l.22-.23L7.3,44l.2-.34ZM58.36,18.5l-2.18-1.35-2.61.42-3.76.73,2.55.72,1,1.11,2.86-.05.68,2.74,1.79-2.62,4.82-2.63,6.25,3.57,1.25.75L71,23.53v.38l-.07,0-1.2.22-.82,3-1.78-2.62-1.09.17L64.33,26,59.05,30l-.45.39-.54.42,1.71,9.07.43,2.24.3.6.71.47.64.47,1.53.4,1.21-2.53,1.15,2.09,3.81-.06.89-1.83,1.63,1.93-1.48-7.77,2.72-4.32L75.65,28l-1.27-3.66-.89,2.89-.29-1.75-1.08-1.16V22.67l.11-.65,2.16-1.58-1-1.54-.59-2.27-6-.61-3.67.8Z"/></g></g></svg>