<?xml version="1.0" encoding="utf-8" ?><!DOCTYPE svg PUBLIC "-//W3C//DTD SVG 1.1//EN" "http://www.w3.org/Graphics/SVG/1.1/DTD/svg11.dtd" 
[ <!ATTLIST svg 
  xmlns:dsy CDATA #FIXED "http://www.3ds.com/print"  
    dsy:text-version CDATA #IMPLIED > 

  <!ATTLIST text 
  xmlns:dsy CDATA #FIXED "http://www.3ds.com/print" 
    dsy:text-version CDATA #IMPLIED > 
]><svg xmlns="http://www.w3.org/2000/svg" xmlns:dsy="http://www.3ds.com/print" dsy:text-version="18000" width="594" height="420" viewBox="0 0 594 420" version="1.1"><g stroke="rgb(0, 0, 0)" stroke-width="0.13" stroke-linecap="butt" stroke-linejoin="miter" fill="none"><path d="M 70.3055 273.796 L 70.3055 302.508"/><path d="M 523.695 273.796 L 523.695 302.508"/></g><g stroke="rgb(0, 0, 0)" stroke-width="0.35" stroke-linecap="butt" stroke-linejoin="miter" fill="none"><circle cx="360.583" cy="158.695" r="2.5"/><path d="M 414.409 148.204 L 179.591 148.204"/><path d="M 179.591 148.204 A 100 100 0 0 0 150.154 152.635"/><path d="M 150.154 152.635 A 15 15 0 0 0 139.579 167.499"/><path d="M 118.313 188.163 A 20 20 0 0 0 139.579 167.499"/><path d="M 118.313 188.163 A 30 30 0 0 0 89.31 205.2"/><path d="M 89.31 205.2 A 100 100 0 0 0 82.7254 223.364"/><path d="M 82.7255 223.364 L 70.3055 271.796"/><path d="M 70.3055 271.796 L 523.695 271.796"/><path d="M 511.275 223.364 L 523.695 271.796"/><path d="M 511.275 223.364 A 100 100 0 0 0 504.69 205.201"/><path d="M 504.69 205.201 A 30 30 0 0 0 475.688 188.163"/><path d="M 454.421 167.499 A 20 20 0 0 0 475.688 188.163"/><path d="M 454.421 167.499 A 15 15 0 0 0 443.846 152.635"/><path d="M 443.846 152.635 A 100 100 0 0 0 414.409 148.204"/><circle cx="312.599" cy="174.404" r="1.5"/><circle cx="258.599" cy="174.404" r="1.5"/><circle cx="258.599" cy="208.404" r="1.5"/><circle cx="156.075" cy="164.296" r="1.5"/><path d="M 309.499 208.104 L 309.499 175.204"/><path d="M 309.499 208.104 L 286.999 208.104"/><path d="M 286.999 175.204 L 286.999 208.104"/><path d="M 286.999 175.204 L 309.499 175.204"/><path d="M 114.52 241.495 A 6.35001 6.35001 0 1 0 116.09 241.495"/><path d="M 114.52 242.46 L 114.52 241.495"/><path d="M 114.52 242.46 L 116.09 242.46"/><path d="M 116.09 241.495 L 116.09 242.46"/><circle cx="145.306" cy="247.796" r="9.60001"/><circle cx="175.306" cy="247.796" r="9.60001"/><path d="M 174.655 212.479 A 6.35001 6.35001 0 1 0 175.955 212.479"/><path d="M 174.655 214.046 L 174.655 212.479"/><path d="M 174.655 214.046 L 175.955 214.046"/><path d="M 175.955 212.479 L 175.955 214.046"/><circle cx="145.306" cy="218.796" r="9.60001"/><path d="M 422.844 175.841 A 8 8 0 1 0 424.544 175.841"/><path d="M 422.845 176.796 L 422.845 175.841"/><path d="M 422.845 176.796 L 424.544 176.796"/><path d="M 424.544 175.841 L 424.544 176.796"/><path d="M 417.644 232.129 A 6.35001 6.35001 0 1 0 418.944 232.129"/><path d="M 417.644 233.696 L 417.644 232.129"/><path d="M 417.644 233.696 L 418.944 233.696"/><path d="M 418.944 232.129 L 418.944 233.696"/><path d="M 440.344 232.129 A 6.35001 6.35001 0 1 0 441.644 232.129"/><path d="M 440.344 233.696 L 440.344 232.129"/><path d="M 440.344 233.696 L 441.644 233.696"/><path d="M 441.644 232.129 L 441.644 233.696"/><path d="M 463.044 232.129 A 6.35001 6.35001 0 1 0 464.344 232.129"/><path d="M 463.044 233.696 L 463.044 232.129"/><path d="M 463.044 233.696 L 464.344 233.696"/><path d="M 464.344 232.129 L 464.344 233.696"/><circle cx="115.306" cy="219.197" r="9.60001"/><path d="M 190.225 191.796 L 190.225 172.796"/><path d="M 190.225 191.796 L 152.725 191.796"/><path d="M 152.725 172.796 L 152.725 191.796"/><path d="M 152.725 172.796 L 190.225 172.796"/><circle cx="223.075" cy="164.296" r="1.5"/><circle cx="156.075" cy="200.296" r="1.5"/><circle cx="223.075" cy="200.296" r="1.5"/></g><g stroke="rgb(0, 0, 0)" stroke-width="0.13" stroke-linecap="butt" stroke-linejoin="miter" fill="none"><path d="M 271.361 219.431 L 271.361 218.972 L 267.835 218.972 L 267.835 219.315 L 268.143 219.406 L 268.35 219.587 L 268.471 219.865 L 268.511 220.248 L 268.869 220.248 L 268.869 219.431 L 271.361 219.431 L 271.361 219.431 z M 271.361 216.835 L 271.361 214.429 L 270.927 214.429 L 270.927 216.33 L 270.69 216.224 L 270.493 216.043 L 270.135 215.483 L 269.984 215.185 L 269.767 214.853 L 269.515 214.616 L 269.217 214.479 L 268.879 214.429 L 268.456 214.515 L 268.123 214.752 L 267.911 215.115 L 267.835 215.584 L 267.921 216.068 L 268.158 216.436 L 268.536 216.673 L 269.036 216.754 L 269.106 216.754 L 269.106 216.295 L 269.066 216.295 L 268.723 216.25 L 268.471 216.113 L 268.309 215.897 L 268.254 215.609 L 268.304 215.317 L 268.43 215.1 L 268.627 214.958 L 268.874 214.908 L 269.106 214.943 L 269.303 215.039 L 269.474 215.201 L 269.626 215.422 L 269.787 215.72 L 270.1 216.214 L 270.433 216.562 L 270.836 216.769 L 271.345 216.835 L 271.361 216.835 L 271.361 216.835 z M 270.261 213.139 L 270.296 213.139 L 270.781 213.058 L 271.144 212.821 L 271.376 212.448 L 271.461 211.954 L 271.376 211.429 L 271.154 211.036 L 270.801 210.784 L 270.347 210.693 L 270.049 210.733 L 269.807 210.844 L 269.621 211.026 L 269.484 211.268 L 269.212 210.94 L 268.778 210.824 L 268.385 210.9 L 268.087 211.117 L 267.901 211.47 L 267.835 211.954 L 267.916 212.408 L 268.138 212.756 L 268.491 212.983 L 268.96 213.058 L 268.995 213.058 L 268.995 212.609 L 268.672 212.569 L 268.44 212.438 L 268.299 212.226 L 268.249 211.929 L 268.289 211.666 L 268.395 211.475 L 268.567 211.359 L 268.799 211.313 L 269.046 211.359 L 269.212 211.48 L 269.313 211.691 L 269.343 211.979 L 269.338 212.176 L 269.737 212.176 L 269.727 211.929 L 269.772 211.611 L 269.893 211.374 L 270.09 211.233 L 270.347 211.182 L 270.639 211.238 L 270.856 211.384 L 270.992 211.616 L 271.038 211.923 L 270.987 212.241 L 270.836 212.473 L 270.594 212.619 L 270.261 212.675 L 270.261 213.139 L 270.261 213.139 z M 271.361 208.48 L 271.361 207.784 L 270.609 207.784 L 270.609 208.48 L 271.361 208.48 L 271.361 208.48 z M 270.448 205.647 L 270.861 205.536 L 271.184 205.289 L 271.386 204.925 L 271.461 204.461 L 271.371 203.952 L 271.123 203.554 L 270.73 203.302 L 270.226 203.206 L 269.757 203.291 L 269.389 203.534 L 269.152 203.912 L 269.066 204.401 L 269.126 204.779 L 269.293 205.072 L 268.35 204.93 L 268.35 203.397 L 267.936 203.397 L 267.936 205.268 L 269.792 205.546 L 269.792 205.142 L 269.555 204.85 L 269.469 204.477 L 269.525 204.154 L 269.686 203.907 L 269.933 203.75 L 270.251 203.695 L 270.569 203.75 L 270.816 203.912 L 270.972 204.159 L 271.028 204.477 L 270.992 204.744 L 270.876 204.951 L 270.695 205.102 L 270.448 205.178 L 270.448 205.647 L 270.448 205.647 z M 270.493 201.87 L 270.891 201.795 L 271.199 201.578 L 271.391 201.235 L 271.461 200.781 L 271.426 200.483 L 271.335 200.216 L 271.179 199.989 L 270.957 199.797 L 270.68 199.646 L 270.337 199.535 L 269.943 199.47 L 269.489 199.444 L 268.778 199.53 L 268.259 199.777 L 267.946 200.171 L 267.835 200.71 L 267.926 201.205 L 268.168 201.578 L 268.541 201.82 L 269.01 201.901 L 269.495 201.82 L 269.863 201.583 L 270.095 201.23 L 270.17 200.781 L 270.074 200.307 L 269.782 199.949 L 270.342 200.029 L 270.74 200.191 L 270.977 200.438 L 271.053 200.776 L 271.018 201.038 L 270.907 201.23 L 270.73 201.356 L 270.493 201.406 L 270.493 201.87 L 270.493 201.87 z M 269.005 201.411 L 268.693 201.361 L 268.446 201.22 L 268.289 200.998 L 268.234 200.71 L 268.289 200.413 L 268.446 200.186 L 268.688 200.045 L 269 199.989 L 269.318 200.045 L 269.555 200.186 L 269.701 200.418 L 269.752 200.725 L 269.701 201.003 L 269.555 201.22 L 269.323 201.361 L 269.005 201.411 L 269.005 201.411 z" stroke="none" fill-rule="evenodd" fill="rgb(0, 0, 0)"/><path d="M 273.878 150.136 L 273.361 148.204 L 272.843 150.136"/><path d="M 272.843 269.864 L 273.361 271.796 L 273.878 269.864"/><path d="M 273.361 271.796 L 273.361 148.204"/></g><g stroke="rgb(0, 0, 0)" stroke-width="0.13" stroke-linecap="butt" stroke-linejoin="miter" fill="none"><path d="M 287.937 298.508 L 288.391 298.508 L 288.391 297.641 L 288.89 297.641 L 288.89 297.237 L 288.391 297.237 L 288.391 295.084 L 287.932 295.084 L 286.399 297.197 L 286.399 297.641 L 287.937 297.641 L 287.937 298.508 L 287.937 298.508 z M 286.823 297.237 L 287.937 295.669 L 287.937 297.237 L 286.823 297.237 L 286.823 297.237 z M 290.145 297.595 L 290.256 298.009 L 290.503 298.332 L 290.866 298.533 L 291.33 298.609 L 291.84 298.518 L 292.238 298.271 L 292.49 297.878 L 292.586 297.373 L 292.5 296.904 L 292.258 296.536 L 291.88 296.299 L 291.391 296.213 L 291.013 296.274 L 290.72 296.44 L 290.861 295.497 L 292.395 295.497 L 292.395 295.084 L 290.523 295.084 L 290.246 296.94 L 290.65 296.94 L 290.942 296.703 L 291.315 296.617 L 291.638 296.672 L 291.885 296.834 L 292.041 297.081 L 292.097 297.399 L 292.041 297.716 L 291.88 297.963 L 291.633 298.12 L 291.315 298.175 L 291.048 298.14 L 290.841 298.024 L 290.69 297.842 L 290.614 297.595 L 290.145 297.595 L 290.145 297.595 z M 293.861 297.409 L 293.861 297.444 L 293.942 297.928 L 294.179 298.291 L 294.552 298.523 L 295.046 298.609 L 295.571 298.523 L 295.964 298.301 L 296.216 297.948 L 296.307 297.494 L 296.267 297.197 L 296.156 296.955 L 295.974 296.768 L 295.732 296.632 L 296.06 296.36 L 296.176 295.926 L 296.1 295.533 L 295.883 295.235 L 295.53 295.048 L 295.046 294.983 L 294.592 295.064 L 294.244 295.285 L 294.017 295.638 L 293.942 296.108 L 293.942 296.143 L 294.391 296.143 L 294.431 295.82 L 294.562 295.588 L 294.774 295.447 L 295.071 295.396 L 295.334 295.437 L 295.525 295.543 L 295.641 295.714 L 295.687 295.946 L 295.641 296.193 L 295.52 296.36 L 295.308 296.461 L 295.021 296.491 L 294.824 296.486 L 294.824 296.884 L 295.071 296.874 L 295.389 296.919 L 295.626 297.041 L 295.767 297.237 L 295.818 297.494 L 295.762 297.787 L 295.616 298.004 L 295.384 298.14 L 295.076 298.185 L 294.759 298.135 L 294.527 297.984 L 294.381 297.742 L 294.325 297.409 L 293.861 297.409 L 293.861 297.409 z M 298.52 298.508 L 299.216 298.508 L 299.216 297.757 L 298.52 297.757 L 298.52 298.508 L 298.52 298.508 z M 301.333 297.409 L 301.333 297.444 L 301.414 297.928 L 301.651 298.291 L 302.024 298.523 L 302.518 298.609 L 303.043 298.523 L 303.436 298.301 L 303.688 297.948 L 303.779 297.494 L 303.739 297.197 L 303.628 296.955 L 303.446 296.768 L 303.204 296.632 L 303.532 296.36 L 303.648 295.926 L 303.572 295.533 L 303.355 295.235 L 303.002 295.048 L 302.518 294.983 L 302.064 295.064 L 301.716 295.285 L 301.489 295.638 L 301.414 296.108 L 301.414 296.143 L 301.863 296.143 L 301.903 295.82 L 302.034 295.588 L 302.246 295.447 L 302.543 295.396 L 302.806 295.437 L 302.997 295.543 L 303.113 295.714 L 303.159 295.946 L 303.113 296.193 L 302.992 296.36 L 302.781 296.461 L 302.493 296.491 L 302.296 296.486 L 302.296 296.884 L 302.543 296.874 L 302.861 296.919 L 303.098 297.041 L 303.239 297.237 L 303.29 297.494 L 303.234 297.787 L 303.088 298.004 L 302.856 298.14 L 302.549 298.185 L 302.231 298.135 L 301.999 297.984 L 301.853 297.742 L 301.797 297.409 L 301.333 297.409 L 301.333 297.409 z M 305.13 297.641 L 305.205 298.039 L 305.422 298.347 L 305.765 298.538 L 306.219 298.609 L 306.517 298.574 L 306.784 298.483 L 307.011 298.327 L 307.202 298.105 L 307.354 297.827 L 307.465 297.484 L 307.53 297.091 L 307.555 296.637 L 307.47 295.926 L 307.223 295.407 L 306.829 295.094 L 306.29 294.983 L 305.795 295.074 L 305.422 295.316 L 305.18 295.689 L 305.099 296.158 L 305.18 296.642 L 305.417 297.01 L 305.77 297.242 L 306.219 297.318 L 306.693 297.222 L 307.051 296.93 L 306.97 297.489 L 306.809 297.888 L 306.562 298.125 L 306.224 298.2 L 305.962 298.165 L 305.77 298.054 L 305.644 297.878 L 305.594 297.641 L 305.13 297.641 L 305.13 297.641 z M 305.589 296.153 L 305.639 295.84 L 305.78 295.593 L 306.002 295.437 L 306.29 295.381 L 306.587 295.437 L 306.814 295.593 L 306.955 295.835 L 307.011 296.148 L 306.955 296.466 L 306.814 296.703 L 306.582 296.849 L 306.274 296.899 L 305.997 296.849 L 305.78 296.703 L 305.639 296.471 L 305.589 296.153 L 305.589 296.153 z" stroke="none" fill-rule="evenodd" fill="rgb(0, 0, 0)"/><path d="M 72.2374 299.99 L 70.3055 300.508 L 72.2374 301.026"/><path d="M 521.763 301.026 L 523.695 300.508 L 521.763 299.99"/><path d="M 70.3055 300.508 L 523.695 300.508"/></g></svg>