<?xml version="1.0" encoding="utf-8" ?><!DOCTYPE svg PUBLIC "-//W3C//DTD SVG 1.1//EN" "http://www.w3.org/Graphics/SVG/1.1/DTD/svg11.dtd" 
[ <!ATTLIST svg 
  xmlns:dsy CDATA #FIXED "http://www.3ds.com/print"  
    dsy:text-version CDATA #IMPLIED > 

  <!ATTLIST text 
  xmlns:dsy CDATA #FIXED "http://www.3ds.com/print" 
    dsy:text-version CDATA #IMPLIED > 
]><svg xmlns="http://www.w3.org/2000/svg" xmlns:dsy="http://www.3ds.com/print" dsy:text-version="18000" width="594" height="420" viewBox="0 0 594 420" version="1.1"><g stroke="rgb(0, 0, 0)" stroke-width="0.35" stroke-linecap="butt" stroke-linejoin="miter" fill="none"><circle cx="312.599" cy="174.404" r="1.5"/><path d="M 414.409 148.204 L 179.591 148.204"/><path d="M 179.591 148.204 A 100 100 0 0 0 150.154 152.635"/><path d="M 150.154 152.635 A 15 15 0 0 0 139.579 167.499"/><path d="M 118.313 188.163 A 20 20 0 0 0 139.579 167.499"/><path d="M 118.313 188.163 A 30 30 0 0 0 89.31 205.2"/><path d="M 89.31 205.2 A 100 100 0 0 0 82.7254 223.364"/><path d="M 82.7255 223.364 L 70.3055 271.796"/><path d="M 70.3055 271.796 L 523.695 271.796"/><path d="M 511.275 223.364 L 523.695 271.796"/><path d="M 511.275 223.364 A 100 100 0 0 0 504.69 205.201"/><path d="M 504.69 205.201 A 30 30 0 0 0 475.688 188.163"/><path d="M 454.421 167.499 A 20 20 0 0 0 475.688 188.163"/><path d="M 454.421 167.499 A 15 15 0 0 0 443.846 152.635"/><path d="M 443.846 152.635 A 100 100 0 0 0 414.409 148.204"/><circle cx="258.599" cy="174.404" r="1.5"/><circle cx="258.599" cy="208.404" r="1.5"/><circle cx="156.075" cy="164.296" r="1.5"/><path d="M 309.499 208.104 L 309.499 175.204"/><path d="M 309.499 208.104 L 286.999 208.104"/><path d="M 286.999 175.204 L 286.999 208.104"/><path d="M 286.999 175.204 L 309.499 175.204"/><path d="M 114.52 241.495 A 6.35001 6.35001 0 1 0 116.09 241.495"/><path d="M 114.52 242.46 L 114.52 241.495"/><path d="M 114.52 242.46 L 116.09 242.46"/><path d="M 116.09 241.495 L 116.09 242.46"/><circle cx="145.306" cy="247.796" r="9.60001"/><circle cx="175.306" cy="247.796" r="9.60001"/><path d="M 174.655 212.479 A 6.35001 6.35001 0 1 0 175.955 212.479"/><path d="M 174.655 214.046 L 174.655 212.479"/><path d="M 174.655 214.046 L 175.955 214.046"/><path d="M 175.955 212.479 L 175.955 214.046"/><circle cx="145.306" cy="218.796" r="9.60001"/><path d="M 422.844 175.841 A 8 8 0 1 0 424.544 175.841"/><path d="M 422.845 176.796 L 422.845 175.841"/><path d="M 422.845 176.796 L 424.544 176.796"/><path d="M 424.544 175.841 L 424.544 176.796"/><path d="M 417.644 232.129 A 6.35001 6.35001 0 1 0 418.944 232.129"/><path d="M 417.644 233.696 L 417.644 232.129"/><path d="M 417.644 233.696 L 418.944 233.696"/><path d="M 418.944 232.129 L 418.944 233.696"/><path d="M 440.344 232.129 A 6.35001 6.35001 0 1 0 441.644 232.129"/><path d="M 440.344 233.696 L 440.344 232.129"/><path d="M 440.344 233.696 L 441.644 233.696"/><path d="M 441.644 232.129 L 441.644 233.696"/><path d="M 463.044 232.129 A 6.35001 6.35001 0 1 0 464.344 232.129"/><path d="M 463.044 233.696 L 463.044 232.129"/><path d="M 463.044 233.696 L 464.344 233.696"/><path d="M 464.344 232.129 L 464.344 233.696"/><circle cx="115.306" cy="219.197" r="9.60001"/><path d="M 190.225 191.796 L 190.225 172.796"/><path d="M 190.225 191.796 L 152.725 191.796"/><path d="M 152.725 172.796 L 152.725 191.796"/><path d="M 152.725 172.796 L 190.225 172.796"/><circle cx="223.075" cy="164.296" r="1.5"/><circle cx="156.075" cy="200.296" r="1.5"/><circle cx="223.075" cy="200.296" r="1.5"/></g><g stroke="rgb(0, 0, 0)" stroke-width="0.13" stroke-linecap="butt" stroke-linejoin="miter" fill="none"><path d="M 299.396 280.148 L 298.518 283.128 L 297.615 280.148 L 297.136 280.148 L 298.266 283.653 L 298.77 283.653 L 299.875 280.148 L 299.396 280.148 L 299.396 280.148 z M 302.598 280.944 L 302.154 280.944 L 302.154 282.508 L 302.104 282.871 L 301.958 283.133 L 301.731 283.295 L 301.433 283.345 L 301.196 283.305 L 301.045 283.184 L 300.959 282.977 L 300.939 282.684 L 300.939 280.944 L 300.495 280.944 L 300.495 282.725 L 300.51 283.083 L 300.606 283.38 L 300.898 283.653 L 301.367 283.748 L 301.62 283.713 L 301.836 283.622 L 302.023 283.466 L 302.174 283.239 L 302.174 283.653 L 302.598 283.653 L 302.598 280.944 L 302.598 280.944 z M 303.934 282.427 L 305.71 282.427 L 305.715 282.22 L 305.634 281.64 L 305.412 281.207 L 305.059 280.944 L 304.59 280.849 L 304.131 280.949 L 303.778 281.232 L 303.551 281.691 L 303.47 282.296 L 303.546 282.916 L 303.773 283.37 L 304.121 283.653 L 304.575 283.748 L 304.968 283.683 L 305.291 283.511 L 305.528 283.239 L 305.664 282.876 L 305.226 282.876 L 305.135 283.078 L 305.004 283.229 L 304.63 283.35 L 304.343 283.295 L 304.126 283.118 L 303.985 282.831 L 303.934 282.442 L 303.934 282.427 L 303.934 282.427 z M 303.934 282.054 L 303.99 281.706 L 304.126 281.449 L 304.333 281.292 L 304.605 281.237 L 304.873 281.292 L 305.079 281.449 L 305.205 281.706 L 305.251 282.054 L 303.934 282.054 L 303.934 282.054 z M 311.283 283.234 L 311.283 283.653 L 311.726 283.653 L 311.726 280.032 L 311.288 280.032 L 311.288 281.358 L 310.95 280.975 L 310.743 280.884 L 310.506 280.849 L 310.077 280.949 L 309.744 281.232 L 309.527 281.686 L 309.452 282.296 L 309.527 282.906 L 309.744 283.365 L 310.077 283.653 L 310.506 283.748 L 310.743 283.713 L 310.955 283.622 L 311.283 283.234 L 311.283 283.234 z M 310.581 281.247 L 310.874 281.318 L 311.096 281.514 L 311.227 281.842 L 311.277 282.296 L 311.227 282.755 L 311.096 283.083 L 310.874 283.284 L 310.581 283.35 L 310.304 283.284 L 310.092 283.083 L 309.951 282.75 L 309.906 282.296 L 309.951 281.847 L 310.092 281.519 L 310.304 281.318 L 310.581 281.247 L 310.581 281.247 z M 313.043 282.427 L 314.818 282.427 L 314.823 282.22 L 314.742 281.64 L 314.52 281.207 L 314.167 280.944 L 313.698 280.849 L 313.239 280.949 L 312.886 281.232 L 312.659 281.691 L 312.579 282.296 L 312.654 282.916 L 312.881 283.37 L 313.229 283.653 L 313.683 283.748 L 314.076 283.683 L 314.399 283.511 L 314.636 283.239 L 314.772 282.876 L 314.334 282.876 L 314.243 283.078 L 314.112 283.229 L 313.739 283.35 L 313.451 283.295 L 313.234 283.118 L 313.093 282.831 L 313.043 282.442 L 313.043 282.427 L 313.043 282.427 z M 313.043 282.054 L 313.098 281.706 L 313.234 281.449 L 313.441 281.292 L 313.713 281.237 L 313.981 281.292 L 314.187 281.449 L 314.314 281.706 L 314.359 282.054 L 313.043 282.054 L 313.043 282.054 z M 319.342 281.413 L 319.342 283.653 L 319.785 283.653 L 319.785 281.413 L 320.794 281.413 L 320.794 281.035 L 319.785 281.035 L 319.785 280.869 L 319.821 280.667 L 319.937 280.531 L 320.133 280.45 L 320.416 280.42 L 320.794 280.44 L 320.794 280.057 L 320.315 280.032 L 319.881 280.077 L 319.579 280.213 L 319.397 280.45 L 319.342 280.788 L 319.342 281.035 L 318.53 281.035 L 318.53 281.413 L 319.342 281.413 L 319.342 281.413 z M 323.371 283.3 L 323.371 283.315 L 323.396 283.486 L 323.472 283.607 L 323.79 283.703 L 324.037 283.663 L 324.037 283.32 L 323.931 283.335 L 323.79 283.269 L 323.765 283.068 L 323.765 281.666 L 323.704 281.308 L 323.528 281.055 L 323.22 280.904 L 322.786 280.849 L 322.363 280.909 L 322.05 281.081 L 321.853 281.348 L 321.788 281.701 L 321.788 281.731 L 322.186 281.731 L 322.221 281.519 L 322.332 281.368 L 322.514 281.277 L 322.771 281.242 L 323.018 281.267 L 323.195 281.343 L 323.301 281.474 L 323.336 281.656 L 323.316 281.867 L 323.235 281.973 L 323.033 282.024 L 322.655 282.064 L 322.221 282.155 L 321.914 282.316 L 321.732 282.568 L 321.677 282.942 L 321.727 283.274 L 321.883 283.521 L 322.136 283.678 L 322.484 283.733 L 322.953 283.627 L 323.371 283.3 L 323.371 283.3 z M 323.321 282.704 L 323.26 282.967 L 323.099 283.168 L 322.857 283.3 L 322.559 283.345 L 322.368 283.32 L 322.231 283.239 L 322.146 283.098 L 322.12 282.901 L 322.141 282.725 L 322.221 282.599 L 322.544 282.457 L 322.953 282.397 L 323.321 282.276 L 323.321 282.704 L 323.321 282.704 z M 326.523 281.842 L 326.962 281.842 L 326.871 281.439 L 326.654 281.121 L 326.316 280.924 L 325.878 280.849 L 325.394 280.949 L 325.025 281.232 L 324.793 281.691 L 324.713 282.306 L 324.788 282.916 L 325.015 283.37 L 325.373 283.653 L 325.863 283.748 L 326.296 283.673 L 326.634 283.461 L 326.866 283.128 L 326.967 282.684 L 326.543 282.684 L 326.468 282.967 L 326.327 283.179 L 326.125 283.31 L 325.878 283.35 L 325.57 283.284 L 325.348 283.083 L 325.212 282.755 L 325.167 282.291 L 325.212 281.837 L 325.353 281.509 L 325.58 281.308 L 325.878 281.237 L 326.14 281.282 L 326.337 281.398 L 326.468 281.59 L 326.523 281.842 L 326.523 281.842 z M 328.223 282.427 L 329.998 282.427 L 330.003 282.22 L 329.922 281.64 L 329.7 281.207 L 329.347 280.944 L 328.878 280.849 L 328.419 280.949 L 328.066 281.232 L 327.84 281.691 L 327.759 282.296 L 327.834 282.916 L 328.061 283.37 L 328.409 283.653 L 328.863 283.748 L 329.257 283.683 L 329.579 283.511 L 329.816 283.239 L 329.953 282.876 L 329.514 282.876 L 329.423 283.078 L 329.292 283.229 L 328.919 283.35 L 328.631 283.295 L 328.414 283.118 L 328.273 282.831 L 328.223 282.442 L 328.223 282.427 L 328.223 282.427 z M 328.223 282.054 L 328.278 281.706 L 328.414 281.449 L 328.621 281.292 L 328.894 281.237 L 329.161 281.292 L 329.368 281.449 L 329.494 281.706 L 329.539 282.054 L 328.223 282.054 L 328.223 282.054 z" stroke="none" fill-rule="evenodd" fill="rgb(0, 0, 0)"/></g><g stroke="rgb(0, 0, 0)" stroke-width="0.13" stroke-linecap="butt" stroke-linejoin="miter" fill="none"><path d="M 297.459 289.699 L 299.678 289.699 L 299.678 289.276 L 297.923 289.276 L 297.923 288.091 L 299.486 288.091 L 299.486 287.672 L 297.923 287.672 L 297.923 286.623 L 299.638 286.623 L 299.638 286.199 L 297.459 286.199 L 297.459 289.699 L 297.459 289.699 z M 302.235 287.889 L 302.674 287.889 L 302.583 287.485 L 302.366 287.168 L 302.028 286.971 L 301.589 286.895 L 301.105 286.996 L 300.737 287.279 L 300.505 287.738 L 300.424 288.353 L 300.5 288.963 L 300.727 289.417 L 301.085 289.699 L 301.574 289.795 L 302.008 289.72 L 302.346 289.508 L 302.578 289.175 L 302.679 288.731 L 302.255 288.731 L 302.179 289.014 L 302.038 289.225 L 301.836 289.357 L 301.589 289.397 L 301.282 289.331 L 301.06 289.13 L 300.924 288.802 L 300.878 288.338 L 300.924 287.884 L 301.065 287.556 L 301.292 287.354 L 301.589 287.284 L 301.852 287.329 L 302.048 287.445 L 302.179 287.637 L 302.235 287.889 L 302.235 287.889 z M 303.546 289.699 L 303.99 289.699 L 303.99 288.136 L 304.035 287.778 L 304.182 287.516 L 304.409 287.354 L 304.711 287.294 L 304.953 287.344 L 305.105 287.48 L 305.18 287.707 L 305.205 288.01 L 305.205 289.699 L 305.649 289.699 L 305.649 287.919 L 305.629 287.561 L 305.538 287.264 L 305.241 286.991 L 304.777 286.895 L 304.525 286.931 L 304.308 287.027 L 304.126 287.178 L 303.99 287.385 L 303.99 286.078 L 303.546 286.078 L 303.546 289.699 L 303.546 289.699 z M 306.971 288.474 L 308.746 288.474 L 308.751 288.267 L 308.67 287.687 L 308.448 287.253 L 308.095 286.991 L 307.626 286.895 L 307.167 286.996 L 306.814 287.279 L 306.587 287.738 L 306.507 288.343 L 306.582 288.963 L 306.809 289.417 L 307.157 289.699 L 307.611 289.795 L 308.004 289.73 L 308.327 289.558 L 308.564 289.286 L 308.7 288.923 L 308.262 288.923 L 308.171 289.125 L 308.04 289.276 L 307.666 289.397 L 307.379 289.341 L 307.162 289.165 L 307.021 288.877 L 306.971 288.489 L 306.971 288.474 L 306.971 288.474 z M 306.971 288.101 L 307.026 287.753 L 307.162 287.496 L 307.369 287.339 L 307.641 287.284 L 307.909 287.339 L 308.115 287.496 L 308.241 287.753 L 308.287 288.101 L 306.971 288.101 L 306.971 288.101 z M 310.501 286.452 L 310.501 289.326 L 309.588 289.326 L 309.588 289.699 L 311.852 289.699 L 311.852 289.326 L 310.945 289.326 L 310.945 286.078 L 309.805 286.078 L 309.805 286.452 L 310.501 286.452 L 310.501 286.452 z M 313.537 286.452 L 313.537 289.326 L 312.624 289.326 L 312.624 289.699 L 314.888 289.699 L 314.888 289.326 L 313.981 289.326 L 313.981 286.078 L 312.841 286.078 L 312.841 286.452 L 313.537 286.452 L 313.537 286.452 z M 316.079 288.474 L 317.854 288.474 L 317.859 288.267 L 317.778 287.687 L 317.556 287.253 L 317.203 286.991 L 316.734 286.895 L 316.275 286.996 L 315.922 287.279 L 315.695 287.738 L 315.615 288.343 L 315.69 288.963 L 315.917 289.417 L 316.265 289.699 L 316.719 289.795 L 317.113 289.73 L 317.435 289.558 L 317.672 289.286 L 317.808 288.923 L 317.37 288.923 L 317.279 289.125 L 317.148 289.276 L 316.775 289.397 L 316.487 289.341 L 316.27 289.165 L 316.129 288.877 L 316.079 288.489 L 316.079 288.474 L 316.079 288.474 z M 316.079 288.101 L 316.134 287.753 L 316.27 287.496 L 316.477 287.339 L 316.749 287.284 L 317.017 287.339 L 317.223 287.496 L 317.35 287.753 L 317.395 288.101 L 316.079 288.101 L 316.079 288.101 z M 322.458 289.699 L 323.154 289.699 L 323.154 288.948 L 322.458 288.948 L 322.458 289.699 L 322.458 289.699 z M 322.458 287.743 L 323.154 287.743 L 323.154 286.991 L 322.458 286.991 L 322.458 287.743 L 322.458 287.743 z" stroke="none" fill-rule="evenodd" fill="rgb(0, 0, 0)"/></g><g stroke="rgb(0, 0, 0)" stroke-width="0.13" stroke-linecap="butt" stroke-linejoin="miter" fill="none"><path d="M 331.824 289.699 L 332.282 289.699 L 332.282 286.174 L 331.94 286.174 L 331.849 286.482 L 331.667 286.689 L 331.39 286.81 L 331.007 286.85 L 331.007 287.208 L 331.824 287.208 L 331.824 289.699 L 331.824 289.699 z M 334.602 289.699 L 335.298 289.699 L 335.298 288.948 L 334.602 288.948 L 334.602 289.699 L 334.602 289.699 z M 334.602 287.743 L 335.298 287.743 L 335.298 286.991 L 334.602 286.991 L 334.602 287.743 L 334.602 287.743 z M 337.896 289.699 L 338.355 289.699 L 338.355 286.174 L 338.012 286.174 L 337.921 286.482 L 337.739 286.689 L 337.462 286.81 L 337.079 286.85 L 337.079 287.208 L 337.896 287.208 L 337.896 289.699 L 337.896 289.699 z" stroke="none" fill-rule="evenodd" fill="rgb(0, 0, 0)"/></g></svg>