<?xml version="1.0" encoding="utf-8" ?><!DOCTYPE svg PUBLIC "-//W3C//DTD SVG 1.1//EN" "http://www.w3.org/Graphics/SVG/1.1/DTD/svg11.dtd" 
[ <!ATTLIST svg 
  xmlns:dsy CDATA #FIXED "http://www.3ds.com/print"  
    dsy:text-version CDATA #IMPLIED > 

  <!ATTLIST text 
  xmlns:dsy CDATA #FIXED "http://www.3ds.com/print" 
    dsy:text-version CDATA #IMPLIED > 
]><svg xmlns="http://www.w3.org/2000/svg" xmlns:dsy="http://www.3ds.com/print" dsy:text-version="18000" width="297" height="210" viewBox="0 0 297 210" version="1.1"><g stroke="rgb(0, 0, 0)" stroke-width="0.35" stroke-linecap="butt" stroke-linejoin="miter" fill="none"><path d="M 200.281 91.5923 L 200.281 41.2496"/><path d="M 200.281 41.2496 L 197.534 40.5364 L 194.807 39.9092 L 193.451 39.6278 L 192.1 39.3679 L 189.948 38.9967 L 187.81 38.6805 L 185.684 38.4193 L 183.571 38.2131 L 181.471 38.0617 L 179.189 37.959 L 176.923 37.9218 L 174.673 37.9501 L 172.439 38.0437 L 170.221 38.2025 L 168.019 38.4263 L 165.835 38.7149 L 163.668 39.0682 L 161.376 39.516 L 159.104 40.0366 L 156.855 40.6297 L 154.627 41.2948 L 152.423 42.0314 L 150.243 42.8391 L 148.088 43.717 L 145.96 44.6646 L 143.859 45.6812 L 141.787 46.7658 L 139.746 47.9178 L 137.738 49.136 L 135.763 50.4194 L 133.824 51.767 L 131.924 53.1776 L 129.994 54.7066 L 128.11 56.3005 L 127.186 57.1213 L 126.275 57.9577 L 125.081 59.0968 L 123.91 60.2627 L 122.764 61.4549 L 121.328 63.0254 L 119.937 64.6372 L 118.593 66.2889 L 117.297 67.9791 L 116.052 69.7065 L 114.86 71.4697 L 113.722 73.2671 L 112.56 75.2393 L 111.466 77.2474 L 110.442 79.2895 L 109.957 80.3226 L 109.491 81.3634 L 108.898 82.7626 L 108.34 84.1744 L 107.815 85.5981 L 107.18 87.4836 L 106.606 89.387 L 106.094 91.3067 L 105.646 93.241 L 105.262 95.1884 L 104.943 97.1472 L 104.689 99.1157 L 104.502 101.092 L 104.39 102.851 L 104.331 104.614 L 104.325 106.38 L 104.37 108.146 L 104.467 109.913 L 104.554 111.014 L 104.661 112.114 L 104.789 113.219 L 104.937 114.322 L 105.291 116.518 L 105.723 118.704 L 106.233 120.879 L 106.819 123.039 L 107.479 125.182 L 108.213 127.307 L 109.018 129.409 L 109.892 131.487 L 110.835 133.539 L 111.548 134.987 L 112.295 136.419 L 113.074 137.834 L 113.676 138.881 L 114.296 139.917 L 114.937 140.95 L 115.596 141.973 L 116.956 143.976 L 118.38 145.932 L 119.864 147.838 L 121.406 149.69 L 123.003 151.488 L 124.652 153.228 L 126.352 154.908 L 128.099 156.525 L 129.892 158.079 L 131.728 159.566 L 133.545 160.941 L 135.399 162.25 L 137.288 163.492 L 139.21 164.666 L 141.165 165.769 L 143.15 166.802 L 145.164 167.763 L 147.207 168.65 L 149.277 169.463 L 150.322 169.841 L 151.373 170.2 L 152.43 170.541 L 153.494 170.862 L 154.564 171.165 L 155.64 171.448 L 157.374 171.86 L 159.122 172.223 L 160.886 172.536 L 162.663 172.799 L 164.455 173.011 L 166.562 173.194 L 168.688 173.308 L 170.832 173.352 L 172.994 173.326 L 175.173 173.231 L 177.37 173.065 L 179.585 172.829 L 181.816 172.522 L 183.872 172.18 L 185.941 171.779 L 188.025 171.318 L 190.123 170.799 L 192.235 170.221 L 193.561 169.829 L 194.893 169.415 L 196.232 168.977 L 197.577 168.516 L 200.281 167.525"/><path d="M 200.281 110.592 L 200.281 167.525"/><path d="M 136.281 110.592 L 200.281 110.592"/><path d="M 136.281 91.5923 L 136.281 110.592"/><path d="M 200.281 91.5923 L 136.281 91.5923"/><circle cx="193.281" cy="54.6965" r="2.5"/><circle cx="193.281" cy="144.696" r="2.5"/><circle cx="167.281" cy="82.1923" r="3.5"/><circle cx="167.281" cy="119.992" r="3.5"/><circle cx="154.781" cy="156.426" r="1.5"/><circle cx="179.781" cy="156.426" r="1.5"/><path d="M 159.038 150.926 L 175.523 150.926"/><path d="M 177.005 152.662 A 1.5 1.5 0 0 0 175.523 150.926"/><path d="M 175.732 160.662 L 177.005 152.662"/><path d="M 174.251 161.926 A 1.5 1.5 0 0 0 175.732 160.662"/><path d="M 174.251 161.926 L 160.311 161.926"/><path d="M 158.83 160.662 A 1.5 1.5 0 0 0 160.311 161.926"/><path d="M 157.557 152.662 L 158.83 160.662"/><path d="M 159.038 150.926 A 1.5 1.5 0 0 0 157.557 152.662"/></g></svg>