<?xml version="1.0" encoding="utf-8" ?><!DOCTYPE svg PUBLIC "-//W3C//DTD SVG 1.1//EN" "http://www.w3.org/Graphics/SVG/1.1/DTD/svg11.dtd" 
[ <!ATTLIST svg 
  xmlns:dsy CDATA #FIXED "http://www.3ds.com/print"  
    dsy:text-version CDATA #IMPLIED > 

  <!ATTLIST text 
  xmlns:dsy CDATA #FIXED "http://www.3ds.com/print" 
    dsy:text-version CDATA #IMPLIED > 
]><svg xmlns="http://www.w3.org/2000/svg" xmlns:dsy="http://www.3ds.com/print" dsy:text-version="18000" width="297" height="210" viewBox="0 0 297 210" version="1.1"><g stroke="rgb(0, 0, 0)" stroke-width="0.13" stroke-linecap="butt" stroke-linejoin="miter" fill="none"><path d="M 173.119 173.353 L 236.255 173.353"/><path d="M 202.281 110.592 L 236.255 110.592"/><path d="M 202.281 91.5923 L 236.255 91.5923"/><path d="M 178.77 37.9216 L 236.255 37.9216"/><path d="M 138.281 110.592 L 236.255 110.592"/><path d="M 138.281 91.5923 L 236.255 91.5923"/></g><g stroke="rgb(0, 0, 0)" stroke-width="0.35" stroke-linecap="butt" stroke-linejoin="miter" fill="none"><path d="M 200.281 91.5923 L 200.281 41.2496"/><path d="M 200.281 41.2496 L 197.534 40.5364 L 194.807 39.9092 L 193.451 39.6278 L 192.1 39.3679 L 189.948 38.9967 L 187.81 38.6805 L 185.684 38.4193 L 183.571 38.2131 L 181.471 38.0617 L 179.189 37.959 L 176.923 37.9218 L 174.673 37.9501 L 172.439 38.0437 L 170.221 38.2025 L 168.019 38.4263 L 165.835 38.7149 L 163.668 39.0682 L 161.376 39.516 L 159.104 40.0366 L 156.855 40.6297 L 154.627 41.2948 L 152.423 42.0314 L 150.243 42.8391 L 148.088 43.717 L 145.96 44.6646 L 143.859 45.6812 L 141.787 46.7658 L 139.746 47.9178 L 137.738 49.136 L 135.763 50.4194 L 133.824 51.767 L 131.924 53.1776 L 129.994 54.7066 L 128.11 56.3005 L 127.186 57.1213 L 126.275 57.9577 L 125.081 59.0968 L 123.91 60.2627 L 122.764 61.4549 L 121.328 63.0254 L 119.937 64.6372 L 118.593 66.2889 L 117.297 67.9791 L 116.052 69.7065 L 114.86 71.4697 L 113.722 73.2671 L 112.56 75.2393 L 111.466 77.2474 L 110.442 79.2895 L 109.957 80.3226 L 109.491 81.3634 L 108.898 82.7626 L 108.34 84.1744 L 107.815 85.5981 L 107.18 87.4836 L 106.606 89.387 L 106.094 91.3067 L 105.646 93.241 L 105.262 95.1884 L 104.943 97.1472 L 104.689 99.1157 L 104.502 101.092 L 104.39 102.851 L 104.331 104.614 L 104.325 106.38 L 104.37 108.146 L 104.467 109.913 L 104.554 111.014 L 104.661 112.114 L 104.789 113.219 L 104.937 114.322 L 105.291 116.518 L 105.723 118.704 L 106.233 120.879 L 106.819 123.039 L 107.479 125.182 L 108.213 127.307 L 109.018 129.409 L 109.892 131.487 L 110.835 133.539 L 111.548 134.987 L 112.295 136.419 L 113.074 137.834 L 113.676 138.881 L 114.296 139.917 L 114.937 140.95 L 115.596 141.973 L 116.956 143.976 L 118.38 145.932 L 119.864 147.838 L 121.406 149.69 L 123.003 151.488 L 124.652 153.228 L 126.352 154.908 L 128.099 156.525 L 129.892 158.079 L 131.728 159.566 L 133.545 160.941 L 135.399 162.25 L 137.288 163.492 L 139.21 164.666 L 141.165 165.769 L 143.15 166.802 L 145.164 167.763 L 147.207 168.65 L 149.277 169.463 L 150.322 169.841 L 151.373 170.2 L 152.43 170.541 L 153.494 170.862 L 154.564 171.165 L 155.64 171.448 L 157.374 171.86 L 159.122 172.223 L 160.886 172.536 L 162.663 172.799 L 164.455 173.011 L 166.562 173.194 L 168.688 173.308 L 170.832 173.352 L 172.994 173.326 L 175.173 173.231 L 177.37 173.065 L 179.585 172.829 L 181.816 172.522 L 183.872 172.18 L 185.941 171.779 L 188.025 171.318 L 190.123 170.799 L 192.235 170.221 L 193.561 169.829 L 194.893 169.415 L 196.232 168.977 L 197.577 168.516 L 200.281 167.525"/><path d="M 200.281 110.592 L 200.281 167.525"/><path d="M 136.281 110.592 L 200.281 110.592"/><path d="M 136.281 91.5923 L 136.281 110.592"/><path d="M 200.281 91.5923 L 136.281 91.5923"/><circle cx="193.281" cy="54.6965" r="2.5"/><circle cx="193.281" cy="144.696" r="2.5"/><circle cx="167.281" cy="82.1923" r="3.5"/><circle cx="167.281" cy="119.992" r="3.5"/><circle cx="154.781" cy="156.426" r="1.5"/><circle cx="179.781" cy="156.426" r="1.5"/><path d="M 159.038 150.926 L 175.523 150.926"/><path d="M 177.005 152.662 A 1.5 1.5 0 0 0 175.523 150.926"/><path d="M 175.732 160.662 L 177.005 152.662"/><path d="M 174.251 161.926 A 1.5 1.5 0 0 0 175.732 160.662"/><path d="M 174.251 161.926 L 160.311 161.926"/><path d="M 158.83 160.662 A 1.5 1.5 0 0 0 160.311 161.926"/><path d="M 157.557 152.662 L 158.83 160.662"/><path d="M 159.038 150.926 A 1.5 1.5 0 0 0 157.557 152.662"/></g><g stroke="rgb(0, 0, 0)" stroke-width="0.13" stroke-linecap="butt" stroke-linejoin="miter" fill="none"><path d="M 229.698 148.234 L 229.29 148.33 L 228.987 148.552 L 228.796 148.895 L 228.73 149.339 L 228.765 149.636 L 228.861 149.893 L 229.018 150.12 L 229.24 150.312 L 229.517 150.463 L 229.855 150.574 L 230.253 150.645 L 230.702 150.665 L 231.418 150.584 L 231.938 150.337 L 232.25 149.939 L 232.356 149.394 L 232.265 148.905 L 232.028 148.532 L 231.655 148.29 L 231.181 148.204 L 230.702 148.29 L 230.334 148.522 L 230.102 148.88 L 230.021 149.323 L 230.122 149.803 L 230.41 150.161 L 229.855 150.085 L 229.456 149.924 L 229.219 149.676 L 229.139 149.334 L 229.179 149.081 L 229.285 148.89 L 229.461 148.764 L 229.698 148.698 L 229.698 148.234 L 229.698 148.234 z M 231.186 148.693 L 231.504 148.749 L 231.746 148.89 L 231.907 149.117 L 231.958 149.399 L 231.907 149.697 L 231.751 149.924 L 231.509 150.07 L 231.191 150.115 L 230.879 150.065 L 230.642 149.924 L 230.49 149.692 L 230.435 149.379 L 230.49 149.107 L 230.636 148.89 L 230.874 148.749 L 231.186 148.693 L 231.186 148.693 z M 232.255 146.939 L 232.255 144.533 L 231.822 144.533 L 231.822 146.435 L 231.585 146.329 L 231.388 146.147 L 231.03 145.587 L 230.879 145.29 L 230.662 144.957 L 230.41 144.72 L 230.112 144.584 L 229.774 144.533 L 229.35 144.619 L 229.018 144.856 L 228.806 145.219 L 228.73 145.688 L 228.816 146.172 L 229.053 146.541 L 229.431 146.778 L 229.93 146.858 L 230.001 146.858 L 230.001 146.399 L 229.961 146.399 L 229.618 146.354 L 229.366 146.218 L 229.204 146.001 L 229.149 145.714 L 229.199 145.421 L 229.325 145.204 L 229.522 145.063 L 229.769 145.013 L 230.001 145.048 L 230.198 145.144 L 230.369 145.305 L 230.52 145.527 L 230.682 145.824 L 230.995 146.319 L 231.327 146.667 L 231.731 146.873 L 232.24 146.939 L 232.255 146.939 L 232.255 146.939 z M 232.255 142.32 L 232.255 141.624 L 231.504 141.624 L 231.504 142.32 L 232.255 142.32 L 232.255 142.32 z M 232.255 138.937 L 232.255 138.428 L 231.423 138.262 L 230.647 137.969 L 229.925 137.556 L 229.25 137.016 L 228.831 137.016 L 228.831 139.417 L 229.29 139.417 L 229.29 137.5 L 229.971 138.055 L 230.682 138.473 L 231.438 138.766 L 232.255 138.937 L 232.255 138.937 z M 229.698 133.29 L 229.29 133.386 L 228.987 133.608 L 228.796 133.951 L 228.73 134.395 L 228.765 134.692 L 228.861 134.949 L 229.018 135.176 L 229.24 135.368 L 229.517 135.519 L 229.855 135.63 L 230.253 135.701 L 230.702 135.721 L 231.418 135.64 L 231.938 135.393 L 232.25 134.995 L 232.356 134.45 L 232.265 133.961 L 232.028 133.588 L 231.655 133.346 L 231.181 133.26 L 230.702 133.346 L 230.334 133.578 L 230.102 133.936 L 230.021 134.379 L 230.122 134.858 L 230.41 135.217 L 229.855 135.141 L 229.456 134.98 L 229.219 134.732 L 229.139 134.389 L 229.179 134.137 L 229.285 133.946 L 229.461 133.82 L 229.698 133.754 L 229.698 133.29 L 229.698 133.29 z M 231.186 133.749 L 231.504 133.804 L 231.746 133.946 L 231.907 134.173 L 231.958 134.455 L 231.907 134.753 L 231.751 134.98 L 231.509 135.126 L 231.191 135.171 L 230.879 135.121 L 230.642 134.98 L 230.49 134.748 L 230.435 134.435 L 230.49 134.163 L 230.636 133.946 L 230.874 133.804 L 231.186 133.749 L 231.186 133.749 z" stroke="none" fill-rule="evenodd" fill="rgb(0, 0, 0)"/><path d="M 234.773 112.524 L 234.255 110.592 L 233.738 112.524"/><path d="M 233.738 171.421 L 234.255 173.353 L 234.773 171.421"/><path d="M 234.255 173.353 L 234.255 110.592"/></g><g stroke="rgb(0, 0, 0)" stroke-width="0.13" stroke-linecap="butt" stroke-linejoin="miter" fill="none"><path d="M 231.343 73.4798 L 231.756 73.3688 L 232.079 73.1217 L 232.281 72.7586 L 232.356 72.2946 L 232.265 71.7852 L 232.018 71.3868 L 231.625 71.1346 L 231.121 71.0388 L 230.652 71.1246 L 230.283 71.3666 L 230.046 71.7449 L 229.961 72.2341 L 230.021 72.6123 L 230.188 72.9048 L 229.245 72.7636 L 229.245 71.2305 L 228.831 71.2305 L 228.831 73.1015 L 230.687 73.3789 L 230.687 72.9754 L 230.45 72.6829 L 230.364 72.3097 L 230.42 71.987 L 230.581 71.7398 L 230.828 71.5835 L 231.146 71.528 L 231.464 71.5835 L 231.711 71.7449 L 231.867 71.992 L 231.923 72.3097 L 231.887 72.577 L 231.771 72.7838 L 231.59 72.9351 L 231.343 73.0107 L 231.343 73.4798 L 231.343 73.4798 z M 231.156 69.7639 L 231.191 69.7639 L 231.675 69.6832 L 232.038 69.4462 L 232.27 69.073 L 232.356 68.5787 L 232.27 68.0542 L 232.049 67.6609 L 231.696 67.4087 L 231.242 67.3179 L 230.944 67.3583 L 230.702 67.4692 L 230.515 67.6508 L 230.379 67.8929 L 230.107 67.565 L 229.673 67.4491 L 229.28 67.5247 L 228.982 67.7416 L 228.796 68.0946 L 228.73 68.5787 L 228.811 69.0326 L 229.033 69.3806 L 229.386 69.6076 L 229.855 69.6832 L 229.89 69.6832 L 229.89 69.2344 L 229.567 69.194 L 229.335 69.0629 L 229.194 68.8511 L 229.144 68.5535 L 229.184 68.2913 L 229.29 68.0996 L 229.461 67.9836 L 229.693 67.9382 L 229.941 67.9836 L 230.107 68.1047 L 230.208 68.3165 L 230.238 68.604 L 230.233 68.8006 L 230.631 68.8006 L 230.621 68.5535 L 230.667 68.2358 L 230.788 67.9988 L 230.984 67.8576 L 231.242 67.8071 L 231.534 67.8626 L 231.751 68.0089 L 231.887 68.2408 L 231.933 68.5485 L 231.882 68.8662 L 231.731 69.0982 L 231.489 69.2444 L 231.156 69.2999 L 231.156 69.7639 L 231.156 69.7639 z M 232.255 65.105 L 232.255 64.409 L 231.504 64.409 L 231.504 65.105 L 232.255 65.105 L 232.255 65.105 z M 229.698 59.8106 L 229.29 59.9064 L 228.987 60.1283 L 228.796 60.4713 L 228.73 60.9151 L 228.765 61.2126 L 228.861 61.4698 L 229.018 61.6967 L 229.24 61.8884 L 229.517 62.0397 L 229.855 62.1507 L 230.253 62.2213 L 230.702 62.2414 L 231.418 62.1607 L 231.938 61.9136 L 232.25 61.5152 L 232.356 60.9705 L 232.265 60.4813 L 232.028 60.1081 L 231.655 59.8661 L 231.181 59.7803 L 230.702 59.8661 L 230.334 60.0981 L 230.102 60.4561 L 230.021 60.8999 L 230.122 61.379 L 230.41 61.7371 L 229.855 61.6615 L 229.456 61.5001 L 229.219 61.2529 L 229.139 60.91 L 229.179 60.6579 L 229.285 60.4662 L 229.461 60.3401 L 229.698 60.2746 L 229.698 59.8106 L 229.698 59.8106 z M 231.186 60.2695 L 231.504 60.325 L 231.746 60.4662 L 231.907 60.6931 L 231.958 60.9756 L 231.907 61.2731 L 231.751 61.5001 L 231.509 61.6463 L 231.191 61.6917 L 230.879 61.6413 L 230.642 61.5001 L 230.49 61.2681 L 230.435 60.9554 L 230.49 60.6831 L 230.636 60.4662 L 230.874 60.325 L 231.186 60.2695 L 231.186 60.2695 z M 232.255 57.9859 L 232.255 57.4766 L 231.423 57.3102 L 230.647 57.0176 L 229.925 56.6041 L 229.25 56.0645 L 228.831 56.0645 L 228.831 58.4651 L 229.29 58.4651 L 229.29 56.5486 L 229.971 57.1034 L 230.682 57.522 L 231.438 57.8145 L 232.255 57.9859 L 232.255 57.9859 z" stroke="none" fill-rule="evenodd" fill="rgb(0, 0, 0)"/><path d="M 233.738 89.6605 L 234.255 91.5923 L 234.773 89.6605"/><path d="M 234.773 39.8535 L 234.255 37.9216 L 233.738 39.8535"/><path d="M 234.255 91.5923 L 234.255 37.9216"/></g><g stroke="rgb(0, 0, 0)" stroke-width="0.13" stroke-linecap="butt" stroke-linejoin="miter" fill="none"><path d="M 232.255 103.051 L 232.255 102.592 L 228.73 102.592 L 228.73 102.935 L 229.038 103.026 L 229.245 103.207 L 229.366 103.485 L 229.406 103.868 L 229.764 103.868 L 229.764 103.051 L 232.255 103.051 L 232.255 103.051 z M 231.388 100.435 L 231.786 100.359 L 232.094 100.142 L 232.286 99.7993 L 232.356 99.3454 L 232.321 99.0478 L 232.23 98.7805 L 232.074 98.5536 L 231.852 98.3619 L 231.575 98.2106 L 231.232 98.0997 L 230.838 98.0341 L 230.384 98.0089 L 229.673 98.0947 L 229.154 98.3418 L 228.841 98.7351 L 228.73 99.2748 L 228.821 99.769 L 229.063 100.142 L 229.436 100.384 L 229.905 100.465 L 230.389 100.384 L 230.758 100.147 L 230.99 99.7942 L 231.065 99.3454 L 230.969 98.8713 L 230.677 98.5132 L 231.237 98.5939 L 231.635 98.7553 L 231.872 99.0024 L 231.948 99.3403 L 231.912 99.6026 L 231.801 99.7942 L 231.625 99.9203 L 231.388 99.9707 L 231.388 100.435 L 231.388 100.435 z M 229.9 99.9758 L 229.587 99.9253 L 229.34 99.7841 L 229.184 99.5622 L 229.129 99.2748 L 229.184 98.9772 L 229.34 98.7503 L 229.582 98.6091 L 229.895 98.5536 L 230.213 98.6091 L 230.45 98.7503 L 230.596 98.9823 L 230.647 99.2899 L 230.596 99.5673 L 230.45 99.7841 L 230.218 99.9253 L 229.9 99.9758 L 229.9 99.9758 z" stroke="none" fill-rule="evenodd" fill="rgb(0, 0, 0)"/><path d="M 233.738 108.66 L 234.255 110.592 L 234.773 108.66"/><path d="M 234.773 93.5242 L 234.255 91.5923 L 233.738 93.5242"/><path d="M 234.255 110.592 L 234.255 91.5923"/></g></svg>