<?xml version="1.0" encoding="utf-8" ?><!DOCTYPE svg PUBLIC "-//W3C//DTD SVG 1.1//EN" "http://www.w3.org/Graphics/SVG/1.1/DTD/svg11.dtd" 
[ <!ATTLIST svg 
  xmlns:dsy CDATA #FIXED "http://www.3ds.com/print"  
    dsy:text-version CDATA #IMPLIED > 

  <!ATTLIST text 
  xmlns:dsy CDATA #FIXED "http://www.3ds.com/print" 
    dsy:text-version CDATA #IMPLIED > 
]><svg xmlns="http://www.w3.org/2000/svg" xmlns:dsy="http://www.3ds.com/print" dsy:text-version="18000" width="297" height="210" viewBox="0 0 297 210" version="1.1"><g stroke="rgb(0, 0, 0)" stroke-width="0.13" stroke-linecap="butt" stroke-linejoin="miter" fill="none"><path d="M 263.234 165.827 L 194.703 165.827"/><path d="M 263.234 5.82727 L 194.703 5.82727"/></g><g stroke="rgb(0, 0, 0)" stroke-width="0.35" stroke-linecap="butt" stroke-linejoin="miter" fill="none"><path d="M 212.945 6.41579 L 212.945 54.7758"/><path d="M 247.945 54.7758 L 212.945 54.7758"/><path d="M 247.945 54.7758 L 247.945 6.41579"/><path d="M 212.945 6.41579 L 247.945 6.41579"/><circle cx="230.445" cy="29.4158" r="2"/><circle cx="230.445" cy="48.4258" r="2"/><path d="M 263.79 66.7193 L 263.79 6.71935"/><path d="M 263.79 6.71935 L 249.79 6.71935"/><path d="M 249.79 6.71935 L 249.79 66.7193"/><path d="M 249.79 126.719 L 249.79 66.7193"/><path d="M 263.79 126.719 L 249.79 126.719"/><path d="M 263.79 66.7193 L 263.79 126.719"/><circle cx="256.79" cy="16.7193" r="2.5"/><circle cx="256.79" cy="116.719" r="2.5"/><path d="M 265.234 5.82727 L 265.234 165.827"/><path d="M 289.234 165.827 L 265.234 165.827"/><path d="M 289.234 165.827 L 289.234 5.82727"/><path d="M 265.234 5.82727 L 289.234 5.82727"/><circle cx="277.234" cy="15.8273" r="3.20001"/><path d="M 280.434 153.827 L 280.434 148.027"/><path d="M 274.034 153.827 A 3.20001 3.20001 0 1 0 280.434 153.827"/><path d="M 274.034 153.827 L 274.034 148.027"/><path d="M 280.434 148.027 A 3.20001 3.20001 0 1 0 274.034 148.027"/></g><g stroke="rgb(0, 0, 0)" stroke-width="0.13" stroke-linecap="butt" stroke-linejoin="miter" fill="none"><path d="M 194.703 89.6541 L 194.703 89.1951 L 191.178 89.1951 L 191.178 89.5381 L 191.485 89.6288 L 191.692 89.8104 L 191.813 90.0878 L 191.853 90.4711 L 192.211 90.4711 L 192.211 89.6541 L 194.703 89.6541 L 194.703 89.6541 z M 192.146 84.6169 L 191.737 84.7127 L 191.435 84.9346 L 191.243 85.2775 L 191.178 85.7213 L 191.213 86.0189 L 191.309 86.2761 L 191.465 86.503 L 191.687 86.6947 L 191.964 86.846 L 192.302 86.9569 L 192.701 87.0275 L 193.149 87.0477 L 193.866 86.967 L 194.385 86.7199 L 194.698 86.3215 L 194.804 85.7768 L 194.713 85.2876 L 194.476 84.9144 L 194.103 84.6723 L 193.629 84.5866 L 193.149 84.6723 L 192.781 84.9043 L 192.549 85.2624 L 192.469 85.7062 L 192.57 86.1853 L 192.857 86.5434 L 192.302 86.4677 L 191.904 86.3064 L 191.667 86.0592 L 191.586 85.7163 L 191.626 85.4641 L 191.732 85.2725 L 191.909 85.1464 L 192.146 85.0809 L 192.146 84.6169 L 192.146 84.6169 z M 193.634 85.0758 L 193.951 85.1313 L 194.193 85.2725 L 194.355 85.4994 L 194.405 85.7819 L 194.355 86.0794 L 194.198 86.3064 L 193.956 86.4526 L 193.639 86.498 L 193.326 86.4476 L 193.089 86.3064 L 192.938 86.0744 L 192.882 85.7617 L 192.938 85.4894 L 193.084 85.2725 L 193.321 85.1313 L 193.634 85.0758 L 193.634 85.0758 z M 192.993 83.3066 L 193.785 83.231 L 194.35 82.994 L 194.693 82.6157 L 194.804 82.0912 L 194.693 81.5718 L 194.35 81.1935 L 193.785 80.9615 L 192.993 80.8808 L 192.206 80.9615 L 191.894 81.0574 L 191.637 81.1935 L 191.294 81.5718 L 191.178 82.0912 L 191.294 82.6157 L 191.642 82.994 L 192.206 83.231 L 192.993 83.3066 L 192.993 83.3066 z M 192.993 82.8225 L 192.383 82.7821 L 191.944 82.6561 L 191.687 82.4291 L 191.596 82.0912 L 191.687 81.7584 L 191.944 81.5314 L 192.383 81.4053 L 192.993 81.365 L 193.608 81.4053 L 194.047 81.5314 L 194.304 81.7584 L 194.39 82.0912 L 194.304 82.4291 L 194.047 82.6561 L 193.608 82.7821 L 192.993 82.8225 L 192.993 82.8225 z" stroke="none" fill-rule="evenodd" fill="rgb(0, 0, 0)"/><path d="M 197.22 7.75912 L 196.703 5.82727 L 196.185 7.75912"/><path d="M 196.185 163.895 L 196.703 165.827 L 197.22 163.895"/><path d="M 196.703 165.827 L 196.703 5.82727"/></g></svg>