<?xml version="1.0" encoding="utf-8" ?><!DOCTYPE svg PUBLIC "-//W3C//DTD SVG 1.1//EN" "http://www.w3.org/Graphics/SVG/1.1/DTD/svg11.dtd" 
[ <!ATTLIST svg 
  xmlns:dsy CDATA #FIXED "http://www.3ds.com/print"  
    dsy:text-version CDATA #IMPLIED > 

  <!ATTLIST text 
  xmlns:dsy CDATA #FIXED "http://www.3ds.com/print" 
    dsy:text-version CDATA #IMPLIED > 
]><svg xmlns="http://www.w3.org/2000/svg" xmlns:dsy="http://www.3ds.com/print" dsy:text-version="18000" width="594" height="420" viewBox="0 0 594 420" version="1.1"><g stroke="rgb(0, 0, 0)" stroke-width="0.13" stroke-linecap="butt" stroke-linejoin="miter" fill="none"><path d="M 45.822 192.652 L 74.1585 192.652"/><path d="M 42.0472 10.1142 L 74.1585 10.1142"/></g><g stroke="rgb(0, 0, 0)" stroke-width="0.35" stroke-linecap="butt" stroke-linejoin="miter" fill="none"><path d="M 44.9083 16.2849 A 5 5 0 0 0 40.0472 10.1142"/><path d="M 15.901 10.1142 L 40.0472 10.1142"/><path d="M 44.9083 16.2849 L 31.8232 70.6208"/><path d="M 15.901 10.1142 A 5 5 0 0 0 10.901 15.1142"/><path d="M 26.9622 74.4502 A 5 5 0 0 0 31.8232 70.6208"/><path d="M 26.9622 74.4502 L 15.901 74.4502"/><path d="M 10.901 69.4502 A 5 5 0 0 0 15.901 74.4502"/><path d="M 10.901 69.4502 L 10.901 15.1142"/><path d="M 43.822 192.652 A 6.5 6.5 0 0 0 49.959 184.01"/><path d="M 43.822 192.652 L 20.7532 192.652"/><path d="M 13.6996 179.409 A 8.5 8.5 0 0 0 20.7532 192.652"/><path d="M 30.9354 153.776 L 13.6996 179.409"/><path d="M 39.8054 154.919 A 5 5 0 0 0 30.9354 153.776"/><path d="M 49.959 184.01 L 39.8054 154.919"/><path d="M 82.7114 185.041 A 6.5 6.5 0 0 0 89.1158 192.652"/><path d="M 85.8527 166.931 L 82.7114 185.041"/><path d="M 86.6154 164.472 A 10 10 0 0 0 85.8527 166.931"/><path d="M 86.6154 164.472 L 99.0348 137.383"/><path d="M 111.286 138.67 A 6.5 6.5 0 0 0 99.0348 137.383"/><path d="M 121.615 184.73 L 111.286 138.67"/><path d="M 115.272 192.652 A 6.5 6.5 0 0 0 121.615 184.73"/><path d="M 89.1158 192.652 L 115.272 192.652"/><path d="M 111.795 10.1142 A 5 5 0 0 0 106.795 15.1142"/><path d="M 106.795 15.1142 L 106.795 75.1142"/><path d="M 111.795 10.1142 L 131.795 10.1142"/><path d="M 106.795 75.1142 A 5 5 0 0 0 111.795 80.1142"/><path d="M 136.795 15.1142 A 5 5 0 0 0 131.795 10.1142"/><path d="M 136.795 75.1142 L 136.795 15.1142"/><path d="M 131.795 80.1142 A 5 5 0 0 0 136.795 75.1142"/><path d="M 111.795 80.1142 L 131.795 80.1142"/><path d="M 192.722 189.986 A 5 5 0 0 0 197.626 185.961"/><path d="M 192.722 189.986 L 148.107 189.986"/><path d="M 143.109 184.853 A 5 5 0 0 0 148.107 189.986"/><path d="M 143.109 184.853 L 144.534 131.372"/><path d="M 155.683 125.922 A 7 7 0 0 0 144.534 131.372"/><path d="M 155.683 125.922 A 42 42 0 0 0 197.414 130.59"/><path d="M 207.083 138.369 A 7 7 0 0 0 197.414 130.59"/><path d="M 207.083 138.369 L 197.626 185.961"/><path d="M 198.738 54.2288 A 42 42 0 0 0 160.878 55.0206"/><path d="M 150.592 48.8397 A 7 7 0 0 0 160.878 55.0206"/><path d="M 150.592 26.6063 L 150.592 48.8397"/><path d="M 160.592 16.6063 A 10 10 0 0 0 150.592 26.6063"/><path d="M 160.592 16.6063 L 195.252 16.6063"/><path d="M 205.122 24.9986 A 10 10 0 0 0 195.252 16.6063"/><path d="M 205.122 24.9986 L 208.672 46.7904"/><path d="M 198.738 54.2288 A 7 7 0 0 0 208.672 46.7904"/></g><g stroke="rgb(0, 0, 0)" stroke-width="0.13" stroke-linecap="butt" stroke-linejoin="miter" fill="none"><path d="M 70.1585 110.814 L 70.1585 110.355 L 66.6333 110.355 L 66.6333 110.698 L 66.9409 110.789 L 67.1477 110.97 L 67.2687 111.248 L 67.3091 111.631 L 67.6671 111.631 L 67.6671 110.814 L 70.1585 110.814 L 70.1585 110.814 z M 68.2723 107.613 L 68.4135 107.87 L 68.6102 108.046 L 68.8573 108.157 L 69.1549 108.193 L 69.6037 108.112 L 69.9517 107.88 L 70.1736 107.502 L 70.2594 106.987 L 70.1736 106.478 L 69.9517 106.1 L 69.6037 105.868 L 69.1549 105.782 L 68.8573 105.822 L 68.6102 105.928 L 68.4135 106.11 L 68.2723 106.362 L 68.1513 106.16 L 67.9849 106.019 L 67.7831 105.933 L 67.536 105.903 L 67.1779 105.984 L 66.8905 106.195 L 66.7039 106.538 L 66.6333 106.987 L 66.7039 107.441 L 66.8905 107.784 L 67.1779 108.001 L 67.536 108.077 L 67.7831 108.051 L 67.9849 107.966 L 68.2723 107.613 L 68.2723 107.613 z M 69.1448 107.708 L 68.8775 107.663 L 68.6758 107.517 L 68.5447 107.29 L 68.4993 106.987 L 68.5447 106.69 L 68.6758 106.463 L 68.8775 106.316 L 69.1448 106.266 L 69.4323 106.316 L 69.6491 106.463 L 69.7903 106.69 L 69.8357 106.987 L 69.7903 107.29 L 69.6491 107.517 L 69.4323 107.663 L 69.1448 107.708 L 69.1448 107.708 z M 67.5764 107.597 L 67.3545 107.557 L 67.183 107.436 L 67.0771 107.244 L 67.0367 106.987 L 67.0771 106.735 L 67.183 106.543 L 67.3545 106.422 L 67.5764 106.377 L 67.8033 106.422 L 67.9798 106.543 L 68.0958 106.735 L 68.1311 106.987 L 68.0908 107.244 L 67.9798 107.436 L 67.8033 107.557 L 67.5764 107.597 L 67.5764 107.597 z M 70.1585 104.482 L 70.1585 102.076 L 69.7248 102.076 L 69.7248 103.977 L 69.4877 103.871 L 69.2911 103.69 L 68.933 103.13 L 68.7817 102.833 L 68.5648 102.5 L 68.3127 102.263 L 68.0151 102.127 L 67.6772 102.076 L 67.2536 102.162 L 66.9207 102.399 L 66.7089 102.762 L 66.6333 103.231 L 66.719 103.715 L 66.956 104.083 L 67.3343 104.32 L 67.8336 104.401 L 67.9042 104.401 L 67.9042 103.942 L 67.8638 103.942 L 67.5209 103.897 L 67.2687 103.761 L 67.1073 103.544 L 67.0519 103.256 L 67.1023 102.964 L 67.2284 102.747 L 67.4251 102.606 L 67.6722 102.555 L 67.9042 102.591 L 68.1009 102.686 L 68.2723 102.848 L 68.4236 103.07 L 68.585 103.367 L 68.8977 103.861 L 69.2305 104.209 L 69.634 104.416 L 70.1434 104.482 L 70.1585 104.482 L 70.1585 104.482 z M 70.1585 99.8632 L 70.1585 99.1672 L 69.4071 99.1672 L 69.4071 99.8632 L 70.1585 99.8632 L 70.1585 99.8632 z M 69.2457 97.0298 L 69.6592 96.9189 L 69.982 96.6718 L 70.1837 96.3087 L 70.2594 95.8447 L 70.1686 95.3353 L 69.9215 94.9369 L 69.5281 94.6848 L 69.0238 94.5889 L 68.5547 94.6747 L 68.1866 94.9167 L 67.9496 95.295 L 67.8638 95.7842 L 67.9243 96.1624 L 68.0908 96.4549 L 67.1477 96.3137 L 67.1477 94.7806 L 66.7341 94.7806 L 66.7341 96.6516 L 68.59 96.929 L 68.59 96.5255 L 68.353 96.233 L 68.2673 95.8598 L 68.3228 95.537 L 68.4841 95.2899 L 68.7313 95.1336 L 69.049 95.0781 L 69.3667 95.1336 L 69.6138 95.295 L 69.7702 95.5421 L 69.8256 95.8598 L 69.7903 96.1271 L 69.6743 96.3339 L 69.4928 96.4852 L 69.2457 96.5609 L 69.2457 97.0298 L 69.2457 97.0298 z M 70.1585 91.7657 L 70.1585 91.3119 L 69.2911 91.3119 L 69.2911 90.8126 L 68.8876 90.8126 L 68.8876 91.3119 L 66.7341 91.3119 L 66.7341 91.7708 L 68.8473 93.3039 L 69.2911 93.3039 L 69.2911 91.7657 L 70.1585 91.7657 L 70.1585 91.7657 z M 68.8876 92.8803 L 67.3192 91.7657 L 68.8876 91.7657 L 68.8876 92.8803 L 68.8876 92.8803 z" stroke="none" fill-rule="evenodd" fill="rgb(0, 0, 0)"/><path d="M 72.6761 12.0461 L 72.1585 10.1142 L 71.6409 12.0461"/><path d="M 71.6409 190.72 L 72.1585 192.652 L 72.6761 190.72"/><path d="M 72.1585 192.652 L 72.1585 10.1142"/></g></svg>