<?xml version="1.0" encoding="utf-8" ?><!DOCTYPE svg PUBLIC "-//W3C//DTD SVG 1.1//EN" "http://www.w3.org/Graphics/SVG/1.1/DTD/svg11.dtd" 
[ <!ATTLIST svg 
  xmlns:dsy CDATA #FIXED "http://www.3ds.com/print"  
    dsy:text-version CDATA #IMPLIED > 

  <!ATTLIST text 
  xmlns:dsy CDATA #FIXED "http://www.3ds.com/print" 
    dsy:text-version CDATA #IMPLIED > 
]><svg xmlns="http://www.w3.org/2000/svg" xmlns:dsy="http://www.3ds.com/print" dsy:text-version="18000" width="594" height="420" viewBox="0 0 594 420" version="1.1"><g stroke="rgb(0, 0, 0)" stroke-width="0.13" stroke-linecap="butt" stroke-linejoin="miter" fill="none"><path d="M 5.60987 66.1721 L 5.60987 113.639"/><path d="M 131.504 71.8362 L 131.504 113.639"/></g><g stroke="rgb(0, 0, 0)" stroke-width="0.35" stroke-linecap="butt" stroke-linejoin="miter" fill="none"><circle cx="68.3976" cy="24.3685" r="9.99999"/><path d="M 100.097 72.6898 A 47 47 0 0 0 27.0276 67.5704"/><path d="M 100.097 72.6898 A 4.99999 4.99999 0 0 0 104.203 74.8362"/><path d="M 104.203 74.8362 L 126.504 74.8362"/><path d="M 126.504 74.8362 A 4.99999 4.99999 0 0 0 131.504 69.8362"/><path d="M 131.504 69.8362 L 131.504 9.83618"/><path d="M 131.504 9.83618 A 4.99999 4.99999 0 0 0 126.504 4.83618"/><path d="M 10.6099 4.83618 L 126.504 4.83618"/><path d="M 10.6099 4.83618 A 4.99999 4.99999 0 0 0 5.60988 9.83618"/><path d="M 5.60987 64.1721 L 5.60987 9.83618"/><path d="M 5.60988 64.1721 A 4.99999 4.99999 0 0 0 10.6099 69.1721"/><path d="M 23.3599 69.1721 L 10.6099 69.1721"/><path d="M 23.3599 69.1721 A 4.99999 4.99999 0 0 0 27.0276 67.5704"/></g><g stroke="rgb(0, 0, 0)" stroke-width="0.13" stroke-linecap="butt" stroke-linejoin="miter" fill="none"><path d="M 29.4576 141.301 L 30.9273 141.301 L 31.5901 133.116 L 31.5901 127.237 L 28.7659 127.237 L 28.7659 133.116 L 29.4576 141.301 L 29.4576 141.301 z M 28.1607 147.266 L 32.1665 147.266 L 32.1665 142.972 L 28.1607 142.972 L 28.1607 147.266 L 28.1607 147.266 z M 46.8063 141.301 L 48.276 141.301 L 48.9388 133.116 L 48.9388 127.237 L 46.1146 127.237 L 46.1146 133.116 L 46.8063 141.301 L 46.8063 141.301 z M 45.5094 147.266 L 49.5152 147.266 L 49.5152 142.972 L 45.5094 142.972 L 45.5094 147.266 L 45.5094 147.266 z M 64.155 141.301 L 65.6247 141.301 L 66.2876 133.116 L 66.2876 127.237 L 63.4633 127.237 L 63.4633 133.116 L 64.155 141.301 L 64.155 141.301 z M 62.8582 147.266 L 66.8639 147.266 L 66.8639 142.972 L 62.8582 142.972 L 62.8582 147.266 L 62.8582 147.266 z M 90.812 147.266 L 93.4633 147.266 L 95.5671 141.387 L 103.55 141.387 L 105.654 147.266 L 108.362 147.266 L 101.043 127.237 L 98.1031 127.237 L 90.812 147.266 L 90.812 147.266 z M 96.4893 138.938 L 99.5729 130.119 L 102.656 138.938 L 96.4893 138.938 L 96.4893 138.938 z M 137.815 144.874 L 137.815 147.266 L 140.351 147.266 L 140.351 126.575 L 137.844 126.575 L 137.844 134.154 L 135.913 131.964 L 134.731 131.445 L 133.377 131.243 L 130.927 131.82 L 129.025 133.433 L 127.786 136.027 L 127.354 139.514 L 127.786 143.001 L 129.025 145.624 L 130.927 147.266 L 133.377 147.814 L 134.731 147.612 L 135.942 147.093 L 137.815 144.874 L 137.815 144.874 z M 133.809 133.52 L 135.481 133.923 L 136.749 135.047 L 137.498 136.92 L 137.786 139.514 L 137.498 142.137 L 136.749 144.01 L 135.481 145.163 L 133.809 145.537 L 132.224 145.163 L 131.014 144.01 L 130.207 142.108 L 129.948 139.514 L 130.207 136.949 L 131.014 135.076 L 132.224 133.923 L 133.809 133.52 L 133.809 133.52 z M 149.631 129.687 L 151.331 129.687 L 155.337 124.788 L 152.512 124.788 L 149.631 129.687 L 149.631 129.687 z M 147.873 140.263 L 158.017 140.263 L 158.045 139.082 L 157.584 135.768 L 156.316 133.289 L 154.299 131.791 L 151.619 131.243 L 148.997 131.82 L 146.979 133.433 L 145.682 136.056 L 145.221 139.514 L 145.654 143.059 L 146.95 145.652 L 148.939 147.266 L 151.533 147.814 L 153.78 147.439 L 155.625 146.459 L 156.979 144.903 L 157.757 142.828 L 155.25 142.828 L 154.731 143.981 L 153.982 144.846 L 151.85 145.537 L 150.207 145.22 L 148.968 144.212 L 148.161 142.569 L 147.873 140.35 L 147.873 140.263 L 147.873 140.263 z M 147.873 138.131 L 148.19 136.142 L 148.968 134.673 L 150.149 133.779 L 151.705 133.462 L 153.233 133.779 L 154.414 134.673 L 155.135 136.142 L 155.394 138.131 L 147.873 138.131 L 147.873 138.131 z M 172.858 136.92 L 175.365 136.92 L 174.847 134.615 L 173.607 132.799 L 171.677 131.675 L 169.169 131.243 L 166.403 131.82 L 164.299 133.433 L 162.973 136.056 L 162.512 139.572 L 162.945 143.059 L 164.241 145.652 L 166.288 147.266 L 169.083 147.814 L 171.561 147.382 L 173.492 146.171 L 174.818 144.269 L 175.394 141.733 L 172.973 141.733 L 172.541 143.347 L 171.734 144.557 L 170.582 145.307 L 169.169 145.537 L 167.411 145.163 L 166.143 144.01 L 165.365 142.137 L 165.106 139.485 L 165.365 136.892 L 166.172 135.018 L 167.469 133.866 L 169.169 133.462 L 170.668 133.722 L 171.792 134.384 L 172.541 135.48 L 172.858 136.92 L 172.858 136.92 z M 179.602 139.543 L 180.063 143.059 L 181.388 145.652 L 183.492 147.266 L 186.316 147.814 L 189.112 147.266 L 191.216 145.681 L 192.541 143.088 L 193.031 139.543 L 192.541 136.027 L 191.216 133.405 L 189.112 131.82 L 186.316 131.243 L 183.492 131.82 L 181.388 133.433 L 180.063 136.027 L 179.602 139.543 L 179.602 139.543 z M 182.195 139.514 L 182.455 136.92 L 183.262 135.047 L 184.558 133.895 L 186.316 133.491 L 188.046 133.895 L 189.342 135.018 L 190.149 136.92 L 190.437 139.514 L 190.149 142.137 L 189.342 144.039 L 188.046 145.191 L 186.316 145.566 L 184.558 145.191 L 183.262 144.039 L 182.455 142.137 L 182.195 139.514 L 182.195 139.514 z M 209.631 131.791 L 207.094 131.791 L 207.094 140.724 L 206.806 142.799 L 205.971 144.298 L 204.674 145.22 L 202.973 145.508 L 201.619 145.278 L 200.754 144.586 L 200.265 143.405 L 200.149 141.733 L 200.149 131.791 L 197.613 131.791 L 197.613 141.964 L 197.7 144.01 L 198.247 145.71 L 199.919 147.266 L 202.599 147.814 L 204.04 147.612 L 205.279 147.093 L 206.345 146.2 L 207.21 144.903 L 207.21 147.266 L 209.631 147.266 L 209.631 131.791 L 209.631 131.791 z M 217.44 134.183 L 217.44 131.791 L 214.904 131.791 L 214.904 153.26 L 217.44 153.26 L 217.44 144.903 L 218.334 146.258 L 219.342 147.151 L 221.878 147.814 L 224.299 147.266 L 226.201 145.624 L 227.44 143.03 L 227.901 139.514 L 227.44 136.027 L 226.201 133.433 L 224.299 131.82 L 221.878 131.243 L 220.495 131.416 L 219.314 131.964 L 218.305 132.886 L 217.44 134.183 L 217.44 134.183 z M 221.446 145.537 L 219.746 145.163 L 218.507 144.01 L 217.729 142.137 L 217.469 139.514 L 217.729 136.92 L 218.507 135.047 L 219.746 133.923 L 221.446 133.52 L 223.002 133.923 L 224.241 135.076 L 225.02 136.949 L 225.308 139.514 L 225.02 142.108 L 224.241 144.01 L 223.002 145.163 L 221.446 145.537 L 221.446 145.537 z M 234.616 140.263 L 244.76 140.263 L 244.789 139.082 L 244.328 135.768 L 243.06 133.289 L 241.043 131.791 L 238.363 131.243 L 235.74 131.82 L 233.723 133.433 L 232.426 136.056 L 231.965 139.514 L 232.397 143.059 L 233.694 145.652 L 235.682 147.266 L 238.276 147.814 L 240.524 147.439 L 242.368 146.459 L 243.723 144.903 L 244.501 142.828 L 241.994 142.828 L 241.475 143.981 L 240.726 144.846 L 238.593 145.537 L 236.95 145.22 L 235.711 144.212 L 234.904 142.569 L 234.616 140.35 L 234.616 140.263 L 234.616 140.263 z M 234.616 138.131 L 234.933 136.142 L 235.711 134.673 L 236.893 133.779 L 238.449 133.462 L 239.976 133.779 L 241.158 134.673 L 241.878 136.142 L 242.138 138.131 L 234.616 138.131 L 234.616 138.131 z M 250.697 147.266 L 253.233 147.266 L 253.233 138.419 L 253.492 136.286 L 254.27 134.759 L 255.538 133.837 L 257.239 133.52 L 258.507 133.722 L 259.458 134.298 L 260.034 135.278 L 260.236 136.603 L 262.801 136.603 L 262.455 134.269 L 261.504 132.598 L 259.919 131.589 L 257.757 131.243 L 256.288 131.474 L 255.02 132.05 L 253.896 133.03 L 253.002 134.356 L 253.002 131.791 L 250.697 131.791 L 250.697 147.266 L 250.697 147.266 z M 286.662 140.263 L 296.806 140.263 L 296.835 139.082 L 296.374 135.768 L 295.106 133.289 L 293.089 131.791 L 290.409 131.243 L 287.786 131.82 L 285.769 133.433 L 284.472 136.056 L 284.011 139.514 L 284.443 143.059 L 285.74 145.652 L 287.729 147.266 L 290.322 147.814 L 292.57 147.439 L 294.414 146.459 L 295.769 144.903 L 296.547 142.828 L 294.04 142.828 L 293.521 143.981 L 292.772 144.846 L 290.639 145.537 L 288.997 145.22 L 287.757 144.212 L 286.95 142.569 L 286.662 140.35 L 286.662 140.263 L 286.662 140.263 z M 286.662 138.131 L 286.979 136.142 L 287.757 134.673 L 288.939 133.779 L 290.495 133.462 L 292.022 133.779 L 293.204 134.673 L 293.924 136.142 L 294.184 138.131 L 286.662 138.131 L 286.662 138.131 z M 301.792 147.266 L 304.328 147.266 L 304.328 138.333 L 304.587 136.286 L 305.423 134.788 L 306.72 133.866 L 308.449 133.52 L 309.832 133.808 L 310.697 134.586 L 311.129 135.883 L 311.273 137.612 L 311.273 147.266 L 313.809 147.266 L 313.809 137.093 L 313.694 135.047 L 313.175 133.347 L 311.475 131.791 L 308.824 131.243 L 307.354 131.445 L 306.115 131.992 L 305.048 132.915 L 304.213 134.154 L 304.213 131.791 L 301.792 131.791 L 301.792 147.266 L 301.792 147.266 z M 335.423 147.266 L 349.169 147.266 L 349.169 144.788 L 338.305 144.788 L 338.91 143.433 L 339.948 142.309 L 343.146 140.263 L 344.847 139.399 L 346.749 138.16 L 348.103 136.719 L 348.881 135.018 L 349.169 133.088 L 348.68 130.667 L 347.325 128.765 L 345.25 127.554 L 342.57 127.122 L 339.803 127.612 L 337.7 128.967 L 336.345 131.128 L 335.884 133.981 L 335.884 134.384 L 338.507 134.384 L 338.507 134.154 L 338.766 132.194 L 339.544 130.753 L 340.783 129.831 L 342.426 129.514 L 344.097 129.802 L 345.337 130.523 L 346.143 131.647 L 346.432 133.059 L 346.23 134.384 L 345.682 135.508 L 344.76 136.488 L 343.492 137.353 L 341.792 138.275 L 338.968 140.062 L 336.979 141.964 L 335.798 144.269 L 335.423 147.18 L 335.423 147.266 L 335.423 147.266 z M 374.703 134.471 L 374.703 147.266 L 377.239 147.266 L 377.239 134.471 L 383.002 134.471 L 383.002 132.309 L 377.239 132.309 L 377.239 131.358 L 377.44 130.206 L 378.103 129.428 L 379.227 128.967 L 380.841 128.794 L 383.002 128.909 L 383.002 126.719 L 380.264 126.575 L 377.786 126.834 L 376.057 127.612 L 375.02 128.967 L 374.703 130.897 L 374.703 132.309 L 370.063 132.309 L 370.063 134.471 L 374.703 134.471 L 374.703 134.471 z M 387.786 139.543 L 388.247 143.059 L 389.573 145.652 L 391.677 147.266 L 394.501 147.814 L 397.296 147.266 L 399.4 145.681 L 400.726 143.088 L 401.215 139.543 L 400.726 136.027 L 399.4 133.405 L 397.296 131.82 L 394.501 131.243 L 391.677 131.82 L 389.573 133.433 L 388.247 136.027 L 387.786 139.543 L 387.786 139.543 z M 390.38 139.514 L 390.639 136.92 L 391.446 135.047 L 392.743 133.895 L 394.501 133.491 L 396.23 133.895 L 397.527 135.018 L 398.334 136.92 L 398.622 139.514 L 398.334 142.137 L 397.527 144.039 L 396.23 145.191 L 394.501 145.566 L 392.743 145.191 L 391.446 144.039 L 390.639 142.137 L 390.38 139.514 L 390.38 139.514 z M 413.636 145.134 L 413.636 132.309 L 407.123 132.309 L 407.123 134.471 L 411.1 134.471 L 411.1 145.134 L 405.913 145.134 L 405.913 147.266 L 418.881 147.266 L 418.881 145.134 L 413.636 145.134 L 413.636 145.134 z M 413.723 126.575 L 411.043 126.575 L 411.043 129.456 L 413.723 129.456 L 413.723 126.575 L 413.723 126.575 z M 430.812 138.246 L 428.362 137.67 L 426.547 137.007 L 425.942 135.652 L 426.115 134.701 L 426.72 134.01 L 427.7 133.578 L 429.112 133.405 L 430.466 133.578 L 431.532 134.096 L 432.224 134.874 L 432.512 135.912 L 434.991 135.912 L 434.991 135.854 L 434.558 133.981 L 433.377 132.511 L 431.532 131.589 L 429.112 131.243 L 426.662 131.589 L 424.875 132.54 L 423.751 133.952 L 423.406 135.739 L 423.665 137.468 L 424.472 138.678 L 425.798 139.543 L 427.728 140.148 L 430.553 140.84 L 432.282 141.56 L 432.743 142.137 L 432.916 143.001 L 432.656 144.067 L 431.965 144.874 L 430.841 145.393 L 429.342 145.566 L 427.757 145.393 L 426.605 144.788 L 425.826 143.808 L 425.509 142.454 L 423.06 142.454 L 423.463 144.759 L 424.645 146.431 L 426.518 147.439 L 429.112 147.814 L 431.821 147.439 L 433.809 146.431 L 435.02 144.817 L 435.452 142.713 L 435.135 140.897 L 434.241 139.658 L 432.772 138.851 L 430.812 138.246 L 430.812 138.246 z" stroke="none" fill-rule="evenodd" fill="rgb(0, 0, 0)"/></g><g stroke="rgb(0, 0, 0)" stroke-width="0.13" stroke-linecap="butt" stroke-linejoin="miter" fill="none"><path d="M 23.0311 176.603 L 23.6651 178.967 L 25.0772 180.811 L 27.1521 181.964 L 29.8034 182.396 L 32.7141 181.877 L 34.9907 180.465 L 36.4316 178.217 L 36.9792 175.335 L 36.4893 172.655 L 35.106 170.552 L 32.9446 169.197 L 30.1492 168.707 L 27.9878 169.053 L 26.3164 170.004 L 27.1233 164.615 L 35.8841 164.615 L 35.8841 162.252 L 25.1924 162.252 L 23.6074 172.857 L 25.9129 172.857 L 27.5844 171.503 L 29.7169 171.013 L 31.5613 171.33 L 32.9734 172.252 L 33.8668 173.664 L 34.1838 175.48 L 33.8668 177.295 L 32.9446 178.707 L 31.5325 179.601 L 29.7169 179.918 L 28.1896 179.716 L 27.008 179.053 L 26.1435 178.016 L 25.7112 176.603 L 23.0311 176.603 L 23.0311 176.603 z M 40.5527 181.82 L 42.887 181.82 L 42.887 171.474 L 43.0311 169.918 L 43.4633 168.794 L 44.1262 168.131 L 44.9907 167.871 L 45.6824 168.102 L 46.1435 168.678 L 46.374 169.658 L 46.4605 170.955 L 46.4605 181.82 L 48.6507 181.82 L 48.6507 171.474 L 48.7948 169.946 L 49.227 168.822 L 49.9187 168.131 L 50.7832 167.871 L 51.4749 168.102 L 51.936 168.678 L 52.2241 170.955 L 52.2241 181.82 L 54.5584 181.82 L 54.5584 171.128 L 54.4143 168.909 L 53.9533 167.209 L 53.0311 166.171 L 51.5325 165.797 L 49.7746 166.373 L 48.4201 168.044 L 47.3538 166.402 L 45.5671 165.797 L 43.9244 166.373 L 42.8005 167.987 L 42.8005 166.344 L 40.5527 166.344 L 40.5527 181.82 L 40.5527 181.82 z M 57.9014 181.82 L 60.2357 181.82 L 60.2357 171.474 L 60.3798 169.918 L 60.812 168.794 L 61.4749 168.131 L 62.3394 167.871 L 63.0311 168.102 L 63.4922 168.678 L 63.7227 169.658 L 63.8092 170.955 L 63.8092 181.82 L 65.9994 181.82 L 65.9994 171.474 L 66.1435 169.946 L 66.5757 168.822 L 67.2674 168.131 L 68.1319 167.871 L 68.8236 168.102 L 69.2847 168.678 L 69.5729 170.955 L 69.5729 181.82 L 71.9071 181.82 L 71.9071 171.128 L 71.7631 168.909 L 71.302 167.209 L 70.3798 166.171 L 68.8812 165.797 L 67.1233 166.373 L 65.7688 168.044 L 64.7025 166.402 L 62.9158 165.797 L 61.2731 166.373 L 60.1492 167.987 L 60.1492 166.344 L 57.9014 166.344 L 57.9014 181.82 L 57.9014 181.82 z M 103.118 179.428 L 103.118 181.82 L 105.654 181.82 L 105.654 161.128 L 103.146 161.128 L 103.146 168.707 L 101.215 166.517 L 100.034 165.998 L 98.6795 165.797 L 96.2299 166.373 L 94.3279 167.987 L 93.0887 170.58 L 92.6564 174.067 L 93.0887 177.554 L 94.3279 180.177 L 96.2299 181.82 L 98.6795 182.367 L 100.034 182.165 L 101.244 181.647 L 103.118 179.428 L 103.118 179.428 z M 99.1118 168.073 L 100.783 168.477 L 102.051 169.601 L 102.801 171.474 L 103.089 174.067 L 102.801 176.69 L 102.051 178.563 L 100.783 179.716 L 99.1118 180.09 L 97.5267 179.716 L 96.3164 178.563 L 95.5095 176.661 L 95.2501 174.067 L 95.5095 171.503 L 96.3164 169.629 L 97.5267 168.477 L 99.1118 168.073 L 99.1118 168.073 z M 115.971 161.099 L 115.971 168.938 L 117.901 168.938 L 117.901 161.099 L 115.971 161.099 L 115.971 161.099 z M 132.282 164.24 L 133.982 164.24 L 137.988 159.341 L 135.164 159.341 L 132.282 164.24 L 132.282 164.24 z M 130.524 174.817 L 140.668 174.817 L 140.697 173.635 L 140.236 170.321 L 138.968 167.843 L 136.95 166.344 L 134.27 165.797 L 131.648 166.373 L 129.63 167.987 L 128.334 170.609 L 127.873 174.067 L 128.305 177.612 L 129.602 180.206 L 131.59 181.82 L 134.184 182.367 L 136.432 181.992 L 138.276 181.013 L 139.63 179.456 L 140.409 177.382 L 137.901 177.382 L 137.383 178.534 L 136.633 179.399 L 134.501 180.09 L 132.858 179.773 L 131.619 178.765 L 130.812 177.122 L 130.524 174.903 L 130.524 174.817 L 130.524 174.817 z M 130.524 172.684 L 130.841 170.696 L 131.619 169.226 L 132.801 168.333 L 134.357 168.016 L 135.884 168.333 L 137.066 169.226 L 137.786 170.696 L 138.045 172.684 L 130.524 172.684 L 130.524 172.684 z M 148.045 168.736 L 148.045 166.344 L 145.509 166.344 L 145.509 187.814 L 148.045 187.814 L 148.045 179.456 L 148.939 180.811 L 149.948 181.704 L 152.484 182.367 L 154.904 181.82 L 156.806 180.177 L 158.045 177.583 L 158.507 174.067 L 158.045 170.58 L 156.806 167.987 L 154.904 166.373 L 152.484 165.797 L 151.1 165.969 L 149.919 166.517 L 148.91 167.439 L 148.045 168.736 L 148.045 168.736 z M 152.051 180.09 L 150.351 179.716 L 149.112 178.563 L 148.334 176.69 L 148.074 174.067 L 148.334 171.474 L 149.112 169.601 L 150.351 168.477 L 152.051 168.073 L 153.607 168.477 L 154.847 169.629 L 155.625 171.503 L 155.913 174.067 L 155.625 176.661 L 154.847 178.563 L 153.607 179.716 L 152.051 180.09 L 152.051 180.09 z M 172.195 179.802 L 172.195 179.889 L 172.339 180.869 L 172.772 181.56 L 174.587 182.108 L 175.999 181.877 L 175.999 179.918 L 175.394 180.004 L 174.587 179.629 L 174.443 178.477 L 174.443 170.465 L 174.097 168.419 L 173.089 166.978 L 171.331 166.114 L 168.852 165.797 L 166.432 166.142 L 164.645 167.122 L 163.521 168.65 L 163.146 170.667 L 163.146 170.84 L 165.423 170.84 L 165.625 169.629 L 166.259 168.765 L 167.296 168.246 L 168.766 168.044 L 170.178 168.188 L 171.187 168.621 L 171.792 169.37 L 171.994 170.407 L 171.878 171.618 L 171.417 172.223 L 170.265 172.511 L 168.103 172.742 L 165.625 173.26 L 163.867 174.183 L 162.829 175.624 L 162.512 177.756 L 162.801 179.658 L 163.694 181.07 L 165.135 181.964 L 167.123 182.281 L 169.803 181.675 L 172.195 179.802 L 172.195 179.802 z M 171.907 176.402 L 171.561 177.9 L 170.639 179.053 L 169.256 179.802 L 167.556 180.062 L 166.46 179.918 L 165.682 179.456 L 165.192 178.65 L 165.048 177.526 L 165.164 176.517 L 165.625 175.797 L 167.469 174.99 L 169.803 174.644 L 171.907 173.952 L 171.907 176.402 L 171.907 176.402 z M 188.103 179.687 L 188.103 166.863 L 181.59 166.863 L 181.59 169.024 L 185.567 169.024 L 185.567 179.687 L 180.38 179.687 L 180.38 181.82 L 193.348 181.82 L 193.348 179.687 L 188.103 179.687 L 188.103 179.687 z M 188.19 161.128 L 185.509 161.128 L 185.509 164.01 L 188.19 164.01 L 188.19 161.128 L 188.19 161.128 z M 205.279 172.799 L 202.829 172.223 L 201.014 171.56 L 200.409 170.206 L 200.582 169.255 L 201.187 168.563 L 202.167 168.131 L 203.579 167.958 L 204.933 168.131 L 205.999 168.65 L 206.691 169.428 L 206.979 170.465 L 209.458 170.465 L 209.458 170.407 L 209.025 168.534 L 207.844 167.065 L 205.999 166.142 L 203.579 165.797 L 201.129 166.142 L 199.342 167.093 L 198.218 168.505 L 197.873 170.292 L 198.132 172.021 L 198.939 173.232 L 200.265 174.096 L 202.195 174.701 L 205.02 175.393 L 206.749 176.114 L 207.21 176.69 L 207.383 177.554 L 207.123 178.621 L 206.432 179.428 L 205.308 179.946 L 203.809 180.119 L 202.224 179.946 L 201.071 179.341 L 200.293 178.361 L 199.976 177.007 L 197.527 177.007 L 197.93 179.312 L 199.112 180.984 L 200.985 181.992 L 203.579 182.367 L 206.288 181.992 L 208.276 180.984 L 209.486 179.37 L 209.919 177.266 L 209.602 175.451 L 208.708 174.212 L 207.239 173.405 L 205.279 172.799 L 205.279 172.799 z M 222.628 172.799 L 220.178 172.223 L 218.363 171.56 L 217.757 170.206 L 217.93 169.255 L 218.535 168.563 L 219.515 168.131 L 220.927 167.958 L 222.282 168.131 L 223.348 168.65 L 224.04 169.428 L 224.328 170.465 L 226.806 170.465 L 226.806 170.407 L 226.374 168.534 L 225.192 167.065 L 223.348 166.142 L 220.927 165.797 L 218.478 166.142 L 216.691 167.093 L 215.567 168.505 L 215.221 170.292 L 215.481 172.021 L 216.288 173.232 L 217.613 174.096 L 219.544 174.701 L 222.368 175.393 L 224.097 176.114 L 224.558 176.69 L 224.731 177.554 L 224.472 178.621 L 223.78 179.428 L 222.656 179.946 L 221.158 180.119 L 219.573 179.946 L 218.42 179.341 L 217.642 178.361 L 217.325 177.007 L 214.875 177.007 L 215.279 179.312 L 216.46 180.984 L 218.334 181.992 L 220.927 182.367 L 223.636 181.992 L 225.625 180.984 L 226.835 179.37 L 227.267 177.266 L 226.95 175.451 L 226.057 174.212 L 224.587 173.405 L 222.628 172.799 L 222.628 172.799 z M 234.616 174.817 L 244.76 174.817 L 244.789 173.635 L 244.328 170.321 L 243.06 167.843 L 241.043 166.344 L 238.363 165.797 L 235.74 166.373 L 233.723 167.987 L 232.426 170.609 L 231.965 174.067 L 232.397 177.612 L 233.694 180.206 L 235.682 181.82 L 238.276 182.367 L 240.524 181.992 L 242.368 181.013 L 243.723 179.456 L 244.501 177.382 L 241.994 177.382 L 241.475 178.534 L 240.726 179.399 L 238.593 180.09 L 236.95 179.773 L 235.711 178.765 L 234.904 177.122 L 234.616 174.903 L 234.616 174.817 L 234.616 174.817 z M 234.616 172.684 L 234.933 170.696 L 235.711 169.226 L 236.893 168.333 L 238.449 168.016 L 239.976 168.333 L 241.158 169.226 L 241.878 170.696 L 242.138 172.684 L 234.616 172.684 L 234.616 172.684 z M 261.677 166.344 L 259.141 166.344 L 259.141 175.278 L 258.852 177.353 L 258.017 178.851 L 256.72 179.773 L 255.02 180.062 L 253.665 179.831 L 252.801 179.139 L 252.311 177.958 L 252.195 176.286 L 252.195 166.344 L 249.659 166.344 L 249.659 176.517 L 249.746 178.563 L 250.293 180.263 L 251.965 181.82 L 254.645 182.367 L 256.086 182.165 L 257.325 181.647 L 258.391 180.753 L 259.256 179.456 L 259.256 181.82 L 261.677 181.82 L 261.677 166.344 L 261.677 166.344 z M 268.046 181.82 L 270.582 181.82 L 270.582 172.972 L 270.841 170.84 L 271.619 169.312 L 272.887 168.39 L 274.587 168.073 L 275.855 168.275 L 276.806 168.851 L 277.383 169.831 L 277.584 171.157 L 280.149 171.157 L 279.803 168.822 L 278.852 167.151 L 277.267 166.142 L 275.106 165.797 L 273.636 166.027 L 272.368 166.603 L 271.244 167.583 L 270.351 168.909 L 270.351 166.344 L 268.046 166.344 L 268.046 181.82 L 268.046 181.82 z M 307.037 175.854 L 308.507 175.854 L 309.169 167.67 L 309.169 161.791 L 306.345 161.791 L 306.345 167.67 L 307.037 175.854 L 307.037 175.854 z M 305.74 181.82 L 309.746 181.82 L 309.746 177.526 L 305.74 177.526 L 305.74 181.82 L 305.74 181.82 z M 324.386 175.854 L 325.855 175.854 L 326.518 167.67 L 326.518 161.791 L 323.694 161.791 L 323.694 167.67 L 324.386 175.854 L 324.386 175.854 z M 323.089 181.82 L 327.094 181.82 L 327.094 177.526 L 323.089 177.526 L 323.089 181.82 L 323.089 181.82 z M 341.734 175.854 L 343.204 175.854 L 343.867 167.67 L 343.867 161.791 L 341.043 161.791 L 341.043 167.67 L 341.734 175.854 L 341.734 175.854 z M 340.437 181.82 L 344.443 181.82 L 344.443 177.526 L 340.437 177.526 L 340.437 181.82 L 340.437 181.82 z" stroke="none" fill-rule="evenodd" fill="rgb(0, 0, 0)"/></g><g stroke="rgb(0, 0, 0)" stroke-width="0.13" stroke-linecap="butt" stroke-linejoin="miter" fill="none"><path d="M 59.1259 109.639 L 59.5849 109.639 L 59.5849 106.114 L 59.2419 106.114 L 59.1512 106.422 L 58.9696 106.629 L 58.6922 106.75 L 58.3089 106.79 L 58.3089 107.148 L 59.1259 107.148 L 59.1259 109.639 L 59.1259 109.639 z M 61.7222 109.639 L 64.1278 109.639 L 64.1278 109.206 L 62.2265 109.206 L 62.3324 108.969 L 62.514 108.772 L 63.0738 108.414 L 63.3713 108.263 L 63.7042 108.046 L 63.9412 107.794 L 64.0774 107.496 L 64.1278 107.158 L 64.0421 106.735 L 63.805 106.402 L 63.4419 106.19 L 62.9729 106.114 L 62.4888 106.2 L 62.1206 106.437 L 61.8836 106.815 L 61.8029 107.315 L 61.8029 107.385 L 62.2618 107.385 L 62.2618 107.345 L 62.3072 107.002 L 62.4434 106.75 L 62.6602 106.588 L 62.9477 106.533 L 63.2402 106.583 L 63.4571 106.709 L 63.5983 106.906 L 63.6487 107.153 L 63.6134 107.385 L 63.5176 107.582 L 63.3562 107.753 L 63.1343 107.905 L 62.8368 108.066 L 62.3425 108.379 L 61.9945 108.711 L 61.7878 109.115 L 61.7222 109.624 L 61.7222 109.639 L 61.7222 109.639 z M 65.438 108.727 L 65.549 109.14 L 65.7961 109.463 L 66.1592 109.665 L 66.6232 109.74 L 67.1326 109.65 L 67.531 109.402 L 67.7831 109.009 L 67.879 108.505 L 67.7932 108.036 L 67.5512 107.668 L 67.1729 107.431 L 66.6837 107.345 L 66.3055 107.405 L 66.013 107.572 L 66.1542 106.629 L 67.6873 106.629 L 67.6873 106.215 L 65.8163 106.215 L 65.5389 108.071 L 65.9424 108.071 L 66.2349 107.834 L 66.6081 107.748 L 66.9308 107.804 L 67.178 107.965 L 67.3343 108.212 L 67.3898 108.53 L 67.3343 108.848 L 67.1729 109.095 L 66.9258 109.251 L 66.6081 109.307 L 66.3408 109.271 L 66.134 109.155 L 65.9827 108.974 L 65.9071 108.727 L 65.438 108.727 L 65.438 108.727 z M 70.0768 109.639 L 70.7728 109.639 L 70.7728 108.888 L 70.0768 108.888 L 70.0768 109.639 L 70.0768 109.639 z M 73.5355 107.753 L 73.2782 107.894 L 73.1017 108.091 L 72.9908 108.338 L 72.9555 108.636 L 73.0362 109.085 L 73.2682 109.433 L 73.6464 109.655 L 74.1608 109.74 L 74.6702 109.655 L 75.0484 109.433 L 75.2804 109.085 L 75.3661 108.636 L 75.3258 108.338 L 75.2199 108.091 L 75.0383 107.894 L 74.7862 107.753 L 74.9879 107.632 L 75.1291 107.466 L 75.2148 107.264 L 75.2451 107.017 L 75.1644 106.659 L 74.9526 106.371 L 74.6097 106.185 L 74.1608 106.114 L 73.7069 106.185 L 73.364 106.371 L 73.1471 106.659 L 73.0715 107.017 L 73.0967 107.264 L 73.1824 107.466 L 73.5355 107.753 L 73.5355 107.753 z M 73.4396 108.626 L 73.485 108.358 L 73.6313 108.157 L 73.8582 108.026 L 74.1608 107.98 L 74.4584 108.026 L 74.6853 108.157 L 74.8316 108.358 L 74.882 108.626 L 74.8316 108.913 L 74.6853 109.13 L 74.4584 109.271 L 74.1608 109.317 L 73.8582 109.271 L 73.6313 109.13 L 73.485 108.913 L 73.4396 108.626 L 73.4396 108.626 z M 73.5506 107.057 L 73.5909 106.835 L 73.712 106.664 L 73.9036 106.558 L 74.1608 106.518 L 74.413 106.558 L 74.6046 106.664 L 74.7257 106.835 L 74.771 107.057 L 74.7257 107.284 L 74.6046 107.461 L 74.413 107.577 L 74.1608 107.612 L 73.9036 107.572 L 73.712 107.461 L 73.5909 107.284 L 73.5506 107.057 L 73.5506 107.057 z M 76.6865 108.772 L 76.7621 109.17 L 76.979 109.478 L 77.3219 109.67 L 77.7758 109.74 L 78.0733 109.705 L 78.3406 109.614 L 78.5676 109.458 L 78.7592 109.236 L 78.9105 108.959 L 79.0215 108.616 L 79.087 108.222 L 79.1123 107.768 L 79.0265 107.057 L 78.7794 106.538 L 78.386 106.225 L 77.8464 106.114 L 77.3522 106.205 L 76.979 106.447 L 76.7369 106.82 L 76.6562 107.289 L 76.7369 107.773 L 76.9739 108.142 L 77.327 108.374 L 77.7758 108.449 L 78.2499 108.353 L 78.6079 108.061 L 78.5272 108.621 L 78.3659 109.019 L 78.1187 109.256 L 77.7808 109.332 L 77.5186 109.297 L 77.327 109.186 L 77.2009 109.009 L 77.1504 108.772 L 76.6865 108.772 L 76.6865 108.772 z M 77.1454 107.284 L 77.1958 106.972 L 77.337 106.724 L 77.5589 106.568 L 77.8464 106.513 L 78.144 106.568 L 78.3709 106.724 L 78.5121 106.967 L 78.5676 107.279 L 78.5121 107.597 L 78.3709 107.834 L 78.1389 107.98 L 77.8313 108.031 L 77.5539 107.98 L 77.337 107.834 L 77.1958 107.602 L 77.1454 107.284 L 77.1454 107.284 z" stroke="none" fill-rule="evenodd" fill="rgb(0, 0, 0)"/><path d="M 7.54172 111.122 L 5.60987 111.639 L 7.54172 112.157"/><path d="M 129.572 112.157 L 131.504 111.639 L 129.572 111.122"/><path d="M 5.60987 111.639 L 131.504 111.639"/></g></svg>