<?xml version="1.0" encoding="utf-8" ?><!DOCTYPE svg PUBLIC "-//W3C//DTD SVG 1.1//EN" "http://www.w3.org/Graphics/SVG/1.1/DTD/svg11.dtd" 
[ <!ATTLIST svg 
  xmlns:dsy CDATA #FIXED "http://www.3ds.com/print"  
    dsy:text-version CDATA #IMPLIED > 

  <!ATTLIST text 
  xmlns:dsy CDATA #FIXED "http://www.3ds.com/print" 
    dsy:text-version CDATA #IMPLIED > 
]><svg xmlns="http://www.w3.org/2000/svg" xmlns:dsy="http://www.3ds.com/print" dsy:text-version="18000" width="1189" height="841" viewBox="0 0 1189 841" version="1.1"><g stroke="rgb(0, 0, 0)" stroke-width="0.35" stroke-linecap="butt" stroke-linejoin="miter" fill="none"><path d="M 502.85 420.137 L 465.55 420.137"/><path d="M 502.85 420.137 L 502.85 402.737"/><path d="M 465.55 402.737 L 502.85 402.737"/><path d="M 465.55 402.737 L 465.55 420.137"/><circle cx="514.27" cy="422.637" r="1.90002"/><circle cx="457.58" cy="431.197" r="1.90002"/><circle cx="484.18" cy="385.497" r="1.90002"/><path d="M 401.16 480.292 L 787.84 480.292"/><path d="M 787.84 480.292 L 767.196 407.87"/><path d="M 767.196 407.87 L 762 407.356 L 759.064 407.103 L 757.595 406.964 L 755.392 406.712 L 753.93 406.497 L 752.475 406.23 L 751.284 405.963 L 750.105 405.647 L 748.394 405.083 L 746.73 404.389 L 745.128 403.559 L 744.091 402.921 L 743.094 402.221 L 742.141 401.462 L 741.457 400.856 L 740.801 400.221 L 739.572 398.874 L 738.451 397.441 L 737.813 396.536 L 736.61 394.678 L 735.514 392.894 L 732.676 388.45 L 731.515 386.673 L 730.95 385.776 L 730.142 384.408 L 729.396 383.006 L 728.921 382.008 L 728.483 380.991 L 727.979 379.683 L 727.669 378.799 L 727.098 377.012 L 726.272 374.286 L 725.839 372.95 L 725.407 371.749 L 724.929 370.585 L 724.447 369.568 L 723.911 368.591 L 723.499 367.933 L 723.055 367.299 L 722.41 366.493 L 721.701 365.732 L 720.925 365.021 L 719.823 364.179 L 718.599 363.424 L 717.251 362.758 L 715.775 362.182 L 714.169 361.698 L 712.731 361.365 L 711.201 361.097 L 709.579 360.893 L 708.303 360.783 L 706.974 360.709"/><path d="M 470.662 360.709 L 706.974 360.709"/><path d="M 415.937 413.847 L 417.779 413.126 L 419.596 412.367 L 421.39 411.571 L 424.513 410.086 L 427.201 408.741 L 431.249 406.686 L 433.71 405.396 L 434.92 404.72 L 436.685 403.639 L 437.955 402.763 L 439.172 401.821 L 440.262 400.88 L 441.311 399.888 L 442.664 398.507 L 443.55 397.563 L 447.09 393.752 L 447.967 392.796 L 449.244 391.339 L 450.153 390.215 L 451.007 389.052 L 451.733 387.954 L 452.408 386.82 L 453.139 385.459 L 453.598 384.533 L 454.471 382.649 L 455.503 380.327 L 456.551 378.023 L 457.657 375.765 L 458.543 374.113 L 459.487 372.503 L 460.737 370.585 L 462.095 368.74 L 463.567 366.972 L 465.158 365.284 L 466.869 363.677 L 468.704 362.152 L 470.662 360.709"/><path d="M 401.16 480.292 L 415.937 413.847"/><circle cx="746.603" cy="441.585" r="2"/><circle cx="682.503" cy="386.515" r="4.5"/><circle cx="689.499" cy="376.958" r="2"/><circle cx="707.503" cy="386.515" r="4.5"/><circle cx="490.284" cy="373.857" r="2"/><circle cx="512.839" cy="378.027" r="4.5"/><circle cx="428.635" cy="441.645" r="2"/><circle cx="474.972" cy="441.752" r="9.5"/><path d="M 533.408 462.275 A 6.34998 6.34998 0 1 0 534.708 462.254"/><path d="M 533.408 462.275 L 533.408 463.835"/><path d="M 534.708 463.835 L 534.708 462.254"/><path d="M 533.408 463.835 L 534.708 463.835"/><circle cx="499.972" cy="441.752" r="9.5"/><path d="M 458.133 462.259 A 6.34998 6.34998 0 1 0 459.433 462.269"/><path d="M 458.133 462.259 L 458.133 463.835"/><path d="M 459.433 463.835 L 459.433 462.269"/><path d="M 458.133 463.835 L 459.433 463.835"/><circle cx="524.972" cy="441.752" r="9.5"/><path d="M 707.763 403.693 A 6.34998 6.34998 0 1 0 709.063 403.634"/><path d="M 707.763 403.693 L 707.763 405.228"/><path d="M 709.063 405.228 L 709.063 403.634"/><path d="M 707.763 405.228 L 709.063 405.228"/><circle cx="670.369" cy="442.344" r="9.5"/><path d="M 667.829 403.672 A 6.34998 6.34998 0 1 0 669.129 403.644"/><path d="M 667.829 403.672 L 667.829 405.228"/><path d="M 669.129 405.228 L 669.129 403.644"/><path d="M 667.829 405.228 L 669.129 405.228"/><circle cx="706.603" cy="441.593" r="8"/><path d="M 530.468 399.388 L 530.468 400.988"/><path d="M 531.768 399.388 L 530.468 399.388"/><path d="M 531.768 400.988 A 6.34998 6.34998 0 1 0 530.468 400.988"/><path d="M 531.768 400.988 L 531.768 399.388"/><circle cx="657.503" cy="386.515" r="4.5"/><circle cx="586.425" cy="369.744" r="2.95001"/><circle cx="545.79" cy="452.513" r="1.90002"/><circle cx="558.879" cy="385.647" r="2.95001"/><circle cx="641" cy="415.537" r="2.95001"/><circle cx="548" cy="415.537" r="2.95001"/><circle cx="638.196" cy="399.633" r="2.95001"/><path d="M 582.5 397.243 L 582.5 431.243"/><path d="M 582.5 397.243 L 606.5 397.243"/><path d="M 606.5 431.243 L 582.5 431.243"/><path d="M 606.5 431.243 L 606.5 397.243"/><circle cx="630.121" cy="385.647" r="2.95001"/><circle cx="571.25" cy="375.267" r="2.95001"/><circle cx="617.75" cy="375.267" r="2.95001"/><circle cx="643.21" cy="452.513" r="1.90002"/><circle cx="602.575" cy="369.744" r="2.95001"/><circle cx="550.804" cy="399.633" r="2.95001"/><circle cx="594.5" cy="385.843" r="1.90002"/></g></svg>