999
dxfrw 0.6.3
  0
SECTION
  2
HEADER
  9
$ACADVER
  1
AC1009
  9
$DWGCODEPAGE
  3
ANSI_1252
  9
$INSBASE
 10
0
 20
0
 30
0
  9
$EXTMIN
 10
-279.828855923736
 20
-26.47208321709245
 30
0
  9
$EXTMAX
 10
182.9837337209851
 20
113.7745195802862
 30
0
  9
$LIMMIN
 10
0
 20
0
  9
$LIMMAX
 10
420
 20
297
  9
$ORTHOMODE
 70
    0
  9
$REGENMODE
 70
    1
  9
$FILLMODE
 70
    1
  9
$QTEXTMODE
 70
    0
  9
$MIRRTEXT
 70
    1
  9
$DRAGMODE
 70
    2
  9
$LTSCALE
 40
1
  9
$OSMODE
 70
    0
  9
$ATTMODE
 70
    1
  9
$TEXTSIZE
 40
2.5
  9
$TRACEWID
 40
1
  9
$TEXTSTYLE
  7
STANDARD
  9
$CLAYER
  8
0
  9
$CELTYPE
  6
BYLAYER
  9
$CECOLOR
 62
  256
  9
$DIMSCALE
 40
1
  9
$DIMASZ
 40
2.5
  9
$DIMEXO
 40
0.625
  9
$DIMDLI
 40
3.75
  9
$DIMRND
 40
0
  9
$DIMDLE
 40
0
  9
$DIMEXE
 40
1.25
  9
$DIMTP
 40
0
  9
$DIMTM
 40
0
  9
$DIMTXT
 40
2.5
  9
$DIMCEN
 40
2.5
  9
$DIMTSZ
 40
0
  9
$DIMTOL
 70
    0
  9
$DIMLIM
 70
    0
  9
$DIMTIH
 70
    0
  9
$DIMTOH
 70
    0
  9
$DIMSE1
 70
    0
  9
$DIMSE2
 70
    0
  9
$DIMTAD
 70
    1
  9
$DIMZIN
 70
    8
  9
$DIMBLK
  1

  9
$DIMASO
 70
    1
  9
$DIMSHO
 70
    1
  9
$DIMPOST
  1

  9
$DIMAPOST
  1

  9
$DIMALT
 70
    0
  9
$DIMALTD
 70
    3
  9
$DIMALTF
 40
0.03937
  9
$DIMLFAC
 40
1
  9
$DIMTOFL
 70
    1
  9
$DIMTVP
 40
0
  9
$DIMTIX
 70
    0
  9
$DIMSOXD
 70
    0
  9
$DIMSAH
 70
    0
  9
$DIMBLK1
  1

  9
$DIMBLK2
  1

  9
$DIMSTYLE
  2

  9
$DIMCLRD
 70
    0
  9
$DIMCLRE
 70
    0
  9
$DIMCLRT
 70
    0
  9
$DIMTFAC
 40
1
  9
$DIMGAP
 40
0.625
  9
$LUNITS
 70
    2
  9
$LUPREC
 70
    4
  9
$SKETCHINC
 40
1
  9
$FILLETRAD
 40
2.5
  9
$AUNITS
 70
    0
  9
$AUPREC
 70
    0
  9
$MENU
  1
.
  9
$ELEVATION
 40
0
  9
$PELEVATION
 40
0
  9
$THICKNESS
 40
0
  9
$LIMCHECK
 70
    0
  9
$BLIPMODE
 70
    0
  9
$CHAMFERA
 40
2.5
  9
$CHAMFERB
 40
2.5
  9
$SKPOLY
 70
    0
  9
$USRTIMER
 70
    1
  9
$ANGBASE
 50
0
  9
$ANGDIR
 70
    0
  9
$PDMODE
 70
    0
  9
$PDSIZE
 40
0
  9
$PLINEWID
 40
0
  9
$COORDS
 70
    2
  9
$SPLFRAME
 70
    0
  9
$SPLINETYPE
 70
    6
  9
$SPLINESEGS
 70
    8
  9
$ATTDIA
 70
    1
  9
$ATTREQ
 70
    1
  9
$HANDLING
 70
    1
  9
$HANDSEED
  5
20000
  9
$SURFTAB1
 70
    6
  9
$SURFTAB2
 70
    6
  9
$SURFTYPE
 70
    6
  9
$SURFU
 70
    6
  9
$SURFV
 70
    6
  9
$UCSNAME
  2

  9
$UCSORG
 10
0
 20
0
 30
0
  9
$UCSXDIR
 10
1
 20
0
 30
0
  9
$UCSYDIR
 10
0
 20
1
 30
0
  9
$PUCSNAME
  2

  9
$PUCSORG
 10
0
 20
0
 30
0
  9
$PUCSXDIR
 10
1
 20
0
 30
0
  9
$PUCSYDIR
 10
0
 20
1
 30
0
  9
$USERI1
 70
    0
  9
$USERI2
 70
    0
  9
$USERI3
 70
    0
  9
$USERI4
 70
    0
  9
$USERI5
 70
    0
  9
$USERR1
 40
0
  9
$USERR2
 40
0
  9
$USERR3
 40
0
  9
$USERR4
 40
0
  9
$USERR5
 40
0
  9
$WORLDVIEW
 70
    1
  9
$SHADEDGE
 70
    3
  9
$SHADEDIF
 70
   70
  9
$TILEMODE
 70
    1
  9
$MAXACTVP
 70
   48
  9
$PLIMCHECK
 70
    0
  9
$PEXTMIN
 10
0
 20
0
 30
0
  9
$PEXTMAX
 10
787.839905
 20
480.29126
 30
2
  9
$GRIDMODE
 70
    0
  9
$SNAPSTYLE
 70
    0
  9
$PLIMMIN
 10
0
 20
0
  9
$PLIMMAX
 10
420
 20
297
  9
$UNITMODE
 70
    0
  9
$VISRETAIN
 70
    0
  9
$PLINEGEN
 70
    0
  9
$PSLTSCALE
 70
    1
  0
ENDSEC
  0
SECTION
  2
TABLES
  0
TABLE
  2
VPORT
 70
    1
  0
VPORT
  2
*ACTIVE
 70
    0
 10
0
 20
0
 11
1
 21
1
 12
122.9748593084931
 22
96.26212078942707
 13
0
 23
0
 14
10
 24
10
 15
10
 25
10
 16
0
 26
0
 36
1
 17
0
 27
0
 37
0
 40
257.9824837156646
 41
1.805970149253731
 42
50
 43
0
 44
0
 50
0
 51
0
 71
    0
 72
  100
 73
    1
 74
    3
 75
    0
 76
    0
 77
    0
 78
    0
  0
ENDTAB
  0
TABLE
  2
LTYPE
 70
    4
  0
LTYPE
  2
BYBLOCK
 70
    0
  3

 72
   65
 73
    0
 40
0
  0
LTYPE
  2
BYLAYER
 70
    0
  3

 72
   65
 73
    0
 40
0
  0
LTYPE
  2
CONTINUOUS
 70
    0
  3
Solid line
 72
   65
 73
    0
 40
0
  0
LTYPE
  2
DOT
 70
    0
  3
Dot . . . . . . . . . . . . . . . . . . . . . .
 72
   65
 73
    2
 40
6.35
 49
0
 49
-6.35
  0
LTYPE
  2
DOTTINY
 70
    0
  3
Dot (.15x) .....................................
 72
   65
 73
    2
 40
0.9525
 49
0
 49
-0.9525
  0
LTYPE
  2
DOT2
 70
    0
  3
Dot (.5x) .....................................
 72
   65
 73
    2
 40
3.175
 49
0
 49
-3.175
  0
LTYPE
  2
DOTX2
 70
    0
  3
Dot (2x) .  .  .  .  .  .  .  .  .  .  .  .  .
 72
   65
 73
    2
 40
12.7
 49
0
 49
-12.7
  0
LTYPE
  2
DASHED
 70
    0
  3
Dashed _ _ _ _ _ _ _ _ _ _ _ _ _ _ _ _ _
 72
   65
 73
    2
 40
19.05
 49
12.7
 49
-6.35
  0
LTYPE
  2
DASHEDTINY
 70
    0
  3
Dashed (.15x) _ _ _ _ _ _ _ _ _ _ _ _ _ _ _ _ _
 72
   65
 73
    2
 40
2.8575
 49
1.905
 49
-0.9525
  0
LTYPE
  2
DASHED2
 70
    0
  3
Dashed (.5x) _ _ _ _ _ _ _ _ _ _ _ _ _ _ _ _ _
 72
   65
 73
    2
 40
9.524999999999999
 49
6.35
 49
-3.175
  0
LTYPE
  2
DASHEDX2
 70
    0
  3
Dashed (2x) ____  ____  ____  ____  ____  ___
 72
   65
 73
    2
 40
38.09999999999999
 49
25.4
 49
-12.7
  0
LTYPE
  2
DASHDOT
 70
    0
  3
Dash dot __ . __ . __ . __ . __ . __ . __ . __
 72
   65
 73
    4
 40
25.4
 49
12.7
 49
-6.35
 49
0
 49
-6.35
  0
LTYPE
  2
DASHDOTTINY
 70
    0
  3
Dash dot (.15x) _._._._._._._._._._._._._._._.
 72
   65
 73
    4
 40
3.81
 49
1.905
 49
-0.9525
 49
0
 49
-0.9525
  0
LTYPE
  2
DASHDOT2
 70
    0
  3
Dash dot (.5x) _._._._._._._._._._._._._._._.
 72
   65
 73
    4
 40
12.7
 49
6.35
 49
-3.175
 49
0
 49
-3.175
  0
LTYPE
  2
DASHDOTX2
 70
    0
  3
Dash dot (2x) ____  .  ____  .  ____  .  ___
 72
   65
 73
    4
 40
50.8
 49
25.4
 49
-12.7
 49
0
 49
-12.7
  0
LTYPE
  2
DIVIDE
 70
    0
  3
Divide ____ . . ____ . . ____ . . ____ . . ____
 72
   65
 73
    6
 40
31.75
 49
12.7
 49
-6.35
 49
0
 49
-6.35
 49
0
 49
-6.35
  0
LTYPE
  2
DIVIDETINY
 70
    0
  3
Divide (.15x) __..__..__..__..__..__..__..__.._
 72
   65
 73
    6
 40
4.7625
 49
1.905
 49
-0.9525
 49
0
 49
-0.9525
 49
0
 49
-0.9525
  0
LTYPE
  2
DIVIDE2
 70
    0
  3
Divide (.5x) __..__..__..__..__..__..__..__.._
 72
   65
 73
    6
 40
15.875
 49
6.35
 49
-3.175
 49
0
 49
-3.175
 49
0
 49
-3.175
  0
LTYPE
  2
DIVIDEX2
 70
    0
  3
Divide (2x) ________  .  .  ________  .  .  _
 72
   65
 73
    6
 40
63.5
 49
25.4
 49
-12.7
 49
0
 49
-12.7
 49
0
 49
-12.7
  0
LTYPE
  2
BORDER
 70
    0
  3
Border __ __ . __ __ . __ __ . __ __ . __ __ .
 72
   65
 73
    6
 40
44.45
 49
12.7
 49
-6.35
 49
12.7
 49
-6.35
 49
0
 49
-6.35
  0
LTYPE
  2
BORDERTINY
 70
    0
  3
Border (.15x) __.__.__.__.__.__.__.__.__.__.__.
 72
   65
 73
    6
 40
6.6675
 49
1.905
 49
-0.9525
 49
1.905
 49
-0.9525
 49
0
 49
-0.9525
  0
LTYPE
  2
BORDER2
 70
    0
  3
Border (.5x) __.__.__.__.__.__.__.__.__.__.__.
 72
   65
 73
    6
 40
22.225
 49
6.35
 49
-3.175
 49
6.35
 49
-3.175
 49
0
 49
-3.175
  0
LTYPE
  2
BORDERX2
 70
    0
  3
Border (2x) ____  ____  .  ____  ____  .  ___
 72
   65
 73
    6
 40
88.89999999999999
 49
25.4
 49
-12.7
 49
25.4
 49
-12.7
 49
0
 49
-12.7
  0
LTYPE
  2
CENTER
 70
    0
  3
Center ____ _ ____ _ ____ _ ____ _ ____ _ ____
 72
   65
 73
    4
 40
50.8
 49
31.75
 49
-6.35
 49
6.35
 49
-6.35
  0
LTYPE
  2
CENTERTINY
 70
    0
  3
Center (.15x) ___ _ ___ _ ___ _ ___ _ ___ _ ___
 72
   65
 73
    4
 40
7.62
 49
4.7625
 49
-0.9525
 49
0.9525
 49
-0.9525
  0
LTYPE
  2
CENTER2
 70
    0
  3
Center (.5x) ___ _ ___ _ ___ _ ___ _ ___ _ ___
 72
   65
 73
    4
 40
28.575
 49
19.05
 49
-3.175
 49
3.175
 49
-3.175
  0
LTYPE
  2
CENTERX2
 70
    0
  3
Center (2x) ________  __  ________  __  _____
 72
   65
 73
    4
 40
101.6
 49
63.5
 49
-12.7
 49
12.7
 49
-12.7
  0
ENDTAB
  0
TABLE
  2
LAYER
 70
    1
  0
LAYER
  2
0
 70
    0
 62
    7
  6
CONTINUOUS
  0
ENDTAB
  0
TABLE
  2
STYLE
 70
    3
  0
STYLE
  2
STANDARD
 70
    0
 40
0
 41
1
 50
0
 71
    0
 42
1
  3
TXT
  4

  0
ENDTAB
  0
TABLE
  2
VIEW
 70
    0
  0
ENDTAB
  0
TABLE
  2
UCS
 70
    0
  0
ENDTAB
  0
TABLE
  2
APPID
 70
    1
  0
APPID
  2
ACAD
 70
    0
  0
APPID
  2
LIBRECAD
 70
    0
  0
ENDTAB
  0
TABLE
  2
DIMSTYLE
 70
    1
  0
DIMSTYLE
  2
STANDARD
 70
    0
  3

  4

  5

  6

  7

 40
1
 41
2.5
 42
0.625
 43
0.38
 44
1.25
 45
0
 46
0
 47
0
 48
0
 49
1
140
2.5
141
0.09
142
0
143
25.4
144
1
145
0
146
1
147
0.625
 71
    0
 72
    0
 73
    0
 74
    1
 75
    0
 76
    0
 77
    0
 78
    8
170
    0
171
    2
172
    0
173
    0
174
    0
175
    0
176
    0
177
    0
178
    0
  0
ENDTAB
  0
ENDSEC
  0
SECTION
  2
BLOCKS
  0
BLOCK
  8
0
  2
$MODEL_SPACE
 70
    0
 10
0
 20
0
 30
0
  3
$MODEL_SPACE
  1

  0
ENDBLK
  8
0
  0
BLOCK
  8
0
  2
$PAPER_SPACE
 70
    0
 10
0
 20
0
 30
0
  3
$PAPER_SPACE
  1

  0
ENDBLK
  8
0
  0
ENDSEC
  0
SECTION
  2
ENTITIES
  0
LINE
  5
31
  8
0
  6
BYLAYER
 62
    7
 10
-102.0064702790149
 20
54.34651058028618
 11
-139.3064882790149
 21
54.34651058028618
  0
LINE
  5
32
  8
0
  6
BYLAYER
 62
    7
 10
-102.0064702790149
 20
54.34651058028618
 11
-102.0064702790149
 21
71.74650458028617
  0
LINE
  5
33
  8
0
  6
BYLAYER
 62
    7
 10
-139.3064882790149
 20
71.74650458028617
 11
-102.0064702790149
 21
71.74650458028617
  0
LINE
  5
34
  8
0
  6
BYLAYER
 62
    7
 10
-139.3064882790149
 20
71.74650458028617
 11
-139.3064882790149
 21
54.34651058028618
  0
CIRCLE
  5
35
  8
0
  6
BYLAYER
 62
    7
 10
-90.58645727901489
 20
51.84651058028618
 40
1.9
  0
CIRCLE
  5
36
  8
0
  6
BYLAYER
 62
    7
 10
-147.2764592790149
 20
43.28651258028617
 40
1.9
  0
CIRCLE
  5
37
  8
0
  6
BYLAYER
 62
    7
 10
-120.6764832790149
 20
88.98649458028621
 40
1.9
  0
LINE
  5
38
  8
0
  6
BYLAYER
 62
    7
 10
-203.6960762790149
 20
-5.809007419713794
 11
182.9837337209851
 21
-5.809007419713794
  0
LINE
  5
39
  8
0
  6
BYLAYER
 62
    7
 10
182.9837337209851
 20
-5.809007419713794
 11
162.3399347209851
 21
66.61283758028617
  0
POLYLINE
  5
3A
  8
0
  6
BYLAYER
 62
    7
 66
    1
 10
0
 20
0
 30
0
 70
    0
  0
VERTEX
  5
3B
  8
0
  6
BYLAYER
 62
    7
 10
162.3399347209851
 20
66.61283758028617
 30
0
  0
VERTEX
  5
3C
  8
0
  6
BYLAYER
 62
    7
 10
157.1437677209851
 20
67.12760758028617
 30
0
  0
VERTEX
  5
3D
  8
0
  6
BYLAYER
 62
    7
 10
154.2077937209851
 20
67.38072058028621
 30
0
  0
VERTEX
  5
3E
  8
0
  6
BYLAYER
 62
    7
 10
152.7391047209851
 20
67.51884258028616
 30
0
  0
VERTEX
  5
3F
  8
0
  6
BYLAYER
 62
    7
 10
150.5362847209851
 20
67.7711015802862
 30
0
  0
VERTEX
  5
40
  8
0
  6
BYLAYER
 62
    7
 10
149.074187720985
 20
67.98637258028617
 30
0
  0
VERTEX
  5
41
  8
0
  6
BYLAYER
 62
    7
 10
147.6185597209851
 20
68.25349258028621
 30
0
  0
VERTEX
  5
42
  8
0
  6
BYLAYER
 62
    7
 10
146.427886720985
 20
68.52042958028619
 30
0
  0
VERTEX
  5
43
  8
0
  6
BYLAYER
 62
    7
 10
145.2486867209851
 20
68.83585958028618
 30
0
  0
VERTEX
  5
44
  8
0
  6
BYLAYER
 62
    7
 10
143.5373837209851
 20
69.40040458028619
 30
0
  0
VERTEX
  5
45
  8
0
  6
BYLAYER
 62
    7
 10
141.8735647209851
 20
70.09394658028617
 30
0
  0
VERTEX
  5
46
  8
0
  6
BYLAYER
 62
    7
 10
140.2722467209851
 20
70.92411658028618
 30
0
  0
VERTEX
  5
47
  8
0
  6
BYLAYER
 62
    7
 10
139.234892720985
 20
71.56245258028616
 30
0
  0
VERTEX
  5
48
  8
0
  6
BYLAYER
 62
    7
 10
138.2375787209851
 20
72.26246458028618
 30
0
  0
VERTEX
  5
49
  8
0
  6
BYLAYER
 62
    7
 10
137.2844537209851
 20
73.0215285802862
 30
0
  0
VERTEX
  5
4A
  8
0
  6
BYLAYER
 62
    7
 10
136.600615720985
 20
73.62727158028616
 30
0
  0
VERTEX
  5
4B
  8
0
  6
BYLAYER
 62
    7
 10
135.9444267209851
 20
74.26203758028618
 30
0
  0
VERTEX
  5
4C
  8
0
  6
BYLAYER
 62
    7
 10
134.7160947209851
 20
75.6092665802862
 30
0
  0
VERTEX
  5
4D
  8
0
  6
BYLAYER
 62
    7
 10
133.5948787209851
 20
77.04185358028622
 30
0
  0
VERTEX
  5
4E
  8
0
  6
BYLAYER
 62
    7
 10
132.956572720985
 20
77.94770658028619
 30
0
  0
VERTEX
  5
4F
  8
0
  6
BYLAYER
 62
    7
 10
131.754302720985
 20
79.80479258028618
 30
0
  0
VERTEX
  5
50
  8
0
  6
BYLAYER
 62
    7
 10
130.6574397209851
 20
81.58897258028617
 30
0
  0
VERTEX
  5
51
  8
0
  6
BYLAYER
 62
    7
 10
127.819548720985
 20
86.03358258028618
 30
0
  0
VERTEX
  5
52
  8
0
  6
BYLAYER
 62
    7
 10
126.6584157209851
 20
87.81001158028619
 30
0
  0
VERTEX
  5
53
  8
0
  6
BYLAYER
 62
    7
 10
126.0937797209851
 20
88.70756358028621
 30
0
  0
VERTEX
  5
54
  8
0
  6
BYLAYER
 62
    7
 10
125.285369720985
 20
90.0752695802862
 30
0
  0
VERTEX
  5
55
  8
0
  6
BYLAYER
 62
    7
 10
124.5399467209851
 20
91.47694258028616
 30
0
  0
VERTEX
  5
56
  8
0
  6
BYLAYER
 62
    7
 10
124.064726720985
 20
92.4752635802862
 30
0
  0
VERTEX
  5
57
  8
0
  6
BYLAYER
 62
    7
 10
123.626372720985
 20
93.49232358028621
 30
0
  0
VERTEX
  5
58
  8
0
  6
BYLAYER
 62
    7
 10
123.1223447209851
 20
94.80048958028618
 30
0
  0
VERTEX
  5
59
  8
0
  6
BYLAYER
 62
    7
 10
122.8130787209851
 20
95.68467558028618
 30
0
  0
VERTEX
  5
5A
  8
0
  6
BYLAYER
 62
    7
 10
122.2417897209851
 20
97.47077758028621
 30
0
  0
VERTEX
  5
5B
  8
0
  6
BYLAYER
 62
    7
 10
121.4154957209851
 20
100.1970045802862
 30
0
  0
VERTEX
  5
5C
  8
0
  6
BYLAYER
 62
    7
 10
120.9826347209851
 20
101.5328505802862
 30
0
  0
VERTEX
  5
5D
  8
0
  6
BYLAYER
 62
    7
 10
120.550505720985
 20
102.7339615802862
 30
0
  0
VERTEX
  5
5E
  8
0
  6
BYLAYER
 62
    7
 10
120.0730277209851
 20
103.8981155802862
 30
0
  0
VERTEX
  5
5F
  8
0
  6
BYLAYER
 62
    7
 10
119.5912167209851
 20
104.9156935802862
 30
0
  0
VERTEX
  5
60
  8
0
  6
BYLAYER
 62
    7
 10
119.054961720985
 20
105.8921345802862
 30
0
  0
VERTEX
  5
61
  8
0
  6
BYLAYER
 62
    7
 10
118.6430967209851
 20
106.5497575802862
 30
0
  0
VERTEX
  5
62
  8
0
  6
BYLAYER
 62
    7
 10
118.1991267209851
 20
107.1838215802862
 30
0
  0
VERTEX
  5
63
  8
0
  6
BYLAYER
 62
    7
 10
117.5542287209851
 20
107.9905535802862
 30
0
  0
VERTEX
  5
64
  8
0
  6
BYLAYER
 62
    7
 10
116.8450617209851
 20
108.7508985802862
 30
0
  0
VERTEX
  5
65
  8
0
  6
BYLAYER
 62
    7
 10
116.068511720985
 20
109.4627215802862
 30
0
  0
VERTEX
  5
66
  8
0
  6
BYLAYER
 62
    7
 10
114.966338720985
 20
110.3038465802862
 30
0
  0
VERTEX
  5
67
  8
0
  6
BYLAYER
 62
    7
 10
113.7430107209851
 20
111.0587295802862
 30
0
  0
VERTEX
  5
68
  8
0
  6
BYLAYER
 62
    7
 10
112.3946827209851
 20
111.7250195802862
 30
0
  0
VERTEX
  5
69
  8
0
  6
BYLAYER
 62
    7
 10
110.9186697209851
 20
112.3009475802862
 30
0
  0
VERTEX
  5
6A
  8
0
  6
BYLAYER
 62
    7
 10
109.3127737209851
 20
112.7852305802862
 30
0
  0
VERTEX
  5
6B
  8
0
  6
BYLAYER
 62
    7
 10
107.874480720985
 20
113.1181775802862
 30
0
  0
VERTEX
  5
6C
  8
0
  6
BYLAYER
 62
    7
 10
106.344634720985
 20
113.3866105802862
 30
0
  0
VERTEX
  5
6D
  8
0
  6
BYLAYER
 62
    7
 10
104.7229307209851
 20
113.5903455802862
 30
0
  0
VERTEX
  5
6E
  8
0
  6
BYLAYER
 62
    7
 10
103.4463797209851
 20
113.7006665802862
 30
0
  0
VERTEX
  5
6F
  8
0
  6
BYLAYER
 62
    7
 10
102.1180717209851
 20
113.7745195802862
 30
0
  0
SEQEND
  5
70
  8
0
  6
BYLAYER
 62
    7
  0
LINE
  5
71
  8
0
  6
BYLAYER
 62
    7
 10
-134.1946722790149
 20
113.7745195802862
 11
102.1180717209851
 21
113.7745195802862
  0
POLYLINE
  5
72
  8
0
  6
BYLAYER
 62
    7
 66
    1
 10
0
 20
0
 30
0
 70
    0
  0
VERTEX
  5
73
  8
0
  6
BYLAYER
 62
    7
 10
-188.9187932790149
 20
60.63642758028618
 30
0
  0
VERTEX
  5
74
  8
0
  6
BYLAYER
 62
    7
 10
-187.0769352790149
 20
61.35719158028621
 30
0
  0
VERTEX
  5
75
  8
0
  6
BYLAYER
 62
    7
 10
-185.2596742790149
 20
62.11616358028618
 30
0
  0
VERTEX
  5
76
  8
0
  6
BYLAYER
 62
    7
 10
-183.4657902790149
 20
62.91218458028618
 30
0
  0
VERTEX
  5
77
  8
0
  6
BYLAYER
 62
    7
 10
-180.3430792790149
 20
64.39762758028621
 30
0
  0
VERTEX
  5
78
  8
0
  6
BYLAYER
 62
    7
 10
-177.6554872790149
 20
65.74204858028617
 30
0
  0
VERTEX
  5
79
  8
0
  6
BYLAYER
 62
    7
 10
-173.6075142790149
 20
67.79691958028621
 30
0
  0
VERTEX
  5
7A
  8
0
  6
BYLAYER
 62
    7
 10
-171.1462712790149
 20
69.08723258028618
 30
0
  0
VERTEX
  5
7B
  8
0
  6
BYLAYER
 62
    7
 10
-169.9360052790149
 20
69.76365558028618
 30
0
  0
VERTEX
  5
7C
  8
0
  6
BYLAYER
 62
    7
 10
-168.1709902790149
 20
70.84391658028619
 30
0
  0
VERTEX
  5
7D
  8
0
  6
BYLAYER
 62
    7
 10
-166.9008792790149
 20
71.72065558028618
 30
0
  0
VERTEX
  5
7E
  8
0
  6
BYLAYER
 62
    7
 10
-165.6844492790149
 20
72.6626725802862
 30
0
  0
VERTEX
  5
7F
  8
0
  6
BYLAYER
 62
    7
 10
-164.5945742790149
 20
73.60362058028619
 30
0
  0
VERTEX
  5
80
  8
0
  6
BYLAYER
 62
    7
 10
-163.5456242790149
 20
74.59532058028617
 30
0
  0
VERTEX
  5
81
  8
0
  6
BYLAYER
 62
    7
 10
-162.1923532790149
 20
75.97663758028619
 30
0
  0
VERTEX
  5
82
  8
0
  6
BYLAYER
 62
    7
 10
-161.3060922790149
 20
76.92066758028619
 30
0
  0
VERTEX
  5
83
  8
0
  6
BYLAYER
 62
    7
 10
-157.7666932790149
 20
80.73106258028616
 30
0
  0
VERTEX
  5
84
  8
0
  6
BYLAYER
 62
    7
 10
-156.8896792790149
 20
81.68702558028616
 30
0
  0
VERTEX
  5
85
  8
0
  6
BYLAYER
 62
    7
 10
-155.6125802790149
 20
83.14381258028618
 30
0
  0
VERTEX
  5
86
  8
0
  6
BYLAYER
 62
    7
 10
-154.7032172790149
 20
84.2684465802862
 30
0
  0
VERTEX
  5
87
  8
0
  6
BYLAYER
 62
    7
 10
-153.8487862790149
 20
85.43125758028617
 30
0
  0
VERTEX
  5
88
  8
0
  6
BYLAYER
 62
    7
 10
-153.1231082790149
 20
86.52909658028619
 30
0
  0
VERTEX
  5
89
  8
0
  6
BYLAYER
 62
    7
 10
-152.4477852790149
 20
87.66282458028621
 30
0
  0
VERTEX
  5
8A
  8
0
  6
BYLAYER
 62
    7
 10
-151.7175302790149
 20
89.02378658028618
 30
0
  0
VERTEX
  5
8B
  8
0
  6
BYLAYER
 62
    7
 10
-151.2583932790149
 20
89.95048358028617
 30
0
  0
VERTEX
  5
8C
  8
0
  6
BYLAYER
 62
    7
 10
-150.3852542790149
 20
91.83408958028616
 30
0
  0
VERTEX
  5
8D
  8
0
  6
BYLAYER
 62
    7
 10
-149.3528752790149
 20
94.15605058028621
 30
0
  0
VERTEX
  5
8E
  8
0
  6
BYLAYER
 62
    7
 10
-148.3047792790149
 20
96.46058458028619
 30
0
  0
VERTEX
  5
8F
  8
0
  6
BYLAYER
 62
    7
 10
-147.1988222790149
 20
98.71870258028616
 30
0
  0
VERTEX
  5
90
  8
0
  6
BYLAYER
 62
    7
 10
-146.3132632790149
 20
100.3703745802862
 30
0
  0
VERTEX
  5
91
  8
0
  6
BYLAYER
 62
    7
 10
-145.3695992790149
 20
101.9802685802862
 30
0
  0
VERTEX
  5
92
  8
0
  6
BYLAYER
 62
    7
 10
-144.1189882790149
 20
103.8986035802862
 30
0
  0
VERTEX
  5
93
  8
0
  6
BYLAYER
 62
    7
 10
-142.7610782790149
 20
105.7432995802862
 30
0
  0
VERTEX
  5
94
  8
0
  6
BYLAYER
 62
    7
 10
-141.2890932790149
 20
107.5108775802862
 30
0
  0
VERTEX
  5
95
  8
0
  6
BYLAYER
 62
    7
 10
-139.6986392790149
 20
109.1988965802862
 30
0
  0
VERTEX
  5
96
  8
0
  6
BYLAYER
 62
    7
 10
-137.9868472790149
 20
110.8059525802862
 30
0
  0
VERTEX
  5
97
  8
0
  6
BYLAYER
 62
    7
 10
-136.1524052790149
 20
112.3312515802862
 30
0
  0
VERTEX
  5
98
  8
0
  6
BYLAYER
 62
    7
 10
-134.1946722790149
 20
113.7745195802862
 30
0
  0
SEQEND
  5
99
  8
0
  6
BYLAYER
 62
    7
  0
LINE
  5
9A
  8
0
  6
BYLAYER
 62
    7
 10
-203.6960762790149
 20
-5.809007419713794
 11
-188.9187932790149
 21
60.63642758028618
  0
CIRCLE
  5
9B
  8
0
  6
BYLAYER
 62
    7
 10
77.64730772098505
 20
87.96809258028617
 40
4.5
  0
CIRCLE
  5
9C
  8
0
  6
BYLAYER
 62
    7
 10
84.64297472098508
 20
97.5247935802862
 40
2
  0
CIRCLE
  5
9D
  8
0
  6
BYLAYER
 62
    7
 10
102.6473077209851
 20
87.96809258028617
 40
4.5
  0
CIRCLE
  5
9E
  8
0
  6
BYLAYER
 62
    7
 10
-114.5721442790149
 20
100.6265705802862
 40
2
  0
CIRCLE
  5
9F
  8
0
  6
BYLAYER
 62
    7
 10
-92.0174262790149
 20
96.45661758028621
 40
4.5
  0
CIRCLE
  5
A0
  8
0
  6
BYLAYER
 62
    7
 10
-176.2207952790149
 20
32.83863658028616
 40
2
  0
CIRCLE
  5
A1
  8
0
  6
BYLAYER
 62
    7
 10
-129.8842472790149
 20
32.7310015802862
 40
9.5
  0
ARC
  5
A2
  8
0
  6
BYLAYER
 62
    7
 10
-70.6956492790149
 20
5.902815580286187
 40
6.35
 50
96.80317100000001
 51
85.051203
  0
LINE
  5
A3
  8
0
  6
BYLAYER
 62
    7
 10
-71.44790727901488
 20
12.20811358028618
 11
-71.44790727901488
 21
10.64787158028616
  0
LINE
  5
A4
  8
0
  6
BYLAYER
 62
    7
 10
-70.14785827901494
 20
10.64787158028616
 11
-70.14785827901494
 21
12.22913958028619
  0
LINE
  5
A5
  8
0
  6
BYLAYER
 62
    7
 10
-71.44790727901488
 20
10.64787158028616
 11
-70.14785827901494
 21
10.64787158028616
  0
CIRCLE
  5
A6
  8
0
  6
BYLAYER
 62
    7
 10
-104.8842472790149
 20
32.7310015802862
 40
9.5
  0
ARC
  5
A7
  8
0
  6
BYLAYER
 62
    7
 10
-146.1192942790149
 20
5.902815580286187
 40
6.35
 50
95.45479
 51
83.704364
  0
LINE
  5
A8
  8
0
  6
BYLAYER
 62
    7
 10
-146.7229312790149
 20
12.22407358028619
 11
-146.7229312790149
 21
10.64787158028616
  0
LINE
  5
A9
  8
0
  6
BYLAYER
 62
    7
 10
-145.4229742790149
 20
10.64787158028616
 11
-145.4229742790149
 21
12.2145215802862
  0
LINE
  5
AA
  8
0
  6
BYLAYER
 62
    7
 10
-146.7229312790149
 20
10.64787158028616
 11
-145.4229742790149
 21
10.64787158028616
  0
CIRCLE
  5
AB
  8
0
  6
BYLAYER
 62
    7
 10
-79.88424727901497
 20
32.7310015802862
 40
9.5
  0
ARC
  5
AC
  8
0
  6
BYLAYER
 62
    7
 10
103.8458547209851
 20
64.50996258028619
 40
6.35
 50
98.49942799999999
 51
86.736682
  0
LINE
  5
AD
  8
0
  6
BYLAYER
 62
    7
 10
102.9073177209851
 20
70.79023558028621
 11
102.9073177209851
 21
69.25501858028616
  0
LINE
  5
AE
  8
0
  6
BYLAYER
 62
    7
 10
104.2073057209851
 20
69.25501858028616
 11
104.2073057209851
 21
70.8496535802862
  0
LINE
  5
AF
  8
0
  6
BYLAYER
 62
    7
 10
102.9073177209851
 20
69.25501858028616
 11
104.2073057209851
 21
69.25501858028616
  0
CIRCLE
  5
B0
  8
0
  6
BYLAYER
 62
    7
 10
65.51290872098514
 20
32.13896058028621
 40
9.5
  0
ARC
  5
B1
  8
0
  6
BYLAYER
 62
    7
 10
63.75820872098507
 20
64.50996258028619
 40
6.35
 50
97.107415
 51
85.35427199999999
  0
LINE
  5
B2
  8
0
  6
BYLAYER
 62
    7
 10
62.97256372098514
 20
70.81117058028616
 11
62.97256372098514
 21
69.25501858028616
  0
LINE
  5
B3
  8
0
  6
BYLAYER
 62
    7
 10
64.27255172098512
 20
69.25501858028616
 11
64.27255172098512
 21
70.8390945802862
  0
LINE
  5
B4
  8
0
  6
BYLAYER
 62
    7
 10
62.97256372098514
 20
69.25501858028616
 11
64.27255172098512
 21
69.25501858028616
  0
CIRCLE
  5
B5
  8
0
  6
BYLAYER
 62
    7
 10
101.7466727209851
 20
32.8906995802862
 40
8
  0
ARC
  5
B6
  8
0
  6
BYLAYER
 62
    7
 10
-73.73837327901492
 20
79.81208658028618
 40
6.35
 50
96.80317100000001
 51
85.051203
  0
LINE
  5
B7
  8
0
  6
BYLAYER
 62
    7
 10
-74.49063127901491
 20
86.11738458028617
 11
-74.49063127901491
 21
84.55714258028621
  0
LINE
  5
B8
  8
0
  6
BYLAYER
 62
    7
 10
-73.19058327901496
 20
84.55714258028621
 11
-73.19058327901496
 21
86.13841058028618
  0
LINE
  5
B9
  8
0
  6
BYLAYER
 62
    7
 10
-74.49063127901491
 20
84.55714258028621
 11
-73.19058327901496
 21
84.55714258028621
  0
CIRCLE
  5
BA
  8
0
  6
BYLAYER
 62
    7
 10
52.64730772098505
 20
87.96809258028617
 40
4.5
  0
CIRCLE
  5
BB
  8
0
  6
BYLAYER
 62
    7
 10
-18.43081727901495
 20
104.7396985802862
 40
2.95
  0
CIRCLE
  5
BC
  8
0
  6
BYLAYER
 62
    7
 10
-59.06613227901494
 20
21.97013658028618
 40
1.9
  0
CIRCLE
  5
BD
  8
0
  6
BYLAYER
 62
    7
 10
-45.97720427901493
 20
88.83576858028619
 40
2.95
  0
CIRCLE
  5
BE
  8
0
  6
BYLAYER
 62
    7
 10
36.14382872098508
 20
58.9461505802862
 40
2.95
  0
CIRCLE
  5
BF
  8
0
  6
BYLAYER
 62
    7
 10
-56.85617127901492
 20
58.9461505802862
 40
2.95
  0
CIRCLE
  5
C0
  8
0
  6
BYLAYER
 62
    7
 10
33.33956872098508
 20
74.8500805802862
 40
2.95
  0
LINE
  5
C1
  8
0
  6
BYLAYER
 62
    7
 10
-22.35617127901492
 20
77.24012558028619
 11
-22.35617127901492
 21
43.24012558028619
  0
LINE
  5
C2
  8
0
  6
BYLAYER
 62
    7
 10
-22.35617127901492
 20
77.24012558028619
 11
1.643828720985084
 21
77.24012558028619
  0
LINE
  5
C3
  8
0
  6
BYLAYER
 62
    7
 10
1.643828720985084
 20
43.24012558028619
 11
-22.35617127901492
 21
43.24012558028619
  0
LINE
  5
C4
  8
0
  6
BYLAYER
 62
    7
 10
1.643828720985084
 20
43.24012558028619
 11
1.643828720985084
 21
77.24012558028619
  0
CIRCLE
  5
C5
  8
0
  6
BYLAYER
 62
    7
 10
25.26492272098506
 20
88.83576858028619
 40
2.95
  0
CIRCLE
  5
C6
  8
0
  6
BYLAYER
 62
    7
 10
-33.60617127901492
 20
99.2163225802862
 40
2.95
  0
CIRCLE
  5
C7
  8
0
  6
BYLAYER
 62
    7
 10
12.89382872098508
 20
99.2163225802862
 40
2.95
  0
CIRCLE
  5
C8
  8
0
  6
BYLAYER
 62
    7
 10
38.35385072098506
 20
21.97013658028618
 40
1.9
  0
CIRCLE
  5
C9
  8
0
  6
BYLAYER
 62
    7
 10
-2.281525279014886
 20
104.7396985802862
 40
2.95
  0
CIRCLE
  5
CA
  8
0
  6
BYLAYER
 62
    7
 10
-54.05185027901496
 20
74.8500805802862
 40
2.95
  0
CIRCLE
  5
CB
  8
0
  6
BYLAYER
 62
    7
 10
-10.35617127901492
 20
88.64015058028616
 40
1.9
  0
ENDSEC
  0
EOF
